G04 #@! TF.GenerationSoftware,KiCad,Pcbnew,(5.1.12)-1*
G04 #@! TF.CreationDate,2023-06-19T18:47:51+09:00*
G04 #@! TF.ProjectId,LED_Sphere_3V-TypeA-Panelized,4c45445f-5370-4686-9572-655f33562d54,rev?*
G04 #@! TF.SameCoordinates,PX5f5e100PY68e7780*
G04 #@! TF.FileFunction,Copper,L2,Bot*
G04 #@! TF.FilePolarity,Positive*
%FSLAX46Y46*%
G04 Gerber Fmt 4.6, Leading zero omitted, Abs format (unit mm)*
G04 Created by KiCad (PCBNEW (5.1.12)-1) date 2023-06-19 18:47:51*
%MOMM*%
%LPD*%
G01*
G04 APERTURE LIST*
G04 #@! TA.AperFunction,ComponentPad*
%ADD10R,1.350000X1.350000*%
G04 #@! TD*
G04 #@! TA.AperFunction,ComponentPad*
%ADD11O,1.350000X1.350000*%
G04 #@! TD*
G04 #@! TA.AperFunction,ComponentPad*
%ADD12C,0.100000*%
G04 #@! TD*
G04 #@! TA.AperFunction,ViaPad*
%ADD13C,1.500000*%
G04 #@! TD*
G04 #@! TA.AperFunction,ViaPad*
%ADD14C,0.800000*%
G04 #@! TD*
G04 #@! TA.AperFunction,Conductor*
%ADD15C,1.500000*%
G04 #@! TD*
G04 #@! TA.AperFunction,Conductor*
%ADD16C,0.250000*%
G04 #@! TD*
G04 #@! TA.AperFunction,Conductor*
%ADD17C,0.254000*%
G04 #@! TD*
G04 #@! TA.AperFunction,Conductor*
%ADD18C,0.100000*%
G04 #@! TD*
G04 APERTURE END LIST*
D10*
X5470000Y39200000D03*
X33070000Y39200000D03*
X60670000Y39200000D03*
X76730000Y2020000D03*
X49130000Y2020000D03*
X21360000Y39280000D03*
X48960000Y39280000D03*
X76560000Y39280000D03*
X60840000Y1940000D03*
X33240000Y1940000D03*
D11*
X15490000Y39160000D03*
X13490000Y39160000D03*
D10*
X11490000Y39160000D03*
D11*
X43090000Y39160000D03*
X41090000Y39160000D03*
D10*
X39090000Y39160000D03*
D11*
X70690000Y39160000D03*
X68690000Y39160000D03*
D10*
X66690000Y39160000D03*
D11*
X66710000Y2060000D03*
X68710000Y2060000D03*
D10*
X70710000Y2060000D03*
D11*
X39110000Y2060000D03*
X41110000Y2060000D03*
D10*
X43110000Y2060000D03*
G04 #@! TA.AperFunction,ComponentPad*
D12*
G36*
X13798774Y25080804D02*
G01*
X14580804Y26181226D01*
X15681226Y25399196D01*
X14899196Y24298774D01*
X13798774Y25080804D01*
G37*
G04 #@! TD.AperFunction*
G04 #@! TA.AperFunction,ComponentPad*
G36*
X41398774Y25080804D02*
G01*
X42180804Y26181226D01*
X43281226Y25399196D01*
X42499196Y24298774D01*
X41398774Y25080804D01*
G37*
G04 #@! TD.AperFunction*
G04 #@! TA.AperFunction,ComponentPad*
G36*
X68998774Y25080804D02*
G01*
X69780804Y26181226D01*
X70881226Y25399196D01*
X70099196Y24298774D01*
X68998774Y25080804D01*
G37*
G04 #@! TD.AperFunction*
G04 #@! TA.AperFunction,ComponentPad*
G36*
X68401226Y16139196D02*
G01*
X67619196Y15038774D01*
X66518774Y15820804D01*
X67300804Y16921226D01*
X68401226Y16139196D01*
G37*
G04 #@! TD.AperFunction*
G04 #@! TA.AperFunction,ComponentPad*
G36*
X40801226Y16139196D02*
G01*
X40019196Y15038774D01*
X38918774Y15820804D01*
X39700804Y16921226D01*
X40801226Y16139196D01*
G37*
G04 #@! TD.AperFunction*
G04 #@! TA.AperFunction,ComponentPad*
G36*
X12060804Y24318774D02*
G01*
X11278774Y25419196D01*
X12379196Y26201226D01*
X13161226Y25100804D01*
X12060804Y24318774D01*
G37*
G04 #@! TD.AperFunction*
G04 #@! TA.AperFunction,ComponentPad*
G36*
X39660804Y24318774D02*
G01*
X38878774Y25419196D01*
X39979196Y26201226D01*
X40761226Y25100804D01*
X39660804Y24318774D01*
G37*
G04 #@! TD.AperFunction*
G04 #@! TA.AperFunction,ComponentPad*
G36*
X67260804Y24318774D02*
G01*
X66478774Y25419196D01*
X67579196Y26201226D01*
X68361226Y25100804D01*
X67260804Y24318774D01*
G37*
G04 #@! TD.AperFunction*
G04 #@! TA.AperFunction,ComponentPad*
G36*
X70139196Y16901226D02*
G01*
X70921226Y15800804D01*
X69820804Y15018774D01*
X69038774Y16119196D01*
X70139196Y16901226D01*
G37*
G04 #@! TD.AperFunction*
G04 #@! TA.AperFunction,ComponentPad*
G36*
X42539196Y16901226D02*
G01*
X43321226Y15800804D01*
X42220804Y15018774D01*
X41438774Y16119196D01*
X42539196Y16901226D01*
G37*
G04 #@! TD.AperFunction*
G04 #@! TA.AperFunction,ComponentPad*
G36*
G01*
X17681226Y30500760D02*
X17681226Y30500760D01*
G75*
G02*
X18622452Y30659956I550211J-391015D01*
G01*
X18622452Y30659956D01*
G75*
G02*
X18781648Y29718730I-391015J-550211D01*
G01*
X18781648Y29718730D01*
G75*
G02*
X17840422Y29559534I-550211J391015D01*
G01*
X17840422Y29559534D01*
G75*
G02*
X17681226Y30500760I391015J550211D01*
G01*
G37*
G04 #@! TD.AperFunction*
G04 #@! TA.AperFunction,ComponentPad*
G36*
G01*
X18839789Y32131015D02*
X18839789Y32131015D01*
G75*
G02*
X19781015Y32290211I550211J-391015D01*
G01*
X19781015Y32290211D01*
G75*
G02*
X19940211Y31348985I-391015J-550211D01*
G01*
X19940211Y31348985D01*
G75*
G02*
X18998985Y31189789I-550211J391015D01*
G01*
X18998985Y31189789D01*
G75*
G02*
X18839789Y32131015I391015J550211D01*
G01*
G37*
G04 #@! TD.AperFunction*
G04 #@! TA.AperFunction,ComponentPad*
G36*
X19607336Y33211060D02*
G01*
X20389366Y34311482D01*
X21489788Y33529452D01*
X20707758Y32429030D01*
X19607336Y33211060D01*
G37*
G04 #@! TD.AperFunction*
G04 #@! TA.AperFunction,ComponentPad*
G36*
G01*
X45281226Y30500760D02*
X45281226Y30500760D01*
G75*
G02*
X46222452Y30659956I550211J-391015D01*
G01*
X46222452Y30659956D01*
G75*
G02*
X46381648Y29718730I-391015J-550211D01*
G01*
X46381648Y29718730D01*
G75*
G02*
X45440422Y29559534I-550211J391015D01*
G01*
X45440422Y29559534D01*
G75*
G02*
X45281226Y30500760I391015J550211D01*
G01*
G37*
G04 #@! TD.AperFunction*
G04 #@! TA.AperFunction,ComponentPad*
G36*
G01*
X46439789Y32131015D02*
X46439789Y32131015D01*
G75*
G02*
X47381015Y32290211I550211J-391015D01*
G01*
X47381015Y32290211D01*
G75*
G02*
X47540211Y31348985I-391015J-550211D01*
G01*
X47540211Y31348985D01*
G75*
G02*
X46598985Y31189789I-550211J391015D01*
G01*
X46598985Y31189789D01*
G75*
G02*
X46439789Y32131015I391015J550211D01*
G01*
G37*
G04 #@! TD.AperFunction*
G04 #@! TA.AperFunction,ComponentPad*
G36*
X47207336Y33211060D02*
G01*
X47989366Y34311482D01*
X49089788Y33529452D01*
X48307758Y32429030D01*
X47207336Y33211060D01*
G37*
G04 #@! TD.AperFunction*
G04 #@! TA.AperFunction,ComponentPad*
G36*
G01*
X72881226Y30500760D02*
X72881226Y30500760D01*
G75*
G02*
X73822452Y30659956I550211J-391015D01*
G01*
X73822452Y30659956D01*
G75*
G02*
X73981648Y29718730I-391015J-550211D01*
G01*
X73981648Y29718730D01*
G75*
G02*
X73040422Y29559534I-550211J391015D01*
G01*
X73040422Y29559534D01*
G75*
G02*
X72881226Y30500760I391015J550211D01*
G01*
G37*
G04 #@! TD.AperFunction*
G04 #@! TA.AperFunction,ComponentPad*
G36*
G01*
X74039789Y32131015D02*
X74039789Y32131015D01*
G75*
G02*
X74981015Y32290211I550211J-391015D01*
G01*
X74981015Y32290211D01*
G75*
G02*
X75140211Y31348985I-391015J-550211D01*
G01*
X75140211Y31348985D01*
G75*
G02*
X74198985Y31189789I-550211J391015D01*
G01*
X74198985Y31189789D01*
G75*
G02*
X74039789Y32131015I391015J550211D01*
G01*
G37*
G04 #@! TD.AperFunction*
G04 #@! TA.AperFunction,ComponentPad*
G36*
X74807336Y33211060D02*
G01*
X75589366Y34311482D01*
X76689788Y33529452D01*
X75907758Y32429030D01*
X74807336Y33211060D01*
G37*
G04 #@! TD.AperFunction*
G04 #@! TA.AperFunction,ComponentPad*
G36*
G01*
X64518774Y10719240D02*
X64518774Y10719240D01*
G75*
G02*
X63577548Y10560044I-550211J391015D01*
G01*
X63577548Y10560044D01*
G75*
G02*
X63418352Y11501270I391015J550211D01*
G01*
X63418352Y11501270D01*
G75*
G02*
X64359578Y11660466I550211J-391015D01*
G01*
X64359578Y11660466D01*
G75*
G02*
X64518774Y10719240I-391015J-550211D01*
G01*
G37*
G04 #@! TD.AperFunction*
G04 #@! TA.AperFunction,ComponentPad*
G36*
G01*
X63360211Y9088985D02*
X63360211Y9088985D01*
G75*
G02*
X62418985Y8929789I-550211J391015D01*
G01*
X62418985Y8929789D01*
G75*
G02*
X62259789Y9871015I391015J550211D01*
G01*
X62259789Y9871015D01*
G75*
G02*
X63201015Y10030211I550211J-391015D01*
G01*
X63201015Y10030211D01*
G75*
G02*
X63360211Y9088985I-391015J-550211D01*
G01*
G37*
G04 #@! TD.AperFunction*
G04 #@! TA.AperFunction,ComponentPad*
G36*
X62592664Y8008940D02*
G01*
X61810634Y6908518D01*
X60710212Y7690548D01*
X61492242Y8790970D01*
X62592664Y8008940D01*
G37*
G04 #@! TD.AperFunction*
G04 #@! TA.AperFunction,ComponentPad*
G36*
G01*
X36918774Y10719240D02*
X36918774Y10719240D01*
G75*
G02*
X35977548Y10560044I-550211J391015D01*
G01*
X35977548Y10560044D01*
G75*
G02*
X35818352Y11501270I391015J550211D01*
G01*
X35818352Y11501270D01*
G75*
G02*
X36759578Y11660466I550211J-391015D01*
G01*
X36759578Y11660466D01*
G75*
G02*
X36918774Y10719240I-391015J-550211D01*
G01*
G37*
G04 #@! TD.AperFunction*
G04 #@! TA.AperFunction,ComponentPad*
G36*
G01*
X35760211Y9088985D02*
X35760211Y9088985D01*
G75*
G02*
X34818985Y8929789I-550211J391015D01*
G01*
X34818985Y8929789D01*
G75*
G02*
X34659789Y9871015I391015J550211D01*
G01*
X34659789Y9871015D01*
G75*
G02*
X35601015Y10030211I550211J-391015D01*
G01*
X35601015Y10030211D01*
G75*
G02*
X35760211Y9088985I-391015J-550211D01*
G01*
G37*
G04 #@! TD.AperFunction*
G04 #@! TA.AperFunction,ComponentPad*
G36*
X34992664Y8008940D02*
G01*
X34210634Y6908518D01*
X33110212Y7690548D01*
X33892242Y8790970D01*
X34992664Y8008940D01*
G37*
G04 #@! TD.AperFunction*
G04 #@! TA.AperFunction,ComponentPad*
G36*
X23048774Y38160804D02*
G01*
X23830804Y39261226D01*
X24931226Y38479196D01*
X24149196Y37378774D01*
X23048774Y38160804D01*
G37*
G04 #@! TD.AperFunction*
G04 #@! TA.AperFunction,ComponentPad*
G36*
X50648774Y38160804D02*
G01*
X51430804Y39261226D01*
X52531226Y38479196D01*
X51749196Y37378774D01*
X50648774Y38160804D01*
G37*
G04 #@! TD.AperFunction*
G04 #@! TA.AperFunction,ComponentPad*
G36*
X78248774Y38160804D02*
G01*
X79030804Y39261226D01*
X80131226Y38479196D01*
X79349196Y37378774D01*
X78248774Y38160804D01*
G37*
G04 #@! TD.AperFunction*
G04 #@! TA.AperFunction,ComponentPad*
G36*
X59151226Y3059196D02*
G01*
X58369196Y1958774D01*
X57268774Y2740804D01*
X58050804Y3841226D01*
X59151226Y3059196D01*
G37*
G04 #@! TD.AperFunction*
G04 #@! TA.AperFunction,ComponentPad*
G36*
X31551226Y3059196D02*
G01*
X30769196Y1958774D01*
X29668774Y2740804D01*
X30450804Y3841226D01*
X31551226Y3059196D01*
G37*
G04 #@! TD.AperFunction*
G04 #@! TA.AperFunction,ComponentPad*
G36*
X2740804Y37388774D02*
G01*
X1958774Y38489196D01*
X3059196Y39271226D01*
X3841226Y38170804D01*
X2740804Y37388774D01*
G37*
G04 #@! TD.AperFunction*
G04 #@! TA.AperFunction,ComponentPad*
G36*
X30340804Y37388774D02*
G01*
X29558774Y38489196D01*
X30659196Y39271226D01*
X31441226Y38170804D01*
X30340804Y37388774D01*
G37*
G04 #@! TD.AperFunction*
G04 #@! TA.AperFunction,ComponentPad*
G36*
X57940804Y37388774D02*
G01*
X57158774Y38489196D01*
X58259196Y39271226D01*
X59041226Y38170804D01*
X57940804Y37388774D01*
G37*
G04 #@! TD.AperFunction*
G04 #@! TA.AperFunction,ComponentPad*
G36*
X79459196Y3831226D02*
G01*
X80241226Y2730804D01*
X79140804Y1948774D01*
X78358774Y3049196D01*
X79459196Y3831226D01*
G37*
G04 #@! TD.AperFunction*
G04 #@! TA.AperFunction,ComponentPad*
G36*
X51859196Y3831226D02*
G01*
X52641226Y2730804D01*
X51540804Y1948774D01*
X50758774Y3049196D01*
X51859196Y3831226D01*
G37*
G04 #@! TD.AperFunction*
G04 #@! TA.AperFunction,ComponentPad*
G36*
X6242242Y32489030D02*
G01*
X5460212Y33589452D01*
X6560634Y34371482D01*
X7342664Y33271060D01*
X6242242Y32489030D01*
G37*
G04 #@! TD.AperFunction*
G04 #@! TA.AperFunction,ComponentPad*
G36*
G01*
X7009789Y31408985D02*
X7009789Y31408985D01*
G75*
G02*
X7168985Y32350211I550211J391015D01*
G01*
X7168985Y32350211D01*
G75*
G02*
X8110211Y32191015I391015J-550211D01*
G01*
X8110211Y32191015D01*
G75*
G02*
X7951015Y31249789I-550211J-391015D01*
G01*
X7951015Y31249789D01*
G75*
G02*
X7009789Y31408985I-391015J550211D01*
G01*
G37*
G04 #@! TD.AperFunction*
G04 #@! TA.AperFunction,ComponentPad*
G36*
G01*
X8168352Y29778730D02*
X8168352Y29778730D01*
G75*
G02*
X8327548Y30719956I550211J391015D01*
G01*
X8327548Y30719956D01*
G75*
G02*
X9268774Y30560760I391015J-550211D01*
G01*
X9268774Y30560760D01*
G75*
G02*
X9109578Y29619534I-550211J-391015D01*
G01*
X9109578Y29619534D01*
G75*
G02*
X8168352Y29778730I-391015J550211D01*
G01*
G37*
G04 #@! TD.AperFunction*
G04 #@! TA.AperFunction,ComponentPad*
G36*
X33842242Y32489030D02*
G01*
X33060212Y33589452D01*
X34160634Y34371482D01*
X34942664Y33271060D01*
X33842242Y32489030D01*
G37*
G04 #@! TD.AperFunction*
G04 #@! TA.AperFunction,ComponentPad*
G36*
G01*
X34609789Y31408985D02*
X34609789Y31408985D01*
G75*
G02*
X34768985Y32350211I550211J391015D01*
G01*
X34768985Y32350211D01*
G75*
G02*
X35710211Y32191015I391015J-550211D01*
G01*
X35710211Y32191015D01*
G75*
G02*
X35551015Y31249789I-550211J-391015D01*
G01*
X35551015Y31249789D01*
G75*
G02*
X34609789Y31408985I-391015J550211D01*
G01*
G37*
G04 #@! TD.AperFunction*
G04 #@! TA.AperFunction,ComponentPad*
G36*
G01*
X35768352Y29778730D02*
X35768352Y29778730D01*
G75*
G02*
X35927548Y30719956I550211J391015D01*
G01*
X35927548Y30719956D01*
G75*
G02*
X36868774Y30560760I391015J-550211D01*
G01*
X36868774Y30560760D01*
G75*
G02*
X36709578Y29619534I-550211J-391015D01*
G01*
X36709578Y29619534D01*
G75*
G02*
X35768352Y29778730I-391015J550211D01*
G01*
G37*
G04 #@! TD.AperFunction*
G04 #@! TA.AperFunction,ComponentPad*
G36*
X61442242Y32489030D02*
G01*
X60660212Y33589452D01*
X61760634Y34371482D01*
X62542664Y33271060D01*
X61442242Y32489030D01*
G37*
G04 #@! TD.AperFunction*
G04 #@! TA.AperFunction,ComponentPad*
G36*
G01*
X62209789Y31408985D02*
X62209789Y31408985D01*
G75*
G02*
X62368985Y32350211I550211J391015D01*
G01*
X62368985Y32350211D01*
G75*
G02*
X63310211Y32191015I391015J-550211D01*
G01*
X63310211Y32191015D01*
G75*
G02*
X63151015Y31249789I-550211J-391015D01*
G01*
X63151015Y31249789D01*
G75*
G02*
X62209789Y31408985I-391015J550211D01*
G01*
G37*
G04 #@! TD.AperFunction*
G04 #@! TA.AperFunction,ComponentPad*
G36*
G01*
X63368352Y29778730D02*
X63368352Y29778730D01*
G75*
G02*
X63527548Y30719956I550211J391015D01*
G01*
X63527548Y30719956D01*
G75*
G02*
X64468774Y30560760I391015J-550211D01*
G01*
X64468774Y30560760D01*
G75*
G02*
X64309578Y29619534I-550211J-391015D01*
G01*
X64309578Y29619534D01*
G75*
G02*
X63368352Y29778730I-391015J550211D01*
G01*
G37*
G04 #@! TD.AperFunction*
G04 #@! TA.AperFunction,ComponentPad*
G36*
X75957758Y8730970D02*
G01*
X76739788Y7630548D01*
X75639366Y6848518D01*
X74857336Y7948940D01*
X75957758Y8730970D01*
G37*
G04 #@! TD.AperFunction*
G04 #@! TA.AperFunction,ComponentPad*
G36*
G01*
X75190211Y9811015D02*
X75190211Y9811015D01*
G75*
G02*
X75031015Y8869789I-550211J-391015D01*
G01*
X75031015Y8869789D01*
G75*
G02*
X74089789Y9028985I-391015J550211D01*
G01*
X74089789Y9028985D01*
G75*
G02*
X74248985Y9970211I550211J391015D01*
G01*
X74248985Y9970211D01*
G75*
G02*
X75190211Y9811015I391015J-550211D01*
G01*
G37*
G04 #@! TD.AperFunction*
G04 #@! TA.AperFunction,ComponentPad*
G36*
G01*
X74031648Y11441270D02*
X74031648Y11441270D01*
G75*
G02*
X73872452Y10500044I-550211J-391015D01*
G01*
X73872452Y10500044D01*
G75*
G02*
X72931226Y10659240I-391015J550211D01*
G01*
X72931226Y10659240D01*
G75*
G02*
X73090422Y11600466I550211J391015D01*
G01*
X73090422Y11600466D01*
G75*
G02*
X74031648Y11441270I391015J-550211D01*
G01*
G37*
G04 #@! TD.AperFunction*
G04 #@! TA.AperFunction,ComponentPad*
G36*
X48357758Y8730970D02*
G01*
X49139788Y7630548D01*
X48039366Y6848518D01*
X47257336Y7948940D01*
X48357758Y8730970D01*
G37*
G04 #@! TD.AperFunction*
G04 #@! TA.AperFunction,ComponentPad*
G36*
G01*
X47590211Y9811015D02*
X47590211Y9811015D01*
G75*
G02*
X47431015Y8869789I-550211J-391015D01*
G01*
X47431015Y8869789D01*
G75*
G02*
X46489789Y9028985I-391015J550211D01*
G01*
X46489789Y9028985D01*
G75*
G02*
X46648985Y9970211I550211J391015D01*
G01*
X46648985Y9970211D01*
G75*
G02*
X47590211Y9811015I391015J-550211D01*
G01*
G37*
G04 #@! TD.AperFunction*
G04 #@! TA.AperFunction,ComponentPad*
G36*
G01*
X46431648Y11441270D02*
X46431648Y11441270D01*
G75*
G02*
X46272452Y10500044I-550211J-391015D01*
G01*
X46272452Y10500044D01*
G75*
G02*
X45331226Y10659240I-391015J550211D01*
G01*
X45331226Y10659240D01*
G75*
G02*
X45490422Y11600466I550211J391015D01*
G01*
X45490422Y11600466D01*
G75*
G02*
X46431648Y11441270I391015J-550211D01*
G01*
G37*
G04 #@! TD.AperFunction*
G04 #@! TA.AperFunction,ComponentPad*
G36*
X3951226Y3059196D02*
G01*
X3169196Y1958774D01*
X2068774Y2740804D01*
X2850804Y3841226D01*
X3951226Y3059196D01*
G37*
G04 #@! TD.AperFunction*
G04 #@! TA.AperFunction,ComponentPad*
G36*
X7392664Y8008940D02*
G01*
X6610634Y6908518D01*
X5510212Y7690548D01*
X6292242Y8790970D01*
X7392664Y8008940D01*
G37*
G04 #@! TD.AperFunction*
G04 #@! TA.AperFunction,ComponentPad*
G36*
G01*
X8160211Y9088985D02*
X8160211Y9088985D01*
G75*
G02*
X7218985Y8929789I-550211J391015D01*
G01*
X7218985Y8929789D01*
G75*
G02*
X7059789Y9871015I391015J550211D01*
G01*
X7059789Y9871015D01*
G75*
G02*
X8001015Y10030211I550211J-391015D01*
G01*
X8001015Y10030211D01*
G75*
G02*
X8160211Y9088985I-391015J-550211D01*
G01*
G37*
G04 #@! TD.AperFunction*
G04 #@! TA.AperFunction,ComponentPad*
G36*
G01*
X9318774Y10719240D02*
X9318774Y10719240D01*
G75*
G02*
X8377548Y10560044I-550211J391015D01*
G01*
X8377548Y10560044D01*
G75*
G02*
X8218352Y11501270I391015J550211D01*
G01*
X8218352Y11501270D01*
G75*
G02*
X9159578Y11660466I550211J-391015D01*
G01*
X9159578Y11660466D01*
G75*
G02*
X9318774Y10719240I-391015J-550211D01*
G01*
G37*
G04 #@! TD.AperFunction*
G04 #@! TA.AperFunction,ComponentPad*
G36*
X13201226Y16139196D02*
G01*
X12419196Y15038774D01*
X11318774Y15820804D01*
X12100804Y16921226D01*
X13201226Y16139196D01*
G37*
G04 #@! TD.AperFunction*
G04 #@! TA.AperFunction,ComponentPad*
G36*
X14939196Y16901226D02*
G01*
X15721226Y15800804D01*
X14620804Y15018774D01*
X13838774Y16119196D01*
X14939196Y16901226D01*
G37*
G04 #@! TD.AperFunction*
G04 #@! TA.AperFunction,ComponentPad*
G36*
G01*
X18831648Y11441270D02*
X18831648Y11441270D01*
G75*
G02*
X18672452Y10500044I-550211J-391015D01*
G01*
X18672452Y10500044D01*
G75*
G02*
X17731226Y10659240I-391015J550211D01*
G01*
X17731226Y10659240D01*
G75*
G02*
X17890422Y11600466I550211J391015D01*
G01*
X17890422Y11600466D01*
G75*
G02*
X18831648Y11441270I391015J-550211D01*
G01*
G37*
G04 #@! TD.AperFunction*
G04 #@! TA.AperFunction,ComponentPad*
G36*
G01*
X19990211Y9811015D02*
X19990211Y9811015D01*
G75*
G02*
X19831015Y8869789I-550211J-391015D01*
G01*
X19831015Y8869789D01*
G75*
G02*
X18889789Y9028985I-391015J550211D01*
G01*
X18889789Y9028985D01*
G75*
G02*
X19048985Y9970211I550211J391015D01*
G01*
X19048985Y9970211D01*
G75*
G02*
X19990211Y9811015I391015J-550211D01*
G01*
G37*
G04 #@! TD.AperFunction*
G04 #@! TA.AperFunction,ComponentPad*
G36*
X20757758Y8730970D02*
G01*
X21539788Y7630548D01*
X20439366Y6848518D01*
X19657336Y7948940D01*
X20757758Y8730970D01*
G37*
G04 #@! TD.AperFunction*
G04 #@! TA.AperFunction,ComponentPad*
G36*
X24259196Y3831226D02*
G01*
X25041226Y2730804D01*
X23940804Y1948774D01*
X23158774Y3049196D01*
X24259196Y3831226D01*
G37*
G04 #@! TD.AperFunction*
D10*
X21530000Y2020000D03*
X15510000Y2060000D03*
D11*
X13510000Y2060000D03*
X11510000Y2060000D03*
D10*
X5640000Y1940000D03*
D13*
X13520000Y7760000D03*
X17062670Y3760000D03*
X44662670Y3760000D03*
X72262670Y3760000D03*
X65137330Y37460000D03*
X37537330Y37460000D03*
X9937330Y37460000D03*
X41120000Y7760000D03*
X68720000Y7760000D03*
X68680000Y33460000D03*
X41080000Y33460000D03*
X13480000Y33460000D03*
D14*
X12520000Y5230000D03*
X12071693Y7223324D03*
X39671693Y7223324D03*
X67271693Y7223324D03*
X70128307Y33996676D03*
X42528307Y33996676D03*
X14928307Y33996676D03*
X40120000Y5230000D03*
X67720000Y5230000D03*
X69680000Y35990000D03*
X42080000Y35990000D03*
X14480000Y35990000D03*
D15*
X18665254Y7789744D02*
X20598562Y7789744D01*
X17606438Y8848560D02*
X18665254Y7789744D01*
X17606438Y10375256D02*
X17606438Y8848560D01*
X18281437Y11050255D02*
X17606438Y10375256D01*
X15510000Y2465002D02*
X15510000Y2060000D01*
X14290001Y3685001D02*
X15510000Y2465002D01*
X12729999Y3685001D02*
X14290001Y3685001D01*
X11884999Y2840001D02*
X12729999Y3685001D01*
X11884999Y2374999D02*
X11884999Y2840001D01*
X11570000Y2060000D02*
X11884999Y2374999D01*
X11510000Y2060000D02*
X11570000Y2060000D01*
X8384746Y7849744D02*
X6451438Y7849744D01*
X9443562Y8908560D02*
X8384746Y7849744D01*
X9443562Y10435256D02*
X9443562Y8908560D01*
X8768563Y11110255D02*
X9443562Y10435256D01*
X15510000Y2060000D02*
X18780000Y2060000D01*
X18780000Y2330002D02*
X21660000Y5210002D01*
X18780000Y2060000D02*
X18780000Y2330002D01*
X21660000Y6728306D02*
X20598562Y7789744D01*
X21660000Y5210002D02*
X21660000Y6728306D01*
X41890001Y3685001D02*
X43110000Y2465002D01*
X69490001Y3685001D02*
X70710000Y2465002D01*
X67909999Y37534999D02*
X66690000Y38754998D01*
X40309999Y37534999D02*
X39090000Y38754998D01*
X12709999Y37534999D02*
X11490000Y38754998D01*
X36368563Y11110255D02*
X37043562Y10435256D01*
X63968563Y11110255D02*
X64643562Y10435256D01*
X73431437Y30109745D02*
X72756438Y30784744D01*
X45831437Y30109745D02*
X45156438Y30784744D01*
X18231437Y30109745D02*
X17556438Y30784744D01*
X40329999Y3685001D02*
X41890001Y3685001D01*
X67929999Y3685001D02*
X69490001Y3685001D01*
X69470001Y37534999D02*
X67909999Y37534999D01*
X41870001Y37534999D02*
X40309999Y37534999D01*
X14270001Y37534999D02*
X12709999Y37534999D01*
X43110000Y2060000D02*
X46380000Y2060000D01*
X70710000Y2060000D02*
X73980000Y2060000D01*
X66690000Y39160000D02*
X63420000Y39160000D01*
X39090000Y39160000D02*
X35820000Y39160000D01*
X11490000Y39160000D02*
X8220000Y39160000D01*
X46380000Y2060000D02*
X46380000Y2330002D01*
X73980000Y2060000D02*
X73980000Y2330002D01*
X63420000Y39160000D02*
X63420000Y38889998D01*
X35820000Y39160000D02*
X35820000Y38889998D01*
X8220000Y39160000D02*
X8220000Y38889998D01*
X39110000Y2060000D02*
X39170000Y2060000D01*
X66710000Y2060000D02*
X66770000Y2060000D01*
X70690000Y39160000D02*
X70630000Y39160000D01*
X43090000Y39160000D02*
X43030000Y39160000D01*
X15490000Y39160000D02*
X15430000Y39160000D01*
X37043562Y8908560D02*
X35984746Y7849744D01*
X64643562Y8908560D02*
X63584746Y7849744D01*
X72756438Y32311440D02*
X73815254Y33370256D01*
X45156438Y32311440D02*
X46215254Y33370256D01*
X17556438Y32311440D02*
X18615254Y33370256D01*
X49260000Y5210002D02*
X49260000Y6728306D01*
X76860000Y5210002D02*
X76860000Y6728306D01*
X60540000Y36009998D02*
X60540000Y34491694D01*
X32940000Y36009998D02*
X32940000Y34491694D01*
X5340000Y36009998D02*
X5340000Y34491694D01*
X39484999Y2374999D02*
X39484999Y2840001D01*
X67084999Y2374999D02*
X67084999Y2840001D01*
X70315001Y38845001D02*
X70315001Y38379999D01*
X42715001Y38845001D02*
X42715001Y38379999D01*
X15115001Y38845001D02*
X15115001Y38379999D01*
X45206438Y8848560D02*
X46265254Y7789744D01*
X72806438Y8848560D02*
X73865254Y7789744D01*
X64593562Y32371440D02*
X63534746Y33430256D01*
X36993562Y32371440D02*
X35934746Y33430256D01*
X9393562Y32371440D02*
X8334746Y33430256D01*
X37043562Y10435256D02*
X37043562Y8908560D01*
X64643562Y10435256D02*
X64643562Y8908560D01*
X72756438Y30784744D02*
X72756438Y32311440D01*
X45156438Y30784744D02*
X45156438Y32311440D01*
X17556438Y30784744D02*
X17556438Y32311440D01*
X49260000Y6728306D02*
X48198562Y7789744D01*
X76860000Y6728306D02*
X75798562Y7789744D01*
X60540000Y34491694D02*
X61601438Y33430256D01*
X32940000Y34491694D02*
X34001438Y33430256D01*
X5340000Y34491694D02*
X6401438Y33430256D01*
X46265254Y7789744D02*
X48198562Y7789744D01*
X73865254Y7789744D02*
X75798562Y7789744D01*
X63534746Y33430256D02*
X61601438Y33430256D01*
X35934746Y33430256D02*
X34001438Y33430256D01*
X8334746Y33430256D02*
X6401438Y33430256D01*
X45206438Y10375256D02*
X45206438Y8848560D01*
X72806438Y10375256D02*
X72806438Y8848560D01*
X64593562Y30844744D02*
X64593562Y32371440D01*
X36993562Y30844744D02*
X36993562Y32371440D01*
X9393562Y30844744D02*
X9393562Y32371440D01*
X46380000Y2330002D02*
X49260000Y5210002D01*
X73980000Y2330002D02*
X76860000Y5210002D01*
X63420000Y38889998D02*
X60540000Y36009998D01*
X35820000Y38889998D02*
X32940000Y36009998D01*
X8220000Y38889998D02*
X5340000Y36009998D01*
X39170000Y2060000D02*
X39484999Y2374999D01*
X66770000Y2060000D02*
X67084999Y2374999D01*
X70630000Y39160000D02*
X70315001Y38845001D01*
X43030000Y39160000D02*
X42715001Y38845001D01*
X15430000Y39160000D02*
X15115001Y38845001D01*
X39484999Y2840001D02*
X40329999Y3685001D01*
X67084999Y2840001D02*
X67929999Y3685001D01*
X70315001Y38379999D02*
X69470001Y37534999D01*
X42715001Y38379999D02*
X41870001Y37534999D01*
X15115001Y38379999D02*
X14270001Y37534999D01*
X43110000Y2465002D02*
X43110000Y2060000D01*
X70710000Y2465002D02*
X70710000Y2060000D01*
X66690000Y38754998D02*
X66690000Y39160000D01*
X39090000Y38754998D02*
X39090000Y39160000D01*
X11490000Y38754998D02*
X11490000Y39160000D01*
X35984746Y7849744D02*
X34051438Y7849744D01*
X63584746Y7849744D02*
X61651438Y7849744D01*
X73815254Y33370256D02*
X75748562Y33370256D01*
X46215254Y33370256D02*
X48148562Y33370256D01*
X18615254Y33370256D02*
X20548562Y33370256D01*
X45881437Y11050255D02*
X45206438Y10375256D01*
X73481437Y11050255D02*
X72806438Y10375256D01*
X63918563Y30169745D02*
X64593562Y30844744D01*
X36318563Y30169745D02*
X36993562Y30844744D01*
X8718563Y30169745D02*
X9393562Y30844744D01*
X11259999Y14979999D02*
X12260000Y15980000D01*
X11259999Y10020001D02*
X11259999Y14979999D01*
X13520000Y7760000D02*
X11259999Y10020001D01*
X13520000Y7302670D02*
X17062670Y3760000D01*
X13520000Y7760000D02*
X13520000Y7302670D01*
X11143572Y8204393D02*
X5839179Y2900000D01*
X11143572Y9963572D02*
X11143572Y8204393D01*
X5839179Y2900000D02*
X3010000Y2900000D01*
X11200001Y10020001D02*
X11143572Y9963572D01*
X11259999Y10020001D02*
X11200001Y10020001D01*
X5640000Y2700821D02*
X5839179Y2900000D01*
X5640000Y1940000D02*
X5640000Y2700821D01*
X13520000Y8820660D02*
X16230000Y11530660D01*
X13520000Y7760000D02*
X13520000Y8820660D01*
X16230000Y14510000D02*
X14780000Y15960000D01*
X16230000Y11530660D02*
X16230000Y14510000D01*
X38859999Y14979999D02*
X39860000Y15980000D01*
X66459999Y14979999D02*
X67460000Y15980000D01*
X70940001Y26240001D02*
X69940000Y25240000D01*
X43340001Y26240001D02*
X42340000Y25240000D01*
X15740001Y26240001D02*
X14740000Y25240000D01*
X38859999Y10020001D02*
X38859999Y14979999D01*
X66459999Y10020001D02*
X66459999Y14979999D01*
X70940001Y31199999D02*
X70940001Y26240001D01*
X43340001Y31199999D02*
X43340001Y26240001D01*
X15740001Y31199999D02*
X15740001Y26240001D01*
X41120000Y7302670D02*
X44662670Y3760000D01*
X68720000Y7302670D02*
X72262670Y3760000D01*
X68680000Y33917330D02*
X65137330Y37460000D01*
X41080000Y33917330D02*
X37537330Y37460000D01*
X13480000Y33917330D02*
X9937330Y37460000D01*
X38743572Y8204393D02*
X33439179Y2900000D01*
X66343572Y8204393D02*
X61039179Y2900000D01*
X71056428Y33015607D02*
X76360821Y38320000D01*
X43456428Y33015607D02*
X48760821Y38320000D01*
X15856428Y33015607D02*
X21160821Y38320000D01*
X41120000Y7760000D02*
X41120000Y7302670D01*
X68720000Y7760000D02*
X68720000Y7302670D01*
X68680000Y33460000D02*
X68680000Y33917330D01*
X41080000Y33460000D02*
X41080000Y33917330D01*
X13480000Y33460000D02*
X13480000Y33917330D01*
X38743572Y9963572D02*
X38743572Y8204393D01*
X66343572Y9963572D02*
X66343572Y8204393D01*
X71056428Y31256428D02*
X71056428Y33015607D01*
X43456428Y31256428D02*
X43456428Y33015607D01*
X15856428Y31256428D02*
X15856428Y33015607D01*
X33439179Y2900000D02*
X30610000Y2900000D01*
X61039179Y2900000D02*
X58210000Y2900000D01*
X76360821Y38320000D02*
X79190000Y38320000D01*
X48760821Y38320000D02*
X51590000Y38320000D01*
X21160821Y38320000D02*
X23990000Y38320000D01*
X38800001Y10020001D02*
X38743572Y9963572D01*
X66400001Y10020001D02*
X66343572Y9963572D01*
X70999999Y31199999D02*
X71056428Y31256428D01*
X43399999Y31199999D02*
X43456428Y31256428D01*
X15799999Y31199999D02*
X15856428Y31256428D01*
X41120000Y7760000D02*
X38859999Y10020001D01*
X68720000Y7760000D02*
X66459999Y10020001D01*
X68680000Y33460000D02*
X70940001Y31199999D01*
X41080000Y33460000D02*
X43340001Y31199999D01*
X13480000Y33460000D02*
X15740001Y31199999D01*
X38859999Y10020001D02*
X38800001Y10020001D01*
X66459999Y10020001D02*
X66400001Y10020001D01*
X70940001Y31199999D02*
X70999999Y31199999D01*
X43340001Y31199999D02*
X43399999Y31199999D01*
X15740001Y31199999D02*
X15799999Y31199999D01*
X33240000Y2700821D02*
X33439179Y2900000D01*
X60840000Y2700821D02*
X61039179Y2900000D01*
X76560000Y38519179D02*
X76360821Y38320000D01*
X48960000Y38519179D02*
X48760821Y38320000D01*
X21360000Y38519179D02*
X21160821Y38320000D01*
X33240000Y1940000D02*
X33240000Y2700821D01*
X60840000Y1940000D02*
X60840000Y2700821D01*
X76560000Y39280000D02*
X76560000Y38519179D01*
X48960000Y39280000D02*
X48960000Y38519179D01*
X21360000Y39280000D02*
X21360000Y38519179D01*
X43830000Y14510000D02*
X42380000Y15960000D01*
X71430000Y14510000D02*
X69980000Y15960000D01*
X65970000Y26710000D02*
X67420000Y25260000D01*
X38370000Y26710000D02*
X39820000Y25260000D01*
X10770000Y26710000D02*
X12220000Y25260000D01*
X41120000Y7760000D02*
X41120000Y8820660D01*
X68720000Y7760000D02*
X68720000Y8820660D01*
X68680000Y33460000D02*
X68680000Y32399340D01*
X41080000Y33460000D02*
X41080000Y32399340D01*
X13480000Y33460000D02*
X13480000Y32399340D01*
X43830000Y11530660D02*
X43830000Y14510000D01*
X71430000Y11530660D02*
X71430000Y14510000D01*
X65970000Y29689340D02*
X65970000Y26710000D01*
X38370000Y29689340D02*
X38370000Y26710000D01*
X10770000Y29689340D02*
X10770000Y26710000D01*
X41120000Y8820660D02*
X43830000Y11530660D01*
X68720000Y8820660D02*
X71430000Y11530660D01*
X68680000Y32399340D02*
X65970000Y29689340D01*
X41080000Y32399340D02*
X38370000Y29689340D01*
X13480000Y32399340D02*
X10770000Y29689340D01*
D16*
X12520000Y5230000D02*
X12520000Y6610000D01*
X12071693Y7058307D02*
X12071693Y7223324D01*
X12520000Y6610000D02*
X12071693Y7058307D01*
X40120000Y6610000D02*
X39671693Y7058307D01*
X67720000Y6610000D02*
X67271693Y7058307D01*
X69680000Y34610000D02*
X70128307Y34161693D01*
X42080000Y34610000D02*
X42528307Y34161693D01*
X14480000Y34610000D02*
X14928307Y34161693D01*
X40120000Y5230000D02*
X40120000Y6610000D01*
X67720000Y5230000D02*
X67720000Y6610000D01*
X69680000Y35990000D02*
X69680000Y34610000D01*
X42080000Y35990000D02*
X42080000Y34610000D01*
X14480000Y35990000D02*
X14480000Y34610000D01*
X39671693Y7058307D02*
X39671693Y7223324D01*
X67271693Y7058307D02*
X67271693Y7223324D01*
X70128307Y34161693D02*
X70128307Y33996676D01*
X42528307Y34161693D02*
X42528307Y33996676D01*
X14928307Y34161693D02*
X14928307Y33996676D01*
D17*
X15341443Y17392880D02*
X15278267Y17441751D01*
X15166300Y17497514D01*
X15045607Y17530362D01*
X14920824Y17539033D01*
X14796747Y17523194D01*
X14678144Y17483453D01*
X14569573Y17421336D01*
X14254064Y17193347D01*
X14216624Y16971985D01*
X14809953Y16137090D01*
X14826255Y16148675D01*
X14973393Y15941633D01*
X14957090Y15930047D01*
X15550419Y15095153D01*
X15771781Y15057712D01*
X16090849Y15280693D01*
X16185216Y15362797D01*
X16261751Y15461733D01*
X16317514Y15573700D01*
X16350362Y15694393D01*
X16359033Y15819176D01*
X16343194Y15943253D01*
X16318767Y16016153D01*
X19002944Y12235036D01*
X18814017Y12336019D01*
X18552944Y12415215D01*
X18281437Y12441955D01*
X18009930Y12415215D01*
X17748856Y12336019D01*
X17508250Y12207412D01*
X17350204Y12077707D01*
X16675203Y11402706D01*
X16622357Y11359336D01*
X16449281Y11148443D01*
X16352745Y10967837D01*
X16320674Y10907836D01*
X16247964Y10668142D01*
X16241478Y10646762D01*
X16221438Y10443292D01*
X16221438Y10443285D01*
X16214738Y10375256D01*
X16221438Y10307227D01*
X16221438Y8916589D01*
X16214738Y8848560D01*
X16221438Y8780531D01*
X16221438Y8780523D01*
X16235569Y8637053D01*
X16241478Y8577053D01*
X16320674Y8315980D01*
X16449282Y8075372D01*
X16578986Y7917327D01*
X16578989Y7917324D01*
X16622358Y7864479D01*
X16675202Y7821111D01*
X17637804Y6858508D01*
X17681173Y6805663D01*
X17734018Y6762294D01*
X17734020Y6762292D01*
X17769630Y6733068D01*
X17892066Y6632587D01*
X18051618Y6547305D01*
X18132673Y6503980D01*
X18393746Y6424784D01*
X18408479Y6423333D01*
X18597217Y6404744D01*
X18597225Y6404744D01*
X18665254Y6398044D01*
X18733283Y6404744D01*
X19983771Y6404744D01*
X20001360Y6384528D01*
X20100296Y6307993D01*
X20142792Y6286828D01*
X20275000Y6154620D01*
X20275000Y5783688D01*
X17936313Y3445000D01*
X16497431Y3445000D01*
X16494080Y3449083D01*
X16441241Y3492447D01*
X15317455Y4616232D01*
X15274082Y4669082D01*
X15063189Y4842158D01*
X14822582Y4970765D01*
X14561508Y5049961D01*
X14358038Y5070001D01*
X14358030Y5070001D01*
X14290001Y5076701D01*
X14221972Y5070001D01*
X13543451Y5070001D01*
X13555000Y5128061D01*
X13555000Y5331939D01*
X13515226Y5531898D01*
X13437205Y5720256D01*
X13323937Y5889774D01*
X13280000Y5933711D01*
X13280000Y6572677D01*
X13283676Y6610000D01*
X13280000Y6647323D01*
X13280000Y6647333D01*
X13269003Y6758986D01*
X13225546Y6902247D01*
X13154974Y7034276D01*
X13102165Y7098623D01*
X13106693Y7121385D01*
X13106693Y7325263D01*
X13066919Y7525222D01*
X12988898Y7713580D01*
X12875630Y7883098D01*
X12731467Y8027261D01*
X12561949Y8140529D01*
X12373591Y8218550D01*
X12173632Y8258324D01*
X11969754Y8258324D01*
X11769795Y8218550D01*
X11581437Y8140529D01*
X11411919Y8027261D01*
X11267756Y7883098D01*
X11154488Y7713580D01*
X11076467Y7525222D01*
X11036693Y7325263D01*
X11036693Y7121385D01*
X11076467Y6921426D01*
X11154488Y6733068D01*
X11267756Y6563550D01*
X11411919Y6419387D01*
X11581437Y6306119D01*
X11760001Y6232155D01*
X11760001Y5933712D01*
X11716063Y5889774D01*
X11602795Y5720256D01*
X11524774Y5531898D01*
X11485000Y5331939D01*
X11485000Y5128061D01*
X11524774Y4928102D01*
X11602795Y4739744D01*
X11692221Y4605908D01*
X10953764Y3867451D01*
X10900919Y3824082D01*
X10857549Y3771236D01*
X10857547Y3771234D01*
X10831880Y3739959D01*
X10727842Y3613189D01*
X10599235Y3372582D01*
X10520039Y3111508D01*
X10511690Y3026744D01*
X10352843Y2833188D01*
X10224236Y2592581D01*
X10145040Y2331507D01*
X10118299Y2060000D01*
X10145040Y1788493D01*
X10224236Y1527419D01*
X10352843Y1286812D01*
X10525919Y1075919D01*
X10736812Y902843D01*
X10977419Y774236D01*
X11238493Y695040D01*
X11441963Y675000D01*
X11501971Y675000D01*
X11570000Y668300D01*
X11638029Y675000D01*
X11638037Y675000D01*
X11841507Y695040D01*
X12102581Y774236D01*
X12343188Y902843D01*
X12554081Y1075919D01*
X12593468Y1123911D01*
X12674923Y1042456D01*
X12889482Y899093D01*
X13127887Y800342D01*
X13380976Y750000D01*
X13639024Y750000D01*
X13892113Y800342D01*
X14130518Y899093D01*
X14312513Y1020697D01*
X14383815Y933815D01*
X14480506Y854463D01*
X14590820Y795498D01*
X14710518Y759188D01*
X14835000Y746928D01*
X15067441Y746928D01*
X15238493Y695040D01*
X15441963Y675000D01*
X15441964Y675000D01*
X15510000Y668299D01*
X15578037Y675000D01*
X18711963Y675000D01*
X18780000Y668299D01*
X18848036Y675000D01*
X18848037Y675000D01*
X19051507Y695040D01*
X19312581Y774236D01*
X19553188Y902843D01*
X19764081Y1075919D01*
X19937157Y1286812D01*
X20065764Y1527419D01*
X20122223Y1713540D01*
X20301681Y1892998D01*
X20378748Y1892998D01*
X20220000Y1734250D01*
X20216928Y1345000D01*
X20229188Y1220518D01*
X20265498Y1100820D01*
X20324463Y990506D01*
X20403815Y893815D01*
X20500506Y814463D01*
X20610820Y755498D01*
X20730518Y719188D01*
X20855000Y706928D01*
X21244250Y710000D01*
X21403000Y868750D01*
X21403000Y1893000D01*
X21657000Y1893000D01*
X21657000Y868750D01*
X21815750Y710000D01*
X22205000Y706928D01*
X22329482Y719188D01*
X22449180Y755498D01*
X22559494Y814463D01*
X22656185Y893815D01*
X22735537Y990506D01*
X22794502Y1100820D01*
X22830812Y1220518D01*
X22843072Y1345000D01*
X22840000Y1734250D01*
X22681250Y1893000D01*
X21657000Y1893000D01*
X21403000Y1893000D01*
X21383000Y1893000D01*
X21383000Y1898219D01*
X23197712Y1898219D01*
X23420693Y1579151D01*
X23502797Y1484784D01*
X23601733Y1408249D01*
X23713700Y1352486D01*
X23834393Y1319638D01*
X23959176Y1310967D01*
X24083253Y1326806D01*
X24201856Y1366547D01*
X24310427Y1428664D01*
X24625936Y1656653D01*
X24663376Y1878015D01*
X24070047Y2712910D01*
X23235153Y2119581D01*
X23197712Y1898219D01*
X21383000Y1898219D01*
X21383000Y2147000D01*
X21403000Y2147000D01*
X21403000Y2167000D01*
X21657000Y2167000D01*
X21657000Y2147000D01*
X22681250Y2147000D01*
X22840000Y2305750D01*
X22840743Y2399920D01*
X22866653Y2364064D01*
X23088015Y2326624D01*
X23922910Y2919953D01*
X23329581Y3754847D01*
X23108219Y3792288D01*
X22789151Y3569307D01*
X22694784Y3487203D01*
X22618249Y3388267D01*
X22562486Y3276300D01*
X22550045Y3230588D01*
X22449180Y3284502D01*
X22329482Y3320812D01*
X22205000Y3333072D01*
X21815750Y3330000D01*
X21657002Y3171252D01*
X21657002Y3248318D01*
X22591241Y4182557D01*
X22644080Y4225921D01*
X22687445Y4278761D01*
X22687452Y4278768D01*
X22817156Y4436813D01*
X22817158Y4436815D01*
X22945764Y4677421D01*
X23024960Y4938495D01*
X23045000Y5141965D01*
X23045000Y5141974D01*
X23051700Y5210001D01*
X23045000Y5278028D01*
X23045000Y6541118D01*
X24577763Y4381963D01*
X24486300Y4427514D01*
X24365607Y4460362D01*
X24240824Y4469033D01*
X24116747Y4453194D01*
X23998144Y4413453D01*
X23889573Y4351336D01*
X23574064Y4123347D01*
X23536624Y3901985D01*
X24129953Y3067090D01*
X24146255Y3078675D01*
X24293393Y2871633D01*
X24277090Y2860047D01*
X24870419Y2025153D01*
X25091781Y1987712D01*
X25410849Y2210693D01*
X25505216Y2292797D01*
X25581751Y2391733D01*
X25637514Y2503700D01*
X25670362Y2624393D01*
X25679033Y2749176D01*
X25666354Y2848498D01*
X26340001Y1899552D01*
X26340000Y660000D01*
X6508090Y660000D01*
X6559180Y675498D01*
X6669494Y734463D01*
X6766185Y813815D01*
X6845537Y910506D01*
X6904502Y1020820D01*
X6940812Y1140518D01*
X6953072Y1265000D01*
X6950000Y1654250D01*
X6791250Y1813000D01*
X5767000Y1813000D01*
X5767000Y1793000D01*
X5513000Y1793000D01*
X5513000Y1813000D01*
X4488750Y1813000D01*
X4330000Y1654250D01*
X4326928Y1265000D01*
X4339188Y1140518D01*
X4375498Y1020820D01*
X4434463Y910506D01*
X4513815Y813815D01*
X4610506Y734463D01*
X4720820Y675498D01*
X4771910Y660000D01*
X660000Y660000D01*
X660000Y1888015D01*
X2446624Y1888015D01*
X2484064Y1666653D01*
X2799573Y1438664D01*
X2908144Y1376547D01*
X3026747Y1336806D01*
X3150824Y1320967D01*
X3275607Y1329638D01*
X3396300Y1362486D01*
X3508267Y1418249D01*
X3607203Y1494784D01*
X3689307Y1589151D01*
X3912288Y1908219D01*
X3874847Y2129581D01*
X3039953Y2722910D01*
X2446624Y1888015D01*
X660000Y1888015D01*
X660000Y1899555D01*
X1270236Y2759176D01*
X1430967Y2759176D01*
X1439638Y2634393D01*
X1472486Y2513700D01*
X1528249Y2401733D01*
X1604784Y2302797D01*
X1699151Y2220693D01*
X2018219Y1997712D01*
X2239581Y2035153D01*
X2832910Y2870047D01*
X2748615Y2929953D01*
X3187090Y2929953D01*
X4021985Y2336624D01*
X4243347Y2374064D01*
X4327906Y2491083D01*
X4330000Y2225750D01*
X4488750Y2067000D01*
X5513000Y2067000D01*
X5513000Y3091250D01*
X5767000Y3091250D01*
X5767000Y2067000D01*
X6791250Y2067000D01*
X6950000Y2225750D01*
X6953072Y2615000D01*
X6940812Y2739482D01*
X6904502Y2859180D01*
X6845537Y2969494D01*
X6766185Y3066185D01*
X6669494Y3145537D01*
X6559180Y3204502D01*
X6439482Y3240812D01*
X6315000Y3253072D01*
X5925750Y3250000D01*
X5767000Y3091250D01*
X5513000Y3091250D01*
X5354250Y3250000D01*
X4965000Y3253072D01*
X4840518Y3240812D01*
X4720820Y3204502D01*
X4610506Y3145537D01*
X4583308Y3123216D01*
X4580362Y3165607D01*
X4547514Y3286300D01*
X4491751Y3398267D01*
X4415216Y3497203D01*
X4320849Y3579307D01*
X4001781Y3802288D01*
X3780419Y3764847D01*
X3187090Y2929953D01*
X2748615Y2929953D01*
X1998015Y3463376D01*
X1776653Y3425936D01*
X1548664Y3110427D01*
X1486547Y3001856D01*
X1446806Y2883253D01*
X1430967Y2759176D01*
X1270236Y2759176D01*
X2074261Y3891781D01*
X2107712Y3891781D01*
X2145153Y3670419D01*
X2980047Y3077090D01*
X3573376Y3911985D01*
X3535936Y4133347D01*
X3220427Y4361336D01*
X3111856Y4423453D01*
X2993253Y4463194D01*
X2869176Y4479033D01*
X2744393Y4470362D01*
X2623700Y4437514D01*
X2511733Y4381751D01*
X2412797Y4305216D01*
X2330693Y4210849D01*
X2107712Y3891781D01*
X2074261Y3891781D01*
X4902684Y7876090D01*
X4888244Y7832998D01*
X4872405Y7708921D01*
X4881075Y7584138D01*
X4913924Y7463444D01*
X4969687Y7351478D01*
X5046222Y7252542D01*
X5140589Y7170438D01*
X5324490Y7039746D01*
X5467357Y6865663D01*
X5678250Y6692587D01*
X5918857Y6563980D01*
X6049888Y6524232D01*
X6241011Y6388408D01*
X6349581Y6326292D01*
X6468184Y6286550D01*
X6592261Y6270711D01*
X6717044Y6279381D01*
X6837738Y6312230D01*
X6949704Y6367993D01*
X7048640Y6444528D01*
X7066229Y6464744D01*
X8316717Y6464744D01*
X8384746Y6458044D01*
X8452775Y6464744D01*
X8452783Y6464744D01*
X8656253Y6484784D01*
X8917327Y6563980D01*
X9157934Y6692587D01*
X9368827Y6865663D01*
X9412200Y6918513D01*
X10374798Y7881110D01*
X10427643Y7924479D01*
X10481881Y7990567D01*
X10566163Y8093266D01*
X10600719Y8135372D01*
X10729326Y8375979D01*
X10792709Y8584923D01*
X10808522Y8637052D01*
X10816788Y8720978D01*
X10828562Y8840523D01*
X10828562Y8840531D01*
X10835262Y8908560D01*
X10828562Y8976589D01*
X10828562Y10367227D01*
X10835262Y10435256D01*
X10828562Y10503285D01*
X10828562Y10503293D01*
X10808522Y10706763D01*
X10729326Y10967837D01*
X10600719Y11208444D01*
X10511273Y11317434D01*
X10471014Y11366489D01*
X10471012Y11366491D01*
X10427642Y11419337D01*
X10374797Y11462706D01*
X9699796Y12137707D01*
X9541751Y12267411D01*
X9301143Y12396019D01*
X9040070Y12475215D01*
X8768563Y12501955D01*
X8497056Y12475215D01*
X8235983Y12396019D01*
X8035120Y12288655D01*
X8551103Y13015505D01*
X11575000Y13015505D01*
X11575000Y12624495D01*
X11651282Y12240997D01*
X11800915Y11879750D01*
X12018149Y11554636D01*
X12294636Y11278149D01*
X12619750Y11060915D01*
X12980997Y10911282D01*
X13364495Y10835000D01*
X13755505Y10835000D01*
X14139003Y10911282D01*
X14500250Y11060915D01*
X14825364Y11278149D01*
X15101851Y11554636D01*
X15319085Y11879750D01*
X15468718Y12240997D01*
X15545000Y12624495D01*
X15545000Y13015505D01*
X15468718Y13399003D01*
X15319085Y13760250D01*
X15101851Y14085364D01*
X14825364Y14361851D01*
X14769778Y14398992D01*
X14881856Y14436547D01*
X14990427Y14498664D01*
X15305936Y14726653D01*
X15343376Y14948015D01*
X14750047Y15782910D01*
X13915153Y15189581D01*
X13877712Y14968219D01*
X14029925Y14750415D01*
X13755505Y14805000D01*
X13364495Y14805000D01*
X12980997Y14728718D01*
X12980910Y14728682D01*
X13162288Y14988219D01*
X13124847Y15209581D01*
X12289953Y15802910D01*
X11696624Y14968015D01*
X11734064Y14746653D01*
X12049573Y14518664D01*
X12158144Y14456547D01*
X12276747Y14416806D01*
X12360820Y14406074D01*
X12294636Y14361851D01*
X12018149Y14085364D01*
X11800915Y13760250D01*
X11651282Y13399003D01*
X11575000Y13015505D01*
X8551103Y13015505D01*
X10772559Y16144800D01*
X10736547Y16081856D01*
X10696806Y15963253D01*
X10680967Y15839176D01*
X10689638Y15714393D01*
X10722486Y15593700D01*
X10778249Y15481733D01*
X10854784Y15382797D01*
X10949151Y15300693D01*
X11268219Y15077712D01*
X11489581Y15115153D01*
X12082910Y15950047D01*
X12066607Y15961633D01*
X12100946Y16009953D01*
X12437090Y16009953D01*
X13271985Y15416624D01*
X13493347Y15454064D01*
X13512774Y15480949D01*
X13546653Y15434064D01*
X13768015Y15396624D01*
X14602910Y15989953D01*
X14009581Y16824847D01*
X13788219Y16862288D01*
X13534309Y16684843D01*
X13251781Y16882288D01*
X13030419Y16844847D01*
X12437090Y16009953D01*
X12100946Y16009953D01*
X12213745Y16168675D01*
X12230047Y16157090D01*
X12823376Y16991985D01*
X12785936Y17213347D01*
X12470427Y17441336D01*
X12361856Y17503453D01*
X12243253Y17543194D01*
X12119176Y17559033D01*
X11994393Y17550362D01*
X11873700Y17517514D01*
X11761733Y17461751D01*
X11662797Y17385216D01*
X11610219Y17324786D01*
X13260866Y19650000D01*
X13739135Y19650000D01*
X15341443Y17392880D01*
G04 #@! TA.AperFunction,Conductor*
D18*
G36*
X15341443Y17392880D02*
G01*
X15278267Y17441751D01*
X15166300Y17497514D01*
X15045607Y17530362D01*
X14920824Y17539033D01*
X14796747Y17523194D01*
X14678144Y17483453D01*
X14569573Y17421336D01*
X14254064Y17193347D01*
X14216624Y16971985D01*
X14809953Y16137090D01*
X14826255Y16148675D01*
X14973393Y15941633D01*
X14957090Y15930047D01*
X15550419Y15095153D01*
X15771781Y15057712D01*
X16090849Y15280693D01*
X16185216Y15362797D01*
X16261751Y15461733D01*
X16317514Y15573700D01*
X16350362Y15694393D01*
X16359033Y15819176D01*
X16343194Y15943253D01*
X16318767Y16016153D01*
X19002944Y12235036D01*
X18814017Y12336019D01*
X18552944Y12415215D01*
X18281437Y12441955D01*
X18009930Y12415215D01*
X17748856Y12336019D01*
X17508250Y12207412D01*
X17350204Y12077707D01*
X16675203Y11402706D01*
X16622357Y11359336D01*
X16449281Y11148443D01*
X16352745Y10967837D01*
X16320674Y10907836D01*
X16247964Y10668142D01*
X16241478Y10646762D01*
X16221438Y10443292D01*
X16221438Y10443285D01*
X16214738Y10375256D01*
X16221438Y10307227D01*
X16221438Y8916589D01*
X16214738Y8848560D01*
X16221438Y8780531D01*
X16221438Y8780523D01*
X16235569Y8637053D01*
X16241478Y8577053D01*
X16320674Y8315980D01*
X16449282Y8075372D01*
X16578986Y7917327D01*
X16578989Y7917324D01*
X16622358Y7864479D01*
X16675202Y7821111D01*
X17637804Y6858508D01*
X17681173Y6805663D01*
X17734018Y6762294D01*
X17734020Y6762292D01*
X17769630Y6733068D01*
X17892066Y6632587D01*
X18051618Y6547305D01*
X18132673Y6503980D01*
X18393746Y6424784D01*
X18408479Y6423333D01*
X18597217Y6404744D01*
X18597225Y6404744D01*
X18665254Y6398044D01*
X18733283Y6404744D01*
X19983771Y6404744D01*
X20001360Y6384528D01*
X20100296Y6307993D01*
X20142792Y6286828D01*
X20275000Y6154620D01*
X20275000Y5783688D01*
X17936313Y3445000D01*
X16497431Y3445000D01*
X16494080Y3449083D01*
X16441241Y3492447D01*
X15317455Y4616232D01*
X15274082Y4669082D01*
X15063189Y4842158D01*
X14822582Y4970765D01*
X14561508Y5049961D01*
X14358038Y5070001D01*
X14358030Y5070001D01*
X14290001Y5076701D01*
X14221972Y5070001D01*
X13543451Y5070001D01*
X13555000Y5128061D01*
X13555000Y5331939D01*
X13515226Y5531898D01*
X13437205Y5720256D01*
X13323937Y5889774D01*
X13280000Y5933711D01*
X13280000Y6572677D01*
X13283676Y6610000D01*
X13280000Y6647323D01*
X13280000Y6647333D01*
X13269003Y6758986D01*
X13225546Y6902247D01*
X13154974Y7034276D01*
X13102165Y7098623D01*
X13106693Y7121385D01*
X13106693Y7325263D01*
X13066919Y7525222D01*
X12988898Y7713580D01*
X12875630Y7883098D01*
X12731467Y8027261D01*
X12561949Y8140529D01*
X12373591Y8218550D01*
X12173632Y8258324D01*
X11969754Y8258324D01*
X11769795Y8218550D01*
X11581437Y8140529D01*
X11411919Y8027261D01*
X11267756Y7883098D01*
X11154488Y7713580D01*
X11076467Y7525222D01*
X11036693Y7325263D01*
X11036693Y7121385D01*
X11076467Y6921426D01*
X11154488Y6733068D01*
X11267756Y6563550D01*
X11411919Y6419387D01*
X11581437Y6306119D01*
X11760001Y6232155D01*
X11760001Y5933712D01*
X11716063Y5889774D01*
X11602795Y5720256D01*
X11524774Y5531898D01*
X11485000Y5331939D01*
X11485000Y5128061D01*
X11524774Y4928102D01*
X11602795Y4739744D01*
X11692221Y4605908D01*
X10953764Y3867451D01*
X10900919Y3824082D01*
X10857549Y3771236D01*
X10857547Y3771234D01*
X10831880Y3739959D01*
X10727842Y3613189D01*
X10599235Y3372582D01*
X10520039Y3111508D01*
X10511690Y3026744D01*
X10352843Y2833188D01*
X10224236Y2592581D01*
X10145040Y2331507D01*
X10118299Y2060000D01*
X10145040Y1788493D01*
X10224236Y1527419D01*
X10352843Y1286812D01*
X10525919Y1075919D01*
X10736812Y902843D01*
X10977419Y774236D01*
X11238493Y695040D01*
X11441963Y675000D01*
X11501971Y675000D01*
X11570000Y668300D01*
X11638029Y675000D01*
X11638037Y675000D01*
X11841507Y695040D01*
X12102581Y774236D01*
X12343188Y902843D01*
X12554081Y1075919D01*
X12593468Y1123911D01*
X12674923Y1042456D01*
X12889482Y899093D01*
X13127887Y800342D01*
X13380976Y750000D01*
X13639024Y750000D01*
X13892113Y800342D01*
X14130518Y899093D01*
X14312513Y1020697D01*
X14383815Y933815D01*
X14480506Y854463D01*
X14590820Y795498D01*
X14710518Y759188D01*
X14835000Y746928D01*
X15067441Y746928D01*
X15238493Y695040D01*
X15441963Y675000D01*
X15441964Y675000D01*
X15510000Y668299D01*
X15578037Y675000D01*
X18711963Y675000D01*
X18780000Y668299D01*
X18848036Y675000D01*
X18848037Y675000D01*
X19051507Y695040D01*
X19312581Y774236D01*
X19553188Y902843D01*
X19764081Y1075919D01*
X19937157Y1286812D01*
X20065764Y1527419D01*
X20122223Y1713540D01*
X20301681Y1892998D01*
X20378748Y1892998D01*
X20220000Y1734250D01*
X20216928Y1345000D01*
X20229188Y1220518D01*
X20265498Y1100820D01*
X20324463Y990506D01*
X20403815Y893815D01*
X20500506Y814463D01*
X20610820Y755498D01*
X20730518Y719188D01*
X20855000Y706928D01*
X21244250Y710000D01*
X21403000Y868750D01*
X21403000Y1893000D01*
X21657000Y1893000D01*
X21657000Y868750D01*
X21815750Y710000D01*
X22205000Y706928D01*
X22329482Y719188D01*
X22449180Y755498D01*
X22559494Y814463D01*
X22656185Y893815D01*
X22735537Y990506D01*
X22794502Y1100820D01*
X22830812Y1220518D01*
X22843072Y1345000D01*
X22840000Y1734250D01*
X22681250Y1893000D01*
X21657000Y1893000D01*
X21403000Y1893000D01*
X21383000Y1893000D01*
X21383000Y1898219D01*
X23197712Y1898219D01*
X23420693Y1579151D01*
X23502797Y1484784D01*
X23601733Y1408249D01*
X23713700Y1352486D01*
X23834393Y1319638D01*
X23959176Y1310967D01*
X24083253Y1326806D01*
X24201856Y1366547D01*
X24310427Y1428664D01*
X24625936Y1656653D01*
X24663376Y1878015D01*
X24070047Y2712910D01*
X23235153Y2119581D01*
X23197712Y1898219D01*
X21383000Y1898219D01*
X21383000Y2147000D01*
X21403000Y2147000D01*
X21403000Y2167000D01*
X21657000Y2167000D01*
X21657000Y2147000D01*
X22681250Y2147000D01*
X22840000Y2305750D01*
X22840743Y2399920D01*
X22866653Y2364064D01*
X23088015Y2326624D01*
X23922910Y2919953D01*
X23329581Y3754847D01*
X23108219Y3792288D01*
X22789151Y3569307D01*
X22694784Y3487203D01*
X22618249Y3388267D01*
X22562486Y3276300D01*
X22550045Y3230588D01*
X22449180Y3284502D01*
X22329482Y3320812D01*
X22205000Y3333072D01*
X21815750Y3330000D01*
X21657002Y3171252D01*
X21657002Y3248318D01*
X22591241Y4182557D01*
X22644080Y4225921D01*
X22687445Y4278761D01*
X22687452Y4278768D01*
X22817156Y4436813D01*
X22817158Y4436815D01*
X22945764Y4677421D01*
X23024960Y4938495D01*
X23045000Y5141965D01*
X23045000Y5141974D01*
X23051700Y5210001D01*
X23045000Y5278028D01*
X23045000Y6541118D01*
X24577763Y4381963D01*
X24486300Y4427514D01*
X24365607Y4460362D01*
X24240824Y4469033D01*
X24116747Y4453194D01*
X23998144Y4413453D01*
X23889573Y4351336D01*
X23574064Y4123347D01*
X23536624Y3901985D01*
X24129953Y3067090D01*
X24146255Y3078675D01*
X24293393Y2871633D01*
X24277090Y2860047D01*
X24870419Y2025153D01*
X25091781Y1987712D01*
X25410849Y2210693D01*
X25505216Y2292797D01*
X25581751Y2391733D01*
X25637514Y2503700D01*
X25670362Y2624393D01*
X25679033Y2749176D01*
X25666354Y2848498D01*
X26340001Y1899552D01*
X26340000Y660000D01*
X6508090Y660000D01*
X6559180Y675498D01*
X6669494Y734463D01*
X6766185Y813815D01*
X6845537Y910506D01*
X6904502Y1020820D01*
X6940812Y1140518D01*
X6953072Y1265000D01*
X6950000Y1654250D01*
X6791250Y1813000D01*
X5767000Y1813000D01*
X5767000Y1793000D01*
X5513000Y1793000D01*
X5513000Y1813000D01*
X4488750Y1813000D01*
X4330000Y1654250D01*
X4326928Y1265000D01*
X4339188Y1140518D01*
X4375498Y1020820D01*
X4434463Y910506D01*
X4513815Y813815D01*
X4610506Y734463D01*
X4720820Y675498D01*
X4771910Y660000D01*
X660000Y660000D01*
X660000Y1888015D01*
X2446624Y1888015D01*
X2484064Y1666653D01*
X2799573Y1438664D01*
X2908144Y1376547D01*
X3026747Y1336806D01*
X3150824Y1320967D01*
X3275607Y1329638D01*
X3396300Y1362486D01*
X3508267Y1418249D01*
X3607203Y1494784D01*
X3689307Y1589151D01*
X3912288Y1908219D01*
X3874847Y2129581D01*
X3039953Y2722910D01*
X2446624Y1888015D01*
X660000Y1888015D01*
X660000Y1899555D01*
X1270236Y2759176D01*
X1430967Y2759176D01*
X1439638Y2634393D01*
X1472486Y2513700D01*
X1528249Y2401733D01*
X1604784Y2302797D01*
X1699151Y2220693D01*
X2018219Y1997712D01*
X2239581Y2035153D01*
X2832910Y2870047D01*
X2748615Y2929953D01*
X3187090Y2929953D01*
X4021985Y2336624D01*
X4243347Y2374064D01*
X4327906Y2491083D01*
X4330000Y2225750D01*
X4488750Y2067000D01*
X5513000Y2067000D01*
X5513000Y3091250D01*
X5767000Y3091250D01*
X5767000Y2067000D01*
X6791250Y2067000D01*
X6950000Y2225750D01*
X6953072Y2615000D01*
X6940812Y2739482D01*
X6904502Y2859180D01*
X6845537Y2969494D01*
X6766185Y3066185D01*
X6669494Y3145537D01*
X6559180Y3204502D01*
X6439482Y3240812D01*
X6315000Y3253072D01*
X5925750Y3250000D01*
X5767000Y3091250D01*
X5513000Y3091250D01*
X5354250Y3250000D01*
X4965000Y3253072D01*
X4840518Y3240812D01*
X4720820Y3204502D01*
X4610506Y3145537D01*
X4583308Y3123216D01*
X4580362Y3165607D01*
X4547514Y3286300D01*
X4491751Y3398267D01*
X4415216Y3497203D01*
X4320849Y3579307D01*
X4001781Y3802288D01*
X3780419Y3764847D01*
X3187090Y2929953D01*
X2748615Y2929953D01*
X1998015Y3463376D01*
X1776653Y3425936D01*
X1548664Y3110427D01*
X1486547Y3001856D01*
X1446806Y2883253D01*
X1430967Y2759176D01*
X1270236Y2759176D01*
X2074261Y3891781D01*
X2107712Y3891781D01*
X2145153Y3670419D01*
X2980047Y3077090D01*
X3573376Y3911985D01*
X3535936Y4133347D01*
X3220427Y4361336D01*
X3111856Y4423453D01*
X2993253Y4463194D01*
X2869176Y4479033D01*
X2744393Y4470362D01*
X2623700Y4437514D01*
X2511733Y4381751D01*
X2412797Y4305216D01*
X2330693Y4210849D01*
X2107712Y3891781D01*
X2074261Y3891781D01*
X4902684Y7876090D01*
X4888244Y7832998D01*
X4872405Y7708921D01*
X4881075Y7584138D01*
X4913924Y7463444D01*
X4969687Y7351478D01*
X5046222Y7252542D01*
X5140589Y7170438D01*
X5324490Y7039746D01*
X5467357Y6865663D01*
X5678250Y6692587D01*
X5918857Y6563980D01*
X6049888Y6524232D01*
X6241011Y6388408D01*
X6349581Y6326292D01*
X6468184Y6286550D01*
X6592261Y6270711D01*
X6717044Y6279381D01*
X6837738Y6312230D01*
X6949704Y6367993D01*
X7048640Y6444528D01*
X7066229Y6464744D01*
X8316717Y6464744D01*
X8384746Y6458044D01*
X8452775Y6464744D01*
X8452783Y6464744D01*
X8656253Y6484784D01*
X8917327Y6563980D01*
X9157934Y6692587D01*
X9368827Y6865663D01*
X9412200Y6918513D01*
X10374798Y7881110D01*
X10427643Y7924479D01*
X10481881Y7990567D01*
X10566163Y8093266D01*
X10600719Y8135372D01*
X10729326Y8375979D01*
X10792709Y8584923D01*
X10808522Y8637052D01*
X10816788Y8720978D01*
X10828562Y8840523D01*
X10828562Y8840531D01*
X10835262Y8908560D01*
X10828562Y8976589D01*
X10828562Y10367227D01*
X10835262Y10435256D01*
X10828562Y10503285D01*
X10828562Y10503293D01*
X10808522Y10706763D01*
X10729326Y10967837D01*
X10600719Y11208444D01*
X10511273Y11317434D01*
X10471014Y11366489D01*
X10471012Y11366491D01*
X10427642Y11419337D01*
X10374797Y11462706D01*
X9699796Y12137707D01*
X9541751Y12267411D01*
X9301143Y12396019D01*
X9040070Y12475215D01*
X8768563Y12501955D01*
X8497056Y12475215D01*
X8235983Y12396019D01*
X8035120Y12288655D01*
X8551103Y13015505D01*
X11575000Y13015505D01*
X11575000Y12624495D01*
X11651282Y12240997D01*
X11800915Y11879750D01*
X12018149Y11554636D01*
X12294636Y11278149D01*
X12619750Y11060915D01*
X12980997Y10911282D01*
X13364495Y10835000D01*
X13755505Y10835000D01*
X14139003Y10911282D01*
X14500250Y11060915D01*
X14825364Y11278149D01*
X15101851Y11554636D01*
X15319085Y11879750D01*
X15468718Y12240997D01*
X15545000Y12624495D01*
X15545000Y13015505D01*
X15468718Y13399003D01*
X15319085Y13760250D01*
X15101851Y14085364D01*
X14825364Y14361851D01*
X14769778Y14398992D01*
X14881856Y14436547D01*
X14990427Y14498664D01*
X15305936Y14726653D01*
X15343376Y14948015D01*
X14750047Y15782910D01*
X13915153Y15189581D01*
X13877712Y14968219D01*
X14029925Y14750415D01*
X13755505Y14805000D01*
X13364495Y14805000D01*
X12980997Y14728718D01*
X12980910Y14728682D01*
X13162288Y14988219D01*
X13124847Y15209581D01*
X12289953Y15802910D01*
X11696624Y14968015D01*
X11734064Y14746653D01*
X12049573Y14518664D01*
X12158144Y14456547D01*
X12276747Y14416806D01*
X12360820Y14406074D01*
X12294636Y14361851D01*
X12018149Y14085364D01*
X11800915Y13760250D01*
X11651282Y13399003D01*
X11575000Y13015505D01*
X8551103Y13015505D01*
X10772559Y16144800D01*
X10736547Y16081856D01*
X10696806Y15963253D01*
X10680967Y15839176D01*
X10689638Y15714393D01*
X10722486Y15593700D01*
X10778249Y15481733D01*
X10854784Y15382797D01*
X10949151Y15300693D01*
X11268219Y15077712D01*
X11489581Y15115153D01*
X12082910Y15950047D01*
X12066607Y15961633D01*
X12100946Y16009953D01*
X12437090Y16009953D01*
X13271985Y15416624D01*
X13493347Y15454064D01*
X13512774Y15480949D01*
X13546653Y15434064D01*
X13768015Y15396624D01*
X14602910Y15989953D01*
X14009581Y16824847D01*
X13788219Y16862288D01*
X13534309Y16684843D01*
X13251781Y16882288D01*
X13030419Y16844847D01*
X12437090Y16009953D01*
X12100946Y16009953D01*
X12213745Y16168675D01*
X12230047Y16157090D01*
X12823376Y16991985D01*
X12785936Y17213347D01*
X12470427Y17441336D01*
X12361856Y17503453D01*
X12243253Y17543194D01*
X12119176Y17559033D01*
X11994393Y17550362D01*
X11873700Y17517514D01*
X11761733Y17461751D01*
X11662797Y17385216D01*
X11610219Y17324786D01*
X13260866Y19650000D01*
X13739135Y19650000D01*
X15341443Y17392880D01*
G37*
G04 #@! TD.AperFunction*
D17*
X42941443Y17392880D02*
X42878267Y17441751D01*
X42766300Y17497514D01*
X42645607Y17530362D01*
X42520824Y17539033D01*
X42396747Y17523194D01*
X42278144Y17483453D01*
X42169573Y17421336D01*
X41854064Y17193347D01*
X41816624Y16971985D01*
X42409953Y16137090D01*
X42426255Y16148675D01*
X42573393Y15941633D01*
X42557090Y15930047D01*
X43150419Y15095153D01*
X43371781Y15057712D01*
X43690849Y15280693D01*
X43785216Y15362797D01*
X43861751Y15461733D01*
X43917514Y15573700D01*
X43950362Y15694393D01*
X43959033Y15819176D01*
X43943194Y15943253D01*
X43918767Y16016153D01*
X46602944Y12235036D01*
X46414017Y12336019D01*
X46152944Y12415215D01*
X45881437Y12441955D01*
X45609930Y12415215D01*
X45348856Y12336019D01*
X45108250Y12207412D01*
X44950204Y12077707D01*
X44275203Y11402706D01*
X44222357Y11359336D01*
X44049281Y11148443D01*
X43952745Y10967837D01*
X43920674Y10907836D01*
X43847964Y10668142D01*
X43841478Y10646762D01*
X43821438Y10443292D01*
X43821438Y10443285D01*
X43814738Y10375256D01*
X43821438Y10307227D01*
X43821438Y8916589D01*
X43814738Y8848560D01*
X43821438Y8780531D01*
X43821438Y8780523D01*
X43835569Y8637053D01*
X43841478Y8577053D01*
X43920674Y8315980D01*
X44049282Y8075372D01*
X44178986Y7917327D01*
X44178989Y7917324D01*
X44222358Y7864479D01*
X44275202Y7821111D01*
X45237804Y6858508D01*
X45281173Y6805663D01*
X45334018Y6762294D01*
X45334020Y6762292D01*
X45369630Y6733068D01*
X45492066Y6632587D01*
X45651618Y6547305D01*
X45732673Y6503980D01*
X45993746Y6424784D01*
X46008479Y6423333D01*
X46197217Y6404744D01*
X46197225Y6404744D01*
X46265254Y6398044D01*
X46333283Y6404744D01*
X47583771Y6404744D01*
X47601360Y6384528D01*
X47700296Y6307993D01*
X47742792Y6286828D01*
X47875000Y6154620D01*
X47875000Y5783688D01*
X45536313Y3445000D01*
X44097431Y3445000D01*
X44094080Y3449083D01*
X44041241Y3492447D01*
X42917455Y4616232D01*
X42874082Y4669082D01*
X42663189Y4842158D01*
X42422582Y4970765D01*
X42161508Y5049961D01*
X41958038Y5070001D01*
X41958030Y5070001D01*
X41890001Y5076701D01*
X41821972Y5070001D01*
X41143451Y5070001D01*
X41155000Y5128061D01*
X41155000Y5331939D01*
X41115226Y5531898D01*
X41037205Y5720256D01*
X40923937Y5889774D01*
X40880000Y5933711D01*
X40880000Y6572677D01*
X40883676Y6610000D01*
X40880000Y6647323D01*
X40880000Y6647333D01*
X40869003Y6758986D01*
X40825546Y6902247D01*
X40754974Y7034276D01*
X40702165Y7098623D01*
X40706693Y7121385D01*
X40706693Y7325263D01*
X40666919Y7525222D01*
X40588898Y7713580D01*
X40475630Y7883098D01*
X40331467Y8027261D01*
X40161949Y8140529D01*
X39973591Y8218550D01*
X39773632Y8258324D01*
X39569754Y8258324D01*
X39369795Y8218550D01*
X39181437Y8140529D01*
X39011919Y8027261D01*
X38867756Y7883098D01*
X38754488Y7713580D01*
X38676467Y7525222D01*
X38636693Y7325263D01*
X38636693Y7121385D01*
X38676467Y6921426D01*
X38754488Y6733068D01*
X38867756Y6563550D01*
X39011919Y6419387D01*
X39181437Y6306119D01*
X39360001Y6232155D01*
X39360001Y5933712D01*
X39316063Y5889774D01*
X39202795Y5720256D01*
X39124774Y5531898D01*
X39085000Y5331939D01*
X39085000Y5128061D01*
X39124774Y4928102D01*
X39202795Y4739744D01*
X39292221Y4605908D01*
X38553764Y3867451D01*
X38500919Y3824082D01*
X38457549Y3771236D01*
X38457547Y3771234D01*
X38431880Y3739959D01*
X38327842Y3613189D01*
X38199235Y3372582D01*
X38120039Y3111508D01*
X38111690Y3026744D01*
X37952843Y2833188D01*
X37824236Y2592581D01*
X37745040Y2331507D01*
X37718299Y2060000D01*
X37745040Y1788493D01*
X37824236Y1527419D01*
X37952843Y1286812D01*
X38125919Y1075919D01*
X38336812Y902843D01*
X38577419Y774236D01*
X38838493Y695040D01*
X39041963Y675000D01*
X39101971Y675000D01*
X39170000Y668300D01*
X39238029Y675000D01*
X39238037Y675000D01*
X39441507Y695040D01*
X39702581Y774236D01*
X39943188Y902843D01*
X40154081Y1075919D01*
X40193468Y1123911D01*
X40274923Y1042456D01*
X40489482Y899093D01*
X40727887Y800342D01*
X40980976Y750000D01*
X41239024Y750000D01*
X41492113Y800342D01*
X41730518Y899093D01*
X41912513Y1020697D01*
X41983815Y933815D01*
X42080506Y854463D01*
X42190820Y795498D01*
X42310518Y759188D01*
X42435000Y746928D01*
X42667441Y746928D01*
X42838493Y695040D01*
X43041963Y675000D01*
X43041964Y675000D01*
X43110000Y668299D01*
X43178037Y675000D01*
X46311963Y675000D01*
X46380000Y668299D01*
X46448036Y675000D01*
X46448037Y675000D01*
X46651507Y695040D01*
X46912581Y774236D01*
X47153188Y902843D01*
X47364081Y1075919D01*
X47537157Y1286812D01*
X47665764Y1527419D01*
X47722223Y1713540D01*
X47901681Y1892998D01*
X47978748Y1892998D01*
X47820000Y1734250D01*
X47816928Y1345000D01*
X47829188Y1220518D01*
X47865498Y1100820D01*
X47924463Y990506D01*
X48003815Y893815D01*
X48100506Y814463D01*
X48210820Y755498D01*
X48330518Y719188D01*
X48455000Y706928D01*
X48844250Y710000D01*
X49003000Y868750D01*
X49003000Y1893000D01*
X49257000Y1893000D01*
X49257000Y868750D01*
X49415750Y710000D01*
X49805000Y706928D01*
X49929482Y719188D01*
X50049180Y755498D01*
X50159494Y814463D01*
X50256185Y893815D01*
X50335537Y990506D01*
X50394502Y1100820D01*
X50430812Y1220518D01*
X50443072Y1345000D01*
X50440000Y1734250D01*
X50281250Y1893000D01*
X49257000Y1893000D01*
X49003000Y1893000D01*
X48983000Y1893000D01*
X48983000Y1898219D01*
X50797712Y1898219D01*
X51020693Y1579151D01*
X51102797Y1484784D01*
X51201733Y1408249D01*
X51313700Y1352486D01*
X51434393Y1319638D01*
X51559176Y1310967D01*
X51683253Y1326806D01*
X51801856Y1366547D01*
X51910427Y1428664D01*
X52225936Y1656653D01*
X52263376Y1878015D01*
X51670047Y2712910D01*
X50835153Y2119581D01*
X50797712Y1898219D01*
X48983000Y1898219D01*
X48983000Y2147000D01*
X49003000Y2147000D01*
X49003000Y2167000D01*
X49257000Y2167000D01*
X49257000Y2147000D01*
X50281250Y2147000D01*
X50440000Y2305750D01*
X50440743Y2399920D01*
X50466653Y2364064D01*
X50688015Y2326624D01*
X51522910Y2919953D01*
X50929581Y3754847D01*
X50708219Y3792288D01*
X50389151Y3569307D01*
X50294784Y3487203D01*
X50218249Y3388267D01*
X50162486Y3276300D01*
X50150045Y3230588D01*
X50049180Y3284502D01*
X49929482Y3320812D01*
X49805000Y3333072D01*
X49415750Y3330000D01*
X49257002Y3171252D01*
X49257002Y3248318D01*
X50191241Y4182557D01*
X50244080Y4225921D01*
X50287445Y4278761D01*
X50287452Y4278768D01*
X50417156Y4436813D01*
X50417158Y4436815D01*
X50545764Y4677421D01*
X50624960Y4938495D01*
X50645000Y5141965D01*
X50645000Y5141974D01*
X50651700Y5210001D01*
X50645000Y5278028D01*
X50645000Y6541118D01*
X52177763Y4381963D01*
X52086300Y4427514D01*
X51965607Y4460362D01*
X51840824Y4469033D01*
X51716747Y4453194D01*
X51598144Y4413453D01*
X51489573Y4351336D01*
X51174064Y4123347D01*
X51136624Y3901985D01*
X51729953Y3067090D01*
X51746255Y3078675D01*
X51893393Y2871633D01*
X51877090Y2860047D01*
X52470419Y2025153D01*
X52691781Y1987712D01*
X53010849Y2210693D01*
X53105216Y2292797D01*
X53181751Y2391733D01*
X53237514Y2503700D01*
X53270362Y2624393D01*
X53279033Y2749176D01*
X53266354Y2848498D01*
X53940001Y1899552D01*
X53940000Y660000D01*
X34108090Y660000D01*
X34159180Y675498D01*
X34269494Y734463D01*
X34366185Y813815D01*
X34445537Y910506D01*
X34504502Y1020820D01*
X34540812Y1140518D01*
X34553072Y1265000D01*
X34550000Y1654250D01*
X34391250Y1813000D01*
X33367000Y1813000D01*
X33367000Y1793000D01*
X33113000Y1793000D01*
X33113000Y1813000D01*
X32088750Y1813000D01*
X31930000Y1654250D01*
X31926928Y1265000D01*
X31939188Y1140518D01*
X31975498Y1020820D01*
X32034463Y910506D01*
X32113815Y813815D01*
X32210506Y734463D01*
X32320820Y675498D01*
X32371910Y660000D01*
X28260000Y660000D01*
X28260000Y1888015D01*
X30046624Y1888015D01*
X30084064Y1666653D01*
X30399573Y1438664D01*
X30508144Y1376547D01*
X30626747Y1336806D01*
X30750824Y1320967D01*
X30875607Y1329638D01*
X30996300Y1362486D01*
X31108267Y1418249D01*
X31207203Y1494784D01*
X31289307Y1589151D01*
X31512288Y1908219D01*
X31474847Y2129581D01*
X30639953Y2722910D01*
X30046624Y1888015D01*
X28260000Y1888015D01*
X28260000Y1899555D01*
X28870236Y2759176D01*
X29030967Y2759176D01*
X29039638Y2634393D01*
X29072486Y2513700D01*
X29128249Y2401733D01*
X29204784Y2302797D01*
X29299151Y2220693D01*
X29618219Y1997712D01*
X29839581Y2035153D01*
X30432910Y2870047D01*
X30348615Y2929953D01*
X30787090Y2929953D01*
X31621985Y2336624D01*
X31843347Y2374064D01*
X31927906Y2491083D01*
X31930000Y2225750D01*
X32088750Y2067000D01*
X33113000Y2067000D01*
X33113000Y3091250D01*
X33367000Y3091250D01*
X33367000Y2067000D01*
X34391250Y2067000D01*
X34550000Y2225750D01*
X34553072Y2615000D01*
X34540812Y2739482D01*
X34504502Y2859180D01*
X34445537Y2969494D01*
X34366185Y3066185D01*
X34269494Y3145537D01*
X34159180Y3204502D01*
X34039482Y3240812D01*
X33915000Y3253072D01*
X33525750Y3250000D01*
X33367000Y3091250D01*
X33113000Y3091250D01*
X32954250Y3250000D01*
X32565000Y3253072D01*
X32440518Y3240812D01*
X32320820Y3204502D01*
X32210506Y3145537D01*
X32183308Y3123216D01*
X32180362Y3165607D01*
X32147514Y3286300D01*
X32091751Y3398267D01*
X32015216Y3497203D01*
X31920849Y3579307D01*
X31601781Y3802288D01*
X31380419Y3764847D01*
X30787090Y2929953D01*
X30348615Y2929953D01*
X29598015Y3463376D01*
X29376653Y3425936D01*
X29148664Y3110427D01*
X29086547Y3001856D01*
X29046806Y2883253D01*
X29030967Y2759176D01*
X28870236Y2759176D01*
X29674261Y3891781D01*
X29707712Y3891781D01*
X29745153Y3670419D01*
X30580047Y3077090D01*
X31173376Y3911985D01*
X31135936Y4133347D01*
X30820427Y4361336D01*
X30711856Y4423453D01*
X30593253Y4463194D01*
X30469176Y4479033D01*
X30344393Y4470362D01*
X30223700Y4437514D01*
X30111733Y4381751D01*
X30012797Y4305216D01*
X29930693Y4210849D01*
X29707712Y3891781D01*
X29674261Y3891781D01*
X32502684Y7876090D01*
X32488244Y7832998D01*
X32472405Y7708921D01*
X32481075Y7584138D01*
X32513924Y7463444D01*
X32569687Y7351478D01*
X32646222Y7252542D01*
X32740589Y7170438D01*
X32924490Y7039746D01*
X33067357Y6865663D01*
X33278250Y6692587D01*
X33518857Y6563980D01*
X33649888Y6524232D01*
X33841011Y6388408D01*
X33949581Y6326292D01*
X34068184Y6286550D01*
X34192261Y6270711D01*
X34317044Y6279381D01*
X34437738Y6312230D01*
X34549704Y6367993D01*
X34648640Y6444528D01*
X34666229Y6464744D01*
X35916717Y6464744D01*
X35984746Y6458044D01*
X36052775Y6464744D01*
X36052783Y6464744D01*
X36256253Y6484784D01*
X36517327Y6563980D01*
X36757934Y6692587D01*
X36968827Y6865663D01*
X37012200Y6918513D01*
X37974798Y7881110D01*
X38027643Y7924479D01*
X38081881Y7990567D01*
X38166163Y8093266D01*
X38200719Y8135372D01*
X38329326Y8375979D01*
X38392709Y8584923D01*
X38408522Y8637052D01*
X38416788Y8720978D01*
X38428562Y8840523D01*
X38428562Y8840531D01*
X38435262Y8908560D01*
X38428562Y8976589D01*
X38428562Y10367227D01*
X38435262Y10435256D01*
X38428562Y10503285D01*
X38428562Y10503293D01*
X38408522Y10706763D01*
X38329326Y10967837D01*
X38200719Y11208444D01*
X38111273Y11317434D01*
X38071014Y11366489D01*
X38071012Y11366491D01*
X38027642Y11419337D01*
X37974797Y11462706D01*
X37299796Y12137707D01*
X37141751Y12267411D01*
X36901143Y12396019D01*
X36640070Y12475215D01*
X36368563Y12501955D01*
X36097056Y12475215D01*
X35835983Y12396019D01*
X35635120Y12288655D01*
X36151103Y13015505D01*
X39175000Y13015505D01*
X39175000Y12624495D01*
X39251282Y12240997D01*
X39400915Y11879750D01*
X39618149Y11554636D01*
X39894636Y11278149D01*
X40219750Y11060915D01*
X40580997Y10911282D01*
X40964495Y10835000D01*
X41355505Y10835000D01*
X41739003Y10911282D01*
X42100250Y11060915D01*
X42425364Y11278149D01*
X42701851Y11554636D01*
X42919085Y11879750D01*
X43068718Y12240997D01*
X43145000Y12624495D01*
X43145000Y13015505D01*
X43068718Y13399003D01*
X42919085Y13760250D01*
X42701851Y14085364D01*
X42425364Y14361851D01*
X42369778Y14398992D01*
X42481856Y14436547D01*
X42590427Y14498664D01*
X42905936Y14726653D01*
X42943376Y14948015D01*
X42350047Y15782910D01*
X41515153Y15189581D01*
X41477712Y14968219D01*
X41629925Y14750415D01*
X41355505Y14805000D01*
X40964495Y14805000D01*
X40580997Y14728718D01*
X40580910Y14728682D01*
X40762288Y14988219D01*
X40724847Y15209581D01*
X39889953Y15802910D01*
X39296624Y14968015D01*
X39334064Y14746653D01*
X39649573Y14518664D01*
X39758144Y14456547D01*
X39876747Y14416806D01*
X39960820Y14406074D01*
X39894636Y14361851D01*
X39618149Y14085364D01*
X39400915Y13760250D01*
X39251282Y13399003D01*
X39175000Y13015505D01*
X36151103Y13015505D01*
X38372559Y16144800D01*
X38336547Y16081856D01*
X38296806Y15963253D01*
X38280967Y15839176D01*
X38289638Y15714393D01*
X38322486Y15593700D01*
X38378249Y15481733D01*
X38454784Y15382797D01*
X38549151Y15300693D01*
X38868219Y15077712D01*
X39089581Y15115153D01*
X39682910Y15950047D01*
X39666607Y15961633D01*
X39700946Y16009953D01*
X40037090Y16009953D01*
X40871985Y15416624D01*
X41093347Y15454064D01*
X41112774Y15480949D01*
X41146653Y15434064D01*
X41368015Y15396624D01*
X42202910Y15989953D01*
X41609581Y16824847D01*
X41388219Y16862288D01*
X41134309Y16684843D01*
X40851781Y16882288D01*
X40630419Y16844847D01*
X40037090Y16009953D01*
X39700946Y16009953D01*
X39813745Y16168675D01*
X39830047Y16157090D01*
X40423376Y16991985D01*
X40385936Y17213347D01*
X40070427Y17441336D01*
X39961856Y17503453D01*
X39843253Y17543194D01*
X39719176Y17559033D01*
X39594393Y17550362D01*
X39473700Y17517514D01*
X39361733Y17461751D01*
X39262797Y17385216D01*
X39210219Y17324786D01*
X40860866Y19650000D01*
X41339135Y19650000D01*
X42941443Y17392880D01*
G04 #@! TA.AperFunction,Conductor*
D18*
G36*
X42941443Y17392880D02*
G01*
X42878267Y17441751D01*
X42766300Y17497514D01*
X42645607Y17530362D01*
X42520824Y17539033D01*
X42396747Y17523194D01*
X42278144Y17483453D01*
X42169573Y17421336D01*
X41854064Y17193347D01*
X41816624Y16971985D01*
X42409953Y16137090D01*
X42426255Y16148675D01*
X42573393Y15941633D01*
X42557090Y15930047D01*
X43150419Y15095153D01*
X43371781Y15057712D01*
X43690849Y15280693D01*
X43785216Y15362797D01*
X43861751Y15461733D01*
X43917514Y15573700D01*
X43950362Y15694393D01*
X43959033Y15819176D01*
X43943194Y15943253D01*
X43918767Y16016153D01*
X46602944Y12235036D01*
X46414017Y12336019D01*
X46152944Y12415215D01*
X45881437Y12441955D01*
X45609930Y12415215D01*
X45348856Y12336019D01*
X45108250Y12207412D01*
X44950204Y12077707D01*
X44275203Y11402706D01*
X44222357Y11359336D01*
X44049281Y11148443D01*
X43952745Y10967837D01*
X43920674Y10907836D01*
X43847964Y10668142D01*
X43841478Y10646762D01*
X43821438Y10443292D01*
X43821438Y10443285D01*
X43814738Y10375256D01*
X43821438Y10307227D01*
X43821438Y8916589D01*
X43814738Y8848560D01*
X43821438Y8780531D01*
X43821438Y8780523D01*
X43835569Y8637053D01*
X43841478Y8577053D01*
X43920674Y8315980D01*
X44049282Y8075372D01*
X44178986Y7917327D01*
X44178989Y7917324D01*
X44222358Y7864479D01*
X44275202Y7821111D01*
X45237804Y6858508D01*
X45281173Y6805663D01*
X45334018Y6762294D01*
X45334020Y6762292D01*
X45369630Y6733068D01*
X45492066Y6632587D01*
X45651618Y6547305D01*
X45732673Y6503980D01*
X45993746Y6424784D01*
X46008479Y6423333D01*
X46197217Y6404744D01*
X46197225Y6404744D01*
X46265254Y6398044D01*
X46333283Y6404744D01*
X47583771Y6404744D01*
X47601360Y6384528D01*
X47700296Y6307993D01*
X47742792Y6286828D01*
X47875000Y6154620D01*
X47875000Y5783688D01*
X45536313Y3445000D01*
X44097431Y3445000D01*
X44094080Y3449083D01*
X44041241Y3492447D01*
X42917455Y4616232D01*
X42874082Y4669082D01*
X42663189Y4842158D01*
X42422582Y4970765D01*
X42161508Y5049961D01*
X41958038Y5070001D01*
X41958030Y5070001D01*
X41890001Y5076701D01*
X41821972Y5070001D01*
X41143451Y5070001D01*
X41155000Y5128061D01*
X41155000Y5331939D01*
X41115226Y5531898D01*
X41037205Y5720256D01*
X40923937Y5889774D01*
X40880000Y5933711D01*
X40880000Y6572677D01*
X40883676Y6610000D01*
X40880000Y6647323D01*
X40880000Y6647333D01*
X40869003Y6758986D01*
X40825546Y6902247D01*
X40754974Y7034276D01*
X40702165Y7098623D01*
X40706693Y7121385D01*
X40706693Y7325263D01*
X40666919Y7525222D01*
X40588898Y7713580D01*
X40475630Y7883098D01*
X40331467Y8027261D01*
X40161949Y8140529D01*
X39973591Y8218550D01*
X39773632Y8258324D01*
X39569754Y8258324D01*
X39369795Y8218550D01*
X39181437Y8140529D01*
X39011919Y8027261D01*
X38867756Y7883098D01*
X38754488Y7713580D01*
X38676467Y7525222D01*
X38636693Y7325263D01*
X38636693Y7121385D01*
X38676467Y6921426D01*
X38754488Y6733068D01*
X38867756Y6563550D01*
X39011919Y6419387D01*
X39181437Y6306119D01*
X39360001Y6232155D01*
X39360001Y5933712D01*
X39316063Y5889774D01*
X39202795Y5720256D01*
X39124774Y5531898D01*
X39085000Y5331939D01*
X39085000Y5128061D01*
X39124774Y4928102D01*
X39202795Y4739744D01*
X39292221Y4605908D01*
X38553764Y3867451D01*
X38500919Y3824082D01*
X38457549Y3771236D01*
X38457547Y3771234D01*
X38431880Y3739959D01*
X38327842Y3613189D01*
X38199235Y3372582D01*
X38120039Y3111508D01*
X38111690Y3026744D01*
X37952843Y2833188D01*
X37824236Y2592581D01*
X37745040Y2331507D01*
X37718299Y2060000D01*
X37745040Y1788493D01*
X37824236Y1527419D01*
X37952843Y1286812D01*
X38125919Y1075919D01*
X38336812Y902843D01*
X38577419Y774236D01*
X38838493Y695040D01*
X39041963Y675000D01*
X39101971Y675000D01*
X39170000Y668300D01*
X39238029Y675000D01*
X39238037Y675000D01*
X39441507Y695040D01*
X39702581Y774236D01*
X39943188Y902843D01*
X40154081Y1075919D01*
X40193468Y1123911D01*
X40274923Y1042456D01*
X40489482Y899093D01*
X40727887Y800342D01*
X40980976Y750000D01*
X41239024Y750000D01*
X41492113Y800342D01*
X41730518Y899093D01*
X41912513Y1020697D01*
X41983815Y933815D01*
X42080506Y854463D01*
X42190820Y795498D01*
X42310518Y759188D01*
X42435000Y746928D01*
X42667441Y746928D01*
X42838493Y695040D01*
X43041963Y675000D01*
X43041964Y675000D01*
X43110000Y668299D01*
X43178037Y675000D01*
X46311963Y675000D01*
X46380000Y668299D01*
X46448036Y675000D01*
X46448037Y675000D01*
X46651507Y695040D01*
X46912581Y774236D01*
X47153188Y902843D01*
X47364081Y1075919D01*
X47537157Y1286812D01*
X47665764Y1527419D01*
X47722223Y1713540D01*
X47901681Y1892998D01*
X47978748Y1892998D01*
X47820000Y1734250D01*
X47816928Y1345000D01*
X47829188Y1220518D01*
X47865498Y1100820D01*
X47924463Y990506D01*
X48003815Y893815D01*
X48100506Y814463D01*
X48210820Y755498D01*
X48330518Y719188D01*
X48455000Y706928D01*
X48844250Y710000D01*
X49003000Y868750D01*
X49003000Y1893000D01*
X49257000Y1893000D01*
X49257000Y868750D01*
X49415750Y710000D01*
X49805000Y706928D01*
X49929482Y719188D01*
X50049180Y755498D01*
X50159494Y814463D01*
X50256185Y893815D01*
X50335537Y990506D01*
X50394502Y1100820D01*
X50430812Y1220518D01*
X50443072Y1345000D01*
X50440000Y1734250D01*
X50281250Y1893000D01*
X49257000Y1893000D01*
X49003000Y1893000D01*
X48983000Y1893000D01*
X48983000Y1898219D01*
X50797712Y1898219D01*
X51020693Y1579151D01*
X51102797Y1484784D01*
X51201733Y1408249D01*
X51313700Y1352486D01*
X51434393Y1319638D01*
X51559176Y1310967D01*
X51683253Y1326806D01*
X51801856Y1366547D01*
X51910427Y1428664D01*
X52225936Y1656653D01*
X52263376Y1878015D01*
X51670047Y2712910D01*
X50835153Y2119581D01*
X50797712Y1898219D01*
X48983000Y1898219D01*
X48983000Y2147000D01*
X49003000Y2147000D01*
X49003000Y2167000D01*
X49257000Y2167000D01*
X49257000Y2147000D01*
X50281250Y2147000D01*
X50440000Y2305750D01*
X50440743Y2399920D01*
X50466653Y2364064D01*
X50688015Y2326624D01*
X51522910Y2919953D01*
X50929581Y3754847D01*
X50708219Y3792288D01*
X50389151Y3569307D01*
X50294784Y3487203D01*
X50218249Y3388267D01*
X50162486Y3276300D01*
X50150045Y3230588D01*
X50049180Y3284502D01*
X49929482Y3320812D01*
X49805000Y3333072D01*
X49415750Y3330000D01*
X49257002Y3171252D01*
X49257002Y3248318D01*
X50191241Y4182557D01*
X50244080Y4225921D01*
X50287445Y4278761D01*
X50287452Y4278768D01*
X50417156Y4436813D01*
X50417158Y4436815D01*
X50545764Y4677421D01*
X50624960Y4938495D01*
X50645000Y5141965D01*
X50645000Y5141974D01*
X50651700Y5210001D01*
X50645000Y5278028D01*
X50645000Y6541118D01*
X52177763Y4381963D01*
X52086300Y4427514D01*
X51965607Y4460362D01*
X51840824Y4469033D01*
X51716747Y4453194D01*
X51598144Y4413453D01*
X51489573Y4351336D01*
X51174064Y4123347D01*
X51136624Y3901985D01*
X51729953Y3067090D01*
X51746255Y3078675D01*
X51893393Y2871633D01*
X51877090Y2860047D01*
X52470419Y2025153D01*
X52691781Y1987712D01*
X53010849Y2210693D01*
X53105216Y2292797D01*
X53181751Y2391733D01*
X53237514Y2503700D01*
X53270362Y2624393D01*
X53279033Y2749176D01*
X53266354Y2848498D01*
X53940001Y1899552D01*
X53940000Y660000D01*
X34108090Y660000D01*
X34159180Y675498D01*
X34269494Y734463D01*
X34366185Y813815D01*
X34445537Y910506D01*
X34504502Y1020820D01*
X34540812Y1140518D01*
X34553072Y1265000D01*
X34550000Y1654250D01*
X34391250Y1813000D01*
X33367000Y1813000D01*
X33367000Y1793000D01*
X33113000Y1793000D01*
X33113000Y1813000D01*
X32088750Y1813000D01*
X31930000Y1654250D01*
X31926928Y1265000D01*
X31939188Y1140518D01*
X31975498Y1020820D01*
X32034463Y910506D01*
X32113815Y813815D01*
X32210506Y734463D01*
X32320820Y675498D01*
X32371910Y660000D01*
X28260000Y660000D01*
X28260000Y1888015D01*
X30046624Y1888015D01*
X30084064Y1666653D01*
X30399573Y1438664D01*
X30508144Y1376547D01*
X30626747Y1336806D01*
X30750824Y1320967D01*
X30875607Y1329638D01*
X30996300Y1362486D01*
X31108267Y1418249D01*
X31207203Y1494784D01*
X31289307Y1589151D01*
X31512288Y1908219D01*
X31474847Y2129581D01*
X30639953Y2722910D01*
X30046624Y1888015D01*
X28260000Y1888015D01*
X28260000Y1899555D01*
X28870236Y2759176D01*
X29030967Y2759176D01*
X29039638Y2634393D01*
X29072486Y2513700D01*
X29128249Y2401733D01*
X29204784Y2302797D01*
X29299151Y2220693D01*
X29618219Y1997712D01*
X29839581Y2035153D01*
X30432910Y2870047D01*
X30348615Y2929953D01*
X30787090Y2929953D01*
X31621985Y2336624D01*
X31843347Y2374064D01*
X31927906Y2491083D01*
X31930000Y2225750D01*
X32088750Y2067000D01*
X33113000Y2067000D01*
X33113000Y3091250D01*
X33367000Y3091250D01*
X33367000Y2067000D01*
X34391250Y2067000D01*
X34550000Y2225750D01*
X34553072Y2615000D01*
X34540812Y2739482D01*
X34504502Y2859180D01*
X34445537Y2969494D01*
X34366185Y3066185D01*
X34269494Y3145537D01*
X34159180Y3204502D01*
X34039482Y3240812D01*
X33915000Y3253072D01*
X33525750Y3250000D01*
X33367000Y3091250D01*
X33113000Y3091250D01*
X32954250Y3250000D01*
X32565000Y3253072D01*
X32440518Y3240812D01*
X32320820Y3204502D01*
X32210506Y3145537D01*
X32183308Y3123216D01*
X32180362Y3165607D01*
X32147514Y3286300D01*
X32091751Y3398267D01*
X32015216Y3497203D01*
X31920849Y3579307D01*
X31601781Y3802288D01*
X31380419Y3764847D01*
X30787090Y2929953D01*
X30348615Y2929953D01*
X29598015Y3463376D01*
X29376653Y3425936D01*
X29148664Y3110427D01*
X29086547Y3001856D01*
X29046806Y2883253D01*
X29030967Y2759176D01*
X28870236Y2759176D01*
X29674261Y3891781D01*
X29707712Y3891781D01*
X29745153Y3670419D01*
X30580047Y3077090D01*
X31173376Y3911985D01*
X31135936Y4133347D01*
X30820427Y4361336D01*
X30711856Y4423453D01*
X30593253Y4463194D01*
X30469176Y4479033D01*
X30344393Y4470362D01*
X30223700Y4437514D01*
X30111733Y4381751D01*
X30012797Y4305216D01*
X29930693Y4210849D01*
X29707712Y3891781D01*
X29674261Y3891781D01*
X32502684Y7876090D01*
X32488244Y7832998D01*
X32472405Y7708921D01*
X32481075Y7584138D01*
X32513924Y7463444D01*
X32569687Y7351478D01*
X32646222Y7252542D01*
X32740589Y7170438D01*
X32924490Y7039746D01*
X33067357Y6865663D01*
X33278250Y6692587D01*
X33518857Y6563980D01*
X33649888Y6524232D01*
X33841011Y6388408D01*
X33949581Y6326292D01*
X34068184Y6286550D01*
X34192261Y6270711D01*
X34317044Y6279381D01*
X34437738Y6312230D01*
X34549704Y6367993D01*
X34648640Y6444528D01*
X34666229Y6464744D01*
X35916717Y6464744D01*
X35984746Y6458044D01*
X36052775Y6464744D01*
X36052783Y6464744D01*
X36256253Y6484784D01*
X36517327Y6563980D01*
X36757934Y6692587D01*
X36968827Y6865663D01*
X37012200Y6918513D01*
X37974798Y7881110D01*
X38027643Y7924479D01*
X38081881Y7990567D01*
X38166163Y8093266D01*
X38200719Y8135372D01*
X38329326Y8375979D01*
X38392709Y8584923D01*
X38408522Y8637052D01*
X38416788Y8720978D01*
X38428562Y8840523D01*
X38428562Y8840531D01*
X38435262Y8908560D01*
X38428562Y8976589D01*
X38428562Y10367227D01*
X38435262Y10435256D01*
X38428562Y10503285D01*
X38428562Y10503293D01*
X38408522Y10706763D01*
X38329326Y10967837D01*
X38200719Y11208444D01*
X38111273Y11317434D01*
X38071014Y11366489D01*
X38071012Y11366491D01*
X38027642Y11419337D01*
X37974797Y11462706D01*
X37299796Y12137707D01*
X37141751Y12267411D01*
X36901143Y12396019D01*
X36640070Y12475215D01*
X36368563Y12501955D01*
X36097056Y12475215D01*
X35835983Y12396019D01*
X35635120Y12288655D01*
X36151103Y13015505D01*
X39175000Y13015505D01*
X39175000Y12624495D01*
X39251282Y12240997D01*
X39400915Y11879750D01*
X39618149Y11554636D01*
X39894636Y11278149D01*
X40219750Y11060915D01*
X40580997Y10911282D01*
X40964495Y10835000D01*
X41355505Y10835000D01*
X41739003Y10911282D01*
X42100250Y11060915D01*
X42425364Y11278149D01*
X42701851Y11554636D01*
X42919085Y11879750D01*
X43068718Y12240997D01*
X43145000Y12624495D01*
X43145000Y13015505D01*
X43068718Y13399003D01*
X42919085Y13760250D01*
X42701851Y14085364D01*
X42425364Y14361851D01*
X42369778Y14398992D01*
X42481856Y14436547D01*
X42590427Y14498664D01*
X42905936Y14726653D01*
X42943376Y14948015D01*
X42350047Y15782910D01*
X41515153Y15189581D01*
X41477712Y14968219D01*
X41629925Y14750415D01*
X41355505Y14805000D01*
X40964495Y14805000D01*
X40580997Y14728718D01*
X40580910Y14728682D01*
X40762288Y14988219D01*
X40724847Y15209581D01*
X39889953Y15802910D01*
X39296624Y14968015D01*
X39334064Y14746653D01*
X39649573Y14518664D01*
X39758144Y14456547D01*
X39876747Y14416806D01*
X39960820Y14406074D01*
X39894636Y14361851D01*
X39618149Y14085364D01*
X39400915Y13760250D01*
X39251282Y13399003D01*
X39175000Y13015505D01*
X36151103Y13015505D01*
X38372559Y16144800D01*
X38336547Y16081856D01*
X38296806Y15963253D01*
X38280967Y15839176D01*
X38289638Y15714393D01*
X38322486Y15593700D01*
X38378249Y15481733D01*
X38454784Y15382797D01*
X38549151Y15300693D01*
X38868219Y15077712D01*
X39089581Y15115153D01*
X39682910Y15950047D01*
X39666607Y15961633D01*
X39700946Y16009953D01*
X40037090Y16009953D01*
X40871985Y15416624D01*
X41093347Y15454064D01*
X41112774Y15480949D01*
X41146653Y15434064D01*
X41368015Y15396624D01*
X42202910Y15989953D01*
X41609581Y16824847D01*
X41388219Y16862288D01*
X41134309Y16684843D01*
X40851781Y16882288D01*
X40630419Y16844847D01*
X40037090Y16009953D01*
X39700946Y16009953D01*
X39813745Y16168675D01*
X39830047Y16157090D01*
X40423376Y16991985D01*
X40385936Y17213347D01*
X40070427Y17441336D01*
X39961856Y17503453D01*
X39843253Y17543194D01*
X39719176Y17559033D01*
X39594393Y17550362D01*
X39473700Y17517514D01*
X39361733Y17461751D01*
X39262797Y17385216D01*
X39210219Y17324786D01*
X40860866Y19650000D01*
X41339135Y19650000D01*
X42941443Y17392880D01*
G37*
G04 #@! TD.AperFunction*
D17*
X70541443Y17392880D02*
X70478267Y17441751D01*
X70366300Y17497514D01*
X70245607Y17530362D01*
X70120824Y17539033D01*
X69996747Y17523194D01*
X69878144Y17483453D01*
X69769573Y17421336D01*
X69454064Y17193347D01*
X69416624Y16971985D01*
X70009953Y16137090D01*
X70026255Y16148675D01*
X70173393Y15941633D01*
X70157090Y15930047D01*
X70750419Y15095153D01*
X70971781Y15057712D01*
X71290849Y15280693D01*
X71385216Y15362797D01*
X71461751Y15461733D01*
X71517514Y15573700D01*
X71550362Y15694393D01*
X71559033Y15819176D01*
X71543194Y15943253D01*
X71518767Y16016153D01*
X74202944Y12235036D01*
X74014017Y12336019D01*
X73752944Y12415215D01*
X73481437Y12441955D01*
X73209930Y12415215D01*
X72948856Y12336019D01*
X72708250Y12207412D01*
X72550204Y12077707D01*
X71875203Y11402706D01*
X71822357Y11359336D01*
X71649281Y11148443D01*
X71552745Y10967837D01*
X71520674Y10907836D01*
X71447964Y10668142D01*
X71441478Y10646762D01*
X71421438Y10443292D01*
X71421438Y10443285D01*
X71414738Y10375256D01*
X71421438Y10307227D01*
X71421438Y8916589D01*
X71414738Y8848560D01*
X71421438Y8780531D01*
X71421438Y8780523D01*
X71435569Y8637053D01*
X71441478Y8577053D01*
X71520674Y8315980D01*
X71649282Y8075372D01*
X71778986Y7917327D01*
X71778989Y7917324D01*
X71822358Y7864479D01*
X71875202Y7821111D01*
X72837804Y6858508D01*
X72881173Y6805663D01*
X72934018Y6762294D01*
X72934020Y6762292D01*
X72969630Y6733068D01*
X73092066Y6632587D01*
X73251618Y6547305D01*
X73332673Y6503980D01*
X73593746Y6424784D01*
X73608479Y6423333D01*
X73797217Y6404744D01*
X73797225Y6404744D01*
X73865254Y6398044D01*
X73933283Y6404744D01*
X75183771Y6404744D01*
X75201360Y6384528D01*
X75300296Y6307993D01*
X75342792Y6286828D01*
X75475000Y6154620D01*
X75475000Y5783688D01*
X73136313Y3445000D01*
X71697431Y3445000D01*
X71694080Y3449083D01*
X71641241Y3492447D01*
X70517455Y4616232D01*
X70474082Y4669082D01*
X70263189Y4842158D01*
X70022582Y4970765D01*
X69761508Y5049961D01*
X69558038Y5070001D01*
X69558030Y5070001D01*
X69490001Y5076701D01*
X69421972Y5070001D01*
X68743451Y5070001D01*
X68755000Y5128061D01*
X68755000Y5331939D01*
X68715226Y5531898D01*
X68637205Y5720256D01*
X68523937Y5889774D01*
X68480000Y5933711D01*
X68480000Y6572677D01*
X68483676Y6610000D01*
X68480000Y6647323D01*
X68480000Y6647333D01*
X68469003Y6758986D01*
X68425546Y6902247D01*
X68354974Y7034276D01*
X68302165Y7098623D01*
X68306693Y7121385D01*
X68306693Y7325263D01*
X68266919Y7525222D01*
X68188898Y7713580D01*
X68075630Y7883098D01*
X67931467Y8027261D01*
X67761949Y8140529D01*
X67573591Y8218550D01*
X67373632Y8258324D01*
X67169754Y8258324D01*
X66969795Y8218550D01*
X66781437Y8140529D01*
X66611919Y8027261D01*
X66467756Y7883098D01*
X66354488Y7713580D01*
X66276467Y7525222D01*
X66236693Y7325263D01*
X66236693Y7121385D01*
X66276467Y6921426D01*
X66354488Y6733068D01*
X66467756Y6563550D01*
X66611919Y6419387D01*
X66781437Y6306119D01*
X66960001Y6232155D01*
X66960001Y5933712D01*
X66916063Y5889774D01*
X66802795Y5720256D01*
X66724774Y5531898D01*
X66685000Y5331939D01*
X66685000Y5128061D01*
X66724774Y4928102D01*
X66802795Y4739744D01*
X66892221Y4605908D01*
X66153764Y3867451D01*
X66100919Y3824082D01*
X66057549Y3771236D01*
X66057547Y3771234D01*
X66031880Y3739959D01*
X65927842Y3613189D01*
X65799235Y3372582D01*
X65720039Y3111508D01*
X65711690Y3026744D01*
X65552843Y2833188D01*
X65424236Y2592581D01*
X65345040Y2331507D01*
X65318299Y2060000D01*
X65345040Y1788493D01*
X65424236Y1527419D01*
X65552843Y1286812D01*
X65725919Y1075919D01*
X65936812Y902843D01*
X66177419Y774236D01*
X66438493Y695040D01*
X66641963Y675000D01*
X66701971Y675000D01*
X66770000Y668300D01*
X66838029Y675000D01*
X66838037Y675000D01*
X67041507Y695040D01*
X67302581Y774236D01*
X67543188Y902843D01*
X67754081Y1075919D01*
X67793468Y1123911D01*
X67874923Y1042456D01*
X68089482Y899093D01*
X68327887Y800342D01*
X68580976Y750000D01*
X68839024Y750000D01*
X69092113Y800342D01*
X69330518Y899093D01*
X69512513Y1020697D01*
X69583815Y933815D01*
X69680506Y854463D01*
X69790820Y795498D01*
X69910518Y759188D01*
X70035000Y746928D01*
X70267441Y746928D01*
X70438493Y695040D01*
X70641963Y675000D01*
X70641964Y675000D01*
X70710000Y668299D01*
X70778037Y675000D01*
X73911963Y675000D01*
X73980000Y668299D01*
X74048036Y675000D01*
X74048037Y675000D01*
X74251507Y695040D01*
X74512581Y774236D01*
X74753188Y902843D01*
X74964081Y1075919D01*
X75137157Y1286812D01*
X75265764Y1527419D01*
X75322223Y1713540D01*
X75501681Y1892998D01*
X75578748Y1892998D01*
X75420000Y1734250D01*
X75416928Y1345000D01*
X75429188Y1220518D01*
X75465498Y1100820D01*
X75524463Y990506D01*
X75603815Y893815D01*
X75700506Y814463D01*
X75810820Y755498D01*
X75930518Y719188D01*
X76055000Y706928D01*
X76444250Y710000D01*
X76603000Y868750D01*
X76603000Y1893000D01*
X76857000Y1893000D01*
X76857000Y868750D01*
X77015750Y710000D01*
X77405000Y706928D01*
X77529482Y719188D01*
X77649180Y755498D01*
X77759494Y814463D01*
X77856185Y893815D01*
X77935537Y990506D01*
X77994502Y1100820D01*
X78030812Y1220518D01*
X78043072Y1345000D01*
X78040000Y1734250D01*
X77881250Y1893000D01*
X76857000Y1893000D01*
X76603000Y1893000D01*
X76583000Y1893000D01*
X76583000Y1898219D01*
X78397712Y1898219D01*
X78620693Y1579151D01*
X78702797Y1484784D01*
X78801733Y1408249D01*
X78913700Y1352486D01*
X79034393Y1319638D01*
X79159176Y1310967D01*
X79283253Y1326806D01*
X79401856Y1366547D01*
X79510427Y1428664D01*
X79825936Y1656653D01*
X79863376Y1878015D01*
X79270047Y2712910D01*
X78435153Y2119581D01*
X78397712Y1898219D01*
X76583000Y1898219D01*
X76583000Y2147000D01*
X76603000Y2147000D01*
X76603000Y2167000D01*
X76857000Y2167000D01*
X76857000Y2147000D01*
X77881250Y2147000D01*
X78040000Y2305750D01*
X78040743Y2399920D01*
X78066653Y2364064D01*
X78288015Y2326624D01*
X79122910Y2919953D01*
X78529581Y3754847D01*
X78308219Y3792288D01*
X77989151Y3569307D01*
X77894784Y3487203D01*
X77818249Y3388267D01*
X77762486Y3276300D01*
X77750045Y3230588D01*
X77649180Y3284502D01*
X77529482Y3320812D01*
X77405000Y3333072D01*
X77015750Y3330000D01*
X76857002Y3171252D01*
X76857002Y3248318D01*
X77791241Y4182557D01*
X77844080Y4225921D01*
X77887445Y4278761D01*
X77887452Y4278768D01*
X78017156Y4436813D01*
X78017158Y4436815D01*
X78145764Y4677421D01*
X78224960Y4938495D01*
X78245000Y5141965D01*
X78245000Y5141974D01*
X78251700Y5210001D01*
X78245000Y5278028D01*
X78245000Y6541118D01*
X79777763Y4381963D01*
X79686300Y4427514D01*
X79565607Y4460362D01*
X79440824Y4469033D01*
X79316747Y4453194D01*
X79198144Y4413453D01*
X79089573Y4351336D01*
X78774064Y4123347D01*
X78736624Y3901985D01*
X79329953Y3067090D01*
X79346255Y3078675D01*
X79493393Y2871633D01*
X79477090Y2860047D01*
X80070419Y2025153D01*
X80291781Y1987712D01*
X80610849Y2210693D01*
X80705216Y2292797D01*
X80781751Y2391733D01*
X80837514Y2503700D01*
X80870362Y2624393D01*
X80879033Y2749176D01*
X80866354Y2848498D01*
X81540001Y1899552D01*
X81540000Y660000D01*
X61708090Y660000D01*
X61759180Y675498D01*
X61869494Y734463D01*
X61966185Y813815D01*
X62045537Y910506D01*
X62104502Y1020820D01*
X62140812Y1140518D01*
X62153072Y1265000D01*
X62150000Y1654250D01*
X61991250Y1813000D01*
X60967000Y1813000D01*
X60967000Y1793000D01*
X60713000Y1793000D01*
X60713000Y1813000D01*
X59688750Y1813000D01*
X59530000Y1654250D01*
X59526928Y1265000D01*
X59539188Y1140518D01*
X59575498Y1020820D01*
X59634463Y910506D01*
X59713815Y813815D01*
X59810506Y734463D01*
X59920820Y675498D01*
X59971910Y660000D01*
X55860000Y660000D01*
X55860000Y1888015D01*
X57646624Y1888015D01*
X57684064Y1666653D01*
X57999573Y1438664D01*
X58108144Y1376547D01*
X58226747Y1336806D01*
X58350824Y1320967D01*
X58475607Y1329638D01*
X58596300Y1362486D01*
X58708267Y1418249D01*
X58807203Y1494784D01*
X58889307Y1589151D01*
X59112288Y1908219D01*
X59074847Y2129581D01*
X58239953Y2722910D01*
X57646624Y1888015D01*
X55860000Y1888015D01*
X55860000Y1899555D01*
X56470236Y2759176D01*
X56630967Y2759176D01*
X56639638Y2634393D01*
X56672486Y2513700D01*
X56728249Y2401733D01*
X56804784Y2302797D01*
X56899151Y2220693D01*
X57218219Y1997712D01*
X57439581Y2035153D01*
X58032910Y2870047D01*
X57948615Y2929953D01*
X58387090Y2929953D01*
X59221985Y2336624D01*
X59443347Y2374064D01*
X59527906Y2491083D01*
X59530000Y2225750D01*
X59688750Y2067000D01*
X60713000Y2067000D01*
X60713000Y3091250D01*
X60967000Y3091250D01*
X60967000Y2067000D01*
X61991250Y2067000D01*
X62150000Y2225750D01*
X62153072Y2615000D01*
X62140812Y2739482D01*
X62104502Y2859180D01*
X62045537Y2969494D01*
X61966185Y3066185D01*
X61869494Y3145537D01*
X61759180Y3204502D01*
X61639482Y3240812D01*
X61515000Y3253072D01*
X61125750Y3250000D01*
X60967000Y3091250D01*
X60713000Y3091250D01*
X60554250Y3250000D01*
X60165000Y3253072D01*
X60040518Y3240812D01*
X59920820Y3204502D01*
X59810506Y3145537D01*
X59783308Y3123216D01*
X59780362Y3165607D01*
X59747514Y3286300D01*
X59691751Y3398267D01*
X59615216Y3497203D01*
X59520849Y3579307D01*
X59201781Y3802288D01*
X58980419Y3764847D01*
X58387090Y2929953D01*
X57948615Y2929953D01*
X57198015Y3463376D01*
X56976653Y3425936D01*
X56748664Y3110427D01*
X56686547Y3001856D01*
X56646806Y2883253D01*
X56630967Y2759176D01*
X56470236Y2759176D01*
X57274261Y3891781D01*
X57307712Y3891781D01*
X57345153Y3670419D01*
X58180047Y3077090D01*
X58773376Y3911985D01*
X58735936Y4133347D01*
X58420427Y4361336D01*
X58311856Y4423453D01*
X58193253Y4463194D01*
X58069176Y4479033D01*
X57944393Y4470362D01*
X57823700Y4437514D01*
X57711733Y4381751D01*
X57612797Y4305216D01*
X57530693Y4210849D01*
X57307712Y3891781D01*
X57274261Y3891781D01*
X60102684Y7876090D01*
X60088244Y7832998D01*
X60072405Y7708921D01*
X60081075Y7584138D01*
X60113924Y7463444D01*
X60169687Y7351478D01*
X60246222Y7252542D01*
X60340589Y7170438D01*
X60524490Y7039746D01*
X60667357Y6865663D01*
X60878250Y6692587D01*
X61118857Y6563980D01*
X61249888Y6524232D01*
X61441011Y6388408D01*
X61549581Y6326292D01*
X61668184Y6286550D01*
X61792261Y6270711D01*
X61917044Y6279381D01*
X62037738Y6312230D01*
X62149704Y6367993D01*
X62248640Y6444528D01*
X62266229Y6464744D01*
X63516717Y6464744D01*
X63584746Y6458044D01*
X63652775Y6464744D01*
X63652783Y6464744D01*
X63856253Y6484784D01*
X64117327Y6563980D01*
X64357934Y6692587D01*
X64568827Y6865663D01*
X64612200Y6918513D01*
X65574798Y7881110D01*
X65627643Y7924479D01*
X65681881Y7990567D01*
X65766163Y8093266D01*
X65800719Y8135372D01*
X65929326Y8375979D01*
X65992709Y8584923D01*
X66008522Y8637052D01*
X66016788Y8720978D01*
X66028562Y8840523D01*
X66028562Y8840531D01*
X66035262Y8908560D01*
X66028562Y8976589D01*
X66028562Y10367227D01*
X66035262Y10435256D01*
X66028562Y10503285D01*
X66028562Y10503293D01*
X66008522Y10706763D01*
X65929326Y10967837D01*
X65800719Y11208444D01*
X65711273Y11317434D01*
X65671014Y11366489D01*
X65671012Y11366491D01*
X65627642Y11419337D01*
X65574797Y11462706D01*
X64899796Y12137707D01*
X64741751Y12267411D01*
X64501143Y12396019D01*
X64240070Y12475215D01*
X63968563Y12501955D01*
X63697056Y12475215D01*
X63435983Y12396019D01*
X63235120Y12288655D01*
X63751103Y13015505D01*
X66775000Y13015505D01*
X66775000Y12624495D01*
X66851282Y12240997D01*
X67000915Y11879750D01*
X67218149Y11554636D01*
X67494636Y11278149D01*
X67819750Y11060915D01*
X68180997Y10911282D01*
X68564495Y10835000D01*
X68955505Y10835000D01*
X69339003Y10911282D01*
X69700250Y11060915D01*
X70025364Y11278149D01*
X70301851Y11554636D01*
X70519085Y11879750D01*
X70668718Y12240997D01*
X70745000Y12624495D01*
X70745000Y13015505D01*
X70668718Y13399003D01*
X70519085Y13760250D01*
X70301851Y14085364D01*
X70025364Y14361851D01*
X69969778Y14398992D01*
X70081856Y14436547D01*
X70190427Y14498664D01*
X70505936Y14726653D01*
X70543376Y14948015D01*
X69950047Y15782910D01*
X69115153Y15189581D01*
X69077712Y14968219D01*
X69229925Y14750415D01*
X68955505Y14805000D01*
X68564495Y14805000D01*
X68180997Y14728718D01*
X68180910Y14728682D01*
X68362288Y14988219D01*
X68324847Y15209581D01*
X67489953Y15802910D01*
X66896624Y14968015D01*
X66934064Y14746653D01*
X67249573Y14518664D01*
X67358144Y14456547D01*
X67476747Y14416806D01*
X67560820Y14406074D01*
X67494636Y14361851D01*
X67218149Y14085364D01*
X67000915Y13760250D01*
X66851282Y13399003D01*
X66775000Y13015505D01*
X63751103Y13015505D01*
X65972559Y16144800D01*
X65936547Y16081856D01*
X65896806Y15963253D01*
X65880967Y15839176D01*
X65889638Y15714393D01*
X65922486Y15593700D01*
X65978249Y15481733D01*
X66054784Y15382797D01*
X66149151Y15300693D01*
X66468219Y15077712D01*
X66689581Y15115153D01*
X67282910Y15950047D01*
X67266607Y15961633D01*
X67300946Y16009953D01*
X67637090Y16009953D01*
X68471985Y15416624D01*
X68693347Y15454064D01*
X68712774Y15480949D01*
X68746653Y15434064D01*
X68968015Y15396624D01*
X69802910Y15989953D01*
X69209581Y16824847D01*
X68988219Y16862288D01*
X68734309Y16684843D01*
X68451781Y16882288D01*
X68230419Y16844847D01*
X67637090Y16009953D01*
X67300946Y16009953D01*
X67413745Y16168675D01*
X67430047Y16157090D01*
X68023376Y16991985D01*
X67985936Y17213347D01*
X67670427Y17441336D01*
X67561856Y17503453D01*
X67443253Y17543194D01*
X67319176Y17559033D01*
X67194393Y17550362D01*
X67073700Y17517514D01*
X66961733Y17461751D01*
X66862797Y17385216D01*
X66810219Y17324786D01*
X68460866Y19650000D01*
X68939135Y19650000D01*
X70541443Y17392880D01*
G04 #@! TA.AperFunction,Conductor*
D18*
G36*
X70541443Y17392880D02*
G01*
X70478267Y17441751D01*
X70366300Y17497514D01*
X70245607Y17530362D01*
X70120824Y17539033D01*
X69996747Y17523194D01*
X69878144Y17483453D01*
X69769573Y17421336D01*
X69454064Y17193347D01*
X69416624Y16971985D01*
X70009953Y16137090D01*
X70026255Y16148675D01*
X70173393Y15941633D01*
X70157090Y15930047D01*
X70750419Y15095153D01*
X70971781Y15057712D01*
X71290849Y15280693D01*
X71385216Y15362797D01*
X71461751Y15461733D01*
X71517514Y15573700D01*
X71550362Y15694393D01*
X71559033Y15819176D01*
X71543194Y15943253D01*
X71518767Y16016153D01*
X74202944Y12235036D01*
X74014017Y12336019D01*
X73752944Y12415215D01*
X73481437Y12441955D01*
X73209930Y12415215D01*
X72948856Y12336019D01*
X72708250Y12207412D01*
X72550204Y12077707D01*
X71875203Y11402706D01*
X71822357Y11359336D01*
X71649281Y11148443D01*
X71552745Y10967837D01*
X71520674Y10907836D01*
X71447964Y10668142D01*
X71441478Y10646762D01*
X71421438Y10443292D01*
X71421438Y10443285D01*
X71414738Y10375256D01*
X71421438Y10307227D01*
X71421438Y8916589D01*
X71414738Y8848560D01*
X71421438Y8780531D01*
X71421438Y8780523D01*
X71435569Y8637053D01*
X71441478Y8577053D01*
X71520674Y8315980D01*
X71649282Y8075372D01*
X71778986Y7917327D01*
X71778989Y7917324D01*
X71822358Y7864479D01*
X71875202Y7821111D01*
X72837804Y6858508D01*
X72881173Y6805663D01*
X72934018Y6762294D01*
X72934020Y6762292D01*
X72969630Y6733068D01*
X73092066Y6632587D01*
X73251618Y6547305D01*
X73332673Y6503980D01*
X73593746Y6424784D01*
X73608479Y6423333D01*
X73797217Y6404744D01*
X73797225Y6404744D01*
X73865254Y6398044D01*
X73933283Y6404744D01*
X75183771Y6404744D01*
X75201360Y6384528D01*
X75300296Y6307993D01*
X75342792Y6286828D01*
X75475000Y6154620D01*
X75475000Y5783688D01*
X73136313Y3445000D01*
X71697431Y3445000D01*
X71694080Y3449083D01*
X71641241Y3492447D01*
X70517455Y4616232D01*
X70474082Y4669082D01*
X70263189Y4842158D01*
X70022582Y4970765D01*
X69761508Y5049961D01*
X69558038Y5070001D01*
X69558030Y5070001D01*
X69490001Y5076701D01*
X69421972Y5070001D01*
X68743451Y5070001D01*
X68755000Y5128061D01*
X68755000Y5331939D01*
X68715226Y5531898D01*
X68637205Y5720256D01*
X68523937Y5889774D01*
X68480000Y5933711D01*
X68480000Y6572677D01*
X68483676Y6610000D01*
X68480000Y6647323D01*
X68480000Y6647333D01*
X68469003Y6758986D01*
X68425546Y6902247D01*
X68354974Y7034276D01*
X68302165Y7098623D01*
X68306693Y7121385D01*
X68306693Y7325263D01*
X68266919Y7525222D01*
X68188898Y7713580D01*
X68075630Y7883098D01*
X67931467Y8027261D01*
X67761949Y8140529D01*
X67573591Y8218550D01*
X67373632Y8258324D01*
X67169754Y8258324D01*
X66969795Y8218550D01*
X66781437Y8140529D01*
X66611919Y8027261D01*
X66467756Y7883098D01*
X66354488Y7713580D01*
X66276467Y7525222D01*
X66236693Y7325263D01*
X66236693Y7121385D01*
X66276467Y6921426D01*
X66354488Y6733068D01*
X66467756Y6563550D01*
X66611919Y6419387D01*
X66781437Y6306119D01*
X66960001Y6232155D01*
X66960001Y5933712D01*
X66916063Y5889774D01*
X66802795Y5720256D01*
X66724774Y5531898D01*
X66685000Y5331939D01*
X66685000Y5128061D01*
X66724774Y4928102D01*
X66802795Y4739744D01*
X66892221Y4605908D01*
X66153764Y3867451D01*
X66100919Y3824082D01*
X66057549Y3771236D01*
X66057547Y3771234D01*
X66031880Y3739959D01*
X65927842Y3613189D01*
X65799235Y3372582D01*
X65720039Y3111508D01*
X65711690Y3026744D01*
X65552843Y2833188D01*
X65424236Y2592581D01*
X65345040Y2331507D01*
X65318299Y2060000D01*
X65345040Y1788493D01*
X65424236Y1527419D01*
X65552843Y1286812D01*
X65725919Y1075919D01*
X65936812Y902843D01*
X66177419Y774236D01*
X66438493Y695040D01*
X66641963Y675000D01*
X66701971Y675000D01*
X66770000Y668300D01*
X66838029Y675000D01*
X66838037Y675000D01*
X67041507Y695040D01*
X67302581Y774236D01*
X67543188Y902843D01*
X67754081Y1075919D01*
X67793468Y1123911D01*
X67874923Y1042456D01*
X68089482Y899093D01*
X68327887Y800342D01*
X68580976Y750000D01*
X68839024Y750000D01*
X69092113Y800342D01*
X69330518Y899093D01*
X69512513Y1020697D01*
X69583815Y933815D01*
X69680506Y854463D01*
X69790820Y795498D01*
X69910518Y759188D01*
X70035000Y746928D01*
X70267441Y746928D01*
X70438493Y695040D01*
X70641963Y675000D01*
X70641964Y675000D01*
X70710000Y668299D01*
X70778037Y675000D01*
X73911963Y675000D01*
X73980000Y668299D01*
X74048036Y675000D01*
X74048037Y675000D01*
X74251507Y695040D01*
X74512581Y774236D01*
X74753188Y902843D01*
X74964081Y1075919D01*
X75137157Y1286812D01*
X75265764Y1527419D01*
X75322223Y1713540D01*
X75501681Y1892998D01*
X75578748Y1892998D01*
X75420000Y1734250D01*
X75416928Y1345000D01*
X75429188Y1220518D01*
X75465498Y1100820D01*
X75524463Y990506D01*
X75603815Y893815D01*
X75700506Y814463D01*
X75810820Y755498D01*
X75930518Y719188D01*
X76055000Y706928D01*
X76444250Y710000D01*
X76603000Y868750D01*
X76603000Y1893000D01*
X76857000Y1893000D01*
X76857000Y868750D01*
X77015750Y710000D01*
X77405000Y706928D01*
X77529482Y719188D01*
X77649180Y755498D01*
X77759494Y814463D01*
X77856185Y893815D01*
X77935537Y990506D01*
X77994502Y1100820D01*
X78030812Y1220518D01*
X78043072Y1345000D01*
X78040000Y1734250D01*
X77881250Y1893000D01*
X76857000Y1893000D01*
X76603000Y1893000D01*
X76583000Y1893000D01*
X76583000Y1898219D01*
X78397712Y1898219D01*
X78620693Y1579151D01*
X78702797Y1484784D01*
X78801733Y1408249D01*
X78913700Y1352486D01*
X79034393Y1319638D01*
X79159176Y1310967D01*
X79283253Y1326806D01*
X79401856Y1366547D01*
X79510427Y1428664D01*
X79825936Y1656653D01*
X79863376Y1878015D01*
X79270047Y2712910D01*
X78435153Y2119581D01*
X78397712Y1898219D01*
X76583000Y1898219D01*
X76583000Y2147000D01*
X76603000Y2147000D01*
X76603000Y2167000D01*
X76857000Y2167000D01*
X76857000Y2147000D01*
X77881250Y2147000D01*
X78040000Y2305750D01*
X78040743Y2399920D01*
X78066653Y2364064D01*
X78288015Y2326624D01*
X79122910Y2919953D01*
X78529581Y3754847D01*
X78308219Y3792288D01*
X77989151Y3569307D01*
X77894784Y3487203D01*
X77818249Y3388267D01*
X77762486Y3276300D01*
X77750045Y3230588D01*
X77649180Y3284502D01*
X77529482Y3320812D01*
X77405000Y3333072D01*
X77015750Y3330000D01*
X76857002Y3171252D01*
X76857002Y3248318D01*
X77791241Y4182557D01*
X77844080Y4225921D01*
X77887445Y4278761D01*
X77887452Y4278768D01*
X78017156Y4436813D01*
X78017158Y4436815D01*
X78145764Y4677421D01*
X78224960Y4938495D01*
X78245000Y5141965D01*
X78245000Y5141974D01*
X78251700Y5210001D01*
X78245000Y5278028D01*
X78245000Y6541118D01*
X79777763Y4381963D01*
X79686300Y4427514D01*
X79565607Y4460362D01*
X79440824Y4469033D01*
X79316747Y4453194D01*
X79198144Y4413453D01*
X79089573Y4351336D01*
X78774064Y4123347D01*
X78736624Y3901985D01*
X79329953Y3067090D01*
X79346255Y3078675D01*
X79493393Y2871633D01*
X79477090Y2860047D01*
X80070419Y2025153D01*
X80291781Y1987712D01*
X80610849Y2210693D01*
X80705216Y2292797D01*
X80781751Y2391733D01*
X80837514Y2503700D01*
X80870362Y2624393D01*
X80879033Y2749176D01*
X80866354Y2848498D01*
X81540001Y1899552D01*
X81540000Y660000D01*
X61708090Y660000D01*
X61759180Y675498D01*
X61869494Y734463D01*
X61966185Y813815D01*
X62045537Y910506D01*
X62104502Y1020820D01*
X62140812Y1140518D01*
X62153072Y1265000D01*
X62150000Y1654250D01*
X61991250Y1813000D01*
X60967000Y1813000D01*
X60967000Y1793000D01*
X60713000Y1793000D01*
X60713000Y1813000D01*
X59688750Y1813000D01*
X59530000Y1654250D01*
X59526928Y1265000D01*
X59539188Y1140518D01*
X59575498Y1020820D01*
X59634463Y910506D01*
X59713815Y813815D01*
X59810506Y734463D01*
X59920820Y675498D01*
X59971910Y660000D01*
X55860000Y660000D01*
X55860000Y1888015D01*
X57646624Y1888015D01*
X57684064Y1666653D01*
X57999573Y1438664D01*
X58108144Y1376547D01*
X58226747Y1336806D01*
X58350824Y1320967D01*
X58475607Y1329638D01*
X58596300Y1362486D01*
X58708267Y1418249D01*
X58807203Y1494784D01*
X58889307Y1589151D01*
X59112288Y1908219D01*
X59074847Y2129581D01*
X58239953Y2722910D01*
X57646624Y1888015D01*
X55860000Y1888015D01*
X55860000Y1899555D01*
X56470236Y2759176D01*
X56630967Y2759176D01*
X56639638Y2634393D01*
X56672486Y2513700D01*
X56728249Y2401733D01*
X56804784Y2302797D01*
X56899151Y2220693D01*
X57218219Y1997712D01*
X57439581Y2035153D01*
X58032910Y2870047D01*
X57948615Y2929953D01*
X58387090Y2929953D01*
X59221985Y2336624D01*
X59443347Y2374064D01*
X59527906Y2491083D01*
X59530000Y2225750D01*
X59688750Y2067000D01*
X60713000Y2067000D01*
X60713000Y3091250D01*
X60967000Y3091250D01*
X60967000Y2067000D01*
X61991250Y2067000D01*
X62150000Y2225750D01*
X62153072Y2615000D01*
X62140812Y2739482D01*
X62104502Y2859180D01*
X62045537Y2969494D01*
X61966185Y3066185D01*
X61869494Y3145537D01*
X61759180Y3204502D01*
X61639482Y3240812D01*
X61515000Y3253072D01*
X61125750Y3250000D01*
X60967000Y3091250D01*
X60713000Y3091250D01*
X60554250Y3250000D01*
X60165000Y3253072D01*
X60040518Y3240812D01*
X59920820Y3204502D01*
X59810506Y3145537D01*
X59783308Y3123216D01*
X59780362Y3165607D01*
X59747514Y3286300D01*
X59691751Y3398267D01*
X59615216Y3497203D01*
X59520849Y3579307D01*
X59201781Y3802288D01*
X58980419Y3764847D01*
X58387090Y2929953D01*
X57948615Y2929953D01*
X57198015Y3463376D01*
X56976653Y3425936D01*
X56748664Y3110427D01*
X56686547Y3001856D01*
X56646806Y2883253D01*
X56630967Y2759176D01*
X56470236Y2759176D01*
X57274261Y3891781D01*
X57307712Y3891781D01*
X57345153Y3670419D01*
X58180047Y3077090D01*
X58773376Y3911985D01*
X58735936Y4133347D01*
X58420427Y4361336D01*
X58311856Y4423453D01*
X58193253Y4463194D01*
X58069176Y4479033D01*
X57944393Y4470362D01*
X57823700Y4437514D01*
X57711733Y4381751D01*
X57612797Y4305216D01*
X57530693Y4210849D01*
X57307712Y3891781D01*
X57274261Y3891781D01*
X60102684Y7876090D01*
X60088244Y7832998D01*
X60072405Y7708921D01*
X60081075Y7584138D01*
X60113924Y7463444D01*
X60169687Y7351478D01*
X60246222Y7252542D01*
X60340589Y7170438D01*
X60524490Y7039746D01*
X60667357Y6865663D01*
X60878250Y6692587D01*
X61118857Y6563980D01*
X61249888Y6524232D01*
X61441011Y6388408D01*
X61549581Y6326292D01*
X61668184Y6286550D01*
X61792261Y6270711D01*
X61917044Y6279381D01*
X62037738Y6312230D01*
X62149704Y6367993D01*
X62248640Y6444528D01*
X62266229Y6464744D01*
X63516717Y6464744D01*
X63584746Y6458044D01*
X63652775Y6464744D01*
X63652783Y6464744D01*
X63856253Y6484784D01*
X64117327Y6563980D01*
X64357934Y6692587D01*
X64568827Y6865663D01*
X64612200Y6918513D01*
X65574798Y7881110D01*
X65627643Y7924479D01*
X65681881Y7990567D01*
X65766163Y8093266D01*
X65800719Y8135372D01*
X65929326Y8375979D01*
X65992709Y8584923D01*
X66008522Y8637052D01*
X66016788Y8720978D01*
X66028562Y8840523D01*
X66028562Y8840531D01*
X66035262Y8908560D01*
X66028562Y8976589D01*
X66028562Y10367227D01*
X66035262Y10435256D01*
X66028562Y10503285D01*
X66028562Y10503293D01*
X66008522Y10706763D01*
X65929326Y10967837D01*
X65800719Y11208444D01*
X65711273Y11317434D01*
X65671014Y11366489D01*
X65671012Y11366491D01*
X65627642Y11419337D01*
X65574797Y11462706D01*
X64899796Y12137707D01*
X64741751Y12267411D01*
X64501143Y12396019D01*
X64240070Y12475215D01*
X63968563Y12501955D01*
X63697056Y12475215D01*
X63435983Y12396019D01*
X63235120Y12288655D01*
X63751103Y13015505D01*
X66775000Y13015505D01*
X66775000Y12624495D01*
X66851282Y12240997D01*
X67000915Y11879750D01*
X67218149Y11554636D01*
X67494636Y11278149D01*
X67819750Y11060915D01*
X68180997Y10911282D01*
X68564495Y10835000D01*
X68955505Y10835000D01*
X69339003Y10911282D01*
X69700250Y11060915D01*
X70025364Y11278149D01*
X70301851Y11554636D01*
X70519085Y11879750D01*
X70668718Y12240997D01*
X70745000Y12624495D01*
X70745000Y13015505D01*
X70668718Y13399003D01*
X70519085Y13760250D01*
X70301851Y14085364D01*
X70025364Y14361851D01*
X69969778Y14398992D01*
X70081856Y14436547D01*
X70190427Y14498664D01*
X70505936Y14726653D01*
X70543376Y14948015D01*
X69950047Y15782910D01*
X69115153Y15189581D01*
X69077712Y14968219D01*
X69229925Y14750415D01*
X68955505Y14805000D01*
X68564495Y14805000D01*
X68180997Y14728718D01*
X68180910Y14728682D01*
X68362288Y14988219D01*
X68324847Y15209581D01*
X67489953Y15802910D01*
X66896624Y14968015D01*
X66934064Y14746653D01*
X67249573Y14518664D01*
X67358144Y14456547D01*
X67476747Y14416806D01*
X67560820Y14406074D01*
X67494636Y14361851D01*
X67218149Y14085364D01*
X67000915Y13760250D01*
X66851282Y13399003D01*
X66775000Y13015505D01*
X63751103Y13015505D01*
X65972559Y16144800D01*
X65936547Y16081856D01*
X65896806Y15963253D01*
X65880967Y15839176D01*
X65889638Y15714393D01*
X65922486Y15593700D01*
X65978249Y15481733D01*
X66054784Y15382797D01*
X66149151Y15300693D01*
X66468219Y15077712D01*
X66689581Y15115153D01*
X67282910Y15950047D01*
X67266607Y15961633D01*
X67300946Y16009953D01*
X67637090Y16009953D01*
X68471985Y15416624D01*
X68693347Y15454064D01*
X68712774Y15480949D01*
X68746653Y15434064D01*
X68968015Y15396624D01*
X69802910Y15989953D01*
X69209581Y16824847D01*
X68988219Y16862288D01*
X68734309Y16684843D01*
X68451781Y16882288D01*
X68230419Y16844847D01*
X67637090Y16009953D01*
X67300946Y16009953D01*
X67413745Y16168675D01*
X67430047Y16157090D01*
X68023376Y16991985D01*
X67985936Y17213347D01*
X67670427Y17441336D01*
X67561856Y17503453D01*
X67443253Y17543194D01*
X67319176Y17559033D01*
X67194393Y17550362D01*
X67073700Y17517514D01*
X66961733Y17461751D01*
X66862797Y17385216D01*
X66810219Y17324786D01*
X68460866Y19650000D01*
X68939135Y19650000D01*
X70541443Y17392880D01*
G37*
G04 #@! TD.AperFunction*
D17*
X66858557Y23827120D02*
X66921733Y23778249D01*
X67033700Y23722486D01*
X67154393Y23689638D01*
X67279176Y23680967D01*
X67403253Y23696806D01*
X67521856Y23736547D01*
X67630427Y23798664D01*
X67945936Y24026653D01*
X67983376Y24248015D01*
X67390047Y25082910D01*
X67373745Y25071325D01*
X67226607Y25278367D01*
X67242910Y25289953D01*
X66649581Y26124847D01*
X66428219Y26162288D01*
X66109151Y25939307D01*
X66014784Y25857203D01*
X65938249Y25758267D01*
X65882486Y25646300D01*
X65849638Y25525607D01*
X65840967Y25400824D01*
X65856806Y25276747D01*
X65881233Y25203847D01*
X63197056Y28984964D01*
X63385983Y28883981D01*
X63647056Y28804785D01*
X63918563Y28778045D01*
X64190070Y28804785D01*
X64451144Y28883981D01*
X64691750Y29012588D01*
X64849796Y29142293D01*
X65524797Y29817294D01*
X65577643Y29860664D01*
X65750719Y30071557D01*
X65847255Y30252163D01*
X65879326Y30312164D01*
X65952036Y30551858D01*
X65958522Y30573238D01*
X65978562Y30776708D01*
X65978562Y30776715D01*
X65985262Y30844744D01*
X65978562Y30912773D01*
X65978562Y32303411D01*
X65985262Y32371440D01*
X65978562Y32439469D01*
X65978562Y32439477D01*
X65964431Y32582947D01*
X65958522Y32642947D01*
X65879326Y32904020D01*
X65750718Y33144628D01*
X65621014Y33302673D01*
X65621011Y33302676D01*
X65577642Y33355521D01*
X65524798Y33398889D01*
X64562196Y34361492D01*
X64518827Y34414337D01*
X64465982Y34457706D01*
X64465980Y34457708D01*
X64430370Y34486932D01*
X64307934Y34587413D01*
X64148382Y34672695D01*
X64067327Y34716020D01*
X63806254Y34795216D01*
X63791521Y34796667D01*
X63602783Y34815256D01*
X63602775Y34815256D01*
X63534746Y34821956D01*
X63466717Y34815256D01*
X62216229Y34815256D01*
X62198640Y34835472D01*
X62099704Y34912007D01*
X62057208Y34933172D01*
X61925000Y35065380D01*
X61925000Y35436312D01*
X64263687Y37775000D01*
X65702569Y37775000D01*
X65705920Y37770917D01*
X65758759Y37727553D01*
X66882545Y36603768D01*
X66925918Y36550918D01*
X67136811Y36377842D01*
X67377418Y36249235D01*
X67638492Y36170039D01*
X67841962Y36149999D01*
X67841970Y36149999D01*
X67909999Y36143299D01*
X67978028Y36149999D01*
X68656549Y36149999D01*
X68645000Y36091939D01*
X68645000Y35888061D01*
X68684774Y35688102D01*
X68762795Y35499744D01*
X68876063Y35330226D01*
X68920000Y35286289D01*
X68920000Y34647323D01*
X68916324Y34610000D01*
X68920000Y34572677D01*
X68920000Y34572667D01*
X68930997Y34461014D01*
X68974454Y34317753D01*
X69045026Y34185724D01*
X69097835Y34121377D01*
X69093307Y34098615D01*
X69093307Y33894737D01*
X69133081Y33694778D01*
X69211102Y33506420D01*
X69324370Y33336902D01*
X69468533Y33192739D01*
X69638051Y33079471D01*
X69826409Y33001450D01*
X70026368Y32961676D01*
X70230246Y32961676D01*
X70430205Y33001450D01*
X70618563Y33079471D01*
X70788081Y33192739D01*
X70932244Y33336902D01*
X71045512Y33506420D01*
X71123533Y33694778D01*
X71163307Y33894737D01*
X71163307Y34098615D01*
X71123533Y34298574D01*
X71045512Y34486932D01*
X70932244Y34656450D01*
X70788081Y34800613D01*
X70618563Y34913881D01*
X70439999Y34987845D01*
X70439999Y35286288D01*
X70483937Y35330226D01*
X70597205Y35499744D01*
X70675226Y35688102D01*
X70715000Y35888061D01*
X70715000Y36091939D01*
X70675226Y36291898D01*
X70597205Y36480256D01*
X70507779Y36614092D01*
X71246236Y37352549D01*
X71299081Y37395918D01*
X71342451Y37448764D01*
X71342453Y37448766D01*
X71368120Y37480041D01*
X71472158Y37606811D01*
X71600765Y37847418D01*
X71679961Y38108492D01*
X71688310Y38193256D01*
X71847157Y38386812D01*
X71975764Y38627419D01*
X72054960Y38888493D01*
X72081701Y39160000D01*
X72054960Y39431507D01*
X71975764Y39692581D01*
X71847157Y39933188D01*
X71674081Y40144081D01*
X71463188Y40317157D01*
X71222581Y40445764D01*
X70961507Y40524960D01*
X70758037Y40545000D01*
X70698029Y40545000D01*
X70630000Y40551700D01*
X70561971Y40545000D01*
X70561963Y40545000D01*
X70358493Y40524960D01*
X70097419Y40445764D01*
X69856812Y40317157D01*
X69645919Y40144081D01*
X69606532Y40096089D01*
X69525077Y40177544D01*
X69310518Y40320907D01*
X69072113Y40419658D01*
X68819024Y40470000D01*
X68560976Y40470000D01*
X68307887Y40419658D01*
X68069482Y40320907D01*
X67887487Y40199303D01*
X67816185Y40286185D01*
X67719494Y40365537D01*
X67609180Y40424502D01*
X67489482Y40460812D01*
X67365000Y40473072D01*
X67132559Y40473072D01*
X66961507Y40524960D01*
X66758037Y40545000D01*
X66758036Y40545000D01*
X66690000Y40551701D01*
X66621963Y40545000D01*
X63488037Y40545000D01*
X63420000Y40551701D01*
X63351964Y40545000D01*
X63351963Y40545000D01*
X63148493Y40524960D01*
X62887419Y40445764D01*
X62646812Y40317157D01*
X62435919Y40144081D01*
X62262843Y39933188D01*
X62134236Y39692581D01*
X62077777Y39506460D01*
X61898319Y39327002D01*
X61821252Y39327002D01*
X61980000Y39485750D01*
X61983072Y39875000D01*
X61970812Y39999482D01*
X61934502Y40119180D01*
X61875537Y40229494D01*
X61796185Y40326185D01*
X61699494Y40405537D01*
X61589180Y40464502D01*
X61469482Y40500812D01*
X61345000Y40513072D01*
X60955750Y40510000D01*
X60797000Y40351250D01*
X60797000Y39327000D01*
X60543000Y39327000D01*
X60543000Y40351250D01*
X60384250Y40510000D01*
X59995000Y40513072D01*
X59870518Y40500812D01*
X59750820Y40464502D01*
X59640506Y40405537D01*
X59543815Y40326185D01*
X59464463Y40229494D01*
X59405498Y40119180D01*
X59369188Y39999482D01*
X59356928Y39875000D01*
X59360000Y39485750D01*
X59518750Y39327000D01*
X60543000Y39327000D01*
X60797000Y39327000D01*
X60817000Y39327000D01*
X60817000Y39321781D01*
X59002288Y39321781D01*
X58779307Y39640849D01*
X58697203Y39735216D01*
X58598267Y39811751D01*
X58486300Y39867514D01*
X58365607Y39900362D01*
X58240824Y39909033D01*
X58116747Y39893194D01*
X57998144Y39853453D01*
X57889573Y39791336D01*
X57574064Y39563347D01*
X57536624Y39341985D01*
X58129953Y38507090D01*
X58964847Y39100419D01*
X59002288Y39321781D01*
X60817000Y39321781D01*
X60817000Y39073000D01*
X60797000Y39073000D01*
X60797000Y39053000D01*
X60543000Y39053000D01*
X60543000Y39073000D01*
X59518750Y39073000D01*
X59360000Y38914250D01*
X59359257Y38820080D01*
X59333347Y38855936D01*
X59111985Y38893376D01*
X58277090Y38300047D01*
X58870419Y37465153D01*
X59091781Y37427712D01*
X59410849Y37650693D01*
X59505216Y37732797D01*
X59581751Y37831733D01*
X59637514Y37943700D01*
X59649955Y37989412D01*
X59750820Y37935498D01*
X59870518Y37899188D01*
X59995000Y37886928D01*
X60384250Y37890000D01*
X60542998Y38048748D01*
X60542998Y37971682D01*
X59608759Y37037443D01*
X59555920Y36994079D01*
X59512555Y36941239D01*
X59512548Y36941232D01*
X59382844Y36783187D01*
X59382842Y36783185D01*
X59254236Y36542579D01*
X59175040Y36281505D01*
X59155000Y36078035D01*
X59155000Y36078026D01*
X59148300Y36009999D01*
X59155000Y35941972D01*
X59155000Y34678882D01*
X57622237Y36838037D01*
X57713700Y36792486D01*
X57834393Y36759638D01*
X57959176Y36750967D01*
X58083253Y36766806D01*
X58201856Y36806547D01*
X58310427Y36868664D01*
X58625936Y37096653D01*
X58663376Y37318015D01*
X58070047Y38152910D01*
X58053745Y38141325D01*
X57906607Y38348367D01*
X57922910Y38359953D01*
X57329581Y39194847D01*
X57108219Y39232288D01*
X56789151Y39009307D01*
X56694784Y38927203D01*
X56618249Y38828267D01*
X56562486Y38716300D01*
X56529638Y38595607D01*
X56520967Y38470824D01*
X56533646Y38371502D01*
X55859999Y39320448D01*
X55860000Y40560000D01*
X75691910Y40560000D01*
X75640820Y40544502D01*
X75530506Y40485537D01*
X75433815Y40406185D01*
X75354463Y40309494D01*
X75295498Y40199180D01*
X75259188Y40079482D01*
X75246928Y39955000D01*
X75250000Y39565750D01*
X75408750Y39407000D01*
X76433000Y39407000D01*
X76433000Y39427000D01*
X76687000Y39427000D01*
X76687000Y39407000D01*
X77711250Y39407000D01*
X77870000Y39565750D01*
X77873072Y39955000D01*
X77860812Y40079482D01*
X77824502Y40199180D01*
X77765537Y40309494D01*
X77686185Y40406185D01*
X77589494Y40485537D01*
X77479180Y40544502D01*
X77428090Y40560000D01*
X81540000Y40560000D01*
X81540000Y39331985D01*
X79753376Y39331985D01*
X79715936Y39553347D01*
X79400427Y39781336D01*
X79291856Y39843453D01*
X79173253Y39883194D01*
X79049176Y39899033D01*
X78924393Y39890362D01*
X78803700Y39857514D01*
X78691733Y39801751D01*
X78592797Y39725216D01*
X78510693Y39630849D01*
X78287712Y39311781D01*
X78325153Y39090419D01*
X79160047Y38497090D01*
X79753376Y39331985D01*
X81540000Y39331985D01*
X81540000Y39320445D01*
X80929764Y38460824D01*
X80769033Y38460824D01*
X80760362Y38585607D01*
X80727514Y38706300D01*
X80671751Y38818267D01*
X80595216Y38917203D01*
X80500849Y38999307D01*
X80181781Y39222288D01*
X79960419Y39184847D01*
X79367090Y38349953D01*
X79451385Y38290047D01*
X79012910Y38290047D01*
X78178015Y38883376D01*
X77956653Y38845936D01*
X77872094Y38728917D01*
X77870000Y38994250D01*
X77711250Y39153000D01*
X76687000Y39153000D01*
X76687000Y38128750D01*
X76433000Y38128750D01*
X76433000Y39153000D01*
X75408750Y39153000D01*
X75250000Y38994250D01*
X75246928Y38605000D01*
X75259188Y38480518D01*
X75295498Y38360820D01*
X75354463Y38250506D01*
X75433815Y38153815D01*
X75530506Y38074463D01*
X75640820Y38015498D01*
X75760518Y37979188D01*
X75885000Y37966928D01*
X76274250Y37970000D01*
X76433000Y38128750D01*
X76687000Y38128750D01*
X76845750Y37970000D01*
X77235000Y37966928D01*
X77359482Y37979188D01*
X77479180Y38015498D01*
X77589494Y38074463D01*
X77616692Y38096784D01*
X77619638Y38054393D01*
X77652486Y37933700D01*
X77708249Y37821733D01*
X77784784Y37722797D01*
X77879151Y37640693D01*
X78198219Y37417712D01*
X78419581Y37455153D01*
X79012910Y38290047D01*
X79451385Y38290047D01*
X80201985Y37756624D01*
X80423347Y37794064D01*
X80651336Y38109573D01*
X80713453Y38218144D01*
X80753194Y38336747D01*
X80769033Y38460824D01*
X80929764Y38460824D01*
X80125739Y37328219D01*
X80092288Y37328219D01*
X80054847Y37549581D01*
X79219953Y38142910D01*
X78626624Y37308015D01*
X78664064Y37086653D01*
X78979573Y36858664D01*
X79088144Y36796547D01*
X79206747Y36756806D01*
X79330824Y36740967D01*
X79455607Y36749638D01*
X79576300Y36782486D01*
X79688267Y36838249D01*
X79787203Y36914784D01*
X79869307Y37009151D01*
X80092288Y37328219D01*
X80125739Y37328219D01*
X77297316Y33343910D01*
X77311756Y33387002D01*
X77327595Y33511079D01*
X77318925Y33635862D01*
X77286076Y33756556D01*
X77230313Y33868522D01*
X77153778Y33967458D01*
X77059411Y34049562D01*
X76875510Y34180254D01*
X76732643Y34354337D01*
X76521750Y34527413D01*
X76281143Y34656020D01*
X76150112Y34695768D01*
X75958989Y34831592D01*
X75850419Y34893708D01*
X75731816Y34933450D01*
X75607739Y34949289D01*
X75482956Y34940619D01*
X75362262Y34907770D01*
X75250296Y34852007D01*
X75151360Y34775472D01*
X75133771Y34755256D01*
X73883283Y34755256D01*
X73815254Y34761956D01*
X73747225Y34755256D01*
X73747217Y34755256D01*
X73543747Y34735216D01*
X73282673Y34656020D01*
X73042066Y34527413D01*
X72831173Y34354337D01*
X72787800Y34301487D01*
X71825202Y33338890D01*
X71772357Y33295521D01*
X71718119Y33229433D01*
X71633837Y33126734D01*
X71599281Y33084628D01*
X71470674Y32844021D01*
X71407291Y32635077D01*
X71391478Y32582948D01*
X71383212Y32499022D01*
X71371438Y32379477D01*
X71371438Y32379469D01*
X71364738Y32311440D01*
X71371438Y32243411D01*
X71371438Y30852773D01*
X71364738Y30784744D01*
X71371438Y30716715D01*
X71371438Y30716707D01*
X71391478Y30513237D01*
X71470674Y30252163D01*
X71599281Y30011556D01*
X71688727Y29902566D01*
X71728986Y29853511D01*
X71728988Y29853509D01*
X71772358Y29800663D01*
X71825203Y29757294D01*
X72500204Y29082293D01*
X72658249Y28952589D01*
X72898857Y28823981D01*
X73159930Y28744785D01*
X73431437Y28718045D01*
X73702944Y28744785D01*
X73964017Y28823981D01*
X74164880Y28931345D01*
X73648897Y28204495D01*
X70625000Y28204495D01*
X70625000Y28595505D01*
X70548718Y28979003D01*
X70399085Y29340250D01*
X70181851Y29665364D01*
X69905364Y29941851D01*
X69580250Y30159085D01*
X69219003Y30308718D01*
X68835505Y30385000D01*
X68444495Y30385000D01*
X68060997Y30308718D01*
X67699750Y30159085D01*
X67374636Y29941851D01*
X67098149Y29665364D01*
X66880915Y29340250D01*
X66731282Y28979003D01*
X66655000Y28595505D01*
X66655000Y28204495D01*
X66731282Y27820997D01*
X66880915Y27459750D01*
X67098149Y27134636D01*
X67374636Y26858149D01*
X67430222Y26821008D01*
X67318144Y26783453D01*
X67209573Y26721336D01*
X66894064Y26493347D01*
X66856624Y26271985D01*
X67449953Y25437090D01*
X68284847Y26030419D01*
X68322288Y26251781D01*
X68170075Y26469585D01*
X68444495Y26415000D01*
X68835505Y26415000D01*
X69219003Y26491282D01*
X69219090Y26491318D01*
X69037712Y26231781D01*
X69075153Y26010419D01*
X69910047Y25417090D01*
X70503376Y26251985D01*
X70465936Y26473347D01*
X70150427Y26701336D01*
X70041856Y26763453D01*
X69923253Y26803194D01*
X69839180Y26813926D01*
X69905364Y26858149D01*
X70181851Y27134636D01*
X70399085Y27459750D01*
X70548718Y27820997D01*
X70625000Y28204495D01*
X73648897Y28204495D01*
X71427441Y25075200D01*
X71463453Y25138144D01*
X71503194Y25256747D01*
X71519033Y25380824D01*
X71510362Y25505607D01*
X71477514Y25626300D01*
X71421751Y25738267D01*
X71345216Y25837203D01*
X71250849Y25919307D01*
X70931781Y26142288D01*
X70710419Y26104847D01*
X70117090Y25269953D01*
X70133393Y25258367D01*
X70099054Y25210047D01*
X69762910Y25210047D01*
X68928015Y25803376D01*
X68706653Y25765936D01*
X68687226Y25739051D01*
X68653347Y25785936D01*
X68431985Y25823376D01*
X67597090Y25230047D01*
X68190419Y24395153D01*
X68411781Y24357712D01*
X68665691Y24535157D01*
X68948219Y24337712D01*
X69169581Y24375153D01*
X69762910Y25210047D01*
X70099054Y25210047D01*
X69986255Y25051325D01*
X69969953Y25062910D01*
X69376624Y24228015D01*
X69414064Y24006653D01*
X69729573Y23778664D01*
X69838144Y23716547D01*
X69956747Y23676806D01*
X70080824Y23660967D01*
X70205607Y23669638D01*
X70326300Y23702486D01*
X70438267Y23758249D01*
X70537203Y23834784D01*
X70589781Y23895214D01*
X68939134Y21570000D01*
X68460865Y21570000D01*
X66858557Y23827120D01*
G04 #@! TA.AperFunction,Conductor*
D18*
G36*
X66858557Y23827120D02*
G01*
X66921733Y23778249D01*
X67033700Y23722486D01*
X67154393Y23689638D01*
X67279176Y23680967D01*
X67403253Y23696806D01*
X67521856Y23736547D01*
X67630427Y23798664D01*
X67945936Y24026653D01*
X67983376Y24248015D01*
X67390047Y25082910D01*
X67373745Y25071325D01*
X67226607Y25278367D01*
X67242910Y25289953D01*
X66649581Y26124847D01*
X66428219Y26162288D01*
X66109151Y25939307D01*
X66014784Y25857203D01*
X65938249Y25758267D01*
X65882486Y25646300D01*
X65849638Y25525607D01*
X65840967Y25400824D01*
X65856806Y25276747D01*
X65881233Y25203847D01*
X63197056Y28984964D01*
X63385983Y28883981D01*
X63647056Y28804785D01*
X63918563Y28778045D01*
X64190070Y28804785D01*
X64451144Y28883981D01*
X64691750Y29012588D01*
X64849796Y29142293D01*
X65524797Y29817294D01*
X65577643Y29860664D01*
X65750719Y30071557D01*
X65847255Y30252163D01*
X65879326Y30312164D01*
X65952036Y30551858D01*
X65958522Y30573238D01*
X65978562Y30776708D01*
X65978562Y30776715D01*
X65985262Y30844744D01*
X65978562Y30912773D01*
X65978562Y32303411D01*
X65985262Y32371440D01*
X65978562Y32439469D01*
X65978562Y32439477D01*
X65964431Y32582947D01*
X65958522Y32642947D01*
X65879326Y32904020D01*
X65750718Y33144628D01*
X65621014Y33302673D01*
X65621011Y33302676D01*
X65577642Y33355521D01*
X65524798Y33398889D01*
X64562196Y34361492D01*
X64518827Y34414337D01*
X64465982Y34457706D01*
X64465980Y34457708D01*
X64430370Y34486932D01*
X64307934Y34587413D01*
X64148382Y34672695D01*
X64067327Y34716020D01*
X63806254Y34795216D01*
X63791521Y34796667D01*
X63602783Y34815256D01*
X63602775Y34815256D01*
X63534746Y34821956D01*
X63466717Y34815256D01*
X62216229Y34815256D01*
X62198640Y34835472D01*
X62099704Y34912007D01*
X62057208Y34933172D01*
X61925000Y35065380D01*
X61925000Y35436312D01*
X64263687Y37775000D01*
X65702569Y37775000D01*
X65705920Y37770917D01*
X65758759Y37727553D01*
X66882545Y36603768D01*
X66925918Y36550918D01*
X67136811Y36377842D01*
X67377418Y36249235D01*
X67638492Y36170039D01*
X67841962Y36149999D01*
X67841970Y36149999D01*
X67909999Y36143299D01*
X67978028Y36149999D01*
X68656549Y36149999D01*
X68645000Y36091939D01*
X68645000Y35888061D01*
X68684774Y35688102D01*
X68762795Y35499744D01*
X68876063Y35330226D01*
X68920000Y35286289D01*
X68920000Y34647323D01*
X68916324Y34610000D01*
X68920000Y34572677D01*
X68920000Y34572667D01*
X68930997Y34461014D01*
X68974454Y34317753D01*
X69045026Y34185724D01*
X69097835Y34121377D01*
X69093307Y34098615D01*
X69093307Y33894737D01*
X69133081Y33694778D01*
X69211102Y33506420D01*
X69324370Y33336902D01*
X69468533Y33192739D01*
X69638051Y33079471D01*
X69826409Y33001450D01*
X70026368Y32961676D01*
X70230246Y32961676D01*
X70430205Y33001450D01*
X70618563Y33079471D01*
X70788081Y33192739D01*
X70932244Y33336902D01*
X71045512Y33506420D01*
X71123533Y33694778D01*
X71163307Y33894737D01*
X71163307Y34098615D01*
X71123533Y34298574D01*
X71045512Y34486932D01*
X70932244Y34656450D01*
X70788081Y34800613D01*
X70618563Y34913881D01*
X70439999Y34987845D01*
X70439999Y35286288D01*
X70483937Y35330226D01*
X70597205Y35499744D01*
X70675226Y35688102D01*
X70715000Y35888061D01*
X70715000Y36091939D01*
X70675226Y36291898D01*
X70597205Y36480256D01*
X70507779Y36614092D01*
X71246236Y37352549D01*
X71299081Y37395918D01*
X71342451Y37448764D01*
X71342453Y37448766D01*
X71368120Y37480041D01*
X71472158Y37606811D01*
X71600765Y37847418D01*
X71679961Y38108492D01*
X71688310Y38193256D01*
X71847157Y38386812D01*
X71975764Y38627419D01*
X72054960Y38888493D01*
X72081701Y39160000D01*
X72054960Y39431507D01*
X71975764Y39692581D01*
X71847157Y39933188D01*
X71674081Y40144081D01*
X71463188Y40317157D01*
X71222581Y40445764D01*
X70961507Y40524960D01*
X70758037Y40545000D01*
X70698029Y40545000D01*
X70630000Y40551700D01*
X70561971Y40545000D01*
X70561963Y40545000D01*
X70358493Y40524960D01*
X70097419Y40445764D01*
X69856812Y40317157D01*
X69645919Y40144081D01*
X69606532Y40096089D01*
X69525077Y40177544D01*
X69310518Y40320907D01*
X69072113Y40419658D01*
X68819024Y40470000D01*
X68560976Y40470000D01*
X68307887Y40419658D01*
X68069482Y40320907D01*
X67887487Y40199303D01*
X67816185Y40286185D01*
X67719494Y40365537D01*
X67609180Y40424502D01*
X67489482Y40460812D01*
X67365000Y40473072D01*
X67132559Y40473072D01*
X66961507Y40524960D01*
X66758037Y40545000D01*
X66758036Y40545000D01*
X66690000Y40551701D01*
X66621963Y40545000D01*
X63488037Y40545000D01*
X63420000Y40551701D01*
X63351964Y40545000D01*
X63351963Y40545000D01*
X63148493Y40524960D01*
X62887419Y40445764D01*
X62646812Y40317157D01*
X62435919Y40144081D01*
X62262843Y39933188D01*
X62134236Y39692581D01*
X62077777Y39506460D01*
X61898319Y39327002D01*
X61821252Y39327002D01*
X61980000Y39485750D01*
X61983072Y39875000D01*
X61970812Y39999482D01*
X61934502Y40119180D01*
X61875537Y40229494D01*
X61796185Y40326185D01*
X61699494Y40405537D01*
X61589180Y40464502D01*
X61469482Y40500812D01*
X61345000Y40513072D01*
X60955750Y40510000D01*
X60797000Y40351250D01*
X60797000Y39327000D01*
X60543000Y39327000D01*
X60543000Y40351250D01*
X60384250Y40510000D01*
X59995000Y40513072D01*
X59870518Y40500812D01*
X59750820Y40464502D01*
X59640506Y40405537D01*
X59543815Y40326185D01*
X59464463Y40229494D01*
X59405498Y40119180D01*
X59369188Y39999482D01*
X59356928Y39875000D01*
X59360000Y39485750D01*
X59518750Y39327000D01*
X60543000Y39327000D01*
X60797000Y39327000D01*
X60817000Y39327000D01*
X60817000Y39321781D01*
X59002288Y39321781D01*
X58779307Y39640849D01*
X58697203Y39735216D01*
X58598267Y39811751D01*
X58486300Y39867514D01*
X58365607Y39900362D01*
X58240824Y39909033D01*
X58116747Y39893194D01*
X57998144Y39853453D01*
X57889573Y39791336D01*
X57574064Y39563347D01*
X57536624Y39341985D01*
X58129953Y38507090D01*
X58964847Y39100419D01*
X59002288Y39321781D01*
X60817000Y39321781D01*
X60817000Y39073000D01*
X60797000Y39073000D01*
X60797000Y39053000D01*
X60543000Y39053000D01*
X60543000Y39073000D01*
X59518750Y39073000D01*
X59360000Y38914250D01*
X59359257Y38820080D01*
X59333347Y38855936D01*
X59111985Y38893376D01*
X58277090Y38300047D01*
X58870419Y37465153D01*
X59091781Y37427712D01*
X59410849Y37650693D01*
X59505216Y37732797D01*
X59581751Y37831733D01*
X59637514Y37943700D01*
X59649955Y37989412D01*
X59750820Y37935498D01*
X59870518Y37899188D01*
X59995000Y37886928D01*
X60384250Y37890000D01*
X60542998Y38048748D01*
X60542998Y37971682D01*
X59608759Y37037443D01*
X59555920Y36994079D01*
X59512555Y36941239D01*
X59512548Y36941232D01*
X59382844Y36783187D01*
X59382842Y36783185D01*
X59254236Y36542579D01*
X59175040Y36281505D01*
X59155000Y36078035D01*
X59155000Y36078026D01*
X59148300Y36009999D01*
X59155000Y35941972D01*
X59155000Y34678882D01*
X57622237Y36838037D01*
X57713700Y36792486D01*
X57834393Y36759638D01*
X57959176Y36750967D01*
X58083253Y36766806D01*
X58201856Y36806547D01*
X58310427Y36868664D01*
X58625936Y37096653D01*
X58663376Y37318015D01*
X58070047Y38152910D01*
X58053745Y38141325D01*
X57906607Y38348367D01*
X57922910Y38359953D01*
X57329581Y39194847D01*
X57108219Y39232288D01*
X56789151Y39009307D01*
X56694784Y38927203D01*
X56618249Y38828267D01*
X56562486Y38716300D01*
X56529638Y38595607D01*
X56520967Y38470824D01*
X56533646Y38371502D01*
X55859999Y39320448D01*
X55860000Y40560000D01*
X75691910Y40560000D01*
X75640820Y40544502D01*
X75530506Y40485537D01*
X75433815Y40406185D01*
X75354463Y40309494D01*
X75295498Y40199180D01*
X75259188Y40079482D01*
X75246928Y39955000D01*
X75250000Y39565750D01*
X75408750Y39407000D01*
X76433000Y39407000D01*
X76433000Y39427000D01*
X76687000Y39427000D01*
X76687000Y39407000D01*
X77711250Y39407000D01*
X77870000Y39565750D01*
X77873072Y39955000D01*
X77860812Y40079482D01*
X77824502Y40199180D01*
X77765537Y40309494D01*
X77686185Y40406185D01*
X77589494Y40485537D01*
X77479180Y40544502D01*
X77428090Y40560000D01*
X81540000Y40560000D01*
X81540000Y39331985D01*
X79753376Y39331985D01*
X79715936Y39553347D01*
X79400427Y39781336D01*
X79291856Y39843453D01*
X79173253Y39883194D01*
X79049176Y39899033D01*
X78924393Y39890362D01*
X78803700Y39857514D01*
X78691733Y39801751D01*
X78592797Y39725216D01*
X78510693Y39630849D01*
X78287712Y39311781D01*
X78325153Y39090419D01*
X79160047Y38497090D01*
X79753376Y39331985D01*
X81540000Y39331985D01*
X81540000Y39320445D01*
X80929764Y38460824D01*
X80769033Y38460824D01*
X80760362Y38585607D01*
X80727514Y38706300D01*
X80671751Y38818267D01*
X80595216Y38917203D01*
X80500849Y38999307D01*
X80181781Y39222288D01*
X79960419Y39184847D01*
X79367090Y38349953D01*
X79451385Y38290047D01*
X79012910Y38290047D01*
X78178015Y38883376D01*
X77956653Y38845936D01*
X77872094Y38728917D01*
X77870000Y38994250D01*
X77711250Y39153000D01*
X76687000Y39153000D01*
X76687000Y38128750D01*
X76433000Y38128750D01*
X76433000Y39153000D01*
X75408750Y39153000D01*
X75250000Y38994250D01*
X75246928Y38605000D01*
X75259188Y38480518D01*
X75295498Y38360820D01*
X75354463Y38250506D01*
X75433815Y38153815D01*
X75530506Y38074463D01*
X75640820Y38015498D01*
X75760518Y37979188D01*
X75885000Y37966928D01*
X76274250Y37970000D01*
X76433000Y38128750D01*
X76687000Y38128750D01*
X76845750Y37970000D01*
X77235000Y37966928D01*
X77359482Y37979188D01*
X77479180Y38015498D01*
X77589494Y38074463D01*
X77616692Y38096784D01*
X77619638Y38054393D01*
X77652486Y37933700D01*
X77708249Y37821733D01*
X77784784Y37722797D01*
X77879151Y37640693D01*
X78198219Y37417712D01*
X78419581Y37455153D01*
X79012910Y38290047D01*
X79451385Y38290047D01*
X80201985Y37756624D01*
X80423347Y37794064D01*
X80651336Y38109573D01*
X80713453Y38218144D01*
X80753194Y38336747D01*
X80769033Y38460824D01*
X80929764Y38460824D01*
X80125739Y37328219D01*
X80092288Y37328219D01*
X80054847Y37549581D01*
X79219953Y38142910D01*
X78626624Y37308015D01*
X78664064Y37086653D01*
X78979573Y36858664D01*
X79088144Y36796547D01*
X79206747Y36756806D01*
X79330824Y36740967D01*
X79455607Y36749638D01*
X79576300Y36782486D01*
X79688267Y36838249D01*
X79787203Y36914784D01*
X79869307Y37009151D01*
X80092288Y37328219D01*
X80125739Y37328219D01*
X77297316Y33343910D01*
X77311756Y33387002D01*
X77327595Y33511079D01*
X77318925Y33635862D01*
X77286076Y33756556D01*
X77230313Y33868522D01*
X77153778Y33967458D01*
X77059411Y34049562D01*
X76875510Y34180254D01*
X76732643Y34354337D01*
X76521750Y34527413D01*
X76281143Y34656020D01*
X76150112Y34695768D01*
X75958989Y34831592D01*
X75850419Y34893708D01*
X75731816Y34933450D01*
X75607739Y34949289D01*
X75482956Y34940619D01*
X75362262Y34907770D01*
X75250296Y34852007D01*
X75151360Y34775472D01*
X75133771Y34755256D01*
X73883283Y34755256D01*
X73815254Y34761956D01*
X73747225Y34755256D01*
X73747217Y34755256D01*
X73543747Y34735216D01*
X73282673Y34656020D01*
X73042066Y34527413D01*
X72831173Y34354337D01*
X72787800Y34301487D01*
X71825202Y33338890D01*
X71772357Y33295521D01*
X71718119Y33229433D01*
X71633837Y33126734D01*
X71599281Y33084628D01*
X71470674Y32844021D01*
X71407291Y32635077D01*
X71391478Y32582948D01*
X71383212Y32499022D01*
X71371438Y32379477D01*
X71371438Y32379469D01*
X71364738Y32311440D01*
X71371438Y32243411D01*
X71371438Y30852773D01*
X71364738Y30784744D01*
X71371438Y30716715D01*
X71371438Y30716707D01*
X71391478Y30513237D01*
X71470674Y30252163D01*
X71599281Y30011556D01*
X71688727Y29902566D01*
X71728986Y29853511D01*
X71728988Y29853509D01*
X71772358Y29800663D01*
X71825203Y29757294D01*
X72500204Y29082293D01*
X72658249Y28952589D01*
X72898857Y28823981D01*
X73159930Y28744785D01*
X73431437Y28718045D01*
X73702944Y28744785D01*
X73964017Y28823981D01*
X74164880Y28931345D01*
X73648897Y28204495D01*
X70625000Y28204495D01*
X70625000Y28595505D01*
X70548718Y28979003D01*
X70399085Y29340250D01*
X70181851Y29665364D01*
X69905364Y29941851D01*
X69580250Y30159085D01*
X69219003Y30308718D01*
X68835505Y30385000D01*
X68444495Y30385000D01*
X68060997Y30308718D01*
X67699750Y30159085D01*
X67374636Y29941851D01*
X67098149Y29665364D01*
X66880915Y29340250D01*
X66731282Y28979003D01*
X66655000Y28595505D01*
X66655000Y28204495D01*
X66731282Y27820997D01*
X66880915Y27459750D01*
X67098149Y27134636D01*
X67374636Y26858149D01*
X67430222Y26821008D01*
X67318144Y26783453D01*
X67209573Y26721336D01*
X66894064Y26493347D01*
X66856624Y26271985D01*
X67449953Y25437090D01*
X68284847Y26030419D01*
X68322288Y26251781D01*
X68170075Y26469585D01*
X68444495Y26415000D01*
X68835505Y26415000D01*
X69219003Y26491282D01*
X69219090Y26491318D01*
X69037712Y26231781D01*
X69075153Y26010419D01*
X69910047Y25417090D01*
X70503376Y26251985D01*
X70465936Y26473347D01*
X70150427Y26701336D01*
X70041856Y26763453D01*
X69923253Y26803194D01*
X69839180Y26813926D01*
X69905364Y26858149D01*
X70181851Y27134636D01*
X70399085Y27459750D01*
X70548718Y27820997D01*
X70625000Y28204495D01*
X73648897Y28204495D01*
X71427441Y25075200D01*
X71463453Y25138144D01*
X71503194Y25256747D01*
X71519033Y25380824D01*
X71510362Y25505607D01*
X71477514Y25626300D01*
X71421751Y25738267D01*
X71345216Y25837203D01*
X71250849Y25919307D01*
X70931781Y26142288D01*
X70710419Y26104847D01*
X70117090Y25269953D01*
X70133393Y25258367D01*
X70099054Y25210047D01*
X69762910Y25210047D01*
X68928015Y25803376D01*
X68706653Y25765936D01*
X68687226Y25739051D01*
X68653347Y25785936D01*
X68431985Y25823376D01*
X67597090Y25230047D01*
X68190419Y24395153D01*
X68411781Y24357712D01*
X68665691Y24535157D01*
X68948219Y24337712D01*
X69169581Y24375153D01*
X69762910Y25210047D01*
X70099054Y25210047D01*
X69986255Y25051325D01*
X69969953Y25062910D01*
X69376624Y24228015D01*
X69414064Y24006653D01*
X69729573Y23778664D01*
X69838144Y23716547D01*
X69956747Y23676806D01*
X70080824Y23660967D01*
X70205607Y23669638D01*
X70326300Y23702486D01*
X70438267Y23758249D01*
X70537203Y23834784D01*
X70589781Y23895214D01*
X68939134Y21570000D01*
X68460865Y21570000D01*
X66858557Y23827120D01*
G37*
G04 #@! TD.AperFunction*
D17*
X39258557Y23827120D02*
X39321733Y23778249D01*
X39433700Y23722486D01*
X39554393Y23689638D01*
X39679176Y23680967D01*
X39803253Y23696806D01*
X39921856Y23736547D01*
X40030427Y23798664D01*
X40345936Y24026653D01*
X40383376Y24248015D01*
X39790047Y25082910D01*
X39773745Y25071325D01*
X39626607Y25278367D01*
X39642910Y25289953D01*
X39049581Y26124847D01*
X38828219Y26162288D01*
X38509151Y25939307D01*
X38414784Y25857203D01*
X38338249Y25758267D01*
X38282486Y25646300D01*
X38249638Y25525607D01*
X38240967Y25400824D01*
X38256806Y25276747D01*
X38281233Y25203847D01*
X35597056Y28984964D01*
X35785983Y28883981D01*
X36047056Y28804785D01*
X36318563Y28778045D01*
X36590070Y28804785D01*
X36851144Y28883981D01*
X37091750Y29012588D01*
X37249796Y29142293D01*
X37924797Y29817294D01*
X37977643Y29860664D01*
X38150719Y30071557D01*
X38247255Y30252163D01*
X38279326Y30312164D01*
X38352036Y30551858D01*
X38358522Y30573238D01*
X38378562Y30776708D01*
X38378562Y30776715D01*
X38385262Y30844744D01*
X38378562Y30912773D01*
X38378562Y32303411D01*
X38385262Y32371440D01*
X38378562Y32439469D01*
X38378562Y32439477D01*
X38364431Y32582947D01*
X38358522Y32642947D01*
X38279326Y32904020D01*
X38150718Y33144628D01*
X38021014Y33302673D01*
X38021011Y33302676D01*
X37977642Y33355521D01*
X37924798Y33398889D01*
X36962196Y34361492D01*
X36918827Y34414337D01*
X36865982Y34457706D01*
X36865980Y34457708D01*
X36830370Y34486932D01*
X36707934Y34587413D01*
X36548382Y34672695D01*
X36467327Y34716020D01*
X36206254Y34795216D01*
X36191521Y34796667D01*
X36002783Y34815256D01*
X36002775Y34815256D01*
X35934746Y34821956D01*
X35866717Y34815256D01*
X34616229Y34815256D01*
X34598640Y34835472D01*
X34499704Y34912007D01*
X34457208Y34933172D01*
X34325000Y35065380D01*
X34325000Y35436312D01*
X36663687Y37775000D01*
X38102569Y37775000D01*
X38105920Y37770917D01*
X38158759Y37727553D01*
X39282545Y36603768D01*
X39325918Y36550918D01*
X39536811Y36377842D01*
X39777418Y36249235D01*
X40038492Y36170039D01*
X40241962Y36149999D01*
X40241970Y36149999D01*
X40309999Y36143299D01*
X40378028Y36149999D01*
X41056549Y36149999D01*
X41045000Y36091939D01*
X41045000Y35888061D01*
X41084774Y35688102D01*
X41162795Y35499744D01*
X41276063Y35330226D01*
X41320000Y35286289D01*
X41320000Y34647323D01*
X41316324Y34610000D01*
X41320000Y34572677D01*
X41320000Y34572667D01*
X41330997Y34461014D01*
X41374454Y34317753D01*
X41445026Y34185724D01*
X41497835Y34121377D01*
X41493307Y34098615D01*
X41493307Y33894737D01*
X41533081Y33694778D01*
X41611102Y33506420D01*
X41724370Y33336902D01*
X41868533Y33192739D01*
X42038051Y33079471D01*
X42226409Y33001450D01*
X42426368Y32961676D01*
X42630246Y32961676D01*
X42830205Y33001450D01*
X43018563Y33079471D01*
X43188081Y33192739D01*
X43332244Y33336902D01*
X43445512Y33506420D01*
X43523533Y33694778D01*
X43563307Y33894737D01*
X43563307Y34098615D01*
X43523533Y34298574D01*
X43445512Y34486932D01*
X43332244Y34656450D01*
X43188081Y34800613D01*
X43018563Y34913881D01*
X42839999Y34987845D01*
X42839999Y35286288D01*
X42883937Y35330226D01*
X42997205Y35499744D01*
X43075226Y35688102D01*
X43115000Y35888061D01*
X43115000Y36091939D01*
X43075226Y36291898D01*
X42997205Y36480256D01*
X42907779Y36614092D01*
X43646236Y37352549D01*
X43699081Y37395918D01*
X43742451Y37448764D01*
X43742453Y37448766D01*
X43768120Y37480041D01*
X43872158Y37606811D01*
X44000765Y37847418D01*
X44079961Y38108492D01*
X44088310Y38193256D01*
X44247157Y38386812D01*
X44375764Y38627419D01*
X44454960Y38888493D01*
X44481701Y39160000D01*
X44454960Y39431507D01*
X44375764Y39692581D01*
X44247157Y39933188D01*
X44074081Y40144081D01*
X43863188Y40317157D01*
X43622581Y40445764D01*
X43361507Y40524960D01*
X43158037Y40545000D01*
X43098029Y40545000D01*
X43030000Y40551700D01*
X42961971Y40545000D01*
X42961963Y40545000D01*
X42758493Y40524960D01*
X42497419Y40445764D01*
X42256812Y40317157D01*
X42045919Y40144081D01*
X42006532Y40096089D01*
X41925077Y40177544D01*
X41710518Y40320907D01*
X41472113Y40419658D01*
X41219024Y40470000D01*
X40960976Y40470000D01*
X40707887Y40419658D01*
X40469482Y40320907D01*
X40287487Y40199303D01*
X40216185Y40286185D01*
X40119494Y40365537D01*
X40009180Y40424502D01*
X39889482Y40460812D01*
X39765000Y40473072D01*
X39532559Y40473072D01*
X39361507Y40524960D01*
X39158037Y40545000D01*
X39158036Y40545000D01*
X39090000Y40551701D01*
X39021963Y40545000D01*
X35888037Y40545000D01*
X35820000Y40551701D01*
X35751964Y40545000D01*
X35751963Y40545000D01*
X35548493Y40524960D01*
X35287419Y40445764D01*
X35046812Y40317157D01*
X34835919Y40144081D01*
X34662843Y39933188D01*
X34534236Y39692581D01*
X34477777Y39506460D01*
X34298319Y39327002D01*
X34221252Y39327002D01*
X34380000Y39485750D01*
X34383072Y39875000D01*
X34370812Y39999482D01*
X34334502Y40119180D01*
X34275537Y40229494D01*
X34196185Y40326185D01*
X34099494Y40405537D01*
X33989180Y40464502D01*
X33869482Y40500812D01*
X33745000Y40513072D01*
X33355750Y40510000D01*
X33197000Y40351250D01*
X33197000Y39327000D01*
X32943000Y39327000D01*
X32943000Y40351250D01*
X32784250Y40510000D01*
X32395000Y40513072D01*
X32270518Y40500812D01*
X32150820Y40464502D01*
X32040506Y40405537D01*
X31943815Y40326185D01*
X31864463Y40229494D01*
X31805498Y40119180D01*
X31769188Y39999482D01*
X31756928Y39875000D01*
X31760000Y39485750D01*
X31918750Y39327000D01*
X32943000Y39327000D01*
X33197000Y39327000D01*
X33217000Y39327000D01*
X33217000Y39321781D01*
X31402288Y39321781D01*
X31179307Y39640849D01*
X31097203Y39735216D01*
X30998267Y39811751D01*
X30886300Y39867514D01*
X30765607Y39900362D01*
X30640824Y39909033D01*
X30516747Y39893194D01*
X30398144Y39853453D01*
X30289573Y39791336D01*
X29974064Y39563347D01*
X29936624Y39341985D01*
X30529953Y38507090D01*
X31364847Y39100419D01*
X31402288Y39321781D01*
X33217000Y39321781D01*
X33217000Y39073000D01*
X33197000Y39073000D01*
X33197000Y39053000D01*
X32943000Y39053000D01*
X32943000Y39073000D01*
X31918750Y39073000D01*
X31760000Y38914250D01*
X31759257Y38820080D01*
X31733347Y38855936D01*
X31511985Y38893376D01*
X30677090Y38300047D01*
X31270419Y37465153D01*
X31491781Y37427712D01*
X31810849Y37650693D01*
X31905216Y37732797D01*
X31981751Y37831733D01*
X32037514Y37943700D01*
X32049955Y37989412D01*
X32150820Y37935498D01*
X32270518Y37899188D01*
X32395000Y37886928D01*
X32784250Y37890000D01*
X32942998Y38048748D01*
X32942998Y37971682D01*
X32008759Y37037443D01*
X31955920Y36994079D01*
X31912555Y36941239D01*
X31912548Y36941232D01*
X31782844Y36783187D01*
X31782842Y36783185D01*
X31654236Y36542579D01*
X31575040Y36281505D01*
X31555000Y36078035D01*
X31555000Y36078026D01*
X31548300Y36009999D01*
X31555000Y35941972D01*
X31555000Y34678882D01*
X30022237Y36838037D01*
X30113700Y36792486D01*
X30234393Y36759638D01*
X30359176Y36750967D01*
X30483253Y36766806D01*
X30601856Y36806547D01*
X30710427Y36868664D01*
X31025936Y37096653D01*
X31063376Y37318015D01*
X30470047Y38152910D01*
X30453745Y38141325D01*
X30306607Y38348367D01*
X30322910Y38359953D01*
X29729581Y39194847D01*
X29508219Y39232288D01*
X29189151Y39009307D01*
X29094784Y38927203D01*
X29018249Y38828267D01*
X28962486Y38716300D01*
X28929638Y38595607D01*
X28920967Y38470824D01*
X28933646Y38371502D01*
X28259999Y39320448D01*
X28260000Y40560000D01*
X48091910Y40560000D01*
X48040820Y40544502D01*
X47930506Y40485537D01*
X47833815Y40406185D01*
X47754463Y40309494D01*
X47695498Y40199180D01*
X47659188Y40079482D01*
X47646928Y39955000D01*
X47650000Y39565750D01*
X47808750Y39407000D01*
X48833000Y39407000D01*
X48833000Y39427000D01*
X49087000Y39427000D01*
X49087000Y39407000D01*
X50111250Y39407000D01*
X50270000Y39565750D01*
X50273072Y39955000D01*
X50260812Y40079482D01*
X50224502Y40199180D01*
X50165537Y40309494D01*
X50086185Y40406185D01*
X49989494Y40485537D01*
X49879180Y40544502D01*
X49828090Y40560000D01*
X53940000Y40560000D01*
X53940000Y39331985D01*
X52153376Y39331985D01*
X52115936Y39553347D01*
X51800427Y39781336D01*
X51691856Y39843453D01*
X51573253Y39883194D01*
X51449176Y39899033D01*
X51324393Y39890362D01*
X51203700Y39857514D01*
X51091733Y39801751D01*
X50992797Y39725216D01*
X50910693Y39630849D01*
X50687712Y39311781D01*
X50725153Y39090419D01*
X51560047Y38497090D01*
X52153376Y39331985D01*
X53940000Y39331985D01*
X53940000Y39320445D01*
X53329764Y38460824D01*
X53169033Y38460824D01*
X53160362Y38585607D01*
X53127514Y38706300D01*
X53071751Y38818267D01*
X52995216Y38917203D01*
X52900849Y38999307D01*
X52581781Y39222288D01*
X52360419Y39184847D01*
X51767090Y38349953D01*
X51851385Y38290047D01*
X51412910Y38290047D01*
X50578015Y38883376D01*
X50356653Y38845936D01*
X50272094Y38728917D01*
X50270000Y38994250D01*
X50111250Y39153000D01*
X49087000Y39153000D01*
X49087000Y38128750D01*
X48833000Y38128750D01*
X48833000Y39153000D01*
X47808750Y39153000D01*
X47650000Y38994250D01*
X47646928Y38605000D01*
X47659188Y38480518D01*
X47695498Y38360820D01*
X47754463Y38250506D01*
X47833815Y38153815D01*
X47930506Y38074463D01*
X48040820Y38015498D01*
X48160518Y37979188D01*
X48285000Y37966928D01*
X48674250Y37970000D01*
X48833000Y38128750D01*
X49087000Y38128750D01*
X49245750Y37970000D01*
X49635000Y37966928D01*
X49759482Y37979188D01*
X49879180Y38015498D01*
X49989494Y38074463D01*
X50016692Y38096784D01*
X50019638Y38054393D01*
X50052486Y37933700D01*
X50108249Y37821733D01*
X50184784Y37722797D01*
X50279151Y37640693D01*
X50598219Y37417712D01*
X50819581Y37455153D01*
X51412910Y38290047D01*
X51851385Y38290047D01*
X52601985Y37756624D01*
X52823347Y37794064D01*
X53051336Y38109573D01*
X53113453Y38218144D01*
X53153194Y38336747D01*
X53169033Y38460824D01*
X53329764Y38460824D01*
X52525739Y37328219D01*
X52492288Y37328219D01*
X52454847Y37549581D01*
X51619953Y38142910D01*
X51026624Y37308015D01*
X51064064Y37086653D01*
X51379573Y36858664D01*
X51488144Y36796547D01*
X51606747Y36756806D01*
X51730824Y36740967D01*
X51855607Y36749638D01*
X51976300Y36782486D01*
X52088267Y36838249D01*
X52187203Y36914784D01*
X52269307Y37009151D01*
X52492288Y37328219D01*
X52525739Y37328219D01*
X49697316Y33343910D01*
X49711756Y33387002D01*
X49727595Y33511079D01*
X49718925Y33635862D01*
X49686076Y33756556D01*
X49630313Y33868522D01*
X49553778Y33967458D01*
X49459411Y34049562D01*
X49275510Y34180254D01*
X49132643Y34354337D01*
X48921750Y34527413D01*
X48681143Y34656020D01*
X48550112Y34695768D01*
X48358989Y34831592D01*
X48250419Y34893708D01*
X48131816Y34933450D01*
X48007739Y34949289D01*
X47882956Y34940619D01*
X47762262Y34907770D01*
X47650296Y34852007D01*
X47551360Y34775472D01*
X47533771Y34755256D01*
X46283283Y34755256D01*
X46215254Y34761956D01*
X46147225Y34755256D01*
X46147217Y34755256D01*
X45943747Y34735216D01*
X45682673Y34656020D01*
X45442066Y34527413D01*
X45231173Y34354337D01*
X45187800Y34301487D01*
X44225202Y33338890D01*
X44172357Y33295521D01*
X44118119Y33229433D01*
X44033837Y33126734D01*
X43999281Y33084628D01*
X43870674Y32844021D01*
X43807291Y32635077D01*
X43791478Y32582948D01*
X43783212Y32499022D01*
X43771438Y32379477D01*
X43771438Y32379469D01*
X43764738Y32311440D01*
X43771438Y32243411D01*
X43771438Y30852773D01*
X43764738Y30784744D01*
X43771438Y30716715D01*
X43771438Y30716707D01*
X43791478Y30513237D01*
X43870674Y30252163D01*
X43999281Y30011556D01*
X44088727Y29902566D01*
X44128986Y29853511D01*
X44128988Y29853509D01*
X44172358Y29800663D01*
X44225203Y29757294D01*
X44900204Y29082293D01*
X45058249Y28952589D01*
X45298857Y28823981D01*
X45559930Y28744785D01*
X45831437Y28718045D01*
X46102944Y28744785D01*
X46364017Y28823981D01*
X46564880Y28931345D01*
X46048897Y28204495D01*
X43025000Y28204495D01*
X43025000Y28595505D01*
X42948718Y28979003D01*
X42799085Y29340250D01*
X42581851Y29665364D01*
X42305364Y29941851D01*
X41980250Y30159085D01*
X41619003Y30308718D01*
X41235505Y30385000D01*
X40844495Y30385000D01*
X40460997Y30308718D01*
X40099750Y30159085D01*
X39774636Y29941851D01*
X39498149Y29665364D01*
X39280915Y29340250D01*
X39131282Y28979003D01*
X39055000Y28595505D01*
X39055000Y28204495D01*
X39131282Y27820997D01*
X39280915Y27459750D01*
X39498149Y27134636D01*
X39774636Y26858149D01*
X39830222Y26821008D01*
X39718144Y26783453D01*
X39609573Y26721336D01*
X39294064Y26493347D01*
X39256624Y26271985D01*
X39849953Y25437090D01*
X40684847Y26030419D01*
X40722288Y26251781D01*
X40570075Y26469585D01*
X40844495Y26415000D01*
X41235505Y26415000D01*
X41619003Y26491282D01*
X41619090Y26491318D01*
X41437712Y26231781D01*
X41475153Y26010419D01*
X42310047Y25417090D01*
X42903376Y26251985D01*
X42865936Y26473347D01*
X42550427Y26701336D01*
X42441856Y26763453D01*
X42323253Y26803194D01*
X42239180Y26813926D01*
X42305364Y26858149D01*
X42581851Y27134636D01*
X42799085Y27459750D01*
X42948718Y27820997D01*
X43025000Y28204495D01*
X46048897Y28204495D01*
X43827441Y25075200D01*
X43863453Y25138144D01*
X43903194Y25256747D01*
X43919033Y25380824D01*
X43910362Y25505607D01*
X43877514Y25626300D01*
X43821751Y25738267D01*
X43745216Y25837203D01*
X43650849Y25919307D01*
X43331781Y26142288D01*
X43110419Y26104847D01*
X42517090Y25269953D01*
X42533393Y25258367D01*
X42499054Y25210047D01*
X42162910Y25210047D01*
X41328015Y25803376D01*
X41106653Y25765936D01*
X41087226Y25739051D01*
X41053347Y25785936D01*
X40831985Y25823376D01*
X39997090Y25230047D01*
X40590419Y24395153D01*
X40811781Y24357712D01*
X41065691Y24535157D01*
X41348219Y24337712D01*
X41569581Y24375153D01*
X42162910Y25210047D01*
X42499054Y25210047D01*
X42386255Y25051325D01*
X42369953Y25062910D01*
X41776624Y24228015D01*
X41814064Y24006653D01*
X42129573Y23778664D01*
X42238144Y23716547D01*
X42356747Y23676806D01*
X42480824Y23660967D01*
X42605607Y23669638D01*
X42726300Y23702486D01*
X42838267Y23758249D01*
X42937203Y23834784D01*
X42989781Y23895214D01*
X41339134Y21570000D01*
X40860865Y21570000D01*
X39258557Y23827120D01*
G04 #@! TA.AperFunction,Conductor*
D18*
G36*
X39258557Y23827120D02*
G01*
X39321733Y23778249D01*
X39433700Y23722486D01*
X39554393Y23689638D01*
X39679176Y23680967D01*
X39803253Y23696806D01*
X39921856Y23736547D01*
X40030427Y23798664D01*
X40345936Y24026653D01*
X40383376Y24248015D01*
X39790047Y25082910D01*
X39773745Y25071325D01*
X39626607Y25278367D01*
X39642910Y25289953D01*
X39049581Y26124847D01*
X38828219Y26162288D01*
X38509151Y25939307D01*
X38414784Y25857203D01*
X38338249Y25758267D01*
X38282486Y25646300D01*
X38249638Y25525607D01*
X38240967Y25400824D01*
X38256806Y25276747D01*
X38281233Y25203847D01*
X35597056Y28984964D01*
X35785983Y28883981D01*
X36047056Y28804785D01*
X36318563Y28778045D01*
X36590070Y28804785D01*
X36851144Y28883981D01*
X37091750Y29012588D01*
X37249796Y29142293D01*
X37924797Y29817294D01*
X37977643Y29860664D01*
X38150719Y30071557D01*
X38247255Y30252163D01*
X38279326Y30312164D01*
X38352036Y30551858D01*
X38358522Y30573238D01*
X38378562Y30776708D01*
X38378562Y30776715D01*
X38385262Y30844744D01*
X38378562Y30912773D01*
X38378562Y32303411D01*
X38385262Y32371440D01*
X38378562Y32439469D01*
X38378562Y32439477D01*
X38364431Y32582947D01*
X38358522Y32642947D01*
X38279326Y32904020D01*
X38150718Y33144628D01*
X38021014Y33302673D01*
X38021011Y33302676D01*
X37977642Y33355521D01*
X37924798Y33398889D01*
X36962196Y34361492D01*
X36918827Y34414337D01*
X36865982Y34457706D01*
X36865980Y34457708D01*
X36830370Y34486932D01*
X36707934Y34587413D01*
X36548382Y34672695D01*
X36467327Y34716020D01*
X36206254Y34795216D01*
X36191521Y34796667D01*
X36002783Y34815256D01*
X36002775Y34815256D01*
X35934746Y34821956D01*
X35866717Y34815256D01*
X34616229Y34815256D01*
X34598640Y34835472D01*
X34499704Y34912007D01*
X34457208Y34933172D01*
X34325000Y35065380D01*
X34325000Y35436312D01*
X36663687Y37775000D01*
X38102569Y37775000D01*
X38105920Y37770917D01*
X38158759Y37727553D01*
X39282545Y36603768D01*
X39325918Y36550918D01*
X39536811Y36377842D01*
X39777418Y36249235D01*
X40038492Y36170039D01*
X40241962Y36149999D01*
X40241970Y36149999D01*
X40309999Y36143299D01*
X40378028Y36149999D01*
X41056549Y36149999D01*
X41045000Y36091939D01*
X41045000Y35888061D01*
X41084774Y35688102D01*
X41162795Y35499744D01*
X41276063Y35330226D01*
X41320000Y35286289D01*
X41320000Y34647323D01*
X41316324Y34610000D01*
X41320000Y34572677D01*
X41320000Y34572667D01*
X41330997Y34461014D01*
X41374454Y34317753D01*
X41445026Y34185724D01*
X41497835Y34121377D01*
X41493307Y34098615D01*
X41493307Y33894737D01*
X41533081Y33694778D01*
X41611102Y33506420D01*
X41724370Y33336902D01*
X41868533Y33192739D01*
X42038051Y33079471D01*
X42226409Y33001450D01*
X42426368Y32961676D01*
X42630246Y32961676D01*
X42830205Y33001450D01*
X43018563Y33079471D01*
X43188081Y33192739D01*
X43332244Y33336902D01*
X43445512Y33506420D01*
X43523533Y33694778D01*
X43563307Y33894737D01*
X43563307Y34098615D01*
X43523533Y34298574D01*
X43445512Y34486932D01*
X43332244Y34656450D01*
X43188081Y34800613D01*
X43018563Y34913881D01*
X42839999Y34987845D01*
X42839999Y35286288D01*
X42883937Y35330226D01*
X42997205Y35499744D01*
X43075226Y35688102D01*
X43115000Y35888061D01*
X43115000Y36091939D01*
X43075226Y36291898D01*
X42997205Y36480256D01*
X42907779Y36614092D01*
X43646236Y37352549D01*
X43699081Y37395918D01*
X43742451Y37448764D01*
X43742453Y37448766D01*
X43768120Y37480041D01*
X43872158Y37606811D01*
X44000765Y37847418D01*
X44079961Y38108492D01*
X44088310Y38193256D01*
X44247157Y38386812D01*
X44375764Y38627419D01*
X44454960Y38888493D01*
X44481701Y39160000D01*
X44454960Y39431507D01*
X44375764Y39692581D01*
X44247157Y39933188D01*
X44074081Y40144081D01*
X43863188Y40317157D01*
X43622581Y40445764D01*
X43361507Y40524960D01*
X43158037Y40545000D01*
X43098029Y40545000D01*
X43030000Y40551700D01*
X42961971Y40545000D01*
X42961963Y40545000D01*
X42758493Y40524960D01*
X42497419Y40445764D01*
X42256812Y40317157D01*
X42045919Y40144081D01*
X42006532Y40096089D01*
X41925077Y40177544D01*
X41710518Y40320907D01*
X41472113Y40419658D01*
X41219024Y40470000D01*
X40960976Y40470000D01*
X40707887Y40419658D01*
X40469482Y40320907D01*
X40287487Y40199303D01*
X40216185Y40286185D01*
X40119494Y40365537D01*
X40009180Y40424502D01*
X39889482Y40460812D01*
X39765000Y40473072D01*
X39532559Y40473072D01*
X39361507Y40524960D01*
X39158037Y40545000D01*
X39158036Y40545000D01*
X39090000Y40551701D01*
X39021963Y40545000D01*
X35888037Y40545000D01*
X35820000Y40551701D01*
X35751964Y40545000D01*
X35751963Y40545000D01*
X35548493Y40524960D01*
X35287419Y40445764D01*
X35046812Y40317157D01*
X34835919Y40144081D01*
X34662843Y39933188D01*
X34534236Y39692581D01*
X34477777Y39506460D01*
X34298319Y39327002D01*
X34221252Y39327002D01*
X34380000Y39485750D01*
X34383072Y39875000D01*
X34370812Y39999482D01*
X34334502Y40119180D01*
X34275537Y40229494D01*
X34196185Y40326185D01*
X34099494Y40405537D01*
X33989180Y40464502D01*
X33869482Y40500812D01*
X33745000Y40513072D01*
X33355750Y40510000D01*
X33197000Y40351250D01*
X33197000Y39327000D01*
X32943000Y39327000D01*
X32943000Y40351250D01*
X32784250Y40510000D01*
X32395000Y40513072D01*
X32270518Y40500812D01*
X32150820Y40464502D01*
X32040506Y40405537D01*
X31943815Y40326185D01*
X31864463Y40229494D01*
X31805498Y40119180D01*
X31769188Y39999482D01*
X31756928Y39875000D01*
X31760000Y39485750D01*
X31918750Y39327000D01*
X32943000Y39327000D01*
X33197000Y39327000D01*
X33217000Y39327000D01*
X33217000Y39321781D01*
X31402288Y39321781D01*
X31179307Y39640849D01*
X31097203Y39735216D01*
X30998267Y39811751D01*
X30886300Y39867514D01*
X30765607Y39900362D01*
X30640824Y39909033D01*
X30516747Y39893194D01*
X30398144Y39853453D01*
X30289573Y39791336D01*
X29974064Y39563347D01*
X29936624Y39341985D01*
X30529953Y38507090D01*
X31364847Y39100419D01*
X31402288Y39321781D01*
X33217000Y39321781D01*
X33217000Y39073000D01*
X33197000Y39073000D01*
X33197000Y39053000D01*
X32943000Y39053000D01*
X32943000Y39073000D01*
X31918750Y39073000D01*
X31760000Y38914250D01*
X31759257Y38820080D01*
X31733347Y38855936D01*
X31511985Y38893376D01*
X30677090Y38300047D01*
X31270419Y37465153D01*
X31491781Y37427712D01*
X31810849Y37650693D01*
X31905216Y37732797D01*
X31981751Y37831733D01*
X32037514Y37943700D01*
X32049955Y37989412D01*
X32150820Y37935498D01*
X32270518Y37899188D01*
X32395000Y37886928D01*
X32784250Y37890000D01*
X32942998Y38048748D01*
X32942998Y37971682D01*
X32008759Y37037443D01*
X31955920Y36994079D01*
X31912555Y36941239D01*
X31912548Y36941232D01*
X31782844Y36783187D01*
X31782842Y36783185D01*
X31654236Y36542579D01*
X31575040Y36281505D01*
X31555000Y36078035D01*
X31555000Y36078026D01*
X31548300Y36009999D01*
X31555000Y35941972D01*
X31555000Y34678882D01*
X30022237Y36838037D01*
X30113700Y36792486D01*
X30234393Y36759638D01*
X30359176Y36750967D01*
X30483253Y36766806D01*
X30601856Y36806547D01*
X30710427Y36868664D01*
X31025936Y37096653D01*
X31063376Y37318015D01*
X30470047Y38152910D01*
X30453745Y38141325D01*
X30306607Y38348367D01*
X30322910Y38359953D01*
X29729581Y39194847D01*
X29508219Y39232288D01*
X29189151Y39009307D01*
X29094784Y38927203D01*
X29018249Y38828267D01*
X28962486Y38716300D01*
X28929638Y38595607D01*
X28920967Y38470824D01*
X28933646Y38371502D01*
X28259999Y39320448D01*
X28260000Y40560000D01*
X48091910Y40560000D01*
X48040820Y40544502D01*
X47930506Y40485537D01*
X47833815Y40406185D01*
X47754463Y40309494D01*
X47695498Y40199180D01*
X47659188Y40079482D01*
X47646928Y39955000D01*
X47650000Y39565750D01*
X47808750Y39407000D01*
X48833000Y39407000D01*
X48833000Y39427000D01*
X49087000Y39427000D01*
X49087000Y39407000D01*
X50111250Y39407000D01*
X50270000Y39565750D01*
X50273072Y39955000D01*
X50260812Y40079482D01*
X50224502Y40199180D01*
X50165537Y40309494D01*
X50086185Y40406185D01*
X49989494Y40485537D01*
X49879180Y40544502D01*
X49828090Y40560000D01*
X53940000Y40560000D01*
X53940000Y39331985D01*
X52153376Y39331985D01*
X52115936Y39553347D01*
X51800427Y39781336D01*
X51691856Y39843453D01*
X51573253Y39883194D01*
X51449176Y39899033D01*
X51324393Y39890362D01*
X51203700Y39857514D01*
X51091733Y39801751D01*
X50992797Y39725216D01*
X50910693Y39630849D01*
X50687712Y39311781D01*
X50725153Y39090419D01*
X51560047Y38497090D01*
X52153376Y39331985D01*
X53940000Y39331985D01*
X53940000Y39320445D01*
X53329764Y38460824D01*
X53169033Y38460824D01*
X53160362Y38585607D01*
X53127514Y38706300D01*
X53071751Y38818267D01*
X52995216Y38917203D01*
X52900849Y38999307D01*
X52581781Y39222288D01*
X52360419Y39184847D01*
X51767090Y38349953D01*
X51851385Y38290047D01*
X51412910Y38290047D01*
X50578015Y38883376D01*
X50356653Y38845936D01*
X50272094Y38728917D01*
X50270000Y38994250D01*
X50111250Y39153000D01*
X49087000Y39153000D01*
X49087000Y38128750D01*
X48833000Y38128750D01*
X48833000Y39153000D01*
X47808750Y39153000D01*
X47650000Y38994250D01*
X47646928Y38605000D01*
X47659188Y38480518D01*
X47695498Y38360820D01*
X47754463Y38250506D01*
X47833815Y38153815D01*
X47930506Y38074463D01*
X48040820Y38015498D01*
X48160518Y37979188D01*
X48285000Y37966928D01*
X48674250Y37970000D01*
X48833000Y38128750D01*
X49087000Y38128750D01*
X49245750Y37970000D01*
X49635000Y37966928D01*
X49759482Y37979188D01*
X49879180Y38015498D01*
X49989494Y38074463D01*
X50016692Y38096784D01*
X50019638Y38054393D01*
X50052486Y37933700D01*
X50108249Y37821733D01*
X50184784Y37722797D01*
X50279151Y37640693D01*
X50598219Y37417712D01*
X50819581Y37455153D01*
X51412910Y38290047D01*
X51851385Y38290047D01*
X52601985Y37756624D01*
X52823347Y37794064D01*
X53051336Y38109573D01*
X53113453Y38218144D01*
X53153194Y38336747D01*
X53169033Y38460824D01*
X53329764Y38460824D01*
X52525739Y37328219D01*
X52492288Y37328219D01*
X52454847Y37549581D01*
X51619953Y38142910D01*
X51026624Y37308015D01*
X51064064Y37086653D01*
X51379573Y36858664D01*
X51488144Y36796547D01*
X51606747Y36756806D01*
X51730824Y36740967D01*
X51855607Y36749638D01*
X51976300Y36782486D01*
X52088267Y36838249D01*
X52187203Y36914784D01*
X52269307Y37009151D01*
X52492288Y37328219D01*
X52525739Y37328219D01*
X49697316Y33343910D01*
X49711756Y33387002D01*
X49727595Y33511079D01*
X49718925Y33635862D01*
X49686076Y33756556D01*
X49630313Y33868522D01*
X49553778Y33967458D01*
X49459411Y34049562D01*
X49275510Y34180254D01*
X49132643Y34354337D01*
X48921750Y34527413D01*
X48681143Y34656020D01*
X48550112Y34695768D01*
X48358989Y34831592D01*
X48250419Y34893708D01*
X48131816Y34933450D01*
X48007739Y34949289D01*
X47882956Y34940619D01*
X47762262Y34907770D01*
X47650296Y34852007D01*
X47551360Y34775472D01*
X47533771Y34755256D01*
X46283283Y34755256D01*
X46215254Y34761956D01*
X46147225Y34755256D01*
X46147217Y34755256D01*
X45943747Y34735216D01*
X45682673Y34656020D01*
X45442066Y34527413D01*
X45231173Y34354337D01*
X45187800Y34301487D01*
X44225202Y33338890D01*
X44172357Y33295521D01*
X44118119Y33229433D01*
X44033837Y33126734D01*
X43999281Y33084628D01*
X43870674Y32844021D01*
X43807291Y32635077D01*
X43791478Y32582948D01*
X43783212Y32499022D01*
X43771438Y32379477D01*
X43771438Y32379469D01*
X43764738Y32311440D01*
X43771438Y32243411D01*
X43771438Y30852773D01*
X43764738Y30784744D01*
X43771438Y30716715D01*
X43771438Y30716707D01*
X43791478Y30513237D01*
X43870674Y30252163D01*
X43999281Y30011556D01*
X44088727Y29902566D01*
X44128986Y29853511D01*
X44128988Y29853509D01*
X44172358Y29800663D01*
X44225203Y29757294D01*
X44900204Y29082293D01*
X45058249Y28952589D01*
X45298857Y28823981D01*
X45559930Y28744785D01*
X45831437Y28718045D01*
X46102944Y28744785D01*
X46364017Y28823981D01*
X46564880Y28931345D01*
X46048897Y28204495D01*
X43025000Y28204495D01*
X43025000Y28595505D01*
X42948718Y28979003D01*
X42799085Y29340250D01*
X42581851Y29665364D01*
X42305364Y29941851D01*
X41980250Y30159085D01*
X41619003Y30308718D01*
X41235505Y30385000D01*
X40844495Y30385000D01*
X40460997Y30308718D01*
X40099750Y30159085D01*
X39774636Y29941851D01*
X39498149Y29665364D01*
X39280915Y29340250D01*
X39131282Y28979003D01*
X39055000Y28595505D01*
X39055000Y28204495D01*
X39131282Y27820997D01*
X39280915Y27459750D01*
X39498149Y27134636D01*
X39774636Y26858149D01*
X39830222Y26821008D01*
X39718144Y26783453D01*
X39609573Y26721336D01*
X39294064Y26493347D01*
X39256624Y26271985D01*
X39849953Y25437090D01*
X40684847Y26030419D01*
X40722288Y26251781D01*
X40570075Y26469585D01*
X40844495Y26415000D01*
X41235505Y26415000D01*
X41619003Y26491282D01*
X41619090Y26491318D01*
X41437712Y26231781D01*
X41475153Y26010419D01*
X42310047Y25417090D01*
X42903376Y26251985D01*
X42865936Y26473347D01*
X42550427Y26701336D01*
X42441856Y26763453D01*
X42323253Y26803194D01*
X42239180Y26813926D01*
X42305364Y26858149D01*
X42581851Y27134636D01*
X42799085Y27459750D01*
X42948718Y27820997D01*
X43025000Y28204495D01*
X46048897Y28204495D01*
X43827441Y25075200D01*
X43863453Y25138144D01*
X43903194Y25256747D01*
X43919033Y25380824D01*
X43910362Y25505607D01*
X43877514Y25626300D01*
X43821751Y25738267D01*
X43745216Y25837203D01*
X43650849Y25919307D01*
X43331781Y26142288D01*
X43110419Y26104847D01*
X42517090Y25269953D01*
X42533393Y25258367D01*
X42499054Y25210047D01*
X42162910Y25210047D01*
X41328015Y25803376D01*
X41106653Y25765936D01*
X41087226Y25739051D01*
X41053347Y25785936D01*
X40831985Y25823376D01*
X39997090Y25230047D01*
X40590419Y24395153D01*
X40811781Y24357712D01*
X41065691Y24535157D01*
X41348219Y24337712D01*
X41569581Y24375153D01*
X42162910Y25210047D01*
X42499054Y25210047D01*
X42386255Y25051325D01*
X42369953Y25062910D01*
X41776624Y24228015D01*
X41814064Y24006653D01*
X42129573Y23778664D01*
X42238144Y23716547D01*
X42356747Y23676806D01*
X42480824Y23660967D01*
X42605607Y23669638D01*
X42726300Y23702486D01*
X42838267Y23758249D01*
X42937203Y23834784D01*
X42989781Y23895214D01*
X41339134Y21570000D01*
X40860865Y21570000D01*
X39258557Y23827120D01*
G37*
G04 #@! TD.AperFunction*
D17*
X11658557Y23827120D02*
X11721733Y23778249D01*
X11833700Y23722486D01*
X11954393Y23689638D01*
X12079176Y23680967D01*
X12203253Y23696806D01*
X12321856Y23736547D01*
X12430427Y23798664D01*
X12745936Y24026653D01*
X12783376Y24248015D01*
X12190047Y25082910D01*
X12173745Y25071325D01*
X12026607Y25278367D01*
X12042910Y25289953D01*
X11449581Y26124847D01*
X11228219Y26162288D01*
X10909151Y25939307D01*
X10814784Y25857203D01*
X10738249Y25758267D01*
X10682486Y25646300D01*
X10649638Y25525607D01*
X10640967Y25400824D01*
X10656806Y25276747D01*
X10681233Y25203847D01*
X7997056Y28984964D01*
X8185983Y28883981D01*
X8447056Y28804785D01*
X8718563Y28778045D01*
X8990070Y28804785D01*
X9251144Y28883981D01*
X9491750Y29012588D01*
X9649796Y29142293D01*
X10324797Y29817294D01*
X10377643Y29860664D01*
X10550719Y30071557D01*
X10647255Y30252163D01*
X10679326Y30312164D01*
X10752036Y30551858D01*
X10758522Y30573238D01*
X10778562Y30776708D01*
X10778562Y30776715D01*
X10785262Y30844744D01*
X10778562Y30912773D01*
X10778562Y32303411D01*
X10785262Y32371440D01*
X10778562Y32439469D01*
X10778562Y32439477D01*
X10764431Y32582947D01*
X10758522Y32642947D01*
X10679326Y32904020D01*
X10550718Y33144628D01*
X10421014Y33302673D01*
X10421011Y33302676D01*
X10377642Y33355521D01*
X10324798Y33398889D01*
X9362196Y34361492D01*
X9318827Y34414337D01*
X9265982Y34457706D01*
X9265980Y34457708D01*
X9230370Y34486932D01*
X9107934Y34587413D01*
X8948382Y34672695D01*
X8867327Y34716020D01*
X8606254Y34795216D01*
X8591521Y34796667D01*
X8402783Y34815256D01*
X8402775Y34815256D01*
X8334746Y34821956D01*
X8266717Y34815256D01*
X7016229Y34815256D01*
X6998640Y34835472D01*
X6899704Y34912007D01*
X6857208Y34933172D01*
X6725000Y35065380D01*
X6725000Y35436312D01*
X9063687Y37775000D01*
X10502569Y37775000D01*
X10505920Y37770917D01*
X10558759Y37727553D01*
X11682545Y36603768D01*
X11725918Y36550918D01*
X11936811Y36377842D01*
X12177418Y36249235D01*
X12438492Y36170039D01*
X12641962Y36149999D01*
X12641970Y36149999D01*
X12709999Y36143299D01*
X12778028Y36149999D01*
X13456549Y36149999D01*
X13445000Y36091939D01*
X13445000Y35888061D01*
X13484774Y35688102D01*
X13562795Y35499744D01*
X13676063Y35330226D01*
X13720000Y35286289D01*
X13720000Y34647323D01*
X13716324Y34610000D01*
X13720000Y34572677D01*
X13720000Y34572667D01*
X13730997Y34461014D01*
X13774454Y34317753D01*
X13845026Y34185724D01*
X13897835Y34121377D01*
X13893307Y34098615D01*
X13893307Y33894737D01*
X13933081Y33694778D01*
X14011102Y33506420D01*
X14124370Y33336902D01*
X14268533Y33192739D01*
X14438051Y33079471D01*
X14626409Y33001450D01*
X14826368Y32961676D01*
X15030246Y32961676D01*
X15230205Y33001450D01*
X15418563Y33079471D01*
X15588081Y33192739D01*
X15732244Y33336902D01*
X15845512Y33506420D01*
X15923533Y33694778D01*
X15963307Y33894737D01*
X15963307Y34098615D01*
X15923533Y34298574D01*
X15845512Y34486932D01*
X15732244Y34656450D01*
X15588081Y34800613D01*
X15418563Y34913881D01*
X15239999Y34987845D01*
X15239999Y35286288D01*
X15283937Y35330226D01*
X15397205Y35499744D01*
X15475226Y35688102D01*
X15515000Y35888061D01*
X15515000Y36091939D01*
X15475226Y36291898D01*
X15397205Y36480256D01*
X15307779Y36614092D01*
X16046236Y37352549D01*
X16099081Y37395918D01*
X16142451Y37448764D01*
X16142453Y37448766D01*
X16168120Y37480041D01*
X16272158Y37606811D01*
X16400765Y37847418D01*
X16479961Y38108492D01*
X16488310Y38193256D01*
X16647157Y38386812D01*
X16775764Y38627419D01*
X16854960Y38888493D01*
X16881701Y39160000D01*
X16854960Y39431507D01*
X16775764Y39692581D01*
X16647157Y39933188D01*
X16474081Y40144081D01*
X16263188Y40317157D01*
X16022581Y40445764D01*
X15761507Y40524960D01*
X15558037Y40545000D01*
X15498029Y40545000D01*
X15430000Y40551700D01*
X15361971Y40545000D01*
X15361963Y40545000D01*
X15158493Y40524960D01*
X14897419Y40445764D01*
X14656812Y40317157D01*
X14445919Y40144081D01*
X14406532Y40096089D01*
X14325077Y40177544D01*
X14110518Y40320907D01*
X13872113Y40419658D01*
X13619024Y40470000D01*
X13360976Y40470000D01*
X13107887Y40419658D01*
X12869482Y40320907D01*
X12687487Y40199303D01*
X12616185Y40286185D01*
X12519494Y40365537D01*
X12409180Y40424502D01*
X12289482Y40460812D01*
X12165000Y40473072D01*
X11932559Y40473072D01*
X11761507Y40524960D01*
X11558037Y40545000D01*
X11558036Y40545000D01*
X11490000Y40551701D01*
X11421963Y40545000D01*
X8288037Y40545000D01*
X8220000Y40551701D01*
X8151964Y40545000D01*
X8151963Y40545000D01*
X7948493Y40524960D01*
X7687419Y40445764D01*
X7446812Y40317157D01*
X7235919Y40144081D01*
X7062843Y39933188D01*
X6934236Y39692581D01*
X6877777Y39506460D01*
X6698319Y39327002D01*
X6621252Y39327002D01*
X6780000Y39485750D01*
X6783072Y39875000D01*
X6770812Y39999482D01*
X6734502Y40119180D01*
X6675537Y40229494D01*
X6596185Y40326185D01*
X6499494Y40405537D01*
X6389180Y40464502D01*
X6269482Y40500812D01*
X6145000Y40513072D01*
X5755750Y40510000D01*
X5597000Y40351250D01*
X5597000Y39327000D01*
X5343000Y39327000D01*
X5343000Y40351250D01*
X5184250Y40510000D01*
X4795000Y40513072D01*
X4670518Y40500812D01*
X4550820Y40464502D01*
X4440506Y40405537D01*
X4343815Y40326185D01*
X4264463Y40229494D01*
X4205498Y40119180D01*
X4169188Y39999482D01*
X4156928Y39875000D01*
X4160000Y39485750D01*
X4318750Y39327000D01*
X5343000Y39327000D01*
X5597000Y39327000D01*
X5617000Y39327000D01*
X5617000Y39321781D01*
X3802288Y39321781D01*
X3579307Y39640849D01*
X3497203Y39735216D01*
X3398267Y39811751D01*
X3286300Y39867514D01*
X3165607Y39900362D01*
X3040824Y39909033D01*
X2916747Y39893194D01*
X2798144Y39853453D01*
X2689573Y39791336D01*
X2374064Y39563347D01*
X2336624Y39341985D01*
X2929953Y38507090D01*
X3764847Y39100419D01*
X3802288Y39321781D01*
X5617000Y39321781D01*
X5617000Y39073000D01*
X5597000Y39073000D01*
X5597000Y39053000D01*
X5343000Y39053000D01*
X5343000Y39073000D01*
X4318750Y39073000D01*
X4160000Y38914250D01*
X4159257Y38820080D01*
X4133347Y38855936D01*
X3911985Y38893376D01*
X3077090Y38300047D01*
X3670419Y37465153D01*
X3891781Y37427712D01*
X4210849Y37650693D01*
X4305216Y37732797D01*
X4381751Y37831733D01*
X4437514Y37943700D01*
X4449955Y37989412D01*
X4550820Y37935498D01*
X4670518Y37899188D01*
X4795000Y37886928D01*
X5184250Y37890000D01*
X5342998Y38048748D01*
X5342998Y37971682D01*
X4408759Y37037443D01*
X4355920Y36994079D01*
X4312555Y36941239D01*
X4312548Y36941232D01*
X4182844Y36783187D01*
X4182842Y36783185D01*
X4054236Y36542579D01*
X3975040Y36281505D01*
X3955000Y36078035D01*
X3955000Y36078026D01*
X3948300Y36009999D01*
X3955000Y35941972D01*
X3955000Y34678882D01*
X2422237Y36838037D01*
X2513700Y36792486D01*
X2634393Y36759638D01*
X2759176Y36750967D01*
X2883253Y36766806D01*
X3001856Y36806547D01*
X3110427Y36868664D01*
X3425936Y37096653D01*
X3463376Y37318015D01*
X2870047Y38152910D01*
X2853745Y38141325D01*
X2706607Y38348367D01*
X2722910Y38359953D01*
X2129581Y39194847D01*
X1908219Y39232288D01*
X1589151Y39009307D01*
X1494784Y38927203D01*
X1418249Y38828267D01*
X1362486Y38716300D01*
X1329638Y38595607D01*
X1320967Y38470824D01*
X1333646Y38371502D01*
X659999Y39320448D01*
X660000Y40560000D01*
X20491910Y40560000D01*
X20440820Y40544502D01*
X20330506Y40485537D01*
X20233815Y40406185D01*
X20154463Y40309494D01*
X20095498Y40199180D01*
X20059188Y40079482D01*
X20046928Y39955000D01*
X20050000Y39565750D01*
X20208750Y39407000D01*
X21233000Y39407000D01*
X21233000Y39427000D01*
X21487000Y39427000D01*
X21487000Y39407000D01*
X22511250Y39407000D01*
X22670000Y39565750D01*
X22673072Y39955000D01*
X22660812Y40079482D01*
X22624502Y40199180D01*
X22565537Y40309494D01*
X22486185Y40406185D01*
X22389494Y40485537D01*
X22279180Y40544502D01*
X22228090Y40560000D01*
X26340000Y40560000D01*
X26340000Y39331985D01*
X24553376Y39331985D01*
X24515936Y39553347D01*
X24200427Y39781336D01*
X24091856Y39843453D01*
X23973253Y39883194D01*
X23849176Y39899033D01*
X23724393Y39890362D01*
X23603700Y39857514D01*
X23491733Y39801751D01*
X23392797Y39725216D01*
X23310693Y39630849D01*
X23087712Y39311781D01*
X23125153Y39090419D01*
X23960047Y38497090D01*
X24553376Y39331985D01*
X26340000Y39331985D01*
X26340000Y39320445D01*
X25729764Y38460824D01*
X25569033Y38460824D01*
X25560362Y38585607D01*
X25527514Y38706300D01*
X25471751Y38818267D01*
X25395216Y38917203D01*
X25300849Y38999307D01*
X24981781Y39222288D01*
X24760419Y39184847D01*
X24167090Y38349953D01*
X24251385Y38290047D01*
X23812910Y38290047D01*
X22978015Y38883376D01*
X22756653Y38845936D01*
X22672094Y38728917D01*
X22670000Y38994250D01*
X22511250Y39153000D01*
X21487000Y39153000D01*
X21487000Y38128750D01*
X21233000Y38128750D01*
X21233000Y39153000D01*
X20208750Y39153000D01*
X20050000Y38994250D01*
X20046928Y38605000D01*
X20059188Y38480518D01*
X20095498Y38360820D01*
X20154463Y38250506D01*
X20233815Y38153815D01*
X20330506Y38074463D01*
X20440820Y38015498D01*
X20560518Y37979188D01*
X20685000Y37966928D01*
X21074250Y37970000D01*
X21233000Y38128750D01*
X21487000Y38128750D01*
X21645750Y37970000D01*
X22035000Y37966928D01*
X22159482Y37979188D01*
X22279180Y38015498D01*
X22389494Y38074463D01*
X22416692Y38096784D01*
X22419638Y38054393D01*
X22452486Y37933700D01*
X22508249Y37821733D01*
X22584784Y37722797D01*
X22679151Y37640693D01*
X22998219Y37417712D01*
X23219581Y37455153D01*
X23812910Y38290047D01*
X24251385Y38290047D01*
X25001985Y37756624D01*
X25223347Y37794064D01*
X25451336Y38109573D01*
X25513453Y38218144D01*
X25553194Y38336747D01*
X25569033Y38460824D01*
X25729764Y38460824D01*
X24925739Y37328219D01*
X24892288Y37328219D01*
X24854847Y37549581D01*
X24019953Y38142910D01*
X23426624Y37308015D01*
X23464064Y37086653D01*
X23779573Y36858664D01*
X23888144Y36796547D01*
X24006747Y36756806D01*
X24130824Y36740967D01*
X24255607Y36749638D01*
X24376300Y36782486D01*
X24488267Y36838249D01*
X24587203Y36914784D01*
X24669307Y37009151D01*
X24892288Y37328219D01*
X24925739Y37328219D01*
X22097316Y33343910D01*
X22111756Y33387002D01*
X22127595Y33511079D01*
X22118925Y33635862D01*
X22086076Y33756556D01*
X22030313Y33868522D01*
X21953778Y33967458D01*
X21859411Y34049562D01*
X21675510Y34180254D01*
X21532643Y34354337D01*
X21321750Y34527413D01*
X21081143Y34656020D01*
X20950112Y34695768D01*
X20758989Y34831592D01*
X20650419Y34893708D01*
X20531816Y34933450D01*
X20407739Y34949289D01*
X20282956Y34940619D01*
X20162262Y34907770D01*
X20050296Y34852007D01*
X19951360Y34775472D01*
X19933771Y34755256D01*
X18683283Y34755256D01*
X18615254Y34761956D01*
X18547225Y34755256D01*
X18547217Y34755256D01*
X18343747Y34735216D01*
X18082673Y34656020D01*
X17842066Y34527413D01*
X17631173Y34354337D01*
X17587800Y34301487D01*
X16625202Y33338890D01*
X16572357Y33295521D01*
X16518119Y33229433D01*
X16433837Y33126734D01*
X16399281Y33084628D01*
X16270674Y32844021D01*
X16207291Y32635077D01*
X16191478Y32582948D01*
X16183212Y32499022D01*
X16171438Y32379477D01*
X16171438Y32379469D01*
X16164738Y32311440D01*
X16171438Y32243411D01*
X16171438Y30852773D01*
X16164738Y30784744D01*
X16171438Y30716715D01*
X16171438Y30716707D01*
X16191478Y30513237D01*
X16270674Y30252163D01*
X16399281Y30011556D01*
X16488727Y29902566D01*
X16528986Y29853511D01*
X16528988Y29853509D01*
X16572358Y29800663D01*
X16625203Y29757294D01*
X17300204Y29082293D01*
X17458249Y28952589D01*
X17698857Y28823981D01*
X17959930Y28744785D01*
X18231437Y28718045D01*
X18502944Y28744785D01*
X18764017Y28823981D01*
X18964880Y28931345D01*
X18448897Y28204495D01*
X15425000Y28204495D01*
X15425000Y28595505D01*
X15348718Y28979003D01*
X15199085Y29340250D01*
X14981851Y29665364D01*
X14705364Y29941851D01*
X14380250Y30159085D01*
X14019003Y30308718D01*
X13635505Y30385000D01*
X13244495Y30385000D01*
X12860997Y30308718D01*
X12499750Y30159085D01*
X12174636Y29941851D01*
X11898149Y29665364D01*
X11680915Y29340250D01*
X11531282Y28979003D01*
X11455000Y28595505D01*
X11455000Y28204495D01*
X11531282Y27820997D01*
X11680915Y27459750D01*
X11898149Y27134636D01*
X12174636Y26858149D01*
X12230222Y26821008D01*
X12118144Y26783453D01*
X12009573Y26721336D01*
X11694064Y26493347D01*
X11656624Y26271985D01*
X12249953Y25437090D01*
X13084847Y26030419D01*
X13122288Y26251781D01*
X12970075Y26469585D01*
X13244495Y26415000D01*
X13635505Y26415000D01*
X14019003Y26491282D01*
X14019090Y26491318D01*
X13837712Y26231781D01*
X13875153Y26010419D01*
X14710047Y25417090D01*
X15303376Y26251985D01*
X15265936Y26473347D01*
X14950427Y26701336D01*
X14841856Y26763453D01*
X14723253Y26803194D01*
X14639180Y26813926D01*
X14705364Y26858149D01*
X14981851Y27134636D01*
X15199085Y27459750D01*
X15348718Y27820997D01*
X15425000Y28204495D01*
X18448897Y28204495D01*
X16227441Y25075200D01*
X16263453Y25138144D01*
X16303194Y25256747D01*
X16319033Y25380824D01*
X16310362Y25505607D01*
X16277514Y25626300D01*
X16221751Y25738267D01*
X16145216Y25837203D01*
X16050849Y25919307D01*
X15731781Y26142288D01*
X15510419Y26104847D01*
X14917090Y25269953D01*
X14933393Y25258367D01*
X14899054Y25210047D01*
X14562910Y25210047D01*
X13728015Y25803376D01*
X13506653Y25765936D01*
X13487226Y25739051D01*
X13453347Y25785936D01*
X13231985Y25823376D01*
X12397090Y25230047D01*
X12990419Y24395153D01*
X13211781Y24357712D01*
X13465691Y24535157D01*
X13748219Y24337712D01*
X13969581Y24375153D01*
X14562910Y25210047D01*
X14899054Y25210047D01*
X14786255Y25051325D01*
X14769953Y25062910D01*
X14176624Y24228015D01*
X14214064Y24006653D01*
X14529573Y23778664D01*
X14638144Y23716547D01*
X14756747Y23676806D01*
X14880824Y23660967D01*
X15005607Y23669638D01*
X15126300Y23702486D01*
X15238267Y23758249D01*
X15337203Y23834784D01*
X15389781Y23895214D01*
X13739134Y21570000D01*
X13260865Y21570000D01*
X11658557Y23827120D01*
G04 #@! TA.AperFunction,Conductor*
D18*
G36*
X11658557Y23827120D02*
G01*
X11721733Y23778249D01*
X11833700Y23722486D01*
X11954393Y23689638D01*
X12079176Y23680967D01*
X12203253Y23696806D01*
X12321856Y23736547D01*
X12430427Y23798664D01*
X12745936Y24026653D01*
X12783376Y24248015D01*
X12190047Y25082910D01*
X12173745Y25071325D01*
X12026607Y25278367D01*
X12042910Y25289953D01*
X11449581Y26124847D01*
X11228219Y26162288D01*
X10909151Y25939307D01*
X10814784Y25857203D01*
X10738249Y25758267D01*
X10682486Y25646300D01*
X10649638Y25525607D01*
X10640967Y25400824D01*
X10656806Y25276747D01*
X10681233Y25203847D01*
X7997056Y28984964D01*
X8185983Y28883981D01*
X8447056Y28804785D01*
X8718563Y28778045D01*
X8990070Y28804785D01*
X9251144Y28883981D01*
X9491750Y29012588D01*
X9649796Y29142293D01*
X10324797Y29817294D01*
X10377643Y29860664D01*
X10550719Y30071557D01*
X10647255Y30252163D01*
X10679326Y30312164D01*
X10752036Y30551858D01*
X10758522Y30573238D01*
X10778562Y30776708D01*
X10778562Y30776715D01*
X10785262Y30844744D01*
X10778562Y30912773D01*
X10778562Y32303411D01*
X10785262Y32371440D01*
X10778562Y32439469D01*
X10778562Y32439477D01*
X10764431Y32582947D01*
X10758522Y32642947D01*
X10679326Y32904020D01*
X10550718Y33144628D01*
X10421014Y33302673D01*
X10421011Y33302676D01*
X10377642Y33355521D01*
X10324798Y33398889D01*
X9362196Y34361492D01*
X9318827Y34414337D01*
X9265982Y34457706D01*
X9265980Y34457708D01*
X9230370Y34486932D01*
X9107934Y34587413D01*
X8948382Y34672695D01*
X8867327Y34716020D01*
X8606254Y34795216D01*
X8591521Y34796667D01*
X8402783Y34815256D01*
X8402775Y34815256D01*
X8334746Y34821956D01*
X8266717Y34815256D01*
X7016229Y34815256D01*
X6998640Y34835472D01*
X6899704Y34912007D01*
X6857208Y34933172D01*
X6725000Y35065380D01*
X6725000Y35436312D01*
X9063687Y37775000D01*
X10502569Y37775000D01*
X10505920Y37770917D01*
X10558759Y37727553D01*
X11682545Y36603768D01*
X11725918Y36550918D01*
X11936811Y36377842D01*
X12177418Y36249235D01*
X12438492Y36170039D01*
X12641962Y36149999D01*
X12641970Y36149999D01*
X12709999Y36143299D01*
X12778028Y36149999D01*
X13456549Y36149999D01*
X13445000Y36091939D01*
X13445000Y35888061D01*
X13484774Y35688102D01*
X13562795Y35499744D01*
X13676063Y35330226D01*
X13720000Y35286289D01*
X13720000Y34647323D01*
X13716324Y34610000D01*
X13720000Y34572677D01*
X13720000Y34572667D01*
X13730997Y34461014D01*
X13774454Y34317753D01*
X13845026Y34185724D01*
X13897835Y34121377D01*
X13893307Y34098615D01*
X13893307Y33894737D01*
X13933081Y33694778D01*
X14011102Y33506420D01*
X14124370Y33336902D01*
X14268533Y33192739D01*
X14438051Y33079471D01*
X14626409Y33001450D01*
X14826368Y32961676D01*
X15030246Y32961676D01*
X15230205Y33001450D01*
X15418563Y33079471D01*
X15588081Y33192739D01*
X15732244Y33336902D01*
X15845512Y33506420D01*
X15923533Y33694778D01*
X15963307Y33894737D01*
X15963307Y34098615D01*
X15923533Y34298574D01*
X15845512Y34486932D01*
X15732244Y34656450D01*
X15588081Y34800613D01*
X15418563Y34913881D01*
X15239999Y34987845D01*
X15239999Y35286288D01*
X15283937Y35330226D01*
X15397205Y35499744D01*
X15475226Y35688102D01*
X15515000Y35888061D01*
X15515000Y36091939D01*
X15475226Y36291898D01*
X15397205Y36480256D01*
X15307779Y36614092D01*
X16046236Y37352549D01*
X16099081Y37395918D01*
X16142451Y37448764D01*
X16142453Y37448766D01*
X16168120Y37480041D01*
X16272158Y37606811D01*
X16400765Y37847418D01*
X16479961Y38108492D01*
X16488310Y38193256D01*
X16647157Y38386812D01*
X16775764Y38627419D01*
X16854960Y38888493D01*
X16881701Y39160000D01*
X16854960Y39431507D01*
X16775764Y39692581D01*
X16647157Y39933188D01*
X16474081Y40144081D01*
X16263188Y40317157D01*
X16022581Y40445764D01*
X15761507Y40524960D01*
X15558037Y40545000D01*
X15498029Y40545000D01*
X15430000Y40551700D01*
X15361971Y40545000D01*
X15361963Y40545000D01*
X15158493Y40524960D01*
X14897419Y40445764D01*
X14656812Y40317157D01*
X14445919Y40144081D01*
X14406532Y40096089D01*
X14325077Y40177544D01*
X14110518Y40320907D01*
X13872113Y40419658D01*
X13619024Y40470000D01*
X13360976Y40470000D01*
X13107887Y40419658D01*
X12869482Y40320907D01*
X12687487Y40199303D01*
X12616185Y40286185D01*
X12519494Y40365537D01*
X12409180Y40424502D01*
X12289482Y40460812D01*
X12165000Y40473072D01*
X11932559Y40473072D01*
X11761507Y40524960D01*
X11558037Y40545000D01*
X11558036Y40545000D01*
X11490000Y40551701D01*
X11421963Y40545000D01*
X8288037Y40545000D01*
X8220000Y40551701D01*
X8151964Y40545000D01*
X8151963Y40545000D01*
X7948493Y40524960D01*
X7687419Y40445764D01*
X7446812Y40317157D01*
X7235919Y40144081D01*
X7062843Y39933188D01*
X6934236Y39692581D01*
X6877777Y39506460D01*
X6698319Y39327002D01*
X6621252Y39327002D01*
X6780000Y39485750D01*
X6783072Y39875000D01*
X6770812Y39999482D01*
X6734502Y40119180D01*
X6675537Y40229494D01*
X6596185Y40326185D01*
X6499494Y40405537D01*
X6389180Y40464502D01*
X6269482Y40500812D01*
X6145000Y40513072D01*
X5755750Y40510000D01*
X5597000Y40351250D01*
X5597000Y39327000D01*
X5343000Y39327000D01*
X5343000Y40351250D01*
X5184250Y40510000D01*
X4795000Y40513072D01*
X4670518Y40500812D01*
X4550820Y40464502D01*
X4440506Y40405537D01*
X4343815Y40326185D01*
X4264463Y40229494D01*
X4205498Y40119180D01*
X4169188Y39999482D01*
X4156928Y39875000D01*
X4160000Y39485750D01*
X4318750Y39327000D01*
X5343000Y39327000D01*
X5597000Y39327000D01*
X5617000Y39327000D01*
X5617000Y39321781D01*
X3802288Y39321781D01*
X3579307Y39640849D01*
X3497203Y39735216D01*
X3398267Y39811751D01*
X3286300Y39867514D01*
X3165607Y39900362D01*
X3040824Y39909033D01*
X2916747Y39893194D01*
X2798144Y39853453D01*
X2689573Y39791336D01*
X2374064Y39563347D01*
X2336624Y39341985D01*
X2929953Y38507090D01*
X3764847Y39100419D01*
X3802288Y39321781D01*
X5617000Y39321781D01*
X5617000Y39073000D01*
X5597000Y39073000D01*
X5597000Y39053000D01*
X5343000Y39053000D01*
X5343000Y39073000D01*
X4318750Y39073000D01*
X4160000Y38914250D01*
X4159257Y38820080D01*
X4133347Y38855936D01*
X3911985Y38893376D01*
X3077090Y38300047D01*
X3670419Y37465153D01*
X3891781Y37427712D01*
X4210849Y37650693D01*
X4305216Y37732797D01*
X4381751Y37831733D01*
X4437514Y37943700D01*
X4449955Y37989412D01*
X4550820Y37935498D01*
X4670518Y37899188D01*
X4795000Y37886928D01*
X5184250Y37890000D01*
X5342998Y38048748D01*
X5342998Y37971682D01*
X4408759Y37037443D01*
X4355920Y36994079D01*
X4312555Y36941239D01*
X4312548Y36941232D01*
X4182844Y36783187D01*
X4182842Y36783185D01*
X4054236Y36542579D01*
X3975040Y36281505D01*
X3955000Y36078035D01*
X3955000Y36078026D01*
X3948300Y36009999D01*
X3955000Y35941972D01*
X3955000Y34678882D01*
X2422237Y36838037D01*
X2513700Y36792486D01*
X2634393Y36759638D01*
X2759176Y36750967D01*
X2883253Y36766806D01*
X3001856Y36806547D01*
X3110427Y36868664D01*
X3425936Y37096653D01*
X3463376Y37318015D01*
X2870047Y38152910D01*
X2853745Y38141325D01*
X2706607Y38348367D01*
X2722910Y38359953D01*
X2129581Y39194847D01*
X1908219Y39232288D01*
X1589151Y39009307D01*
X1494784Y38927203D01*
X1418249Y38828267D01*
X1362486Y38716300D01*
X1329638Y38595607D01*
X1320967Y38470824D01*
X1333646Y38371502D01*
X659999Y39320448D01*
X660000Y40560000D01*
X20491910Y40560000D01*
X20440820Y40544502D01*
X20330506Y40485537D01*
X20233815Y40406185D01*
X20154463Y40309494D01*
X20095498Y40199180D01*
X20059188Y40079482D01*
X20046928Y39955000D01*
X20050000Y39565750D01*
X20208750Y39407000D01*
X21233000Y39407000D01*
X21233000Y39427000D01*
X21487000Y39427000D01*
X21487000Y39407000D01*
X22511250Y39407000D01*
X22670000Y39565750D01*
X22673072Y39955000D01*
X22660812Y40079482D01*
X22624502Y40199180D01*
X22565537Y40309494D01*
X22486185Y40406185D01*
X22389494Y40485537D01*
X22279180Y40544502D01*
X22228090Y40560000D01*
X26340000Y40560000D01*
X26340000Y39331985D01*
X24553376Y39331985D01*
X24515936Y39553347D01*
X24200427Y39781336D01*
X24091856Y39843453D01*
X23973253Y39883194D01*
X23849176Y39899033D01*
X23724393Y39890362D01*
X23603700Y39857514D01*
X23491733Y39801751D01*
X23392797Y39725216D01*
X23310693Y39630849D01*
X23087712Y39311781D01*
X23125153Y39090419D01*
X23960047Y38497090D01*
X24553376Y39331985D01*
X26340000Y39331985D01*
X26340000Y39320445D01*
X25729764Y38460824D01*
X25569033Y38460824D01*
X25560362Y38585607D01*
X25527514Y38706300D01*
X25471751Y38818267D01*
X25395216Y38917203D01*
X25300849Y38999307D01*
X24981781Y39222288D01*
X24760419Y39184847D01*
X24167090Y38349953D01*
X24251385Y38290047D01*
X23812910Y38290047D01*
X22978015Y38883376D01*
X22756653Y38845936D01*
X22672094Y38728917D01*
X22670000Y38994250D01*
X22511250Y39153000D01*
X21487000Y39153000D01*
X21487000Y38128750D01*
X21233000Y38128750D01*
X21233000Y39153000D01*
X20208750Y39153000D01*
X20050000Y38994250D01*
X20046928Y38605000D01*
X20059188Y38480518D01*
X20095498Y38360820D01*
X20154463Y38250506D01*
X20233815Y38153815D01*
X20330506Y38074463D01*
X20440820Y38015498D01*
X20560518Y37979188D01*
X20685000Y37966928D01*
X21074250Y37970000D01*
X21233000Y38128750D01*
X21487000Y38128750D01*
X21645750Y37970000D01*
X22035000Y37966928D01*
X22159482Y37979188D01*
X22279180Y38015498D01*
X22389494Y38074463D01*
X22416692Y38096784D01*
X22419638Y38054393D01*
X22452486Y37933700D01*
X22508249Y37821733D01*
X22584784Y37722797D01*
X22679151Y37640693D01*
X22998219Y37417712D01*
X23219581Y37455153D01*
X23812910Y38290047D01*
X24251385Y38290047D01*
X25001985Y37756624D01*
X25223347Y37794064D01*
X25451336Y38109573D01*
X25513453Y38218144D01*
X25553194Y38336747D01*
X25569033Y38460824D01*
X25729764Y38460824D01*
X24925739Y37328219D01*
X24892288Y37328219D01*
X24854847Y37549581D01*
X24019953Y38142910D01*
X23426624Y37308015D01*
X23464064Y37086653D01*
X23779573Y36858664D01*
X23888144Y36796547D01*
X24006747Y36756806D01*
X24130824Y36740967D01*
X24255607Y36749638D01*
X24376300Y36782486D01*
X24488267Y36838249D01*
X24587203Y36914784D01*
X24669307Y37009151D01*
X24892288Y37328219D01*
X24925739Y37328219D01*
X22097316Y33343910D01*
X22111756Y33387002D01*
X22127595Y33511079D01*
X22118925Y33635862D01*
X22086076Y33756556D01*
X22030313Y33868522D01*
X21953778Y33967458D01*
X21859411Y34049562D01*
X21675510Y34180254D01*
X21532643Y34354337D01*
X21321750Y34527413D01*
X21081143Y34656020D01*
X20950112Y34695768D01*
X20758989Y34831592D01*
X20650419Y34893708D01*
X20531816Y34933450D01*
X20407739Y34949289D01*
X20282956Y34940619D01*
X20162262Y34907770D01*
X20050296Y34852007D01*
X19951360Y34775472D01*
X19933771Y34755256D01*
X18683283Y34755256D01*
X18615254Y34761956D01*
X18547225Y34755256D01*
X18547217Y34755256D01*
X18343747Y34735216D01*
X18082673Y34656020D01*
X17842066Y34527413D01*
X17631173Y34354337D01*
X17587800Y34301487D01*
X16625202Y33338890D01*
X16572357Y33295521D01*
X16518119Y33229433D01*
X16433837Y33126734D01*
X16399281Y33084628D01*
X16270674Y32844021D01*
X16207291Y32635077D01*
X16191478Y32582948D01*
X16183212Y32499022D01*
X16171438Y32379477D01*
X16171438Y32379469D01*
X16164738Y32311440D01*
X16171438Y32243411D01*
X16171438Y30852773D01*
X16164738Y30784744D01*
X16171438Y30716715D01*
X16171438Y30716707D01*
X16191478Y30513237D01*
X16270674Y30252163D01*
X16399281Y30011556D01*
X16488727Y29902566D01*
X16528986Y29853511D01*
X16528988Y29853509D01*
X16572358Y29800663D01*
X16625203Y29757294D01*
X17300204Y29082293D01*
X17458249Y28952589D01*
X17698857Y28823981D01*
X17959930Y28744785D01*
X18231437Y28718045D01*
X18502944Y28744785D01*
X18764017Y28823981D01*
X18964880Y28931345D01*
X18448897Y28204495D01*
X15425000Y28204495D01*
X15425000Y28595505D01*
X15348718Y28979003D01*
X15199085Y29340250D01*
X14981851Y29665364D01*
X14705364Y29941851D01*
X14380250Y30159085D01*
X14019003Y30308718D01*
X13635505Y30385000D01*
X13244495Y30385000D01*
X12860997Y30308718D01*
X12499750Y30159085D01*
X12174636Y29941851D01*
X11898149Y29665364D01*
X11680915Y29340250D01*
X11531282Y28979003D01*
X11455000Y28595505D01*
X11455000Y28204495D01*
X11531282Y27820997D01*
X11680915Y27459750D01*
X11898149Y27134636D01*
X12174636Y26858149D01*
X12230222Y26821008D01*
X12118144Y26783453D01*
X12009573Y26721336D01*
X11694064Y26493347D01*
X11656624Y26271985D01*
X12249953Y25437090D01*
X13084847Y26030419D01*
X13122288Y26251781D01*
X12970075Y26469585D01*
X13244495Y26415000D01*
X13635505Y26415000D01*
X14019003Y26491282D01*
X14019090Y26491318D01*
X13837712Y26231781D01*
X13875153Y26010419D01*
X14710047Y25417090D01*
X15303376Y26251985D01*
X15265936Y26473347D01*
X14950427Y26701336D01*
X14841856Y26763453D01*
X14723253Y26803194D01*
X14639180Y26813926D01*
X14705364Y26858149D01*
X14981851Y27134636D01*
X15199085Y27459750D01*
X15348718Y27820997D01*
X15425000Y28204495D01*
X18448897Y28204495D01*
X16227441Y25075200D01*
X16263453Y25138144D01*
X16303194Y25256747D01*
X16319033Y25380824D01*
X16310362Y25505607D01*
X16277514Y25626300D01*
X16221751Y25738267D01*
X16145216Y25837203D01*
X16050849Y25919307D01*
X15731781Y26142288D01*
X15510419Y26104847D01*
X14917090Y25269953D01*
X14933393Y25258367D01*
X14899054Y25210047D01*
X14562910Y25210047D01*
X13728015Y25803376D01*
X13506653Y25765936D01*
X13487226Y25739051D01*
X13453347Y25785936D01*
X13231985Y25823376D01*
X12397090Y25230047D01*
X12990419Y24395153D01*
X13211781Y24357712D01*
X13465691Y24535157D01*
X13748219Y24337712D01*
X13969581Y24375153D01*
X14562910Y25210047D01*
X14899054Y25210047D01*
X14786255Y25051325D01*
X14769953Y25062910D01*
X14176624Y24228015D01*
X14214064Y24006653D01*
X14529573Y23778664D01*
X14638144Y23716547D01*
X14756747Y23676806D01*
X14880824Y23660967D01*
X15005607Y23669638D01*
X15126300Y23702486D01*
X15238267Y23758249D01*
X15337203Y23834784D01*
X15389781Y23895214D01*
X13739134Y21570000D01*
X13260865Y21570000D01*
X11658557Y23827120D01*
G37*
G04 #@! TD.AperFunction*
M02*
