M48
; DRILL file {KiCad (5.1.12)-1} date 06/19/23 18:48:12
; FORMAT={-:-/ absolute / metric / decimal}
; #@! TF.CreationDate,2023-06-19T18:48:12+09:00
; #@! TF.GenerationSoftware,Kicad,Pcbnew,(5.1.12)-1
FMAT,2
METRIC
T1C0.400
T2C0.800
T3C1.000
T4C0.600
T5C2.700
%
G90
G05
T1
X12.072Y7.223
X12.52Y5.23
X14.48Y35.99
X14.928Y33.997
X39.672Y7.223
X40.12Y5.23
X42.08Y35.99
X42.528Y33.997
X67.272Y7.223
X67.72Y5.23
X69.68Y35.99
X70.128Y33.997
T2
X2.9Y38.33
X3.01Y2.9
X5.47Y39.2
X5.64Y1.94
X6.401Y33.43
X6.451Y7.85
X7.56Y31.8
X7.61Y9.48
X8.719Y30.17
X8.769Y11.11
X11.49Y39.16
X11.51Y2.06
X12.22Y25.26
X12.26Y15.98
X13.49Y39.16
X13.51Y2.06
X14.74Y25.24
X14.78Y15.96
X15.49Y39.16
X15.51Y2.06
X18.231Y30.11
X18.281Y11.05
X19.39Y31.74
X19.44Y9.42
X20.549Y33.37
X20.599Y7.79
X21.36Y39.28
X21.53Y2.02
X23.99Y38.32
X24.1Y2.89
X30.5Y38.33
X30.61Y2.9
X33.07Y39.2
X33.24Y1.94
X34.001Y33.43
X34.051Y7.85
X35.16Y31.8
X35.21Y9.48
X36.319Y30.17
X36.369Y11.11
X39.09Y39.16
X39.11Y2.06
X39.82Y25.26
X39.86Y15.98
X41.09Y39.16
X41.11Y2.06
X42.34Y25.24
X42.38Y15.96
X43.09Y39.16
X43.11Y2.06
X45.831Y30.11
X45.881Y11.05
X46.99Y31.74
X47.04Y9.42
X48.149Y33.37
X48.199Y7.79
X48.96Y39.28
X49.13Y2.02
X51.59Y38.32
X51.7Y2.89
X58.1Y38.33
X58.21Y2.9
X60.67Y39.2
X60.84Y1.94
X61.601Y33.43
X61.651Y7.85
X62.76Y31.8
X62.81Y9.48
X63.919Y30.17
X63.969Y11.11
X66.69Y39.16
X66.71Y2.06
X67.42Y25.26
X67.46Y15.98
X68.69Y39.16
X68.71Y2.06
X69.94Y25.24
X69.98Y15.96
X70.69Y39.16
X70.71Y2.06
X73.431Y30.11
X73.481Y11.05
X74.59Y31.74
X74.64Y9.42
X75.749Y33.37
X75.799Y7.79
X76.56Y39.28
X76.73Y2.02
X79.19Y38.32
X79.3Y2.89
T3
X9.937Y37.46
X13.48Y33.46
X13.52Y7.76
X17.063Y3.76
X37.537Y37.46
X41.08Y33.46
X41.12Y7.76
X44.663Y3.76
X65.137Y37.46
X68.68Y33.46
X68.72Y7.76
X72.263Y3.76
T4
X-0.3Y40.11
X-0.3Y1.11
X27.3Y40.11
X27.3Y1.21
X54.9Y40.11
X54.9Y1.11
X82.5Y40.11
X82.5Y1.11
T5
X13.5Y28.51
X13.5Y12.71
X41.1Y28.51
X41.1Y12.71
X68.7Y28.51
X68.7Y12.71
T0
M30
