G04 #@! TF.GenerationSoftware,KiCad,Pcbnew,(5.1.12)-1*
G04 #@! TF.CreationDate,2023-06-19T18:47:51+09:00*
G04 #@! TF.ProjectId,LED_Sphere_3V-TypeA-Panelized,4c45445f-5370-4686-9572-655f33562d54,rev?*
G04 #@! TF.SameCoordinates,PX5f5e100PY68e7780*
G04 #@! TF.FileFunction,Legend,Bot*
G04 #@! TF.FilePolarity,Positive*
%FSLAX46Y46*%
G04 Gerber Fmt 4.6, Leading zero omitted, Abs format (unit mm)*
G04 Created by KiCad (PCBNEW (5.1.12)-1) date 2023-06-19 18:47:51*
%MOMM*%
%LPD*%
G01*
G04 APERTURE LIST*
%ADD10C,0.150000*%
%ADD11C,0.600000*%
%ADD12R,1.350000X1.350000*%
%ADD13O,1.350000X1.350000*%
%ADD14C,0.100000*%
%ADD15C,2.700000*%
G04 APERTURE END LIST*
D10*
X6970000Y35027381D02*
X6493809Y35027381D01*
X6493809Y34027381D01*
X7303333Y34503572D02*
X7636666Y34503572D01*
X7779523Y35027381D02*
X7303333Y35027381D01*
X7303333Y34027381D01*
X7779523Y34027381D01*
X8208095Y35027381D02*
X8208095Y34027381D01*
X8446190Y34027381D01*
X8589047Y34075000D01*
X8684285Y34170239D01*
X8731904Y34265477D01*
X8779523Y34455953D01*
X8779523Y34598810D01*
X8731904Y34789286D01*
X8684285Y34884524D01*
X8589047Y34979762D01*
X8446190Y35027381D01*
X8208095Y35027381D01*
X9922380Y34979762D02*
X10065238Y35027381D01*
X10303333Y35027381D01*
X10398571Y34979762D01*
X10446190Y34932143D01*
X10493809Y34836905D01*
X10493809Y34741667D01*
X10446190Y34646429D01*
X10398571Y34598810D01*
X10303333Y34551191D01*
X10112857Y34503572D01*
X10017619Y34455953D01*
X9970000Y34408334D01*
X9922380Y34313096D01*
X9922380Y34217858D01*
X9970000Y34122620D01*
X10017619Y34075000D01*
X10112857Y34027381D01*
X10350952Y34027381D01*
X10493809Y34075000D01*
X10922380Y34360715D02*
X10922380Y35360715D01*
X10922380Y34408334D02*
X11017619Y34360715D01*
X11208095Y34360715D01*
X11303333Y34408334D01*
X11350952Y34455953D01*
X11398571Y34551191D01*
X11398571Y34836905D01*
X11350952Y34932143D01*
X11303333Y34979762D01*
X11208095Y35027381D01*
X11017619Y35027381D01*
X10922380Y34979762D01*
X11827142Y35027381D02*
X11827142Y34027381D01*
X12255714Y35027381D02*
X12255714Y34503572D01*
X12208095Y34408334D01*
X12112857Y34360715D01*
X11970000Y34360715D01*
X11874761Y34408334D01*
X11827142Y34455953D01*
X13112857Y34979762D02*
X13017619Y35027381D01*
X12827142Y35027381D01*
X12731904Y34979762D01*
X12684285Y34884524D01*
X12684285Y34503572D01*
X12731904Y34408334D01*
X12827142Y34360715D01*
X13017619Y34360715D01*
X13112857Y34408334D01*
X13160476Y34503572D01*
X13160476Y34598810D01*
X12684285Y34694048D01*
X13970000Y34979762D02*
X13874761Y35027381D01*
X13684285Y35027381D01*
X13589047Y34979762D01*
X13541428Y34884524D01*
X13541428Y34503572D01*
X13589047Y34408334D01*
X13684285Y34360715D01*
X13874761Y34360715D01*
X13970000Y34408334D01*
X14017619Y34503572D01*
X14017619Y34598810D01*
X13541428Y34694048D01*
X14446190Y35027381D02*
X14446190Y34360715D01*
X14446190Y34551191D02*
X14493809Y34455953D01*
X14541428Y34408334D01*
X14636666Y34360715D01*
X14731904Y34360715D01*
X15446190Y34979762D02*
X15350952Y35027381D01*
X15160476Y35027381D01*
X15065238Y34979762D01*
X15017619Y34884524D01*
X15017619Y34503572D01*
X15065238Y34408334D01*
X15160476Y34360715D01*
X15350952Y34360715D01*
X15446190Y34408334D01*
X15493809Y34503572D01*
X15493809Y34598810D01*
X15017619Y34694048D01*
X16684285Y35027381D02*
X16684285Y34027381D01*
X16684285Y34408334D02*
X16779523Y34360715D01*
X16970000Y34360715D01*
X17065238Y34408334D01*
X17112857Y34455953D01*
X17160476Y34551191D01*
X17160476Y34836905D01*
X17112857Y34932143D01*
X17065238Y34979762D01*
X16970000Y35027381D01*
X16779523Y35027381D01*
X16684285Y34979762D01*
X17731904Y35027381D02*
X17636666Y34979762D01*
X17589047Y34932143D01*
X17541428Y34836905D01*
X17541428Y34551191D01*
X17589047Y34455953D01*
X17636666Y34408334D01*
X17731904Y34360715D01*
X17874761Y34360715D01*
X17970000Y34408334D01*
X18017619Y34455953D01*
X18065238Y34551191D01*
X18065238Y34836905D01*
X18017619Y34932143D01*
X17970000Y34979762D01*
X17874761Y35027381D01*
X17731904Y35027381D01*
X18922380Y35027381D02*
X18922380Y34503572D01*
X18874761Y34408334D01*
X18779523Y34360715D01*
X18589047Y34360715D01*
X18493809Y34408334D01*
X18922380Y34979762D02*
X18827142Y35027381D01*
X18589047Y35027381D01*
X18493809Y34979762D01*
X18446190Y34884524D01*
X18446190Y34789286D01*
X18493809Y34694048D01*
X18589047Y34646429D01*
X18827142Y34646429D01*
X18922380Y34598810D01*
X19398571Y35027381D02*
X19398571Y34360715D01*
X19398571Y34551191D02*
X19446190Y34455953D01*
X19493809Y34408334D01*
X19589047Y34360715D01*
X19684285Y34360715D01*
X20446190Y35027381D02*
X20446190Y34027381D01*
X20446190Y34979762D02*
X20350952Y35027381D01*
X20160476Y35027381D01*
X20065238Y34979762D01*
X20017619Y34932143D01*
X19970000Y34836905D01*
X19970000Y34551191D01*
X20017619Y34455953D01*
X20065238Y34408334D01*
X20160476Y34360715D01*
X20350952Y34360715D01*
X20446190Y34408334D01*
X7708095Y36677381D02*
X7374761Y36201191D01*
X7136666Y36677381D02*
X7136666Y35677381D01*
X7517619Y35677381D01*
X7612857Y35725000D01*
X7660476Y35772620D01*
X7708095Y35867858D01*
X7708095Y36010715D01*
X7660476Y36105953D01*
X7612857Y36153572D01*
X7517619Y36201191D01*
X7136666Y36201191D01*
X8517619Y36629762D02*
X8422380Y36677381D01*
X8231904Y36677381D01*
X8136666Y36629762D01*
X8089047Y36534524D01*
X8089047Y36153572D01*
X8136666Y36058334D01*
X8231904Y36010715D01*
X8422380Y36010715D01*
X8517619Y36058334D01*
X8565238Y36153572D01*
X8565238Y36248810D01*
X8089047Y36344048D01*
X8898571Y36010715D02*
X9136666Y36677381D01*
X9374761Y36010715D01*
X9755714Y36582143D02*
X9803333Y36629762D01*
X9755714Y36677381D01*
X9708095Y36629762D01*
X9755714Y36582143D01*
X9755714Y36677381D01*
X10946190Y36391667D02*
X11422380Y36391667D01*
X10850952Y36677381D02*
X11184285Y35677381D01*
X11517619Y36677381D01*
X12612857Y36677381D02*
X12612857Y35677381D01*
X12612857Y36058334D02*
X12708095Y36010715D01*
X12898571Y36010715D01*
X12993809Y36058334D01*
X13041428Y36105953D01*
X13089047Y36201191D01*
X13089047Y36486905D01*
X13041428Y36582143D01*
X12993809Y36629762D01*
X12898571Y36677381D01*
X12708095Y36677381D01*
X12612857Y36629762D01*
X13422380Y36010715D02*
X13660476Y36677381D01*
X13898571Y36010715D02*
X13660476Y36677381D01*
X13565238Y36915477D01*
X13517619Y36963096D01*
X13422380Y37010715D01*
X14898571Y35677381D02*
X15470000Y35677381D01*
X15184285Y36677381D02*
X15184285Y35677381D01*
X16231904Y36677381D02*
X16231904Y36153572D01*
X16184285Y36058334D01*
X16089047Y36010715D01*
X15898571Y36010715D01*
X15803333Y36058334D01*
X16231904Y36629762D02*
X16136666Y36677381D01*
X15898571Y36677381D01*
X15803333Y36629762D01*
X15755714Y36534524D01*
X15755714Y36439286D01*
X15803333Y36344048D01*
X15898571Y36296429D01*
X16136666Y36296429D01*
X16231904Y36248810D01*
X16708095Y36677381D02*
X16708095Y35677381D01*
X16803333Y36296429D02*
X17089047Y36677381D01*
X17089047Y36010715D02*
X16708095Y36391667D01*
X17470000Y36629762D02*
X17612857Y36677381D01*
X17850952Y36677381D01*
X17946190Y36629762D01*
X17993809Y36582143D01*
X18041428Y36486905D01*
X18041428Y36391667D01*
X17993809Y36296429D01*
X17946190Y36248810D01*
X17850952Y36201191D01*
X17660476Y36153572D01*
X17565238Y36105953D01*
X17517619Y36058334D01*
X17470000Y35963096D01*
X17470000Y35867858D01*
X17517619Y35772620D01*
X17565238Y35725000D01*
X17660476Y35677381D01*
X17898571Y35677381D01*
X18041428Y35725000D01*
X18898571Y36677381D02*
X18898571Y36153572D01*
X18850952Y36058334D01*
X18755714Y36010715D01*
X18565238Y36010715D01*
X18470000Y36058334D01*
X18898571Y36629762D02*
X18803333Y36677381D01*
X18565238Y36677381D01*
X18470000Y36629762D01*
X18422380Y36534524D01*
X18422380Y36439286D01*
X18470000Y36344048D01*
X18565238Y36296429D01*
X18803333Y36296429D01*
X18898571Y36248810D01*
X19374761Y36010715D02*
X19374761Y36677381D01*
X19374761Y36105953D02*
X19422380Y36058334D01*
X19517619Y36010715D01*
X19660476Y36010715D01*
X19755714Y36058334D01*
X19803333Y36153572D01*
X19803333Y36677381D01*
X34570000Y35027381D02*
X34093809Y35027381D01*
X34093809Y34027381D01*
X34903333Y34503572D02*
X35236666Y34503572D01*
X35379523Y35027381D02*
X34903333Y35027381D01*
X34903333Y34027381D01*
X35379523Y34027381D01*
X35808095Y35027381D02*
X35808095Y34027381D01*
X36046190Y34027381D01*
X36189047Y34075000D01*
X36284285Y34170239D01*
X36331904Y34265477D01*
X36379523Y34455953D01*
X36379523Y34598810D01*
X36331904Y34789286D01*
X36284285Y34884524D01*
X36189047Y34979762D01*
X36046190Y35027381D01*
X35808095Y35027381D01*
X37522380Y34979762D02*
X37665238Y35027381D01*
X37903333Y35027381D01*
X37998571Y34979762D01*
X38046190Y34932143D01*
X38093809Y34836905D01*
X38093809Y34741667D01*
X38046190Y34646429D01*
X37998571Y34598810D01*
X37903333Y34551191D01*
X37712857Y34503572D01*
X37617619Y34455953D01*
X37570000Y34408334D01*
X37522380Y34313096D01*
X37522380Y34217858D01*
X37570000Y34122620D01*
X37617619Y34075000D01*
X37712857Y34027381D01*
X37950952Y34027381D01*
X38093809Y34075000D01*
X38522380Y34360715D02*
X38522380Y35360715D01*
X38522380Y34408334D02*
X38617619Y34360715D01*
X38808095Y34360715D01*
X38903333Y34408334D01*
X38950952Y34455953D01*
X38998571Y34551191D01*
X38998571Y34836905D01*
X38950952Y34932143D01*
X38903333Y34979762D01*
X38808095Y35027381D01*
X38617619Y35027381D01*
X38522380Y34979762D01*
X39427142Y35027381D02*
X39427142Y34027381D01*
X39855714Y35027381D02*
X39855714Y34503572D01*
X39808095Y34408334D01*
X39712857Y34360715D01*
X39570000Y34360715D01*
X39474761Y34408334D01*
X39427142Y34455953D01*
X40712857Y34979762D02*
X40617619Y35027381D01*
X40427142Y35027381D01*
X40331904Y34979762D01*
X40284285Y34884524D01*
X40284285Y34503572D01*
X40331904Y34408334D01*
X40427142Y34360715D01*
X40617619Y34360715D01*
X40712857Y34408334D01*
X40760476Y34503572D01*
X40760476Y34598810D01*
X40284285Y34694048D01*
X41570000Y34979762D02*
X41474761Y35027381D01*
X41284285Y35027381D01*
X41189047Y34979762D01*
X41141428Y34884524D01*
X41141428Y34503572D01*
X41189047Y34408334D01*
X41284285Y34360715D01*
X41474761Y34360715D01*
X41570000Y34408334D01*
X41617619Y34503572D01*
X41617619Y34598810D01*
X41141428Y34694048D01*
X42046190Y35027381D02*
X42046190Y34360715D01*
X42046190Y34551191D02*
X42093809Y34455953D01*
X42141428Y34408334D01*
X42236666Y34360715D01*
X42331904Y34360715D01*
X43046190Y34979762D02*
X42950952Y35027381D01*
X42760476Y35027381D01*
X42665238Y34979762D01*
X42617619Y34884524D01*
X42617619Y34503572D01*
X42665238Y34408334D01*
X42760476Y34360715D01*
X42950952Y34360715D01*
X43046190Y34408334D01*
X43093809Y34503572D01*
X43093809Y34598810D01*
X42617619Y34694048D01*
X44284285Y35027381D02*
X44284285Y34027381D01*
X44284285Y34408334D02*
X44379523Y34360715D01*
X44570000Y34360715D01*
X44665238Y34408334D01*
X44712857Y34455953D01*
X44760476Y34551191D01*
X44760476Y34836905D01*
X44712857Y34932143D01*
X44665238Y34979762D01*
X44570000Y35027381D01*
X44379523Y35027381D01*
X44284285Y34979762D01*
X45331904Y35027381D02*
X45236666Y34979762D01*
X45189047Y34932143D01*
X45141428Y34836905D01*
X45141428Y34551191D01*
X45189047Y34455953D01*
X45236666Y34408334D01*
X45331904Y34360715D01*
X45474761Y34360715D01*
X45570000Y34408334D01*
X45617619Y34455953D01*
X45665238Y34551191D01*
X45665238Y34836905D01*
X45617619Y34932143D01*
X45570000Y34979762D01*
X45474761Y35027381D01*
X45331904Y35027381D01*
X46522380Y35027381D02*
X46522380Y34503572D01*
X46474761Y34408334D01*
X46379523Y34360715D01*
X46189047Y34360715D01*
X46093809Y34408334D01*
X46522380Y34979762D02*
X46427142Y35027381D01*
X46189047Y35027381D01*
X46093809Y34979762D01*
X46046190Y34884524D01*
X46046190Y34789286D01*
X46093809Y34694048D01*
X46189047Y34646429D01*
X46427142Y34646429D01*
X46522380Y34598810D01*
X46998571Y35027381D02*
X46998571Y34360715D01*
X46998571Y34551191D02*
X47046190Y34455953D01*
X47093809Y34408334D01*
X47189047Y34360715D01*
X47284285Y34360715D01*
X48046190Y35027381D02*
X48046190Y34027381D01*
X48046190Y34979762D02*
X47950952Y35027381D01*
X47760476Y35027381D01*
X47665238Y34979762D01*
X47617619Y34932143D01*
X47570000Y34836905D01*
X47570000Y34551191D01*
X47617619Y34455953D01*
X47665238Y34408334D01*
X47760476Y34360715D01*
X47950952Y34360715D01*
X48046190Y34408334D01*
X35308095Y36677381D02*
X34974761Y36201191D01*
X34736666Y36677381D02*
X34736666Y35677381D01*
X35117619Y35677381D01*
X35212857Y35725000D01*
X35260476Y35772620D01*
X35308095Y35867858D01*
X35308095Y36010715D01*
X35260476Y36105953D01*
X35212857Y36153572D01*
X35117619Y36201191D01*
X34736666Y36201191D01*
X36117619Y36629762D02*
X36022380Y36677381D01*
X35831904Y36677381D01*
X35736666Y36629762D01*
X35689047Y36534524D01*
X35689047Y36153572D01*
X35736666Y36058334D01*
X35831904Y36010715D01*
X36022380Y36010715D01*
X36117619Y36058334D01*
X36165238Y36153572D01*
X36165238Y36248810D01*
X35689047Y36344048D01*
X36498571Y36010715D02*
X36736666Y36677381D01*
X36974761Y36010715D01*
X37355714Y36582143D02*
X37403333Y36629762D01*
X37355714Y36677381D01*
X37308095Y36629762D01*
X37355714Y36582143D01*
X37355714Y36677381D01*
X38546190Y36391667D02*
X39022380Y36391667D01*
X38450952Y36677381D02*
X38784285Y35677381D01*
X39117619Y36677381D01*
X40212857Y36677381D02*
X40212857Y35677381D01*
X40212857Y36058334D02*
X40308095Y36010715D01*
X40498571Y36010715D01*
X40593809Y36058334D01*
X40641428Y36105953D01*
X40689047Y36201191D01*
X40689047Y36486905D01*
X40641428Y36582143D01*
X40593809Y36629762D01*
X40498571Y36677381D01*
X40308095Y36677381D01*
X40212857Y36629762D01*
X41022380Y36010715D02*
X41260476Y36677381D01*
X41498571Y36010715D02*
X41260476Y36677381D01*
X41165238Y36915477D01*
X41117619Y36963096D01*
X41022380Y37010715D01*
X42498571Y35677381D02*
X43070000Y35677381D01*
X42784285Y36677381D02*
X42784285Y35677381D01*
X43831904Y36677381D02*
X43831904Y36153572D01*
X43784285Y36058334D01*
X43689047Y36010715D01*
X43498571Y36010715D01*
X43403333Y36058334D01*
X43831904Y36629762D02*
X43736666Y36677381D01*
X43498571Y36677381D01*
X43403333Y36629762D01*
X43355714Y36534524D01*
X43355714Y36439286D01*
X43403333Y36344048D01*
X43498571Y36296429D01*
X43736666Y36296429D01*
X43831904Y36248810D01*
X44308095Y36677381D02*
X44308095Y35677381D01*
X44403333Y36296429D02*
X44689047Y36677381D01*
X44689047Y36010715D02*
X44308095Y36391667D01*
X45070000Y36629762D02*
X45212857Y36677381D01*
X45450952Y36677381D01*
X45546190Y36629762D01*
X45593809Y36582143D01*
X45641428Y36486905D01*
X45641428Y36391667D01*
X45593809Y36296429D01*
X45546190Y36248810D01*
X45450952Y36201191D01*
X45260476Y36153572D01*
X45165238Y36105953D01*
X45117619Y36058334D01*
X45070000Y35963096D01*
X45070000Y35867858D01*
X45117619Y35772620D01*
X45165238Y35725000D01*
X45260476Y35677381D01*
X45498571Y35677381D01*
X45641428Y35725000D01*
X46498571Y36677381D02*
X46498571Y36153572D01*
X46450952Y36058334D01*
X46355714Y36010715D01*
X46165238Y36010715D01*
X46070000Y36058334D01*
X46498571Y36629762D02*
X46403333Y36677381D01*
X46165238Y36677381D01*
X46070000Y36629762D01*
X46022380Y36534524D01*
X46022380Y36439286D01*
X46070000Y36344048D01*
X46165238Y36296429D01*
X46403333Y36296429D01*
X46498571Y36248810D01*
X46974761Y36010715D02*
X46974761Y36677381D01*
X46974761Y36105953D02*
X47022380Y36058334D01*
X47117619Y36010715D01*
X47260476Y36010715D01*
X47355714Y36058334D01*
X47403333Y36153572D01*
X47403333Y36677381D01*
X62170000Y35027381D02*
X61693809Y35027381D01*
X61693809Y34027381D01*
X62503333Y34503572D02*
X62836666Y34503572D01*
X62979523Y35027381D02*
X62503333Y35027381D01*
X62503333Y34027381D01*
X62979523Y34027381D01*
X63408095Y35027381D02*
X63408095Y34027381D01*
X63646190Y34027381D01*
X63789047Y34075000D01*
X63884285Y34170239D01*
X63931904Y34265477D01*
X63979523Y34455953D01*
X63979523Y34598810D01*
X63931904Y34789286D01*
X63884285Y34884524D01*
X63789047Y34979762D01*
X63646190Y35027381D01*
X63408095Y35027381D01*
X65122380Y34979762D02*
X65265238Y35027381D01*
X65503333Y35027381D01*
X65598571Y34979762D01*
X65646190Y34932143D01*
X65693809Y34836905D01*
X65693809Y34741667D01*
X65646190Y34646429D01*
X65598571Y34598810D01*
X65503333Y34551191D01*
X65312857Y34503572D01*
X65217619Y34455953D01*
X65170000Y34408334D01*
X65122380Y34313096D01*
X65122380Y34217858D01*
X65170000Y34122620D01*
X65217619Y34075000D01*
X65312857Y34027381D01*
X65550952Y34027381D01*
X65693809Y34075000D01*
X66122380Y34360715D02*
X66122380Y35360715D01*
X66122380Y34408334D02*
X66217619Y34360715D01*
X66408095Y34360715D01*
X66503333Y34408334D01*
X66550952Y34455953D01*
X66598571Y34551191D01*
X66598571Y34836905D01*
X66550952Y34932143D01*
X66503333Y34979762D01*
X66408095Y35027381D01*
X66217619Y35027381D01*
X66122380Y34979762D01*
X67027142Y35027381D02*
X67027142Y34027381D01*
X67455714Y35027381D02*
X67455714Y34503572D01*
X67408095Y34408334D01*
X67312857Y34360715D01*
X67170000Y34360715D01*
X67074761Y34408334D01*
X67027142Y34455953D01*
X68312857Y34979762D02*
X68217619Y35027381D01*
X68027142Y35027381D01*
X67931904Y34979762D01*
X67884285Y34884524D01*
X67884285Y34503572D01*
X67931904Y34408334D01*
X68027142Y34360715D01*
X68217619Y34360715D01*
X68312857Y34408334D01*
X68360476Y34503572D01*
X68360476Y34598810D01*
X67884285Y34694048D01*
X69170000Y34979762D02*
X69074761Y35027381D01*
X68884285Y35027381D01*
X68789047Y34979762D01*
X68741428Y34884524D01*
X68741428Y34503572D01*
X68789047Y34408334D01*
X68884285Y34360715D01*
X69074761Y34360715D01*
X69170000Y34408334D01*
X69217619Y34503572D01*
X69217619Y34598810D01*
X68741428Y34694048D01*
X69646190Y35027381D02*
X69646190Y34360715D01*
X69646190Y34551191D02*
X69693809Y34455953D01*
X69741428Y34408334D01*
X69836666Y34360715D01*
X69931904Y34360715D01*
X70646190Y34979762D02*
X70550952Y35027381D01*
X70360476Y35027381D01*
X70265238Y34979762D01*
X70217619Y34884524D01*
X70217619Y34503572D01*
X70265238Y34408334D01*
X70360476Y34360715D01*
X70550952Y34360715D01*
X70646190Y34408334D01*
X70693809Y34503572D01*
X70693809Y34598810D01*
X70217619Y34694048D01*
X71884285Y35027381D02*
X71884285Y34027381D01*
X71884285Y34408334D02*
X71979523Y34360715D01*
X72170000Y34360715D01*
X72265238Y34408334D01*
X72312857Y34455953D01*
X72360476Y34551191D01*
X72360476Y34836905D01*
X72312857Y34932143D01*
X72265238Y34979762D01*
X72170000Y35027381D01*
X71979523Y35027381D01*
X71884285Y34979762D01*
X72931904Y35027381D02*
X72836666Y34979762D01*
X72789047Y34932143D01*
X72741428Y34836905D01*
X72741428Y34551191D01*
X72789047Y34455953D01*
X72836666Y34408334D01*
X72931904Y34360715D01*
X73074761Y34360715D01*
X73170000Y34408334D01*
X73217619Y34455953D01*
X73265238Y34551191D01*
X73265238Y34836905D01*
X73217619Y34932143D01*
X73170000Y34979762D01*
X73074761Y35027381D01*
X72931904Y35027381D01*
X74122380Y35027381D02*
X74122380Y34503572D01*
X74074761Y34408334D01*
X73979523Y34360715D01*
X73789047Y34360715D01*
X73693809Y34408334D01*
X74122380Y34979762D02*
X74027142Y35027381D01*
X73789047Y35027381D01*
X73693809Y34979762D01*
X73646190Y34884524D01*
X73646190Y34789286D01*
X73693809Y34694048D01*
X73789047Y34646429D01*
X74027142Y34646429D01*
X74122380Y34598810D01*
X74598571Y35027381D02*
X74598571Y34360715D01*
X74598571Y34551191D02*
X74646190Y34455953D01*
X74693809Y34408334D01*
X74789047Y34360715D01*
X74884285Y34360715D01*
X75646190Y35027381D02*
X75646190Y34027381D01*
X75646190Y34979762D02*
X75550952Y35027381D01*
X75360476Y35027381D01*
X75265238Y34979762D01*
X75217619Y34932143D01*
X75170000Y34836905D01*
X75170000Y34551191D01*
X75217619Y34455953D01*
X75265238Y34408334D01*
X75360476Y34360715D01*
X75550952Y34360715D01*
X75646190Y34408334D01*
X62908095Y36677381D02*
X62574761Y36201191D01*
X62336666Y36677381D02*
X62336666Y35677381D01*
X62717619Y35677381D01*
X62812857Y35725000D01*
X62860476Y35772620D01*
X62908095Y35867858D01*
X62908095Y36010715D01*
X62860476Y36105953D01*
X62812857Y36153572D01*
X62717619Y36201191D01*
X62336666Y36201191D01*
X63717619Y36629762D02*
X63622380Y36677381D01*
X63431904Y36677381D01*
X63336666Y36629762D01*
X63289047Y36534524D01*
X63289047Y36153572D01*
X63336666Y36058334D01*
X63431904Y36010715D01*
X63622380Y36010715D01*
X63717619Y36058334D01*
X63765238Y36153572D01*
X63765238Y36248810D01*
X63289047Y36344048D01*
X64098571Y36010715D02*
X64336666Y36677381D01*
X64574761Y36010715D01*
X64955714Y36582143D02*
X65003333Y36629762D01*
X64955714Y36677381D01*
X64908095Y36629762D01*
X64955714Y36582143D01*
X64955714Y36677381D01*
X66146190Y36391667D02*
X66622380Y36391667D01*
X66050952Y36677381D02*
X66384285Y35677381D01*
X66717619Y36677381D01*
X67812857Y36677381D02*
X67812857Y35677381D01*
X67812857Y36058334D02*
X67908095Y36010715D01*
X68098571Y36010715D01*
X68193809Y36058334D01*
X68241428Y36105953D01*
X68289047Y36201191D01*
X68289047Y36486905D01*
X68241428Y36582143D01*
X68193809Y36629762D01*
X68098571Y36677381D01*
X67908095Y36677381D01*
X67812857Y36629762D01*
X68622380Y36010715D02*
X68860476Y36677381D01*
X69098571Y36010715D02*
X68860476Y36677381D01*
X68765238Y36915477D01*
X68717619Y36963096D01*
X68622380Y37010715D01*
X70098571Y35677381D02*
X70670000Y35677381D01*
X70384285Y36677381D02*
X70384285Y35677381D01*
X71431904Y36677381D02*
X71431904Y36153572D01*
X71384285Y36058334D01*
X71289047Y36010715D01*
X71098571Y36010715D01*
X71003333Y36058334D01*
X71431904Y36629762D02*
X71336666Y36677381D01*
X71098571Y36677381D01*
X71003333Y36629762D01*
X70955714Y36534524D01*
X70955714Y36439286D01*
X71003333Y36344048D01*
X71098571Y36296429D01*
X71336666Y36296429D01*
X71431904Y36248810D01*
X71908095Y36677381D02*
X71908095Y35677381D01*
X72003333Y36296429D02*
X72289047Y36677381D01*
X72289047Y36010715D02*
X71908095Y36391667D01*
X72670000Y36629762D02*
X72812857Y36677381D01*
X73050952Y36677381D01*
X73146190Y36629762D01*
X73193809Y36582143D01*
X73241428Y36486905D01*
X73241428Y36391667D01*
X73193809Y36296429D01*
X73146190Y36248810D01*
X73050952Y36201191D01*
X72860476Y36153572D01*
X72765238Y36105953D01*
X72717619Y36058334D01*
X72670000Y35963096D01*
X72670000Y35867858D01*
X72717619Y35772620D01*
X72765238Y35725000D01*
X72860476Y35677381D01*
X73098571Y35677381D01*
X73241428Y35725000D01*
X74098571Y36677381D02*
X74098571Y36153572D01*
X74050952Y36058334D01*
X73955714Y36010715D01*
X73765238Y36010715D01*
X73670000Y36058334D01*
X74098571Y36629762D02*
X74003333Y36677381D01*
X73765238Y36677381D01*
X73670000Y36629762D01*
X73622380Y36534524D01*
X73622380Y36439286D01*
X73670000Y36344048D01*
X73765238Y36296429D01*
X74003333Y36296429D01*
X74098571Y36248810D01*
X74574761Y36010715D02*
X74574761Y36677381D01*
X74574761Y36105953D02*
X74622380Y36058334D01*
X74717619Y36010715D01*
X74860476Y36010715D01*
X74955714Y36058334D01*
X75003333Y36153572D01*
X75003333Y36677381D01*
X75230000Y6192620D02*
X75706190Y6192620D01*
X75706190Y7192620D01*
X74896666Y6716429D02*
X74563333Y6716429D01*
X74420476Y6192620D02*
X74896666Y6192620D01*
X74896666Y7192620D01*
X74420476Y7192620D01*
X73991904Y6192620D02*
X73991904Y7192620D01*
X73753809Y7192620D01*
X73610952Y7145000D01*
X73515714Y7049762D01*
X73468095Y6954524D01*
X73420476Y6764048D01*
X73420476Y6621191D01*
X73468095Y6430715D01*
X73515714Y6335477D01*
X73610952Y6240239D01*
X73753809Y6192620D01*
X73991904Y6192620D01*
X72277619Y6240239D02*
X72134761Y6192620D01*
X71896666Y6192620D01*
X71801428Y6240239D01*
X71753809Y6287858D01*
X71706190Y6383096D01*
X71706190Y6478334D01*
X71753809Y6573572D01*
X71801428Y6621191D01*
X71896666Y6668810D01*
X72087142Y6716429D01*
X72182380Y6764048D01*
X72230000Y6811667D01*
X72277619Y6906905D01*
X72277619Y7002143D01*
X72230000Y7097381D01*
X72182380Y7145000D01*
X72087142Y7192620D01*
X71849047Y7192620D01*
X71706190Y7145000D01*
X71277619Y6859286D02*
X71277619Y5859286D01*
X71277619Y6811667D02*
X71182380Y6859286D01*
X70991904Y6859286D01*
X70896666Y6811667D01*
X70849047Y6764048D01*
X70801428Y6668810D01*
X70801428Y6383096D01*
X70849047Y6287858D01*
X70896666Y6240239D01*
X70991904Y6192620D01*
X71182380Y6192620D01*
X71277619Y6240239D01*
X70372857Y6192620D02*
X70372857Y7192620D01*
X69944285Y6192620D02*
X69944285Y6716429D01*
X69991904Y6811667D01*
X70087142Y6859286D01*
X70230000Y6859286D01*
X70325238Y6811667D01*
X70372857Y6764048D01*
X69087142Y6240239D02*
X69182380Y6192620D01*
X69372857Y6192620D01*
X69468095Y6240239D01*
X69515714Y6335477D01*
X69515714Y6716429D01*
X69468095Y6811667D01*
X69372857Y6859286D01*
X69182380Y6859286D01*
X69087142Y6811667D01*
X69039523Y6716429D01*
X69039523Y6621191D01*
X69515714Y6525953D01*
X68230000Y6240239D02*
X68325238Y6192620D01*
X68515714Y6192620D01*
X68610952Y6240239D01*
X68658571Y6335477D01*
X68658571Y6716429D01*
X68610952Y6811667D01*
X68515714Y6859286D01*
X68325238Y6859286D01*
X68230000Y6811667D01*
X68182380Y6716429D01*
X68182380Y6621191D01*
X68658571Y6525953D01*
X67753809Y6192620D02*
X67753809Y6859286D01*
X67753809Y6668810D02*
X67706190Y6764048D01*
X67658571Y6811667D01*
X67563333Y6859286D01*
X67468095Y6859286D01*
X66753809Y6240239D02*
X66849047Y6192620D01*
X67039523Y6192620D01*
X67134761Y6240239D01*
X67182380Y6335477D01*
X67182380Y6716429D01*
X67134761Y6811667D01*
X67039523Y6859286D01*
X66849047Y6859286D01*
X66753809Y6811667D01*
X66706190Y6716429D01*
X66706190Y6621191D01*
X67182380Y6525953D01*
X65515714Y6192620D02*
X65515714Y7192620D01*
X65515714Y6811667D02*
X65420476Y6859286D01*
X65230000Y6859286D01*
X65134761Y6811667D01*
X65087142Y6764048D01*
X65039523Y6668810D01*
X65039523Y6383096D01*
X65087142Y6287858D01*
X65134761Y6240239D01*
X65230000Y6192620D01*
X65420476Y6192620D01*
X65515714Y6240239D01*
X64468095Y6192620D02*
X64563333Y6240239D01*
X64610952Y6287858D01*
X64658571Y6383096D01*
X64658571Y6668810D01*
X64610952Y6764048D01*
X64563333Y6811667D01*
X64468095Y6859286D01*
X64325238Y6859286D01*
X64230000Y6811667D01*
X64182380Y6764048D01*
X64134761Y6668810D01*
X64134761Y6383096D01*
X64182380Y6287858D01*
X64230000Y6240239D01*
X64325238Y6192620D01*
X64468095Y6192620D01*
X63277619Y6192620D02*
X63277619Y6716429D01*
X63325238Y6811667D01*
X63420476Y6859286D01*
X63610952Y6859286D01*
X63706190Y6811667D01*
X63277619Y6240239D02*
X63372857Y6192620D01*
X63610952Y6192620D01*
X63706190Y6240239D01*
X63753809Y6335477D01*
X63753809Y6430715D01*
X63706190Y6525953D01*
X63610952Y6573572D01*
X63372857Y6573572D01*
X63277619Y6621191D01*
X62801428Y6192620D02*
X62801428Y6859286D01*
X62801428Y6668810D02*
X62753809Y6764048D01*
X62706190Y6811667D01*
X62610952Y6859286D01*
X62515714Y6859286D01*
X61753809Y6192620D02*
X61753809Y7192620D01*
X61753809Y6240239D02*
X61849047Y6192620D01*
X62039523Y6192620D01*
X62134761Y6240239D01*
X62182380Y6287858D01*
X62230000Y6383096D01*
X62230000Y6668810D01*
X62182380Y6764048D01*
X62134761Y6811667D01*
X62039523Y6859286D01*
X61849047Y6859286D01*
X61753809Y6811667D01*
X74491904Y4542620D02*
X74825238Y5018810D01*
X75063333Y4542620D02*
X75063333Y5542620D01*
X74682380Y5542620D01*
X74587142Y5495000D01*
X74539523Y5447381D01*
X74491904Y5352143D01*
X74491904Y5209286D01*
X74539523Y5114048D01*
X74587142Y5066429D01*
X74682380Y5018810D01*
X75063333Y5018810D01*
X73682380Y4590239D02*
X73777619Y4542620D01*
X73968095Y4542620D01*
X74063333Y4590239D01*
X74110952Y4685477D01*
X74110952Y5066429D01*
X74063333Y5161667D01*
X73968095Y5209286D01*
X73777619Y5209286D01*
X73682380Y5161667D01*
X73634761Y5066429D01*
X73634761Y4971191D01*
X74110952Y4875953D01*
X73301428Y5209286D02*
X73063333Y4542620D01*
X72825238Y5209286D01*
X72444285Y4637858D02*
X72396666Y4590239D01*
X72444285Y4542620D01*
X72491904Y4590239D01*
X72444285Y4637858D01*
X72444285Y4542620D01*
X71253809Y4828334D02*
X70777619Y4828334D01*
X71349047Y4542620D02*
X71015714Y5542620D01*
X70682380Y4542620D01*
X69587142Y4542620D02*
X69587142Y5542620D01*
X69587142Y5161667D02*
X69491904Y5209286D01*
X69301428Y5209286D01*
X69206190Y5161667D01*
X69158571Y5114048D01*
X69110952Y5018810D01*
X69110952Y4733096D01*
X69158571Y4637858D01*
X69206190Y4590239D01*
X69301428Y4542620D01*
X69491904Y4542620D01*
X69587142Y4590239D01*
X68777619Y5209286D02*
X68539523Y4542620D01*
X68301428Y5209286D02*
X68539523Y4542620D01*
X68634761Y4304524D01*
X68682380Y4256905D01*
X68777619Y4209286D01*
X67301428Y5542620D02*
X66730000Y5542620D01*
X67015714Y4542620D02*
X67015714Y5542620D01*
X65968095Y4542620D02*
X65968095Y5066429D01*
X66015714Y5161667D01*
X66110952Y5209286D01*
X66301428Y5209286D01*
X66396666Y5161667D01*
X65968095Y4590239D02*
X66063333Y4542620D01*
X66301428Y4542620D01*
X66396666Y4590239D01*
X66444285Y4685477D01*
X66444285Y4780715D01*
X66396666Y4875953D01*
X66301428Y4923572D01*
X66063333Y4923572D01*
X65968095Y4971191D01*
X65491904Y4542620D02*
X65491904Y5542620D01*
X65396666Y4923572D02*
X65110952Y4542620D01*
X65110952Y5209286D02*
X65491904Y4828334D01*
X64730000Y4590239D02*
X64587142Y4542620D01*
X64349047Y4542620D01*
X64253809Y4590239D01*
X64206190Y4637858D01*
X64158571Y4733096D01*
X64158571Y4828334D01*
X64206190Y4923572D01*
X64253809Y4971191D01*
X64349047Y5018810D01*
X64539523Y5066429D01*
X64634761Y5114048D01*
X64682380Y5161667D01*
X64730000Y5256905D01*
X64730000Y5352143D01*
X64682380Y5447381D01*
X64634761Y5495000D01*
X64539523Y5542620D01*
X64301428Y5542620D01*
X64158571Y5495000D01*
X63301428Y4542620D02*
X63301428Y5066429D01*
X63349047Y5161667D01*
X63444285Y5209286D01*
X63634761Y5209286D01*
X63730000Y5161667D01*
X63301428Y4590239D02*
X63396666Y4542620D01*
X63634761Y4542620D01*
X63730000Y4590239D01*
X63777619Y4685477D01*
X63777619Y4780715D01*
X63730000Y4875953D01*
X63634761Y4923572D01*
X63396666Y4923572D01*
X63301428Y4971191D01*
X62825238Y5209286D02*
X62825238Y4542620D01*
X62825238Y5114048D02*
X62777619Y5161667D01*
X62682380Y5209286D01*
X62539523Y5209286D01*
X62444285Y5161667D01*
X62396666Y5066429D01*
X62396666Y4542620D01*
X47630000Y6192620D02*
X48106190Y6192620D01*
X48106190Y7192620D01*
X47296666Y6716429D02*
X46963333Y6716429D01*
X46820476Y6192620D02*
X47296666Y6192620D01*
X47296666Y7192620D01*
X46820476Y7192620D01*
X46391904Y6192620D02*
X46391904Y7192620D01*
X46153809Y7192620D01*
X46010952Y7145000D01*
X45915714Y7049762D01*
X45868095Y6954524D01*
X45820476Y6764048D01*
X45820476Y6621191D01*
X45868095Y6430715D01*
X45915714Y6335477D01*
X46010952Y6240239D01*
X46153809Y6192620D01*
X46391904Y6192620D01*
X44677619Y6240239D02*
X44534761Y6192620D01*
X44296666Y6192620D01*
X44201428Y6240239D01*
X44153809Y6287858D01*
X44106190Y6383096D01*
X44106190Y6478334D01*
X44153809Y6573572D01*
X44201428Y6621191D01*
X44296666Y6668810D01*
X44487142Y6716429D01*
X44582380Y6764048D01*
X44630000Y6811667D01*
X44677619Y6906905D01*
X44677619Y7002143D01*
X44630000Y7097381D01*
X44582380Y7145000D01*
X44487142Y7192620D01*
X44249047Y7192620D01*
X44106190Y7145000D01*
X43677619Y6859286D02*
X43677619Y5859286D01*
X43677619Y6811667D02*
X43582380Y6859286D01*
X43391904Y6859286D01*
X43296666Y6811667D01*
X43249047Y6764048D01*
X43201428Y6668810D01*
X43201428Y6383096D01*
X43249047Y6287858D01*
X43296666Y6240239D01*
X43391904Y6192620D01*
X43582380Y6192620D01*
X43677619Y6240239D01*
X42772857Y6192620D02*
X42772857Y7192620D01*
X42344285Y6192620D02*
X42344285Y6716429D01*
X42391904Y6811667D01*
X42487142Y6859286D01*
X42630000Y6859286D01*
X42725238Y6811667D01*
X42772857Y6764048D01*
X41487142Y6240239D02*
X41582380Y6192620D01*
X41772857Y6192620D01*
X41868095Y6240239D01*
X41915714Y6335477D01*
X41915714Y6716429D01*
X41868095Y6811667D01*
X41772857Y6859286D01*
X41582380Y6859286D01*
X41487142Y6811667D01*
X41439523Y6716429D01*
X41439523Y6621191D01*
X41915714Y6525953D01*
X40630000Y6240239D02*
X40725238Y6192620D01*
X40915714Y6192620D01*
X41010952Y6240239D01*
X41058571Y6335477D01*
X41058571Y6716429D01*
X41010952Y6811667D01*
X40915714Y6859286D01*
X40725238Y6859286D01*
X40630000Y6811667D01*
X40582380Y6716429D01*
X40582380Y6621191D01*
X41058571Y6525953D01*
X40153809Y6192620D02*
X40153809Y6859286D01*
X40153809Y6668810D02*
X40106190Y6764048D01*
X40058571Y6811667D01*
X39963333Y6859286D01*
X39868095Y6859286D01*
X39153809Y6240239D02*
X39249047Y6192620D01*
X39439523Y6192620D01*
X39534761Y6240239D01*
X39582380Y6335477D01*
X39582380Y6716429D01*
X39534761Y6811667D01*
X39439523Y6859286D01*
X39249047Y6859286D01*
X39153809Y6811667D01*
X39106190Y6716429D01*
X39106190Y6621191D01*
X39582380Y6525953D01*
X37915714Y6192620D02*
X37915714Y7192620D01*
X37915714Y6811667D02*
X37820476Y6859286D01*
X37630000Y6859286D01*
X37534761Y6811667D01*
X37487142Y6764048D01*
X37439523Y6668810D01*
X37439523Y6383096D01*
X37487142Y6287858D01*
X37534761Y6240239D01*
X37630000Y6192620D01*
X37820476Y6192620D01*
X37915714Y6240239D01*
X36868095Y6192620D02*
X36963333Y6240239D01*
X37010952Y6287858D01*
X37058571Y6383096D01*
X37058571Y6668810D01*
X37010952Y6764048D01*
X36963333Y6811667D01*
X36868095Y6859286D01*
X36725238Y6859286D01*
X36630000Y6811667D01*
X36582380Y6764048D01*
X36534761Y6668810D01*
X36534761Y6383096D01*
X36582380Y6287858D01*
X36630000Y6240239D01*
X36725238Y6192620D01*
X36868095Y6192620D01*
X35677619Y6192620D02*
X35677619Y6716429D01*
X35725238Y6811667D01*
X35820476Y6859286D01*
X36010952Y6859286D01*
X36106190Y6811667D01*
X35677619Y6240239D02*
X35772857Y6192620D01*
X36010952Y6192620D01*
X36106190Y6240239D01*
X36153809Y6335477D01*
X36153809Y6430715D01*
X36106190Y6525953D01*
X36010952Y6573572D01*
X35772857Y6573572D01*
X35677619Y6621191D01*
X35201428Y6192620D02*
X35201428Y6859286D01*
X35201428Y6668810D02*
X35153809Y6764048D01*
X35106190Y6811667D01*
X35010952Y6859286D01*
X34915714Y6859286D01*
X34153809Y6192620D02*
X34153809Y7192620D01*
X34153809Y6240239D02*
X34249047Y6192620D01*
X34439523Y6192620D01*
X34534761Y6240239D01*
X34582380Y6287858D01*
X34630000Y6383096D01*
X34630000Y6668810D01*
X34582380Y6764048D01*
X34534761Y6811667D01*
X34439523Y6859286D01*
X34249047Y6859286D01*
X34153809Y6811667D01*
X46891904Y4542620D02*
X47225238Y5018810D01*
X47463333Y4542620D02*
X47463333Y5542620D01*
X47082380Y5542620D01*
X46987142Y5495000D01*
X46939523Y5447381D01*
X46891904Y5352143D01*
X46891904Y5209286D01*
X46939523Y5114048D01*
X46987142Y5066429D01*
X47082380Y5018810D01*
X47463333Y5018810D01*
X46082380Y4590239D02*
X46177619Y4542620D01*
X46368095Y4542620D01*
X46463333Y4590239D01*
X46510952Y4685477D01*
X46510952Y5066429D01*
X46463333Y5161667D01*
X46368095Y5209286D01*
X46177619Y5209286D01*
X46082380Y5161667D01*
X46034761Y5066429D01*
X46034761Y4971191D01*
X46510952Y4875953D01*
X45701428Y5209286D02*
X45463333Y4542620D01*
X45225238Y5209286D01*
X44844285Y4637858D02*
X44796666Y4590239D01*
X44844285Y4542620D01*
X44891904Y4590239D01*
X44844285Y4637858D01*
X44844285Y4542620D01*
X43653809Y4828334D02*
X43177619Y4828334D01*
X43749047Y4542620D02*
X43415714Y5542620D01*
X43082380Y4542620D01*
X41987142Y4542620D02*
X41987142Y5542620D01*
X41987142Y5161667D02*
X41891904Y5209286D01*
X41701428Y5209286D01*
X41606190Y5161667D01*
X41558571Y5114048D01*
X41510952Y5018810D01*
X41510952Y4733096D01*
X41558571Y4637858D01*
X41606190Y4590239D01*
X41701428Y4542620D01*
X41891904Y4542620D01*
X41987142Y4590239D01*
X41177619Y5209286D02*
X40939523Y4542620D01*
X40701428Y5209286D02*
X40939523Y4542620D01*
X41034761Y4304524D01*
X41082380Y4256905D01*
X41177619Y4209286D01*
X39701428Y5542620D02*
X39130000Y5542620D01*
X39415714Y4542620D02*
X39415714Y5542620D01*
X38368095Y4542620D02*
X38368095Y5066429D01*
X38415714Y5161667D01*
X38510952Y5209286D01*
X38701428Y5209286D01*
X38796666Y5161667D01*
X38368095Y4590239D02*
X38463333Y4542620D01*
X38701428Y4542620D01*
X38796666Y4590239D01*
X38844285Y4685477D01*
X38844285Y4780715D01*
X38796666Y4875953D01*
X38701428Y4923572D01*
X38463333Y4923572D01*
X38368095Y4971191D01*
X37891904Y4542620D02*
X37891904Y5542620D01*
X37796666Y4923572D02*
X37510952Y4542620D01*
X37510952Y5209286D02*
X37891904Y4828334D01*
X37130000Y4590239D02*
X36987142Y4542620D01*
X36749047Y4542620D01*
X36653809Y4590239D01*
X36606190Y4637858D01*
X36558571Y4733096D01*
X36558571Y4828334D01*
X36606190Y4923572D01*
X36653809Y4971191D01*
X36749047Y5018810D01*
X36939523Y5066429D01*
X37034761Y5114048D01*
X37082380Y5161667D01*
X37130000Y5256905D01*
X37130000Y5352143D01*
X37082380Y5447381D01*
X37034761Y5495000D01*
X36939523Y5542620D01*
X36701428Y5542620D01*
X36558571Y5495000D01*
X35701428Y4542620D02*
X35701428Y5066429D01*
X35749047Y5161667D01*
X35844285Y5209286D01*
X36034761Y5209286D01*
X36130000Y5161667D01*
X35701428Y4590239D02*
X35796666Y4542620D01*
X36034761Y4542620D01*
X36130000Y4590239D01*
X36177619Y4685477D01*
X36177619Y4780715D01*
X36130000Y4875953D01*
X36034761Y4923572D01*
X35796666Y4923572D01*
X35701428Y4971191D01*
X35225238Y5209286D02*
X35225238Y4542620D01*
X35225238Y5114048D02*
X35177619Y5161667D01*
X35082380Y5209286D01*
X34939523Y5209286D01*
X34844285Y5161667D01*
X34796666Y5066429D01*
X34796666Y4542620D01*
X20030000Y6192620D02*
X20506190Y6192620D01*
X20506190Y7192620D01*
X19696666Y6716429D02*
X19363333Y6716429D01*
X19220476Y6192620D02*
X19696666Y6192620D01*
X19696666Y7192620D01*
X19220476Y7192620D01*
X18791904Y6192620D02*
X18791904Y7192620D01*
X18553809Y7192620D01*
X18410952Y7145000D01*
X18315714Y7049762D01*
X18268095Y6954524D01*
X18220476Y6764048D01*
X18220476Y6621191D01*
X18268095Y6430715D01*
X18315714Y6335477D01*
X18410952Y6240239D01*
X18553809Y6192620D01*
X18791904Y6192620D01*
X17077619Y6240239D02*
X16934761Y6192620D01*
X16696666Y6192620D01*
X16601428Y6240239D01*
X16553809Y6287858D01*
X16506190Y6383096D01*
X16506190Y6478334D01*
X16553809Y6573572D01*
X16601428Y6621191D01*
X16696666Y6668810D01*
X16887142Y6716429D01*
X16982380Y6764048D01*
X17030000Y6811667D01*
X17077619Y6906905D01*
X17077619Y7002143D01*
X17030000Y7097381D01*
X16982380Y7145000D01*
X16887142Y7192620D01*
X16649047Y7192620D01*
X16506190Y7145000D01*
X16077619Y6859286D02*
X16077619Y5859286D01*
X16077619Y6811667D02*
X15982380Y6859286D01*
X15791904Y6859286D01*
X15696666Y6811667D01*
X15649047Y6764048D01*
X15601428Y6668810D01*
X15601428Y6383096D01*
X15649047Y6287858D01*
X15696666Y6240239D01*
X15791904Y6192620D01*
X15982380Y6192620D01*
X16077619Y6240239D01*
X15172857Y6192620D02*
X15172857Y7192620D01*
X14744285Y6192620D02*
X14744285Y6716429D01*
X14791904Y6811667D01*
X14887142Y6859286D01*
X15030000Y6859286D01*
X15125238Y6811667D01*
X15172857Y6764048D01*
X13887142Y6240239D02*
X13982380Y6192620D01*
X14172857Y6192620D01*
X14268095Y6240239D01*
X14315714Y6335477D01*
X14315714Y6716429D01*
X14268095Y6811667D01*
X14172857Y6859286D01*
X13982380Y6859286D01*
X13887142Y6811667D01*
X13839523Y6716429D01*
X13839523Y6621191D01*
X14315714Y6525953D01*
X13030000Y6240239D02*
X13125238Y6192620D01*
X13315714Y6192620D01*
X13410952Y6240239D01*
X13458571Y6335477D01*
X13458571Y6716429D01*
X13410952Y6811667D01*
X13315714Y6859286D01*
X13125238Y6859286D01*
X13030000Y6811667D01*
X12982380Y6716429D01*
X12982380Y6621191D01*
X13458571Y6525953D01*
X12553809Y6192620D02*
X12553809Y6859286D01*
X12553809Y6668810D02*
X12506190Y6764048D01*
X12458571Y6811667D01*
X12363333Y6859286D01*
X12268095Y6859286D01*
X11553809Y6240239D02*
X11649047Y6192620D01*
X11839523Y6192620D01*
X11934761Y6240239D01*
X11982380Y6335477D01*
X11982380Y6716429D01*
X11934761Y6811667D01*
X11839523Y6859286D01*
X11649047Y6859286D01*
X11553809Y6811667D01*
X11506190Y6716429D01*
X11506190Y6621191D01*
X11982380Y6525953D01*
X10315714Y6192620D02*
X10315714Y7192620D01*
X10315714Y6811667D02*
X10220476Y6859286D01*
X10030000Y6859286D01*
X9934761Y6811667D01*
X9887142Y6764048D01*
X9839523Y6668810D01*
X9839523Y6383096D01*
X9887142Y6287858D01*
X9934761Y6240239D01*
X10030000Y6192620D01*
X10220476Y6192620D01*
X10315714Y6240239D01*
X9268095Y6192620D02*
X9363333Y6240239D01*
X9410952Y6287858D01*
X9458571Y6383096D01*
X9458571Y6668810D01*
X9410952Y6764048D01*
X9363333Y6811667D01*
X9268095Y6859286D01*
X9125238Y6859286D01*
X9030000Y6811667D01*
X8982380Y6764048D01*
X8934761Y6668810D01*
X8934761Y6383096D01*
X8982380Y6287858D01*
X9030000Y6240239D01*
X9125238Y6192620D01*
X9268095Y6192620D01*
X8077619Y6192620D02*
X8077619Y6716429D01*
X8125238Y6811667D01*
X8220476Y6859286D01*
X8410952Y6859286D01*
X8506190Y6811667D01*
X8077619Y6240239D02*
X8172857Y6192620D01*
X8410952Y6192620D01*
X8506190Y6240239D01*
X8553809Y6335477D01*
X8553809Y6430715D01*
X8506190Y6525953D01*
X8410952Y6573572D01*
X8172857Y6573572D01*
X8077619Y6621191D01*
X7601428Y6192620D02*
X7601428Y6859286D01*
X7601428Y6668810D02*
X7553809Y6764048D01*
X7506190Y6811667D01*
X7410952Y6859286D01*
X7315714Y6859286D01*
X6553809Y6192620D02*
X6553809Y7192620D01*
X6553809Y6240239D02*
X6649047Y6192620D01*
X6839523Y6192620D01*
X6934761Y6240239D01*
X6982380Y6287858D01*
X7030000Y6383096D01*
X7030000Y6668810D01*
X6982380Y6764048D01*
X6934761Y6811667D01*
X6839523Y6859286D01*
X6649047Y6859286D01*
X6553809Y6811667D01*
X19291904Y4542620D02*
X19625238Y5018810D01*
X19863333Y4542620D02*
X19863333Y5542620D01*
X19482380Y5542620D01*
X19387142Y5495000D01*
X19339523Y5447381D01*
X19291904Y5352143D01*
X19291904Y5209286D01*
X19339523Y5114048D01*
X19387142Y5066429D01*
X19482380Y5018810D01*
X19863333Y5018810D01*
X18482380Y4590239D02*
X18577619Y4542620D01*
X18768095Y4542620D01*
X18863333Y4590239D01*
X18910952Y4685477D01*
X18910952Y5066429D01*
X18863333Y5161667D01*
X18768095Y5209286D01*
X18577619Y5209286D01*
X18482380Y5161667D01*
X18434761Y5066429D01*
X18434761Y4971191D01*
X18910952Y4875953D01*
X18101428Y5209286D02*
X17863333Y4542620D01*
X17625238Y5209286D01*
X17244285Y4637858D02*
X17196666Y4590239D01*
X17244285Y4542620D01*
X17291904Y4590239D01*
X17244285Y4637858D01*
X17244285Y4542620D01*
X16053809Y4828334D02*
X15577619Y4828334D01*
X16149047Y4542620D02*
X15815714Y5542620D01*
X15482380Y4542620D01*
X14387142Y4542620D02*
X14387142Y5542620D01*
X14387142Y5161667D02*
X14291904Y5209286D01*
X14101428Y5209286D01*
X14006190Y5161667D01*
X13958571Y5114048D01*
X13910952Y5018810D01*
X13910952Y4733096D01*
X13958571Y4637858D01*
X14006190Y4590239D01*
X14101428Y4542620D01*
X14291904Y4542620D01*
X14387142Y4590239D01*
X13577619Y5209286D02*
X13339523Y4542620D01*
X13101428Y5209286D02*
X13339523Y4542620D01*
X13434761Y4304524D01*
X13482380Y4256905D01*
X13577619Y4209286D01*
X12101428Y5542620D02*
X11530000Y5542620D01*
X11815714Y4542620D02*
X11815714Y5542620D01*
X10768095Y4542620D02*
X10768095Y5066429D01*
X10815714Y5161667D01*
X10910952Y5209286D01*
X11101428Y5209286D01*
X11196666Y5161667D01*
X10768095Y4590239D02*
X10863333Y4542620D01*
X11101428Y4542620D01*
X11196666Y4590239D01*
X11244285Y4685477D01*
X11244285Y4780715D01*
X11196666Y4875953D01*
X11101428Y4923572D01*
X10863333Y4923572D01*
X10768095Y4971191D01*
X10291904Y4542620D02*
X10291904Y5542620D01*
X10196666Y4923572D02*
X9910952Y4542620D01*
X9910952Y5209286D02*
X10291904Y4828334D01*
X9530000Y4590239D02*
X9387142Y4542620D01*
X9149047Y4542620D01*
X9053809Y4590239D01*
X9006190Y4637858D01*
X8958571Y4733096D01*
X8958571Y4828334D01*
X9006190Y4923572D01*
X9053809Y4971191D01*
X9149047Y5018810D01*
X9339523Y5066429D01*
X9434761Y5114048D01*
X9482380Y5161667D01*
X9530000Y5256905D01*
X9530000Y5352143D01*
X9482380Y5447381D01*
X9434761Y5495000D01*
X9339523Y5542620D01*
X9101428Y5542620D01*
X8958571Y5495000D01*
X8101428Y4542620D02*
X8101428Y5066429D01*
X8149047Y5161667D01*
X8244285Y5209286D01*
X8434761Y5209286D01*
X8530000Y5161667D01*
X8101428Y4590239D02*
X8196666Y4542620D01*
X8434761Y4542620D01*
X8530000Y4590239D01*
X8577619Y4685477D01*
X8577619Y4780715D01*
X8530000Y4875953D01*
X8434761Y4923572D01*
X8196666Y4923572D01*
X8101428Y4971191D01*
X7625238Y5209286D02*
X7625238Y4542620D01*
X7625238Y5114048D02*
X7577619Y5161667D01*
X7482380Y5209286D01*
X7339523Y5209286D01*
X7244285Y5161667D01*
X7196666Y5066429D01*
X7196666Y4542620D01*
%LPC*%
D11*
X-300000Y1110000D03*
X82500000Y1110000D03*
X-300000Y40110000D03*
X82500000Y40110000D03*
X54900000Y1110000D03*
X27300000Y1210000D03*
X27300000Y40110000D03*
X54900000Y40110000D03*
D12*
X5470000Y39200000D03*
X33070000Y39200000D03*
X60670000Y39200000D03*
X76730000Y2020000D03*
X49130000Y2020000D03*
X21360000Y39280000D03*
X48960000Y39280000D03*
X76560000Y39280000D03*
X60840000Y1940000D03*
X33240000Y1940000D03*
D13*
X15490000Y39160000D03*
X13490000Y39160000D03*
D12*
X11490000Y39160000D03*
D13*
X43090000Y39160000D03*
X41090000Y39160000D03*
D12*
X39090000Y39160000D03*
D13*
X70690000Y39160000D03*
X68690000Y39160000D03*
D12*
X66690000Y39160000D03*
D13*
X66710000Y2060000D03*
X68710000Y2060000D03*
D12*
X70710000Y2060000D03*
D13*
X39110000Y2060000D03*
X41110000Y2060000D03*
D12*
X43110000Y2060000D03*
D14*
G36*
X13798774Y25080804D02*
G01*
X14580804Y26181226D01*
X15681226Y25399196D01*
X14899196Y24298774D01*
X13798774Y25080804D01*
G37*
G36*
X41398774Y25080804D02*
G01*
X42180804Y26181226D01*
X43281226Y25399196D01*
X42499196Y24298774D01*
X41398774Y25080804D01*
G37*
G36*
X68998774Y25080804D02*
G01*
X69780804Y26181226D01*
X70881226Y25399196D01*
X70099196Y24298774D01*
X68998774Y25080804D01*
G37*
G36*
X68401226Y16139196D02*
G01*
X67619196Y15038774D01*
X66518774Y15820804D01*
X67300804Y16921226D01*
X68401226Y16139196D01*
G37*
G36*
X40801226Y16139196D02*
G01*
X40019196Y15038774D01*
X38918774Y15820804D01*
X39700804Y16921226D01*
X40801226Y16139196D01*
G37*
G36*
X12060804Y24318774D02*
G01*
X11278774Y25419196D01*
X12379196Y26201226D01*
X13161226Y25100804D01*
X12060804Y24318774D01*
G37*
G36*
X39660804Y24318774D02*
G01*
X38878774Y25419196D01*
X39979196Y26201226D01*
X40761226Y25100804D01*
X39660804Y24318774D01*
G37*
G36*
X67260804Y24318774D02*
G01*
X66478774Y25419196D01*
X67579196Y26201226D01*
X68361226Y25100804D01*
X67260804Y24318774D01*
G37*
G36*
X70139196Y16901226D02*
G01*
X70921226Y15800804D01*
X69820804Y15018774D01*
X69038774Y16119196D01*
X70139196Y16901226D01*
G37*
G36*
X42539196Y16901226D02*
G01*
X43321226Y15800804D01*
X42220804Y15018774D01*
X41438774Y16119196D01*
X42539196Y16901226D01*
G37*
G36*
G01*
X17681226Y30500760D02*
X17681226Y30500760D01*
G75*
G02*
X18622452Y30659956I550211J-391015D01*
G01*
X18622452Y30659956D01*
G75*
G02*
X18781648Y29718730I-391015J-550211D01*
G01*
X18781648Y29718730D01*
G75*
G02*
X17840422Y29559534I-550211J391015D01*
G01*
X17840422Y29559534D01*
G75*
G02*
X17681226Y30500760I391015J550211D01*
G01*
G37*
G36*
G01*
X18839789Y32131015D02*
X18839789Y32131015D01*
G75*
G02*
X19781015Y32290211I550211J-391015D01*
G01*
X19781015Y32290211D01*
G75*
G02*
X19940211Y31348985I-391015J-550211D01*
G01*
X19940211Y31348985D01*
G75*
G02*
X18998985Y31189789I-550211J391015D01*
G01*
X18998985Y31189789D01*
G75*
G02*
X18839789Y32131015I391015J550211D01*
G01*
G37*
G36*
X19607336Y33211060D02*
G01*
X20389366Y34311482D01*
X21489788Y33529452D01*
X20707758Y32429030D01*
X19607336Y33211060D01*
G37*
G36*
G01*
X45281226Y30500760D02*
X45281226Y30500760D01*
G75*
G02*
X46222452Y30659956I550211J-391015D01*
G01*
X46222452Y30659956D01*
G75*
G02*
X46381648Y29718730I-391015J-550211D01*
G01*
X46381648Y29718730D01*
G75*
G02*
X45440422Y29559534I-550211J391015D01*
G01*
X45440422Y29559534D01*
G75*
G02*
X45281226Y30500760I391015J550211D01*
G01*
G37*
G36*
G01*
X46439789Y32131015D02*
X46439789Y32131015D01*
G75*
G02*
X47381015Y32290211I550211J-391015D01*
G01*
X47381015Y32290211D01*
G75*
G02*
X47540211Y31348985I-391015J-550211D01*
G01*
X47540211Y31348985D01*
G75*
G02*
X46598985Y31189789I-550211J391015D01*
G01*
X46598985Y31189789D01*
G75*
G02*
X46439789Y32131015I391015J550211D01*
G01*
G37*
G36*
X47207336Y33211060D02*
G01*
X47989366Y34311482D01*
X49089788Y33529452D01*
X48307758Y32429030D01*
X47207336Y33211060D01*
G37*
G36*
G01*
X72881226Y30500760D02*
X72881226Y30500760D01*
G75*
G02*
X73822452Y30659956I550211J-391015D01*
G01*
X73822452Y30659956D01*
G75*
G02*
X73981648Y29718730I-391015J-550211D01*
G01*
X73981648Y29718730D01*
G75*
G02*
X73040422Y29559534I-550211J391015D01*
G01*
X73040422Y29559534D01*
G75*
G02*
X72881226Y30500760I391015J550211D01*
G01*
G37*
G36*
G01*
X74039789Y32131015D02*
X74039789Y32131015D01*
G75*
G02*
X74981015Y32290211I550211J-391015D01*
G01*
X74981015Y32290211D01*
G75*
G02*
X75140211Y31348985I-391015J-550211D01*
G01*
X75140211Y31348985D01*
G75*
G02*
X74198985Y31189789I-550211J391015D01*
G01*
X74198985Y31189789D01*
G75*
G02*
X74039789Y32131015I391015J550211D01*
G01*
G37*
G36*
X74807336Y33211060D02*
G01*
X75589366Y34311482D01*
X76689788Y33529452D01*
X75907758Y32429030D01*
X74807336Y33211060D01*
G37*
G36*
G01*
X64518774Y10719240D02*
X64518774Y10719240D01*
G75*
G02*
X63577548Y10560044I-550211J391015D01*
G01*
X63577548Y10560044D01*
G75*
G02*
X63418352Y11501270I391015J550211D01*
G01*
X63418352Y11501270D01*
G75*
G02*
X64359578Y11660466I550211J-391015D01*
G01*
X64359578Y11660466D01*
G75*
G02*
X64518774Y10719240I-391015J-550211D01*
G01*
G37*
G36*
G01*
X63360211Y9088985D02*
X63360211Y9088985D01*
G75*
G02*
X62418985Y8929789I-550211J391015D01*
G01*
X62418985Y8929789D01*
G75*
G02*
X62259789Y9871015I391015J550211D01*
G01*
X62259789Y9871015D01*
G75*
G02*
X63201015Y10030211I550211J-391015D01*
G01*
X63201015Y10030211D01*
G75*
G02*
X63360211Y9088985I-391015J-550211D01*
G01*
G37*
G36*
X62592664Y8008940D02*
G01*
X61810634Y6908518D01*
X60710212Y7690548D01*
X61492242Y8790970D01*
X62592664Y8008940D01*
G37*
G36*
G01*
X36918774Y10719240D02*
X36918774Y10719240D01*
G75*
G02*
X35977548Y10560044I-550211J391015D01*
G01*
X35977548Y10560044D01*
G75*
G02*
X35818352Y11501270I391015J550211D01*
G01*
X35818352Y11501270D01*
G75*
G02*
X36759578Y11660466I550211J-391015D01*
G01*
X36759578Y11660466D01*
G75*
G02*
X36918774Y10719240I-391015J-550211D01*
G01*
G37*
G36*
G01*
X35760211Y9088985D02*
X35760211Y9088985D01*
G75*
G02*
X34818985Y8929789I-550211J391015D01*
G01*
X34818985Y8929789D01*
G75*
G02*
X34659789Y9871015I391015J550211D01*
G01*
X34659789Y9871015D01*
G75*
G02*
X35601015Y10030211I550211J-391015D01*
G01*
X35601015Y10030211D01*
G75*
G02*
X35760211Y9088985I-391015J-550211D01*
G01*
G37*
G36*
X34992664Y8008940D02*
G01*
X34210634Y6908518D01*
X33110212Y7690548D01*
X33892242Y8790970D01*
X34992664Y8008940D01*
G37*
G36*
X23048774Y38160804D02*
G01*
X23830804Y39261226D01*
X24931226Y38479196D01*
X24149196Y37378774D01*
X23048774Y38160804D01*
G37*
G36*
X50648774Y38160804D02*
G01*
X51430804Y39261226D01*
X52531226Y38479196D01*
X51749196Y37378774D01*
X50648774Y38160804D01*
G37*
G36*
X78248774Y38160804D02*
G01*
X79030804Y39261226D01*
X80131226Y38479196D01*
X79349196Y37378774D01*
X78248774Y38160804D01*
G37*
G36*
X59151226Y3059196D02*
G01*
X58369196Y1958774D01*
X57268774Y2740804D01*
X58050804Y3841226D01*
X59151226Y3059196D01*
G37*
G36*
X31551226Y3059196D02*
G01*
X30769196Y1958774D01*
X29668774Y2740804D01*
X30450804Y3841226D01*
X31551226Y3059196D01*
G37*
D15*
X13500000Y28510000D03*
X41100000Y28510000D03*
X68700000Y28510000D03*
X68700000Y12710000D03*
X41100000Y12710000D03*
D14*
G36*
X2740804Y37388774D02*
G01*
X1958774Y38489196D01*
X3059196Y39271226D01*
X3841226Y38170804D01*
X2740804Y37388774D01*
G37*
G36*
X30340804Y37388774D02*
G01*
X29558774Y38489196D01*
X30659196Y39271226D01*
X31441226Y38170804D01*
X30340804Y37388774D01*
G37*
G36*
X57940804Y37388774D02*
G01*
X57158774Y38489196D01*
X58259196Y39271226D01*
X59041226Y38170804D01*
X57940804Y37388774D01*
G37*
G36*
X79459196Y3831226D02*
G01*
X80241226Y2730804D01*
X79140804Y1948774D01*
X78358774Y3049196D01*
X79459196Y3831226D01*
G37*
G36*
X51859196Y3831226D02*
G01*
X52641226Y2730804D01*
X51540804Y1948774D01*
X50758774Y3049196D01*
X51859196Y3831226D01*
G37*
G36*
X6242242Y32489030D02*
G01*
X5460212Y33589452D01*
X6560634Y34371482D01*
X7342664Y33271060D01*
X6242242Y32489030D01*
G37*
G36*
G01*
X7009789Y31408985D02*
X7009789Y31408985D01*
G75*
G02*
X7168985Y32350211I550211J391015D01*
G01*
X7168985Y32350211D01*
G75*
G02*
X8110211Y32191015I391015J-550211D01*
G01*
X8110211Y32191015D01*
G75*
G02*
X7951015Y31249789I-550211J-391015D01*
G01*
X7951015Y31249789D01*
G75*
G02*
X7009789Y31408985I-391015J550211D01*
G01*
G37*
G36*
G01*
X8168352Y29778730D02*
X8168352Y29778730D01*
G75*
G02*
X8327548Y30719956I550211J391015D01*
G01*
X8327548Y30719956D01*
G75*
G02*
X9268774Y30560760I391015J-550211D01*
G01*
X9268774Y30560760D01*
G75*
G02*
X9109578Y29619534I-550211J-391015D01*
G01*
X9109578Y29619534D01*
G75*
G02*
X8168352Y29778730I-391015J550211D01*
G01*
G37*
G36*
X33842242Y32489030D02*
G01*
X33060212Y33589452D01*
X34160634Y34371482D01*
X34942664Y33271060D01*
X33842242Y32489030D01*
G37*
G36*
G01*
X34609789Y31408985D02*
X34609789Y31408985D01*
G75*
G02*
X34768985Y32350211I550211J391015D01*
G01*
X34768985Y32350211D01*
G75*
G02*
X35710211Y32191015I391015J-550211D01*
G01*
X35710211Y32191015D01*
G75*
G02*
X35551015Y31249789I-550211J-391015D01*
G01*
X35551015Y31249789D01*
G75*
G02*
X34609789Y31408985I-391015J550211D01*
G01*
G37*
G36*
G01*
X35768352Y29778730D02*
X35768352Y29778730D01*
G75*
G02*
X35927548Y30719956I550211J391015D01*
G01*
X35927548Y30719956D01*
G75*
G02*
X36868774Y30560760I391015J-550211D01*
G01*
X36868774Y30560760D01*
G75*
G02*
X36709578Y29619534I-550211J-391015D01*
G01*
X36709578Y29619534D01*
G75*
G02*
X35768352Y29778730I-391015J550211D01*
G01*
G37*
G36*
X61442242Y32489030D02*
G01*
X60660212Y33589452D01*
X61760634Y34371482D01*
X62542664Y33271060D01*
X61442242Y32489030D01*
G37*
G36*
G01*
X62209789Y31408985D02*
X62209789Y31408985D01*
G75*
G02*
X62368985Y32350211I550211J391015D01*
G01*
X62368985Y32350211D01*
G75*
G02*
X63310211Y32191015I391015J-550211D01*
G01*
X63310211Y32191015D01*
G75*
G02*
X63151015Y31249789I-550211J-391015D01*
G01*
X63151015Y31249789D01*
G75*
G02*
X62209789Y31408985I-391015J550211D01*
G01*
G37*
G36*
G01*
X63368352Y29778730D02*
X63368352Y29778730D01*
G75*
G02*
X63527548Y30719956I550211J391015D01*
G01*
X63527548Y30719956D01*
G75*
G02*
X64468774Y30560760I391015J-550211D01*
G01*
X64468774Y30560760D01*
G75*
G02*
X64309578Y29619534I-550211J-391015D01*
G01*
X64309578Y29619534D01*
G75*
G02*
X63368352Y29778730I-391015J550211D01*
G01*
G37*
G36*
X75957758Y8730970D02*
G01*
X76739788Y7630548D01*
X75639366Y6848518D01*
X74857336Y7948940D01*
X75957758Y8730970D01*
G37*
G36*
G01*
X75190211Y9811015D02*
X75190211Y9811015D01*
G75*
G02*
X75031015Y8869789I-550211J-391015D01*
G01*
X75031015Y8869789D01*
G75*
G02*
X74089789Y9028985I-391015J550211D01*
G01*
X74089789Y9028985D01*
G75*
G02*
X74248985Y9970211I550211J391015D01*
G01*
X74248985Y9970211D01*
G75*
G02*
X75190211Y9811015I391015J-550211D01*
G01*
G37*
G36*
G01*
X74031648Y11441270D02*
X74031648Y11441270D01*
G75*
G02*
X73872452Y10500044I-550211J-391015D01*
G01*
X73872452Y10500044D01*
G75*
G02*
X72931226Y10659240I-391015J550211D01*
G01*
X72931226Y10659240D01*
G75*
G02*
X73090422Y11600466I550211J391015D01*
G01*
X73090422Y11600466D01*
G75*
G02*
X74031648Y11441270I391015J-550211D01*
G01*
G37*
G36*
X48357758Y8730970D02*
G01*
X49139788Y7630548D01*
X48039366Y6848518D01*
X47257336Y7948940D01*
X48357758Y8730970D01*
G37*
G36*
G01*
X47590211Y9811015D02*
X47590211Y9811015D01*
G75*
G02*
X47431015Y8869789I-550211J-391015D01*
G01*
X47431015Y8869789D01*
G75*
G02*
X46489789Y9028985I-391015J550211D01*
G01*
X46489789Y9028985D01*
G75*
G02*
X46648985Y9970211I550211J391015D01*
G01*
X46648985Y9970211D01*
G75*
G02*
X47590211Y9811015I391015J-550211D01*
G01*
G37*
G36*
G01*
X46431648Y11441270D02*
X46431648Y11441270D01*
G75*
G02*
X46272452Y10500044I-550211J-391015D01*
G01*
X46272452Y10500044D01*
G75*
G02*
X45331226Y10659240I-391015J550211D01*
G01*
X45331226Y10659240D01*
G75*
G02*
X45490422Y11600466I550211J391015D01*
G01*
X45490422Y11600466D01*
G75*
G02*
X46431648Y11441270I391015J-550211D01*
G01*
G37*
D15*
X13500000Y12710000D03*
D14*
G36*
X3951226Y3059196D02*
G01*
X3169196Y1958774D01*
X2068774Y2740804D01*
X2850804Y3841226D01*
X3951226Y3059196D01*
G37*
G36*
X7392664Y8008940D02*
G01*
X6610634Y6908518D01*
X5510212Y7690548D01*
X6292242Y8790970D01*
X7392664Y8008940D01*
G37*
G36*
G01*
X8160211Y9088985D02*
X8160211Y9088985D01*
G75*
G02*
X7218985Y8929789I-550211J391015D01*
G01*
X7218985Y8929789D01*
G75*
G02*
X7059789Y9871015I391015J550211D01*
G01*
X7059789Y9871015D01*
G75*
G02*
X8001015Y10030211I550211J-391015D01*
G01*
X8001015Y10030211D01*
G75*
G02*
X8160211Y9088985I-391015J-550211D01*
G01*
G37*
G36*
G01*
X9318774Y10719240D02*
X9318774Y10719240D01*
G75*
G02*
X8377548Y10560044I-550211J391015D01*
G01*
X8377548Y10560044D01*
G75*
G02*
X8218352Y11501270I391015J550211D01*
G01*
X8218352Y11501270D01*
G75*
G02*
X9159578Y11660466I550211J-391015D01*
G01*
X9159578Y11660466D01*
G75*
G02*
X9318774Y10719240I-391015J-550211D01*
G01*
G37*
G36*
X13201226Y16139196D02*
G01*
X12419196Y15038774D01*
X11318774Y15820804D01*
X12100804Y16921226D01*
X13201226Y16139196D01*
G37*
G36*
X14939196Y16901226D02*
G01*
X15721226Y15800804D01*
X14620804Y15018774D01*
X13838774Y16119196D01*
X14939196Y16901226D01*
G37*
G36*
G01*
X18831648Y11441270D02*
X18831648Y11441270D01*
G75*
G02*
X18672452Y10500044I-550211J-391015D01*
G01*
X18672452Y10500044D01*
G75*
G02*
X17731226Y10659240I-391015J550211D01*
G01*
X17731226Y10659240D01*
G75*
G02*
X17890422Y11600466I550211J391015D01*
G01*
X17890422Y11600466D01*
G75*
G02*
X18831648Y11441270I391015J-550211D01*
G01*
G37*
G36*
G01*
X19990211Y9811015D02*
X19990211Y9811015D01*
G75*
G02*
X19831015Y8869789I-550211J-391015D01*
G01*
X19831015Y8869789D01*
G75*
G02*
X18889789Y9028985I-391015J550211D01*
G01*
X18889789Y9028985D01*
G75*
G02*
X19048985Y9970211I550211J391015D01*
G01*
X19048985Y9970211D01*
G75*
G02*
X19990211Y9811015I391015J-550211D01*
G01*
G37*
G36*
X20757758Y8730970D02*
G01*
X21539788Y7630548D01*
X20439366Y6848518D01*
X19657336Y7948940D01*
X20757758Y8730970D01*
G37*
G36*
X24259196Y3831226D02*
G01*
X25041226Y2730804D01*
X23940804Y1948774D01*
X23158774Y3049196D01*
X24259196Y3831226D01*
G37*
D12*
X21530000Y2020000D03*
X15510000Y2060000D03*
D13*
X13510000Y2060000D03*
X11510000Y2060000D03*
D12*
X5640000Y1940000D03*
M02*
