G04 #@! TF.GenerationSoftware,KiCad,Pcbnew,(5.1.12)-1*
G04 #@! TF.CreationDate,2023-06-19T18:47:52+09:00*
G04 #@! TF.ProjectId,LED_Sphere_3V-TypeA-Panelized,4c45445f-5370-4686-9572-655f33562d54,rev?*
G04 #@! TF.SameCoordinates,PX5f5e100PY68e7780*
G04 #@! TF.FileFunction,Profile,NP*
%FSLAX46Y46*%
G04 Gerber Fmt 4.6, Leading zero omitted, Abs format (unit mm)*
G04 Created by KiCad (PCBNEW (5.1.12)-1) date 2023-06-19 18:47:52*
%MOMM*%
%LPD*%
G01*
G04 APERTURE LIST*
G04 #@! TA.AperFunction,Profile*
%ADD10C,0.050000*%
G04 #@! TD*
G04 APERTURE END LIST*
D10*
X-5600000Y61220000D02*
X-5600000Y-20000000D01*
X-5600000Y61220000D02*
X87800000Y61220000D01*
X87800000Y61220000D02*
X87800000Y-20000000D01*
X-5600000Y-20000000D02*
X87800000Y-20000000D01*
X-600000Y39110000D02*
X-600000Y2110000D01*
X-600000Y2110000D02*
X0Y2110000D01*
X-600000Y39110000D02*
X0Y39110000D01*
X82800000Y2110000D02*
X82800000Y39110000D01*
X82800000Y2110000D02*
X82200000Y2110000D01*
X82800000Y39110000D02*
X82200000Y39110000D01*
X27000000Y2110000D02*
X27600000Y2110000D01*
X54600000Y2110000D02*
X55200000Y2110000D01*
X27000000Y39110000D02*
X27600000Y39110000D01*
X54600000Y39110000D02*
X55200000Y39110000D01*
X69280000Y20310000D02*
X69280000Y20910000D01*
X68120000Y20910000D02*
X68120000Y20310000D01*
X41680000Y20910000D02*
X41680000Y20310000D01*
X40520000Y20910000D02*
X40520000Y20310000D01*
X14080000Y20910000D02*
X14080000Y20310000D01*
X12920000Y20310000D02*
X12920000Y20910000D01*
X27000000Y39110000D02*
X14080000Y20910000D01*
X54600000Y39110000D02*
X41680000Y20910000D01*
X82200000Y39110000D02*
X69280000Y20910000D01*
X55200000Y2110000D02*
X68120000Y20310000D01*
X27600000Y2110000D02*
X40520000Y20310000D01*
X0Y39110000D02*
X12920000Y20910000D01*
X27600000Y39110000D02*
X40520000Y20910000D01*
X55200000Y39110000D02*
X68120000Y20910000D01*
X82200000Y2110000D02*
X69280000Y20310000D01*
X54600000Y2110000D02*
X41680000Y20310000D01*
X27000000Y2110000D02*
X14080000Y20310000D01*
X0Y2110000D02*
X12920000Y20310000D01*
M02*
