G04 #@! TF.GenerationSoftware,KiCad,Pcbnew,(5.1.12)-1*
G04 #@! TF.CreationDate,2023-06-19T18:47:52+09:00*
G04 #@! TF.ProjectId,LED_Sphere_3V-TypeA-Panelized,4c45445f-5370-4686-9572-655f33562d54,rev?*
G04 #@! TF.SameCoordinates,PX5f5e100PY68e7780*
G04 #@! TF.FileFunction,Other,ECO2*
%FSLAX46Y46*%
G04 Gerber Fmt 4.6, Leading zero omitted, Abs format (unit mm)*
G04 Created by KiCad (PCBNEW (5.1.12)-1) date 2023-06-19 18:47:52*
%MOMM*%
%LPD*%
G01*
G04 APERTURE LIST*
%ADD10C,0.150000*%
G04 APERTURE END LIST*
D10*
X89738571Y194286D02*
X88976666Y-91428D01*
X89738571Y-377142D01*
X90214761Y-91428D02*
X90976666Y-91428D01*
X92071904Y527620D02*
X92405238Y-472380D01*
X92738571Y527620D01*
X93071904Y-91428D02*
X93833809Y-91428D01*
X94881428Y-377142D02*
X94833809Y-424761D01*
X94690952Y-472380D01*
X94595714Y-472380D01*
X94452857Y-424761D01*
X94357619Y-329523D01*
X94310000Y-234285D01*
X94262380Y-43809D01*
X94262380Y99048D01*
X94310000Y289524D01*
X94357619Y384762D01*
X94452857Y480000D01*
X94595714Y527620D01*
X94690952Y527620D01*
X94833809Y480000D01*
X94881428Y432381D01*
X95310000Y527620D02*
X95310000Y-281904D01*
X95357619Y-377142D01*
X95405238Y-424761D01*
X95500476Y-472380D01*
X95690952Y-472380D01*
X95786190Y-424761D01*
X95833809Y-377142D01*
X95881428Y-281904D01*
X95881428Y527620D01*
X96214761Y527620D02*
X96786190Y527620D01*
X96500476Y-472380D02*
X96500476Y527620D01*
X89448571Y41454286D02*
X88686666Y41168572D01*
X89448571Y40882858D01*
X89924761Y41168572D02*
X90686666Y41168572D01*
X91781904Y41787620D02*
X92115238Y40787620D01*
X92448571Y41787620D01*
X92781904Y41168572D02*
X93543809Y41168572D01*
X94591428Y40882858D02*
X94543809Y40835239D01*
X94400952Y40787620D01*
X94305714Y40787620D01*
X94162857Y40835239D01*
X94067619Y40930477D01*
X94020000Y41025715D01*
X93972380Y41216191D01*
X93972380Y41359048D01*
X94020000Y41549524D01*
X94067619Y41644762D01*
X94162857Y41740000D01*
X94305714Y41787620D01*
X94400952Y41787620D01*
X94543809Y41740000D01*
X94591428Y41692381D01*
X95020000Y41787620D02*
X95020000Y40978096D01*
X95067619Y40882858D01*
X95115238Y40835239D01*
X95210476Y40787620D01*
X95400952Y40787620D01*
X95496190Y40835239D01*
X95543809Y40882858D01*
X95591428Y40978096D01*
X95591428Y41787620D01*
X95924761Y41787620D02*
X96496190Y41787620D01*
X96210476Y40787620D02*
X96210476Y41787620D01*
X87800000Y0D02*
X-5600000Y0D01*
X87800000Y41220000D02*
X-5600000Y41220000D01*
M02*
