G04 #@! TF.GenerationSoftware,KiCad,Pcbnew,(5.1.12)-1*
G04 #@! TF.CreationDate,2023-06-19T18:47:51+09:00*
G04 #@! TF.ProjectId,LED_Sphere_3V-TypeA-Panelized,4c45445f-5370-4686-9572-655f33562d54,rev?*
G04 #@! TF.SameCoordinates,PX5f5e100PY68e7780*
G04 #@! TF.FileFunction,Legend,Top*
G04 #@! TF.FilePolarity,Positive*
%FSLAX46Y46*%
G04 Gerber Fmt 4.6, Leading zero omitted, Abs format (unit mm)*
G04 Created by KiCad (PCBNEW (5.1.12)-1) date 2023-06-19 18:47:51*
%MOMM*%
%LPD*%
G01*
G04 APERTURE LIST*
%ADD10C,0.150000*%
%ADD11C,0.120000*%
%ADD12C,0.600000*%
%ADD13C,0.100000*%
%ADD14R,1.350000X1.350000*%
%ADD15R,1.000000X1.500000*%
%ADD16O,1.350000X1.350000*%
%ADD17R,1.500000X1.000000*%
%ADD18C,2.700000*%
G04 APERTURE END LIST*
D10*
X19102857Y40735715D02*
X19340952Y40735715D01*
X19340952Y39307143D01*
X19102857Y39307143D01*
X18388571Y39878572D02*
X18245714Y39926191D01*
X18198095Y39973810D01*
X18150476Y40069048D01*
X18150476Y40211905D01*
X18198095Y40307143D01*
X18245714Y40354762D01*
X18340952Y40402381D01*
X18721904Y40402381D01*
X18721904Y39402381D01*
X18388571Y39402381D01*
X18293333Y39450000D01*
X18245714Y39497620D01*
X18198095Y39592858D01*
X18198095Y39688096D01*
X18245714Y39783334D01*
X18293333Y39830953D01*
X18388571Y39878572D01*
X18721904Y39878572D01*
X17817142Y40735715D02*
X17579047Y40735715D01*
X17579047Y39307143D01*
X17817142Y39307143D01*
X46702857Y40735715D02*
X46940952Y40735715D01*
X46940952Y39307143D01*
X46702857Y39307143D01*
X45988571Y39878572D02*
X45845714Y39926191D01*
X45798095Y39973810D01*
X45750476Y40069048D01*
X45750476Y40211905D01*
X45798095Y40307143D01*
X45845714Y40354762D01*
X45940952Y40402381D01*
X46321904Y40402381D01*
X46321904Y39402381D01*
X45988571Y39402381D01*
X45893333Y39450000D01*
X45845714Y39497620D01*
X45798095Y39592858D01*
X45798095Y39688096D01*
X45845714Y39783334D01*
X45893333Y39830953D01*
X45988571Y39878572D01*
X46321904Y39878572D01*
X45417142Y40735715D02*
X45179047Y40735715D01*
X45179047Y39307143D01*
X45417142Y39307143D01*
X74302857Y40735715D02*
X74540952Y40735715D01*
X74540952Y39307143D01*
X74302857Y39307143D01*
X73588571Y39878572D02*
X73445714Y39926191D01*
X73398095Y39973810D01*
X73350476Y40069048D01*
X73350476Y40211905D01*
X73398095Y40307143D01*
X73445714Y40354762D01*
X73540952Y40402381D01*
X73921904Y40402381D01*
X73921904Y39402381D01*
X73588571Y39402381D01*
X73493333Y39450000D01*
X73445714Y39497620D01*
X73398095Y39592858D01*
X73398095Y39688096D01*
X73445714Y39783334D01*
X73493333Y39830953D01*
X73588571Y39878572D01*
X73921904Y39878572D01*
X73017142Y40735715D02*
X72779047Y40735715D01*
X72779047Y39307143D01*
X73017142Y39307143D01*
X63097142Y484286D02*
X62859047Y484286D01*
X62859047Y1912858D01*
X63097142Y1912858D01*
X63811428Y1341429D02*
X63954285Y1293810D01*
X64001904Y1246191D01*
X64049523Y1150953D01*
X64049523Y1008096D01*
X64001904Y912858D01*
X63954285Y865239D01*
X63859047Y817620D01*
X63478095Y817620D01*
X63478095Y1817620D01*
X63811428Y1817620D01*
X63906666Y1770000D01*
X63954285Y1722381D01*
X64001904Y1627143D01*
X64001904Y1531905D01*
X63954285Y1436667D01*
X63906666Y1389048D01*
X63811428Y1341429D01*
X63478095Y1341429D01*
X64382857Y484286D02*
X64620952Y484286D01*
X64620952Y1912858D01*
X64382857Y1912858D01*
X35497142Y484286D02*
X35259047Y484286D01*
X35259047Y1912858D01*
X35497142Y1912858D01*
X36211428Y1341429D02*
X36354285Y1293810D01*
X36401904Y1246191D01*
X36449523Y1150953D01*
X36449523Y1008096D01*
X36401904Y912858D01*
X36354285Y865239D01*
X36259047Y817620D01*
X35878095Y817620D01*
X35878095Y1817620D01*
X36211428Y1817620D01*
X36306666Y1770000D01*
X36354285Y1722381D01*
X36401904Y1627143D01*
X36401904Y1531905D01*
X36354285Y1436667D01*
X36306666Y1389048D01*
X36211428Y1341429D01*
X35878095Y1341429D01*
X36782857Y484286D02*
X37020952Y484286D01*
X37020952Y1912858D01*
X36782857Y1912858D01*
X14011428Y24085715D02*
X14249523Y24085715D01*
X14249523Y22657143D01*
X14011428Y22657143D01*
X13678095Y23466667D02*
X13201904Y23466667D01*
X13773333Y23752381D02*
X13440000Y22752381D01*
X13106666Y23752381D01*
X12868571Y24085715D02*
X12630476Y24085715D01*
X12630476Y22657143D01*
X12868571Y22657143D01*
X41611428Y24085715D02*
X41849523Y24085715D01*
X41849523Y22657143D01*
X41611428Y22657143D01*
X41278095Y23466667D02*
X40801904Y23466667D01*
X41373333Y23752381D02*
X41040000Y22752381D01*
X40706666Y23752381D01*
X40468571Y24085715D02*
X40230476Y24085715D01*
X40230476Y22657143D01*
X40468571Y22657143D01*
X69211428Y24085715D02*
X69449523Y24085715D01*
X69449523Y22657143D01*
X69211428Y22657143D01*
X68878095Y23466667D02*
X68401904Y23466667D01*
X68973333Y23752381D02*
X68640000Y22752381D01*
X68306666Y23752381D01*
X68068571Y24085715D02*
X67830476Y24085715D01*
X67830476Y22657143D01*
X68068571Y22657143D01*
X68188571Y17134286D02*
X67950476Y17134286D01*
X67950476Y18562858D01*
X68188571Y18562858D01*
X68521904Y17753334D02*
X68998095Y17753334D01*
X68426666Y17467620D02*
X68760000Y18467620D01*
X69093333Y17467620D01*
X69331428Y17134286D02*
X69569523Y17134286D01*
X69569523Y18562858D01*
X69331428Y18562858D01*
X40588571Y17134286D02*
X40350476Y17134286D01*
X40350476Y18562858D01*
X40588571Y18562858D01*
X40921904Y17753334D02*
X41398095Y17753334D01*
X40826666Y17467620D02*
X41160000Y18467620D01*
X41493333Y17467620D01*
X41731428Y17134286D02*
X41969523Y17134286D01*
X41969523Y18562858D01*
X41731428Y18562858D01*
X12988571Y17134286D02*
X12750476Y17134286D01*
X12750476Y18562858D01*
X12988571Y18562858D01*
X13321904Y17753334D02*
X13798095Y17753334D01*
X13226666Y17467620D02*
X13560000Y18467620D01*
X13893333Y17467620D01*
X14131428Y17134286D02*
X14369523Y17134286D01*
X14369523Y18562858D01*
X14131428Y18562858D01*
X7897142Y484286D02*
X7659047Y484286D01*
X7659047Y1912858D01*
X7897142Y1912858D01*
X8611428Y1341429D02*
X8754285Y1293810D01*
X8801904Y1246191D01*
X8849523Y1150953D01*
X8849523Y1008096D01*
X8801904Y912858D01*
X8754285Y865239D01*
X8659047Y817620D01*
X8278095Y817620D01*
X8278095Y1817620D01*
X8611428Y1817620D01*
X8706666Y1770000D01*
X8754285Y1722381D01*
X8801904Y1627143D01*
X8801904Y1531905D01*
X8754285Y1436667D01*
X8706666Y1389048D01*
X8611428Y1341429D01*
X8278095Y1341429D01*
X9182857Y484286D02*
X9420952Y484286D01*
X9420952Y1912858D01*
X9182857Y1912858D01*
D11*
X9372065Y34422772D02*
X8882988Y34075204D01*
X7944134Y37640460D02*
X9566121Y35358102D01*
X6507935Y37417228D02*
X6997012Y37764796D01*
X7935866Y34199540D02*
X6313879Y36481898D01*
X6342842Y36441141D02*
G75*
G02*
X6507935Y37417228I570590J405497D01*
G01*
X6997012Y37764796D02*
G75*
G02*
X7973098Y37599704I405497J-570589D01*
G01*
X9537158Y35398859D02*
G75*
G02*
X9372065Y34422772I-570590J-405497D01*
G01*
X8882988Y34075204D02*
G75*
G02*
X7906902Y34240296I-405497J570589D01*
G01*
X36972065Y34422772D02*
X36482988Y34075204D01*
X35544134Y37640460D02*
X37166121Y35358102D01*
X34107935Y37417228D02*
X34597012Y37764796D01*
X35535866Y34199540D02*
X33913879Y36481898D01*
X33942842Y36441141D02*
G75*
G02*
X34107935Y37417228I570590J405497D01*
G01*
X34597012Y37764796D02*
G75*
G02*
X35573098Y37599704I405497J-570589D01*
G01*
X37137158Y35398859D02*
G75*
G02*
X36972065Y34422772I-570590J-405497D01*
G01*
X36482988Y34075204D02*
G75*
G02*
X35506902Y34240296I-405497J570589D01*
G01*
X64572065Y34422772D02*
X64082988Y34075204D01*
X63144134Y37640460D02*
X64766121Y35358102D01*
X61707935Y37417228D02*
X62197012Y37764796D01*
X63135866Y34199540D02*
X61513879Y36481898D01*
X61542842Y36441141D02*
G75*
G02*
X61707935Y37417228I570590J405497D01*
G01*
X62197012Y37764796D02*
G75*
G02*
X63173098Y37599704I405497J-570589D01*
G01*
X64737158Y35398859D02*
G75*
G02*
X64572065Y34422772I-570590J-405497D01*
G01*
X64082988Y34075204D02*
G75*
G02*
X63106902Y34240296I-405497J570589D01*
G01*
X72827935Y6797228D02*
X73317012Y7144796D01*
X74255866Y3579540D02*
X72633879Y5861898D01*
X75692065Y3802772D02*
X75202988Y3455204D01*
X74264134Y7020460D02*
X75886121Y4738102D01*
X75857158Y4778859D02*
G75*
G02*
X75692065Y3802772I-570590J-405497D01*
G01*
X75202988Y3455204D02*
G75*
G02*
X74226902Y3620296I-405497J570589D01*
G01*
X72662842Y5821141D02*
G75*
G02*
X72827935Y6797228I570590J405497D01*
G01*
X73317012Y7144796D02*
G75*
G02*
X74293098Y6979704I405497J-570589D01*
G01*
X45227935Y6797228D02*
X45717012Y7144796D01*
X46655866Y3579540D02*
X45033879Y5861898D01*
X48092065Y3802772D02*
X47602988Y3455204D01*
X46664134Y7020460D02*
X48286121Y4738102D01*
X48257158Y4778859D02*
G75*
G02*
X48092065Y3802772I-570590J-405497D01*
G01*
X47602988Y3455204D02*
G75*
G02*
X46626902Y3620296I-405497J570589D01*
G01*
X45062842Y5821141D02*
G75*
G02*
X45227935Y6797228I570590J405497D01*
G01*
X45717012Y7144796D02*
G75*
G02*
X46693098Y6979704I405497J-570589D01*
G01*
X6530000Y40260000D02*
X6530000Y39200000D01*
X5470000Y40260000D02*
X6530000Y40260000D01*
X4470000Y40260000D02*
X4470000Y38140000D01*
X4470000Y38140000D02*
X4410000Y38140000D01*
X4470000Y40260000D02*
X4410000Y40260000D01*
X4410000Y40260000D02*
X4410000Y38140000D01*
X34130000Y40260000D02*
X34130000Y39200000D01*
X33070000Y40260000D02*
X34130000Y40260000D01*
X32070000Y40260000D02*
X32070000Y38140000D01*
X32070000Y38140000D02*
X32010000Y38140000D01*
X32070000Y40260000D02*
X32010000Y40260000D01*
X32010000Y40260000D02*
X32010000Y38140000D01*
X61730000Y40260000D02*
X61730000Y39200000D01*
X60670000Y40260000D02*
X61730000Y40260000D01*
X59670000Y40260000D02*
X59670000Y38140000D01*
X59670000Y38140000D02*
X59610000Y38140000D01*
X59670000Y40260000D02*
X59610000Y40260000D01*
X59610000Y40260000D02*
X59610000Y38140000D01*
X75670000Y960000D02*
X75670000Y2020000D01*
X76730000Y960000D02*
X75670000Y960000D01*
X77730000Y960000D02*
X77730000Y3080000D01*
X77730000Y3080000D02*
X77790000Y3080000D01*
X77730000Y960000D02*
X77790000Y960000D01*
X77790000Y960000D02*
X77790000Y3080000D01*
X48070000Y960000D02*
X48070000Y2020000D01*
X49130000Y960000D02*
X48070000Y960000D01*
X50130000Y960000D02*
X50130000Y3080000D01*
X50130000Y3080000D02*
X50190000Y3080000D01*
X50130000Y960000D02*
X50190000Y960000D01*
X50190000Y960000D02*
X50190000Y3080000D01*
X20876121Y36871898D02*
X19254134Y34589540D01*
X18307012Y34465204D02*
X17817935Y34812772D01*
X17623879Y35748102D02*
X19245866Y38030460D01*
X20192988Y38154796D02*
X20682065Y37807228D01*
X20682065Y37807227D02*
G75*
G02*
X20847157Y36831141I-405497J-570589D01*
G01*
X19216902Y37989704D02*
G75*
G02*
X20192988Y38154796I570589J-405497D01*
G01*
X17817935Y34812773D02*
G75*
G02*
X17652843Y35788859I405497J570589D01*
G01*
X19283098Y34630296D02*
G75*
G02*
X18307012Y34465204I-570589J405497D01*
G01*
X48476121Y36871898D02*
X46854134Y34589540D01*
X45907012Y34465204D02*
X45417935Y34812772D01*
X45223879Y35748102D02*
X46845866Y38030460D01*
X47792988Y38154796D02*
X48282065Y37807228D01*
X48282065Y37807227D02*
G75*
G02*
X48447157Y36831141I-405497J-570589D01*
G01*
X46816902Y37989704D02*
G75*
G02*
X47792988Y38154796I570589J-405497D01*
G01*
X45417935Y34812773D02*
G75*
G02*
X45252843Y35788859I405497J570589D01*
G01*
X46883098Y34630296D02*
G75*
G02*
X45907012Y34465204I-570589J405497D01*
G01*
X76076121Y36871898D02*
X74454134Y34589540D01*
X73507012Y34465204D02*
X73017935Y34812772D01*
X72823879Y35748102D02*
X74445866Y38030460D01*
X75392988Y38154796D02*
X75882065Y37807228D01*
X75882065Y37807227D02*
G75*
G02*
X76047157Y36831141I-405497J-570589D01*
G01*
X74416902Y37989704D02*
G75*
G02*
X75392988Y38154796I570589J-405497D01*
G01*
X73017935Y34812773D02*
G75*
G02*
X72852843Y35788859I405497J570589D01*
G01*
X74483098Y34630296D02*
G75*
G02*
X73507012Y34465204I-570589J405497D01*
G01*
X61323879Y4348102D02*
X62945866Y6630460D01*
X63892988Y6754796D02*
X64382065Y6407228D01*
X64576121Y5471898D02*
X62954134Y3189540D01*
X62007012Y3065204D02*
X61517935Y3412772D01*
X61517935Y3412773D02*
G75*
G02*
X61352843Y4388859I405497J570589D01*
G01*
X62983098Y3230296D02*
G75*
G02*
X62007012Y3065204I-570589J405497D01*
G01*
X64382065Y6407227D02*
G75*
G02*
X64547157Y5431141I-405497J-570589D01*
G01*
X62916902Y6589704D02*
G75*
G02*
X63892988Y6754796I570589J-405497D01*
G01*
X33723879Y4348102D02*
X35345866Y6630460D01*
X36292988Y6754796D02*
X36782065Y6407228D01*
X36976121Y5471898D02*
X35354134Y3189540D01*
X34407012Y3065204D02*
X33917935Y3412772D01*
X33917935Y3412773D02*
G75*
G02*
X33752843Y4388859I405497J570589D01*
G01*
X35383098Y3230296D02*
G75*
G02*
X34407012Y3065204I-570589J405497D01*
G01*
X36782065Y6407227D02*
G75*
G02*
X36947157Y5431141I-405497J-570589D01*
G01*
X35316902Y6589704D02*
G75*
G02*
X36292988Y6754796I570589J-405497D01*
G01*
X14920000Y36500000D02*
X12120000Y36500000D01*
X11470000Y37200000D02*
X11470000Y37800000D01*
X12120000Y38500000D02*
X14920000Y38500000D01*
X15570000Y37800000D02*
X15570000Y37200000D01*
X15570000Y37200000D02*
G75*
G02*
X14870000Y36500000I-700000J0D01*
G01*
X14870000Y38500000D02*
G75*
G02*
X15570000Y37800000I0J-700000D01*
G01*
X11470000Y37800000D02*
G75*
G02*
X12170000Y38500000I700000J0D01*
G01*
X12170000Y36500000D02*
G75*
G02*
X11470000Y37200000I0J700000D01*
G01*
X42520000Y36500000D02*
X39720000Y36500000D01*
X39070000Y37200000D02*
X39070000Y37800000D01*
X39720000Y38500000D02*
X42520000Y38500000D01*
X43170000Y37800000D02*
X43170000Y37200000D01*
X43170000Y37200000D02*
G75*
G02*
X42470000Y36500000I-700000J0D01*
G01*
X42470000Y38500000D02*
G75*
G02*
X43170000Y37800000I0J-700000D01*
G01*
X39070000Y37800000D02*
G75*
G02*
X39770000Y38500000I700000J0D01*
G01*
X39770000Y36500000D02*
G75*
G02*
X39070000Y37200000I0J700000D01*
G01*
X70120000Y36500000D02*
X67320000Y36500000D01*
X66670000Y37200000D02*
X66670000Y37800000D01*
X67320000Y38500000D02*
X70120000Y38500000D01*
X70770000Y37800000D02*
X70770000Y37200000D01*
X70770000Y37200000D02*
G75*
G02*
X70070000Y36500000I-700000J0D01*
G01*
X70070000Y38500000D02*
G75*
G02*
X70770000Y37800000I0J-700000D01*
G01*
X66670000Y37800000D02*
G75*
G02*
X67370000Y38500000I700000J0D01*
G01*
X67370000Y36500000D02*
G75*
G02*
X66670000Y37200000I0J700000D01*
G01*
X67280000Y4720000D02*
X70080000Y4720000D01*
X70730000Y4020000D02*
X70730000Y3420000D01*
X70080000Y2720000D02*
X67280000Y2720000D01*
X66630000Y3420000D02*
X66630000Y4020000D01*
X66630000Y4020000D02*
G75*
G02*
X67330000Y4720000I700000J0D01*
G01*
X67330000Y2720000D02*
G75*
G02*
X66630000Y3420000I0J700000D01*
G01*
X70730000Y3420000D02*
G75*
G02*
X70030000Y2720000I-700000J0D01*
G01*
X70030000Y4720000D02*
G75*
G02*
X70730000Y4020000I0J-700000D01*
G01*
X39680000Y4720000D02*
X42480000Y4720000D01*
X43130000Y4020000D02*
X43130000Y3420000D01*
X42480000Y2720000D02*
X39680000Y2720000D01*
X39030000Y3420000D02*
X39030000Y4020000D01*
X39030000Y4020000D02*
G75*
G02*
X39730000Y4720000I700000J0D01*
G01*
X39730000Y2720000D02*
G75*
G02*
X39030000Y3420000I0J700000D01*
G01*
X43130000Y3420000D02*
G75*
G02*
X42430000Y2720000I-700000J0D01*
G01*
X42430000Y4720000D02*
G75*
G02*
X43130000Y4020000I0J-700000D01*
G01*
X22420000Y40340000D02*
X20300000Y40340000D01*
X22420000Y40280000D02*
X22420000Y40340000D01*
X20300000Y40280000D02*
X20300000Y40340000D01*
X22420000Y40280000D02*
X20300000Y40280000D01*
X22420000Y39280000D02*
X22420000Y38220000D01*
X22420000Y38220000D02*
X21360000Y38220000D01*
X50020000Y40340000D02*
X47900000Y40340000D01*
X50020000Y40280000D02*
X50020000Y40340000D01*
X47900000Y40280000D02*
X47900000Y40340000D01*
X50020000Y40280000D02*
X47900000Y40280000D01*
X50020000Y39280000D02*
X50020000Y38220000D01*
X50020000Y38220000D02*
X48960000Y38220000D01*
X77620000Y40340000D02*
X75500000Y40340000D01*
X77620000Y40280000D02*
X77620000Y40340000D01*
X75500000Y40280000D02*
X75500000Y40340000D01*
X77620000Y40280000D02*
X75500000Y40280000D01*
X77620000Y39280000D02*
X77620000Y38220000D01*
X77620000Y38220000D02*
X76560000Y38220000D01*
X59780000Y880000D02*
X61900000Y880000D01*
X59780000Y940000D02*
X59780000Y880000D01*
X61900000Y940000D02*
X61900000Y880000D01*
X59780000Y940000D02*
X61900000Y940000D01*
X59780000Y1940000D02*
X59780000Y3000000D01*
X59780000Y3000000D02*
X60840000Y3000000D01*
X32180000Y880000D02*
X34300000Y880000D01*
X32180000Y940000D02*
X32180000Y880000D01*
X34300000Y940000D02*
X34300000Y880000D01*
X32180000Y940000D02*
X34300000Y940000D01*
X32180000Y1940000D02*
X32180000Y3000000D01*
X32180000Y3000000D02*
X33240000Y3000000D01*
X16550000Y38100000D02*
X16550000Y40220000D01*
X12490000Y38100000D02*
X16550000Y38100000D01*
X12490000Y40220000D02*
X16550000Y40220000D01*
X12490000Y38100000D02*
X12490000Y40220000D01*
X11490000Y38100000D02*
X10430000Y38100000D01*
X10430000Y38100000D02*
X10430000Y39160000D01*
X44150000Y38100000D02*
X44150000Y40220000D01*
X40090000Y38100000D02*
X44150000Y38100000D01*
X40090000Y40220000D02*
X44150000Y40220000D01*
X40090000Y38100000D02*
X40090000Y40220000D01*
X39090000Y38100000D02*
X38030000Y38100000D01*
X38030000Y38100000D02*
X38030000Y39160000D01*
X71750000Y38100000D02*
X71750000Y40220000D01*
X67690000Y38100000D02*
X71750000Y38100000D01*
X67690000Y40220000D02*
X71750000Y40220000D01*
X67690000Y38100000D02*
X67690000Y40220000D01*
X66690000Y38100000D02*
X65630000Y38100000D01*
X65630000Y38100000D02*
X65630000Y39160000D01*
X65650000Y3120000D02*
X65650000Y1000000D01*
X69710000Y3120000D02*
X65650000Y3120000D01*
X69710000Y1000000D02*
X65650000Y1000000D01*
X69710000Y3120000D02*
X69710000Y1000000D01*
X70710000Y3120000D02*
X71770000Y3120000D01*
X71770000Y3120000D02*
X71770000Y2060000D01*
X38050000Y3120000D02*
X38050000Y1000000D01*
X42110000Y3120000D02*
X38050000Y3120000D01*
X42110000Y1000000D02*
X38050000Y1000000D01*
X42110000Y3120000D02*
X42110000Y1000000D01*
X43110000Y3120000D02*
X44170000Y3120000D01*
X44170000Y3120000D02*
X44170000Y2060000D01*
X13261926Y24990003D02*
X14989997Y23761926D01*
X13296683Y25038910D02*
X13261926Y24990003D01*
X15024754Y23810834D02*
X14989997Y23761926D01*
X13296683Y25038910D02*
X15024754Y23810834D01*
X13875965Y25854038D02*
X14490003Y26718074D01*
X14490003Y26718074D02*
X15354038Y26104035D01*
X40861926Y24990003D02*
X42589997Y23761926D01*
X40896683Y25038910D02*
X40861926Y24990003D01*
X42624754Y23810834D02*
X42589997Y23761926D01*
X40896683Y25038910D02*
X42624754Y23810834D01*
X41475965Y25854038D02*
X42090003Y26718074D01*
X42090003Y26718074D02*
X42954038Y26104035D01*
X68461926Y24990003D02*
X70189997Y23761926D01*
X68496683Y25038910D02*
X68461926Y24990003D01*
X70224754Y23810834D02*
X70189997Y23761926D01*
X68496683Y25038910D02*
X70224754Y23810834D01*
X69075965Y25854038D02*
X69690003Y26718074D01*
X69690003Y26718074D02*
X70554038Y26104035D01*
X68938074Y16229997D02*
X67210003Y17458074D01*
X68903317Y16181090D02*
X68938074Y16229997D01*
X67175246Y17409166D02*
X67210003Y17458074D01*
X68903317Y16181090D02*
X67175246Y17409166D01*
X68324035Y15365962D02*
X67709997Y14501926D01*
X67709997Y14501926D02*
X66845962Y15115965D01*
X41338074Y16229997D02*
X39610003Y17458074D01*
X41303317Y16181090D02*
X41338074Y16229997D01*
X39575246Y17409166D02*
X39610003Y17458074D01*
X41303317Y16181090D02*
X39575246Y17409166D01*
X40724035Y15365962D02*
X40109997Y14501926D01*
X40109997Y14501926D02*
X39245962Y15115965D01*
X21692849Y36070843D02*
X21855720Y36300024D01*
X22524280Y35479976D02*
X22687151Y35709157D01*
X49292849Y36070843D02*
X49455720Y36300024D01*
X50124280Y35479976D02*
X50287151Y35709157D01*
X76892849Y36070843D02*
X77055720Y36300024D01*
X77724280Y35479976D02*
X77887151Y35709157D01*
X60507151Y5149157D02*
X60344280Y4919976D01*
X59675720Y5740024D02*
X59512849Y5510843D01*
X32907151Y5149157D02*
X32744280Y4919976D01*
X32075720Y5740024D02*
X31912849Y5510843D01*
X10741926Y25509997D02*
X11605962Y26124035D01*
X11355965Y24645962D02*
X10741926Y25509997D01*
X11935246Y23830834D02*
X13663317Y25058910D01*
X13663317Y25058910D02*
X13698074Y25010003D01*
X11935246Y23830834D02*
X11970003Y23781926D01*
X11970003Y23781926D02*
X13698074Y25010003D01*
X38341926Y25509997D02*
X39205962Y26124035D01*
X38955965Y24645962D02*
X38341926Y25509997D01*
X39535246Y23830834D02*
X41263317Y25058910D01*
X41263317Y25058910D02*
X41298074Y25010003D01*
X39535246Y23830834D02*
X39570003Y23781926D01*
X39570003Y23781926D02*
X41298074Y25010003D01*
X65941926Y25509997D02*
X66805962Y26124035D01*
X66555965Y24645962D02*
X65941926Y25509997D01*
X67135246Y23830834D02*
X68863317Y25058910D01*
X68863317Y25058910D02*
X68898074Y25010003D01*
X67135246Y23830834D02*
X67170003Y23781926D01*
X67170003Y23781926D02*
X68898074Y25010003D01*
X71458074Y15710003D02*
X70594038Y15095965D01*
X70844035Y16574038D02*
X71458074Y15710003D01*
X70264754Y17389166D02*
X68536683Y16161090D01*
X68536683Y16161090D02*
X68501926Y16209997D01*
X70264754Y17389166D02*
X70229997Y17438074D01*
X70229997Y17438074D02*
X68501926Y16209997D01*
X43858074Y15710003D02*
X42994038Y15095965D01*
X43244035Y16574038D02*
X43858074Y15710003D01*
X42664754Y17389166D02*
X40936683Y16161090D01*
X40936683Y16161090D02*
X40901926Y16209997D01*
X42664754Y17389166D02*
X42629997Y17438074D01*
X42629997Y17438074D02*
X40901926Y16209997D01*
X16753364Y29859747D02*
X18481435Y28631671D01*
X19105245Y33169166D02*
X16753364Y29859747D01*
X20833316Y31941090D02*
X18481435Y28631671D01*
X19105245Y33169166D02*
X20833316Y31941090D01*
X19684527Y33984294D02*
X20298565Y34848330D01*
X20298565Y34848330D02*
X21162600Y34234291D01*
X44353364Y29859747D02*
X46081435Y28631671D01*
X46705245Y33169166D02*
X44353364Y29859747D01*
X48433316Y31941090D02*
X46081435Y28631671D01*
X46705245Y33169166D02*
X48433316Y31941090D01*
X47284527Y33984294D02*
X47898565Y34848330D01*
X47898565Y34848330D02*
X48762600Y34234291D01*
X71953364Y29859747D02*
X73681435Y28631671D01*
X74305245Y33169166D02*
X71953364Y29859747D01*
X76033316Y31941090D02*
X73681435Y28631671D01*
X74305245Y33169166D02*
X76033316Y31941090D01*
X74884527Y33984294D02*
X75498565Y34848330D01*
X75498565Y34848330D02*
X76362600Y34234291D01*
X65446636Y11360253D02*
X63718565Y12588329D01*
X63094755Y8050834D02*
X65446636Y11360253D01*
X61366684Y9278910D02*
X63718565Y12588329D01*
X63094755Y8050834D02*
X61366684Y9278910D01*
X62515473Y7235706D02*
X61901435Y6371670D01*
X61901435Y6371670D02*
X61037400Y6985709D01*
X37846636Y11360253D02*
X36118565Y12588329D01*
X35494755Y8050834D02*
X37846636Y11360253D01*
X33766684Y9278910D02*
X36118565Y12588329D01*
X35494755Y8050834D02*
X33766684Y9278910D01*
X34915473Y7235706D02*
X34301435Y6371670D01*
X34301435Y6371670D02*
X33437400Y6985709D01*
X23740003Y39798074D02*
X24604038Y39184035D01*
X23125965Y38934038D02*
X23740003Y39798074D01*
X22546683Y38118910D02*
X24274754Y36890834D01*
X24274754Y36890834D02*
X24239997Y36841926D01*
X22546683Y38118910D02*
X22511926Y38070003D01*
X22511926Y38070003D02*
X24239997Y36841926D01*
X51340003Y39798074D02*
X52204038Y39184035D01*
X50725965Y38934038D02*
X51340003Y39798074D01*
X50146683Y38118910D02*
X51874754Y36890834D01*
X51874754Y36890834D02*
X51839997Y36841926D01*
X50146683Y38118910D02*
X50111926Y38070003D01*
X50111926Y38070003D02*
X51839997Y36841926D01*
X78940003Y39798074D02*
X79804038Y39184035D01*
X78325965Y38934038D02*
X78940003Y39798074D01*
X77746683Y38118910D02*
X79474754Y36890834D01*
X79474754Y36890834D02*
X79439997Y36841926D01*
X77746683Y38118910D02*
X77711926Y38070003D01*
X77711926Y38070003D02*
X79439997Y36841926D01*
X58459997Y1421926D02*
X57595962Y2035965D01*
X59074035Y2285962D02*
X58459997Y1421926D01*
X59653317Y3101090D02*
X57925246Y4329166D01*
X57925246Y4329166D02*
X57960003Y4378074D01*
X59653317Y3101090D02*
X59688074Y3149997D01*
X59688074Y3149997D02*
X57960003Y4378074D01*
X30859997Y1421926D02*
X29995962Y2035965D01*
X31474035Y2285962D02*
X30859997Y1421926D01*
X32053317Y3101090D02*
X30325246Y4329166D01*
X30325246Y4329166D02*
X30360003Y4378074D01*
X32053317Y3101090D02*
X32088074Y3149997D01*
X32088074Y3149997D02*
X30360003Y4378074D01*
X17150000Y30720000D02*
X9850000Y30720000D01*
X17150000Y36220000D02*
X9850000Y36220000D01*
X9850000Y36220000D02*
X9850000Y35070000D01*
X44750000Y30720000D02*
X37450000Y30720000D01*
X44750000Y36220000D02*
X37450000Y36220000D01*
X37450000Y36220000D02*
X37450000Y35070000D01*
X72350000Y30720000D02*
X65050000Y30720000D01*
X72350000Y36220000D02*
X65050000Y36220000D01*
X65050000Y36220000D02*
X65050000Y35070000D01*
X65050000Y10500000D02*
X72350000Y10500000D01*
X65050000Y5000000D02*
X72350000Y5000000D01*
X72350000Y5000000D02*
X72350000Y6150000D01*
X37450000Y10500000D02*
X44750000Y10500000D01*
X37450000Y5000000D02*
X44750000Y5000000D01*
X44750000Y5000000D02*
X44750000Y6150000D01*
X2650003Y36851926D02*
X4378074Y38080003D01*
X2615246Y36900834D02*
X2650003Y36851926D01*
X4343317Y38128910D02*
X4378074Y38080003D01*
X2615246Y36900834D02*
X4343317Y38128910D01*
X2035965Y37715962D02*
X1421926Y38579997D01*
X1421926Y38579997D02*
X2285962Y39194035D01*
X30250003Y36851926D02*
X31978074Y38080003D01*
X30215246Y36900834D02*
X30250003Y36851926D01*
X31943317Y38128910D02*
X31978074Y38080003D01*
X30215246Y36900834D02*
X31943317Y38128910D01*
X29635965Y37715962D02*
X29021926Y38579997D01*
X29021926Y38579997D02*
X29885962Y39194035D01*
X57850003Y36851926D02*
X59578074Y38080003D01*
X57815246Y36900834D02*
X57850003Y36851926D01*
X59543317Y38128910D02*
X59578074Y38080003D01*
X57815246Y36900834D02*
X59543317Y38128910D01*
X57235965Y37715962D02*
X56621926Y38579997D01*
X56621926Y38579997D02*
X57485962Y39194035D01*
X79549997Y4368074D02*
X77821926Y3139997D01*
X79584754Y4319166D02*
X79549997Y4368074D01*
X77856683Y3091090D02*
X77821926Y3139997D01*
X79584754Y4319166D02*
X77856683Y3091090D01*
X80164035Y3504038D02*
X80778074Y2640003D01*
X80778074Y2640003D02*
X79914038Y2025965D01*
X51949997Y4368074D02*
X50221926Y3139997D01*
X51984754Y4319166D02*
X51949997Y4368074D01*
X50256683Y3091090D02*
X50221926Y3139997D01*
X51984754Y4319166D02*
X50256683Y3091090D01*
X52564035Y3504038D02*
X53178074Y2640003D01*
X53178074Y2640003D02*
X52314038Y2025965D01*
X4923364Y33680253D02*
X5787400Y34294291D01*
X5537403Y32816218D02*
X4923364Y33680253D01*
X6116684Y32001090D02*
X7844755Y33229166D01*
X7844755Y33229166D02*
X10196636Y29919747D01*
X6116684Y32001090D02*
X8468565Y28691671D01*
X8468565Y28691671D02*
X10196636Y29919747D01*
X32523364Y33680253D02*
X33387400Y34294291D01*
X33137403Y32816218D02*
X32523364Y33680253D01*
X33716684Y32001090D02*
X35444755Y33229166D01*
X35444755Y33229166D02*
X37796636Y29919747D01*
X33716684Y32001090D02*
X36068565Y28691671D01*
X36068565Y28691671D02*
X37796636Y29919747D01*
X60123364Y33680253D02*
X60987400Y34294291D01*
X60737403Y32816218D02*
X60123364Y33680253D01*
X61316684Y32001090D02*
X63044755Y33229166D01*
X63044755Y33229166D02*
X65396636Y29919747D01*
X61316684Y32001090D02*
X63668565Y28691671D01*
X63668565Y28691671D02*
X65396636Y29919747D01*
X77276636Y7539747D02*
X76412600Y6925709D01*
X76662597Y8403782D02*
X77276636Y7539747D01*
X76083316Y9218910D02*
X74355245Y7990834D01*
X74355245Y7990834D02*
X72003364Y11300253D01*
X76083316Y9218910D02*
X73731435Y12528329D01*
X73731435Y12528329D02*
X72003364Y11300253D01*
X49676636Y7539747D02*
X48812600Y6925709D01*
X49062597Y8403782D02*
X49676636Y7539747D01*
X48483316Y9218910D02*
X46755245Y7990834D01*
X46755245Y7990834D02*
X44403364Y11300253D01*
X48483316Y9218910D02*
X46131435Y12528329D01*
X46131435Y12528329D02*
X44403364Y11300253D01*
X4475720Y5740024D02*
X4312849Y5510843D01*
X5307151Y5149157D02*
X5144280Y4919976D01*
X17150000Y5000000D02*
X17150000Y6150000D01*
X9850000Y5000000D02*
X17150000Y5000000D01*
X9850000Y10500000D02*
X17150000Y10500000D01*
X4488074Y3149997D02*
X2760003Y4378074D01*
X4453317Y3101090D02*
X4488074Y3149997D01*
X2725246Y4329166D02*
X2760003Y4378074D01*
X4453317Y3101090D02*
X2725246Y4329166D01*
X3874035Y2285962D02*
X3259997Y1421926D01*
X3259997Y1421926D02*
X2395962Y2035965D01*
X6701435Y6371670D02*
X5837400Y6985709D01*
X7315473Y7235706D02*
X6701435Y6371670D01*
X7894755Y8050834D02*
X6166684Y9278910D01*
X6166684Y9278910D02*
X8518565Y12588329D01*
X7894755Y8050834D02*
X10246636Y11360253D01*
X10246636Y11360253D02*
X8518565Y12588329D01*
X12509997Y14501926D02*
X11645962Y15115965D01*
X13124035Y15365962D02*
X12509997Y14501926D01*
X13703317Y16181090D02*
X11975246Y17409166D01*
X11975246Y17409166D02*
X12010003Y17458074D01*
X13703317Y16181090D02*
X13738074Y16229997D01*
X13738074Y16229997D02*
X12010003Y17458074D01*
X15029997Y17438074D02*
X13301926Y16209997D01*
X15064754Y17389166D02*
X15029997Y17438074D01*
X13336683Y16161090D02*
X13301926Y16209997D01*
X15064754Y17389166D02*
X13336683Y16161090D01*
X15644035Y16574038D02*
X16258074Y15710003D01*
X16258074Y15710003D02*
X15394038Y15095965D01*
X18531435Y12528329D02*
X16803364Y11300253D01*
X20883316Y9218910D02*
X18531435Y12528329D01*
X19155245Y7990834D02*
X16803364Y11300253D01*
X20883316Y9218910D02*
X19155245Y7990834D01*
X21462597Y8403782D02*
X22076636Y7539747D01*
X22076636Y7539747D02*
X21212600Y6925709D01*
X25578074Y2640003D02*
X24714038Y2025965D01*
X24964035Y3504038D02*
X25578074Y2640003D01*
X24384754Y4319166D02*
X22656683Y3091090D01*
X22656683Y3091090D02*
X22621926Y3139997D01*
X24384754Y4319166D02*
X24349997Y4368074D01*
X24349997Y4368074D02*
X22621926Y3139997D01*
X22590000Y960000D02*
X22590000Y3080000D01*
X22530000Y960000D02*
X22590000Y960000D01*
X22530000Y3080000D02*
X22590000Y3080000D01*
X22530000Y960000D02*
X22530000Y3080000D01*
X21530000Y960000D02*
X20470000Y960000D01*
X20470000Y960000D02*
X20470000Y2020000D01*
X16570000Y3120000D02*
X16570000Y2060000D01*
X15510000Y3120000D02*
X16570000Y3120000D01*
X14510000Y3120000D02*
X14510000Y1000000D01*
X14510000Y1000000D02*
X10450000Y1000000D01*
X14510000Y3120000D02*
X10450000Y3120000D01*
X10450000Y3120000D02*
X10450000Y1000000D01*
X4580000Y3000000D02*
X5640000Y3000000D01*
X4580000Y1940000D02*
X4580000Y3000000D01*
X4580000Y940000D02*
X6700000Y940000D01*
X6700000Y940000D02*
X6700000Y880000D01*
X4580000Y940000D02*
X4580000Y880000D01*
X4580000Y880000D02*
X6700000Y880000D01*
X6807012Y3065204D02*
X6317935Y3412772D01*
X9376121Y5471898D02*
X7754134Y3189540D01*
X8692988Y6754796D02*
X9182065Y6407228D01*
X6123879Y4348102D02*
X7745866Y6630460D01*
X7716902Y6589704D02*
G75*
G02*
X8692988Y6754796I570589J-405497D01*
G01*
X9182065Y6407227D02*
G75*
G02*
X9347157Y5431141I-405497J-570589D01*
G01*
X7783098Y3230296D02*
G75*
G02*
X6807012Y3065204I-570589J405497D01*
G01*
X6317935Y3412773D02*
G75*
G02*
X6152843Y4388859I405497J570589D01*
G01*
X19064134Y7020460D02*
X20686121Y4738102D01*
X20492065Y3802772D02*
X20002988Y3455204D01*
X19055866Y3579540D02*
X17433879Y5861898D01*
X17627935Y6797228D02*
X18117012Y7144796D01*
X18117012Y7144796D02*
G75*
G02*
X19093098Y6979704I405497J-570589D01*
G01*
X17462842Y5821141D02*
G75*
G02*
X17627935Y6797228I570590J405497D01*
G01*
X20002988Y3455204D02*
G75*
G02*
X19026902Y3620296I-405497J570589D01*
G01*
X20657158Y4778859D02*
G75*
G02*
X20492065Y3802772I-570590J-405497D01*
G01*
X11430000Y3420000D02*
X11430000Y4020000D01*
X14880000Y2720000D02*
X12080000Y2720000D01*
X15530000Y4020000D02*
X15530000Y3420000D01*
X12080000Y4720000D02*
X14880000Y4720000D01*
X14830000Y4720000D02*
G75*
G02*
X15530000Y4020000I0J-700000D01*
G01*
X15530000Y3420000D02*
G75*
G02*
X14830000Y2720000I-700000J0D01*
G01*
X12130000Y2720000D02*
G75*
G02*
X11430000Y3420000I0J700000D01*
G01*
X11430000Y4020000D02*
G75*
G02*
X12130000Y4720000I700000J0D01*
G01*
D10*
X6436415Y35873793D02*
X5854181Y35460021D01*
X5710149Y35416082D01*
X5577348Y35438544D01*
X5455778Y35527406D01*
X5400608Y35605037D01*
X5897135Y34906356D02*
X6712263Y35485637D01*
X6932941Y35175112D01*
X6949295Y35069896D01*
X6938065Y35003496D01*
X6888018Y34909510D01*
X6771571Y34826756D01*
X6666355Y34810402D01*
X6599955Y34821633D01*
X6505970Y34871679D01*
X6285291Y35182204D01*
X7186328Y34654155D02*
X7252728Y34642924D01*
X7346714Y34592878D01*
X7484638Y34398800D01*
X7500992Y34293584D01*
X7489761Y34227183D01*
X7439715Y34133198D01*
X7362083Y34078029D01*
X7218052Y34034090D01*
X6421247Y34168859D01*
X6779849Y33664256D01*
X6825078Y38434189D02*
X6935418Y38278927D01*
X6951772Y38173711D01*
X6929310Y38040910D01*
X6801632Y37891755D01*
X6529923Y37698661D01*
X6347076Y37627138D01*
X6214275Y37649599D01*
X6120290Y37699646D01*
X6009951Y37854908D01*
X5993597Y37960124D01*
X6016058Y38092925D01*
X6143736Y38242080D01*
X6415445Y38435173D01*
X6598292Y38506697D01*
X6731093Y38484236D01*
X6825078Y38434189D01*
X9077382Y33538613D02*
X9892510Y34117894D01*
X34036415Y35873793D02*
X33454181Y35460021D01*
X33310149Y35416082D01*
X33177348Y35438544D01*
X33055778Y35527406D01*
X33000608Y35605037D01*
X33497135Y34906356D02*
X34312263Y35485637D01*
X34532941Y35175112D01*
X34549295Y35069896D01*
X34538065Y35003496D01*
X34488018Y34909510D01*
X34371571Y34826756D01*
X34266355Y34810402D01*
X34199955Y34821633D01*
X34105970Y34871679D01*
X33885291Y35182204D01*
X34786328Y34654155D02*
X34852728Y34642924D01*
X34946714Y34592878D01*
X35084638Y34398800D01*
X35100992Y34293584D01*
X35089761Y34227183D01*
X35039715Y34133198D01*
X34962083Y34078029D01*
X34818052Y34034090D01*
X34021247Y34168859D01*
X34379849Y33664256D01*
X34425078Y38434189D02*
X34535418Y38278927D01*
X34551772Y38173711D01*
X34529310Y38040910D01*
X34401632Y37891755D01*
X34129923Y37698661D01*
X33947076Y37627138D01*
X33814275Y37649599D01*
X33720290Y37699646D01*
X33609951Y37854908D01*
X33593597Y37960124D01*
X33616058Y38092925D01*
X33743736Y38242080D01*
X34015445Y38435173D01*
X34198292Y38506697D01*
X34331093Y38484236D01*
X34425078Y38434189D01*
X36677382Y33538613D02*
X37492510Y34117894D01*
X61636415Y35873793D02*
X61054181Y35460021D01*
X60910149Y35416082D01*
X60777348Y35438544D01*
X60655778Y35527406D01*
X60600608Y35605037D01*
X61097135Y34906356D02*
X61912263Y35485637D01*
X62132941Y35175112D01*
X62149295Y35069896D01*
X62138065Y35003496D01*
X62088018Y34909510D01*
X61971571Y34826756D01*
X61866355Y34810402D01*
X61799955Y34821633D01*
X61705970Y34871679D01*
X61485291Y35182204D01*
X62386328Y34654155D02*
X62452728Y34642924D01*
X62546714Y34592878D01*
X62684638Y34398800D01*
X62700992Y34293584D01*
X62689761Y34227183D01*
X62639715Y34133198D01*
X62562083Y34078029D01*
X62418052Y34034090D01*
X61621247Y34168859D01*
X61979849Y33664256D01*
X62025078Y38434189D02*
X62135418Y38278927D01*
X62151772Y38173711D01*
X62129310Y38040910D01*
X62001632Y37891755D01*
X61729923Y37698661D01*
X61547076Y37627138D01*
X61414275Y37649599D01*
X61320290Y37699646D01*
X61209951Y37854908D01*
X61193597Y37960124D01*
X61216058Y38092925D01*
X61343736Y38242080D01*
X61615445Y38435173D01*
X61798292Y38506697D01*
X61931093Y38484236D01*
X62025078Y38434189D01*
X64277382Y33538613D02*
X65092510Y34117894D01*
X75690875Y7339205D02*
X75108641Y6925433D01*
X74964609Y6881494D01*
X74831808Y6903956D01*
X74710238Y6992818D01*
X74655068Y7070449D01*
X75151595Y6371768D02*
X75966723Y6951049D01*
X76187401Y6640524D01*
X76203755Y6535308D01*
X76192525Y6468908D01*
X76142478Y6374922D01*
X76026031Y6292168D01*
X75920815Y6275814D01*
X75854415Y6287045D01*
X75760430Y6337091D01*
X75539751Y6647616D01*
X76440788Y6119567D02*
X76507188Y6108336D01*
X76601174Y6058290D01*
X76739098Y5864212D01*
X76755452Y5758996D01*
X76744221Y5692595D01*
X76694175Y5598610D01*
X76616543Y5543441D01*
X76472512Y5499502D01*
X75675707Y5634271D01*
X76034309Y5129668D01*
X76157340Y3575525D02*
X76267680Y3420263D01*
X76284034Y3315047D01*
X76261572Y3182246D01*
X76133894Y3033091D01*
X75862185Y2839997D01*
X75679338Y2768474D01*
X75546537Y2790935D01*
X75452552Y2840982D01*
X75342213Y2996244D01*
X75325859Y3101460D01*
X75348320Y3234261D01*
X75475998Y3383416D01*
X75747707Y3576509D01*
X75930554Y3648033D01*
X76063355Y3625572D01*
X76157340Y3575525D01*
X72385120Y7157277D02*
X73200248Y7736558D01*
X48090875Y7339205D02*
X47508641Y6925433D01*
X47364609Y6881494D01*
X47231808Y6903956D01*
X47110238Y6992818D01*
X47055068Y7070449D01*
X47551595Y6371768D02*
X48366723Y6951049D01*
X48587401Y6640524D01*
X48603755Y6535308D01*
X48592525Y6468908D01*
X48542478Y6374922D01*
X48426031Y6292168D01*
X48320815Y6275814D01*
X48254415Y6287045D01*
X48160430Y6337091D01*
X47939751Y6647616D01*
X48840788Y6119567D02*
X48907188Y6108336D01*
X49001174Y6058290D01*
X49139098Y5864212D01*
X49155452Y5758996D01*
X49144221Y5692595D01*
X49094175Y5598610D01*
X49016543Y5543441D01*
X48872512Y5499502D01*
X48075707Y5634271D01*
X48434309Y5129668D01*
X48557340Y3575525D02*
X48667680Y3420263D01*
X48684034Y3315047D01*
X48661572Y3182246D01*
X48533894Y3033091D01*
X48262185Y2839997D01*
X48079338Y2768474D01*
X47946537Y2790935D01*
X47852552Y2840982D01*
X47742213Y2996244D01*
X47725859Y3101460D01*
X47748320Y3234261D01*
X47875998Y3383416D01*
X48147707Y3576509D01*
X48330554Y3648033D01*
X48463355Y3625572D01*
X48557340Y3575525D01*
X44785120Y7157277D02*
X45600248Y7736558D01*
X7406666Y40527620D02*
X7406666Y39813334D01*
X7359047Y39670477D01*
X7263809Y39575239D01*
X7120952Y39527620D01*
X7025714Y39527620D01*
X7787619Y40527620D02*
X8454285Y40527620D01*
X8025714Y39527620D01*
X35006666Y40527620D02*
X35006666Y39813334D01*
X34959047Y39670477D01*
X34863809Y39575239D01*
X34720952Y39527620D01*
X34625714Y39527620D01*
X35387619Y40527620D02*
X36054285Y40527620D01*
X35625714Y39527620D01*
X62606666Y40527620D02*
X62606666Y39813334D01*
X62559047Y39670477D01*
X62463809Y39575239D01*
X62320952Y39527620D01*
X62225714Y39527620D01*
X62987619Y40527620D02*
X63654285Y40527620D01*
X63225714Y39527620D01*
X74126666Y1787620D02*
X74126666Y1073334D01*
X74079047Y930477D01*
X73983809Y835239D01*
X73840952Y787620D01*
X73745714Y787620D01*
X74507619Y1787620D02*
X75174285Y1787620D01*
X74745714Y787620D01*
X46526666Y1787620D02*
X46526666Y1073334D01*
X46479047Y930477D01*
X46383809Y835239D01*
X46240952Y787620D01*
X46145714Y787620D01*
X46907619Y1787620D02*
X47574285Y1787620D01*
X47145714Y787620D01*
X19788116Y34905247D02*
X20370350Y34491474D01*
X20459212Y34369904D01*
X20481673Y34237104D01*
X20437735Y34093072D01*
X20382565Y34015441D01*
X20879092Y34714122D02*
X20063964Y35293403D01*
X20284642Y35603928D01*
X20378628Y35653974D01*
X20445028Y35665205D01*
X20550244Y35648851D01*
X20666691Y35566096D01*
X20716737Y35472111D01*
X20727968Y35405711D01*
X20711614Y35300495D01*
X20490936Y34989970D01*
X21761806Y35956221D02*
X21430788Y35490434D01*
X21596297Y35723328D02*
X20781169Y36302609D01*
X20842446Y36142223D01*
X20864908Y36009422D01*
X20848554Y35904206D01*
X21124879Y38167277D02*
X20309751Y38746558D01*
X17242319Y34430263D02*
X17352659Y34585525D01*
X17446644Y34635572D01*
X17579445Y34658033D01*
X17762292Y34586509D01*
X18034001Y34393416D01*
X18161679Y34244261D01*
X18184140Y34111460D01*
X18167786Y34006244D01*
X18057447Y33850982D01*
X17963462Y33800935D01*
X17830661Y33778474D01*
X17647814Y33849997D01*
X17376105Y34043091D01*
X17248427Y34192246D01*
X17225965Y34325047D01*
X17242319Y34430263D01*
X47388116Y34905247D02*
X47970350Y34491474D01*
X48059212Y34369904D01*
X48081673Y34237104D01*
X48037735Y34093072D01*
X47982565Y34015441D01*
X48479092Y34714122D02*
X47663964Y35293403D01*
X47884642Y35603928D01*
X47978628Y35653974D01*
X48045028Y35665205D01*
X48150244Y35648851D01*
X48266691Y35566096D01*
X48316737Y35472111D01*
X48327968Y35405711D01*
X48311614Y35300495D01*
X48090936Y34989970D01*
X49361806Y35956221D02*
X49030788Y35490434D01*
X49196297Y35723328D02*
X48381169Y36302609D01*
X48442446Y36142223D01*
X48464908Y36009422D01*
X48448554Y35904206D01*
X48724879Y38167277D02*
X47909751Y38746558D01*
X44842319Y34430263D02*
X44952659Y34585525D01*
X45046644Y34635572D01*
X45179445Y34658033D01*
X45362292Y34586509D01*
X45634001Y34393416D01*
X45761679Y34244261D01*
X45784140Y34111460D01*
X45767786Y34006244D01*
X45657447Y33850982D01*
X45563462Y33800935D01*
X45430661Y33778474D01*
X45247814Y33849997D01*
X44976105Y34043091D01*
X44848427Y34192246D01*
X44825965Y34325047D01*
X44842319Y34430263D01*
X74988116Y34905247D02*
X75570350Y34491474D01*
X75659212Y34369904D01*
X75681673Y34237104D01*
X75637735Y34093072D01*
X75582565Y34015441D01*
X76079092Y34714122D02*
X75263964Y35293403D01*
X75484642Y35603928D01*
X75578628Y35653974D01*
X75645028Y35665205D01*
X75750244Y35648851D01*
X75866691Y35566096D01*
X75916737Y35472111D01*
X75927968Y35405711D01*
X75911614Y35300495D01*
X75690936Y34989970D01*
X76961806Y35956221D02*
X76630788Y35490434D01*
X76796297Y35723328D02*
X75981169Y36302609D01*
X76042446Y36142223D01*
X76064908Y36009422D01*
X76048554Y35904206D01*
X76324879Y38167277D02*
X75509751Y38746558D01*
X72442319Y34430263D02*
X72552659Y34585525D01*
X72646644Y34635572D01*
X72779445Y34658033D01*
X72962292Y34586509D01*
X73234001Y34393416D01*
X73361679Y34244261D01*
X73384140Y34111460D01*
X73367786Y34006244D01*
X73257447Y33850982D01*
X73163462Y33800935D01*
X73030661Y33778474D01*
X72847814Y33849997D01*
X72576105Y34043091D01*
X72448427Y34192246D01*
X72425965Y34325047D01*
X72442319Y34430263D01*
X60553656Y5590659D02*
X61135890Y5176886D01*
X61224752Y5055316D01*
X61247213Y4922516D01*
X61203275Y4778484D01*
X61148105Y4700853D01*
X61644632Y5399534D02*
X60829504Y5978815D01*
X61050182Y6289340D01*
X61144168Y6339386D01*
X61210568Y6350617D01*
X61315784Y6334263D01*
X61432231Y6251508D01*
X61482277Y6157523D01*
X61493508Y6091123D01*
X61477154Y5985907D01*
X61256476Y5675382D01*
X62527346Y6641633D02*
X62196328Y6175846D01*
X62361837Y6408740D02*
X61546709Y6988021D01*
X61607986Y6827635D01*
X61630448Y6694834D01*
X61614094Y6589618D01*
X61812617Y2528613D02*
X60997489Y3107894D01*
X63954581Y7268927D02*
X64064921Y7424189D01*
X64158906Y7474236D01*
X64291707Y7496697D01*
X64474554Y7425173D01*
X64746263Y7232080D01*
X64873941Y7082925D01*
X64896402Y6950124D01*
X64880048Y6844908D01*
X64769709Y6689646D01*
X64675724Y6639599D01*
X64542923Y6617138D01*
X64360076Y6688661D01*
X64088367Y6881755D01*
X63960689Y7030910D01*
X63938227Y7163711D01*
X63954581Y7268927D01*
X32953656Y5590659D02*
X33535890Y5176886D01*
X33624752Y5055316D01*
X33647213Y4922516D01*
X33603275Y4778484D01*
X33548105Y4700853D01*
X34044632Y5399534D02*
X33229504Y5978815D01*
X33450182Y6289340D01*
X33544168Y6339386D01*
X33610568Y6350617D01*
X33715784Y6334263D01*
X33832231Y6251508D01*
X33882277Y6157523D01*
X33893508Y6091123D01*
X33877154Y5985907D01*
X33656476Y5675382D01*
X34927346Y6641633D02*
X34596328Y6175846D01*
X34761837Y6408740D02*
X33946709Y6988021D01*
X34007986Y6827635D01*
X34030448Y6694834D01*
X34014094Y6589618D01*
X34212617Y2528613D02*
X33397489Y3107894D01*
X36354581Y7268927D02*
X36464921Y7424189D01*
X36558906Y7474236D01*
X36691707Y7496697D01*
X36874554Y7425173D01*
X37146263Y7232080D01*
X37273941Y7082925D01*
X37296402Y6950124D01*
X37280048Y6844908D01*
X37169709Y6689646D01*
X37075724Y6639599D01*
X36942923Y6617138D01*
X36760076Y6688661D01*
X36488367Y6881755D01*
X36360689Y7030910D01*
X36338227Y7163711D01*
X36354581Y7268927D01*
X12686666Y36247620D02*
X12686666Y35533334D01*
X12639047Y35390477D01*
X12543809Y35295239D01*
X12400952Y35247620D01*
X12305714Y35247620D01*
X13162857Y35247620D02*
X13162857Y36247620D01*
X13543809Y36247620D01*
X13639047Y36200000D01*
X13686666Y36152381D01*
X13734285Y36057143D01*
X13734285Y35914286D01*
X13686666Y35819048D01*
X13639047Y35771429D01*
X13543809Y35723810D01*
X13162857Y35723810D01*
X14067619Y36247620D02*
X14686666Y36247620D01*
X14353333Y35866667D01*
X14496190Y35866667D01*
X14591428Y35819048D01*
X14639047Y35771429D01*
X14686666Y35676191D01*
X14686666Y35438096D01*
X14639047Y35342858D01*
X14591428Y35295239D01*
X14496190Y35247620D01*
X14210476Y35247620D01*
X14115238Y35295239D01*
X14067619Y35342858D01*
X16010000Y36497620D02*
X16010000Y37497620D01*
X10914761Y37397620D02*
X11105238Y37397620D01*
X11200476Y37350000D01*
X11295714Y37254762D01*
X11343333Y37064286D01*
X11343333Y36730953D01*
X11295714Y36540477D01*
X11200476Y36445239D01*
X11105238Y36397620D01*
X10914761Y36397620D01*
X10819523Y36445239D01*
X10724285Y36540477D01*
X10676666Y36730953D01*
X10676666Y37064286D01*
X10724285Y37254762D01*
X10819523Y37350000D01*
X10914761Y37397620D01*
X40286666Y36247620D02*
X40286666Y35533334D01*
X40239047Y35390477D01*
X40143809Y35295239D01*
X40000952Y35247620D01*
X39905714Y35247620D01*
X40762857Y35247620D02*
X40762857Y36247620D01*
X41143809Y36247620D01*
X41239047Y36200000D01*
X41286666Y36152381D01*
X41334285Y36057143D01*
X41334285Y35914286D01*
X41286666Y35819048D01*
X41239047Y35771429D01*
X41143809Y35723810D01*
X40762857Y35723810D01*
X41667619Y36247620D02*
X42286666Y36247620D01*
X41953333Y35866667D01*
X42096190Y35866667D01*
X42191428Y35819048D01*
X42239047Y35771429D01*
X42286666Y35676191D01*
X42286666Y35438096D01*
X42239047Y35342858D01*
X42191428Y35295239D01*
X42096190Y35247620D01*
X41810476Y35247620D01*
X41715238Y35295239D01*
X41667619Y35342858D01*
X43610000Y36497620D02*
X43610000Y37497620D01*
X38514761Y37397620D02*
X38705238Y37397620D01*
X38800476Y37350000D01*
X38895714Y37254762D01*
X38943333Y37064286D01*
X38943333Y36730953D01*
X38895714Y36540477D01*
X38800476Y36445239D01*
X38705238Y36397620D01*
X38514761Y36397620D01*
X38419523Y36445239D01*
X38324285Y36540477D01*
X38276666Y36730953D01*
X38276666Y37064286D01*
X38324285Y37254762D01*
X38419523Y37350000D01*
X38514761Y37397620D01*
X67886666Y36247620D02*
X67886666Y35533334D01*
X67839047Y35390477D01*
X67743809Y35295239D01*
X67600952Y35247620D01*
X67505714Y35247620D01*
X68362857Y35247620D02*
X68362857Y36247620D01*
X68743809Y36247620D01*
X68839047Y36200000D01*
X68886666Y36152381D01*
X68934285Y36057143D01*
X68934285Y35914286D01*
X68886666Y35819048D01*
X68839047Y35771429D01*
X68743809Y35723810D01*
X68362857Y35723810D01*
X69267619Y36247620D02*
X69886666Y36247620D01*
X69553333Y35866667D01*
X69696190Y35866667D01*
X69791428Y35819048D01*
X69839047Y35771429D01*
X69886666Y35676191D01*
X69886666Y35438096D01*
X69839047Y35342858D01*
X69791428Y35295239D01*
X69696190Y35247620D01*
X69410476Y35247620D01*
X69315238Y35295239D01*
X69267619Y35342858D01*
X71210000Y36497620D02*
X71210000Y37497620D01*
X66114761Y37397620D02*
X66305238Y37397620D01*
X66400476Y37350000D01*
X66495714Y37254762D01*
X66543333Y37064286D01*
X66543333Y36730953D01*
X66495714Y36540477D01*
X66400476Y36445239D01*
X66305238Y36397620D01*
X66114761Y36397620D01*
X66019523Y36445239D01*
X65924285Y36540477D01*
X65876666Y36730953D01*
X65876666Y37064286D01*
X65924285Y37254762D01*
X66019523Y37350000D01*
X66114761Y37397620D01*
X67846666Y6067620D02*
X67846666Y5353334D01*
X67799047Y5210477D01*
X67703809Y5115239D01*
X67560952Y5067620D01*
X67465714Y5067620D01*
X68322857Y5067620D02*
X68322857Y6067620D01*
X68703809Y6067620D01*
X68799047Y6020000D01*
X68846666Y5972381D01*
X68894285Y5877143D01*
X68894285Y5734286D01*
X68846666Y5639048D01*
X68799047Y5591429D01*
X68703809Y5543810D01*
X68322857Y5543810D01*
X69227619Y6067620D02*
X69846666Y6067620D01*
X69513333Y5686667D01*
X69656190Y5686667D01*
X69751428Y5639048D01*
X69799047Y5591429D01*
X69846666Y5496191D01*
X69846666Y5258096D01*
X69799047Y5162858D01*
X69751428Y5115239D01*
X69656190Y5067620D01*
X69370476Y5067620D01*
X69275238Y5115239D01*
X69227619Y5162858D01*
X66190000Y3817620D02*
X66190000Y4817620D01*
X71094761Y4917620D02*
X71285238Y4917620D01*
X71380476Y4870000D01*
X71475714Y4774762D01*
X71523333Y4584286D01*
X71523333Y4250953D01*
X71475714Y4060477D01*
X71380476Y3965239D01*
X71285238Y3917620D01*
X71094761Y3917620D01*
X70999523Y3965239D01*
X70904285Y4060477D01*
X70856666Y4250953D01*
X70856666Y4584286D01*
X70904285Y4774762D01*
X70999523Y4870000D01*
X71094761Y4917620D01*
X40246666Y6067620D02*
X40246666Y5353334D01*
X40199047Y5210477D01*
X40103809Y5115239D01*
X39960952Y5067620D01*
X39865714Y5067620D01*
X40722857Y5067620D02*
X40722857Y6067620D01*
X41103809Y6067620D01*
X41199047Y6020000D01*
X41246666Y5972381D01*
X41294285Y5877143D01*
X41294285Y5734286D01*
X41246666Y5639048D01*
X41199047Y5591429D01*
X41103809Y5543810D01*
X40722857Y5543810D01*
X41627619Y6067620D02*
X42246666Y6067620D01*
X41913333Y5686667D01*
X42056190Y5686667D01*
X42151428Y5639048D01*
X42199047Y5591429D01*
X42246666Y5496191D01*
X42246666Y5258096D01*
X42199047Y5162858D01*
X42151428Y5115239D01*
X42056190Y5067620D01*
X41770476Y5067620D01*
X41675238Y5115239D01*
X41627619Y5162858D01*
X38590000Y3817620D02*
X38590000Y4817620D01*
X43494761Y4917620D02*
X43685238Y4917620D01*
X43780476Y4870000D01*
X43875714Y4774762D01*
X43923333Y4584286D01*
X43923333Y4250953D01*
X43875714Y4060477D01*
X43780476Y3965239D01*
X43685238Y3917620D01*
X43494761Y3917620D01*
X43399523Y3965239D01*
X43304285Y4060477D01*
X43256666Y4250953D01*
X43256666Y4584286D01*
X43304285Y4774762D01*
X43399523Y4870000D01*
X43494761Y4917620D01*
X23066666Y40907620D02*
X23066666Y40193334D01*
X23019047Y40050477D01*
X22923809Y39955239D01*
X22780952Y39907620D01*
X22685714Y39907620D01*
X23590476Y39907620D02*
X23780952Y39907620D01*
X23876190Y39955239D01*
X23923809Y40002858D01*
X24019047Y40145715D01*
X24066666Y40336191D01*
X24066666Y40717143D01*
X24019047Y40812381D01*
X23971428Y40860000D01*
X23876190Y40907620D01*
X23685714Y40907620D01*
X23590476Y40860000D01*
X23542857Y40812381D01*
X23495238Y40717143D01*
X23495238Y40479048D01*
X23542857Y40383810D01*
X23590476Y40336191D01*
X23685714Y40288572D01*
X23876190Y40288572D01*
X23971428Y40336191D01*
X24019047Y40383810D01*
X24066666Y40479048D01*
X50666666Y40907620D02*
X50666666Y40193334D01*
X50619047Y40050477D01*
X50523809Y39955239D01*
X50380952Y39907620D01*
X50285714Y39907620D01*
X51190476Y39907620D02*
X51380952Y39907620D01*
X51476190Y39955239D01*
X51523809Y40002858D01*
X51619047Y40145715D01*
X51666666Y40336191D01*
X51666666Y40717143D01*
X51619047Y40812381D01*
X51571428Y40860000D01*
X51476190Y40907620D01*
X51285714Y40907620D01*
X51190476Y40860000D01*
X51142857Y40812381D01*
X51095238Y40717143D01*
X51095238Y40479048D01*
X51142857Y40383810D01*
X51190476Y40336191D01*
X51285714Y40288572D01*
X51476190Y40288572D01*
X51571428Y40336191D01*
X51619047Y40383810D01*
X51666666Y40479048D01*
X78266666Y40907620D02*
X78266666Y40193334D01*
X78219047Y40050477D01*
X78123809Y39955239D01*
X77980952Y39907620D01*
X77885714Y39907620D01*
X78790476Y39907620D02*
X78980952Y39907620D01*
X79076190Y39955239D01*
X79123809Y40002858D01*
X79219047Y40145715D01*
X79266666Y40336191D01*
X79266666Y40717143D01*
X79219047Y40812381D01*
X79171428Y40860000D01*
X79076190Y40907620D01*
X78885714Y40907620D01*
X78790476Y40860000D01*
X78742857Y40812381D01*
X78695238Y40717143D01*
X78695238Y40479048D01*
X78742857Y40383810D01*
X78790476Y40336191D01*
X78885714Y40288572D01*
X79076190Y40288572D01*
X79171428Y40336191D01*
X79219047Y40383810D01*
X79266666Y40479048D01*
X58466666Y1407620D02*
X58466666Y693334D01*
X58419047Y550477D01*
X58323809Y455239D01*
X58180952Y407620D01*
X58085714Y407620D01*
X58990476Y407620D02*
X59180952Y407620D01*
X59276190Y455239D01*
X59323809Y502858D01*
X59419047Y645715D01*
X59466666Y836191D01*
X59466666Y1217143D01*
X59419047Y1312381D01*
X59371428Y1360000D01*
X59276190Y1407620D01*
X59085714Y1407620D01*
X58990476Y1360000D01*
X58942857Y1312381D01*
X58895238Y1217143D01*
X58895238Y979048D01*
X58942857Y883810D01*
X58990476Y836191D01*
X59085714Y788572D01*
X59276190Y788572D01*
X59371428Y836191D01*
X59419047Y883810D01*
X59466666Y979048D01*
X30866666Y1407620D02*
X30866666Y693334D01*
X30819047Y550477D01*
X30723809Y455239D01*
X30580952Y407620D01*
X30485714Y407620D01*
X31390476Y407620D02*
X31580952Y407620D01*
X31676190Y455239D01*
X31723809Y502858D01*
X31819047Y645715D01*
X31866666Y836191D01*
X31866666Y1217143D01*
X31819047Y1312381D01*
X31771428Y1360000D01*
X31676190Y1407620D01*
X31485714Y1407620D01*
X31390476Y1360000D01*
X31342857Y1312381D01*
X31295238Y1217143D01*
X31295238Y979048D01*
X31342857Y883810D01*
X31390476Y836191D01*
X31485714Y788572D01*
X31676190Y788572D01*
X31771428Y836191D01*
X31819047Y883810D01*
X31866666Y979048D01*
X9036666Y40487620D02*
X9036666Y39773334D01*
X8989047Y39630477D01*
X8893809Y39535239D01*
X8750952Y39487620D01*
X8655714Y39487620D01*
X9655714Y40059048D02*
X9560476Y40106667D01*
X9512857Y40154286D01*
X9465238Y40249524D01*
X9465238Y40297143D01*
X9512857Y40392381D01*
X9560476Y40440000D01*
X9655714Y40487620D01*
X9846190Y40487620D01*
X9941428Y40440000D01*
X9989047Y40392381D01*
X10036666Y40297143D01*
X10036666Y40249524D01*
X9989047Y40154286D01*
X9941428Y40106667D01*
X9846190Y40059048D01*
X9655714Y40059048D01*
X9560476Y40011429D01*
X9512857Y39963810D01*
X9465238Y39868572D01*
X9465238Y39678096D01*
X9512857Y39582858D01*
X9560476Y39535239D01*
X9655714Y39487620D01*
X9846190Y39487620D01*
X9941428Y39535239D01*
X9989047Y39582858D01*
X10036666Y39678096D01*
X10036666Y39868572D01*
X9989047Y39963810D01*
X9941428Y40011429D01*
X9846190Y40059048D01*
X36636666Y40487620D02*
X36636666Y39773334D01*
X36589047Y39630477D01*
X36493809Y39535239D01*
X36350952Y39487620D01*
X36255714Y39487620D01*
X37255714Y40059048D02*
X37160476Y40106667D01*
X37112857Y40154286D01*
X37065238Y40249524D01*
X37065238Y40297143D01*
X37112857Y40392381D01*
X37160476Y40440000D01*
X37255714Y40487620D01*
X37446190Y40487620D01*
X37541428Y40440000D01*
X37589047Y40392381D01*
X37636666Y40297143D01*
X37636666Y40249524D01*
X37589047Y40154286D01*
X37541428Y40106667D01*
X37446190Y40059048D01*
X37255714Y40059048D01*
X37160476Y40011429D01*
X37112857Y39963810D01*
X37065238Y39868572D01*
X37065238Y39678096D01*
X37112857Y39582858D01*
X37160476Y39535239D01*
X37255714Y39487620D01*
X37446190Y39487620D01*
X37541428Y39535239D01*
X37589047Y39582858D01*
X37636666Y39678096D01*
X37636666Y39868572D01*
X37589047Y39963810D01*
X37541428Y40011429D01*
X37446190Y40059048D01*
X64236666Y40487620D02*
X64236666Y39773334D01*
X64189047Y39630477D01*
X64093809Y39535239D01*
X63950952Y39487620D01*
X63855714Y39487620D01*
X64855714Y40059048D02*
X64760476Y40106667D01*
X64712857Y40154286D01*
X64665238Y40249524D01*
X64665238Y40297143D01*
X64712857Y40392381D01*
X64760476Y40440000D01*
X64855714Y40487620D01*
X65046190Y40487620D01*
X65141428Y40440000D01*
X65189047Y40392381D01*
X65236666Y40297143D01*
X65236666Y40249524D01*
X65189047Y40154286D01*
X65141428Y40106667D01*
X65046190Y40059048D01*
X64855714Y40059048D01*
X64760476Y40011429D01*
X64712857Y39963810D01*
X64665238Y39868572D01*
X64665238Y39678096D01*
X64712857Y39582858D01*
X64760476Y39535239D01*
X64855714Y39487620D01*
X65046190Y39487620D01*
X65141428Y39535239D01*
X65189047Y39582858D01*
X65236666Y39678096D01*
X65236666Y39868572D01*
X65189047Y39963810D01*
X65141428Y40011429D01*
X65046190Y40059048D01*
X72496666Y1827620D02*
X72496666Y1113334D01*
X72449047Y970477D01*
X72353809Y875239D01*
X72210952Y827620D01*
X72115714Y827620D01*
X73115714Y1399048D02*
X73020476Y1446667D01*
X72972857Y1494286D01*
X72925238Y1589524D01*
X72925238Y1637143D01*
X72972857Y1732381D01*
X73020476Y1780000D01*
X73115714Y1827620D01*
X73306190Y1827620D01*
X73401428Y1780000D01*
X73449047Y1732381D01*
X73496666Y1637143D01*
X73496666Y1589524D01*
X73449047Y1494286D01*
X73401428Y1446667D01*
X73306190Y1399048D01*
X73115714Y1399048D01*
X73020476Y1351429D01*
X72972857Y1303810D01*
X72925238Y1208572D01*
X72925238Y1018096D01*
X72972857Y922858D01*
X73020476Y875239D01*
X73115714Y827620D01*
X73306190Y827620D01*
X73401428Y875239D01*
X73449047Y922858D01*
X73496666Y1018096D01*
X73496666Y1208572D01*
X73449047Y1303810D01*
X73401428Y1351429D01*
X73306190Y1399048D01*
X44896666Y1827620D02*
X44896666Y1113334D01*
X44849047Y970477D01*
X44753809Y875239D01*
X44610952Y827620D01*
X44515714Y827620D01*
X45515714Y1399048D02*
X45420476Y1446667D01*
X45372857Y1494286D01*
X45325238Y1589524D01*
X45325238Y1637143D01*
X45372857Y1732381D01*
X45420476Y1780000D01*
X45515714Y1827620D01*
X45706190Y1827620D01*
X45801428Y1780000D01*
X45849047Y1732381D01*
X45896666Y1637143D01*
X45896666Y1589524D01*
X45849047Y1494286D01*
X45801428Y1446667D01*
X45706190Y1399048D01*
X45515714Y1399048D01*
X45420476Y1351429D01*
X45372857Y1303810D01*
X45325238Y1208572D01*
X45325238Y1018096D01*
X45372857Y922858D01*
X45420476Y875239D01*
X45515714Y827620D01*
X45706190Y827620D01*
X45801428Y875239D01*
X45849047Y922858D01*
X45896666Y1018096D01*
X45896666Y1208572D01*
X45849047Y1303810D01*
X45801428Y1351429D01*
X45706190Y1399048D01*
X16180526Y26545517D02*
X16762760Y26131744D01*
X16851622Y26010174D01*
X16874084Y25877373D01*
X16830145Y25733342D01*
X16774976Y25655711D01*
X16401205Y26856042D02*
X16759807Y27360644D01*
X16877239Y26868257D01*
X16959993Y26984703D01*
X17053978Y27034750D01*
X17120379Y27045981D01*
X17225595Y27029627D01*
X17419673Y26891703D01*
X17469719Y26797717D01*
X17480950Y26731317D01*
X17464596Y26626101D01*
X17299087Y26393207D01*
X17205102Y26343161D01*
X17138701Y26331930D01*
X43780526Y26545517D02*
X44362760Y26131744D01*
X44451622Y26010174D01*
X44474084Y25877373D01*
X44430145Y25733342D01*
X44374976Y25655711D01*
X44001205Y26856042D02*
X44359807Y27360644D01*
X44477239Y26868257D01*
X44559993Y26984703D01*
X44653978Y27034750D01*
X44720379Y27045981D01*
X44825595Y27029627D01*
X45019673Y26891703D01*
X45069719Y26797717D01*
X45080950Y26731317D01*
X45064596Y26626101D01*
X44899087Y26393207D01*
X44805102Y26343161D01*
X44738701Y26331930D01*
X71380526Y26545517D02*
X71962760Y26131744D01*
X72051622Y26010174D01*
X72074084Y25877373D01*
X72030145Y25733342D01*
X71974976Y25655711D01*
X71601205Y26856042D02*
X71959807Y27360644D01*
X72077239Y26868257D01*
X72159993Y26984703D01*
X72253978Y27034750D01*
X72320379Y27045981D01*
X72425595Y27029627D01*
X72619673Y26891703D01*
X72669719Y26797717D01*
X72680950Y26731317D01*
X72664596Y26626101D01*
X72499087Y26393207D01*
X72405102Y26343161D01*
X72338701Y26331930D01*
X64740526Y14765517D02*
X65322760Y14351744D01*
X65411622Y14230174D01*
X65434084Y14097373D01*
X65390145Y13953342D01*
X65334976Y13875711D01*
X64961205Y15076042D02*
X65319807Y15580644D01*
X65437239Y15088257D01*
X65519993Y15204703D01*
X65613978Y15254750D01*
X65680379Y15265981D01*
X65785595Y15249627D01*
X65979673Y15111703D01*
X66029719Y15017717D01*
X66040950Y14951317D01*
X66024596Y14846101D01*
X65859087Y14613207D01*
X65765102Y14563161D01*
X65698701Y14551930D01*
X37140526Y14765517D02*
X37722760Y14351744D01*
X37811622Y14230174D01*
X37834084Y14097373D01*
X37790145Y13953342D01*
X37734976Y13875711D01*
X37361205Y15076042D02*
X37719807Y15580644D01*
X37837239Y15088257D01*
X37919993Y15204703D01*
X38013978Y15254750D01*
X38080379Y15265981D01*
X38185595Y15249627D01*
X38379673Y15111703D01*
X38429719Y15017717D01*
X38440950Y14951317D01*
X38424596Y14846101D01*
X38259087Y14613207D01*
X38165102Y14563161D01*
X38098701Y14551930D01*
X23534570Y34897260D02*
X23545800Y34830859D01*
X23501862Y34686828D01*
X23446692Y34609196D01*
X23325122Y34520334D01*
X23192321Y34497873D01*
X23087105Y34514227D01*
X22904258Y34585751D01*
X22787811Y34668505D01*
X22660133Y34817660D01*
X22610087Y34911645D01*
X22587625Y35044446D01*
X22631564Y35188478D01*
X22686734Y35266109D01*
X22808304Y35354971D01*
X22874704Y35366202D01*
X24163897Y35618402D02*
X23832879Y35152615D01*
X23998388Y35385509D02*
X23183261Y35964790D01*
X23244538Y35804404D01*
X23266999Y35671603D01*
X23250645Y35566387D01*
X51134570Y34897260D02*
X51145800Y34830859D01*
X51101862Y34686828D01*
X51046692Y34609196D01*
X50925122Y34520334D01*
X50792321Y34497873D01*
X50687105Y34514227D01*
X50504258Y34585751D01*
X50387811Y34668505D01*
X50260133Y34817660D01*
X50210087Y34911645D01*
X50187625Y35044446D01*
X50231564Y35188478D01*
X50286734Y35266109D01*
X50408304Y35354971D01*
X50474704Y35366202D01*
X51763897Y35618402D02*
X51432879Y35152615D01*
X51598388Y35385509D02*
X50783261Y35964790D01*
X50844538Y35804404D01*
X50866999Y35671603D01*
X50850645Y35566387D01*
X78734570Y34897260D02*
X78745800Y34830859D01*
X78701862Y34686828D01*
X78646692Y34609196D01*
X78525122Y34520334D01*
X78392321Y34497873D01*
X78287105Y34514227D01*
X78104258Y34585751D01*
X77987811Y34668505D01*
X77860133Y34817660D01*
X77810087Y34911645D01*
X77787625Y35044446D01*
X77831564Y35188478D01*
X77886734Y35266109D01*
X78008304Y35354971D01*
X78074704Y35366202D01*
X79363897Y35618402D02*
X79032879Y35152615D01*
X79198388Y35385509D02*
X78383261Y35964790D01*
X78444538Y35804404D01*
X78466999Y35671603D01*
X78450645Y35566387D01*
X59054570Y5637260D02*
X59065800Y5570859D01*
X59021862Y5426828D01*
X58966692Y5349196D01*
X58845122Y5260334D01*
X58712321Y5237873D01*
X58607105Y5254227D01*
X58424258Y5325751D01*
X58307811Y5408505D01*
X58180133Y5557660D01*
X58130087Y5651645D01*
X58107625Y5784446D01*
X58151564Y5928478D01*
X58206734Y6006109D01*
X58328304Y6094971D01*
X58394704Y6106202D01*
X59683897Y6358402D02*
X59352879Y5892615D01*
X59518388Y6125509D02*
X58703261Y6704790D01*
X58764538Y6544404D01*
X58786999Y6411603D01*
X58770645Y6306387D01*
X31454570Y5637260D02*
X31465800Y5570859D01*
X31421862Y5426828D01*
X31366692Y5349196D01*
X31245122Y5260334D01*
X31112321Y5237873D01*
X31007105Y5254227D01*
X30824258Y5325751D01*
X30707811Y5408505D01*
X30580133Y5557660D01*
X30530087Y5651645D01*
X30507625Y5784446D01*
X30551564Y5928478D01*
X30606734Y6006109D01*
X30728304Y6094971D01*
X30794704Y6106202D01*
X32083897Y6358402D02*
X31752879Y5892615D01*
X31918388Y6125509D02*
X31103261Y6704790D01*
X31164538Y6544404D01*
X31186999Y6411603D01*
X31170645Y6306387D01*
X10423286Y27468935D02*
X9841052Y27055163D01*
X9697020Y27011224D01*
X9564220Y27033686D01*
X9442650Y27122548D01*
X9387480Y27200179D01*
X10675689Y26538345D02*
X10132270Y26152157D01*
X10848289Y26953101D02*
X10128131Y26733407D01*
X10486734Y26228804D01*
X38023286Y27468935D02*
X37441052Y27055163D01*
X37297020Y27011224D01*
X37164220Y27033686D01*
X37042650Y27122548D01*
X36987480Y27200179D01*
X38275689Y26538345D02*
X37732270Y26152157D01*
X38448289Y26953101D02*
X37728131Y26733407D01*
X38086734Y26228804D01*
X65623286Y27468935D02*
X65041052Y27055163D01*
X64897020Y27011224D01*
X64764220Y27033686D01*
X64642650Y27122548D01*
X64587480Y27200179D01*
X65875689Y26538345D02*
X65332270Y26152157D01*
X66048289Y26953101D02*
X65328131Y26733407D01*
X65686734Y26228804D01*
X72283284Y14928935D02*
X71701050Y14515163D01*
X71557018Y14471224D01*
X71424218Y14493686D01*
X71302648Y14582548D01*
X71247478Y14660179D01*
X72535687Y13998345D02*
X71992268Y13612157D01*
X72708287Y14413101D02*
X71988129Y14193407D01*
X72346732Y13688804D01*
X44683284Y14928935D02*
X44101050Y14515163D01*
X43957018Y14471224D01*
X43824218Y14493686D01*
X43702648Y14582548D01*
X43647478Y14660179D01*
X44935687Y13998345D02*
X44392268Y13612157D01*
X45108287Y14413101D02*
X44388129Y14193407D01*
X44746732Y13688804D01*
X17230526Y28055517D02*
X17812760Y27641744D01*
X17901622Y27520174D01*
X17924084Y27387373D01*
X17880145Y27243342D01*
X17824976Y27165711D01*
X17556421Y28349687D02*
X17545190Y28416088D01*
X17561544Y28521304D01*
X17699468Y28715382D01*
X17793453Y28765428D01*
X17859854Y28776659D01*
X17965070Y28760305D01*
X18042701Y28705136D01*
X18131563Y28583565D01*
X18266333Y27786760D01*
X18624935Y28291363D01*
X44830526Y28055517D02*
X45412760Y27641744D01*
X45501622Y27520174D01*
X45524084Y27387373D01*
X45480145Y27243342D01*
X45424976Y27165711D01*
X45156421Y28349687D02*
X45145190Y28416088D01*
X45161544Y28521304D01*
X45299468Y28715382D01*
X45393453Y28765428D01*
X45459854Y28776659D01*
X45565070Y28760305D01*
X45642701Y28705136D01*
X45731563Y28583565D01*
X45866333Y27786760D01*
X46224935Y28291363D01*
X72430526Y28055517D02*
X73012760Y27641744D01*
X73101622Y27520174D01*
X73124084Y27387373D01*
X73080145Y27243342D01*
X73024976Y27165711D01*
X72756421Y28349687D02*
X72745190Y28416088D01*
X72761544Y28521304D01*
X72899468Y28715382D01*
X72993453Y28765428D01*
X73059854Y28776659D01*
X73165070Y28760305D01*
X73242701Y28705136D01*
X73331563Y28583565D01*
X73466333Y27786760D01*
X73824935Y28291363D01*
X63690526Y13255517D02*
X64272760Y12841744D01*
X64361622Y12720174D01*
X64384084Y12587373D01*
X64340145Y12443342D01*
X64284976Y12365711D01*
X64016421Y13549687D02*
X64005190Y13616088D01*
X64021544Y13721304D01*
X64159468Y13915382D01*
X64253453Y13965428D01*
X64319854Y13976659D01*
X64425070Y13960305D01*
X64502701Y13905136D01*
X64591563Y13783565D01*
X64726333Y12986760D01*
X65084935Y13491363D01*
X36090526Y13255517D02*
X36672760Y12841744D01*
X36761622Y12720174D01*
X36784084Y12587373D01*
X36740145Y12443342D01*
X36684976Y12365711D01*
X36416421Y13549687D02*
X36405190Y13616088D01*
X36421544Y13721304D01*
X36559468Y13915382D01*
X36653453Y13965428D01*
X36719854Y13976659D01*
X36825070Y13960305D01*
X36902701Y13905136D01*
X36991563Y13783565D01*
X37126333Y12986760D01*
X37484935Y13491363D01*
X24610526Y40295517D02*
X25192760Y39881744D01*
X25281622Y39760174D01*
X25304084Y39627373D01*
X25260145Y39483342D01*
X25204976Y39405711D01*
X26004935Y40531363D02*
X25673917Y40065576D01*
X25839426Y40298470D02*
X25024299Y40877751D01*
X25085576Y40717365D01*
X25108037Y40584564D01*
X25091683Y40479348D01*
X52210526Y40295517D02*
X52792760Y39881744D01*
X52881622Y39760174D01*
X52904084Y39627373D01*
X52860145Y39483342D01*
X52804976Y39405711D01*
X53604935Y40531363D02*
X53273917Y40065576D01*
X53439426Y40298470D02*
X52624299Y40877751D01*
X52685576Y40717365D01*
X52708037Y40584564D01*
X52691683Y40479348D01*
X79810526Y40295517D02*
X80392760Y39881744D01*
X80481622Y39760174D01*
X80504084Y39627373D01*
X80460145Y39483342D01*
X80404976Y39405711D01*
X81204935Y40531363D02*
X80873917Y40065576D01*
X81039426Y40298470D02*
X80224299Y40877751D01*
X80285576Y40717365D01*
X80308037Y40584564D01*
X80291683Y40479348D01*
X56310526Y1015517D02*
X56892760Y601744D01*
X56981622Y480174D01*
X57004084Y347373D01*
X56960145Y203342D01*
X56904976Y125711D01*
X57704935Y1251363D02*
X57373917Y785576D01*
X57539426Y1018470D02*
X56724299Y1597751D01*
X56785576Y1437365D01*
X56808037Y1304564D01*
X56791683Y1199348D01*
X28710526Y1015517D02*
X29292760Y601744D01*
X29381622Y480174D01*
X29404084Y347373D01*
X29360145Y203342D01*
X29304976Y125711D01*
X30104935Y1251363D02*
X29773917Y785576D01*
X29939426Y1018470D02*
X29124299Y1597751D01*
X29185576Y1437365D01*
X29208037Y1304564D01*
X29191683Y1199348D01*
X16961904Y32577620D02*
X16961904Y33577620D01*
X17200000Y33577620D01*
X17342857Y33530000D01*
X17438095Y33434762D01*
X17485714Y33339524D01*
X17533333Y33149048D01*
X17533333Y33006191D01*
X17485714Y32815715D01*
X17438095Y32720477D01*
X17342857Y32625239D01*
X17200000Y32577620D01*
X16961904Y32577620D01*
X18485714Y32577620D02*
X17914285Y32577620D01*
X18200000Y32577620D02*
X18200000Y33577620D01*
X18104761Y33434762D01*
X18009523Y33339524D01*
X17914285Y33291905D01*
X16125714Y29547620D02*
X15554285Y29547620D01*
X15840000Y29547620D02*
X15840000Y30547620D01*
X15744761Y30404762D01*
X15649523Y30309524D01*
X15554285Y30261905D01*
X44561904Y32577620D02*
X44561904Y33577620D01*
X44800000Y33577620D01*
X44942857Y33530000D01*
X45038095Y33434762D01*
X45085714Y33339524D01*
X45133333Y33149048D01*
X45133333Y33006191D01*
X45085714Y32815715D01*
X45038095Y32720477D01*
X44942857Y32625239D01*
X44800000Y32577620D01*
X44561904Y32577620D01*
X46085714Y32577620D02*
X45514285Y32577620D01*
X45800000Y32577620D02*
X45800000Y33577620D01*
X45704761Y33434762D01*
X45609523Y33339524D01*
X45514285Y33291905D01*
X43725714Y29547620D02*
X43154285Y29547620D01*
X43440000Y29547620D02*
X43440000Y30547620D01*
X43344761Y30404762D01*
X43249523Y30309524D01*
X43154285Y30261905D01*
X72161904Y32577620D02*
X72161904Y33577620D01*
X72400000Y33577620D01*
X72542857Y33530000D01*
X72638095Y33434762D01*
X72685714Y33339524D01*
X72733333Y33149048D01*
X72733333Y33006191D01*
X72685714Y32815715D01*
X72638095Y32720477D01*
X72542857Y32625239D01*
X72400000Y32577620D01*
X72161904Y32577620D01*
X73685714Y32577620D02*
X73114285Y32577620D01*
X73400000Y32577620D02*
X73400000Y33577620D01*
X73304761Y33434762D01*
X73209523Y33339524D01*
X73114285Y33291905D01*
X71325714Y29547620D02*
X70754285Y29547620D01*
X71040000Y29547620D02*
X71040000Y30547620D01*
X70944761Y30404762D01*
X70849523Y30309524D01*
X70754285Y30261905D01*
X63761904Y7737620D02*
X63761904Y8737620D01*
X64000000Y8737620D01*
X64142857Y8690000D01*
X64238095Y8594762D01*
X64285714Y8499524D01*
X64333333Y8309048D01*
X64333333Y8166191D01*
X64285714Y7975715D01*
X64238095Y7880477D01*
X64142857Y7785239D01*
X64000000Y7737620D01*
X63761904Y7737620D01*
X65285714Y7737620D02*
X64714285Y7737620D01*
X65000000Y7737620D02*
X65000000Y8737620D01*
X64904761Y8594762D01*
X64809523Y8499524D01*
X64714285Y8451905D01*
X66645714Y10767620D02*
X66074285Y10767620D01*
X66360000Y10767620D02*
X66360000Y11767620D01*
X66264761Y11624762D01*
X66169523Y11529524D01*
X66074285Y11481905D01*
X36161904Y7737620D02*
X36161904Y8737620D01*
X36400000Y8737620D01*
X36542857Y8690000D01*
X36638095Y8594762D01*
X36685714Y8499524D01*
X36733333Y8309048D01*
X36733333Y8166191D01*
X36685714Y7975715D01*
X36638095Y7880477D01*
X36542857Y7785239D01*
X36400000Y7737620D01*
X36161904Y7737620D01*
X37685714Y7737620D02*
X37114285Y7737620D01*
X37400000Y7737620D02*
X37400000Y8737620D01*
X37304761Y8594762D01*
X37209523Y8499524D01*
X37114285Y8451905D01*
X39045714Y10767620D02*
X38474285Y10767620D01*
X38760000Y10767620D02*
X38760000Y11767620D01*
X38664761Y11624762D01*
X38569523Y11529524D01*
X38474285Y11481905D01*
X1893285Y40808935D02*
X1311051Y40395163D01*
X1167019Y40351224D01*
X1034219Y40373686D01*
X912649Y40462548D01*
X857479Y40540179D01*
X2417397Y40071439D02*
X2307058Y40226701D01*
X2213072Y40276747D01*
X2146672Y40287978D01*
X1975055Y40282855D01*
X1792208Y40211331D01*
X1481683Y39990653D01*
X1431637Y39896668D01*
X1420406Y39830267D01*
X1436760Y39725051D01*
X1547099Y39569789D01*
X1641085Y39519742D01*
X1707485Y39508511D01*
X1812701Y39524865D01*
X2006779Y39662790D01*
X2056826Y39756775D01*
X2068056Y39823175D01*
X2051702Y39928391D01*
X1941363Y40083654D01*
X1847378Y40133700D01*
X1780977Y40144931D01*
X1675761Y40128577D01*
X29493285Y40808935D02*
X28911051Y40395163D01*
X28767019Y40351224D01*
X28634219Y40373686D01*
X28512649Y40462548D01*
X28457479Y40540179D01*
X30017397Y40071439D02*
X29907058Y40226701D01*
X29813072Y40276747D01*
X29746672Y40287978D01*
X29575055Y40282855D01*
X29392208Y40211331D01*
X29081683Y39990653D01*
X29031637Y39896668D01*
X29020406Y39830267D01*
X29036760Y39725051D01*
X29147099Y39569789D01*
X29241085Y39519742D01*
X29307485Y39508511D01*
X29412701Y39524865D01*
X29606779Y39662790D01*
X29656826Y39756775D01*
X29668056Y39823175D01*
X29651702Y39928391D01*
X29541363Y40083654D01*
X29447378Y40133700D01*
X29380977Y40144931D01*
X29275761Y40128577D01*
X57093285Y40808935D02*
X56511051Y40395163D01*
X56367019Y40351224D01*
X56234219Y40373686D01*
X56112649Y40462548D01*
X56057479Y40540179D01*
X57617397Y40071439D02*
X57507058Y40226701D01*
X57413072Y40276747D01*
X57346672Y40287978D01*
X57175055Y40282855D01*
X56992208Y40211331D01*
X56681683Y39990653D01*
X56631637Y39896668D01*
X56620406Y39830267D01*
X56636760Y39725051D01*
X56747099Y39569789D01*
X56841085Y39519742D01*
X56907485Y39508511D01*
X57012701Y39524865D01*
X57206779Y39662790D01*
X57256826Y39756775D01*
X57268056Y39823175D01*
X57251702Y39928391D01*
X57141363Y40083654D01*
X57047378Y40133700D01*
X56980977Y40144931D01*
X56875761Y40128577D01*
X80813285Y1588935D02*
X80231051Y1175163D01*
X80087019Y1131224D01*
X79954219Y1153686D01*
X79832649Y1242548D01*
X79777479Y1320179D01*
X81337397Y851439D02*
X81227058Y1006701D01*
X81133072Y1056747D01*
X81066672Y1067978D01*
X80895055Y1062855D01*
X80712208Y991331D01*
X80401683Y770653D01*
X80351637Y676668D01*
X80340406Y610267D01*
X80356760Y505051D01*
X80467099Y349789D01*
X80561085Y299742D01*
X80627485Y288511D01*
X80732701Y304865D01*
X80926779Y442790D01*
X80976826Y536775D01*
X80988056Y603175D01*
X80971702Y708391D01*
X80861363Y863654D01*
X80767378Y913700D01*
X80700977Y924931D01*
X80595761Y908577D01*
X53213285Y1588935D02*
X52631051Y1175163D01*
X52487019Y1131224D01*
X52354219Y1153686D01*
X52232649Y1242548D01*
X52177479Y1320179D01*
X53737397Y851439D02*
X53627058Y1006701D01*
X53533072Y1056747D01*
X53466672Y1067978D01*
X53295055Y1062855D01*
X53112208Y991331D01*
X52801683Y770653D01*
X52751637Y676668D01*
X52740406Y610267D01*
X52756760Y505051D01*
X52867099Y349789D01*
X52961085Y299742D01*
X53027485Y288511D01*
X53132701Y304865D01*
X53326779Y442790D01*
X53376826Y536775D01*
X53388056Y603175D01*
X53371702Y708391D01*
X53261363Y863654D01*
X53167378Y913700D01*
X53100977Y924931D01*
X52995761Y908577D01*
X4623285Y35528935D02*
X4041051Y35115163D01*
X3897019Y35071224D01*
X3764219Y35093686D01*
X3642649Y35182548D01*
X3587479Y35260179D01*
X5174982Y34752623D02*
X4899133Y35140779D01*
X4483393Y34903747D01*
X4549793Y34892516D01*
X4643778Y34842469D01*
X4781702Y34648391D01*
X4798056Y34543175D01*
X4786826Y34476775D01*
X4736779Y34382790D01*
X4542701Y34244865D01*
X4437485Y34228511D01*
X4371085Y34239742D01*
X4277099Y34289789D01*
X4139175Y34483867D01*
X4122821Y34589083D01*
X4134052Y34655483D01*
X32223285Y35528935D02*
X31641051Y35115163D01*
X31497019Y35071224D01*
X31364219Y35093686D01*
X31242649Y35182548D01*
X31187479Y35260179D01*
X32774982Y34752623D02*
X32499133Y35140779D01*
X32083393Y34903747D01*
X32149793Y34892516D01*
X32243778Y34842469D01*
X32381702Y34648391D01*
X32398056Y34543175D01*
X32386826Y34476775D01*
X32336779Y34382790D01*
X32142701Y34244865D01*
X32037485Y34228511D01*
X31971085Y34239742D01*
X31877099Y34289789D01*
X31739175Y34483867D01*
X31722821Y34589083D01*
X31734052Y34655483D01*
X59823285Y35528935D02*
X59241051Y35115163D01*
X59097019Y35071224D01*
X58964219Y35093686D01*
X58842649Y35182548D01*
X58787479Y35260179D01*
X60374982Y34752623D02*
X60099133Y35140779D01*
X59683393Y34903747D01*
X59749793Y34892516D01*
X59843778Y34842469D01*
X59981702Y34648391D01*
X59998056Y34543175D01*
X59986826Y34476775D01*
X59936779Y34382790D01*
X59742701Y34244865D01*
X59637485Y34228511D01*
X59571085Y34239742D01*
X59477099Y34289789D01*
X59339175Y34483867D01*
X59322821Y34589083D01*
X59334052Y34655483D01*
X78083285Y6868935D02*
X77501051Y6455163D01*
X77357019Y6411224D01*
X77224219Y6433686D01*
X77102649Y6522548D01*
X77047479Y6600179D01*
X78634982Y6092623D02*
X78359133Y6480779D01*
X77943393Y6243747D01*
X78009793Y6232516D01*
X78103778Y6182469D01*
X78241702Y5988391D01*
X78258056Y5883175D01*
X78246826Y5816775D01*
X78196779Y5722790D01*
X78002701Y5584865D01*
X77897485Y5568511D01*
X77831085Y5579742D01*
X77737099Y5629789D01*
X77599175Y5823867D01*
X77582821Y5929083D01*
X77594052Y5995483D01*
X50483285Y6868935D02*
X49901051Y6455163D01*
X49757019Y6411224D01*
X49624219Y6433686D01*
X49502649Y6522548D01*
X49447479Y6600179D01*
X51034982Y6092623D02*
X50759133Y6480779D01*
X50343393Y6243747D01*
X50409793Y6232516D01*
X50503778Y6182469D01*
X50641702Y5988391D01*
X50658056Y5883175D01*
X50646826Y5816775D01*
X50596779Y5722790D01*
X50402701Y5584865D01*
X50297485Y5568511D01*
X50231085Y5579742D01*
X50137099Y5629789D01*
X49999175Y5823867D01*
X49982821Y5929083D01*
X49994052Y5995483D01*
X3854570Y5637260D02*
X3865800Y5570859D01*
X3821862Y5426828D01*
X3766692Y5349196D01*
X3645122Y5260334D01*
X3512321Y5237873D01*
X3407105Y5254227D01*
X3224258Y5325751D01*
X3107811Y5408505D01*
X2980133Y5557660D01*
X2930087Y5651645D01*
X2907625Y5784446D01*
X2951564Y5928478D01*
X3006734Y6006109D01*
X3128304Y6094971D01*
X3194704Y6106202D01*
X4483897Y6358402D02*
X4152879Y5892615D01*
X4318388Y6125509D02*
X3503261Y6704790D01*
X3564538Y6544404D01*
X3586999Y6411603D01*
X3570645Y6306387D01*
X8561904Y7737620D02*
X8561904Y8737620D01*
X8800000Y8737620D01*
X8942857Y8690000D01*
X9038095Y8594762D01*
X9085714Y8499524D01*
X9133333Y8309048D01*
X9133333Y8166191D01*
X9085714Y7975715D01*
X9038095Y7880477D01*
X8942857Y7785239D01*
X8800000Y7737620D01*
X8561904Y7737620D01*
X10085714Y7737620D02*
X9514285Y7737620D01*
X9800000Y7737620D02*
X9800000Y8737620D01*
X9704761Y8594762D01*
X9609523Y8499524D01*
X9514285Y8451905D01*
X11445714Y10767620D02*
X10874285Y10767620D01*
X11160000Y10767620D02*
X11160000Y11767620D01*
X11064761Y11624762D01*
X10969523Y11529524D01*
X10874285Y11481905D01*
X1110526Y1015517D02*
X1692760Y601744D01*
X1781622Y480174D01*
X1804084Y347373D01*
X1760145Y203342D01*
X1704976Y125711D01*
X2504935Y1251363D02*
X2173917Y785576D01*
X2339426Y1018470D02*
X1524299Y1597751D01*
X1585576Y1437365D01*
X1608037Y1304564D01*
X1591683Y1199348D01*
X8490526Y13255517D02*
X9072760Y12841744D01*
X9161622Y12720174D01*
X9184084Y12587373D01*
X9140145Y12443342D01*
X9084976Y12365711D01*
X8816421Y13549687D02*
X8805190Y13616088D01*
X8821544Y13721304D01*
X8959468Y13915382D01*
X9053453Y13965428D01*
X9119854Y13976659D01*
X9225070Y13960305D01*
X9302701Y13905136D01*
X9391563Y13783565D01*
X9526333Y12986760D01*
X9884935Y13491363D01*
X9540526Y14765517D02*
X10122760Y14351744D01*
X10211622Y14230174D01*
X10234084Y14097373D01*
X10190145Y13953342D01*
X10134976Y13875711D01*
X9761205Y15076042D02*
X10119807Y15580644D01*
X10237239Y15088257D01*
X10319993Y15204703D01*
X10413978Y15254750D01*
X10480379Y15265981D01*
X10585595Y15249627D01*
X10779673Y15111703D01*
X10829719Y15017717D01*
X10840950Y14951317D01*
X10824596Y14846101D01*
X10659087Y14613207D01*
X10565102Y14563161D01*
X10498701Y14551930D01*
X17083284Y14928935D02*
X16501050Y14515163D01*
X16357018Y14471224D01*
X16224218Y14493686D01*
X16102648Y14582548D01*
X16047478Y14660179D01*
X17335687Y13998345D02*
X16792268Y13612157D01*
X17508287Y14413101D02*
X16788129Y14193407D01*
X17146732Y13688804D01*
X22883285Y6868935D02*
X22301051Y6455163D01*
X22157019Y6411224D01*
X22024219Y6433686D01*
X21902649Y6522548D01*
X21847479Y6600179D01*
X23434982Y6092623D02*
X23159133Y6480779D01*
X22743393Y6243747D01*
X22809793Y6232516D01*
X22903778Y6182469D01*
X23041702Y5988391D01*
X23058056Y5883175D01*
X23046826Y5816775D01*
X22996779Y5722790D01*
X22802701Y5584865D01*
X22697485Y5568511D01*
X22631085Y5579742D01*
X22537099Y5629789D01*
X22399175Y5823867D01*
X22382821Y5929083D01*
X22394052Y5995483D01*
X25613285Y1588935D02*
X25031051Y1175163D01*
X24887019Y1131224D01*
X24754219Y1153686D01*
X24632649Y1242548D01*
X24577479Y1320179D01*
X26137397Y851439D02*
X26027058Y1006701D01*
X25933072Y1056747D01*
X25866672Y1067978D01*
X25695055Y1062855D01*
X25512208Y991331D01*
X25201683Y770653D01*
X25151637Y676668D01*
X25140406Y610267D01*
X25156760Y505051D01*
X25267099Y349789D01*
X25361085Y299742D01*
X25427485Y288511D01*
X25532701Y304865D01*
X25726779Y442790D01*
X25776826Y536775D01*
X25788056Y603175D01*
X25771702Y708391D01*
X25661363Y863654D01*
X25567378Y913700D01*
X25500977Y924931D01*
X25395761Y908577D01*
X18926666Y1787620D02*
X18926666Y1073334D01*
X18879047Y930477D01*
X18783809Y835239D01*
X18640952Y787620D01*
X18545714Y787620D01*
X19307619Y1787620D02*
X19974285Y1787620D01*
X19545714Y787620D01*
X17296666Y1827620D02*
X17296666Y1113334D01*
X17249047Y970477D01*
X17153809Y875239D01*
X17010952Y827620D01*
X16915714Y827620D01*
X17915714Y1399048D02*
X17820476Y1446667D01*
X17772857Y1494286D01*
X17725238Y1589524D01*
X17725238Y1637143D01*
X17772857Y1732381D01*
X17820476Y1780000D01*
X17915714Y1827620D01*
X18106190Y1827620D01*
X18201428Y1780000D01*
X18249047Y1732381D01*
X18296666Y1637143D01*
X18296666Y1589524D01*
X18249047Y1494286D01*
X18201428Y1446667D01*
X18106190Y1399048D01*
X17915714Y1399048D01*
X17820476Y1351429D01*
X17772857Y1303810D01*
X17725238Y1208572D01*
X17725238Y1018096D01*
X17772857Y922858D01*
X17820476Y875239D01*
X17915714Y827620D01*
X18106190Y827620D01*
X18201428Y875239D01*
X18249047Y922858D01*
X18296666Y1018096D01*
X18296666Y1208572D01*
X18249047Y1303810D01*
X18201428Y1351429D01*
X18106190Y1399048D01*
X3266666Y1407620D02*
X3266666Y693334D01*
X3219047Y550477D01*
X3123809Y455239D01*
X2980952Y407620D01*
X2885714Y407620D01*
X3790476Y407620D02*
X3980952Y407620D01*
X4076190Y455239D01*
X4123809Y502858D01*
X4219047Y645715D01*
X4266666Y836191D01*
X4266666Y1217143D01*
X4219047Y1312381D01*
X4171428Y1360000D01*
X4076190Y1407620D01*
X3885714Y1407620D01*
X3790476Y1360000D01*
X3742857Y1312381D01*
X3695238Y1217143D01*
X3695238Y979048D01*
X3742857Y883810D01*
X3790476Y836191D01*
X3885714Y788572D01*
X4076190Y788572D01*
X4171428Y836191D01*
X4219047Y883810D01*
X4266666Y979048D01*
X5353656Y5590659D02*
X5935890Y5176886D01*
X6024752Y5055316D01*
X6047213Y4922516D01*
X6003275Y4778484D01*
X5948105Y4700853D01*
X6444632Y5399534D02*
X5629504Y5978815D01*
X5850182Y6289340D01*
X5944168Y6339386D01*
X6010568Y6350617D01*
X6115784Y6334263D01*
X6232231Y6251508D01*
X6282277Y6157523D01*
X6293508Y6091123D01*
X6277154Y5985907D01*
X6056476Y5675382D01*
X7327346Y6641633D02*
X6996328Y6175846D01*
X7161837Y6408740D02*
X6346709Y6988021D01*
X6407986Y6827635D01*
X6430448Y6694834D01*
X6414094Y6589618D01*
X8754581Y7268927D02*
X8864921Y7424189D01*
X8958906Y7474236D01*
X9091707Y7496697D01*
X9274554Y7425173D01*
X9546263Y7232080D01*
X9673941Y7082925D01*
X9696402Y6950124D01*
X9680048Y6844908D01*
X9569709Y6689646D01*
X9475724Y6639599D01*
X9342923Y6617138D01*
X9160076Y6688661D01*
X8888367Y6881755D01*
X8760689Y7030910D01*
X8738227Y7163711D01*
X8754581Y7268927D01*
X6612617Y2528613D02*
X5797489Y3107894D01*
X20490875Y7339205D02*
X19908641Y6925433D01*
X19764609Y6881494D01*
X19631808Y6903956D01*
X19510238Y6992818D01*
X19455068Y7070449D01*
X19951595Y6371768D02*
X20766723Y6951049D01*
X20987401Y6640524D01*
X21003755Y6535308D01*
X20992525Y6468908D01*
X20942478Y6374922D01*
X20826031Y6292168D01*
X20720815Y6275814D01*
X20654415Y6287045D01*
X20560430Y6337091D01*
X20339751Y6647616D01*
X21240788Y6119567D02*
X21307188Y6108336D01*
X21401174Y6058290D01*
X21539098Y5864212D01*
X21555452Y5758996D01*
X21544221Y5692595D01*
X21494175Y5598610D01*
X21416543Y5543441D01*
X21272512Y5499502D01*
X20475707Y5634271D01*
X20834309Y5129668D01*
X17185120Y7157277D02*
X18000248Y7736558D01*
X20957340Y3575525D02*
X21067680Y3420263D01*
X21084034Y3315047D01*
X21061572Y3182246D01*
X20933894Y3033091D01*
X20662185Y2839997D01*
X20479338Y2768474D01*
X20346537Y2790935D01*
X20252552Y2840982D01*
X20142213Y2996244D01*
X20125859Y3101460D01*
X20148320Y3234261D01*
X20275998Y3383416D01*
X20547707Y3576509D01*
X20730554Y3648033D01*
X20863355Y3625572D01*
X20957340Y3575525D01*
X12646666Y6067620D02*
X12646666Y5353334D01*
X12599047Y5210477D01*
X12503809Y5115239D01*
X12360952Y5067620D01*
X12265714Y5067620D01*
X13122857Y5067620D02*
X13122857Y6067620D01*
X13503809Y6067620D01*
X13599047Y6020000D01*
X13646666Y5972381D01*
X13694285Y5877143D01*
X13694285Y5734286D01*
X13646666Y5639048D01*
X13599047Y5591429D01*
X13503809Y5543810D01*
X13122857Y5543810D01*
X14027619Y6067620D02*
X14646666Y6067620D01*
X14313333Y5686667D01*
X14456190Y5686667D01*
X14551428Y5639048D01*
X14599047Y5591429D01*
X14646666Y5496191D01*
X14646666Y5258096D01*
X14599047Y5162858D01*
X14551428Y5115239D01*
X14456190Y5067620D01*
X14170476Y5067620D01*
X14075238Y5115239D01*
X14027619Y5162858D01*
X15894761Y4917620D02*
X16085238Y4917620D01*
X16180476Y4870000D01*
X16275714Y4774762D01*
X16323333Y4584286D01*
X16323333Y4250953D01*
X16275714Y4060477D01*
X16180476Y3965239D01*
X16085238Y3917620D01*
X15894761Y3917620D01*
X15799523Y3965239D01*
X15704285Y4060477D01*
X15656666Y4250953D01*
X15656666Y4584286D01*
X15704285Y4774762D01*
X15799523Y4870000D01*
X15894761Y4917620D01*
X10990000Y3817620D02*
X10990000Y4817620D01*
%LPC*%
D12*
X-300000Y1110000D03*
X82500000Y1110000D03*
X-300000Y40110000D03*
X82500000Y40110000D03*
X54900000Y1110000D03*
X27300000Y1210000D03*
X27300000Y40110000D03*
X54900000Y40110000D03*
D13*
G36*
X8985807Y35743115D02*
G01*
X9304412Y35294795D01*
X9303921Y35294446D01*
X9318133Y35274448D01*
X9342499Y35231858D01*
X9362575Y35187085D01*
X9378164Y35140559D01*
X9389119Y35092730D01*
X9395332Y35044058D01*
X9396745Y34995010D01*
X9393344Y34946061D01*
X9385161Y34897679D01*
X9372275Y34850335D01*
X9354810Y34804480D01*
X9332937Y34760558D01*
X9306862Y34718992D01*
X9276838Y34680181D01*
X9243155Y34644501D01*
X9206138Y34612293D01*
X9186140Y34598081D01*
X9186489Y34597590D01*
X8778925Y34307950D01*
X8778576Y34308441D01*
X8758578Y34294228D01*
X8715988Y34269862D01*
X8671215Y34249787D01*
X8624689Y34234197D01*
X8576860Y34223242D01*
X8528187Y34217030D01*
X8479140Y34215616D01*
X8430191Y34219018D01*
X8381809Y34227201D01*
X8334464Y34240086D01*
X8288610Y34257551D01*
X8244688Y34279425D01*
X8203122Y34305500D01*
X8164311Y34335523D01*
X8128631Y34369206D01*
X8096423Y34406224D01*
X8082211Y34426222D01*
X8081720Y34425873D01*
X7763116Y34874193D01*
X8985807Y35743115D01*
G37*
G36*
X6576079Y36545554D02*
G01*
X6561867Y36565552D01*
X6537501Y36608142D01*
X6517425Y36652915D01*
X6501836Y36699441D01*
X6490881Y36747270D01*
X6484668Y36795942D01*
X6483255Y36844990D01*
X6486656Y36893939D01*
X6494839Y36942321D01*
X6507725Y36989665D01*
X6525190Y37035520D01*
X6547063Y37079442D01*
X6573138Y37121008D01*
X6603162Y37159819D01*
X6636845Y37195499D01*
X6673862Y37227707D01*
X6693860Y37241919D01*
X6693511Y37242410D01*
X7101075Y37532050D01*
X7101424Y37531559D01*
X7121422Y37545772D01*
X7164012Y37570138D01*
X7208785Y37590213D01*
X7255311Y37605803D01*
X7303140Y37616758D01*
X7351813Y37622970D01*
X7400860Y37624384D01*
X7449809Y37620982D01*
X7498191Y37612799D01*
X7545536Y37599914D01*
X7591390Y37582449D01*
X7635312Y37560575D01*
X7676878Y37534500D01*
X7715689Y37504477D01*
X7751369Y37470794D01*
X7783577Y37433776D01*
X7797789Y37413778D01*
X7798280Y37414127D01*
X8116884Y36965807D01*
X6894193Y36096885D01*
X6575588Y36545205D01*
X6576079Y36545554D01*
G37*
G36*
X8840986Y35946897D02*
G01*
X7618295Y35077975D01*
X7039014Y35893103D01*
X8261705Y36762025D01*
X8840986Y35946897D01*
G37*
G36*
X36585807Y35743115D02*
G01*
X36904412Y35294795D01*
X36903921Y35294446D01*
X36918133Y35274448D01*
X36942499Y35231858D01*
X36962575Y35187085D01*
X36978164Y35140559D01*
X36989119Y35092730D01*
X36995332Y35044058D01*
X36996745Y34995010D01*
X36993344Y34946061D01*
X36985161Y34897679D01*
X36972275Y34850335D01*
X36954810Y34804480D01*
X36932937Y34760558D01*
X36906862Y34718992D01*
X36876838Y34680181D01*
X36843155Y34644501D01*
X36806138Y34612293D01*
X36786140Y34598081D01*
X36786489Y34597590D01*
X36378925Y34307950D01*
X36378576Y34308441D01*
X36358578Y34294228D01*
X36315988Y34269862D01*
X36271215Y34249787D01*
X36224689Y34234197D01*
X36176860Y34223242D01*
X36128187Y34217030D01*
X36079140Y34215616D01*
X36030191Y34219018D01*
X35981809Y34227201D01*
X35934464Y34240086D01*
X35888610Y34257551D01*
X35844688Y34279425D01*
X35803122Y34305500D01*
X35764311Y34335523D01*
X35728631Y34369206D01*
X35696423Y34406224D01*
X35682211Y34426222D01*
X35681720Y34425873D01*
X35363116Y34874193D01*
X36585807Y35743115D01*
G37*
G36*
X34176079Y36545554D02*
G01*
X34161867Y36565552D01*
X34137501Y36608142D01*
X34117425Y36652915D01*
X34101836Y36699441D01*
X34090881Y36747270D01*
X34084668Y36795942D01*
X34083255Y36844990D01*
X34086656Y36893939D01*
X34094839Y36942321D01*
X34107725Y36989665D01*
X34125190Y37035520D01*
X34147063Y37079442D01*
X34173138Y37121008D01*
X34203162Y37159819D01*
X34236845Y37195499D01*
X34273862Y37227707D01*
X34293860Y37241919D01*
X34293511Y37242410D01*
X34701075Y37532050D01*
X34701424Y37531559D01*
X34721422Y37545772D01*
X34764012Y37570138D01*
X34808785Y37590213D01*
X34855311Y37605803D01*
X34903140Y37616758D01*
X34951813Y37622970D01*
X35000860Y37624384D01*
X35049809Y37620982D01*
X35098191Y37612799D01*
X35145536Y37599914D01*
X35191390Y37582449D01*
X35235312Y37560575D01*
X35276878Y37534500D01*
X35315689Y37504477D01*
X35351369Y37470794D01*
X35383577Y37433776D01*
X35397789Y37413778D01*
X35398280Y37414127D01*
X35716884Y36965807D01*
X34494193Y36096885D01*
X34175588Y36545205D01*
X34176079Y36545554D01*
G37*
G36*
X36440986Y35946897D02*
G01*
X35218295Y35077975D01*
X34639014Y35893103D01*
X35861705Y36762025D01*
X36440986Y35946897D01*
G37*
G36*
X64185807Y35743115D02*
G01*
X64504412Y35294795D01*
X64503921Y35294446D01*
X64518133Y35274448D01*
X64542499Y35231858D01*
X64562575Y35187085D01*
X64578164Y35140559D01*
X64589119Y35092730D01*
X64595332Y35044058D01*
X64596745Y34995010D01*
X64593344Y34946061D01*
X64585161Y34897679D01*
X64572275Y34850335D01*
X64554810Y34804480D01*
X64532937Y34760558D01*
X64506862Y34718992D01*
X64476838Y34680181D01*
X64443155Y34644501D01*
X64406138Y34612293D01*
X64386140Y34598081D01*
X64386489Y34597590D01*
X63978925Y34307950D01*
X63978576Y34308441D01*
X63958578Y34294228D01*
X63915988Y34269862D01*
X63871215Y34249787D01*
X63824689Y34234197D01*
X63776860Y34223242D01*
X63728187Y34217030D01*
X63679140Y34215616D01*
X63630191Y34219018D01*
X63581809Y34227201D01*
X63534464Y34240086D01*
X63488610Y34257551D01*
X63444688Y34279425D01*
X63403122Y34305500D01*
X63364311Y34335523D01*
X63328631Y34369206D01*
X63296423Y34406224D01*
X63282211Y34426222D01*
X63281720Y34425873D01*
X62963116Y34874193D01*
X64185807Y35743115D01*
G37*
G36*
X61776079Y36545554D02*
G01*
X61761867Y36565552D01*
X61737501Y36608142D01*
X61717425Y36652915D01*
X61701836Y36699441D01*
X61690881Y36747270D01*
X61684668Y36795942D01*
X61683255Y36844990D01*
X61686656Y36893939D01*
X61694839Y36942321D01*
X61707725Y36989665D01*
X61725190Y37035520D01*
X61747063Y37079442D01*
X61773138Y37121008D01*
X61803162Y37159819D01*
X61836845Y37195499D01*
X61873862Y37227707D01*
X61893860Y37241919D01*
X61893511Y37242410D01*
X62301075Y37532050D01*
X62301424Y37531559D01*
X62321422Y37545772D01*
X62364012Y37570138D01*
X62408785Y37590213D01*
X62455311Y37605803D01*
X62503140Y37616758D01*
X62551813Y37622970D01*
X62600860Y37624384D01*
X62649809Y37620982D01*
X62698191Y37612799D01*
X62745536Y37599914D01*
X62791390Y37582449D01*
X62835312Y37560575D01*
X62876878Y37534500D01*
X62915689Y37504477D01*
X62951369Y37470794D01*
X62983577Y37433776D01*
X62997789Y37413778D01*
X62998280Y37414127D01*
X63316884Y36965807D01*
X62094193Y36096885D01*
X61775588Y36545205D01*
X61776079Y36545554D01*
G37*
G36*
X64040986Y35946897D02*
G01*
X62818295Y35077975D01*
X62239014Y35893103D01*
X63461705Y36762025D01*
X64040986Y35946897D01*
G37*
G36*
X73214193Y5476885D02*
G01*
X72895588Y5925205D01*
X72896079Y5925554D01*
X72881867Y5945552D01*
X72857501Y5988142D01*
X72837425Y6032915D01*
X72821836Y6079441D01*
X72810881Y6127270D01*
X72804668Y6175942D01*
X72803255Y6224990D01*
X72806656Y6273939D01*
X72814839Y6322321D01*
X72827725Y6369665D01*
X72845190Y6415520D01*
X72867063Y6459442D01*
X72893138Y6501008D01*
X72923162Y6539819D01*
X72956845Y6575499D01*
X72993862Y6607707D01*
X73013860Y6621919D01*
X73013511Y6622410D01*
X73421075Y6912050D01*
X73421424Y6911559D01*
X73441422Y6925772D01*
X73484012Y6950138D01*
X73528785Y6970213D01*
X73575311Y6985803D01*
X73623140Y6996758D01*
X73671813Y7002970D01*
X73720860Y7004384D01*
X73769809Y7000982D01*
X73818191Y6992799D01*
X73865536Y6979914D01*
X73911390Y6962449D01*
X73955312Y6940575D01*
X73996878Y6914500D01*
X74035689Y6884477D01*
X74071369Y6850794D01*
X74103577Y6813776D01*
X74117789Y6793778D01*
X74118280Y6794127D01*
X74436884Y6345807D01*
X73214193Y5476885D01*
G37*
G36*
X75623921Y4674446D02*
G01*
X75638133Y4654448D01*
X75662499Y4611858D01*
X75682575Y4567085D01*
X75698164Y4520559D01*
X75709119Y4472730D01*
X75715332Y4424058D01*
X75716745Y4375010D01*
X75713344Y4326061D01*
X75705161Y4277679D01*
X75692275Y4230335D01*
X75674810Y4184480D01*
X75652937Y4140558D01*
X75626862Y4098992D01*
X75596838Y4060181D01*
X75563155Y4024501D01*
X75526138Y3992293D01*
X75506140Y3978081D01*
X75506489Y3977590D01*
X75098925Y3687950D01*
X75098576Y3688441D01*
X75078578Y3674228D01*
X75035988Y3649862D01*
X74991215Y3629787D01*
X74944689Y3614197D01*
X74896860Y3603242D01*
X74848187Y3597030D01*
X74799140Y3595616D01*
X74750191Y3599018D01*
X74701809Y3607201D01*
X74654464Y3620086D01*
X74608610Y3637551D01*
X74564688Y3659425D01*
X74523122Y3685500D01*
X74484311Y3715523D01*
X74448631Y3749206D01*
X74416423Y3786224D01*
X74402211Y3806222D01*
X74401720Y3805873D01*
X74083116Y4254193D01*
X75305807Y5123115D01*
X75624412Y4674795D01*
X75623921Y4674446D01*
G37*
G36*
X73359014Y5273103D02*
G01*
X74581705Y6142025D01*
X75160986Y5326897D01*
X73938295Y4457975D01*
X73359014Y5273103D01*
G37*
G36*
X45614193Y5476885D02*
G01*
X45295588Y5925205D01*
X45296079Y5925554D01*
X45281867Y5945552D01*
X45257501Y5988142D01*
X45237425Y6032915D01*
X45221836Y6079441D01*
X45210881Y6127270D01*
X45204668Y6175942D01*
X45203255Y6224990D01*
X45206656Y6273939D01*
X45214839Y6322321D01*
X45227725Y6369665D01*
X45245190Y6415520D01*
X45267063Y6459442D01*
X45293138Y6501008D01*
X45323162Y6539819D01*
X45356845Y6575499D01*
X45393862Y6607707D01*
X45413860Y6621919D01*
X45413511Y6622410D01*
X45821075Y6912050D01*
X45821424Y6911559D01*
X45841422Y6925772D01*
X45884012Y6950138D01*
X45928785Y6970213D01*
X45975311Y6985803D01*
X46023140Y6996758D01*
X46071813Y7002970D01*
X46120860Y7004384D01*
X46169809Y7000982D01*
X46218191Y6992799D01*
X46265536Y6979914D01*
X46311390Y6962449D01*
X46355312Y6940575D01*
X46396878Y6914500D01*
X46435689Y6884477D01*
X46471369Y6850794D01*
X46503577Y6813776D01*
X46517789Y6793778D01*
X46518280Y6794127D01*
X46836884Y6345807D01*
X45614193Y5476885D01*
G37*
G36*
X48023921Y4674446D02*
G01*
X48038133Y4654448D01*
X48062499Y4611858D01*
X48082575Y4567085D01*
X48098164Y4520559D01*
X48109119Y4472730D01*
X48115332Y4424058D01*
X48116745Y4375010D01*
X48113344Y4326061D01*
X48105161Y4277679D01*
X48092275Y4230335D01*
X48074810Y4184480D01*
X48052937Y4140558D01*
X48026862Y4098992D01*
X47996838Y4060181D01*
X47963155Y4024501D01*
X47926138Y3992293D01*
X47906140Y3978081D01*
X47906489Y3977590D01*
X47498925Y3687950D01*
X47498576Y3688441D01*
X47478578Y3674228D01*
X47435988Y3649862D01*
X47391215Y3629787D01*
X47344689Y3614197D01*
X47296860Y3603242D01*
X47248187Y3597030D01*
X47199140Y3595616D01*
X47150191Y3599018D01*
X47101809Y3607201D01*
X47054464Y3620086D01*
X47008610Y3637551D01*
X46964688Y3659425D01*
X46923122Y3685500D01*
X46884311Y3715523D01*
X46848631Y3749206D01*
X46816423Y3786224D01*
X46802211Y3806222D01*
X46801720Y3805873D01*
X46483116Y4254193D01*
X47705807Y5123115D01*
X48024412Y4674795D01*
X48023921Y4674446D01*
G37*
G36*
X45759014Y5273103D02*
G01*
X46981705Y6142025D01*
X47560986Y5326897D01*
X46338295Y4457975D01*
X45759014Y5273103D01*
G37*
D14*
X5470000Y39200000D03*
X33070000Y39200000D03*
X60670000Y39200000D03*
X76730000Y2020000D03*
X49130000Y2020000D03*
D13*
G36*
X18928295Y37152025D02*
G01*
X20150986Y36283103D01*
X19571705Y35467975D01*
X18349014Y36336897D01*
X18928295Y37152025D01*
G37*
G36*
X19107789Y34816222D02*
G01*
X19093577Y34796224D01*
X19061369Y34759206D01*
X19025689Y34725523D01*
X18986878Y34695500D01*
X18945312Y34669425D01*
X18901390Y34647551D01*
X18855536Y34630086D01*
X18808191Y34617201D01*
X18759809Y34609018D01*
X18710860Y34605616D01*
X18661813Y34607030D01*
X18613140Y34613242D01*
X18565311Y34624197D01*
X18518785Y34639787D01*
X18474012Y34659862D01*
X18431422Y34684228D01*
X18411424Y34698441D01*
X18411075Y34697950D01*
X18003511Y34987590D01*
X18003860Y34988081D01*
X17983862Y35002293D01*
X17946845Y35034501D01*
X17913162Y35070181D01*
X17883138Y35108992D01*
X17857063Y35150558D01*
X17835190Y35194480D01*
X17817725Y35240335D01*
X17804839Y35287679D01*
X17796656Y35336061D01*
X17793255Y35385010D01*
X17794668Y35434058D01*
X17800881Y35482730D01*
X17811836Y35530559D01*
X17827425Y35577085D01*
X17847501Y35621858D01*
X17871867Y35664448D01*
X17886079Y35684446D01*
X17885588Y35684795D01*
X18204193Y36133115D01*
X19426884Y35264193D01*
X19108280Y34815873D01*
X19107789Y34816222D01*
G37*
G36*
X19073116Y37355807D02*
G01*
X19391720Y37804127D01*
X19392211Y37803778D01*
X19406423Y37823776D01*
X19438631Y37860794D01*
X19474311Y37894477D01*
X19513122Y37924500D01*
X19554688Y37950575D01*
X19598610Y37972449D01*
X19644464Y37989914D01*
X19691809Y38002799D01*
X19740191Y38010982D01*
X19789140Y38014384D01*
X19838187Y38012970D01*
X19886860Y38006758D01*
X19934689Y37995803D01*
X19981215Y37980213D01*
X20025988Y37960138D01*
X20068578Y37935772D01*
X20088576Y37921559D01*
X20088925Y37922050D01*
X20496489Y37632410D01*
X20496140Y37631919D01*
X20516138Y37617707D01*
X20553155Y37585499D01*
X20586838Y37549819D01*
X20616862Y37511008D01*
X20642937Y37469442D01*
X20664810Y37425520D01*
X20682275Y37379665D01*
X20695161Y37332321D01*
X20703344Y37283939D01*
X20706745Y37234990D01*
X20705332Y37185942D01*
X20699119Y37137270D01*
X20688164Y37089441D01*
X20672575Y37042915D01*
X20652499Y36998142D01*
X20628133Y36955552D01*
X20613921Y36935554D01*
X20614412Y36935205D01*
X20295807Y36486885D01*
X19073116Y37355807D01*
G37*
G36*
X46528295Y37152025D02*
G01*
X47750986Y36283103D01*
X47171705Y35467975D01*
X45949014Y36336897D01*
X46528295Y37152025D01*
G37*
G36*
X46707789Y34816222D02*
G01*
X46693577Y34796224D01*
X46661369Y34759206D01*
X46625689Y34725523D01*
X46586878Y34695500D01*
X46545312Y34669425D01*
X46501390Y34647551D01*
X46455536Y34630086D01*
X46408191Y34617201D01*
X46359809Y34609018D01*
X46310860Y34605616D01*
X46261813Y34607030D01*
X46213140Y34613242D01*
X46165311Y34624197D01*
X46118785Y34639787D01*
X46074012Y34659862D01*
X46031422Y34684228D01*
X46011424Y34698441D01*
X46011075Y34697950D01*
X45603511Y34987590D01*
X45603860Y34988081D01*
X45583862Y35002293D01*
X45546845Y35034501D01*
X45513162Y35070181D01*
X45483138Y35108992D01*
X45457063Y35150558D01*
X45435190Y35194480D01*
X45417725Y35240335D01*
X45404839Y35287679D01*
X45396656Y35336061D01*
X45393255Y35385010D01*
X45394668Y35434058D01*
X45400881Y35482730D01*
X45411836Y35530559D01*
X45427425Y35577085D01*
X45447501Y35621858D01*
X45471867Y35664448D01*
X45486079Y35684446D01*
X45485588Y35684795D01*
X45804193Y36133115D01*
X47026884Y35264193D01*
X46708280Y34815873D01*
X46707789Y34816222D01*
G37*
G36*
X46673116Y37355807D02*
G01*
X46991720Y37804127D01*
X46992211Y37803778D01*
X47006423Y37823776D01*
X47038631Y37860794D01*
X47074311Y37894477D01*
X47113122Y37924500D01*
X47154688Y37950575D01*
X47198610Y37972449D01*
X47244464Y37989914D01*
X47291809Y38002799D01*
X47340191Y38010982D01*
X47389140Y38014384D01*
X47438187Y38012970D01*
X47486860Y38006758D01*
X47534689Y37995803D01*
X47581215Y37980213D01*
X47625988Y37960138D01*
X47668578Y37935772D01*
X47688576Y37921559D01*
X47688925Y37922050D01*
X48096489Y37632410D01*
X48096140Y37631919D01*
X48116138Y37617707D01*
X48153155Y37585499D01*
X48186838Y37549819D01*
X48216862Y37511008D01*
X48242937Y37469442D01*
X48264810Y37425520D01*
X48282275Y37379665D01*
X48295161Y37332321D01*
X48303344Y37283939D01*
X48306745Y37234990D01*
X48305332Y37185942D01*
X48299119Y37137270D01*
X48288164Y37089441D01*
X48272575Y37042915D01*
X48252499Y36998142D01*
X48228133Y36955552D01*
X48213921Y36935554D01*
X48214412Y36935205D01*
X47895807Y36486885D01*
X46673116Y37355807D01*
G37*
G36*
X74128295Y37152025D02*
G01*
X75350986Y36283103D01*
X74771705Y35467975D01*
X73549014Y36336897D01*
X74128295Y37152025D01*
G37*
G36*
X74307789Y34816222D02*
G01*
X74293577Y34796224D01*
X74261369Y34759206D01*
X74225689Y34725523D01*
X74186878Y34695500D01*
X74145312Y34669425D01*
X74101390Y34647551D01*
X74055536Y34630086D01*
X74008191Y34617201D01*
X73959809Y34609018D01*
X73910860Y34605616D01*
X73861813Y34607030D01*
X73813140Y34613242D01*
X73765311Y34624197D01*
X73718785Y34639787D01*
X73674012Y34659862D01*
X73631422Y34684228D01*
X73611424Y34698441D01*
X73611075Y34697950D01*
X73203511Y34987590D01*
X73203860Y34988081D01*
X73183862Y35002293D01*
X73146845Y35034501D01*
X73113162Y35070181D01*
X73083138Y35108992D01*
X73057063Y35150558D01*
X73035190Y35194480D01*
X73017725Y35240335D01*
X73004839Y35287679D01*
X72996656Y35336061D01*
X72993255Y35385010D01*
X72994668Y35434058D01*
X73000881Y35482730D01*
X73011836Y35530559D01*
X73027425Y35577085D01*
X73047501Y35621858D01*
X73071867Y35664448D01*
X73086079Y35684446D01*
X73085588Y35684795D01*
X73404193Y36133115D01*
X74626884Y35264193D01*
X74308280Y34815873D01*
X74307789Y34816222D01*
G37*
G36*
X74273116Y37355807D02*
G01*
X74591720Y37804127D01*
X74592211Y37803778D01*
X74606423Y37823776D01*
X74638631Y37860794D01*
X74674311Y37894477D01*
X74713122Y37924500D01*
X74754688Y37950575D01*
X74798610Y37972449D01*
X74844464Y37989914D01*
X74891809Y38002799D01*
X74940191Y38010982D01*
X74989140Y38014384D01*
X75038187Y38012970D01*
X75086860Y38006758D01*
X75134689Y37995803D01*
X75181215Y37980213D01*
X75225988Y37960138D01*
X75268578Y37935772D01*
X75288576Y37921559D01*
X75288925Y37922050D01*
X75696489Y37632410D01*
X75696140Y37631919D01*
X75716138Y37617707D01*
X75753155Y37585499D01*
X75786838Y37549819D01*
X75816862Y37511008D01*
X75842937Y37469442D01*
X75864810Y37425520D01*
X75882275Y37379665D01*
X75895161Y37332321D01*
X75903344Y37283939D01*
X75906745Y37234990D01*
X75905332Y37185942D01*
X75899119Y37137270D01*
X75888164Y37089441D01*
X75872575Y37042915D01*
X75852499Y36998142D01*
X75828133Y36955552D01*
X75813921Y36935554D01*
X75814412Y36935205D01*
X75495807Y36486885D01*
X74273116Y37355807D01*
G37*
G36*
X63271705Y4067975D02*
G01*
X62049014Y4936897D01*
X62628295Y5752025D01*
X63850986Y4883103D01*
X63271705Y4067975D01*
G37*
G36*
X63092211Y6403778D02*
G01*
X63106423Y6423776D01*
X63138631Y6460794D01*
X63174311Y6494477D01*
X63213122Y6524500D01*
X63254688Y6550575D01*
X63298610Y6572449D01*
X63344464Y6589914D01*
X63391809Y6602799D01*
X63440191Y6610982D01*
X63489140Y6614384D01*
X63538187Y6612970D01*
X63586860Y6606758D01*
X63634689Y6595803D01*
X63681215Y6580213D01*
X63725988Y6560138D01*
X63768578Y6535772D01*
X63788576Y6521559D01*
X63788925Y6522050D01*
X64196489Y6232410D01*
X64196140Y6231919D01*
X64216138Y6217707D01*
X64253155Y6185499D01*
X64286838Y6149819D01*
X64316862Y6111008D01*
X64342937Y6069442D01*
X64364810Y6025520D01*
X64382275Y5979665D01*
X64395161Y5932321D01*
X64403344Y5883939D01*
X64406745Y5834990D01*
X64405332Y5785942D01*
X64399119Y5737270D01*
X64388164Y5689441D01*
X64372575Y5642915D01*
X64352499Y5598142D01*
X64328133Y5555552D01*
X64313921Y5535554D01*
X64314412Y5535205D01*
X63995807Y5086885D01*
X62773116Y5955807D01*
X63091720Y6404127D01*
X63092211Y6403778D01*
G37*
G36*
X63126884Y3864193D02*
G01*
X62808280Y3415873D01*
X62807789Y3416222D01*
X62793577Y3396224D01*
X62761369Y3359206D01*
X62725689Y3325523D01*
X62686878Y3295500D01*
X62645312Y3269425D01*
X62601390Y3247551D01*
X62555536Y3230086D01*
X62508191Y3217201D01*
X62459809Y3209018D01*
X62410860Y3205616D01*
X62361813Y3207030D01*
X62313140Y3213242D01*
X62265311Y3224197D01*
X62218785Y3239787D01*
X62174012Y3259862D01*
X62131422Y3284228D01*
X62111424Y3298441D01*
X62111075Y3297950D01*
X61703511Y3587590D01*
X61703860Y3588081D01*
X61683862Y3602293D01*
X61646845Y3634501D01*
X61613162Y3670181D01*
X61583138Y3708992D01*
X61557063Y3750558D01*
X61535190Y3794480D01*
X61517725Y3840335D01*
X61504839Y3887679D01*
X61496656Y3936061D01*
X61493255Y3985010D01*
X61494668Y4034058D01*
X61500881Y4082730D01*
X61511836Y4130559D01*
X61527425Y4177085D01*
X61547501Y4221858D01*
X61571867Y4264448D01*
X61586079Y4284446D01*
X61585588Y4284795D01*
X61904193Y4733115D01*
X63126884Y3864193D01*
G37*
G36*
X35671705Y4067975D02*
G01*
X34449014Y4936897D01*
X35028295Y5752025D01*
X36250986Y4883103D01*
X35671705Y4067975D01*
G37*
G36*
X35492211Y6403778D02*
G01*
X35506423Y6423776D01*
X35538631Y6460794D01*
X35574311Y6494477D01*
X35613122Y6524500D01*
X35654688Y6550575D01*
X35698610Y6572449D01*
X35744464Y6589914D01*
X35791809Y6602799D01*
X35840191Y6610982D01*
X35889140Y6614384D01*
X35938187Y6612970D01*
X35986860Y6606758D01*
X36034689Y6595803D01*
X36081215Y6580213D01*
X36125988Y6560138D01*
X36168578Y6535772D01*
X36188576Y6521559D01*
X36188925Y6522050D01*
X36596489Y6232410D01*
X36596140Y6231919D01*
X36616138Y6217707D01*
X36653155Y6185499D01*
X36686838Y6149819D01*
X36716862Y6111008D01*
X36742937Y6069442D01*
X36764810Y6025520D01*
X36782275Y5979665D01*
X36795161Y5932321D01*
X36803344Y5883939D01*
X36806745Y5834990D01*
X36805332Y5785942D01*
X36799119Y5737270D01*
X36788164Y5689441D01*
X36772575Y5642915D01*
X36752499Y5598142D01*
X36728133Y5555552D01*
X36713921Y5535554D01*
X36714412Y5535205D01*
X36395807Y5086885D01*
X35173116Y5955807D01*
X35491720Y6404127D01*
X35492211Y6403778D01*
G37*
G36*
X35526884Y3864193D02*
G01*
X35208280Y3415873D01*
X35207789Y3416222D01*
X35193577Y3396224D01*
X35161369Y3359206D01*
X35125689Y3325523D01*
X35086878Y3295500D01*
X35045312Y3269425D01*
X35001390Y3247551D01*
X34955536Y3230086D01*
X34908191Y3217201D01*
X34859809Y3209018D01*
X34810860Y3205616D01*
X34761813Y3207030D01*
X34713140Y3213242D01*
X34665311Y3224197D01*
X34618785Y3239787D01*
X34574012Y3259862D01*
X34531422Y3284228D01*
X34511424Y3298441D01*
X34511075Y3297950D01*
X34103511Y3587590D01*
X34103860Y3588081D01*
X34083862Y3602293D01*
X34046845Y3634501D01*
X34013162Y3670181D01*
X33983138Y3708992D01*
X33957063Y3750558D01*
X33935190Y3794480D01*
X33917725Y3840335D01*
X33904839Y3887679D01*
X33896656Y3936061D01*
X33893255Y3985010D01*
X33894668Y4034058D01*
X33900881Y4082730D01*
X33911836Y4130559D01*
X33927425Y4177085D01*
X33947501Y4221858D01*
X33971867Y4264448D01*
X33986079Y4284446D01*
X33985588Y4284795D01*
X34304193Y4733115D01*
X35526884Y3864193D01*
G37*
D15*
X13520000Y37500000D03*
D13*
G36*
X12220000Y36750602D02*
G01*
X12195466Y36750602D01*
X12146635Y36755412D01*
X12098510Y36764984D01*
X12051555Y36779228D01*
X12006222Y36798005D01*
X11962949Y36821136D01*
X11922150Y36848396D01*
X11884221Y36879524D01*
X11849524Y36914221D01*
X11818396Y36952150D01*
X11791136Y36992949D01*
X11768005Y37036222D01*
X11749228Y37081555D01*
X11734984Y37128510D01*
X11725412Y37176635D01*
X11720602Y37225466D01*
X11720602Y37250000D01*
X11720000Y37250000D01*
X11720000Y37750000D01*
X11720602Y37750000D01*
X11720602Y37774534D01*
X11725412Y37823365D01*
X11734984Y37871490D01*
X11749228Y37918445D01*
X11768005Y37963778D01*
X11791136Y38007051D01*
X11818396Y38047850D01*
X11849524Y38085779D01*
X11884221Y38120476D01*
X11922150Y38151604D01*
X11962949Y38178864D01*
X12006222Y38201995D01*
X12051555Y38220772D01*
X12098510Y38235016D01*
X12146635Y38244588D01*
X12195466Y38249398D01*
X12220000Y38249398D01*
X12220000Y38250000D01*
X12770000Y38250000D01*
X12770000Y36750000D01*
X12220000Y36750000D01*
X12220000Y36750602D01*
G37*
G36*
X14270000Y38250000D02*
G01*
X14820000Y38250000D01*
X14820000Y38249398D01*
X14844534Y38249398D01*
X14893365Y38244588D01*
X14941490Y38235016D01*
X14988445Y38220772D01*
X15033778Y38201995D01*
X15077051Y38178864D01*
X15117850Y38151604D01*
X15155779Y38120476D01*
X15190476Y38085779D01*
X15221604Y38047850D01*
X15248864Y38007051D01*
X15271995Y37963778D01*
X15290772Y37918445D01*
X15305016Y37871490D01*
X15314588Y37823365D01*
X15319398Y37774534D01*
X15319398Y37750000D01*
X15320000Y37750000D01*
X15320000Y37250000D01*
X15319398Y37250000D01*
X15319398Y37225466D01*
X15314588Y37176635D01*
X15305016Y37128510D01*
X15290772Y37081555D01*
X15271995Y37036222D01*
X15248864Y36992949D01*
X15221604Y36952150D01*
X15190476Y36914221D01*
X15155779Y36879524D01*
X15117850Y36848396D01*
X15077051Y36821136D01*
X15033778Y36798005D01*
X14988445Y36779228D01*
X14941490Y36764984D01*
X14893365Y36755412D01*
X14844534Y36750602D01*
X14820000Y36750602D01*
X14820000Y36750000D01*
X14270000Y36750000D01*
X14270000Y38250000D01*
G37*
D15*
X41120000Y37500000D03*
D13*
G36*
X39820000Y36750602D02*
G01*
X39795466Y36750602D01*
X39746635Y36755412D01*
X39698510Y36764984D01*
X39651555Y36779228D01*
X39606222Y36798005D01*
X39562949Y36821136D01*
X39522150Y36848396D01*
X39484221Y36879524D01*
X39449524Y36914221D01*
X39418396Y36952150D01*
X39391136Y36992949D01*
X39368005Y37036222D01*
X39349228Y37081555D01*
X39334984Y37128510D01*
X39325412Y37176635D01*
X39320602Y37225466D01*
X39320602Y37250000D01*
X39320000Y37250000D01*
X39320000Y37750000D01*
X39320602Y37750000D01*
X39320602Y37774534D01*
X39325412Y37823365D01*
X39334984Y37871490D01*
X39349228Y37918445D01*
X39368005Y37963778D01*
X39391136Y38007051D01*
X39418396Y38047850D01*
X39449524Y38085779D01*
X39484221Y38120476D01*
X39522150Y38151604D01*
X39562949Y38178864D01*
X39606222Y38201995D01*
X39651555Y38220772D01*
X39698510Y38235016D01*
X39746635Y38244588D01*
X39795466Y38249398D01*
X39820000Y38249398D01*
X39820000Y38250000D01*
X40370000Y38250000D01*
X40370000Y36750000D01*
X39820000Y36750000D01*
X39820000Y36750602D01*
G37*
G36*
X41870000Y38250000D02*
G01*
X42420000Y38250000D01*
X42420000Y38249398D01*
X42444534Y38249398D01*
X42493365Y38244588D01*
X42541490Y38235016D01*
X42588445Y38220772D01*
X42633778Y38201995D01*
X42677051Y38178864D01*
X42717850Y38151604D01*
X42755779Y38120476D01*
X42790476Y38085779D01*
X42821604Y38047850D01*
X42848864Y38007051D01*
X42871995Y37963778D01*
X42890772Y37918445D01*
X42905016Y37871490D01*
X42914588Y37823365D01*
X42919398Y37774534D01*
X42919398Y37750000D01*
X42920000Y37750000D01*
X42920000Y37250000D01*
X42919398Y37250000D01*
X42919398Y37225466D01*
X42914588Y37176635D01*
X42905016Y37128510D01*
X42890772Y37081555D01*
X42871995Y37036222D01*
X42848864Y36992949D01*
X42821604Y36952150D01*
X42790476Y36914221D01*
X42755779Y36879524D01*
X42717850Y36848396D01*
X42677051Y36821136D01*
X42633778Y36798005D01*
X42588445Y36779228D01*
X42541490Y36764984D01*
X42493365Y36755412D01*
X42444534Y36750602D01*
X42420000Y36750602D01*
X42420000Y36750000D01*
X41870000Y36750000D01*
X41870000Y38250000D01*
G37*
D15*
X68720000Y37500000D03*
D13*
G36*
X67420000Y36750602D02*
G01*
X67395466Y36750602D01*
X67346635Y36755412D01*
X67298510Y36764984D01*
X67251555Y36779228D01*
X67206222Y36798005D01*
X67162949Y36821136D01*
X67122150Y36848396D01*
X67084221Y36879524D01*
X67049524Y36914221D01*
X67018396Y36952150D01*
X66991136Y36992949D01*
X66968005Y37036222D01*
X66949228Y37081555D01*
X66934984Y37128510D01*
X66925412Y37176635D01*
X66920602Y37225466D01*
X66920602Y37250000D01*
X66920000Y37250000D01*
X66920000Y37750000D01*
X66920602Y37750000D01*
X66920602Y37774534D01*
X66925412Y37823365D01*
X66934984Y37871490D01*
X66949228Y37918445D01*
X66968005Y37963778D01*
X66991136Y38007051D01*
X67018396Y38047850D01*
X67049524Y38085779D01*
X67084221Y38120476D01*
X67122150Y38151604D01*
X67162949Y38178864D01*
X67206222Y38201995D01*
X67251555Y38220772D01*
X67298510Y38235016D01*
X67346635Y38244588D01*
X67395466Y38249398D01*
X67420000Y38249398D01*
X67420000Y38250000D01*
X67970000Y38250000D01*
X67970000Y36750000D01*
X67420000Y36750000D01*
X67420000Y36750602D01*
G37*
G36*
X69470000Y38250000D02*
G01*
X70020000Y38250000D01*
X70020000Y38249398D01*
X70044534Y38249398D01*
X70093365Y38244588D01*
X70141490Y38235016D01*
X70188445Y38220772D01*
X70233778Y38201995D01*
X70277051Y38178864D01*
X70317850Y38151604D01*
X70355779Y38120476D01*
X70390476Y38085779D01*
X70421604Y38047850D01*
X70448864Y38007051D01*
X70471995Y37963778D01*
X70490772Y37918445D01*
X70505016Y37871490D01*
X70514588Y37823365D01*
X70519398Y37774534D01*
X70519398Y37750000D01*
X70520000Y37750000D01*
X70520000Y37250000D01*
X70519398Y37250000D01*
X70519398Y37225466D01*
X70514588Y37176635D01*
X70505016Y37128510D01*
X70490772Y37081555D01*
X70471995Y37036222D01*
X70448864Y36992949D01*
X70421604Y36952150D01*
X70390476Y36914221D01*
X70355779Y36879524D01*
X70317850Y36848396D01*
X70277051Y36821136D01*
X70233778Y36798005D01*
X70188445Y36779228D01*
X70141490Y36764984D01*
X70093365Y36755412D01*
X70044534Y36750602D01*
X70020000Y36750602D01*
X70020000Y36750000D01*
X69470000Y36750000D01*
X69470000Y38250000D01*
G37*
D15*
X68680000Y3720000D03*
D13*
G36*
X69980000Y4469398D02*
G01*
X70004534Y4469398D01*
X70053365Y4464588D01*
X70101490Y4455016D01*
X70148445Y4440772D01*
X70193778Y4421995D01*
X70237051Y4398864D01*
X70277850Y4371604D01*
X70315779Y4340476D01*
X70350476Y4305779D01*
X70381604Y4267850D01*
X70408864Y4227051D01*
X70431995Y4183778D01*
X70450772Y4138445D01*
X70465016Y4091490D01*
X70474588Y4043365D01*
X70479398Y3994534D01*
X70479398Y3970000D01*
X70480000Y3970000D01*
X70480000Y3470000D01*
X70479398Y3470000D01*
X70479398Y3445466D01*
X70474588Y3396635D01*
X70465016Y3348510D01*
X70450772Y3301555D01*
X70431995Y3256222D01*
X70408864Y3212949D01*
X70381604Y3172150D01*
X70350476Y3134221D01*
X70315779Y3099524D01*
X70277850Y3068396D01*
X70237051Y3041136D01*
X70193778Y3018005D01*
X70148445Y2999228D01*
X70101490Y2984984D01*
X70053365Y2975412D01*
X70004534Y2970602D01*
X69980000Y2970602D01*
X69980000Y2970000D01*
X69430000Y2970000D01*
X69430000Y4470000D01*
X69980000Y4470000D01*
X69980000Y4469398D01*
G37*
G36*
X67930000Y2970000D02*
G01*
X67380000Y2970000D01*
X67380000Y2970602D01*
X67355466Y2970602D01*
X67306635Y2975412D01*
X67258510Y2984984D01*
X67211555Y2999228D01*
X67166222Y3018005D01*
X67122949Y3041136D01*
X67082150Y3068396D01*
X67044221Y3099524D01*
X67009524Y3134221D01*
X66978396Y3172150D01*
X66951136Y3212949D01*
X66928005Y3256222D01*
X66909228Y3301555D01*
X66894984Y3348510D01*
X66885412Y3396635D01*
X66880602Y3445466D01*
X66880602Y3470000D01*
X66880000Y3470000D01*
X66880000Y3970000D01*
X66880602Y3970000D01*
X66880602Y3994534D01*
X66885412Y4043365D01*
X66894984Y4091490D01*
X66909228Y4138445D01*
X66928005Y4183778D01*
X66951136Y4227051D01*
X66978396Y4267850D01*
X67009524Y4305779D01*
X67044221Y4340476D01*
X67082150Y4371604D01*
X67122949Y4398864D01*
X67166222Y4421995D01*
X67211555Y4440772D01*
X67258510Y4455016D01*
X67306635Y4464588D01*
X67355466Y4469398D01*
X67380000Y4469398D01*
X67380000Y4470000D01*
X67930000Y4470000D01*
X67930000Y2970000D01*
G37*
D15*
X41080000Y3720000D03*
D13*
G36*
X42380000Y4469398D02*
G01*
X42404534Y4469398D01*
X42453365Y4464588D01*
X42501490Y4455016D01*
X42548445Y4440772D01*
X42593778Y4421995D01*
X42637051Y4398864D01*
X42677850Y4371604D01*
X42715779Y4340476D01*
X42750476Y4305779D01*
X42781604Y4267850D01*
X42808864Y4227051D01*
X42831995Y4183778D01*
X42850772Y4138445D01*
X42865016Y4091490D01*
X42874588Y4043365D01*
X42879398Y3994534D01*
X42879398Y3970000D01*
X42880000Y3970000D01*
X42880000Y3470000D01*
X42879398Y3470000D01*
X42879398Y3445466D01*
X42874588Y3396635D01*
X42865016Y3348510D01*
X42850772Y3301555D01*
X42831995Y3256222D01*
X42808864Y3212949D01*
X42781604Y3172150D01*
X42750476Y3134221D01*
X42715779Y3099524D01*
X42677850Y3068396D01*
X42637051Y3041136D01*
X42593778Y3018005D01*
X42548445Y2999228D01*
X42501490Y2984984D01*
X42453365Y2975412D01*
X42404534Y2970602D01*
X42380000Y2970602D01*
X42380000Y2970000D01*
X41830000Y2970000D01*
X41830000Y4470000D01*
X42380000Y4470000D01*
X42380000Y4469398D01*
G37*
G36*
X40330000Y2970000D02*
G01*
X39780000Y2970000D01*
X39780000Y2970602D01*
X39755466Y2970602D01*
X39706635Y2975412D01*
X39658510Y2984984D01*
X39611555Y2999228D01*
X39566222Y3018005D01*
X39522949Y3041136D01*
X39482150Y3068396D01*
X39444221Y3099524D01*
X39409524Y3134221D01*
X39378396Y3172150D01*
X39351136Y3212949D01*
X39328005Y3256222D01*
X39309228Y3301555D01*
X39294984Y3348510D01*
X39285412Y3396635D01*
X39280602Y3445466D01*
X39280602Y3470000D01*
X39280000Y3470000D01*
X39280000Y3970000D01*
X39280602Y3970000D01*
X39280602Y3994534D01*
X39285412Y4043365D01*
X39294984Y4091490D01*
X39309228Y4138445D01*
X39328005Y4183778D01*
X39351136Y4227051D01*
X39378396Y4267850D01*
X39409524Y4305779D01*
X39444221Y4340476D01*
X39482150Y4371604D01*
X39522949Y4398864D01*
X39566222Y4421995D01*
X39611555Y4440772D01*
X39658510Y4455016D01*
X39706635Y4464588D01*
X39755466Y4469398D01*
X39780000Y4469398D01*
X39780000Y4470000D01*
X40330000Y4470000D01*
X40330000Y2970000D01*
G37*
D14*
X21360000Y39280000D03*
X48960000Y39280000D03*
X76560000Y39280000D03*
X60840000Y1940000D03*
X33240000Y1940000D03*
D16*
X15490000Y39160000D03*
X13490000Y39160000D03*
D14*
X11490000Y39160000D03*
D16*
X43090000Y39160000D03*
X41090000Y39160000D03*
D14*
X39090000Y39160000D03*
D16*
X70690000Y39160000D03*
X68690000Y39160000D03*
D14*
X66690000Y39160000D03*
D16*
X66710000Y2060000D03*
X68710000Y2060000D03*
D14*
X70710000Y2060000D03*
D16*
X39110000Y2060000D03*
X41110000Y2060000D03*
D14*
X43110000Y2060000D03*
D13*
G36*
X13798774Y25080804D02*
G01*
X14580804Y26181226D01*
X15681226Y25399196D01*
X14899196Y24298774D01*
X13798774Y25080804D01*
G37*
G36*
X41398774Y25080804D02*
G01*
X42180804Y26181226D01*
X43281226Y25399196D01*
X42499196Y24298774D01*
X41398774Y25080804D01*
G37*
G36*
X68998774Y25080804D02*
G01*
X69780804Y26181226D01*
X70881226Y25399196D01*
X70099196Y24298774D01*
X68998774Y25080804D01*
G37*
G36*
X68401226Y16139196D02*
G01*
X67619196Y15038774D01*
X66518774Y15820804D01*
X67300804Y16921226D01*
X68401226Y16139196D01*
G37*
G36*
X40801226Y16139196D02*
G01*
X40019196Y15038774D01*
X38918774Y15820804D01*
X39700804Y16921226D01*
X40801226Y16139196D01*
G37*
G36*
G01*
X22582049Y36010096D02*
X22174485Y36299737D01*
G75*
G02*
X22121419Y36613479I130338J183404D01*
G01*
X22382095Y36980286D01*
G75*
G02*
X22695837Y37033352I183404J-130338D01*
G01*
X23103401Y36743711D01*
G75*
G02*
X23156467Y36429969I-130338J-183404D01*
G01*
X22895791Y36063162D01*
G75*
G02*
X22582049Y36010096I-183404J130338D01*
G01*
G37*
G36*
G01*
X21684163Y34746648D02*
X21276599Y35036289D01*
G75*
G02*
X21223533Y35350031I130338J183404D01*
G01*
X21484209Y35716838D01*
G75*
G02*
X21797951Y35769904I183404J-130338D01*
G01*
X22205515Y35480263D01*
G75*
G02*
X22258581Y35166521I-130338J-183404D01*
G01*
X21997905Y34799714D01*
G75*
G02*
X21684163Y34746648I-183404J130338D01*
G01*
G37*
G36*
G01*
X50182049Y36010096D02*
X49774485Y36299737D01*
G75*
G02*
X49721419Y36613479I130338J183404D01*
G01*
X49982095Y36980286D01*
G75*
G02*
X50295837Y37033352I183404J-130338D01*
G01*
X50703401Y36743711D01*
G75*
G02*
X50756467Y36429969I-130338J-183404D01*
G01*
X50495791Y36063162D01*
G75*
G02*
X50182049Y36010096I-183404J130338D01*
G01*
G37*
G36*
G01*
X49284163Y34746648D02*
X48876599Y35036289D01*
G75*
G02*
X48823533Y35350031I130338J183404D01*
G01*
X49084209Y35716838D01*
G75*
G02*
X49397951Y35769904I183404J-130338D01*
G01*
X49805515Y35480263D01*
G75*
G02*
X49858581Y35166521I-130338J-183404D01*
G01*
X49597905Y34799714D01*
G75*
G02*
X49284163Y34746648I-183404J130338D01*
G01*
G37*
G36*
G01*
X77782049Y36010096D02*
X77374485Y36299737D01*
G75*
G02*
X77321419Y36613479I130338J183404D01*
G01*
X77582095Y36980286D01*
G75*
G02*
X77895837Y37033352I183404J-130338D01*
G01*
X78303401Y36743711D01*
G75*
G02*
X78356467Y36429969I-130338J-183404D01*
G01*
X78095791Y36063162D01*
G75*
G02*
X77782049Y36010096I-183404J130338D01*
G01*
G37*
G36*
G01*
X76884163Y34746648D02*
X76476599Y35036289D01*
G75*
G02*
X76423533Y35350031I130338J183404D01*
G01*
X76684209Y35716838D01*
G75*
G02*
X76997951Y35769904I183404J-130338D01*
G01*
X77405515Y35480263D01*
G75*
G02*
X77458581Y35166521I-130338J-183404D01*
G01*
X77197905Y34799714D01*
G75*
G02*
X76884163Y34746648I-183404J130338D01*
G01*
G37*
G36*
G01*
X59617951Y5209904D02*
X60025515Y4920263D01*
G75*
G02*
X60078581Y4606521I-130338J-183404D01*
G01*
X59817905Y4239714D01*
G75*
G02*
X59504163Y4186648I-183404J130338D01*
G01*
X59096599Y4476289D01*
G75*
G02*
X59043533Y4790031I130338J183404D01*
G01*
X59304209Y5156838D01*
G75*
G02*
X59617951Y5209904I183404J-130338D01*
G01*
G37*
G36*
G01*
X60515837Y6473352D02*
X60923401Y6183711D01*
G75*
G02*
X60976467Y5869969I-130338J-183404D01*
G01*
X60715791Y5503162D01*
G75*
G02*
X60402049Y5450096I-183404J130338D01*
G01*
X59994485Y5739737D01*
G75*
G02*
X59941419Y6053479I130338J183404D01*
G01*
X60202095Y6420286D01*
G75*
G02*
X60515837Y6473352I183404J-130338D01*
G01*
G37*
G36*
G01*
X32017951Y5209904D02*
X32425515Y4920263D01*
G75*
G02*
X32478581Y4606521I-130338J-183404D01*
G01*
X32217905Y4239714D01*
G75*
G02*
X31904163Y4186648I-183404J130338D01*
G01*
X31496599Y4476289D01*
G75*
G02*
X31443533Y4790031I130338J183404D01*
G01*
X31704209Y5156838D01*
G75*
G02*
X32017951Y5209904I183404J-130338D01*
G01*
G37*
G36*
G01*
X32915837Y6473352D02*
X33323401Y6183711D01*
G75*
G02*
X33376467Y5869969I-130338J-183404D01*
G01*
X33115791Y5503162D01*
G75*
G02*
X32802049Y5450096I-183404J130338D01*
G01*
X32394485Y5739737D01*
G75*
G02*
X32341419Y6053479I130338J183404D01*
G01*
X32602095Y6420286D01*
G75*
G02*
X32915837Y6473352I183404J-130338D01*
G01*
G37*
G36*
X12060804Y24318774D02*
G01*
X11278774Y25419196D01*
X12379196Y26201226D01*
X13161226Y25100804D01*
X12060804Y24318774D01*
G37*
G36*
X39660804Y24318774D02*
G01*
X38878774Y25419196D01*
X39979196Y26201226D01*
X40761226Y25100804D01*
X39660804Y24318774D01*
G37*
G36*
X67260804Y24318774D02*
G01*
X66478774Y25419196D01*
X67579196Y26201226D01*
X68361226Y25100804D01*
X67260804Y24318774D01*
G37*
G36*
X70139196Y16901226D02*
G01*
X70921226Y15800804D01*
X69820804Y15018774D01*
X69038774Y16119196D01*
X70139196Y16901226D01*
G37*
G36*
X42539196Y16901226D02*
G01*
X43321226Y15800804D01*
X42220804Y15018774D01*
X41438774Y16119196D01*
X42539196Y16901226D01*
G37*
G36*
G01*
X17681226Y30500760D02*
X17681226Y30500760D01*
G75*
G02*
X18622452Y30659956I550211J-391015D01*
G01*
X18622452Y30659956D01*
G75*
G02*
X18781648Y29718730I-391015J-550211D01*
G01*
X18781648Y29718730D01*
G75*
G02*
X17840422Y29559534I-550211J391015D01*
G01*
X17840422Y29559534D01*
G75*
G02*
X17681226Y30500760I391015J550211D01*
G01*
G37*
G36*
G01*
X18839789Y32131015D02*
X18839789Y32131015D01*
G75*
G02*
X19781015Y32290211I550211J-391015D01*
G01*
X19781015Y32290211D01*
G75*
G02*
X19940211Y31348985I-391015J-550211D01*
G01*
X19940211Y31348985D01*
G75*
G02*
X18998985Y31189789I-550211J391015D01*
G01*
X18998985Y31189789D01*
G75*
G02*
X18839789Y32131015I391015J550211D01*
G01*
G37*
G36*
X19607336Y33211060D02*
G01*
X20389366Y34311482D01*
X21489788Y33529452D01*
X20707758Y32429030D01*
X19607336Y33211060D01*
G37*
G36*
G01*
X45281226Y30500760D02*
X45281226Y30500760D01*
G75*
G02*
X46222452Y30659956I550211J-391015D01*
G01*
X46222452Y30659956D01*
G75*
G02*
X46381648Y29718730I-391015J-550211D01*
G01*
X46381648Y29718730D01*
G75*
G02*
X45440422Y29559534I-550211J391015D01*
G01*
X45440422Y29559534D01*
G75*
G02*
X45281226Y30500760I391015J550211D01*
G01*
G37*
G36*
G01*
X46439789Y32131015D02*
X46439789Y32131015D01*
G75*
G02*
X47381015Y32290211I550211J-391015D01*
G01*
X47381015Y32290211D01*
G75*
G02*
X47540211Y31348985I-391015J-550211D01*
G01*
X47540211Y31348985D01*
G75*
G02*
X46598985Y31189789I-550211J391015D01*
G01*
X46598985Y31189789D01*
G75*
G02*
X46439789Y32131015I391015J550211D01*
G01*
G37*
G36*
X47207336Y33211060D02*
G01*
X47989366Y34311482D01*
X49089788Y33529452D01*
X48307758Y32429030D01*
X47207336Y33211060D01*
G37*
G36*
G01*
X72881226Y30500760D02*
X72881226Y30500760D01*
G75*
G02*
X73822452Y30659956I550211J-391015D01*
G01*
X73822452Y30659956D01*
G75*
G02*
X73981648Y29718730I-391015J-550211D01*
G01*
X73981648Y29718730D01*
G75*
G02*
X73040422Y29559534I-550211J391015D01*
G01*
X73040422Y29559534D01*
G75*
G02*
X72881226Y30500760I391015J550211D01*
G01*
G37*
G36*
G01*
X74039789Y32131015D02*
X74039789Y32131015D01*
G75*
G02*
X74981015Y32290211I550211J-391015D01*
G01*
X74981015Y32290211D01*
G75*
G02*
X75140211Y31348985I-391015J-550211D01*
G01*
X75140211Y31348985D01*
G75*
G02*
X74198985Y31189789I-550211J391015D01*
G01*
X74198985Y31189789D01*
G75*
G02*
X74039789Y32131015I391015J550211D01*
G01*
G37*
G36*
X74807336Y33211060D02*
G01*
X75589366Y34311482D01*
X76689788Y33529452D01*
X75907758Y32429030D01*
X74807336Y33211060D01*
G37*
G36*
G01*
X64518774Y10719240D02*
X64518774Y10719240D01*
G75*
G02*
X63577548Y10560044I-550211J391015D01*
G01*
X63577548Y10560044D01*
G75*
G02*
X63418352Y11501270I391015J550211D01*
G01*
X63418352Y11501270D01*
G75*
G02*
X64359578Y11660466I550211J-391015D01*
G01*
X64359578Y11660466D01*
G75*
G02*
X64518774Y10719240I-391015J-550211D01*
G01*
G37*
G36*
G01*
X63360211Y9088985D02*
X63360211Y9088985D01*
G75*
G02*
X62418985Y8929789I-550211J391015D01*
G01*
X62418985Y8929789D01*
G75*
G02*
X62259789Y9871015I391015J550211D01*
G01*
X62259789Y9871015D01*
G75*
G02*
X63201015Y10030211I550211J-391015D01*
G01*
X63201015Y10030211D01*
G75*
G02*
X63360211Y9088985I-391015J-550211D01*
G01*
G37*
G36*
X62592664Y8008940D02*
G01*
X61810634Y6908518D01*
X60710212Y7690548D01*
X61492242Y8790970D01*
X62592664Y8008940D01*
G37*
G36*
G01*
X36918774Y10719240D02*
X36918774Y10719240D01*
G75*
G02*
X35977548Y10560044I-550211J391015D01*
G01*
X35977548Y10560044D01*
G75*
G02*
X35818352Y11501270I391015J550211D01*
G01*
X35818352Y11501270D01*
G75*
G02*
X36759578Y11660466I550211J-391015D01*
G01*
X36759578Y11660466D01*
G75*
G02*
X36918774Y10719240I-391015J-550211D01*
G01*
G37*
G36*
G01*
X35760211Y9088985D02*
X35760211Y9088985D01*
G75*
G02*
X34818985Y8929789I-550211J391015D01*
G01*
X34818985Y8929789D01*
G75*
G02*
X34659789Y9871015I391015J550211D01*
G01*
X34659789Y9871015D01*
G75*
G02*
X35601015Y10030211I550211J-391015D01*
G01*
X35601015Y10030211D01*
G75*
G02*
X35760211Y9088985I-391015J-550211D01*
G01*
G37*
G36*
X34992664Y8008940D02*
G01*
X34210634Y6908518D01*
X33110212Y7690548D01*
X33892242Y8790970D01*
X34992664Y8008940D01*
G37*
G36*
X23048774Y38160804D02*
G01*
X23830804Y39261226D01*
X24931226Y38479196D01*
X24149196Y37378774D01*
X23048774Y38160804D01*
G37*
G36*
X50648774Y38160804D02*
G01*
X51430804Y39261226D01*
X52531226Y38479196D01*
X51749196Y37378774D01*
X50648774Y38160804D01*
G37*
G36*
X78248774Y38160804D02*
G01*
X79030804Y39261226D01*
X80131226Y38479196D01*
X79349196Y37378774D01*
X78248774Y38160804D01*
G37*
G36*
X59151226Y3059196D02*
G01*
X58369196Y1958774D01*
X57268774Y2740804D01*
X58050804Y3841226D01*
X59151226Y3059196D01*
G37*
G36*
X31551226Y3059196D02*
G01*
X30769196Y1958774D01*
X29668774Y2740804D01*
X30450804Y3841226D01*
X31551226Y3059196D01*
G37*
D17*
X15950000Y31870000D03*
X15950000Y35070000D03*
X11050000Y31870000D03*
X11050000Y35070000D03*
X43550000Y31870000D03*
X43550000Y35070000D03*
X38650000Y31870000D03*
X38650000Y35070000D03*
X71150000Y31870000D03*
X71150000Y35070000D03*
X66250000Y31870000D03*
X66250000Y35070000D03*
X66250000Y9350000D03*
X66250000Y6150000D03*
X71150000Y9350000D03*
X71150000Y6150000D03*
X38650000Y9350000D03*
X38650000Y6150000D03*
X43550000Y9350000D03*
X43550000Y6150000D03*
D18*
X13500000Y28510000D03*
X41100000Y28510000D03*
X68700000Y28510000D03*
X68700000Y12710000D03*
X41100000Y12710000D03*
D13*
G36*
X2740804Y37388774D02*
G01*
X1958774Y38489196D01*
X3059196Y39271226D01*
X3841226Y38170804D01*
X2740804Y37388774D01*
G37*
G36*
X30340804Y37388774D02*
G01*
X29558774Y38489196D01*
X30659196Y39271226D01*
X31441226Y38170804D01*
X30340804Y37388774D01*
G37*
G36*
X57940804Y37388774D02*
G01*
X57158774Y38489196D01*
X58259196Y39271226D01*
X59041226Y38170804D01*
X57940804Y37388774D01*
G37*
G36*
X79459196Y3831226D02*
G01*
X80241226Y2730804D01*
X79140804Y1948774D01*
X78358774Y3049196D01*
X79459196Y3831226D01*
G37*
G36*
X51859196Y3831226D02*
G01*
X52641226Y2730804D01*
X51540804Y1948774D01*
X50758774Y3049196D01*
X51859196Y3831226D01*
G37*
G36*
X6242242Y32489030D02*
G01*
X5460212Y33589452D01*
X6560634Y34371482D01*
X7342664Y33271060D01*
X6242242Y32489030D01*
G37*
G36*
G01*
X7009789Y31408985D02*
X7009789Y31408985D01*
G75*
G02*
X7168985Y32350211I550211J391015D01*
G01*
X7168985Y32350211D01*
G75*
G02*
X8110211Y32191015I391015J-550211D01*
G01*
X8110211Y32191015D01*
G75*
G02*
X7951015Y31249789I-550211J-391015D01*
G01*
X7951015Y31249789D01*
G75*
G02*
X7009789Y31408985I-391015J550211D01*
G01*
G37*
G36*
G01*
X8168352Y29778730D02*
X8168352Y29778730D01*
G75*
G02*
X8327548Y30719956I550211J391015D01*
G01*
X8327548Y30719956D01*
G75*
G02*
X9268774Y30560760I391015J-550211D01*
G01*
X9268774Y30560760D01*
G75*
G02*
X9109578Y29619534I-550211J-391015D01*
G01*
X9109578Y29619534D01*
G75*
G02*
X8168352Y29778730I-391015J550211D01*
G01*
G37*
G36*
X33842242Y32489030D02*
G01*
X33060212Y33589452D01*
X34160634Y34371482D01*
X34942664Y33271060D01*
X33842242Y32489030D01*
G37*
G36*
G01*
X34609789Y31408985D02*
X34609789Y31408985D01*
G75*
G02*
X34768985Y32350211I550211J391015D01*
G01*
X34768985Y32350211D01*
G75*
G02*
X35710211Y32191015I391015J-550211D01*
G01*
X35710211Y32191015D01*
G75*
G02*
X35551015Y31249789I-550211J-391015D01*
G01*
X35551015Y31249789D01*
G75*
G02*
X34609789Y31408985I-391015J550211D01*
G01*
G37*
G36*
G01*
X35768352Y29778730D02*
X35768352Y29778730D01*
G75*
G02*
X35927548Y30719956I550211J391015D01*
G01*
X35927548Y30719956D01*
G75*
G02*
X36868774Y30560760I391015J-550211D01*
G01*
X36868774Y30560760D01*
G75*
G02*
X36709578Y29619534I-550211J-391015D01*
G01*
X36709578Y29619534D01*
G75*
G02*
X35768352Y29778730I-391015J550211D01*
G01*
G37*
G36*
X61442242Y32489030D02*
G01*
X60660212Y33589452D01*
X61760634Y34371482D01*
X62542664Y33271060D01*
X61442242Y32489030D01*
G37*
G36*
G01*
X62209789Y31408985D02*
X62209789Y31408985D01*
G75*
G02*
X62368985Y32350211I550211J391015D01*
G01*
X62368985Y32350211D01*
G75*
G02*
X63310211Y32191015I391015J-550211D01*
G01*
X63310211Y32191015D01*
G75*
G02*
X63151015Y31249789I-550211J-391015D01*
G01*
X63151015Y31249789D01*
G75*
G02*
X62209789Y31408985I-391015J550211D01*
G01*
G37*
G36*
G01*
X63368352Y29778730D02*
X63368352Y29778730D01*
G75*
G02*
X63527548Y30719956I550211J391015D01*
G01*
X63527548Y30719956D01*
G75*
G02*
X64468774Y30560760I391015J-550211D01*
G01*
X64468774Y30560760D01*
G75*
G02*
X64309578Y29619534I-550211J-391015D01*
G01*
X64309578Y29619534D01*
G75*
G02*
X63368352Y29778730I-391015J550211D01*
G01*
G37*
G36*
X75957758Y8730970D02*
G01*
X76739788Y7630548D01*
X75639366Y6848518D01*
X74857336Y7948940D01*
X75957758Y8730970D01*
G37*
G36*
G01*
X75190211Y9811015D02*
X75190211Y9811015D01*
G75*
G02*
X75031015Y8869789I-550211J-391015D01*
G01*
X75031015Y8869789D01*
G75*
G02*
X74089789Y9028985I-391015J550211D01*
G01*
X74089789Y9028985D01*
G75*
G02*
X74248985Y9970211I550211J391015D01*
G01*
X74248985Y9970211D01*
G75*
G02*
X75190211Y9811015I391015J-550211D01*
G01*
G37*
G36*
G01*
X74031648Y11441270D02*
X74031648Y11441270D01*
G75*
G02*
X73872452Y10500044I-550211J-391015D01*
G01*
X73872452Y10500044D01*
G75*
G02*
X72931226Y10659240I-391015J550211D01*
G01*
X72931226Y10659240D01*
G75*
G02*
X73090422Y11600466I550211J391015D01*
G01*
X73090422Y11600466D01*
G75*
G02*
X74031648Y11441270I391015J-550211D01*
G01*
G37*
G36*
X48357758Y8730970D02*
G01*
X49139788Y7630548D01*
X48039366Y6848518D01*
X47257336Y7948940D01*
X48357758Y8730970D01*
G37*
G36*
G01*
X47590211Y9811015D02*
X47590211Y9811015D01*
G75*
G02*
X47431015Y8869789I-550211J-391015D01*
G01*
X47431015Y8869789D01*
G75*
G02*
X46489789Y9028985I-391015J550211D01*
G01*
X46489789Y9028985D01*
G75*
G02*
X46648985Y9970211I550211J391015D01*
G01*
X46648985Y9970211D01*
G75*
G02*
X47590211Y9811015I391015J-550211D01*
G01*
G37*
G36*
G01*
X46431648Y11441270D02*
X46431648Y11441270D01*
G75*
G02*
X46272452Y10500044I-550211J-391015D01*
G01*
X46272452Y10500044D01*
G75*
G02*
X45331226Y10659240I-391015J550211D01*
G01*
X45331226Y10659240D01*
G75*
G02*
X45490422Y11600466I550211J391015D01*
G01*
X45490422Y11600466D01*
G75*
G02*
X46431648Y11441270I391015J-550211D01*
G01*
G37*
D18*
X13500000Y12710000D03*
G36*
G01*
X5315837Y6473352D02*
X5723401Y6183711D01*
G75*
G02*
X5776467Y5869969I-130338J-183404D01*
G01*
X5515791Y5503162D01*
G75*
G02*
X5202049Y5450096I-183404J130338D01*
G01*
X4794485Y5739737D01*
G75*
G02*
X4741419Y6053479I130338J183404D01*
G01*
X5002095Y6420286D01*
G75*
G02*
X5315837Y6473352I183404J-130338D01*
G01*
G37*
G36*
G01*
X4417951Y5209904D02*
X4825515Y4920263D01*
G75*
G02*
X4878581Y4606521I-130338J-183404D01*
G01*
X4617905Y4239714D01*
G75*
G02*
X4304163Y4186648I-183404J130338D01*
G01*
X3896599Y4476289D01*
G75*
G02*
X3843533Y4790031I130338J183404D01*
G01*
X4104209Y5156838D01*
G75*
G02*
X4417951Y5209904I183404J-130338D01*
G01*
G37*
D17*
X15950000Y6150000D03*
X15950000Y9350000D03*
X11050000Y6150000D03*
X11050000Y9350000D03*
D13*
G36*
X3951226Y3059196D02*
G01*
X3169196Y1958774D01*
X2068774Y2740804D01*
X2850804Y3841226D01*
X3951226Y3059196D01*
G37*
G36*
X7392664Y8008940D02*
G01*
X6610634Y6908518D01*
X5510212Y7690548D01*
X6292242Y8790970D01*
X7392664Y8008940D01*
G37*
G36*
G01*
X8160211Y9088985D02*
X8160211Y9088985D01*
G75*
G02*
X7218985Y8929789I-550211J391015D01*
G01*
X7218985Y8929789D01*
G75*
G02*
X7059789Y9871015I391015J550211D01*
G01*
X7059789Y9871015D01*
G75*
G02*
X8001015Y10030211I550211J-391015D01*
G01*
X8001015Y10030211D01*
G75*
G02*
X8160211Y9088985I-391015J-550211D01*
G01*
G37*
G36*
G01*
X9318774Y10719240D02*
X9318774Y10719240D01*
G75*
G02*
X8377548Y10560044I-550211J391015D01*
G01*
X8377548Y10560044D01*
G75*
G02*
X8218352Y11501270I391015J550211D01*
G01*
X8218352Y11501270D01*
G75*
G02*
X9159578Y11660466I550211J-391015D01*
G01*
X9159578Y11660466D01*
G75*
G02*
X9318774Y10719240I-391015J-550211D01*
G01*
G37*
G36*
X13201226Y16139196D02*
G01*
X12419196Y15038774D01*
X11318774Y15820804D01*
X12100804Y16921226D01*
X13201226Y16139196D01*
G37*
G36*
X14939196Y16901226D02*
G01*
X15721226Y15800804D01*
X14620804Y15018774D01*
X13838774Y16119196D01*
X14939196Y16901226D01*
G37*
G36*
G01*
X18831648Y11441270D02*
X18831648Y11441270D01*
G75*
G02*
X18672452Y10500044I-550211J-391015D01*
G01*
X18672452Y10500044D01*
G75*
G02*
X17731226Y10659240I-391015J550211D01*
G01*
X17731226Y10659240D01*
G75*
G02*
X17890422Y11600466I550211J391015D01*
G01*
X17890422Y11600466D01*
G75*
G02*
X18831648Y11441270I391015J-550211D01*
G01*
G37*
G36*
G01*
X19990211Y9811015D02*
X19990211Y9811015D01*
G75*
G02*
X19831015Y8869789I-550211J-391015D01*
G01*
X19831015Y8869789D01*
G75*
G02*
X18889789Y9028985I-391015J550211D01*
G01*
X18889789Y9028985D01*
G75*
G02*
X19048985Y9970211I550211J391015D01*
G01*
X19048985Y9970211D01*
G75*
G02*
X19990211Y9811015I391015J-550211D01*
G01*
G37*
G36*
X20757758Y8730970D02*
G01*
X21539788Y7630548D01*
X20439366Y6848518D01*
X19657336Y7948940D01*
X20757758Y8730970D01*
G37*
G36*
X24259196Y3831226D02*
G01*
X25041226Y2730804D01*
X23940804Y1948774D01*
X23158774Y3049196D01*
X24259196Y3831226D01*
G37*
D14*
X21530000Y2020000D03*
X15510000Y2060000D03*
D16*
X13510000Y2060000D03*
X11510000Y2060000D03*
D14*
X5640000Y1940000D03*
D13*
G36*
X7926884Y3864193D02*
G01*
X7608280Y3415873D01*
X7607789Y3416222D01*
X7593577Y3396224D01*
X7561369Y3359206D01*
X7525689Y3325523D01*
X7486878Y3295500D01*
X7445312Y3269425D01*
X7401390Y3247551D01*
X7355536Y3230086D01*
X7308191Y3217201D01*
X7259809Y3209018D01*
X7210860Y3205616D01*
X7161813Y3207030D01*
X7113140Y3213242D01*
X7065311Y3224197D01*
X7018785Y3239787D01*
X6974012Y3259862D01*
X6931422Y3284228D01*
X6911424Y3298441D01*
X6911075Y3297950D01*
X6503511Y3587590D01*
X6503860Y3588081D01*
X6483862Y3602293D01*
X6446845Y3634501D01*
X6413162Y3670181D01*
X6383138Y3708992D01*
X6357063Y3750558D01*
X6335190Y3794480D01*
X6317725Y3840335D01*
X6304839Y3887679D01*
X6296656Y3936061D01*
X6293255Y3985010D01*
X6294668Y4034058D01*
X6300881Y4082730D01*
X6311836Y4130559D01*
X6327425Y4177085D01*
X6347501Y4221858D01*
X6371867Y4264448D01*
X6386079Y4284446D01*
X6385588Y4284795D01*
X6704193Y4733115D01*
X7926884Y3864193D01*
G37*
G36*
X7892211Y6403778D02*
G01*
X7906423Y6423776D01*
X7938631Y6460794D01*
X7974311Y6494477D01*
X8013122Y6524500D01*
X8054688Y6550575D01*
X8098610Y6572449D01*
X8144464Y6589914D01*
X8191809Y6602799D01*
X8240191Y6610982D01*
X8289140Y6614384D01*
X8338187Y6612970D01*
X8386860Y6606758D01*
X8434689Y6595803D01*
X8481215Y6580213D01*
X8525988Y6560138D01*
X8568578Y6535772D01*
X8588576Y6521559D01*
X8588925Y6522050D01*
X8996489Y6232410D01*
X8996140Y6231919D01*
X9016138Y6217707D01*
X9053155Y6185499D01*
X9086838Y6149819D01*
X9116862Y6111008D01*
X9142937Y6069442D01*
X9164810Y6025520D01*
X9182275Y5979665D01*
X9195161Y5932321D01*
X9203344Y5883939D01*
X9206745Y5834990D01*
X9205332Y5785942D01*
X9199119Y5737270D01*
X9188164Y5689441D01*
X9172575Y5642915D01*
X9152499Y5598142D01*
X9128133Y5555552D01*
X9113921Y5535554D01*
X9114412Y5535205D01*
X8795807Y5086885D01*
X7573116Y5955807D01*
X7891720Y6404127D01*
X7892211Y6403778D01*
G37*
G36*
X8071705Y4067975D02*
G01*
X6849014Y4936897D01*
X7428295Y5752025D01*
X8650986Y4883103D01*
X8071705Y4067975D01*
G37*
G36*
X18159014Y5273103D02*
G01*
X19381705Y6142025D01*
X19960986Y5326897D01*
X18738295Y4457975D01*
X18159014Y5273103D01*
G37*
G36*
X20423921Y4674446D02*
G01*
X20438133Y4654448D01*
X20462499Y4611858D01*
X20482575Y4567085D01*
X20498164Y4520559D01*
X20509119Y4472730D01*
X20515332Y4424058D01*
X20516745Y4375010D01*
X20513344Y4326061D01*
X20505161Y4277679D01*
X20492275Y4230335D01*
X20474810Y4184480D01*
X20452937Y4140558D01*
X20426862Y4098992D01*
X20396838Y4060181D01*
X20363155Y4024501D01*
X20326138Y3992293D01*
X20306140Y3978081D01*
X20306489Y3977590D01*
X19898925Y3687950D01*
X19898576Y3688441D01*
X19878578Y3674228D01*
X19835988Y3649862D01*
X19791215Y3629787D01*
X19744689Y3614197D01*
X19696860Y3603242D01*
X19648187Y3597030D01*
X19599140Y3595616D01*
X19550191Y3599018D01*
X19501809Y3607201D01*
X19454464Y3620086D01*
X19408610Y3637551D01*
X19364688Y3659425D01*
X19323122Y3685500D01*
X19284311Y3715523D01*
X19248631Y3749206D01*
X19216423Y3786224D01*
X19202211Y3806222D01*
X19201720Y3805873D01*
X18883116Y4254193D01*
X20105807Y5123115D01*
X20424412Y4674795D01*
X20423921Y4674446D01*
G37*
G36*
X18014193Y5476885D02*
G01*
X17695588Y5925205D01*
X17696079Y5925554D01*
X17681867Y5945552D01*
X17657501Y5988142D01*
X17637425Y6032915D01*
X17621836Y6079441D01*
X17610881Y6127270D01*
X17604668Y6175942D01*
X17603255Y6224990D01*
X17606656Y6273939D01*
X17614839Y6322321D01*
X17627725Y6369665D01*
X17645190Y6415520D01*
X17667063Y6459442D01*
X17693138Y6501008D01*
X17723162Y6539819D01*
X17756845Y6575499D01*
X17793862Y6607707D01*
X17813860Y6621919D01*
X17813511Y6622410D01*
X18221075Y6912050D01*
X18221424Y6911559D01*
X18241422Y6925772D01*
X18284012Y6950138D01*
X18328785Y6970213D01*
X18375311Y6985803D01*
X18423140Y6996758D01*
X18471813Y7002970D01*
X18520860Y7004384D01*
X18569809Y7000982D01*
X18618191Y6992799D01*
X18665536Y6979914D01*
X18711390Y6962449D01*
X18755312Y6940575D01*
X18796878Y6914500D01*
X18835689Y6884477D01*
X18871369Y6850794D01*
X18903577Y6813776D01*
X18917789Y6793778D01*
X18918280Y6794127D01*
X19236884Y6345807D01*
X18014193Y5476885D01*
G37*
G36*
X12730000Y2970000D02*
G01*
X12180000Y2970000D01*
X12180000Y2970602D01*
X12155466Y2970602D01*
X12106635Y2975412D01*
X12058510Y2984984D01*
X12011555Y2999228D01*
X11966222Y3018005D01*
X11922949Y3041136D01*
X11882150Y3068396D01*
X11844221Y3099524D01*
X11809524Y3134221D01*
X11778396Y3172150D01*
X11751136Y3212949D01*
X11728005Y3256222D01*
X11709228Y3301555D01*
X11694984Y3348510D01*
X11685412Y3396635D01*
X11680602Y3445466D01*
X11680602Y3470000D01*
X11680000Y3470000D01*
X11680000Y3970000D01*
X11680602Y3970000D01*
X11680602Y3994534D01*
X11685412Y4043365D01*
X11694984Y4091490D01*
X11709228Y4138445D01*
X11728005Y4183778D01*
X11751136Y4227051D01*
X11778396Y4267850D01*
X11809524Y4305779D01*
X11844221Y4340476D01*
X11882150Y4371604D01*
X11922949Y4398864D01*
X11966222Y4421995D01*
X12011555Y4440772D01*
X12058510Y4455016D01*
X12106635Y4464588D01*
X12155466Y4469398D01*
X12180000Y4469398D01*
X12180000Y4470000D01*
X12730000Y4470000D01*
X12730000Y2970000D01*
G37*
G36*
X14780000Y4469398D02*
G01*
X14804534Y4469398D01*
X14853365Y4464588D01*
X14901490Y4455016D01*
X14948445Y4440772D01*
X14993778Y4421995D01*
X15037051Y4398864D01*
X15077850Y4371604D01*
X15115779Y4340476D01*
X15150476Y4305779D01*
X15181604Y4267850D01*
X15208864Y4227051D01*
X15231995Y4183778D01*
X15250772Y4138445D01*
X15265016Y4091490D01*
X15274588Y4043365D01*
X15279398Y3994534D01*
X15279398Y3970000D01*
X15280000Y3970000D01*
X15280000Y3470000D01*
X15279398Y3470000D01*
X15279398Y3445466D01*
X15274588Y3396635D01*
X15265016Y3348510D01*
X15250772Y3301555D01*
X15231995Y3256222D01*
X15208864Y3212949D01*
X15181604Y3172150D01*
X15150476Y3134221D01*
X15115779Y3099524D01*
X15077850Y3068396D01*
X15037051Y3041136D01*
X14993778Y3018005D01*
X14948445Y2999228D01*
X14901490Y2984984D01*
X14853365Y2975412D01*
X14804534Y2970602D01*
X14780000Y2970602D01*
X14780000Y2970000D01*
X14230000Y2970000D01*
X14230000Y4470000D01*
X14780000Y4470000D01*
X14780000Y4469398D01*
G37*
D15*
X13480000Y3720000D03*
M02*
