G04 #@! TF.GenerationSoftware,KiCad,Pcbnew,(5.1.12)-1*
G04 #@! TF.CreationDate,2023-06-20T10:26:49+09:00*
G04 #@! TF.ProjectId,LED_Sphere_3V-TypeC-Panelized,4c45445f-5370-4686-9572-655f33562d54,rev?*
G04 #@! TF.SameCoordinates,PX5a06e00PY8f0d180*
G04 #@! TF.FileFunction,Soldermask,Top*
G04 #@! TF.FilePolarity,Negative*
%FSLAX46Y46*%
G04 Gerber Fmt 4.6, Leading zero omitted, Abs format (unit mm)*
G04 Created by KiCad (PCBNEW (5.1.12)-1) date 2023-06-20 10:26:49*
%MOMM*%
%LPD*%
G01*
G04 APERTURE LIST*
%ADD10C,0.600000*%
%ADD11R,1.000000X1.500000*%
%ADD12C,0.100000*%
%ADD13O,1.350000X1.350000*%
%ADD14R,1.350000X1.350000*%
%ADD15C,2.700000*%
%ADD16R,1.500000X1.000000*%
G04 APERTURE END LIST*
D10*
X88100000Y21370000D03*
X60500000Y21370000D03*
X32900000Y21370000D03*
X5300000Y21370000D03*
X88100000Y70970000D03*
X60500000Y70970000D03*
X32900000Y70970000D03*
X5300000Y70970000D03*
D11*
X19114000Y67768000D03*
D12*
G36*
X17814000Y67018602D02*
G01*
X17789466Y67018602D01*
X17740635Y67023412D01*
X17692510Y67032984D01*
X17645555Y67047228D01*
X17600222Y67066005D01*
X17556949Y67089136D01*
X17516150Y67116396D01*
X17478221Y67147524D01*
X17443524Y67182221D01*
X17412396Y67220150D01*
X17385136Y67260949D01*
X17362005Y67304222D01*
X17343228Y67349555D01*
X17328984Y67396510D01*
X17319412Y67444635D01*
X17314602Y67493466D01*
X17314602Y67518000D01*
X17314000Y67518000D01*
X17314000Y68018000D01*
X17314602Y68018000D01*
X17314602Y68042534D01*
X17319412Y68091365D01*
X17328984Y68139490D01*
X17343228Y68186445D01*
X17362005Y68231778D01*
X17385136Y68275051D01*
X17412396Y68315850D01*
X17443524Y68353779D01*
X17478221Y68388476D01*
X17516150Y68419604D01*
X17556949Y68446864D01*
X17600222Y68469995D01*
X17645555Y68488772D01*
X17692510Y68503016D01*
X17740635Y68512588D01*
X17789466Y68517398D01*
X17814000Y68517398D01*
X17814000Y68518000D01*
X18364000Y68518000D01*
X18364000Y67018000D01*
X17814000Y67018000D01*
X17814000Y67018602D01*
G37*
G36*
X19864000Y68518000D02*
G01*
X20414000Y68518000D01*
X20414000Y68517398D01*
X20438534Y68517398D01*
X20487365Y68512588D01*
X20535490Y68503016D01*
X20582445Y68488772D01*
X20627778Y68469995D01*
X20671051Y68446864D01*
X20711850Y68419604D01*
X20749779Y68388476D01*
X20784476Y68353779D01*
X20815604Y68315850D01*
X20842864Y68275051D01*
X20865995Y68231778D01*
X20884772Y68186445D01*
X20899016Y68139490D01*
X20908588Y68091365D01*
X20913398Y68042534D01*
X20913398Y68018000D01*
X20914000Y68018000D01*
X20914000Y67518000D01*
X20913398Y67518000D01*
X20913398Y67493466D01*
X20908588Y67444635D01*
X20899016Y67396510D01*
X20884772Y67349555D01*
X20865995Y67304222D01*
X20842864Y67260949D01*
X20815604Y67220150D01*
X20784476Y67182221D01*
X20749779Y67147524D01*
X20711850Y67116396D01*
X20671051Y67089136D01*
X20627778Y67066005D01*
X20582445Y67047228D01*
X20535490Y67032984D01*
X20487365Y67023412D01*
X20438534Y67018602D01*
X20414000Y67018602D01*
X20414000Y67018000D01*
X19864000Y67018000D01*
X19864000Y68518000D01*
G37*
D11*
X46714000Y67768000D03*
D12*
G36*
X45414000Y67018602D02*
G01*
X45389466Y67018602D01*
X45340635Y67023412D01*
X45292510Y67032984D01*
X45245555Y67047228D01*
X45200222Y67066005D01*
X45156949Y67089136D01*
X45116150Y67116396D01*
X45078221Y67147524D01*
X45043524Y67182221D01*
X45012396Y67220150D01*
X44985136Y67260949D01*
X44962005Y67304222D01*
X44943228Y67349555D01*
X44928984Y67396510D01*
X44919412Y67444635D01*
X44914602Y67493466D01*
X44914602Y67518000D01*
X44914000Y67518000D01*
X44914000Y68018000D01*
X44914602Y68018000D01*
X44914602Y68042534D01*
X44919412Y68091365D01*
X44928984Y68139490D01*
X44943228Y68186445D01*
X44962005Y68231778D01*
X44985136Y68275051D01*
X45012396Y68315850D01*
X45043524Y68353779D01*
X45078221Y68388476D01*
X45116150Y68419604D01*
X45156949Y68446864D01*
X45200222Y68469995D01*
X45245555Y68488772D01*
X45292510Y68503016D01*
X45340635Y68512588D01*
X45389466Y68517398D01*
X45414000Y68517398D01*
X45414000Y68518000D01*
X45964000Y68518000D01*
X45964000Y67018000D01*
X45414000Y67018000D01*
X45414000Y67018602D01*
G37*
G36*
X47464000Y68518000D02*
G01*
X48014000Y68518000D01*
X48014000Y68517398D01*
X48038534Y68517398D01*
X48087365Y68512588D01*
X48135490Y68503016D01*
X48182445Y68488772D01*
X48227778Y68469995D01*
X48271051Y68446864D01*
X48311850Y68419604D01*
X48349779Y68388476D01*
X48384476Y68353779D01*
X48415604Y68315850D01*
X48442864Y68275051D01*
X48465995Y68231778D01*
X48484772Y68186445D01*
X48499016Y68139490D01*
X48508588Y68091365D01*
X48513398Y68042534D01*
X48513398Y68018000D01*
X48514000Y68018000D01*
X48514000Y67518000D01*
X48513398Y67518000D01*
X48513398Y67493466D01*
X48508588Y67444635D01*
X48499016Y67396510D01*
X48484772Y67349555D01*
X48465995Y67304222D01*
X48442864Y67260949D01*
X48415604Y67220150D01*
X48384476Y67182221D01*
X48349779Y67147524D01*
X48311850Y67116396D01*
X48271051Y67089136D01*
X48227778Y67066005D01*
X48182445Y67047228D01*
X48135490Y67032984D01*
X48087365Y67023412D01*
X48038534Y67018602D01*
X48014000Y67018602D01*
X48014000Y67018000D01*
X47464000Y67018000D01*
X47464000Y68518000D01*
G37*
D11*
X74314000Y67768000D03*
D12*
G36*
X73014000Y67018602D02*
G01*
X72989466Y67018602D01*
X72940635Y67023412D01*
X72892510Y67032984D01*
X72845555Y67047228D01*
X72800222Y67066005D01*
X72756949Y67089136D01*
X72716150Y67116396D01*
X72678221Y67147524D01*
X72643524Y67182221D01*
X72612396Y67220150D01*
X72585136Y67260949D01*
X72562005Y67304222D01*
X72543228Y67349555D01*
X72528984Y67396510D01*
X72519412Y67444635D01*
X72514602Y67493466D01*
X72514602Y67518000D01*
X72514000Y67518000D01*
X72514000Y68018000D01*
X72514602Y68018000D01*
X72514602Y68042534D01*
X72519412Y68091365D01*
X72528984Y68139490D01*
X72543228Y68186445D01*
X72562005Y68231778D01*
X72585136Y68275051D01*
X72612396Y68315850D01*
X72643524Y68353779D01*
X72678221Y68388476D01*
X72716150Y68419604D01*
X72756949Y68446864D01*
X72800222Y68469995D01*
X72845555Y68488772D01*
X72892510Y68503016D01*
X72940635Y68512588D01*
X72989466Y68517398D01*
X73014000Y68517398D01*
X73014000Y68518000D01*
X73564000Y68518000D01*
X73564000Y67018000D01*
X73014000Y67018000D01*
X73014000Y67018602D01*
G37*
G36*
X75064000Y68518000D02*
G01*
X75614000Y68518000D01*
X75614000Y68517398D01*
X75638534Y68517398D01*
X75687365Y68512588D01*
X75735490Y68503016D01*
X75782445Y68488772D01*
X75827778Y68469995D01*
X75871051Y68446864D01*
X75911850Y68419604D01*
X75949779Y68388476D01*
X75984476Y68353779D01*
X76015604Y68315850D01*
X76042864Y68275051D01*
X76065995Y68231778D01*
X76084772Y68186445D01*
X76099016Y68139490D01*
X76108588Y68091365D01*
X76113398Y68042534D01*
X76113398Y68018000D01*
X76114000Y68018000D01*
X76114000Y67518000D01*
X76113398Y67518000D01*
X76113398Y67493466D01*
X76108588Y67444635D01*
X76099016Y67396510D01*
X76084772Y67349555D01*
X76065995Y67304222D01*
X76042864Y67260949D01*
X76015604Y67220150D01*
X75984476Y67182221D01*
X75949779Y67147524D01*
X75911850Y67116396D01*
X75871051Y67089136D01*
X75827778Y67066005D01*
X75782445Y67047228D01*
X75735490Y67032984D01*
X75687365Y67023412D01*
X75638534Y67018602D01*
X75614000Y67018602D01*
X75614000Y67018000D01*
X75064000Y67018000D01*
X75064000Y68518000D01*
G37*
D11*
X74286000Y24572000D03*
D12*
G36*
X75586000Y25321398D02*
G01*
X75610534Y25321398D01*
X75659365Y25316588D01*
X75707490Y25307016D01*
X75754445Y25292772D01*
X75799778Y25273995D01*
X75843051Y25250864D01*
X75883850Y25223604D01*
X75921779Y25192476D01*
X75956476Y25157779D01*
X75987604Y25119850D01*
X76014864Y25079051D01*
X76037995Y25035778D01*
X76056772Y24990445D01*
X76071016Y24943490D01*
X76080588Y24895365D01*
X76085398Y24846534D01*
X76085398Y24822000D01*
X76086000Y24822000D01*
X76086000Y24322000D01*
X76085398Y24322000D01*
X76085398Y24297466D01*
X76080588Y24248635D01*
X76071016Y24200510D01*
X76056772Y24153555D01*
X76037995Y24108222D01*
X76014864Y24064949D01*
X75987604Y24024150D01*
X75956476Y23986221D01*
X75921779Y23951524D01*
X75883850Y23920396D01*
X75843051Y23893136D01*
X75799778Y23870005D01*
X75754445Y23851228D01*
X75707490Y23836984D01*
X75659365Y23827412D01*
X75610534Y23822602D01*
X75586000Y23822602D01*
X75586000Y23822000D01*
X75036000Y23822000D01*
X75036000Y25322000D01*
X75586000Y25322000D01*
X75586000Y25321398D01*
G37*
G36*
X73536000Y23822000D02*
G01*
X72986000Y23822000D01*
X72986000Y23822602D01*
X72961466Y23822602D01*
X72912635Y23827412D01*
X72864510Y23836984D01*
X72817555Y23851228D01*
X72772222Y23870005D01*
X72728949Y23893136D01*
X72688150Y23920396D01*
X72650221Y23951524D01*
X72615524Y23986221D01*
X72584396Y24024150D01*
X72557136Y24064949D01*
X72534005Y24108222D01*
X72515228Y24153555D01*
X72500984Y24200510D01*
X72491412Y24248635D01*
X72486602Y24297466D01*
X72486602Y24322000D01*
X72486000Y24322000D01*
X72486000Y24822000D01*
X72486602Y24822000D01*
X72486602Y24846534D01*
X72491412Y24895365D01*
X72500984Y24943490D01*
X72515228Y24990445D01*
X72534005Y25035778D01*
X72557136Y25079051D01*
X72584396Y25119850D01*
X72615524Y25157779D01*
X72650221Y25192476D01*
X72688150Y25223604D01*
X72728949Y25250864D01*
X72772222Y25273995D01*
X72817555Y25292772D01*
X72864510Y25307016D01*
X72912635Y25316588D01*
X72961466Y25321398D01*
X72986000Y25321398D01*
X72986000Y25322000D01*
X73536000Y25322000D01*
X73536000Y23822000D01*
G37*
D11*
X46686000Y24572000D03*
D12*
G36*
X47986000Y25321398D02*
G01*
X48010534Y25321398D01*
X48059365Y25316588D01*
X48107490Y25307016D01*
X48154445Y25292772D01*
X48199778Y25273995D01*
X48243051Y25250864D01*
X48283850Y25223604D01*
X48321779Y25192476D01*
X48356476Y25157779D01*
X48387604Y25119850D01*
X48414864Y25079051D01*
X48437995Y25035778D01*
X48456772Y24990445D01*
X48471016Y24943490D01*
X48480588Y24895365D01*
X48485398Y24846534D01*
X48485398Y24822000D01*
X48486000Y24822000D01*
X48486000Y24322000D01*
X48485398Y24322000D01*
X48485398Y24297466D01*
X48480588Y24248635D01*
X48471016Y24200510D01*
X48456772Y24153555D01*
X48437995Y24108222D01*
X48414864Y24064949D01*
X48387604Y24024150D01*
X48356476Y23986221D01*
X48321779Y23951524D01*
X48283850Y23920396D01*
X48243051Y23893136D01*
X48199778Y23870005D01*
X48154445Y23851228D01*
X48107490Y23836984D01*
X48059365Y23827412D01*
X48010534Y23822602D01*
X47986000Y23822602D01*
X47986000Y23822000D01*
X47436000Y23822000D01*
X47436000Y25322000D01*
X47986000Y25322000D01*
X47986000Y25321398D01*
G37*
G36*
X45936000Y23822000D02*
G01*
X45386000Y23822000D01*
X45386000Y23822602D01*
X45361466Y23822602D01*
X45312635Y23827412D01*
X45264510Y23836984D01*
X45217555Y23851228D01*
X45172222Y23870005D01*
X45128949Y23893136D01*
X45088150Y23920396D01*
X45050221Y23951524D01*
X45015524Y23986221D01*
X44984396Y24024150D01*
X44957136Y24064949D01*
X44934005Y24108222D01*
X44915228Y24153555D01*
X44900984Y24200510D01*
X44891412Y24248635D01*
X44886602Y24297466D01*
X44886602Y24322000D01*
X44886000Y24322000D01*
X44886000Y24822000D01*
X44886602Y24822000D01*
X44886602Y24846534D01*
X44891412Y24895365D01*
X44900984Y24943490D01*
X44915228Y24990445D01*
X44934005Y25035778D01*
X44957136Y25079051D01*
X44984396Y25119850D01*
X45015524Y25157779D01*
X45050221Y25192476D01*
X45088150Y25223604D01*
X45128949Y25250864D01*
X45172222Y25273995D01*
X45217555Y25292772D01*
X45264510Y25307016D01*
X45312635Y25316588D01*
X45361466Y25321398D01*
X45386000Y25321398D01*
X45386000Y25322000D01*
X45936000Y25322000D01*
X45936000Y23822000D01*
G37*
G36*
G01*
X23298823Y58514056D02*
X23298823Y58514056D01*
G75*
G02*
X24217803Y58772370I588647J-330333D01*
G01*
X24217803Y58772370D01*
G75*
G02*
X24476117Y57853390I-330333J-588647D01*
G01*
X24476117Y57853390D01*
G75*
G02*
X23557137Y57595076I-588647J330333D01*
G01*
X23557137Y57595076D01*
G75*
G02*
X23298823Y58514056I330333J588647D01*
G01*
G37*
G36*
G01*
X24277588Y60258194D02*
X24277588Y60258194D01*
G75*
G02*
X25196568Y60516508I588647J-330333D01*
G01*
X25196568Y60516508D01*
G75*
G02*
X25454882Y59597528I-330333J-588647D01*
G01*
X25454882Y59597528D01*
G75*
G02*
X24535902Y59339214I-588647J330333D01*
G01*
X24535902Y59339214D01*
G75*
G02*
X24277588Y60258194I330333J588647D01*
G01*
G37*
G36*
X24926020Y61413686D02*
G01*
X25586686Y62590980D01*
X26763980Y61930314D01*
X26103314Y60753020D01*
X24926020Y61413686D01*
G37*
G36*
G01*
X50898823Y58514056D02*
X50898823Y58514056D01*
G75*
G02*
X51817803Y58772370I588647J-330333D01*
G01*
X51817803Y58772370D01*
G75*
G02*
X52076117Y57853390I-330333J-588647D01*
G01*
X52076117Y57853390D01*
G75*
G02*
X51157137Y57595076I-588647J330333D01*
G01*
X51157137Y57595076D01*
G75*
G02*
X50898823Y58514056I330333J588647D01*
G01*
G37*
G36*
G01*
X51877588Y60258194D02*
X51877588Y60258194D01*
G75*
G02*
X52796568Y60516508I588647J-330333D01*
G01*
X52796568Y60516508D01*
G75*
G02*
X53054882Y59597528I-330333J-588647D01*
G01*
X53054882Y59597528D01*
G75*
G02*
X52135902Y59339214I-588647J330333D01*
G01*
X52135902Y59339214D01*
G75*
G02*
X51877588Y60258194I330333J588647D01*
G01*
G37*
G36*
X52526020Y61413686D02*
G01*
X53186686Y62590980D01*
X54363980Y61930314D01*
X53703314Y60753020D01*
X52526020Y61413686D01*
G37*
G36*
G01*
X78498823Y58514056D02*
X78498823Y58514056D01*
G75*
G02*
X79417803Y58772370I588647J-330333D01*
G01*
X79417803Y58772370D01*
G75*
G02*
X79676117Y57853390I-330333J-588647D01*
G01*
X79676117Y57853390D01*
G75*
G02*
X78757137Y57595076I-588647J330333D01*
G01*
X78757137Y57595076D01*
G75*
G02*
X78498823Y58514056I330333J588647D01*
G01*
G37*
G36*
G01*
X79477588Y60258194D02*
X79477588Y60258194D01*
G75*
G02*
X80396568Y60516508I588647J-330333D01*
G01*
X80396568Y60516508D01*
G75*
G02*
X80654882Y59597528I-330333J-588647D01*
G01*
X80654882Y59597528D01*
G75*
G02*
X79735902Y59339214I-588647J330333D01*
G01*
X79735902Y59339214D01*
G75*
G02*
X79477588Y60258194I330333J588647D01*
G01*
G37*
G36*
X80126020Y61413686D02*
G01*
X80786686Y62590980D01*
X81963980Y61930314D01*
X81303314Y60753020D01*
X80126020Y61413686D01*
G37*
G36*
G01*
X70101177Y33825944D02*
X70101177Y33825944D01*
G75*
G02*
X69182197Y33567630I-588647J330333D01*
G01*
X69182197Y33567630D01*
G75*
G02*
X68923883Y34486610I330333J588647D01*
G01*
X68923883Y34486610D01*
G75*
G02*
X69842863Y34744924I588647J-330333D01*
G01*
X69842863Y34744924D01*
G75*
G02*
X70101177Y33825944I-330333J-588647D01*
G01*
G37*
G36*
G01*
X69122412Y32081806D02*
X69122412Y32081806D01*
G75*
G02*
X68203432Y31823492I-588647J330333D01*
G01*
X68203432Y31823492D01*
G75*
G02*
X67945118Y32742472I330333J588647D01*
G01*
X67945118Y32742472D01*
G75*
G02*
X68864098Y33000786I588647J-330333D01*
G01*
X68864098Y33000786D01*
G75*
G02*
X69122412Y32081806I-330333J-588647D01*
G01*
G37*
G36*
X68473980Y30926314D02*
G01*
X67813314Y29749020D01*
X66636020Y30409686D01*
X67296686Y31586980D01*
X68473980Y30926314D01*
G37*
G36*
G01*
X42501177Y33825944D02*
X42501177Y33825944D01*
G75*
G02*
X41582197Y33567630I-588647J330333D01*
G01*
X41582197Y33567630D01*
G75*
G02*
X41323883Y34486610I330333J588647D01*
G01*
X41323883Y34486610D01*
G75*
G02*
X42242863Y34744924I588647J-330333D01*
G01*
X42242863Y34744924D01*
G75*
G02*
X42501177Y33825944I-330333J-588647D01*
G01*
G37*
G36*
G01*
X41522412Y32081806D02*
X41522412Y32081806D01*
G75*
G02*
X40603432Y31823492I-588647J330333D01*
G01*
X40603432Y31823492D01*
G75*
G02*
X40345118Y32742472I330333J588647D01*
G01*
X40345118Y32742472D01*
G75*
G02*
X41264098Y33000786I588647J-330333D01*
G01*
X41264098Y33000786D01*
G75*
G02*
X41522412Y32081806I-330333J-588647D01*
G01*
G37*
G36*
X40873980Y30926314D02*
G01*
X40213314Y29749020D01*
X39036020Y30409686D01*
X39696686Y31586980D01*
X40873980Y30926314D01*
G37*
G36*
X24576639Y66539071D02*
G01*
X25884743Y65804998D01*
X25395361Y64932929D01*
X24087257Y65667002D01*
X24576639Y66539071D01*
G37*
G36*
X25003330Y64235568D02*
G01*
X24991323Y64214172D01*
X24963232Y64173942D01*
X24931333Y64136658D01*
X24895932Y64102681D01*
X24857372Y64072337D01*
X24816023Y64045920D01*
X24772284Y64023681D01*
X24726577Y64005837D01*
X24679338Y63992559D01*
X24631028Y63983975D01*
X24582108Y63980169D01*
X24533051Y63981174D01*
X24484328Y63986985D01*
X24436410Y63997542D01*
X24389757Y64012746D01*
X24344819Y64032448D01*
X24323424Y64044455D01*
X24323129Y64043930D01*
X23887094Y64288621D01*
X23887389Y64289146D01*
X23865994Y64301152D01*
X23825764Y64329244D01*
X23788480Y64361143D01*
X23754502Y64396544D01*
X23724158Y64435104D01*
X23697741Y64476453D01*
X23675502Y64520192D01*
X23657659Y64565899D01*
X23644381Y64613138D01*
X23635797Y64661448D01*
X23631990Y64710368D01*
X23632996Y64759425D01*
X23638806Y64808147D01*
X23649363Y64856066D01*
X23664567Y64902719D01*
X23684270Y64947657D01*
X23696276Y64969052D01*
X23695751Y64969347D01*
X23964911Y65448985D01*
X25273015Y64714911D01*
X25003855Y64235273D01*
X25003330Y64235568D01*
G37*
G36*
X24698985Y66757089D02*
G01*
X24968145Y67236727D01*
X24968670Y67236432D01*
X24980677Y67257828D01*
X25008768Y67298058D01*
X25040667Y67335342D01*
X25076068Y67369319D01*
X25114628Y67399663D01*
X25155977Y67426080D01*
X25199716Y67448319D01*
X25245423Y67466163D01*
X25292662Y67479441D01*
X25340972Y67488025D01*
X25389892Y67491831D01*
X25438949Y67490826D01*
X25487672Y67485015D01*
X25535590Y67474458D01*
X25582243Y67459254D01*
X25627181Y67439552D01*
X25648576Y67427545D01*
X25648871Y67428070D01*
X26084906Y67183379D01*
X26084611Y67182854D01*
X26106006Y67170848D01*
X26146236Y67142756D01*
X26183520Y67110857D01*
X26217498Y67075456D01*
X26247842Y67036896D01*
X26274259Y66995547D01*
X26296498Y66951808D01*
X26314341Y66906101D01*
X26327619Y66858862D01*
X26336203Y66810552D01*
X26340010Y66761632D01*
X26339004Y66712575D01*
X26333194Y66663853D01*
X26322637Y66615934D01*
X26307433Y66569281D01*
X26287730Y66524343D01*
X26275724Y66502948D01*
X26276249Y66502653D01*
X26007089Y66023015D01*
X24698985Y66757089D01*
G37*
G36*
X52176639Y66539071D02*
G01*
X53484743Y65804998D01*
X52995361Y64932929D01*
X51687257Y65667002D01*
X52176639Y66539071D01*
G37*
G36*
X52603330Y64235568D02*
G01*
X52591323Y64214172D01*
X52563232Y64173942D01*
X52531333Y64136658D01*
X52495932Y64102681D01*
X52457372Y64072337D01*
X52416023Y64045920D01*
X52372284Y64023681D01*
X52326577Y64005837D01*
X52279338Y63992559D01*
X52231028Y63983975D01*
X52182108Y63980169D01*
X52133051Y63981174D01*
X52084328Y63986985D01*
X52036410Y63997542D01*
X51989757Y64012746D01*
X51944819Y64032448D01*
X51923424Y64044455D01*
X51923129Y64043930D01*
X51487094Y64288621D01*
X51487389Y64289146D01*
X51465994Y64301152D01*
X51425764Y64329244D01*
X51388480Y64361143D01*
X51354502Y64396544D01*
X51324158Y64435104D01*
X51297741Y64476453D01*
X51275502Y64520192D01*
X51257659Y64565899D01*
X51244381Y64613138D01*
X51235797Y64661448D01*
X51231990Y64710368D01*
X51232996Y64759425D01*
X51238806Y64808147D01*
X51249363Y64856066D01*
X51264567Y64902719D01*
X51284270Y64947657D01*
X51296276Y64969052D01*
X51295751Y64969347D01*
X51564911Y65448985D01*
X52873015Y64714911D01*
X52603855Y64235273D01*
X52603330Y64235568D01*
G37*
G36*
X52298985Y66757089D02*
G01*
X52568145Y67236727D01*
X52568670Y67236432D01*
X52580677Y67257828D01*
X52608768Y67298058D01*
X52640667Y67335342D01*
X52676068Y67369319D01*
X52714628Y67399663D01*
X52755977Y67426080D01*
X52799716Y67448319D01*
X52845423Y67466163D01*
X52892662Y67479441D01*
X52940972Y67488025D01*
X52989892Y67491831D01*
X53038949Y67490826D01*
X53087672Y67485015D01*
X53135590Y67474458D01*
X53182243Y67459254D01*
X53227181Y67439552D01*
X53248576Y67427545D01*
X53248871Y67428070D01*
X53684906Y67183379D01*
X53684611Y67182854D01*
X53706006Y67170848D01*
X53746236Y67142756D01*
X53783520Y67110857D01*
X53817498Y67075456D01*
X53847842Y67036896D01*
X53874259Y66995547D01*
X53896498Y66951808D01*
X53914341Y66906101D01*
X53927619Y66858862D01*
X53936203Y66810552D01*
X53940010Y66761632D01*
X53939004Y66712575D01*
X53933194Y66663853D01*
X53922637Y66615934D01*
X53907433Y66569281D01*
X53887730Y66524343D01*
X53875724Y66502948D01*
X53876249Y66502653D01*
X53607089Y66023015D01*
X52298985Y66757089D01*
G37*
G36*
X79776639Y66539071D02*
G01*
X81084743Y65804998D01*
X80595361Y64932929D01*
X79287257Y65667002D01*
X79776639Y66539071D01*
G37*
G36*
X80203330Y64235568D02*
G01*
X80191323Y64214172D01*
X80163232Y64173942D01*
X80131333Y64136658D01*
X80095932Y64102681D01*
X80057372Y64072337D01*
X80016023Y64045920D01*
X79972284Y64023681D01*
X79926577Y64005837D01*
X79879338Y63992559D01*
X79831028Y63983975D01*
X79782108Y63980169D01*
X79733051Y63981174D01*
X79684328Y63986985D01*
X79636410Y63997542D01*
X79589757Y64012746D01*
X79544819Y64032448D01*
X79523424Y64044455D01*
X79523129Y64043930D01*
X79087094Y64288621D01*
X79087389Y64289146D01*
X79065994Y64301152D01*
X79025764Y64329244D01*
X78988480Y64361143D01*
X78954502Y64396544D01*
X78924158Y64435104D01*
X78897741Y64476453D01*
X78875502Y64520192D01*
X78857659Y64565899D01*
X78844381Y64613138D01*
X78835797Y64661448D01*
X78831990Y64710368D01*
X78832996Y64759425D01*
X78838806Y64808147D01*
X78849363Y64856066D01*
X78864567Y64902719D01*
X78884270Y64947657D01*
X78896276Y64969052D01*
X78895751Y64969347D01*
X79164911Y65448985D01*
X80473015Y64714911D01*
X80203855Y64235273D01*
X80203330Y64235568D01*
G37*
G36*
X79898985Y66757089D02*
G01*
X80168145Y67236727D01*
X80168670Y67236432D01*
X80180677Y67257828D01*
X80208768Y67298058D01*
X80240667Y67335342D01*
X80276068Y67369319D01*
X80314628Y67399663D01*
X80355977Y67426080D01*
X80399716Y67448319D01*
X80445423Y67466163D01*
X80492662Y67479441D01*
X80540972Y67488025D01*
X80589892Y67491831D01*
X80638949Y67490826D01*
X80687672Y67485015D01*
X80735590Y67474458D01*
X80782243Y67459254D01*
X80827181Y67439552D01*
X80848576Y67427545D01*
X80848871Y67428070D01*
X81284906Y67183379D01*
X81284611Y67182854D01*
X81306006Y67170848D01*
X81346236Y67142756D01*
X81383520Y67110857D01*
X81417498Y67075456D01*
X81447842Y67036896D01*
X81474259Y66995547D01*
X81496498Y66951808D01*
X81514341Y66906101D01*
X81527619Y66858862D01*
X81536203Y66810552D01*
X81540010Y66761632D01*
X81539004Y66712575D01*
X81533194Y66663853D01*
X81522637Y66615934D01*
X81507433Y66569281D01*
X81487730Y66524343D01*
X81475724Y66502948D01*
X81476249Y66502653D01*
X81207089Y66023015D01*
X79898985Y66757089D01*
G37*
G36*
X68823361Y25800929D02*
G01*
X67515257Y26535002D01*
X68004639Y27407071D01*
X69312743Y26672998D01*
X68823361Y25800929D01*
G37*
G36*
X68396670Y28104432D02*
G01*
X68408677Y28125828D01*
X68436768Y28166058D01*
X68468667Y28203342D01*
X68504068Y28237319D01*
X68542628Y28267663D01*
X68583977Y28294080D01*
X68627716Y28316319D01*
X68673423Y28334163D01*
X68720662Y28347441D01*
X68768972Y28356025D01*
X68817892Y28359831D01*
X68866949Y28358826D01*
X68915672Y28353015D01*
X68963590Y28342458D01*
X69010243Y28327254D01*
X69055181Y28307552D01*
X69076576Y28295545D01*
X69076871Y28296070D01*
X69512906Y28051379D01*
X69512611Y28050854D01*
X69534006Y28038848D01*
X69574236Y28010756D01*
X69611520Y27978857D01*
X69645498Y27943456D01*
X69675842Y27904896D01*
X69702259Y27863547D01*
X69724498Y27819808D01*
X69742341Y27774101D01*
X69755619Y27726862D01*
X69764203Y27678552D01*
X69768010Y27629632D01*
X69767004Y27580575D01*
X69761194Y27531853D01*
X69750637Y27483934D01*
X69735433Y27437281D01*
X69715730Y27392343D01*
X69703724Y27370948D01*
X69704249Y27370653D01*
X69435089Y26891015D01*
X68126985Y27625089D01*
X68396145Y28104727D01*
X68396670Y28104432D01*
G37*
G36*
X68701015Y25582911D02*
G01*
X68431855Y25103273D01*
X68431330Y25103568D01*
X68419323Y25082172D01*
X68391232Y25041942D01*
X68359333Y25004658D01*
X68323932Y24970681D01*
X68285372Y24940337D01*
X68244023Y24913920D01*
X68200284Y24891681D01*
X68154577Y24873837D01*
X68107338Y24860559D01*
X68059028Y24851975D01*
X68010108Y24848169D01*
X67961051Y24849174D01*
X67912328Y24854985D01*
X67864410Y24865542D01*
X67817757Y24880746D01*
X67772819Y24900448D01*
X67751424Y24912455D01*
X67751129Y24911930D01*
X67315094Y25156621D01*
X67315389Y25157146D01*
X67293994Y25169152D01*
X67253764Y25197244D01*
X67216480Y25229143D01*
X67182502Y25264544D01*
X67152158Y25303104D01*
X67125741Y25344453D01*
X67103502Y25388192D01*
X67085659Y25433899D01*
X67072381Y25481138D01*
X67063797Y25529448D01*
X67059990Y25578368D01*
X67060996Y25627425D01*
X67066806Y25676147D01*
X67077363Y25724066D01*
X67092567Y25770719D01*
X67112270Y25815657D01*
X67124276Y25837052D01*
X67123751Y25837347D01*
X67392911Y26316985D01*
X68701015Y25582911D01*
G37*
G36*
X41223361Y25800929D02*
G01*
X39915257Y26535002D01*
X40404639Y27407071D01*
X41712743Y26672998D01*
X41223361Y25800929D01*
G37*
G36*
X40796670Y28104432D02*
G01*
X40808677Y28125828D01*
X40836768Y28166058D01*
X40868667Y28203342D01*
X40904068Y28237319D01*
X40942628Y28267663D01*
X40983977Y28294080D01*
X41027716Y28316319D01*
X41073423Y28334163D01*
X41120662Y28347441D01*
X41168972Y28356025D01*
X41217892Y28359831D01*
X41266949Y28358826D01*
X41315672Y28353015D01*
X41363590Y28342458D01*
X41410243Y28327254D01*
X41455181Y28307552D01*
X41476576Y28295545D01*
X41476871Y28296070D01*
X41912906Y28051379D01*
X41912611Y28050854D01*
X41934006Y28038848D01*
X41974236Y28010756D01*
X42011520Y27978857D01*
X42045498Y27943456D01*
X42075842Y27904896D01*
X42102259Y27863547D01*
X42124498Y27819808D01*
X42142341Y27774101D01*
X42155619Y27726862D01*
X42164203Y27678552D01*
X42168010Y27629632D01*
X42167004Y27580575D01*
X42161194Y27531853D01*
X42150637Y27483934D01*
X42135433Y27437281D01*
X42115730Y27392343D01*
X42103724Y27370948D01*
X42104249Y27370653D01*
X41835089Y26891015D01*
X40526985Y27625089D01*
X40796145Y28104727D01*
X40796670Y28104432D01*
G37*
G36*
X41101015Y25582911D02*
G01*
X40831855Y25103273D01*
X40831330Y25103568D01*
X40819323Y25082172D01*
X40791232Y25041942D01*
X40759333Y25004658D01*
X40723932Y24970681D01*
X40685372Y24940337D01*
X40644023Y24913920D01*
X40600284Y24891681D01*
X40554577Y24873837D01*
X40507338Y24860559D01*
X40459028Y24851975D01*
X40410108Y24848169D01*
X40361051Y24849174D01*
X40312328Y24854985D01*
X40264410Y24865542D01*
X40217757Y24880746D01*
X40172819Y24900448D01*
X40151424Y24912455D01*
X40151129Y24911930D01*
X39715094Y25156621D01*
X39715389Y25157146D01*
X39693994Y25169152D01*
X39653764Y25197244D01*
X39616480Y25229143D01*
X39582502Y25264544D01*
X39552158Y25303104D01*
X39525741Y25344453D01*
X39503502Y25388192D01*
X39485659Y25433899D01*
X39472381Y25481138D01*
X39463797Y25529448D01*
X39459990Y25578368D01*
X39460996Y25627425D01*
X39466806Y25676147D01*
X39477363Y25724066D01*
X39492567Y25770719D01*
X39512270Y25815657D01*
X39524276Y25837052D01*
X39523751Y25837347D01*
X39792911Y26316985D01*
X41101015Y25582911D01*
G37*
G36*
G01*
X27619066Y64500077D02*
X27183032Y64744768D01*
G75*
G02*
X27096927Y65051095I110111J196216D01*
G01*
X27317149Y65443526D01*
G75*
G02*
X27623476Y65529631I196216J-110111D01*
G01*
X28059510Y65284940D01*
G75*
G02*
X28145615Y64978613I-110111J-196216D01*
G01*
X27925393Y64586182D01*
G75*
G02*
X27619066Y64500077I-196216J110111D01*
G01*
G37*
G36*
G01*
X26860524Y63148369D02*
X26424490Y63393060D01*
G75*
G02*
X26338385Y63699387I110111J196216D01*
G01*
X26558607Y64091818D01*
G75*
G02*
X26864934Y64177923I196216J-110111D01*
G01*
X27300968Y63933232D01*
G75*
G02*
X27387073Y63626905I-110111J-196216D01*
G01*
X27166851Y63234474D01*
G75*
G02*
X26860524Y63148369I-196216J110111D01*
G01*
G37*
G36*
G01*
X55219066Y64500077D02*
X54783032Y64744768D01*
G75*
G02*
X54696927Y65051095I110111J196216D01*
G01*
X54917149Y65443526D01*
G75*
G02*
X55223476Y65529631I196216J-110111D01*
G01*
X55659510Y65284940D01*
G75*
G02*
X55745615Y64978613I-110111J-196216D01*
G01*
X55525393Y64586182D01*
G75*
G02*
X55219066Y64500077I-196216J110111D01*
G01*
G37*
G36*
G01*
X54460524Y63148369D02*
X54024490Y63393060D01*
G75*
G02*
X53938385Y63699387I110111J196216D01*
G01*
X54158607Y64091818D01*
G75*
G02*
X54464934Y64177923I196216J-110111D01*
G01*
X54900968Y63933232D01*
G75*
G02*
X54987073Y63626905I-110111J-196216D01*
G01*
X54766851Y63234474D01*
G75*
G02*
X54460524Y63148369I-196216J110111D01*
G01*
G37*
G36*
G01*
X82819066Y64500077D02*
X82383032Y64744768D01*
G75*
G02*
X82296927Y65051095I110111J196216D01*
G01*
X82517149Y65443526D01*
G75*
G02*
X82823476Y65529631I196216J-110111D01*
G01*
X83259510Y65284940D01*
G75*
G02*
X83345615Y64978613I-110111J-196216D01*
G01*
X83125393Y64586182D01*
G75*
G02*
X82819066Y64500077I-196216J110111D01*
G01*
G37*
G36*
G01*
X82060524Y63148369D02*
X81624490Y63393060D01*
G75*
G02*
X81538385Y63699387I110111J196216D01*
G01*
X81758607Y64091818D01*
G75*
G02*
X82064934Y64177923I196216J-110111D01*
G01*
X82500968Y63933232D01*
G75*
G02*
X82587073Y63626905I-110111J-196216D01*
G01*
X82366851Y63234474D01*
G75*
G02*
X82060524Y63148369I-196216J110111D01*
G01*
G37*
G36*
G01*
X65780934Y27839923D02*
X66216968Y27595232D01*
G75*
G02*
X66303073Y27288905I-110111J-196216D01*
G01*
X66082851Y26896474D01*
G75*
G02*
X65776524Y26810369I-196216J110111D01*
G01*
X65340490Y27055060D01*
G75*
G02*
X65254385Y27361387I110111J196216D01*
G01*
X65474607Y27753818D01*
G75*
G02*
X65780934Y27839923I196216J-110111D01*
G01*
G37*
G36*
G01*
X66539476Y29191631D02*
X66975510Y28946940D01*
G75*
G02*
X67061615Y28640613I-110111J-196216D01*
G01*
X66841393Y28248182D01*
G75*
G02*
X66535066Y28162077I-196216J110111D01*
G01*
X66099032Y28406768D01*
G75*
G02*
X66012927Y28713095I110111J196216D01*
G01*
X66233149Y29105526D01*
G75*
G02*
X66539476Y29191631I196216J-110111D01*
G01*
G37*
G36*
G01*
X38180934Y27839923D02*
X38616968Y27595232D01*
G75*
G02*
X38703073Y27288905I-110111J-196216D01*
G01*
X38482851Y26896474D01*
G75*
G02*
X38176524Y26810369I-196216J110111D01*
G01*
X37740490Y27055060D01*
G75*
G02*
X37654385Y27361387I110111J196216D01*
G01*
X37874607Y27753818D01*
G75*
G02*
X38180934Y27839923I196216J-110111D01*
G01*
G37*
G36*
G01*
X38939476Y29191631D02*
X39375510Y28946940D01*
G75*
G02*
X39461615Y28640613I-110111J-196216D01*
G01*
X39241393Y28248182D01*
G75*
G02*
X38935066Y28162077I-196216J110111D01*
G01*
X38499032Y28406768D01*
G75*
G02*
X38412927Y28713095I110111J196216D01*
G01*
X38633149Y29105526D01*
G75*
G02*
X38939476Y29191631I196216J-110111D01*
G01*
G37*
G36*
X10253980Y66747686D02*
G01*
X9076686Y66087020D01*
X8416020Y67264314D01*
X9593314Y67924980D01*
X10253980Y66747686D01*
G37*
G36*
X37853980Y66747686D02*
G01*
X36676686Y66087020D01*
X36016020Y67264314D01*
X37193314Y67924980D01*
X37853980Y66747686D01*
G37*
G36*
X65453980Y66747686D02*
G01*
X64276686Y66087020D01*
X63616020Y67264314D01*
X64793314Y67924980D01*
X65453980Y66747686D01*
G37*
G36*
X83146020Y25592314D02*
G01*
X84323314Y26252980D01*
X84983980Y25075686D01*
X83806686Y24415020D01*
X83146020Y25592314D01*
G37*
G36*
X55546020Y25592314D02*
G01*
X56723314Y26252980D01*
X57383980Y25075686D01*
X56206686Y24415020D01*
X55546020Y25592314D01*
G37*
G36*
X29024314Y65960020D02*
G01*
X27847020Y66620686D01*
X28507686Y67797980D01*
X29684980Y67137314D01*
X29024314Y65960020D01*
G37*
G36*
X56624314Y65960020D02*
G01*
X55447020Y66620686D01*
X56107686Y67797980D01*
X57284980Y67137314D01*
X56624314Y65960020D01*
G37*
G36*
X84224314Y65960020D02*
G01*
X83047020Y66620686D01*
X83707686Y67797980D01*
X84884980Y67137314D01*
X84224314Y65960020D01*
G37*
G36*
X64375686Y26379980D02*
G01*
X65552980Y25719314D01*
X64892314Y24542020D01*
X63715020Y25202686D01*
X64375686Y26379980D01*
G37*
G36*
X36775686Y26379980D02*
G01*
X37952980Y25719314D01*
X37292314Y24542020D01*
X36115020Y25202686D01*
X36775686Y26379980D01*
G37*
D13*
X21082000Y70308000D03*
X19082000Y70308000D03*
D14*
X17082000Y70308000D03*
D13*
X48682000Y70308000D03*
X46682000Y70308000D03*
D14*
X44682000Y70308000D03*
D13*
X76282000Y70308000D03*
X74282000Y70308000D03*
D14*
X72282000Y70308000D03*
D13*
X72318000Y22032000D03*
X74318000Y22032000D03*
D14*
X76318000Y22032000D03*
D13*
X44718000Y22032000D03*
X46718000Y22032000D03*
D14*
X48718000Y22032000D03*
D12*
G36*
X21150314Y51990020D02*
G01*
X19973020Y52650686D01*
X20633686Y53827980D01*
X21810980Y53167314D01*
X21150314Y51990020D01*
G37*
G36*
X48750314Y51990020D02*
G01*
X47573020Y52650686D01*
X48233686Y53827980D01*
X49410980Y53167314D01*
X48750314Y51990020D01*
G37*
G36*
X76350314Y51990020D02*
G01*
X75173020Y52650686D01*
X75833686Y53827980D01*
X77010980Y53167314D01*
X76350314Y51990020D01*
G37*
G36*
X72249686Y40349980D02*
G01*
X73426980Y39689314D01*
X72766314Y38512020D01*
X71589020Y39172686D01*
X72249686Y40349980D01*
G37*
G36*
X44649686Y40349980D02*
G01*
X45826980Y39689314D01*
X45166314Y38512020D01*
X43989020Y39172686D01*
X44649686Y40349980D01*
G37*
G36*
X18127980Y52650686D02*
G01*
X16950686Y51990020D01*
X16290020Y53167314D01*
X17467314Y53827980D01*
X18127980Y52650686D01*
G37*
G36*
X45727980Y52650686D02*
G01*
X44550686Y51990020D01*
X43890020Y53167314D01*
X45067314Y53827980D01*
X45727980Y52650686D01*
G37*
G36*
X73327980Y52650686D02*
G01*
X72150686Y51990020D01*
X71490020Y53167314D01*
X72667314Y53827980D01*
X73327980Y52650686D01*
G37*
G36*
X75272020Y39689314D02*
G01*
X76449314Y40349980D01*
X77109980Y39172686D01*
X75932686Y38512020D01*
X75272020Y39689314D01*
G37*
G36*
X47672020Y39689314D02*
G01*
X48849314Y40349980D01*
X49509980Y39172686D01*
X48332686Y38512020D01*
X47672020Y39689314D01*
G37*
D14*
X11113000Y70308000D03*
X38713000Y70308000D03*
X66313000Y70308000D03*
X82287000Y22032000D03*
X54687000Y22032000D03*
D15*
X19100000Y56620000D03*
X46700000Y56620000D03*
X74300000Y56620000D03*
X74300000Y35720000D03*
X46700000Y35720000D03*
D14*
X27115000Y70308000D03*
X54715000Y70308000D03*
X82315000Y70308000D03*
X66285000Y22032000D03*
X38685000Y22032000D03*
D16*
X21564000Y61977000D03*
X21564000Y65177000D03*
X16664000Y61977000D03*
X16664000Y65177000D03*
X49164000Y61977000D03*
X49164000Y65177000D03*
X44264000Y61977000D03*
X44264000Y65177000D03*
X76764000Y61977000D03*
X76764000Y65177000D03*
X71864000Y61977000D03*
X71864000Y65177000D03*
X71836000Y30363000D03*
X71836000Y27163000D03*
X76736000Y30363000D03*
X76736000Y27163000D03*
X44236000Y30363000D03*
X44236000Y27163000D03*
X49136000Y30363000D03*
X49136000Y27163000D03*
D12*
G36*
X14547089Y65321985D02*
G01*
X14816249Y64842347D01*
X14815724Y64842052D01*
X14827730Y64820657D01*
X14847433Y64775719D01*
X14862637Y64729066D01*
X14873194Y64681147D01*
X14879004Y64632425D01*
X14880010Y64583368D01*
X14876203Y64534448D01*
X14867619Y64486138D01*
X14854341Y64438899D01*
X14836498Y64393192D01*
X14814259Y64349453D01*
X14787842Y64308104D01*
X14757498Y64269544D01*
X14723520Y64234143D01*
X14686236Y64202244D01*
X14646006Y64174152D01*
X14624611Y64162146D01*
X14624906Y64161621D01*
X14188871Y63916930D01*
X14188576Y63917455D01*
X14167181Y63905448D01*
X14122243Y63885746D01*
X14075590Y63870542D01*
X14027672Y63859985D01*
X13978949Y63854174D01*
X13929892Y63853169D01*
X13880972Y63856975D01*
X13832662Y63865559D01*
X13785423Y63878837D01*
X13739716Y63896681D01*
X13695977Y63918920D01*
X13654628Y63945337D01*
X13616068Y63975681D01*
X13580667Y64009658D01*
X13548768Y64046942D01*
X13520677Y64087172D01*
X13508670Y64108568D01*
X13508145Y64108273D01*
X13238985Y64587911D01*
X14547089Y65321985D01*
G37*
G36*
X12236276Y66375948D02*
G01*
X12224270Y66397343D01*
X12204567Y66442281D01*
X12189363Y66488934D01*
X12178806Y66536853D01*
X12172996Y66585575D01*
X12171990Y66634632D01*
X12175797Y66683552D01*
X12184381Y66731862D01*
X12197659Y66779101D01*
X12215502Y66824808D01*
X12237741Y66868547D01*
X12264158Y66909896D01*
X12294502Y66948456D01*
X12328480Y66983857D01*
X12365764Y67015756D01*
X12405994Y67043848D01*
X12427389Y67055854D01*
X12427094Y67056379D01*
X12863129Y67301070D01*
X12863424Y67300545D01*
X12884819Y67312552D01*
X12929757Y67332254D01*
X12976410Y67347458D01*
X13024328Y67358015D01*
X13073051Y67363826D01*
X13122108Y67364831D01*
X13171028Y67361025D01*
X13219338Y67352441D01*
X13266577Y67339163D01*
X13312284Y67321319D01*
X13356023Y67299080D01*
X13397372Y67272663D01*
X13435932Y67242319D01*
X13471333Y67208342D01*
X13503232Y67171058D01*
X13531323Y67130828D01*
X13543330Y67109432D01*
X13543855Y67109727D01*
X13813015Y66630089D01*
X12504911Y65896015D01*
X12235751Y66375653D01*
X12236276Y66375948D01*
G37*
G36*
X14424743Y65540002D02*
G01*
X13116639Y64805929D01*
X12627257Y65677998D01*
X13935361Y66412071D01*
X14424743Y65540002D01*
G37*
G36*
X42147089Y65321985D02*
G01*
X42416249Y64842347D01*
X42415724Y64842052D01*
X42427730Y64820657D01*
X42447433Y64775719D01*
X42462637Y64729066D01*
X42473194Y64681147D01*
X42479004Y64632425D01*
X42480010Y64583368D01*
X42476203Y64534448D01*
X42467619Y64486138D01*
X42454341Y64438899D01*
X42436498Y64393192D01*
X42414259Y64349453D01*
X42387842Y64308104D01*
X42357498Y64269544D01*
X42323520Y64234143D01*
X42286236Y64202244D01*
X42246006Y64174152D01*
X42224611Y64162146D01*
X42224906Y64161621D01*
X41788871Y63916930D01*
X41788576Y63917455D01*
X41767181Y63905448D01*
X41722243Y63885746D01*
X41675590Y63870542D01*
X41627672Y63859985D01*
X41578949Y63854174D01*
X41529892Y63853169D01*
X41480972Y63856975D01*
X41432662Y63865559D01*
X41385423Y63878837D01*
X41339716Y63896681D01*
X41295977Y63918920D01*
X41254628Y63945337D01*
X41216068Y63975681D01*
X41180667Y64009658D01*
X41148768Y64046942D01*
X41120677Y64087172D01*
X41108670Y64108568D01*
X41108145Y64108273D01*
X40838985Y64587911D01*
X42147089Y65321985D01*
G37*
G36*
X39836276Y66375948D02*
G01*
X39824270Y66397343D01*
X39804567Y66442281D01*
X39789363Y66488934D01*
X39778806Y66536853D01*
X39772996Y66585575D01*
X39771990Y66634632D01*
X39775797Y66683552D01*
X39784381Y66731862D01*
X39797659Y66779101D01*
X39815502Y66824808D01*
X39837741Y66868547D01*
X39864158Y66909896D01*
X39894502Y66948456D01*
X39928480Y66983857D01*
X39965764Y67015756D01*
X40005994Y67043848D01*
X40027389Y67055854D01*
X40027094Y67056379D01*
X40463129Y67301070D01*
X40463424Y67300545D01*
X40484819Y67312552D01*
X40529757Y67332254D01*
X40576410Y67347458D01*
X40624328Y67358015D01*
X40673051Y67363826D01*
X40722108Y67364831D01*
X40771028Y67361025D01*
X40819338Y67352441D01*
X40866577Y67339163D01*
X40912284Y67321319D01*
X40956023Y67299080D01*
X40997372Y67272663D01*
X41035932Y67242319D01*
X41071333Y67208342D01*
X41103232Y67171058D01*
X41131323Y67130828D01*
X41143330Y67109432D01*
X41143855Y67109727D01*
X41413015Y66630089D01*
X40104911Y65896015D01*
X39835751Y66375653D01*
X39836276Y66375948D01*
G37*
G36*
X42024743Y65540002D02*
G01*
X40716639Y64805929D01*
X40227257Y65677998D01*
X41535361Y66412071D01*
X42024743Y65540002D01*
G37*
G36*
X69747089Y65321985D02*
G01*
X70016249Y64842347D01*
X70015724Y64842052D01*
X70027730Y64820657D01*
X70047433Y64775719D01*
X70062637Y64729066D01*
X70073194Y64681147D01*
X70079004Y64632425D01*
X70080010Y64583368D01*
X70076203Y64534448D01*
X70067619Y64486138D01*
X70054341Y64438899D01*
X70036498Y64393192D01*
X70014259Y64349453D01*
X69987842Y64308104D01*
X69957498Y64269544D01*
X69923520Y64234143D01*
X69886236Y64202244D01*
X69846006Y64174152D01*
X69824611Y64162146D01*
X69824906Y64161621D01*
X69388871Y63916930D01*
X69388576Y63917455D01*
X69367181Y63905448D01*
X69322243Y63885746D01*
X69275590Y63870542D01*
X69227672Y63859985D01*
X69178949Y63854174D01*
X69129892Y63853169D01*
X69080972Y63856975D01*
X69032662Y63865559D01*
X68985423Y63878837D01*
X68939716Y63896681D01*
X68895977Y63918920D01*
X68854628Y63945337D01*
X68816068Y63975681D01*
X68780667Y64009658D01*
X68748768Y64046942D01*
X68720677Y64087172D01*
X68708670Y64108568D01*
X68708145Y64108273D01*
X68438985Y64587911D01*
X69747089Y65321985D01*
G37*
G36*
X67436276Y66375948D02*
G01*
X67424270Y66397343D01*
X67404567Y66442281D01*
X67389363Y66488934D01*
X67378806Y66536853D01*
X67372996Y66585575D01*
X67371990Y66634632D01*
X67375797Y66683552D01*
X67384381Y66731862D01*
X67397659Y66779101D01*
X67415502Y66824808D01*
X67437741Y66868547D01*
X67464158Y66909896D01*
X67494502Y66948456D01*
X67528480Y66983857D01*
X67565764Y67015756D01*
X67605994Y67043848D01*
X67627389Y67055854D01*
X67627094Y67056379D01*
X68063129Y67301070D01*
X68063424Y67300545D01*
X68084819Y67312552D01*
X68129757Y67332254D01*
X68176410Y67347458D01*
X68224328Y67358015D01*
X68273051Y67363826D01*
X68322108Y67364831D01*
X68371028Y67361025D01*
X68419338Y67352441D01*
X68466577Y67339163D01*
X68512284Y67321319D01*
X68556023Y67299080D01*
X68597372Y67272663D01*
X68635932Y67242319D01*
X68671333Y67208342D01*
X68703232Y67171058D01*
X68731323Y67130828D01*
X68743330Y67109432D01*
X68743855Y67109727D01*
X69013015Y66630089D01*
X67704911Y65896015D01*
X67435751Y66375653D01*
X67436276Y66375948D01*
G37*
G36*
X69624743Y65540002D02*
G01*
X68316639Y64805929D01*
X67827257Y65677998D01*
X69135361Y66412071D01*
X69624743Y65540002D01*
G37*
G36*
X78852911Y27018015D02*
G01*
X78583751Y27497653D01*
X78584276Y27497948D01*
X78572270Y27519343D01*
X78552567Y27564281D01*
X78537363Y27610934D01*
X78526806Y27658853D01*
X78520996Y27707575D01*
X78519990Y27756632D01*
X78523797Y27805552D01*
X78532381Y27853862D01*
X78545659Y27901101D01*
X78563502Y27946808D01*
X78585741Y27990547D01*
X78612158Y28031896D01*
X78642502Y28070456D01*
X78676480Y28105857D01*
X78713764Y28137756D01*
X78753994Y28165848D01*
X78775389Y28177854D01*
X78775094Y28178379D01*
X79211129Y28423070D01*
X79211424Y28422545D01*
X79232819Y28434552D01*
X79277757Y28454254D01*
X79324410Y28469458D01*
X79372328Y28480015D01*
X79421051Y28485826D01*
X79470108Y28486831D01*
X79519028Y28483025D01*
X79567338Y28474441D01*
X79614577Y28461163D01*
X79660284Y28443319D01*
X79704023Y28421080D01*
X79745372Y28394663D01*
X79783932Y28364319D01*
X79819333Y28330342D01*
X79851232Y28293058D01*
X79879323Y28252828D01*
X79891330Y28231432D01*
X79891855Y28231727D01*
X80161015Y27752089D01*
X78852911Y27018015D01*
G37*
G36*
X81163724Y25964052D02*
G01*
X81175730Y25942657D01*
X81195433Y25897719D01*
X81210637Y25851066D01*
X81221194Y25803147D01*
X81227004Y25754425D01*
X81228010Y25705368D01*
X81224203Y25656448D01*
X81215619Y25608138D01*
X81202341Y25560899D01*
X81184498Y25515192D01*
X81162259Y25471453D01*
X81135842Y25430104D01*
X81105498Y25391544D01*
X81071520Y25356143D01*
X81034236Y25324244D01*
X80994006Y25296152D01*
X80972611Y25284146D01*
X80972906Y25283621D01*
X80536871Y25038930D01*
X80536576Y25039455D01*
X80515181Y25027448D01*
X80470243Y25007746D01*
X80423590Y24992542D01*
X80375672Y24981985D01*
X80326949Y24976174D01*
X80277892Y24975169D01*
X80228972Y24978975D01*
X80180662Y24987559D01*
X80133423Y25000837D01*
X80087716Y25018681D01*
X80043977Y25040920D01*
X80002628Y25067337D01*
X79964068Y25097681D01*
X79928667Y25131658D01*
X79896768Y25168942D01*
X79868677Y25209172D01*
X79856670Y25230568D01*
X79856145Y25230273D01*
X79586985Y25709911D01*
X80895089Y26443985D01*
X81164249Y25964347D01*
X81163724Y25964052D01*
G37*
G36*
X78975257Y26799998D02*
G01*
X80283361Y27534071D01*
X80772743Y26662002D01*
X79464639Y25927929D01*
X78975257Y26799998D01*
G37*
G36*
X51252911Y27018015D02*
G01*
X50983751Y27497653D01*
X50984276Y27497948D01*
X50972270Y27519343D01*
X50952567Y27564281D01*
X50937363Y27610934D01*
X50926806Y27658853D01*
X50920996Y27707575D01*
X50919990Y27756632D01*
X50923797Y27805552D01*
X50932381Y27853862D01*
X50945659Y27901101D01*
X50963502Y27946808D01*
X50985741Y27990547D01*
X51012158Y28031896D01*
X51042502Y28070456D01*
X51076480Y28105857D01*
X51113764Y28137756D01*
X51153994Y28165848D01*
X51175389Y28177854D01*
X51175094Y28178379D01*
X51611129Y28423070D01*
X51611424Y28422545D01*
X51632819Y28434552D01*
X51677757Y28454254D01*
X51724410Y28469458D01*
X51772328Y28480015D01*
X51821051Y28485826D01*
X51870108Y28486831D01*
X51919028Y28483025D01*
X51967338Y28474441D01*
X52014577Y28461163D01*
X52060284Y28443319D01*
X52104023Y28421080D01*
X52145372Y28394663D01*
X52183932Y28364319D01*
X52219333Y28330342D01*
X52251232Y28293058D01*
X52279323Y28252828D01*
X52291330Y28231432D01*
X52291855Y28231727D01*
X52561015Y27752089D01*
X51252911Y27018015D01*
G37*
G36*
X53563724Y25964052D02*
G01*
X53575730Y25942657D01*
X53595433Y25897719D01*
X53610637Y25851066D01*
X53621194Y25803147D01*
X53627004Y25754425D01*
X53628010Y25705368D01*
X53624203Y25656448D01*
X53615619Y25608138D01*
X53602341Y25560899D01*
X53584498Y25515192D01*
X53562259Y25471453D01*
X53535842Y25430104D01*
X53505498Y25391544D01*
X53471520Y25356143D01*
X53434236Y25324244D01*
X53394006Y25296152D01*
X53372611Y25284146D01*
X53372906Y25283621D01*
X52936871Y25038930D01*
X52936576Y25039455D01*
X52915181Y25027448D01*
X52870243Y25007746D01*
X52823590Y24992542D01*
X52775672Y24981985D01*
X52726949Y24976174D01*
X52677892Y24975169D01*
X52628972Y24978975D01*
X52580662Y24987559D01*
X52533423Y25000837D01*
X52487716Y25018681D01*
X52443977Y25040920D01*
X52402628Y25067337D01*
X52364068Y25097681D01*
X52328667Y25131658D01*
X52296768Y25168942D01*
X52268677Y25209172D01*
X52256670Y25230568D01*
X52256145Y25230273D01*
X51986985Y25709911D01*
X53295089Y26443985D01*
X53564249Y25964347D01*
X53563724Y25964052D01*
G37*
G36*
X51375257Y26799998D02*
G01*
X52683361Y27534071D01*
X53172743Y26662002D01*
X51864639Y25927929D01*
X51375257Y26799998D01*
G37*
G36*
X12251686Y60880020D02*
G01*
X11591020Y62057314D01*
X12768314Y62717980D01*
X13428980Y61540686D01*
X12251686Y60880020D01*
G37*
G36*
G01*
X12900118Y59724528D02*
X12900118Y59724528D01*
G75*
G02*
X13158432Y60643508I588647J330333D01*
G01*
X13158432Y60643508D01*
G75*
G02*
X14077412Y60385194I330333J-588647D01*
G01*
X14077412Y60385194D01*
G75*
G02*
X13819098Y59466214I-588647J-330333D01*
G01*
X13819098Y59466214D01*
G75*
G02*
X12900118Y59724528I-330333J588647D01*
G01*
G37*
G36*
G01*
X13878883Y57980390D02*
X13878883Y57980390D01*
G75*
G02*
X14137197Y58899370I588647J330333D01*
G01*
X14137197Y58899370D01*
G75*
G02*
X15056177Y58641056I330333J-588647D01*
G01*
X15056177Y58641056D01*
G75*
G02*
X14797863Y57722076I-588647J-330333D01*
G01*
X14797863Y57722076D01*
G75*
G02*
X13878883Y57980390I-330333J588647D01*
G01*
G37*
G36*
X39851686Y60880020D02*
G01*
X39191020Y62057314D01*
X40368314Y62717980D01*
X41028980Y61540686D01*
X39851686Y60880020D01*
G37*
G36*
G01*
X40500118Y59724528D02*
X40500118Y59724528D01*
G75*
G02*
X40758432Y60643508I588647J330333D01*
G01*
X40758432Y60643508D01*
G75*
G02*
X41677412Y60385194I330333J-588647D01*
G01*
X41677412Y60385194D01*
G75*
G02*
X41419098Y59466214I-588647J-330333D01*
G01*
X41419098Y59466214D01*
G75*
G02*
X40500118Y59724528I-330333J588647D01*
G01*
G37*
G36*
G01*
X41478883Y57980390D02*
X41478883Y57980390D01*
G75*
G02*
X41737197Y58899370I588647J330333D01*
G01*
X41737197Y58899370D01*
G75*
G02*
X42656177Y58641056I330333J-588647D01*
G01*
X42656177Y58641056D01*
G75*
G02*
X42397863Y57722076I-588647J-330333D01*
G01*
X42397863Y57722076D01*
G75*
G02*
X41478883Y57980390I-330333J588647D01*
G01*
G37*
G36*
X67451686Y60880020D02*
G01*
X66791020Y62057314D01*
X67968314Y62717980D01*
X68628980Y61540686D01*
X67451686Y60880020D01*
G37*
G36*
G01*
X68100118Y59724528D02*
X68100118Y59724528D01*
G75*
G02*
X68358432Y60643508I588647J330333D01*
G01*
X68358432Y60643508D01*
G75*
G02*
X69277412Y60385194I330333J-588647D01*
G01*
X69277412Y60385194D01*
G75*
G02*
X69019098Y59466214I-588647J-330333D01*
G01*
X69019098Y59466214D01*
G75*
G02*
X68100118Y59724528I-330333J588647D01*
G01*
G37*
G36*
G01*
X69078883Y57980390D02*
X69078883Y57980390D01*
G75*
G02*
X69337197Y58899370I588647J330333D01*
G01*
X69337197Y58899370D01*
G75*
G02*
X70256177Y58641056I330333J-588647D01*
G01*
X70256177Y58641056D01*
G75*
G02*
X69997863Y57722076I-588647J-330333D01*
G01*
X69997863Y57722076D01*
G75*
G02*
X69078883Y57980390I-330333J588647D01*
G01*
G37*
G36*
X81148314Y31459980D02*
G01*
X81808980Y30282686D01*
X80631686Y29622020D01*
X79971020Y30799314D01*
X81148314Y31459980D01*
G37*
G36*
G01*
X80499882Y32615472D02*
X80499882Y32615472D01*
G75*
G02*
X80241568Y31696492I-588647J-330333D01*
G01*
X80241568Y31696492D01*
G75*
G02*
X79322588Y31954806I-330333J588647D01*
G01*
X79322588Y31954806D01*
G75*
G02*
X79580902Y32873786I588647J330333D01*
G01*
X79580902Y32873786D01*
G75*
G02*
X80499882Y32615472I330333J-588647D01*
G01*
G37*
G36*
G01*
X79521117Y34359610D02*
X79521117Y34359610D01*
G75*
G02*
X79262803Y33440630I-588647J-330333D01*
G01*
X79262803Y33440630D01*
G75*
G02*
X78343823Y33698944I-330333J588647D01*
G01*
X78343823Y33698944D01*
G75*
G02*
X78602137Y34617924I588647J330333D01*
G01*
X78602137Y34617924D01*
G75*
G02*
X79521117Y34359610I330333J-588647D01*
G01*
G37*
G36*
X53548314Y31459980D02*
G01*
X54208980Y30282686D01*
X53031686Y29622020D01*
X52371020Y30799314D01*
X53548314Y31459980D01*
G37*
G36*
G01*
X52899882Y32615472D02*
X52899882Y32615472D01*
G75*
G02*
X52641568Y31696492I-588647J-330333D01*
G01*
X52641568Y31696492D01*
G75*
G02*
X51722588Y31954806I-330333J588647D01*
G01*
X51722588Y31954806D01*
G75*
G02*
X51980902Y32873786I588647J330333D01*
G01*
X51980902Y32873786D01*
G75*
G02*
X52899882Y32615472I330333J-588647D01*
G01*
G37*
G36*
G01*
X51921117Y34359610D02*
X51921117Y34359610D01*
G75*
G02*
X51662803Y33440630I-588647J-330333D01*
G01*
X51662803Y33440630D01*
G75*
G02*
X50743823Y33698944I-330333J588647D01*
G01*
X50743823Y33698944D01*
G75*
G02*
X51002137Y34617924I588647J330333D01*
G01*
X51002137Y34617924D01*
G75*
G02*
X51921117Y34359610I330333J-588647D01*
G01*
G37*
D15*
X19100000Y35720000D03*
G36*
G01*
X11339476Y29191631D02*
X11775510Y28946940D01*
G75*
G02*
X11861615Y28640613I-110111J-196216D01*
G01*
X11641393Y28248182D01*
G75*
G02*
X11335066Y28162077I-196216J110111D01*
G01*
X10899032Y28406768D01*
G75*
G02*
X10812927Y28713095I110111J196216D01*
G01*
X11033149Y29105526D01*
G75*
G02*
X11339476Y29191631I196216J-110111D01*
G01*
G37*
G36*
G01*
X10580934Y27839923D02*
X11016968Y27595232D01*
G75*
G02*
X11103073Y27288905I-110111J-196216D01*
G01*
X10882851Y26896474D01*
G75*
G02*
X10576524Y26810369I-196216J110111D01*
G01*
X10140490Y27055060D01*
G75*
G02*
X10054385Y27361387I110111J196216D01*
G01*
X10274607Y27753818D01*
G75*
G02*
X10580934Y27839923I196216J-110111D01*
G01*
G37*
D16*
X21536000Y27163000D03*
X21536000Y30363000D03*
X16636000Y27163000D03*
X16636000Y30363000D03*
D12*
G36*
X9175686Y26379980D02*
G01*
X10352980Y25719314D01*
X9692314Y24542020D01*
X8515020Y25202686D01*
X9175686Y26379980D01*
G37*
G36*
X13273980Y30926314D02*
G01*
X12613314Y29749020D01*
X11436020Y30409686D01*
X12096686Y31586980D01*
X13273980Y30926314D01*
G37*
G36*
G01*
X13922412Y32081806D02*
X13922412Y32081806D01*
G75*
G02*
X13003432Y31823492I-588647J330333D01*
G01*
X13003432Y31823492D01*
G75*
G02*
X12745118Y32742472I330333J588647D01*
G01*
X12745118Y32742472D01*
G75*
G02*
X13664098Y33000786I588647J-330333D01*
G01*
X13664098Y33000786D01*
G75*
G02*
X13922412Y32081806I-330333J-588647D01*
G01*
G37*
G36*
G01*
X14901177Y33825944D02*
X14901177Y33825944D01*
G75*
G02*
X13982197Y33567630I-588647J330333D01*
G01*
X13982197Y33567630D01*
G75*
G02*
X13723883Y34486610I330333J588647D01*
G01*
X13723883Y34486610D01*
G75*
G02*
X14642863Y34744924I588647J-330333D01*
G01*
X14642863Y34744924D01*
G75*
G02*
X14901177Y33825944I-330333J-588647D01*
G01*
G37*
G36*
X17049686Y40349980D02*
G01*
X18226980Y39689314D01*
X17566314Y38512020D01*
X16389020Y39172686D01*
X17049686Y40349980D01*
G37*
G36*
X20072020Y39689314D02*
G01*
X21249314Y40349980D01*
X21909980Y39172686D01*
X20732686Y38512020D01*
X20072020Y39689314D01*
G37*
G36*
G01*
X24321117Y34359610D02*
X24321117Y34359610D01*
G75*
G02*
X24062803Y33440630I-588647J-330333D01*
G01*
X24062803Y33440630D01*
G75*
G02*
X23143823Y33698944I-330333J588647D01*
G01*
X23143823Y33698944D01*
G75*
G02*
X23402137Y34617924I588647J330333D01*
G01*
X23402137Y34617924D01*
G75*
G02*
X24321117Y34359610I330333J-588647D01*
G01*
G37*
G36*
G01*
X25299882Y32615472D02*
X25299882Y32615472D01*
G75*
G02*
X25041568Y31696492I-588647J-330333D01*
G01*
X25041568Y31696492D01*
G75*
G02*
X24122588Y31954806I-330333J588647D01*
G01*
X24122588Y31954806D01*
G75*
G02*
X24380902Y32873786I588647J330333D01*
G01*
X24380902Y32873786D01*
G75*
G02*
X25299882Y32615472I330333J-588647D01*
G01*
G37*
G36*
X25948314Y31459980D02*
G01*
X26608980Y30282686D01*
X25431686Y29622020D01*
X24771020Y30799314D01*
X25948314Y31459980D01*
G37*
G36*
X27946020Y25592314D02*
G01*
X29123314Y26252980D01*
X29783980Y25075686D01*
X28606686Y24415020D01*
X27946020Y25592314D01*
G37*
D14*
X27087000Y22032000D03*
X21118000Y22032000D03*
D13*
X19118000Y22032000D03*
X17118000Y22032000D03*
D14*
X11085000Y22032000D03*
D12*
G36*
X13501015Y25582911D02*
G01*
X13231855Y25103273D01*
X13231330Y25103568D01*
X13219323Y25082172D01*
X13191232Y25041942D01*
X13159333Y25004658D01*
X13123932Y24970681D01*
X13085372Y24940337D01*
X13044023Y24913920D01*
X13000284Y24891681D01*
X12954577Y24873837D01*
X12907338Y24860559D01*
X12859028Y24851975D01*
X12810108Y24848169D01*
X12761051Y24849174D01*
X12712328Y24854985D01*
X12664410Y24865542D01*
X12617757Y24880746D01*
X12572819Y24900448D01*
X12551424Y24912455D01*
X12551129Y24911930D01*
X12115094Y25156621D01*
X12115389Y25157146D01*
X12093994Y25169152D01*
X12053764Y25197244D01*
X12016480Y25229143D01*
X11982502Y25264544D01*
X11952158Y25303104D01*
X11925741Y25344453D01*
X11903502Y25388192D01*
X11885659Y25433899D01*
X11872381Y25481138D01*
X11863797Y25529448D01*
X11859990Y25578368D01*
X11860996Y25627425D01*
X11866806Y25676147D01*
X11877363Y25724066D01*
X11892567Y25770719D01*
X11912270Y25815657D01*
X11924276Y25837052D01*
X11923751Y25837347D01*
X12192911Y26316985D01*
X13501015Y25582911D01*
G37*
G36*
X13196670Y28104432D02*
G01*
X13208677Y28125828D01*
X13236768Y28166058D01*
X13268667Y28203342D01*
X13304068Y28237319D01*
X13342628Y28267663D01*
X13383977Y28294080D01*
X13427716Y28316319D01*
X13473423Y28334163D01*
X13520662Y28347441D01*
X13568972Y28356025D01*
X13617892Y28359831D01*
X13666949Y28358826D01*
X13715672Y28353015D01*
X13763590Y28342458D01*
X13810243Y28327254D01*
X13855181Y28307552D01*
X13876576Y28295545D01*
X13876871Y28296070D01*
X14312906Y28051379D01*
X14312611Y28050854D01*
X14334006Y28038848D01*
X14374236Y28010756D01*
X14411520Y27978857D01*
X14445498Y27943456D01*
X14475842Y27904896D01*
X14502259Y27863547D01*
X14524498Y27819808D01*
X14542341Y27774101D01*
X14555619Y27726862D01*
X14564203Y27678552D01*
X14568010Y27629632D01*
X14567004Y27580575D01*
X14561194Y27531853D01*
X14550637Y27483934D01*
X14535433Y27437281D01*
X14515730Y27392343D01*
X14503724Y27370948D01*
X14504249Y27370653D01*
X14235089Y26891015D01*
X12926985Y27625089D01*
X13196145Y28104727D01*
X13196670Y28104432D01*
G37*
G36*
X13623361Y25800929D02*
G01*
X12315257Y26535002D01*
X12804639Y27407071D01*
X14112743Y26672998D01*
X13623361Y25800929D01*
G37*
G36*
X23775257Y26799998D02*
G01*
X25083361Y27534071D01*
X25572743Y26662002D01*
X24264639Y25927929D01*
X23775257Y26799998D01*
G37*
G36*
X25963724Y25964052D02*
G01*
X25975730Y25942657D01*
X25995433Y25897719D01*
X26010637Y25851066D01*
X26021194Y25803147D01*
X26027004Y25754425D01*
X26028010Y25705368D01*
X26024203Y25656448D01*
X26015619Y25608138D01*
X26002341Y25560899D01*
X25984498Y25515192D01*
X25962259Y25471453D01*
X25935842Y25430104D01*
X25905498Y25391544D01*
X25871520Y25356143D01*
X25834236Y25324244D01*
X25794006Y25296152D01*
X25772611Y25284146D01*
X25772906Y25283621D01*
X25336871Y25038930D01*
X25336576Y25039455D01*
X25315181Y25027448D01*
X25270243Y25007746D01*
X25223590Y24992542D01*
X25175672Y24981985D01*
X25126949Y24976174D01*
X25077892Y24975169D01*
X25028972Y24978975D01*
X24980662Y24987559D01*
X24933423Y25000837D01*
X24887716Y25018681D01*
X24843977Y25040920D01*
X24802628Y25067337D01*
X24764068Y25097681D01*
X24728667Y25131658D01*
X24696768Y25168942D01*
X24668677Y25209172D01*
X24656670Y25230568D01*
X24656145Y25230273D01*
X24386985Y25709911D01*
X25695089Y26443985D01*
X25964249Y25964347D01*
X25963724Y25964052D01*
G37*
G36*
X23652911Y27018015D02*
G01*
X23383751Y27497653D01*
X23384276Y27497948D01*
X23372270Y27519343D01*
X23352567Y27564281D01*
X23337363Y27610934D01*
X23326806Y27658853D01*
X23320996Y27707575D01*
X23319990Y27756632D01*
X23323797Y27805552D01*
X23332381Y27853862D01*
X23345659Y27901101D01*
X23363502Y27946808D01*
X23385741Y27990547D01*
X23412158Y28031896D01*
X23442502Y28070456D01*
X23476480Y28105857D01*
X23513764Y28137756D01*
X23553994Y28165848D01*
X23575389Y28177854D01*
X23575094Y28178379D01*
X24011129Y28423070D01*
X24011424Y28422545D01*
X24032819Y28434552D01*
X24077757Y28454254D01*
X24124410Y28469458D01*
X24172328Y28480015D01*
X24221051Y28485826D01*
X24270108Y28486831D01*
X24319028Y28483025D01*
X24367338Y28474441D01*
X24414577Y28461163D01*
X24460284Y28443319D01*
X24504023Y28421080D01*
X24545372Y28394663D01*
X24583932Y28364319D01*
X24619333Y28330342D01*
X24651232Y28293058D01*
X24679323Y28252828D01*
X24691330Y28231432D01*
X24691855Y28231727D01*
X24961015Y27752089D01*
X23652911Y27018015D01*
G37*
G36*
X18336000Y23822000D02*
G01*
X17786000Y23822000D01*
X17786000Y23822602D01*
X17761466Y23822602D01*
X17712635Y23827412D01*
X17664510Y23836984D01*
X17617555Y23851228D01*
X17572222Y23870005D01*
X17528949Y23893136D01*
X17488150Y23920396D01*
X17450221Y23951524D01*
X17415524Y23986221D01*
X17384396Y24024150D01*
X17357136Y24064949D01*
X17334005Y24108222D01*
X17315228Y24153555D01*
X17300984Y24200510D01*
X17291412Y24248635D01*
X17286602Y24297466D01*
X17286602Y24322000D01*
X17286000Y24322000D01*
X17286000Y24822000D01*
X17286602Y24822000D01*
X17286602Y24846534D01*
X17291412Y24895365D01*
X17300984Y24943490D01*
X17315228Y24990445D01*
X17334005Y25035778D01*
X17357136Y25079051D01*
X17384396Y25119850D01*
X17415524Y25157779D01*
X17450221Y25192476D01*
X17488150Y25223604D01*
X17528949Y25250864D01*
X17572222Y25273995D01*
X17617555Y25292772D01*
X17664510Y25307016D01*
X17712635Y25316588D01*
X17761466Y25321398D01*
X17786000Y25321398D01*
X17786000Y25322000D01*
X18336000Y25322000D01*
X18336000Y23822000D01*
G37*
G36*
X20386000Y25321398D02*
G01*
X20410534Y25321398D01*
X20459365Y25316588D01*
X20507490Y25307016D01*
X20554445Y25292772D01*
X20599778Y25273995D01*
X20643051Y25250864D01*
X20683850Y25223604D01*
X20721779Y25192476D01*
X20756476Y25157779D01*
X20787604Y25119850D01*
X20814864Y25079051D01*
X20837995Y25035778D01*
X20856772Y24990445D01*
X20871016Y24943490D01*
X20880588Y24895365D01*
X20885398Y24846534D01*
X20885398Y24822000D01*
X20886000Y24822000D01*
X20886000Y24322000D01*
X20885398Y24322000D01*
X20885398Y24297466D01*
X20880588Y24248635D01*
X20871016Y24200510D01*
X20856772Y24153555D01*
X20837995Y24108222D01*
X20814864Y24064949D01*
X20787604Y24024150D01*
X20756476Y23986221D01*
X20721779Y23951524D01*
X20683850Y23920396D01*
X20643051Y23893136D01*
X20599778Y23870005D01*
X20554445Y23851228D01*
X20507490Y23836984D01*
X20459365Y23827412D01*
X20410534Y23822602D01*
X20386000Y23822602D01*
X20386000Y23822000D01*
X19836000Y23822000D01*
X19836000Y25322000D01*
X20386000Y25322000D01*
X20386000Y25321398D01*
G37*
D11*
X19086000Y24572000D03*
M02*
