G04 #@! TF.GenerationSoftware,KiCad,Pcbnew,(5.1.12)-1*
G04 #@! TF.CreationDate,2023-06-20T10:26:49+09:00*
G04 #@! TF.ProjectId,LED_Sphere_3V-TypeC-Panelized,4c45445f-5370-4686-9572-655f33562d54,rev?*
G04 #@! TF.SameCoordinates,PX5a06e00PY8f0d180*
G04 #@! TF.FileFunction,Legend,Top*
G04 #@! TF.FilePolarity,Positive*
%FSLAX46Y46*%
G04 Gerber Fmt 4.6, Leading zero omitted, Abs format (unit mm)*
G04 Created by KiCad (PCBNEW (5.1.12)-1) date 2023-06-20 10:26:49*
%MOMM*%
%LPD*%
G01*
G04 APERTURE LIST*
%ADD10C,0.150000*%
%ADD11C,0.120000*%
%ADD12C,0.600000*%
%ADD13R,1.000000X1.500000*%
%ADD14C,0.100000*%
%ADD15O,1.350000X1.350000*%
%ADD16R,1.350000X1.350000*%
%ADD17C,2.700000*%
%ADD18R,1.500000X1.000000*%
G04 APERTURE END LIST*
D10*
X24742857Y71555715D02*
X24980952Y71555715D01*
X24980952Y70127143D01*
X24742857Y70127143D01*
X24028571Y70698572D02*
X23885714Y70746191D01*
X23838095Y70793810D01*
X23790476Y70889048D01*
X23790476Y71031905D01*
X23838095Y71127143D01*
X23885714Y71174762D01*
X23980952Y71222381D01*
X24361904Y71222381D01*
X24361904Y70222381D01*
X24028571Y70222381D01*
X23933333Y70270000D01*
X23885714Y70317620D01*
X23838095Y70412858D01*
X23838095Y70508096D01*
X23885714Y70603334D01*
X23933333Y70650953D01*
X24028571Y70698572D01*
X24361904Y70698572D01*
X23457142Y71555715D02*
X23219047Y71555715D01*
X23219047Y70127143D01*
X23457142Y70127143D01*
X52342857Y71555715D02*
X52580952Y71555715D01*
X52580952Y70127143D01*
X52342857Y70127143D01*
X51628571Y70698572D02*
X51485714Y70746191D01*
X51438095Y70793810D01*
X51390476Y70889048D01*
X51390476Y71031905D01*
X51438095Y71127143D01*
X51485714Y71174762D01*
X51580952Y71222381D01*
X51961904Y71222381D01*
X51961904Y70222381D01*
X51628571Y70222381D01*
X51533333Y70270000D01*
X51485714Y70317620D01*
X51438095Y70412858D01*
X51438095Y70508096D01*
X51485714Y70603334D01*
X51533333Y70650953D01*
X51628571Y70698572D01*
X51961904Y70698572D01*
X51057142Y71555715D02*
X50819047Y71555715D01*
X50819047Y70127143D01*
X51057142Y70127143D01*
X79942857Y71555715D02*
X80180952Y71555715D01*
X80180952Y70127143D01*
X79942857Y70127143D01*
X79228571Y70698572D02*
X79085714Y70746191D01*
X79038095Y70793810D01*
X78990476Y70889048D01*
X78990476Y71031905D01*
X79038095Y71127143D01*
X79085714Y71174762D01*
X79180952Y71222381D01*
X79561904Y71222381D01*
X79561904Y70222381D01*
X79228571Y70222381D01*
X79133333Y70270000D01*
X79085714Y70317620D01*
X79038095Y70412858D01*
X79038095Y70508096D01*
X79085714Y70603334D01*
X79133333Y70650953D01*
X79228571Y70698572D01*
X79561904Y70698572D01*
X78657142Y71555715D02*
X78419047Y71555715D01*
X78419047Y70127143D01*
X78657142Y70127143D01*
X68657142Y20784286D02*
X68419047Y20784286D01*
X68419047Y22212858D01*
X68657142Y22212858D01*
X69371428Y21641429D02*
X69514285Y21593810D01*
X69561904Y21546191D01*
X69609523Y21450953D01*
X69609523Y21308096D01*
X69561904Y21212858D01*
X69514285Y21165239D01*
X69419047Y21117620D01*
X69038095Y21117620D01*
X69038095Y22117620D01*
X69371428Y22117620D01*
X69466666Y22070000D01*
X69514285Y22022381D01*
X69561904Y21927143D01*
X69561904Y21831905D01*
X69514285Y21736667D01*
X69466666Y21689048D01*
X69371428Y21641429D01*
X69038095Y21641429D01*
X69942857Y20784286D02*
X70180952Y20784286D01*
X70180952Y22212858D01*
X69942857Y22212858D01*
X41057142Y20784286D02*
X40819047Y20784286D01*
X40819047Y22212858D01*
X41057142Y22212858D01*
X41771428Y21641429D02*
X41914285Y21593810D01*
X41961904Y21546191D01*
X42009523Y21450953D01*
X42009523Y21308096D01*
X41961904Y21212858D01*
X41914285Y21165239D01*
X41819047Y21117620D01*
X41438095Y21117620D01*
X41438095Y22117620D01*
X41771428Y22117620D01*
X41866666Y22070000D01*
X41914285Y22022381D01*
X41961904Y21927143D01*
X41961904Y21831905D01*
X41914285Y21736667D01*
X41866666Y21689048D01*
X41771428Y21641429D01*
X41438095Y21641429D01*
X42342857Y20784286D02*
X42580952Y20784286D01*
X42580952Y22212858D01*
X42342857Y22212858D01*
X19662857Y51835715D02*
X19900952Y51835715D01*
X19900952Y50407143D01*
X19662857Y50407143D01*
X18710476Y51407143D02*
X18758095Y51454762D01*
X18900952Y51502381D01*
X18996190Y51502381D01*
X19139047Y51454762D01*
X19234285Y51359524D01*
X19281904Y51264286D01*
X19329523Y51073810D01*
X19329523Y50930953D01*
X19281904Y50740477D01*
X19234285Y50645239D01*
X19139047Y50550000D01*
X18996190Y50502381D01*
X18900952Y50502381D01*
X18758095Y50550000D01*
X18710476Y50597620D01*
X18377142Y51835715D02*
X18139047Y51835715D01*
X18139047Y50407143D01*
X18377142Y50407143D01*
X47262857Y51835715D02*
X47500952Y51835715D01*
X47500952Y50407143D01*
X47262857Y50407143D01*
X46310476Y51407143D02*
X46358095Y51454762D01*
X46500952Y51502381D01*
X46596190Y51502381D01*
X46739047Y51454762D01*
X46834285Y51359524D01*
X46881904Y51264286D01*
X46929523Y51073810D01*
X46929523Y50930953D01*
X46881904Y50740477D01*
X46834285Y50645239D01*
X46739047Y50550000D01*
X46596190Y50502381D01*
X46500952Y50502381D01*
X46358095Y50550000D01*
X46310476Y50597620D01*
X45977142Y51835715D02*
X45739047Y51835715D01*
X45739047Y50407143D01*
X45977142Y50407143D01*
X74862857Y51835715D02*
X75100952Y51835715D01*
X75100952Y50407143D01*
X74862857Y50407143D01*
X73910476Y51407143D02*
X73958095Y51454762D01*
X74100952Y51502381D01*
X74196190Y51502381D01*
X74339047Y51454762D01*
X74434285Y51359524D01*
X74481904Y51264286D01*
X74529523Y51073810D01*
X74529523Y50930953D01*
X74481904Y50740477D01*
X74434285Y50645239D01*
X74339047Y50550000D01*
X74196190Y50502381D01*
X74100952Y50502381D01*
X73958095Y50550000D01*
X73910476Y50597620D01*
X73577142Y51835715D02*
X73339047Y51835715D01*
X73339047Y50407143D01*
X73577142Y50407143D01*
X73737142Y40504286D02*
X73499047Y40504286D01*
X73499047Y41932858D01*
X73737142Y41932858D01*
X74689523Y40932858D02*
X74641904Y40885239D01*
X74499047Y40837620D01*
X74403809Y40837620D01*
X74260952Y40885239D01*
X74165714Y40980477D01*
X74118095Y41075715D01*
X74070476Y41266191D01*
X74070476Y41409048D01*
X74118095Y41599524D01*
X74165714Y41694762D01*
X74260952Y41790000D01*
X74403809Y41837620D01*
X74499047Y41837620D01*
X74641904Y41790000D01*
X74689523Y41742381D01*
X75022857Y40504286D02*
X75260952Y40504286D01*
X75260952Y41932858D01*
X75022857Y41932858D01*
X46137142Y40504286D02*
X45899047Y40504286D01*
X45899047Y41932858D01*
X46137142Y41932858D01*
X47089523Y40932858D02*
X47041904Y40885239D01*
X46899047Y40837620D01*
X46803809Y40837620D01*
X46660952Y40885239D01*
X46565714Y40980477D01*
X46518095Y41075715D01*
X46470476Y41266191D01*
X46470476Y41409048D01*
X46518095Y41599524D01*
X46565714Y41694762D01*
X46660952Y41790000D01*
X46803809Y41837620D01*
X46899047Y41837620D01*
X47041904Y41790000D01*
X47089523Y41742381D01*
X47422857Y40504286D02*
X47660952Y40504286D01*
X47660952Y41932858D01*
X47422857Y41932858D01*
X13457142Y20784286D02*
X13219047Y20784286D01*
X13219047Y22212858D01*
X13457142Y22212858D01*
X14171428Y21641429D02*
X14314285Y21593810D01*
X14361904Y21546191D01*
X14409523Y21450953D01*
X14409523Y21308096D01*
X14361904Y21212858D01*
X14314285Y21165239D01*
X14219047Y21117620D01*
X13838095Y21117620D01*
X13838095Y22117620D01*
X14171428Y22117620D01*
X14266666Y22070000D01*
X14314285Y22022381D01*
X14361904Y21927143D01*
X14361904Y21831905D01*
X14314285Y21736667D01*
X14266666Y21689048D01*
X14171428Y21641429D01*
X13838095Y21641429D01*
X14742857Y20784286D02*
X14980952Y20784286D01*
X14980952Y22212858D01*
X14742857Y22212858D01*
X18537142Y40504286D02*
X18299047Y40504286D01*
X18299047Y41932858D01*
X18537142Y41932858D01*
X19489523Y40932858D02*
X19441904Y40885239D01*
X19299047Y40837620D01*
X19203809Y40837620D01*
X19060952Y40885239D01*
X18965714Y40980477D01*
X18918095Y41075715D01*
X18870476Y41266191D01*
X18870476Y41409048D01*
X18918095Y41599524D01*
X18965714Y41694762D01*
X19060952Y41790000D01*
X19203809Y41837620D01*
X19299047Y41837620D01*
X19441904Y41790000D01*
X19489523Y41742381D01*
X19822857Y40504286D02*
X20060952Y40504286D01*
X20060952Y41932858D01*
X19822857Y41932858D01*
D11*
X21164000Y67468000D02*
G75*
G02*
X20464000Y66768000I-700000J0D01*
G01*
X20464000Y68768000D02*
G75*
G02*
X21164000Y68068000I0J-700000D01*
G01*
X17064000Y68068000D02*
G75*
G02*
X17764000Y68768000I700000J0D01*
G01*
X17764000Y66768000D02*
G75*
G02*
X17064000Y67468000I0J700000D01*
G01*
X21164000Y68068000D02*
X21164000Y67468000D01*
X17714000Y68768000D02*
X20514000Y68768000D01*
X17064000Y67468000D02*
X17064000Y68068000D01*
X20514000Y66768000D02*
X17714000Y66768000D01*
X48764000Y67468000D02*
G75*
G02*
X48064000Y66768000I-700000J0D01*
G01*
X48064000Y68768000D02*
G75*
G02*
X48764000Y68068000I0J-700000D01*
G01*
X44664000Y68068000D02*
G75*
G02*
X45364000Y68768000I700000J0D01*
G01*
X45364000Y66768000D02*
G75*
G02*
X44664000Y67468000I0J700000D01*
G01*
X48764000Y68068000D02*
X48764000Y67468000D01*
X45314000Y68768000D02*
X48114000Y68768000D01*
X44664000Y67468000D02*
X44664000Y68068000D01*
X48114000Y66768000D02*
X45314000Y66768000D01*
X76364000Y67468000D02*
G75*
G02*
X75664000Y66768000I-700000J0D01*
G01*
X75664000Y68768000D02*
G75*
G02*
X76364000Y68068000I0J-700000D01*
G01*
X72264000Y68068000D02*
G75*
G02*
X72964000Y68768000I700000J0D01*
G01*
X72964000Y66768000D02*
G75*
G02*
X72264000Y67468000I0J700000D01*
G01*
X76364000Y68068000D02*
X76364000Y67468000D01*
X72914000Y68768000D02*
X75714000Y68768000D01*
X72264000Y67468000D02*
X72264000Y68068000D01*
X75714000Y66768000D02*
X72914000Y66768000D01*
X72236000Y24872000D02*
G75*
G02*
X72936000Y25572000I700000J0D01*
G01*
X72936000Y23572000D02*
G75*
G02*
X72236000Y24272000I0J700000D01*
G01*
X76336000Y24272000D02*
G75*
G02*
X75636000Y23572000I-700000J0D01*
G01*
X75636000Y25572000D02*
G75*
G02*
X76336000Y24872000I0J-700000D01*
G01*
X72236000Y24272000D02*
X72236000Y24872000D01*
X75686000Y23572000D02*
X72886000Y23572000D01*
X76336000Y24872000D02*
X76336000Y24272000D01*
X72886000Y25572000D02*
X75686000Y25572000D01*
X44636000Y24872000D02*
G75*
G02*
X45336000Y25572000I700000J0D01*
G01*
X45336000Y23572000D02*
G75*
G02*
X44636000Y24272000I0J700000D01*
G01*
X48736000Y24272000D02*
G75*
G02*
X48036000Y23572000I-700000J0D01*
G01*
X48036000Y25572000D02*
G75*
G02*
X48736000Y24872000I0J-700000D01*
G01*
X44636000Y24272000D02*
X44636000Y24872000D01*
X48086000Y23572000D02*
X45286000Y23572000D01*
X48736000Y24872000D02*
X48736000Y24272000D01*
X45286000Y25572000D02*
X48086000Y25572000D01*
X22444331Y57778075D02*
X24293118Y56740584D01*
X24431224Y61318676D02*
X22444331Y57778075D01*
X26280011Y60281185D02*
X24293118Y56740584D01*
X24431224Y61318676D02*
X26280011Y60281185D01*
X24920607Y62190745D02*
X25439352Y63115139D01*
X25439352Y63115139D02*
X26363745Y62596393D01*
X50044331Y57778075D02*
X51893118Y56740584D01*
X52031224Y61318676D02*
X50044331Y57778075D01*
X53880011Y60281185D02*
X51893118Y56740584D01*
X52031224Y61318676D02*
X53880011Y60281185D01*
X52520607Y62190745D02*
X53039352Y63115139D01*
X53039352Y63115139D02*
X53963745Y62596393D01*
X77644331Y57778075D02*
X79493118Y56740584D01*
X79631224Y61318676D02*
X77644331Y57778075D01*
X81480011Y60281185D02*
X79493118Y56740584D01*
X79631224Y61318676D02*
X81480011Y60281185D01*
X80120607Y62190745D02*
X80639352Y63115139D01*
X80639352Y63115139D02*
X81563745Y62596393D01*
X70955669Y34561925D02*
X69106882Y35599416D01*
X68968776Y31021324D02*
X70955669Y34561925D01*
X67119989Y32058815D02*
X69106882Y35599416D01*
X68968776Y31021324D02*
X67119989Y32058815D01*
X68479393Y30149255D02*
X67960648Y29224861D01*
X67960648Y29224861D02*
X67036255Y29743607D01*
X43355669Y34561925D02*
X41506882Y35599416D01*
X41368776Y31021324D02*
X43355669Y34561925D01*
X39519989Y32058815D02*
X41506882Y35599416D01*
X41368776Y31021324D02*
X39519989Y32058815D01*
X40879393Y30149255D02*
X40360648Y29224861D01*
X40360648Y29224861D02*
X39436255Y29743607D01*
X26250855Y67376928D02*
G75*
G02*
X26518736Y66423911I-342568J-610449D01*
G01*
X24774597Y67402675D02*
G75*
G02*
X25727613Y67670557I610449J-342567D01*
G01*
X23721145Y64095072D02*
G75*
G02*
X23453264Y65048089I342568J610449D01*
G01*
X25197403Y64069325D02*
G75*
G02*
X24244387Y63801443I-610449J342567D01*
G01*
X25727613Y67670557D02*
X26250855Y67376927D01*
X23428795Y65004485D02*
X24799066Y67446279D01*
X24244387Y63801443D02*
X23721145Y64095073D01*
X26543205Y66467515D02*
X25172934Y64025721D01*
X53850855Y67376928D02*
G75*
G02*
X54118736Y66423911I-342568J-610449D01*
G01*
X52374597Y67402675D02*
G75*
G02*
X53327613Y67670557I610449J-342567D01*
G01*
X51321145Y64095072D02*
G75*
G02*
X51053264Y65048089I342568J610449D01*
G01*
X52797403Y64069325D02*
G75*
G02*
X51844387Y63801443I-610449J342567D01*
G01*
X53327613Y67670557D02*
X53850855Y67376927D01*
X51028795Y65004485D02*
X52399066Y67446279D01*
X51844387Y63801443D02*
X51321145Y64095073D01*
X54143205Y66467515D02*
X52772934Y64025721D01*
X81450855Y67376928D02*
G75*
G02*
X81718736Y66423911I-342568J-610449D01*
G01*
X79974597Y67402675D02*
G75*
G02*
X80927613Y67670557I610449J-342567D01*
G01*
X78921145Y64095072D02*
G75*
G02*
X78653264Y65048089I342568J610449D01*
G01*
X80397403Y64069325D02*
G75*
G02*
X79444387Y63801443I-610449J342567D01*
G01*
X80927613Y67670557D02*
X81450855Y67376927D01*
X78628795Y65004485D02*
X79999066Y67446279D01*
X79444387Y63801443D02*
X78921145Y64095073D01*
X81743205Y66467515D02*
X80372934Y64025721D01*
X67149145Y24963072D02*
G75*
G02*
X66881264Y25916089I342568J610449D01*
G01*
X68625403Y24937325D02*
G75*
G02*
X67672387Y24669443I-610449J342567D01*
G01*
X69678855Y28244928D02*
G75*
G02*
X69946736Y27291911I-342568J-610449D01*
G01*
X68202597Y28270675D02*
G75*
G02*
X69155613Y28538557I610449J-342567D01*
G01*
X67672387Y24669443D02*
X67149145Y24963073D01*
X69971205Y27335515D02*
X68600934Y24893721D01*
X69155613Y28538557D02*
X69678855Y28244927D01*
X66856795Y25872485D02*
X68227066Y28314279D01*
X39549145Y24963072D02*
G75*
G02*
X39281264Y25916089I342568J610449D01*
G01*
X41025403Y24937325D02*
G75*
G02*
X40072387Y24669443I-610449J342567D01*
G01*
X42078855Y28244928D02*
G75*
G02*
X42346736Y27291911I-342568J-610449D01*
G01*
X40602597Y28270675D02*
G75*
G02*
X41555613Y28538557I610449J-342567D01*
G01*
X40072387Y24669443D02*
X39549145Y24963073D01*
X42371205Y27335515D02*
X41000934Y24893721D01*
X41555613Y28538557D02*
X42078855Y28244927D01*
X39256795Y25872485D02*
X40627066Y28314279D01*
X26728447Y64465990D02*
X26866042Y64711181D01*
X27617958Y63966819D02*
X27755553Y64212010D01*
X54328447Y64465990D02*
X54466042Y64711181D01*
X55217958Y63966819D02*
X55355553Y64212010D01*
X81928447Y64465990D02*
X82066042Y64711181D01*
X82817958Y63966819D02*
X82955553Y64212010D01*
X66671553Y27874010D02*
X66533958Y27628819D01*
X65782042Y28373181D02*
X65644447Y28127990D01*
X39071553Y27874010D02*
X38933958Y27628819D01*
X38182042Y28373181D02*
X38044447Y28127990D01*
X10778139Y66600352D02*
X9740648Y68449139D01*
X10725815Y66570989D02*
X10778139Y66600352D01*
X9688324Y68419776D02*
X9740648Y68449139D01*
X10725815Y66570989D02*
X9688324Y68419776D01*
X9853745Y66081607D02*
X8929352Y65562861D01*
X8929352Y65562861D02*
X8410607Y66487255D01*
X38378139Y66600352D02*
X37340648Y68449139D01*
X38325815Y66570989D02*
X38378139Y66600352D01*
X37288324Y68419776D02*
X37340648Y68449139D01*
X38325815Y66570989D02*
X37288324Y68419776D01*
X37453745Y66081607D02*
X36529352Y65562861D01*
X36529352Y65562861D02*
X36010607Y66487255D01*
X65978139Y66600352D02*
X64940648Y68449139D01*
X65925815Y66570989D02*
X65978139Y66600352D01*
X64888324Y68419776D02*
X64940648Y68449139D01*
X65925815Y66570989D02*
X64888324Y68419776D01*
X65053745Y66081607D02*
X64129352Y65562861D01*
X64129352Y65562861D02*
X63610607Y66487255D01*
X82621861Y25739648D02*
X83659352Y23890861D01*
X82674185Y25769011D02*
X82621861Y25739648D01*
X83711676Y23920224D02*
X83659352Y23890861D01*
X82674185Y25769011D02*
X83711676Y23920224D01*
X83546255Y26258393D02*
X84470648Y26777139D01*
X84470648Y26777139D02*
X84989393Y25852745D01*
X55021861Y25739648D02*
X56059352Y23890861D01*
X55074185Y25769011D02*
X55021861Y25739648D01*
X56111676Y23920224D02*
X56059352Y23890861D01*
X55074185Y25769011D02*
X56111676Y23920224D01*
X55946255Y26258393D02*
X56870648Y26777139D01*
X56870648Y26777139D02*
X57389393Y25852745D01*
X27322861Y66473352D02*
X27841607Y67397745D01*
X28247255Y65954607D02*
X27322861Y66473352D01*
X29119324Y65465224D02*
X30156815Y67314011D01*
X30156815Y67314011D02*
X30209139Y67284648D01*
X29119324Y65465224D02*
X29171648Y65435861D01*
X29171648Y65435861D02*
X30209139Y67284648D01*
X54922861Y66473352D02*
X55441607Y67397745D01*
X55847255Y65954607D02*
X54922861Y66473352D01*
X56719324Y65465224D02*
X57756815Y67314011D01*
X57756815Y67314011D02*
X57809139Y67284648D01*
X56719324Y65465224D02*
X56771648Y65435861D01*
X56771648Y65435861D02*
X57809139Y67284648D01*
X82522861Y66473352D02*
X83041607Y67397745D01*
X83447255Y65954607D02*
X82522861Y66473352D01*
X84319324Y65465224D02*
X85356815Y67314011D01*
X85356815Y67314011D02*
X85409139Y67284648D01*
X84319324Y65465224D02*
X84371648Y65435861D01*
X84371648Y65435861D02*
X85409139Y67284648D01*
X66077139Y25866648D02*
X65558393Y24942255D01*
X65152745Y26385393D02*
X66077139Y25866648D01*
X64280676Y26874776D02*
X63243185Y25025989D01*
X63243185Y25025989D02*
X63190861Y25055352D01*
X64280676Y26874776D02*
X64228352Y26904139D01*
X64228352Y26904139D02*
X63190861Y25055352D01*
X38477139Y25866648D02*
X37958393Y24942255D01*
X37552745Y26385393D02*
X38477139Y25866648D01*
X36680676Y26874776D02*
X35643185Y25025989D01*
X35643185Y25025989D02*
X35590861Y25055352D01*
X36680676Y26874776D02*
X36628352Y26904139D01*
X36628352Y26904139D02*
X35590861Y25055352D01*
X22142000Y69248000D02*
X22142000Y71368000D01*
X18082000Y69248000D02*
X22142000Y69248000D01*
X18082000Y71368000D02*
X22142000Y71368000D01*
X18082000Y69248000D02*
X18082000Y71368000D01*
X17082000Y69248000D02*
X16022000Y69248000D01*
X16022000Y69248000D02*
X16022000Y70308000D01*
X49742000Y69248000D02*
X49742000Y71368000D01*
X45682000Y69248000D02*
X49742000Y69248000D01*
X45682000Y71368000D02*
X49742000Y71368000D01*
X45682000Y69248000D02*
X45682000Y71368000D01*
X44682000Y69248000D02*
X43622000Y69248000D01*
X43622000Y69248000D02*
X43622000Y70308000D01*
X77342000Y69248000D02*
X77342000Y71368000D01*
X73282000Y69248000D02*
X77342000Y69248000D01*
X73282000Y71368000D02*
X77342000Y71368000D01*
X73282000Y69248000D02*
X73282000Y71368000D01*
X72282000Y69248000D02*
X71222000Y69248000D01*
X71222000Y69248000D02*
X71222000Y70308000D01*
X71258000Y23092000D02*
X71258000Y20972000D01*
X75318000Y23092000D02*
X71258000Y23092000D01*
X75318000Y20972000D02*
X71258000Y20972000D01*
X75318000Y23092000D02*
X75318000Y20972000D01*
X76318000Y23092000D02*
X77378000Y23092000D01*
X77378000Y23092000D02*
X77378000Y22032000D01*
X43658000Y23092000D02*
X43658000Y20972000D01*
X47718000Y23092000D02*
X43658000Y23092000D01*
X47718000Y20972000D02*
X43658000Y20972000D01*
X47718000Y23092000D02*
X47718000Y20972000D01*
X48718000Y23092000D02*
X49778000Y23092000D01*
X49778000Y23092000D02*
X49778000Y22032000D01*
X21297648Y51465861D02*
X22335139Y53314648D01*
X21245324Y51495224D02*
X21297648Y51465861D01*
X22282815Y53344011D02*
X22335139Y53314648D01*
X21245324Y51495224D02*
X22282815Y53344011D01*
X20373255Y51984607D02*
X19448861Y52503352D01*
X19448861Y52503352D02*
X19967607Y53427745D01*
X48897648Y51465861D02*
X49935139Y53314648D01*
X48845324Y51495224D02*
X48897648Y51465861D01*
X49882815Y53344011D02*
X49935139Y53314648D01*
X48845324Y51495224D02*
X49882815Y53344011D01*
X47973255Y51984607D02*
X47048861Y52503352D01*
X47048861Y52503352D02*
X47567607Y53427745D01*
X76497648Y51465861D02*
X77535139Y53314648D01*
X76445324Y51495224D02*
X76497648Y51465861D01*
X77482815Y53344011D02*
X77535139Y53314648D01*
X76445324Y51495224D02*
X77482815Y53344011D01*
X75573255Y51984607D02*
X74648861Y52503352D01*
X74648861Y52503352D02*
X75167607Y53427745D01*
X72102352Y40874139D02*
X71064861Y39025352D01*
X72154676Y40844776D02*
X72102352Y40874139D01*
X71117185Y38995989D02*
X71064861Y39025352D01*
X72154676Y40844776D02*
X71117185Y38995989D01*
X73026745Y40355393D02*
X73951139Y39836648D01*
X73951139Y39836648D02*
X73432393Y38912255D01*
X44502352Y40874139D02*
X43464861Y39025352D01*
X44554676Y40844776D02*
X44502352Y40874139D01*
X43517185Y38995989D02*
X43464861Y39025352D01*
X44554676Y40844776D02*
X43517185Y38995989D01*
X45426745Y40355393D02*
X46351139Y39836648D01*
X46351139Y39836648D02*
X45832393Y38912255D01*
X16803352Y51465861D02*
X16284607Y52390255D01*
X17727745Y51984607D02*
X16803352Y51465861D01*
X18599815Y52473989D02*
X17562324Y54322776D01*
X17562324Y54322776D02*
X17614648Y54352139D01*
X18599815Y52473989D02*
X18652139Y52503352D01*
X18652139Y52503352D02*
X17614648Y54352139D01*
X44403352Y51465861D02*
X43884607Y52390255D01*
X45327745Y51984607D02*
X44403352Y51465861D01*
X46199815Y52473989D02*
X45162324Y54322776D01*
X45162324Y54322776D02*
X45214648Y54352139D01*
X46199815Y52473989D02*
X46252139Y52503352D01*
X46252139Y52503352D02*
X45214648Y54352139D01*
X72003352Y51465861D02*
X71484607Y52390255D01*
X72927745Y51984607D02*
X72003352Y51465861D01*
X73799815Y52473989D02*
X72762324Y54322776D01*
X72762324Y54322776D02*
X72814648Y54352139D01*
X73799815Y52473989D02*
X73852139Y52503352D01*
X73852139Y52503352D02*
X72814648Y54352139D01*
X76596648Y40874139D02*
X77115393Y39949745D01*
X75672255Y40355393D02*
X76596648Y40874139D01*
X74800185Y39866011D02*
X75837676Y38017224D01*
X75837676Y38017224D02*
X75785352Y37987861D01*
X74800185Y39866011D02*
X74747861Y39836648D01*
X74747861Y39836648D02*
X75785352Y37987861D01*
X48996648Y40874139D02*
X49515393Y39949745D01*
X48072255Y40355393D02*
X48996648Y40874139D01*
X47200185Y39866011D02*
X48237676Y38017224D01*
X48237676Y38017224D02*
X48185352Y37987861D01*
X47200185Y39866011D02*
X47147861Y39836648D01*
X47147861Y39836648D02*
X48185352Y37987861D01*
X12173000Y69248000D02*
X11113000Y69248000D01*
X12173000Y70308000D02*
X12173000Y69248000D01*
X12173000Y71308000D02*
X10053000Y71308000D01*
X10053000Y71308000D02*
X10053000Y71368000D01*
X12173000Y71308000D02*
X12173000Y71368000D01*
X12173000Y71368000D02*
X10053000Y71368000D01*
X39773000Y69248000D02*
X38713000Y69248000D01*
X39773000Y70308000D02*
X39773000Y69248000D01*
X39773000Y71308000D02*
X37653000Y71308000D01*
X37653000Y71308000D02*
X37653000Y71368000D01*
X39773000Y71308000D02*
X39773000Y71368000D01*
X39773000Y71368000D02*
X37653000Y71368000D01*
X67373000Y69248000D02*
X66313000Y69248000D01*
X67373000Y70308000D02*
X67373000Y69248000D01*
X67373000Y71308000D02*
X65253000Y71308000D01*
X65253000Y71308000D02*
X65253000Y71368000D01*
X67373000Y71308000D02*
X67373000Y71368000D01*
X67373000Y71368000D02*
X65253000Y71368000D01*
X81227000Y23092000D02*
X82287000Y23092000D01*
X81227000Y22032000D02*
X81227000Y23092000D01*
X81227000Y21032000D02*
X83347000Y21032000D01*
X83347000Y21032000D02*
X83347000Y20972000D01*
X81227000Y21032000D02*
X81227000Y20972000D01*
X81227000Y20972000D02*
X83347000Y20972000D01*
X53627000Y23092000D02*
X54687000Y23092000D01*
X53627000Y22032000D02*
X53627000Y23092000D01*
X53627000Y21032000D02*
X55747000Y21032000D01*
X55747000Y21032000D02*
X55747000Y20972000D01*
X53627000Y21032000D02*
X53627000Y20972000D01*
X53627000Y20972000D02*
X55747000Y20972000D01*
X28175000Y71368000D02*
X26055000Y71368000D01*
X28175000Y71308000D02*
X28175000Y71368000D01*
X26055000Y71308000D02*
X26055000Y71368000D01*
X28175000Y71308000D02*
X26055000Y71308000D01*
X28175000Y70308000D02*
X28175000Y69248000D01*
X28175000Y69248000D02*
X27115000Y69248000D01*
X55775000Y71368000D02*
X53655000Y71368000D01*
X55775000Y71308000D02*
X55775000Y71368000D01*
X53655000Y71308000D02*
X53655000Y71368000D01*
X55775000Y71308000D02*
X53655000Y71308000D01*
X55775000Y70308000D02*
X55775000Y69248000D01*
X55775000Y69248000D02*
X54715000Y69248000D01*
X83375000Y71368000D02*
X81255000Y71368000D01*
X83375000Y71308000D02*
X83375000Y71368000D01*
X81255000Y71308000D02*
X81255000Y71368000D01*
X83375000Y71308000D02*
X81255000Y71308000D01*
X83375000Y70308000D02*
X83375000Y69248000D01*
X83375000Y69248000D02*
X82315000Y69248000D01*
X65225000Y20972000D02*
X67345000Y20972000D01*
X65225000Y21032000D02*
X65225000Y20972000D01*
X67345000Y21032000D02*
X67345000Y20972000D01*
X65225000Y21032000D02*
X67345000Y21032000D01*
X65225000Y22032000D02*
X65225000Y23092000D01*
X65225000Y23092000D02*
X66285000Y23092000D01*
X37625000Y20972000D02*
X39745000Y20972000D01*
X37625000Y21032000D02*
X37625000Y20972000D01*
X39745000Y21032000D02*
X39745000Y20972000D01*
X37625000Y21032000D02*
X39745000Y21032000D01*
X37625000Y22032000D02*
X37625000Y23092000D01*
X37625000Y23092000D02*
X38685000Y23092000D01*
X22764000Y60827000D02*
X15464000Y60827000D01*
X22764000Y66327000D02*
X15464000Y66327000D01*
X15464000Y66327000D02*
X15464000Y65177000D01*
X50364000Y60827000D02*
X43064000Y60827000D01*
X50364000Y66327000D02*
X43064000Y66327000D01*
X43064000Y66327000D02*
X43064000Y65177000D01*
X77964000Y60827000D02*
X70664000Y60827000D01*
X77964000Y66327000D02*
X70664000Y66327000D01*
X70664000Y66327000D02*
X70664000Y65177000D01*
X70636000Y31513000D02*
X77936000Y31513000D01*
X70636000Y26013000D02*
X77936000Y26013000D01*
X77936000Y26013000D02*
X77936000Y27163000D01*
X43036000Y31513000D02*
X50336000Y31513000D01*
X43036000Y26013000D02*
X50336000Y26013000D01*
X50336000Y26013000D02*
X50336000Y27163000D01*
X11993265Y66296911D02*
G75*
G02*
X12261145Y67249927I610448J342568D01*
G01*
X12784386Y67543557D02*
G75*
G02*
X13737403Y67275676I342568J-610449D01*
G01*
X15058735Y64921089D02*
G75*
G02*
X14790855Y63968073I-610448J-342568D01*
G01*
X14267614Y63674443D02*
G75*
G02*
X13314597Y63942324I-342568J610449D01*
G01*
X13339066Y63898721D02*
X11968795Y66340515D01*
X12261145Y67249927D02*
X12784387Y67543557D01*
X13712934Y67319279D02*
X15083205Y64877485D01*
X14790855Y63968073D02*
X14267613Y63674443D01*
X39593265Y66296911D02*
G75*
G02*
X39861145Y67249927I610448J342568D01*
G01*
X40384386Y67543557D02*
G75*
G02*
X41337403Y67275676I342568J-610449D01*
G01*
X42658735Y64921089D02*
G75*
G02*
X42390855Y63968073I-610448J-342568D01*
G01*
X41867614Y63674443D02*
G75*
G02*
X40914597Y63942324I-342568J610449D01*
G01*
X40939066Y63898721D02*
X39568795Y66340515D01*
X39861145Y67249927D02*
X40384387Y67543557D01*
X41312934Y67319279D02*
X42683205Y64877485D01*
X42390855Y63968073D02*
X41867613Y63674443D01*
X67193265Y66296911D02*
G75*
G02*
X67461145Y67249927I610448J342568D01*
G01*
X67984386Y67543557D02*
G75*
G02*
X68937403Y67275676I342568J-610449D01*
G01*
X70258735Y64921089D02*
G75*
G02*
X69990855Y63968073I-610448J-342568D01*
G01*
X69467614Y63674443D02*
G75*
G02*
X68514597Y63942324I-342568J610449D01*
G01*
X68539066Y63898721D02*
X67168795Y66340515D01*
X67461145Y67249927D02*
X67984387Y67543557D01*
X68912934Y67319279D02*
X70283205Y64877485D01*
X69990855Y63968073D02*
X69467613Y63674443D01*
X81406735Y26043089D02*
G75*
G02*
X81138855Y25090073I-610448J-342568D01*
G01*
X80615614Y24796443D02*
G75*
G02*
X79662597Y25064324I-342568J610449D01*
G01*
X78341265Y27418911D02*
G75*
G02*
X78609145Y28371927I610448J342568D01*
G01*
X79132386Y28665557D02*
G75*
G02*
X80085403Y28397676I342568J-610449D01*
G01*
X80060934Y28441279D02*
X81431205Y25999485D01*
X81138855Y25090073D02*
X80615613Y24796443D01*
X79687066Y25020721D02*
X78316795Y27462515D01*
X78609145Y28371927D02*
X79132387Y28665557D01*
X53806735Y26043089D02*
G75*
G02*
X53538855Y25090073I-610448J-342568D01*
G01*
X53015614Y24796443D02*
G75*
G02*
X52062597Y25064324I-342568J610449D01*
G01*
X50741265Y27418911D02*
G75*
G02*
X51009145Y28371927I610448J342568D01*
G01*
X51532386Y28665557D02*
G75*
G02*
X52485403Y28397676I342568J-610449D01*
G01*
X52460934Y28441279D02*
X53831205Y25999485D01*
X53538855Y25090073D02*
X53015613Y24796443D01*
X52087066Y25020721D02*
X50716795Y27462515D01*
X51009145Y28371927D02*
X51532387Y28665557D01*
X11066861Y62204648D02*
X11991255Y62723393D01*
X11585607Y61280255D02*
X11066861Y62204648D01*
X12074989Y60408185D02*
X13923776Y61445676D01*
X13923776Y61445676D02*
X15910669Y57905075D01*
X12074989Y60408185D02*
X14061882Y56867584D01*
X14061882Y56867584D02*
X15910669Y57905075D01*
X38666861Y62204648D02*
X39591255Y62723393D01*
X39185607Y61280255D02*
X38666861Y62204648D01*
X39674989Y60408185D02*
X41523776Y61445676D01*
X41523776Y61445676D02*
X43510669Y57905075D01*
X39674989Y60408185D02*
X41661882Y56867584D01*
X41661882Y56867584D02*
X43510669Y57905075D01*
X66266861Y62204648D02*
X67191255Y62723393D01*
X66785607Y61280255D02*
X66266861Y62204648D01*
X67274989Y60408185D02*
X69123776Y61445676D01*
X69123776Y61445676D02*
X71110669Y57905075D01*
X67274989Y60408185D02*
X69261882Y56867584D01*
X69261882Y56867584D02*
X71110669Y57905075D01*
X82333139Y30135352D02*
X81408745Y29616607D01*
X81814393Y31059745D02*
X82333139Y30135352D01*
X81325011Y31931815D02*
X79476224Y30894324D01*
X79476224Y30894324D02*
X77489331Y34434925D01*
X81325011Y31931815D02*
X79338118Y35472416D01*
X79338118Y35472416D02*
X77489331Y34434925D01*
X54733139Y30135352D02*
X53808745Y29616607D01*
X54214393Y31059745D02*
X54733139Y30135352D01*
X53725011Y31931815D02*
X51876224Y30894324D01*
X51876224Y30894324D02*
X49889331Y34434925D01*
X53725011Y31931815D02*
X51738118Y35472416D01*
X51738118Y35472416D02*
X49889331Y34434925D01*
X10582042Y28373181D02*
X10444447Y28127990D01*
X11471553Y27874010D02*
X11333958Y27628819D01*
X22736000Y26013000D02*
X22736000Y27163000D01*
X15436000Y26013000D02*
X22736000Y26013000D01*
X15436000Y31513000D02*
X22736000Y31513000D01*
X9028352Y26904139D02*
X7990861Y25055352D01*
X9080676Y26874776D02*
X9028352Y26904139D01*
X8043185Y25025989D02*
X7990861Y25055352D01*
X9080676Y26874776D02*
X8043185Y25025989D01*
X9952745Y26385393D02*
X10877139Y25866648D01*
X10877139Y25866648D02*
X10358393Y24942255D01*
X12760648Y29224861D02*
X11836255Y29743607D01*
X13279393Y30149255D02*
X12760648Y29224861D01*
X13768776Y31021324D02*
X11919989Y32058815D01*
X11919989Y32058815D02*
X13906882Y35599416D01*
X13768776Y31021324D02*
X15755669Y34561925D01*
X15755669Y34561925D02*
X13906882Y35599416D01*
X18751139Y39836648D02*
X18232393Y38912255D01*
X17826745Y40355393D02*
X18751139Y39836648D01*
X16954676Y40844776D02*
X15917185Y38995989D01*
X15917185Y38995989D02*
X15864861Y39025352D01*
X16954676Y40844776D02*
X16902352Y40874139D01*
X16902352Y40874139D02*
X15864861Y39025352D01*
X19547861Y39836648D02*
X20585352Y37987861D01*
X19600185Y39866011D02*
X19547861Y39836648D01*
X20637676Y38017224D02*
X20585352Y37987861D01*
X19600185Y39866011D02*
X20637676Y38017224D01*
X20472255Y40355393D02*
X21396648Y40874139D01*
X21396648Y40874139D02*
X21915393Y39949745D01*
X24138118Y35472416D02*
X22289331Y34434925D01*
X26125011Y31931815D02*
X24138118Y35472416D01*
X24276224Y30894324D02*
X22289331Y34434925D01*
X26125011Y31931815D02*
X24276224Y30894324D01*
X26614393Y31059745D02*
X27133139Y30135352D01*
X27133139Y30135352D02*
X26208745Y29616607D01*
X29270648Y26777139D02*
X29789393Y25852745D01*
X28346255Y26258393D02*
X29270648Y26777139D01*
X27474185Y25769011D02*
X28511676Y23920224D01*
X28511676Y23920224D02*
X28459352Y23890861D01*
X27474185Y25769011D02*
X27421861Y25739648D01*
X27421861Y25739648D02*
X28459352Y23890861D01*
X26027000Y20972000D02*
X28147000Y20972000D01*
X26027000Y21032000D02*
X26027000Y20972000D01*
X28147000Y21032000D02*
X28147000Y20972000D01*
X26027000Y21032000D02*
X28147000Y21032000D01*
X26027000Y22032000D02*
X26027000Y23092000D01*
X26027000Y23092000D02*
X27087000Y23092000D01*
X22178000Y23092000D02*
X22178000Y22032000D01*
X21118000Y23092000D02*
X22178000Y23092000D01*
X20118000Y23092000D02*
X20118000Y20972000D01*
X20118000Y20972000D02*
X16058000Y20972000D01*
X20118000Y23092000D02*
X16058000Y23092000D01*
X16058000Y23092000D02*
X16058000Y20972000D01*
X10025000Y23092000D02*
X11085000Y23092000D01*
X10025000Y22032000D02*
X10025000Y23092000D01*
X10025000Y21032000D02*
X12145000Y21032000D01*
X12145000Y21032000D02*
X12145000Y20972000D01*
X10025000Y21032000D02*
X10025000Y20972000D01*
X10025000Y20972000D02*
X12145000Y20972000D01*
X11656795Y25872485D02*
X13027066Y28314279D01*
X13955613Y28538557D02*
X14478855Y28244927D01*
X14771205Y27335515D02*
X13400934Y24893721D01*
X12472387Y24669443D02*
X11949145Y24963073D01*
X13002597Y28270675D02*
G75*
G02*
X13955613Y28538557I610449J-342567D01*
G01*
X14478855Y28244928D02*
G75*
G02*
X14746736Y27291911I-342568J-610449D01*
G01*
X13425403Y24937325D02*
G75*
G02*
X12472387Y24669443I-610449J342567D01*
G01*
X11949145Y24963072D02*
G75*
G02*
X11681264Y25916089I342568J610449D01*
G01*
X23409145Y28371927D02*
X23932387Y28665557D01*
X24487066Y25020721D02*
X23116795Y27462515D01*
X25938855Y25090073D02*
X25415613Y24796443D01*
X24860934Y28441279D02*
X26231205Y25999485D01*
X23932386Y28665557D02*
G75*
G02*
X24885403Y28397676I342568J-610449D01*
G01*
X23141265Y27418911D02*
G75*
G02*
X23409145Y28371927I610448J342568D01*
G01*
X25415614Y24796443D02*
G75*
G02*
X24462597Y25064324I-342568J610449D01*
G01*
X26206735Y26043089D02*
G75*
G02*
X25938855Y25090073I-610448J-342568D01*
G01*
X17686000Y25572000D02*
X20486000Y25572000D01*
X21136000Y24872000D02*
X21136000Y24272000D01*
X20486000Y23572000D02*
X17686000Y23572000D01*
X17036000Y24272000D02*
X17036000Y24872000D01*
X20436000Y25572000D02*
G75*
G02*
X21136000Y24872000I0J-700000D01*
G01*
X21136000Y24272000D02*
G75*
G02*
X20436000Y23572000I-700000J0D01*
G01*
X17736000Y23572000D02*
G75*
G02*
X17036000Y24272000I0J700000D01*
G01*
X17036000Y24872000D02*
G75*
G02*
X17736000Y25572000I700000J0D01*
G01*
D10*
X22786666Y69577620D02*
X22786666Y68863334D01*
X22739047Y68720477D01*
X22643809Y68625239D01*
X22500952Y68577620D01*
X22405714Y68577620D01*
X23262857Y68577620D02*
X23262857Y69577620D01*
X23643809Y69577620D01*
X23739047Y69530000D01*
X23786666Y69482381D01*
X23834285Y69387143D01*
X23834285Y69244286D01*
X23786666Y69149048D01*
X23739047Y69101429D01*
X23643809Y69053810D01*
X23262857Y69053810D01*
X24167619Y69577620D02*
X24786666Y69577620D01*
X24453333Y69196667D01*
X24596190Y69196667D01*
X24691428Y69149048D01*
X24739047Y69101429D01*
X24786666Y69006191D01*
X24786666Y68768096D01*
X24739047Y68672858D01*
X24691428Y68625239D01*
X24596190Y68577620D01*
X24310476Y68577620D01*
X24215238Y68625239D01*
X24167619Y68672858D01*
X21714000Y67315620D02*
X21714000Y68315620D01*
X16418761Y68315620D02*
X16609238Y68315620D01*
X16704476Y68268000D01*
X16799714Y68172762D01*
X16847333Y67982286D01*
X16847333Y67648953D01*
X16799714Y67458477D01*
X16704476Y67363239D01*
X16609238Y67315620D01*
X16418761Y67315620D01*
X16323523Y67363239D01*
X16228285Y67458477D01*
X16180666Y67648953D01*
X16180666Y67982286D01*
X16228285Y68172762D01*
X16323523Y68268000D01*
X16418761Y68315620D01*
X50386666Y69577620D02*
X50386666Y68863334D01*
X50339047Y68720477D01*
X50243809Y68625239D01*
X50100952Y68577620D01*
X50005714Y68577620D01*
X50862857Y68577620D02*
X50862857Y69577620D01*
X51243809Y69577620D01*
X51339047Y69530000D01*
X51386666Y69482381D01*
X51434285Y69387143D01*
X51434285Y69244286D01*
X51386666Y69149048D01*
X51339047Y69101429D01*
X51243809Y69053810D01*
X50862857Y69053810D01*
X51767619Y69577620D02*
X52386666Y69577620D01*
X52053333Y69196667D01*
X52196190Y69196667D01*
X52291428Y69149048D01*
X52339047Y69101429D01*
X52386666Y69006191D01*
X52386666Y68768096D01*
X52339047Y68672858D01*
X52291428Y68625239D01*
X52196190Y68577620D01*
X51910476Y68577620D01*
X51815238Y68625239D01*
X51767619Y68672858D01*
X49314000Y67315620D02*
X49314000Y68315620D01*
X44018761Y68315620D02*
X44209238Y68315620D01*
X44304476Y68268000D01*
X44399714Y68172762D01*
X44447333Y67982286D01*
X44447333Y67648953D01*
X44399714Y67458477D01*
X44304476Y67363239D01*
X44209238Y67315620D01*
X44018761Y67315620D01*
X43923523Y67363239D01*
X43828285Y67458477D01*
X43780666Y67648953D01*
X43780666Y67982286D01*
X43828285Y68172762D01*
X43923523Y68268000D01*
X44018761Y68315620D01*
X77986666Y69577620D02*
X77986666Y68863334D01*
X77939047Y68720477D01*
X77843809Y68625239D01*
X77700952Y68577620D01*
X77605714Y68577620D01*
X78462857Y68577620D02*
X78462857Y69577620D01*
X78843809Y69577620D01*
X78939047Y69530000D01*
X78986666Y69482381D01*
X79034285Y69387143D01*
X79034285Y69244286D01*
X78986666Y69149048D01*
X78939047Y69101429D01*
X78843809Y69053810D01*
X78462857Y69053810D01*
X79367619Y69577620D02*
X79986666Y69577620D01*
X79653333Y69196667D01*
X79796190Y69196667D01*
X79891428Y69149048D01*
X79939047Y69101429D01*
X79986666Y69006191D01*
X79986666Y68768096D01*
X79939047Y68672858D01*
X79891428Y68625239D01*
X79796190Y68577620D01*
X79510476Y68577620D01*
X79415238Y68625239D01*
X79367619Y68672858D01*
X76914000Y67315620D02*
X76914000Y68315620D01*
X71618761Y68315620D02*
X71809238Y68315620D01*
X71904476Y68268000D01*
X71999714Y68172762D01*
X72047333Y67982286D01*
X72047333Y67648953D01*
X71999714Y67458477D01*
X71904476Y67363239D01*
X71809238Y67315620D01*
X71618761Y67315620D01*
X71523523Y67363239D01*
X71428285Y67458477D01*
X71380666Y67648953D01*
X71380666Y67982286D01*
X71428285Y68172762D01*
X71523523Y68268000D01*
X71618761Y68315620D01*
X68946666Y23857620D02*
X68946666Y23143334D01*
X68899047Y23000477D01*
X68803809Y22905239D01*
X68660952Y22857620D01*
X68565714Y22857620D01*
X69422857Y22857620D02*
X69422857Y23857620D01*
X69803809Y23857620D01*
X69899047Y23810000D01*
X69946666Y23762381D01*
X69994285Y23667143D01*
X69994285Y23524286D01*
X69946666Y23429048D01*
X69899047Y23381429D01*
X69803809Y23333810D01*
X69422857Y23333810D01*
X70327619Y23857620D02*
X70946666Y23857620D01*
X70613333Y23476667D01*
X70756190Y23476667D01*
X70851428Y23429048D01*
X70899047Y23381429D01*
X70946666Y23286191D01*
X70946666Y23048096D01*
X70899047Y22952858D01*
X70851428Y22905239D01*
X70756190Y22857620D01*
X70470476Y22857620D01*
X70375238Y22905239D01*
X70327619Y22952858D01*
X71686000Y24119620D02*
X71686000Y25119620D01*
X76790761Y25119620D02*
X76981238Y25119620D01*
X77076476Y25072000D01*
X77171714Y24976762D01*
X77219333Y24786286D01*
X77219333Y24452953D01*
X77171714Y24262477D01*
X77076476Y24167239D01*
X76981238Y24119620D01*
X76790761Y24119620D01*
X76695523Y24167239D01*
X76600285Y24262477D01*
X76552666Y24452953D01*
X76552666Y24786286D01*
X76600285Y24976762D01*
X76695523Y25072000D01*
X76790761Y25119620D01*
X41346666Y23857620D02*
X41346666Y23143334D01*
X41299047Y23000477D01*
X41203809Y22905239D01*
X41060952Y22857620D01*
X40965714Y22857620D01*
X41822857Y22857620D02*
X41822857Y23857620D01*
X42203809Y23857620D01*
X42299047Y23810000D01*
X42346666Y23762381D01*
X42394285Y23667143D01*
X42394285Y23524286D01*
X42346666Y23429048D01*
X42299047Y23381429D01*
X42203809Y23333810D01*
X41822857Y23333810D01*
X42727619Y23857620D02*
X43346666Y23857620D01*
X43013333Y23476667D01*
X43156190Y23476667D01*
X43251428Y23429048D01*
X43299047Y23381429D01*
X43346666Y23286191D01*
X43346666Y23048096D01*
X43299047Y22952858D01*
X43251428Y22905239D01*
X43156190Y22857620D01*
X42870476Y22857620D01*
X42775238Y22905239D01*
X42727619Y22952858D01*
X44086000Y24119620D02*
X44086000Y25119620D01*
X49190761Y25119620D02*
X49381238Y25119620D01*
X49476476Y25072000D01*
X49571714Y24976762D01*
X49619333Y24786286D01*
X49619333Y24452953D01*
X49571714Y24262477D01*
X49476476Y24167239D01*
X49381238Y24119620D01*
X49190761Y24119620D01*
X49095523Y24167239D01*
X49000285Y24262477D01*
X48952666Y24452953D01*
X48952666Y24786286D01*
X49000285Y24976762D01*
X49095523Y25072000D01*
X49190761Y25119620D01*
X22129310Y56167306D02*
X22752217Y55817747D01*
X22853494Y55706308D01*
X22889941Y55576646D01*
X22861556Y55428761D01*
X22814948Y55345707D01*
X22422100Y56494442D02*
X22403877Y56559273D01*
X22408957Y56665631D01*
X22525477Y56873267D01*
X22613612Y56933017D01*
X22678443Y56951240D01*
X22784801Y56946159D01*
X22867855Y56899552D01*
X22969133Y56788113D01*
X23187811Y56010140D01*
X23490762Y56549993D01*
X49729310Y56167306D02*
X50352217Y55817747D01*
X50453494Y55706308D01*
X50489941Y55576646D01*
X50461556Y55428761D01*
X50414948Y55345707D01*
X50022100Y56494442D02*
X50003877Y56559273D01*
X50008957Y56665631D01*
X50125477Y56873267D01*
X50213612Y56933017D01*
X50278443Y56951240D01*
X50384801Y56946159D01*
X50467855Y56899552D01*
X50569133Y56788113D01*
X50787811Y56010140D01*
X51090762Y56549993D01*
X77329310Y56167306D02*
X77952217Y55817747D01*
X78053494Y55706308D01*
X78089941Y55576646D01*
X78061556Y55428761D01*
X78014948Y55345707D01*
X77622100Y56494442D02*
X77603877Y56559273D01*
X77608957Y56665631D01*
X77725477Y56873267D01*
X77813612Y56933017D01*
X77878443Y56951240D01*
X77984801Y56946159D01*
X78067855Y56899552D01*
X78169133Y56788113D01*
X78387811Y56010140D01*
X78690762Y56549993D01*
X69989310Y36127306D02*
X70612217Y35777747D01*
X70713494Y35666308D01*
X70749941Y35536646D01*
X70721556Y35388761D01*
X70674948Y35305707D01*
X70282100Y36454442D02*
X70263877Y36519273D01*
X70268957Y36625631D01*
X70385477Y36833267D01*
X70473612Y36893017D01*
X70538443Y36911240D01*
X70644801Y36906159D01*
X70727855Y36859552D01*
X70829133Y36748113D01*
X71047811Y35970140D01*
X71350762Y36509993D01*
X42389310Y36127306D02*
X43012217Y35777747D01*
X43113494Y35666308D01*
X43149941Y35536646D01*
X43121556Y35388761D01*
X43074948Y35305707D01*
X42682100Y36454442D02*
X42663877Y36519273D01*
X42668957Y36625631D01*
X42785477Y36833267D01*
X42873612Y36893017D01*
X42938443Y36911240D01*
X43044801Y36906159D01*
X43127855Y36859552D01*
X43229133Y36748113D01*
X43447811Y35970140D01*
X43750762Y36509993D01*
X22674619Y66521271D02*
X23297526Y66171712D01*
X23398803Y66060273D01*
X23435249Y65930611D01*
X23406865Y65782726D01*
X23360257Y65699672D01*
X23779728Y66447160D02*
X22907658Y66936542D01*
X23094090Y67268759D01*
X23182225Y67328509D01*
X23247056Y67346733D01*
X23353414Y67341652D01*
X23477995Y67271740D01*
X23537745Y67183605D01*
X23555969Y67118774D01*
X23550888Y67012416D01*
X23364456Y66680199D01*
X24525453Y67776027D02*
X24245806Y67277702D01*
X24385630Y67526865D02*
X23513560Y68016247D01*
X23591534Y67863281D01*
X23627980Y67733619D01*
X23622899Y67627261D01*
X26652901Y67781993D02*
X25780832Y68271376D01*
X23189436Y63653561D02*
X23282652Y63819670D01*
X23370787Y63879420D01*
X23500449Y63915867D01*
X23689861Y63864178D01*
X23980551Y63701050D01*
X24123355Y63566308D01*
X24159802Y63436646D01*
X24154721Y63330287D01*
X24061505Y63164179D01*
X23973370Y63104429D01*
X23843708Y63067982D01*
X23654296Y63119671D01*
X23363606Y63282798D01*
X23220802Y63417541D01*
X23184355Y63547203D01*
X23189436Y63653561D01*
X50274619Y66521271D02*
X50897526Y66171712D01*
X50998803Y66060273D01*
X51035249Y65930611D01*
X51006865Y65782726D01*
X50960257Y65699672D01*
X51379728Y66447160D02*
X50507658Y66936542D01*
X50694090Y67268759D01*
X50782225Y67328509D01*
X50847056Y67346733D01*
X50953414Y67341652D01*
X51077995Y67271740D01*
X51137745Y67183605D01*
X51155969Y67118774D01*
X51150888Y67012416D01*
X50964456Y66680199D01*
X52125453Y67776027D02*
X51845806Y67277702D01*
X51985630Y67526865D02*
X51113560Y68016247D01*
X51191534Y67863281D01*
X51227980Y67733619D01*
X51222899Y67627261D01*
X54252901Y67781993D02*
X53380832Y68271376D01*
X50789436Y63653561D02*
X50882652Y63819670D01*
X50970787Y63879420D01*
X51100449Y63915867D01*
X51289861Y63864178D01*
X51580551Y63701050D01*
X51723355Y63566308D01*
X51759802Y63436646D01*
X51754721Y63330287D01*
X51661505Y63164179D01*
X51573370Y63104429D01*
X51443708Y63067982D01*
X51254296Y63119671D01*
X50963606Y63282798D01*
X50820802Y63417541D01*
X50784355Y63547203D01*
X50789436Y63653561D01*
X77874619Y66521271D02*
X78497526Y66171712D01*
X78598803Y66060273D01*
X78635249Y65930611D01*
X78606865Y65782726D01*
X78560257Y65699672D01*
X78979728Y66447160D02*
X78107658Y66936542D01*
X78294090Y67268759D01*
X78382225Y67328509D01*
X78447056Y67346733D01*
X78553414Y67341652D01*
X78677995Y67271740D01*
X78737745Y67183605D01*
X78755969Y67118774D01*
X78750888Y67012416D01*
X78564456Y66680199D01*
X79725453Y67776027D02*
X79445806Y67277702D01*
X79585630Y67526865D02*
X78713560Y68016247D01*
X78791534Y67863281D01*
X78827980Y67733619D01*
X78822899Y67627261D01*
X81852901Y67781993D02*
X80980832Y68271376D01*
X78389436Y63653561D02*
X78482652Y63819670D01*
X78570787Y63879420D01*
X78700449Y63915867D01*
X78889861Y63864178D01*
X79180551Y63701050D01*
X79323355Y63566308D01*
X79359802Y63436646D01*
X79354721Y63330287D01*
X79261505Y63164179D01*
X79173370Y63104429D01*
X79043708Y63067982D01*
X78854296Y63119671D01*
X78563606Y63282798D01*
X78420802Y63417541D01*
X78384355Y63547203D01*
X78389436Y63653561D01*
X68954619Y24901271D02*
X69577526Y24551712D01*
X69678803Y24440273D01*
X69715249Y24310611D01*
X69686865Y24162726D01*
X69640257Y24079672D01*
X70059728Y24827160D02*
X69187658Y25316542D01*
X69374090Y25648759D01*
X69462225Y25708509D01*
X69527056Y25726733D01*
X69633414Y25721652D01*
X69757995Y25651740D01*
X69817745Y25563605D01*
X69835969Y25498774D01*
X69830888Y25392416D01*
X69644456Y25060199D01*
X70805453Y26156027D02*
X70525806Y25657702D01*
X70665630Y25906865D02*
X69793560Y26396247D01*
X69871534Y26243281D01*
X69907980Y26113619D01*
X69902899Y26007261D01*
X67536113Y24115233D02*
X66664044Y24604616D01*
X69162224Y29056321D02*
X69255440Y29222430D01*
X69343575Y29282180D01*
X69473237Y29318627D01*
X69662649Y29266938D01*
X69953339Y29103810D01*
X70096143Y28969068D01*
X70132590Y28839406D01*
X70127509Y28733047D01*
X70034293Y28566939D01*
X69946158Y28507189D01*
X69816496Y28470742D01*
X69627084Y28522431D01*
X69336394Y28685558D01*
X69193590Y28820301D01*
X69157143Y28949963D01*
X69162224Y29056321D01*
X41354619Y24901271D02*
X41977526Y24551712D01*
X42078803Y24440273D01*
X42115249Y24310611D01*
X42086865Y24162726D01*
X42040257Y24079672D01*
X42459728Y24827160D02*
X41587658Y25316542D01*
X41774090Y25648759D01*
X41862225Y25708509D01*
X41927056Y25726733D01*
X42033414Y25721652D01*
X42157995Y25651740D01*
X42217745Y25563605D01*
X42235969Y25498774D01*
X42230888Y25392416D01*
X42044456Y25060199D01*
X43205453Y26156027D02*
X42925806Y25657702D01*
X43065630Y25906865D02*
X42193560Y26396247D01*
X42271534Y26243281D01*
X42307980Y26113619D01*
X42302899Y26007261D01*
X39936113Y24115233D02*
X39064044Y24604616D01*
X41562224Y29056321D02*
X41655440Y29222430D01*
X41743575Y29282180D01*
X41873237Y29318627D01*
X42062649Y29266938D01*
X42353339Y29103810D01*
X42496143Y28969068D01*
X42532590Y28839406D01*
X42527509Y28733047D01*
X42434293Y28566939D01*
X42346158Y28507189D01*
X42216496Y28470742D01*
X42027084Y28522431D01*
X41736394Y28685558D01*
X41593590Y28820301D01*
X41557143Y28949963D01*
X41562224Y29056321D01*
X28614889Y63383876D02*
X28633112Y63319045D01*
X28604728Y63171160D01*
X28558120Y63088106D01*
X28446681Y62986828D01*
X28317019Y62950382D01*
X28210661Y62955463D01*
X28021248Y63007151D01*
X27896667Y63077063D01*
X27753862Y63211806D01*
X27694112Y63299941D01*
X27657666Y63429603D01*
X27686050Y63577488D01*
X27732658Y63660542D01*
X27844097Y63761820D01*
X27908928Y63780043D01*
X29164022Y64167810D02*
X28884375Y63669485D01*
X29024198Y63918648D02*
X28152129Y64408030D01*
X28230102Y64255064D01*
X28266549Y64125402D01*
X28261468Y64019044D01*
X56214889Y63383876D02*
X56233112Y63319045D01*
X56204728Y63171160D01*
X56158120Y63088106D01*
X56046681Y62986828D01*
X55917019Y62950382D01*
X55810661Y62955463D01*
X55621248Y63007151D01*
X55496667Y63077063D01*
X55353862Y63211806D01*
X55294112Y63299941D01*
X55257666Y63429603D01*
X55286050Y63577488D01*
X55332658Y63660542D01*
X55444097Y63761820D01*
X55508928Y63780043D01*
X56764022Y64167810D02*
X56484375Y63669485D01*
X56624198Y63918648D02*
X55752129Y64408030D01*
X55830102Y64255064D01*
X55866549Y64125402D01*
X55861468Y64019044D01*
X83814889Y63383876D02*
X83833112Y63319045D01*
X83804728Y63171160D01*
X83758120Y63088106D01*
X83646681Y62986828D01*
X83517019Y62950382D01*
X83410661Y62955463D01*
X83221248Y63007151D01*
X83096667Y63077063D01*
X82953862Y63211806D01*
X82894112Y63299941D01*
X82857666Y63429603D01*
X82886050Y63577488D01*
X82932658Y63660542D01*
X83044097Y63761820D01*
X83108928Y63780043D01*
X84364022Y64167810D02*
X84084375Y63669485D01*
X84224198Y63918648D02*
X83352129Y64408030D01*
X83430102Y64255064D01*
X83466549Y64125402D01*
X83461468Y64019044D01*
X65244889Y28315876D02*
X65263112Y28251045D01*
X65234728Y28103160D01*
X65188120Y28020106D01*
X65076681Y27918828D01*
X64947019Y27882382D01*
X64840661Y27887463D01*
X64651248Y27939151D01*
X64526667Y28009063D01*
X64383862Y28143806D01*
X64324112Y28231941D01*
X64287666Y28361603D01*
X64316050Y28509488D01*
X64362658Y28592542D01*
X64474097Y28693820D01*
X64538928Y28712043D01*
X65794022Y29099810D02*
X65514375Y28601485D01*
X65654198Y28850648D02*
X64782129Y29340030D01*
X64860102Y29187064D01*
X64896549Y29057402D01*
X64891468Y28951044D01*
X37644889Y28315876D02*
X37663112Y28251045D01*
X37634728Y28103160D01*
X37588120Y28020106D01*
X37476681Y27918828D01*
X37347019Y27882382D01*
X37240661Y27887463D01*
X37051248Y27939151D01*
X36926667Y28009063D01*
X36783862Y28143806D01*
X36724112Y28231941D01*
X36687666Y28361603D01*
X36716050Y28509488D01*
X36762658Y28592542D01*
X36874097Y28693820D01*
X36938928Y28712043D01*
X38194022Y29099810D02*
X37914375Y28601485D01*
X38054198Y28850648D02*
X37182129Y29340030D01*
X37260102Y29187064D01*
X37296549Y29057402D01*
X37291468Y28951044D01*
X7744434Y69342685D02*
X7121527Y68993127D01*
X6973642Y68964742D01*
X6843980Y69001188D01*
X6732541Y69102466D01*
X6685933Y69185520D01*
X8187208Y68553670D02*
X8093993Y68719779D01*
X8005858Y68779529D01*
X7941027Y68797752D01*
X7769837Y68810895D01*
X7580425Y68759206D01*
X7248208Y68572775D01*
X7188458Y68484640D01*
X7170235Y68419809D01*
X7175316Y68313451D01*
X7268531Y68147342D01*
X7356666Y68087592D01*
X7421497Y68069369D01*
X7527855Y68074449D01*
X7735491Y68190969D01*
X7795241Y68279104D01*
X7813464Y68343935D01*
X7808384Y68450293D01*
X7715168Y68616402D01*
X7627033Y68676152D01*
X7562202Y68694375D01*
X7455844Y68689294D01*
X35344434Y69342685D02*
X34721527Y68993127D01*
X34573642Y68964742D01*
X34443980Y69001188D01*
X34332541Y69102466D01*
X34285933Y69185520D01*
X35787208Y68553670D02*
X35693993Y68719779D01*
X35605858Y68779529D01*
X35541027Y68797752D01*
X35369837Y68810895D01*
X35180425Y68759206D01*
X34848208Y68572775D01*
X34788458Y68484640D01*
X34770235Y68419809D01*
X34775316Y68313451D01*
X34868531Y68147342D01*
X34956666Y68087592D01*
X35021497Y68069369D01*
X35127855Y68074449D01*
X35335491Y68190969D01*
X35395241Y68279104D01*
X35413464Y68343935D01*
X35408384Y68450293D01*
X35315168Y68616402D01*
X35227033Y68676152D01*
X35162202Y68694375D01*
X35055844Y68689294D01*
X62944434Y69342685D02*
X62321527Y68993127D01*
X62173642Y68964742D01*
X62043980Y69001188D01*
X61932541Y69102466D01*
X61885933Y69185520D01*
X63387208Y68553670D02*
X63293993Y68719779D01*
X63205858Y68779529D01*
X63141027Y68797752D01*
X62969837Y68810895D01*
X62780425Y68759206D01*
X62448208Y68572775D01*
X62388458Y68484640D01*
X62370235Y68419809D01*
X62375316Y68313451D01*
X62468531Y68147342D01*
X62556666Y68087592D01*
X62621497Y68069369D01*
X62727855Y68074449D01*
X62935491Y68190969D01*
X62995241Y68279104D01*
X63013464Y68343935D01*
X63008384Y68450293D01*
X62915168Y68616402D01*
X62827033Y68676152D01*
X62762202Y68694375D01*
X62655844Y68689294D01*
X86284434Y24114685D02*
X85661527Y23765127D01*
X85513642Y23736742D01*
X85383980Y23773188D01*
X85272541Y23874466D01*
X85225933Y23957520D01*
X86727208Y23325670D02*
X86633993Y23491779D01*
X86545858Y23551529D01*
X86481027Y23569752D01*
X86309837Y23582895D01*
X86120425Y23531206D01*
X85788208Y23344775D01*
X85728458Y23256640D01*
X85710235Y23191809D01*
X85715316Y23085451D01*
X85808531Y22919342D01*
X85896666Y22859592D01*
X85961497Y22841369D01*
X86067855Y22846449D01*
X86275491Y22962969D01*
X86335241Y23051104D01*
X86353464Y23115935D01*
X86348384Y23222293D01*
X86255168Y23388402D01*
X86167033Y23448152D01*
X86102202Y23466375D01*
X85995844Y23461294D01*
X58684434Y24114685D02*
X58061527Y23765127D01*
X57913642Y23736742D01*
X57783980Y23773188D01*
X57672541Y23874466D01*
X57625933Y23957520D01*
X59127208Y23325670D02*
X59033993Y23491779D01*
X58945858Y23551529D01*
X58881027Y23569752D01*
X58709837Y23582895D01*
X58520425Y23531206D01*
X58188208Y23344775D01*
X58128458Y23256640D01*
X58110235Y23191809D01*
X58115316Y23085451D01*
X58208531Y22919342D01*
X58296666Y22859592D01*
X58361497Y22841369D01*
X58467855Y22846449D01*
X58675491Y22962969D01*
X58735241Y23051104D01*
X58753464Y23115935D01*
X58748384Y23222293D01*
X58655168Y23388402D01*
X58567033Y23448152D01*
X58502202Y23466375D01*
X58395844Y23461294D01*
X28760310Y69015306D02*
X29383217Y68665747D01*
X29484494Y68554308D01*
X29520941Y68424646D01*
X29492556Y68276761D01*
X29445948Y68193707D01*
X30121762Y69397993D02*
X29842115Y68899667D01*
X29981938Y69148830D02*
X29109869Y69638213D01*
X29187843Y69485247D01*
X29224289Y69355584D01*
X29219208Y69249226D01*
X56360310Y69015306D02*
X56983217Y68665747D01*
X57084494Y68554308D01*
X57120941Y68424646D01*
X57092556Y68276761D01*
X57045948Y68193707D01*
X57721762Y69397993D02*
X57442115Y68899667D01*
X57581938Y69148830D02*
X56709869Y69638213D01*
X56787843Y69485247D01*
X56824289Y69355584D01*
X56819208Y69249226D01*
X83960310Y69015306D02*
X84583217Y68665747D01*
X84684494Y68554308D01*
X84720941Y68424646D01*
X84692556Y68276761D01*
X84645948Y68193707D01*
X85321762Y69397993D02*
X85042115Y68899667D01*
X85181938Y69148830D02*
X84309869Y69638213D01*
X84387843Y69485247D01*
X84424289Y69355584D01*
X84419208Y69249226D01*
X63358310Y23279306D02*
X63981217Y22929747D01*
X64082494Y22818308D01*
X64118941Y22688646D01*
X64090556Y22540761D01*
X64043948Y22457707D01*
X64719762Y23661993D02*
X64440115Y23163667D01*
X64579938Y23412830D02*
X63707869Y23902213D01*
X63785843Y23749247D01*
X63822289Y23619584D01*
X63817208Y23513226D01*
X35758310Y23279306D02*
X36381217Y22929747D01*
X36482494Y22818308D01*
X36518941Y22688646D01*
X36490556Y22540761D01*
X36443948Y22457707D01*
X37119762Y23661993D02*
X36840115Y23163667D01*
X36979938Y23412830D02*
X36107869Y23902213D01*
X36185843Y23749247D01*
X36222289Y23619584D01*
X36217208Y23513226D01*
X14335666Y70347620D02*
X14335666Y69633334D01*
X14288047Y69490477D01*
X14192809Y69395239D01*
X14049952Y69347620D01*
X13954714Y69347620D01*
X14954714Y69919048D02*
X14859476Y69966667D01*
X14811857Y70014286D01*
X14764238Y70109524D01*
X14764238Y70157143D01*
X14811857Y70252381D01*
X14859476Y70300000D01*
X14954714Y70347620D01*
X15145190Y70347620D01*
X15240428Y70300000D01*
X15288047Y70252381D01*
X15335666Y70157143D01*
X15335666Y70109524D01*
X15288047Y70014286D01*
X15240428Y69966667D01*
X15145190Y69919048D01*
X14954714Y69919048D01*
X14859476Y69871429D01*
X14811857Y69823810D01*
X14764238Y69728572D01*
X14764238Y69538096D01*
X14811857Y69442858D01*
X14859476Y69395239D01*
X14954714Y69347620D01*
X15145190Y69347620D01*
X15240428Y69395239D01*
X15288047Y69442858D01*
X15335666Y69538096D01*
X15335666Y69728572D01*
X15288047Y69823810D01*
X15240428Y69871429D01*
X15145190Y69919048D01*
X41935666Y70347620D02*
X41935666Y69633334D01*
X41888047Y69490477D01*
X41792809Y69395239D01*
X41649952Y69347620D01*
X41554714Y69347620D01*
X42554714Y69919048D02*
X42459476Y69966667D01*
X42411857Y70014286D01*
X42364238Y70109524D01*
X42364238Y70157143D01*
X42411857Y70252381D01*
X42459476Y70300000D01*
X42554714Y70347620D01*
X42745190Y70347620D01*
X42840428Y70300000D01*
X42888047Y70252381D01*
X42935666Y70157143D01*
X42935666Y70109524D01*
X42888047Y70014286D01*
X42840428Y69966667D01*
X42745190Y69919048D01*
X42554714Y69919048D01*
X42459476Y69871429D01*
X42411857Y69823810D01*
X42364238Y69728572D01*
X42364238Y69538096D01*
X42411857Y69442858D01*
X42459476Y69395239D01*
X42554714Y69347620D01*
X42745190Y69347620D01*
X42840428Y69395239D01*
X42888047Y69442858D01*
X42935666Y69538096D01*
X42935666Y69728572D01*
X42888047Y69823810D01*
X42840428Y69871429D01*
X42745190Y69919048D01*
X69535666Y70347620D02*
X69535666Y69633334D01*
X69488047Y69490477D01*
X69392809Y69395239D01*
X69249952Y69347620D01*
X69154714Y69347620D01*
X70154714Y69919048D02*
X70059476Y69966667D01*
X70011857Y70014286D01*
X69964238Y70109524D01*
X69964238Y70157143D01*
X70011857Y70252381D01*
X70059476Y70300000D01*
X70154714Y70347620D01*
X70345190Y70347620D01*
X70440428Y70300000D01*
X70488047Y70252381D01*
X70535666Y70157143D01*
X70535666Y70109524D01*
X70488047Y70014286D01*
X70440428Y69966667D01*
X70345190Y69919048D01*
X70154714Y69919048D01*
X70059476Y69871429D01*
X70011857Y69823810D01*
X69964238Y69728572D01*
X69964238Y69538096D01*
X70011857Y69442858D01*
X70059476Y69395239D01*
X70154714Y69347620D01*
X70345190Y69347620D01*
X70440428Y69395239D01*
X70488047Y69442858D01*
X70535666Y69538096D01*
X70535666Y69728572D01*
X70488047Y69823810D01*
X70440428Y69871429D01*
X70345190Y69919048D01*
X78397666Y23087620D02*
X78397666Y22373334D01*
X78350047Y22230477D01*
X78254809Y22135239D01*
X78111952Y22087620D01*
X78016714Y22087620D01*
X79016714Y22659048D02*
X78921476Y22706667D01*
X78873857Y22754286D01*
X78826238Y22849524D01*
X78826238Y22897143D01*
X78873857Y22992381D01*
X78921476Y23040000D01*
X79016714Y23087620D01*
X79207190Y23087620D01*
X79302428Y23040000D01*
X79350047Y22992381D01*
X79397666Y22897143D01*
X79397666Y22849524D01*
X79350047Y22754286D01*
X79302428Y22706667D01*
X79207190Y22659048D01*
X79016714Y22659048D01*
X78921476Y22611429D01*
X78873857Y22563810D01*
X78826238Y22468572D01*
X78826238Y22278096D01*
X78873857Y22182858D01*
X78921476Y22135239D01*
X79016714Y22087620D01*
X79207190Y22087620D01*
X79302428Y22135239D01*
X79350047Y22182858D01*
X79397666Y22278096D01*
X79397666Y22468572D01*
X79350047Y22563810D01*
X79302428Y22611429D01*
X79207190Y22659048D01*
X50797666Y23087620D02*
X50797666Y22373334D01*
X50750047Y22230477D01*
X50654809Y22135239D01*
X50511952Y22087620D01*
X50416714Y22087620D01*
X51416714Y22659048D02*
X51321476Y22706667D01*
X51273857Y22754286D01*
X51226238Y22849524D01*
X51226238Y22897143D01*
X51273857Y22992381D01*
X51321476Y23040000D01*
X51416714Y23087620D01*
X51607190Y23087620D01*
X51702428Y23040000D01*
X51750047Y22992381D01*
X51797666Y22897143D01*
X51797666Y22849524D01*
X51750047Y22754286D01*
X51702428Y22706667D01*
X51607190Y22659048D01*
X51416714Y22659048D01*
X51321476Y22611429D01*
X51273857Y22563810D01*
X51226238Y22468572D01*
X51226238Y22278096D01*
X51273857Y22182858D01*
X51321476Y22135239D01*
X51416714Y22087620D01*
X51607190Y22087620D01*
X51702428Y22135239D01*
X51750047Y22182858D01*
X51797666Y22278096D01*
X51797666Y22468572D01*
X51750047Y22563810D01*
X51702428Y22611429D01*
X51607190Y22659048D01*
X22156310Y54410306D02*
X22779217Y54060747D01*
X22880494Y53949308D01*
X22916941Y53819646D01*
X22888556Y53671761D01*
X22841948Y53588707D01*
X22342742Y54742523D02*
X22645693Y55282375D01*
X22814782Y54805254D01*
X22884694Y54929835D01*
X22972829Y54989586D01*
X23037660Y55007809D01*
X23144018Y55002728D01*
X23351654Y54886208D01*
X23411404Y54798073D01*
X23429627Y54733242D01*
X23424546Y54626884D01*
X23284723Y54377722D01*
X23196588Y54317971D01*
X23131757Y54299748D01*
X49756310Y54410306D02*
X50379217Y54060747D01*
X50480494Y53949308D01*
X50516941Y53819646D01*
X50488556Y53671761D01*
X50441948Y53588707D01*
X49942742Y54742523D02*
X50245693Y55282375D01*
X50414782Y54805254D01*
X50484694Y54929835D01*
X50572829Y54989586D01*
X50637660Y55007809D01*
X50744018Y55002728D01*
X50951654Y54886208D01*
X51011404Y54798073D01*
X51029627Y54733242D01*
X51024546Y54626884D01*
X50884723Y54377722D01*
X50796588Y54317971D01*
X50731757Y54299748D01*
X77356310Y54410306D02*
X77979217Y54060747D01*
X78080494Y53949308D01*
X78116941Y53819646D01*
X78088556Y53671761D01*
X78041948Y53588707D01*
X77542742Y54742523D02*
X77845693Y55282375D01*
X78014782Y54805254D01*
X78084694Y54929835D01*
X78172829Y54989586D01*
X78237660Y55007809D01*
X78344018Y55002728D01*
X78551654Y54886208D01*
X78611404Y54798073D01*
X78629627Y54733242D01*
X78624546Y54626884D01*
X78484723Y54377722D01*
X78396588Y54317971D01*
X78331757Y54299748D01*
X69962310Y37884306D02*
X70585217Y37534747D01*
X70686494Y37423308D01*
X70722941Y37293646D01*
X70694556Y37145761D01*
X70647948Y37062707D01*
X70148742Y38216523D02*
X70451693Y38756375D01*
X70620782Y38279254D01*
X70690694Y38403835D01*
X70778829Y38463586D01*
X70843660Y38481809D01*
X70950018Y38476728D01*
X71157654Y38360208D01*
X71217404Y38272073D01*
X71235627Y38207242D01*
X71230546Y38100884D01*
X71090723Y37851722D01*
X71002588Y37791971D01*
X70937757Y37773748D01*
X42362310Y37884306D02*
X42985217Y37534747D01*
X43086494Y37423308D01*
X43122941Y37293646D01*
X43094556Y37145761D01*
X43047948Y37062707D01*
X42548742Y38216523D02*
X42851693Y38756375D01*
X43020782Y38279254D01*
X43090694Y38403835D01*
X43178829Y38463586D01*
X43243660Y38481809D01*
X43350018Y38476728D01*
X43557654Y38360208D01*
X43617404Y38272073D01*
X43635627Y38207242D01*
X43630546Y38100884D01*
X43490723Y37851722D01*
X43402588Y37791971D01*
X43337757Y37773748D01*
X15491434Y55118686D02*
X14868527Y54769128D01*
X14720642Y54740743D01*
X14590980Y54777189D01*
X14479541Y54878467D01*
X14432933Y54961521D01*
X15643519Y54166544D02*
X15062139Y53840289D01*
X15859216Y54560611D02*
X15119790Y54418687D01*
X15422741Y53878835D01*
X43091434Y55118686D02*
X42468527Y54769128D01*
X42320642Y54740743D01*
X42190980Y54777189D01*
X42079541Y54878467D01*
X42032933Y54961521D01*
X43243519Y54166544D02*
X42662139Y53840289D01*
X43459216Y54560611D02*
X42719790Y54418687D01*
X43022741Y53878835D01*
X70691434Y55118686D02*
X70068527Y54769128D01*
X69920642Y54740743D01*
X69790980Y54777189D01*
X69679541Y54878467D01*
X69632933Y54961521D01*
X70843519Y54166544D02*
X70262139Y53840289D01*
X71059216Y54560611D02*
X70319790Y54418687D01*
X70622741Y53878835D01*
X78537434Y38338684D02*
X77914527Y37989126D01*
X77766642Y37960741D01*
X77636980Y37997187D01*
X77525541Y38098465D01*
X77478933Y38181519D01*
X78689519Y37386542D02*
X78108139Y37060287D01*
X78905216Y37780609D02*
X78165790Y37638685D01*
X78468741Y37098833D01*
X50937434Y38338684D02*
X50314527Y37989126D01*
X50166642Y37960741D01*
X50036980Y37997187D01*
X49925541Y38098465D01*
X49878933Y38181519D01*
X51089519Y37386542D02*
X50508139Y37060287D01*
X51305216Y37780609D02*
X50565790Y37638685D01*
X50868741Y37098833D01*
X13065666Y71744620D02*
X13065666Y71030334D01*
X13018047Y70887477D01*
X12922809Y70792239D01*
X12779952Y70744620D01*
X12684714Y70744620D01*
X13446619Y71744620D02*
X14113285Y71744620D01*
X13684714Y70744620D01*
X40665666Y71744620D02*
X40665666Y71030334D01*
X40618047Y70887477D01*
X40522809Y70792239D01*
X40379952Y70744620D01*
X40284714Y70744620D01*
X41046619Y71744620D02*
X41713285Y71744620D01*
X41284714Y70744620D01*
X68265666Y71744620D02*
X68265666Y71030334D01*
X68218047Y70887477D01*
X68122809Y70792239D01*
X67979952Y70744620D01*
X67884714Y70744620D01*
X68646619Y71744620D02*
X69313285Y71744620D01*
X68884714Y70744620D01*
X79667666Y21690620D02*
X79667666Y20976334D01*
X79620047Y20833477D01*
X79524809Y20738239D01*
X79381952Y20690620D01*
X79286714Y20690620D01*
X80048619Y21690620D02*
X80715285Y21690620D01*
X80286714Y20690620D01*
X52067666Y21690620D02*
X52067666Y20976334D01*
X52020047Y20833477D01*
X51924809Y20738239D01*
X51781952Y20690620D01*
X51686714Y20690620D01*
X52448619Y21690620D02*
X53115285Y21690620D01*
X52686714Y20690620D01*
X29067666Y71617620D02*
X29067666Y70903334D01*
X29020047Y70760477D01*
X28924809Y70665239D01*
X28781952Y70617620D01*
X28686714Y70617620D01*
X29591476Y70617620D02*
X29781952Y70617620D01*
X29877190Y70665239D01*
X29924809Y70712858D01*
X30020047Y70855715D01*
X30067666Y71046191D01*
X30067666Y71427143D01*
X30020047Y71522381D01*
X29972428Y71570000D01*
X29877190Y71617620D01*
X29686714Y71617620D01*
X29591476Y71570000D01*
X29543857Y71522381D01*
X29496238Y71427143D01*
X29496238Y71189048D01*
X29543857Y71093810D01*
X29591476Y71046191D01*
X29686714Y70998572D01*
X29877190Y70998572D01*
X29972428Y71046191D01*
X30020047Y71093810D01*
X30067666Y71189048D01*
X56667666Y71617620D02*
X56667666Y70903334D01*
X56620047Y70760477D01*
X56524809Y70665239D01*
X56381952Y70617620D01*
X56286714Y70617620D01*
X57191476Y70617620D02*
X57381952Y70617620D01*
X57477190Y70665239D01*
X57524809Y70712858D01*
X57620047Y70855715D01*
X57667666Y71046191D01*
X57667666Y71427143D01*
X57620047Y71522381D01*
X57572428Y71570000D01*
X57477190Y71617620D01*
X57286714Y71617620D01*
X57191476Y71570000D01*
X57143857Y71522381D01*
X57096238Y71427143D01*
X57096238Y71189048D01*
X57143857Y71093810D01*
X57191476Y71046191D01*
X57286714Y70998572D01*
X57477190Y70998572D01*
X57572428Y71046191D01*
X57620047Y71093810D01*
X57667666Y71189048D01*
X84267666Y71617620D02*
X84267666Y70903334D01*
X84220047Y70760477D01*
X84124809Y70665239D01*
X83981952Y70617620D01*
X83886714Y70617620D01*
X84791476Y70617620D02*
X84981952Y70617620D01*
X85077190Y70665239D01*
X85124809Y70712858D01*
X85220047Y70855715D01*
X85267666Y71046191D01*
X85267666Y71427143D01*
X85220047Y71522381D01*
X85172428Y71570000D01*
X85077190Y71617620D01*
X84886714Y71617620D01*
X84791476Y71570000D01*
X84743857Y71522381D01*
X84696238Y71427143D01*
X84696238Y71189048D01*
X84743857Y71093810D01*
X84791476Y71046191D01*
X84886714Y70998572D01*
X85077190Y70998572D01*
X85172428Y71046191D01*
X85220047Y71093810D01*
X85267666Y71189048D01*
X63665666Y21817620D02*
X63665666Y21103334D01*
X63618047Y20960477D01*
X63522809Y20865239D01*
X63379952Y20817620D01*
X63284714Y20817620D01*
X64189476Y20817620D02*
X64379952Y20817620D01*
X64475190Y20865239D01*
X64522809Y20912858D01*
X64618047Y21055715D01*
X64665666Y21246191D01*
X64665666Y21627143D01*
X64618047Y21722381D01*
X64570428Y21770000D01*
X64475190Y21817620D01*
X64284714Y21817620D01*
X64189476Y21770000D01*
X64141857Y21722381D01*
X64094238Y21627143D01*
X64094238Y21389048D01*
X64141857Y21293810D01*
X64189476Y21246191D01*
X64284714Y21198572D01*
X64475190Y21198572D01*
X64570428Y21246191D01*
X64618047Y21293810D01*
X64665666Y21389048D01*
X36065666Y21817620D02*
X36065666Y21103334D01*
X36018047Y20960477D01*
X35922809Y20865239D01*
X35779952Y20817620D01*
X35684714Y20817620D01*
X36589476Y20817620D02*
X36779952Y20817620D01*
X36875190Y20865239D01*
X36922809Y20912858D01*
X37018047Y21055715D01*
X37065666Y21246191D01*
X37065666Y21627143D01*
X37018047Y21722381D01*
X36970428Y21770000D01*
X36875190Y21817620D01*
X36684714Y21817620D01*
X36589476Y21770000D01*
X36541857Y21722381D01*
X36494238Y21627143D01*
X36494238Y21389048D01*
X36541857Y21293810D01*
X36589476Y21246191D01*
X36684714Y21198572D01*
X36875190Y21198572D01*
X36970428Y21246191D01*
X37018047Y21293810D01*
X37065666Y21389048D01*
X22693904Y61937620D02*
X22693904Y62937620D01*
X22932000Y62937620D01*
X23074857Y62890000D01*
X23170095Y62794762D01*
X23217714Y62699524D01*
X23265333Y62509048D01*
X23265333Y62366191D01*
X23217714Y62175715D01*
X23170095Y62080477D01*
X23074857Y61985239D01*
X22932000Y61937620D01*
X22693904Y61937620D01*
X24217714Y61937620D02*
X23646285Y61937620D01*
X23932000Y61937620D02*
X23932000Y62937620D01*
X23836761Y62794762D01*
X23741523Y62699524D01*
X23646285Y62651905D01*
X21685714Y59695620D02*
X21114285Y59695620D01*
X21400000Y59695620D02*
X21400000Y60695620D01*
X21304761Y60552762D01*
X21209523Y60457524D01*
X21114285Y60409905D01*
X50293904Y61937620D02*
X50293904Y62937620D01*
X50532000Y62937620D01*
X50674857Y62890000D01*
X50770095Y62794762D01*
X50817714Y62699524D01*
X50865333Y62509048D01*
X50865333Y62366191D01*
X50817714Y62175715D01*
X50770095Y62080477D01*
X50674857Y61985239D01*
X50532000Y61937620D01*
X50293904Y61937620D01*
X51817714Y61937620D02*
X51246285Y61937620D01*
X51532000Y61937620D02*
X51532000Y62937620D01*
X51436761Y62794762D01*
X51341523Y62699524D01*
X51246285Y62651905D01*
X49285714Y59695620D02*
X48714285Y59695620D01*
X49000000Y59695620D02*
X49000000Y60695620D01*
X48904761Y60552762D01*
X48809523Y60457524D01*
X48714285Y60409905D01*
X77893904Y61937620D02*
X77893904Y62937620D01*
X78132000Y62937620D01*
X78274857Y62890000D01*
X78370095Y62794762D01*
X78417714Y62699524D01*
X78465333Y62509048D01*
X78465333Y62366191D01*
X78417714Y62175715D01*
X78370095Y62080477D01*
X78274857Y61985239D01*
X78132000Y61937620D01*
X77893904Y61937620D01*
X79417714Y61937620D02*
X78846285Y61937620D01*
X79132000Y61937620D02*
X79132000Y62937620D01*
X79036761Y62794762D01*
X78941523Y62699524D01*
X78846285Y62651905D01*
X76885714Y59695620D02*
X76314285Y59695620D01*
X76600000Y59695620D02*
X76600000Y60695620D01*
X76504761Y60552762D01*
X76409523Y60457524D01*
X76314285Y60409905D01*
X69229904Y29497620D02*
X69229904Y30497620D01*
X69468000Y30497620D01*
X69610857Y30450000D01*
X69706095Y30354762D01*
X69753714Y30259524D01*
X69801333Y30069048D01*
X69801333Y29926191D01*
X69753714Y29735715D01*
X69706095Y29640477D01*
X69610857Y29545239D01*
X69468000Y29497620D01*
X69229904Y29497620D01*
X70753714Y29497620D02*
X70182285Y29497620D01*
X70468000Y29497620D02*
X70468000Y30497620D01*
X70372761Y30354762D01*
X70277523Y30259524D01*
X70182285Y30211905D01*
X72285714Y31739620D02*
X71714285Y31739620D01*
X72000000Y31739620D02*
X72000000Y32739620D01*
X71904761Y32596762D01*
X71809523Y32501524D01*
X71714285Y32453905D01*
X41629904Y29497620D02*
X41629904Y30497620D01*
X41868000Y30497620D01*
X42010857Y30450000D01*
X42106095Y30354762D01*
X42153714Y30259524D01*
X42201333Y30069048D01*
X42201333Y29926191D01*
X42153714Y29735715D01*
X42106095Y29640477D01*
X42010857Y29545239D01*
X41868000Y29497620D01*
X41629904Y29497620D01*
X43153714Y29497620D02*
X42582285Y29497620D01*
X42868000Y29497620D02*
X42868000Y30497620D01*
X42772761Y30354762D01*
X42677523Y30259524D01*
X42582285Y30211905D01*
X44685714Y31739620D02*
X44114285Y31739620D01*
X44400000Y31739620D02*
X44400000Y32739620D01*
X44304761Y32596762D01*
X44209523Y32501524D01*
X44114285Y32453905D01*
X11817743Y65714720D02*
X11194836Y65365161D01*
X11046951Y65336776D01*
X10917289Y65373223D01*
X10805850Y65474500D01*
X10759242Y65557554D01*
X11178713Y64810067D02*
X12050782Y65299449D01*
X12237213Y64967232D01*
X12242294Y64860874D01*
X12224071Y64796043D01*
X12164320Y64707908D01*
X12039739Y64637996D01*
X11933381Y64632915D01*
X11868550Y64651139D01*
X11780415Y64710889D01*
X11593984Y65043106D01*
X12433806Y64422299D02*
X12498637Y64404076D01*
X12586772Y64344325D01*
X12703292Y64136690D01*
X12708372Y64030332D01*
X12690149Y63965501D01*
X12630399Y63877366D01*
X12547345Y63830758D01*
X12399460Y63802373D01*
X11621487Y64021051D01*
X11924438Y63481199D01*
X12580953Y68411050D02*
X12674169Y68244941D01*
X12679250Y68138583D01*
X12642803Y68008921D01*
X12499999Y67874178D01*
X12209309Y67711051D01*
X12019897Y67659362D01*
X11890235Y67695809D01*
X11802100Y67755559D01*
X11708884Y67921667D01*
X11703803Y68028026D01*
X11740250Y68157688D01*
X11883054Y68292430D01*
X12173744Y68455558D01*
X12363156Y68507247D01*
X12492818Y68470800D01*
X12580953Y68411050D01*
X14403886Y63120233D02*
X15275955Y63609616D01*
X39417743Y65714720D02*
X38794836Y65365161D01*
X38646951Y65336776D01*
X38517289Y65373223D01*
X38405850Y65474500D01*
X38359242Y65557554D01*
X38778713Y64810067D02*
X39650782Y65299449D01*
X39837213Y64967232D01*
X39842294Y64860874D01*
X39824071Y64796043D01*
X39764320Y64707908D01*
X39639739Y64637996D01*
X39533381Y64632915D01*
X39468550Y64651139D01*
X39380415Y64710889D01*
X39193984Y65043106D01*
X40033806Y64422299D02*
X40098637Y64404076D01*
X40186772Y64344325D01*
X40303292Y64136690D01*
X40308372Y64030332D01*
X40290149Y63965501D01*
X40230399Y63877366D01*
X40147345Y63830758D01*
X39999460Y63802373D01*
X39221487Y64021051D01*
X39524438Y63481199D01*
X40180953Y68411050D02*
X40274169Y68244941D01*
X40279250Y68138583D01*
X40242803Y68008921D01*
X40099999Y67874178D01*
X39809309Y67711051D01*
X39619897Y67659362D01*
X39490235Y67695809D01*
X39402100Y67755559D01*
X39308884Y67921667D01*
X39303803Y68028026D01*
X39340250Y68157688D01*
X39483054Y68292430D01*
X39773744Y68455558D01*
X39963156Y68507247D01*
X40092818Y68470800D01*
X40180953Y68411050D01*
X42003886Y63120233D02*
X42875955Y63609616D01*
X67017743Y65714720D02*
X66394836Y65365161D01*
X66246951Y65336776D01*
X66117289Y65373223D01*
X66005850Y65474500D01*
X65959242Y65557554D01*
X66378713Y64810067D02*
X67250782Y65299449D01*
X67437213Y64967232D01*
X67442294Y64860874D01*
X67424071Y64796043D01*
X67364320Y64707908D01*
X67239739Y64637996D01*
X67133381Y64632915D01*
X67068550Y64651139D01*
X66980415Y64710889D01*
X66793984Y65043106D01*
X67633806Y64422299D02*
X67698637Y64404076D01*
X67786772Y64344325D01*
X67903292Y64136690D01*
X67908372Y64030332D01*
X67890149Y63965501D01*
X67830399Y63877366D01*
X67747345Y63830758D01*
X67599460Y63802373D01*
X66821487Y64021051D01*
X67124438Y63481199D01*
X67780953Y68411050D02*
X67874169Y68244941D01*
X67879250Y68138583D01*
X67842803Y68008921D01*
X67699999Y67874178D01*
X67409309Y67711051D01*
X67219897Y67659362D01*
X67090235Y67695809D01*
X67002100Y67755559D01*
X66908884Y67921667D01*
X66903803Y68028026D01*
X66940250Y68157688D01*
X67083054Y68292430D01*
X67373744Y68455558D01*
X67563156Y68507247D01*
X67692818Y68470800D01*
X67780953Y68411050D01*
X69603886Y63120233D02*
X70475955Y63609616D01*
X81721743Y28614720D02*
X81098836Y28265161D01*
X80950951Y28236776D01*
X80821289Y28273223D01*
X80709850Y28374500D01*
X80663242Y28457554D01*
X81082713Y27710067D02*
X81954782Y28199449D01*
X82141213Y27867232D01*
X82146294Y27760874D01*
X82128071Y27696043D01*
X82068320Y27607908D01*
X81943739Y27537996D01*
X81837381Y27532915D01*
X81772550Y27551139D01*
X81684415Y27610889D01*
X81497984Y27943106D01*
X82337806Y27322299D02*
X82402637Y27304076D01*
X82490772Y27244325D01*
X82607292Y27036690D01*
X82612372Y26930332D01*
X82594149Y26865501D01*
X82534399Y26777366D01*
X82451345Y26730758D01*
X82303460Y26702373D01*
X81525487Y26921051D01*
X81828438Y26381199D01*
X81680953Y24631050D02*
X81774169Y24464941D01*
X81779250Y24358583D01*
X81742803Y24228921D01*
X81599999Y24094178D01*
X81309309Y23931051D01*
X81119897Y23879362D01*
X80990235Y23915809D01*
X80902100Y23975559D01*
X80808884Y24141667D01*
X80803803Y24248026D01*
X80840250Y24377688D01*
X80983054Y24512430D01*
X81273744Y24675558D01*
X81463156Y24727247D01*
X81592818Y24690800D01*
X81680953Y24631050D01*
X78207098Y28776993D02*
X79079167Y29266376D01*
X54121743Y28614720D02*
X53498836Y28265161D01*
X53350951Y28236776D01*
X53221289Y28273223D01*
X53109850Y28374500D01*
X53063242Y28457554D01*
X53482713Y27710067D02*
X54354782Y28199449D01*
X54541213Y27867232D01*
X54546294Y27760874D01*
X54528071Y27696043D01*
X54468320Y27607908D01*
X54343739Y27537996D01*
X54237381Y27532915D01*
X54172550Y27551139D01*
X54084415Y27610889D01*
X53897984Y27943106D01*
X54737806Y27322299D02*
X54802637Y27304076D01*
X54890772Y27244325D01*
X55007292Y27036690D01*
X55012372Y26930332D01*
X54994149Y26865501D01*
X54934399Y26777366D01*
X54851345Y26730758D01*
X54703460Y26702373D01*
X53925487Y26921051D01*
X54228438Y26381199D01*
X54080953Y24631050D02*
X54174169Y24464941D01*
X54179250Y24358583D01*
X54142803Y24228921D01*
X53999999Y24094178D01*
X53709309Y23931051D01*
X53519897Y23879362D01*
X53390235Y23915809D01*
X53302100Y23975559D01*
X53208884Y24141667D01*
X53203803Y24248026D01*
X53240250Y24377688D01*
X53383054Y24512430D01*
X53673744Y24675558D01*
X53863156Y24727247D01*
X53992818Y24690800D01*
X54080953Y24631050D01*
X50607098Y28776993D02*
X51479167Y29266376D01*
X10665434Y64008685D02*
X10042527Y63659127D01*
X9894642Y63630742D01*
X9764980Y63667188D01*
X9653541Y63768466D01*
X9606933Y63851520D01*
X11131512Y63178143D02*
X10898473Y63593414D01*
X10459898Y63401902D01*
X10524729Y63383679D01*
X10612864Y63323929D01*
X10729384Y63116293D01*
X10734464Y63009935D01*
X10716241Y62945104D01*
X10656491Y62856969D01*
X10448855Y62740449D01*
X10342497Y62735369D01*
X10277666Y62753592D01*
X10189531Y62813342D01*
X10073012Y63020978D01*
X10067931Y63127336D01*
X10086154Y63192167D01*
X38265434Y64008685D02*
X37642527Y63659127D01*
X37494642Y63630742D01*
X37364980Y63667188D01*
X37253541Y63768466D01*
X37206933Y63851520D01*
X38731512Y63178143D02*
X38498473Y63593414D01*
X38059898Y63401902D01*
X38124729Y63383679D01*
X38212864Y63323929D01*
X38329384Y63116293D01*
X38334464Y63009935D01*
X38316241Y62945104D01*
X38256491Y62856969D01*
X38048855Y62740449D01*
X37942497Y62735369D01*
X37877666Y62753592D01*
X37789531Y62813342D01*
X37673012Y63020978D01*
X37667931Y63127336D01*
X37686154Y63192167D01*
X65865434Y64008685D02*
X65242527Y63659127D01*
X65094642Y63630742D01*
X64964980Y63667188D01*
X64853541Y63768466D01*
X64806933Y63851520D01*
X66331512Y63178143D02*
X66098473Y63593414D01*
X65659898Y63401902D01*
X65724729Y63383679D01*
X65812864Y63323929D01*
X65929384Y63116293D01*
X65934464Y63009935D01*
X65916241Y62945104D01*
X65856491Y62856969D01*
X65648855Y62740449D01*
X65542497Y62735369D01*
X65477666Y62753592D01*
X65389531Y62813342D01*
X65273012Y63020978D01*
X65267931Y63127336D01*
X65286154Y63192167D01*
X83363434Y29448685D02*
X82740527Y29099127D01*
X82592642Y29070742D01*
X82462980Y29107188D01*
X82351541Y29208466D01*
X82304933Y29291520D01*
X83829512Y28618143D02*
X83596473Y29033414D01*
X83157898Y28841902D01*
X83222729Y28823679D01*
X83310864Y28763929D01*
X83427384Y28556293D01*
X83432464Y28449935D01*
X83414241Y28385104D01*
X83354491Y28296969D01*
X83146855Y28180449D01*
X83040497Y28175369D01*
X82975666Y28193592D01*
X82887531Y28253342D01*
X82771012Y28460978D01*
X82765931Y28567336D01*
X82784154Y28632167D01*
X55763434Y29448685D02*
X55140527Y29099127D01*
X54992642Y29070742D01*
X54862980Y29107188D01*
X54751541Y29208466D01*
X54704933Y29291520D01*
X56229512Y28618143D02*
X55996473Y29033414D01*
X55557898Y28841902D01*
X55622729Y28823679D01*
X55710864Y28763929D01*
X55827384Y28556293D01*
X55832464Y28449935D01*
X55814241Y28385104D01*
X55754491Y28296969D01*
X55546855Y28180449D01*
X55440497Y28175369D01*
X55375666Y28193592D01*
X55287531Y28253342D01*
X55171012Y28460978D01*
X55165931Y28567336D01*
X55184154Y28632167D01*
X10044889Y28315876D02*
X10063112Y28251045D01*
X10034728Y28103160D01*
X9988120Y28020106D01*
X9876681Y27918828D01*
X9747019Y27882382D01*
X9640661Y27887463D01*
X9451248Y27939151D01*
X9326667Y28009063D01*
X9183862Y28143806D01*
X9124112Y28231941D01*
X9087666Y28361603D01*
X9116050Y28509488D01*
X9162658Y28592542D01*
X9274097Y28693820D01*
X9338928Y28712043D01*
X10594022Y29099810D02*
X10314375Y28601485D01*
X10454198Y28850648D02*
X9582129Y29340030D01*
X9660102Y29187064D01*
X9696549Y29057402D01*
X9691468Y28951044D01*
X14029904Y29497620D02*
X14029904Y30497620D01*
X14268000Y30497620D01*
X14410857Y30450000D01*
X14506095Y30354762D01*
X14553714Y30259524D01*
X14601333Y30069048D01*
X14601333Y29926191D01*
X14553714Y29735715D01*
X14506095Y29640477D01*
X14410857Y29545239D01*
X14268000Y29497620D01*
X14029904Y29497620D01*
X15553714Y29497620D02*
X14982285Y29497620D01*
X15268000Y29497620D02*
X15268000Y30497620D01*
X15172761Y30354762D01*
X15077523Y30259524D01*
X14982285Y30211905D01*
X17085714Y31739620D02*
X16514285Y31739620D01*
X16800000Y31739620D02*
X16800000Y32739620D01*
X16704761Y32596762D01*
X16609523Y32501524D01*
X16514285Y32453905D01*
X8158310Y23279306D02*
X8781217Y22929747D01*
X8882494Y22818308D01*
X8918941Y22688646D01*
X8890556Y22540761D01*
X8843948Y22457707D01*
X9519762Y23661993D02*
X9240115Y23163667D01*
X9379938Y23412830D02*
X8507869Y23902213D01*
X8585843Y23749247D01*
X8622289Y23619584D01*
X8617208Y23513226D01*
X14789310Y36127306D02*
X15412217Y35777747D01*
X15513494Y35666308D01*
X15549941Y35536646D01*
X15521556Y35388761D01*
X15474948Y35305707D01*
X15082100Y36454442D02*
X15063877Y36519273D01*
X15068957Y36625631D01*
X15185477Y36833267D01*
X15273612Y36893017D01*
X15338443Y36911240D01*
X15444801Y36906159D01*
X15527855Y36859552D01*
X15629133Y36748113D01*
X15847811Y35970140D01*
X16150762Y36509993D01*
X14762310Y37884306D02*
X15385217Y37534747D01*
X15486494Y37423308D01*
X15522941Y37293646D01*
X15494556Y37145761D01*
X15447948Y37062707D01*
X14948742Y38216523D02*
X15251693Y38756375D01*
X15420782Y38279254D01*
X15490694Y38403835D01*
X15578829Y38463586D01*
X15643660Y38481809D01*
X15750018Y38476728D01*
X15957654Y38360208D01*
X16017404Y38272073D01*
X16035627Y38207242D01*
X16030546Y38100884D01*
X15890723Y37851722D01*
X15802588Y37791971D01*
X15737757Y37773748D01*
X23337434Y38338684D02*
X22714527Y37989126D01*
X22566642Y37960741D01*
X22436980Y37997187D01*
X22325541Y38098465D01*
X22278933Y38181519D01*
X23489519Y37386542D02*
X22908139Y37060287D01*
X23705216Y37780609D02*
X22965790Y37638685D01*
X23268741Y37098833D01*
X28163434Y29448685D02*
X27540527Y29099127D01*
X27392642Y29070742D01*
X27262980Y29107188D01*
X27151541Y29208466D01*
X27104933Y29291520D01*
X28629512Y28618143D02*
X28396473Y29033414D01*
X27957898Y28841902D01*
X28022729Y28823679D01*
X28110864Y28763929D01*
X28227384Y28556293D01*
X28232464Y28449935D01*
X28214241Y28385104D01*
X28154491Y28296969D01*
X27946855Y28180449D01*
X27840497Y28175369D01*
X27775666Y28193592D01*
X27687531Y28253342D01*
X27571012Y28460978D01*
X27565931Y28567336D01*
X27584154Y28632167D01*
X31084434Y24114685D02*
X30461527Y23765127D01*
X30313642Y23736742D01*
X30183980Y23773188D01*
X30072541Y23874466D01*
X30025933Y23957520D01*
X31527208Y23325670D02*
X31433993Y23491779D01*
X31345858Y23551529D01*
X31281027Y23569752D01*
X31109837Y23582895D01*
X30920425Y23531206D01*
X30588208Y23344775D01*
X30528458Y23256640D01*
X30510235Y23191809D01*
X30515316Y23085451D01*
X30608531Y22919342D01*
X30696666Y22859592D01*
X30761497Y22841369D01*
X30867855Y22846449D01*
X31075491Y22962969D01*
X31135241Y23051104D01*
X31153464Y23115935D01*
X31148384Y23222293D01*
X31055168Y23388402D01*
X30967033Y23448152D01*
X30902202Y23466375D01*
X30795844Y23461294D01*
X24467666Y21690620D02*
X24467666Y20976334D01*
X24420047Y20833477D01*
X24324809Y20738239D01*
X24181952Y20690620D01*
X24086714Y20690620D01*
X24848619Y21690620D02*
X25515285Y21690620D01*
X25086714Y20690620D01*
X23197666Y23087620D02*
X23197666Y22373334D01*
X23150047Y22230477D01*
X23054809Y22135239D01*
X22911952Y22087620D01*
X22816714Y22087620D01*
X23816714Y22659048D02*
X23721476Y22706667D01*
X23673857Y22754286D01*
X23626238Y22849524D01*
X23626238Y22897143D01*
X23673857Y22992381D01*
X23721476Y23040000D01*
X23816714Y23087620D01*
X24007190Y23087620D01*
X24102428Y23040000D01*
X24150047Y22992381D01*
X24197666Y22897143D01*
X24197666Y22849524D01*
X24150047Y22754286D01*
X24102428Y22706667D01*
X24007190Y22659048D01*
X23816714Y22659048D01*
X23721476Y22611429D01*
X23673857Y22563810D01*
X23626238Y22468572D01*
X23626238Y22278096D01*
X23673857Y22182858D01*
X23721476Y22135239D01*
X23816714Y22087620D01*
X24007190Y22087620D01*
X24102428Y22135239D01*
X24150047Y22182858D01*
X24197666Y22278096D01*
X24197666Y22468572D01*
X24150047Y22563810D01*
X24102428Y22611429D01*
X24007190Y22659048D01*
X8465666Y21817620D02*
X8465666Y21103334D01*
X8418047Y20960477D01*
X8322809Y20865239D01*
X8179952Y20817620D01*
X8084714Y20817620D01*
X8989476Y20817620D02*
X9179952Y20817620D01*
X9275190Y20865239D01*
X9322809Y20912858D01*
X9418047Y21055715D01*
X9465666Y21246191D01*
X9465666Y21627143D01*
X9418047Y21722381D01*
X9370428Y21770000D01*
X9275190Y21817620D01*
X9084714Y21817620D01*
X8989476Y21770000D01*
X8941857Y21722381D01*
X8894238Y21627143D01*
X8894238Y21389048D01*
X8941857Y21293810D01*
X8989476Y21246191D01*
X9084714Y21198572D01*
X9275190Y21198572D01*
X9370428Y21246191D01*
X9418047Y21293810D01*
X9465666Y21389048D01*
X13754619Y24901271D02*
X14377526Y24551712D01*
X14478803Y24440273D01*
X14515249Y24310611D01*
X14486865Y24162726D01*
X14440257Y24079672D01*
X14859728Y24827160D02*
X13987658Y25316542D01*
X14174090Y25648759D01*
X14262225Y25708509D01*
X14327056Y25726733D01*
X14433414Y25721652D01*
X14557995Y25651740D01*
X14617745Y25563605D01*
X14635969Y25498774D01*
X14630888Y25392416D01*
X14444456Y25060199D01*
X15605453Y26156027D02*
X15325806Y25657702D01*
X15465630Y25906865D02*
X14593560Y26396247D01*
X14671534Y26243281D01*
X14707980Y26113619D01*
X14702899Y26007261D01*
X13962224Y29056321D02*
X14055440Y29222430D01*
X14143575Y29282180D01*
X14273237Y29318627D01*
X14462649Y29266938D01*
X14753339Y29103810D01*
X14896143Y28969068D01*
X14932590Y28839406D01*
X14927509Y28733047D01*
X14834293Y28566939D01*
X14746158Y28507189D01*
X14616496Y28470742D01*
X14427084Y28522431D01*
X14136394Y28685558D01*
X13993590Y28820301D01*
X13957143Y28949963D01*
X13962224Y29056321D01*
X12336113Y24115233D02*
X11464044Y24604616D01*
X26521743Y28614720D02*
X25898836Y28265161D01*
X25750951Y28236776D01*
X25621289Y28273223D01*
X25509850Y28374500D01*
X25463242Y28457554D01*
X25882713Y27710067D02*
X26754782Y28199449D01*
X26941213Y27867232D01*
X26946294Y27760874D01*
X26928071Y27696043D01*
X26868320Y27607908D01*
X26743739Y27537996D01*
X26637381Y27532915D01*
X26572550Y27551139D01*
X26484415Y27610889D01*
X26297984Y27943106D01*
X27137806Y27322299D02*
X27202637Y27304076D01*
X27290772Y27244325D01*
X27407292Y27036690D01*
X27412372Y26930332D01*
X27394149Y26865501D01*
X27334399Y26777366D01*
X27251345Y26730758D01*
X27103460Y26702373D01*
X26325487Y26921051D01*
X26628438Y26381199D01*
X23007098Y28776993D02*
X23879167Y29266376D01*
X26480953Y24631050D02*
X26574169Y24464941D01*
X26579250Y24358583D01*
X26542803Y24228921D01*
X26399999Y24094178D01*
X26109309Y23931051D01*
X25919897Y23879362D01*
X25790235Y23915809D01*
X25702100Y23975559D01*
X25608884Y24141667D01*
X25603803Y24248026D01*
X25640250Y24377688D01*
X25783054Y24512430D01*
X26073744Y24675558D01*
X26263156Y24727247D01*
X26392818Y24690800D01*
X26480953Y24631050D01*
X13746666Y23857620D02*
X13746666Y23143334D01*
X13699047Y23000477D01*
X13603809Y22905239D01*
X13460952Y22857620D01*
X13365714Y22857620D01*
X14222857Y22857620D02*
X14222857Y23857620D01*
X14603809Y23857620D01*
X14699047Y23810000D01*
X14746666Y23762381D01*
X14794285Y23667143D01*
X14794285Y23524286D01*
X14746666Y23429048D01*
X14699047Y23381429D01*
X14603809Y23333810D01*
X14222857Y23333810D01*
X15127619Y23857620D02*
X15746666Y23857620D01*
X15413333Y23476667D01*
X15556190Y23476667D01*
X15651428Y23429048D01*
X15699047Y23381429D01*
X15746666Y23286191D01*
X15746666Y23048096D01*
X15699047Y22952858D01*
X15651428Y22905239D01*
X15556190Y22857620D01*
X15270476Y22857620D01*
X15175238Y22905239D01*
X15127619Y22952858D01*
X21590761Y25119620D02*
X21781238Y25119620D01*
X21876476Y25072000D01*
X21971714Y24976762D01*
X22019333Y24786286D01*
X22019333Y24452953D01*
X21971714Y24262477D01*
X21876476Y24167239D01*
X21781238Y24119620D01*
X21590761Y24119620D01*
X21495523Y24167239D01*
X21400285Y24262477D01*
X21352666Y24452953D01*
X21352666Y24786286D01*
X21400285Y24976762D01*
X21495523Y25072000D01*
X21590761Y25119620D01*
X16486000Y24119620D02*
X16486000Y25119620D01*
%LPC*%
D12*
X88100000Y21370000D03*
X60500000Y21370000D03*
X32900000Y21370000D03*
X5300000Y21370000D03*
X88100000Y70970000D03*
X60500000Y70970000D03*
X32900000Y70970000D03*
X5300000Y70970000D03*
D13*
X19114000Y67768000D03*
D14*
G36*
X17814000Y67018602D02*
G01*
X17789466Y67018602D01*
X17740635Y67023412D01*
X17692510Y67032984D01*
X17645555Y67047228D01*
X17600222Y67066005D01*
X17556949Y67089136D01*
X17516150Y67116396D01*
X17478221Y67147524D01*
X17443524Y67182221D01*
X17412396Y67220150D01*
X17385136Y67260949D01*
X17362005Y67304222D01*
X17343228Y67349555D01*
X17328984Y67396510D01*
X17319412Y67444635D01*
X17314602Y67493466D01*
X17314602Y67518000D01*
X17314000Y67518000D01*
X17314000Y68018000D01*
X17314602Y68018000D01*
X17314602Y68042534D01*
X17319412Y68091365D01*
X17328984Y68139490D01*
X17343228Y68186445D01*
X17362005Y68231778D01*
X17385136Y68275051D01*
X17412396Y68315850D01*
X17443524Y68353779D01*
X17478221Y68388476D01*
X17516150Y68419604D01*
X17556949Y68446864D01*
X17600222Y68469995D01*
X17645555Y68488772D01*
X17692510Y68503016D01*
X17740635Y68512588D01*
X17789466Y68517398D01*
X17814000Y68517398D01*
X17814000Y68518000D01*
X18364000Y68518000D01*
X18364000Y67018000D01*
X17814000Y67018000D01*
X17814000Y67018602D01*
G37*
G36*
X19864000Y68518000D02*
G01*
X20414000Y68518000D01*
X20414000Y68517398D01*
X20438534Y68517398D01*
X20487365Y68512588D01*
X20535490Y68503016D01*
X20582445Y68488772D01*
X20627778Y68469995D01*
X20671051Y68446864D01*
X20711850Y68419604D01*
X20749779Y68388476D01*
X20784476Y68353779D01*
X20815604Y68315850D01*
X20842864Y68275051D01*
X20865995Y68231778D01*
X20884772Y68186445D01*
X20899016Y68139490D01*
X20908588Y68091365D01*
X20913398Y68042534D01*
X20913398Y68018000D01*
X20914000Y68018000D01*
X20914000Y67518000D01*
X20913398Y67518000D01*
X20913398Y67493466D01*
X20908588Y67444635D01*
X20899016Y67396510D01*
X20884772Y67349555D01*
X20865995Y67304222D01*
X20842864Y67260949D01*
X20815604Y67220150D01*
X20784476Y67182221D01*
X20749779Y67147524D01*
X20711850Y67116396D01*
X20671051Y67089136D01*
X20627778Y67066005D01*
X20582445Y67047228D01*
X20535490Y67032984D01*
X20487365Y67023412D01*
X20438534Y67018602D01*
X20414000Y67018602D01*
X20414000Y67018000D01*
X19864000Y67018000D01*
X19864000Y68518000D01*
G37*
D13*
X46714000Y67768000D03*
D14*
G36*
X45414000Y67018602D02*
G01*
X45389466Y67018602D01*
X45340635Y67023412D01*
X45292510Y67032984D01*
X45245555Y67047228D01*
X45200222Y67066005D01*
X45156949Y67089136D01*
X45116150Y67116396D01*
X45078221Y67147524D01*
X45043524Y67182221D01*
X45012396Y67220150D01*
X44985136Y67260949D01*
X44962005Y67304222D01*
X44943228Y67349555D01*
X44928984Y67396510D01*
X44919412Y67444635D01*
X44914602Y67493466D01*
X44914602Y67518000D01*
X44914000Y67518000D01*
X44914000Y68018000D01*
X44914602Y68018000D01*
X44914602Y68042534D01*
X44919412Y68091365D01*
X44928984Y68139490D01*
X44943228Y68186445D01*
X44962005Y68231778D01*
X44985136Y68275051D01*
X45012396Y68315850D01*
X45043524Y68353779D01*
X45078221Y68388476D01*
X45116150Y68419604D01*
X45156949Y68446864D01*
X45200222Y68469995D01*
X45245555Y68488772D01*
X45292510Y68503016D01*
X45340635Y68512588D01*
X45389466Y68517398D01*
X45414000Y68517398D01*
X45414000Y68518000D01*
X45964000Y68518000D01*
X45964000Y67018000D01*
X45414000Y67018000D01*
X45414000Y67018602D01*
G37*
G36*
X47464000Y68518000D02*
G01*
X48014000Y68518000D01*
X48014000Y68517398D01*
X48038534Y68517398D01*
X48087365Y68512588D01*
X48135490Y68503016D01*
X48182445Y68488772D01*
X48227778Y68469995D01*
X48271051Y68446864D01*
X48311850Y68419604D01*
X48349779Y68388476D01*
X48384476Y68353779D01*
X48415604Y68315850D01*
X48442864Y68275051D01*
X48465995Y68231778D01*
X48484772Y68186445D01*
X48499016Y68139490D01*
X48508588Y68091365D01*
X48513398Y68042534D01*
X48513398Y68018000D01*
X48514000Y68018000D01*
X48514000Y67518000D01*
X48513398Y67518000D01*
X48513398Y67493466D01*
X48508588Y67444635D01*
X48499016Y67396510D01*
X48484772Y67349555D01*
X48465995Y67304222D01*
X48442864Y67260949D01*
X48415604Y67220150D01*
X48384476Y67182221D01*
X48349779Y67147524D01*
X48311850Y67116396D01*
X48271051Y67089136D01*
X48227778Y67066005D01*
X48182445Y67047228D01*
X48135490Y67032984D01*
X48087365Y67023412D01*
X48038534Y67018602D01*
X48014000Y67018602D01*
X48014000Y67018000D01*
X47464000Y67018000D01*
X47464000Y68518000D01*
G37*
D13*
X74314000Y67768000D03*
D14*
G36*
X73014000Y67018602D02*
G01*
X72989466Y67018602D01*
X72940635Y67023412D01*
X72892510Y67032984D01*
X72845555Y67047228D01*
X72800222Y67066005D01*
X72756949Y67089136D01*
X72716150Y67116396D01*
X72678221Y67147524D01*
X72643524Y67182221D01*
X72612396Y67220150D01*
X72585136Y67260949D01*
X72562005Y67304222D01*
X72543228Y67349555D01*
X72528984Y67396510D01*
X72519412Y67444635D01*
X72514602Y67493466D01*
X72514602Y67518000D01*
X72514000Y67518000D01*
X72514000Y68018000D01*
X72514602Y68018000D01*
X72514602Y68042534D01*
X72519412Y68091365D01*
X72528984Y68139490D01*
X72543228Y68186445D01*
X72562005Y68231778D01*
X72585136Y68275051D01*
X72612396Y68315850D01*
X72643524Y68353779D01*
X72678221Y68388476D01*
X72716150Y68419604D01*
X72756949Y68446864D01*
X72800222Y68469995D01*
X72845555Y68488772D01*
X72892510Y68503016D01*
X72940635Y68512588D01*
X72989466Y68517398D01*
X73014000Y68517398D01*
X73014000Y68518000D01*
X73564000Y68518000D01*
X73564000Y67018000D01*
X73014000Y67018000D01*
X73014000Y67018602D01*
G37*
G36*
X75064000Y68518000D02*
G01*
X75614000Y68518000D01*
X75614000Y68517398D01*
X75638534Y68517398D01*
X75687365Y68512588D01*
X75735490Y68503016D01*
X75782445Y68488772D01*
X75827778Y68469995D01*
X75871051Y68446864D01*
X75911850Y68419604D01*
X75949779Y68388476D01*
X75984476Y68353779D01*
X76015604Y68315850D01*
X76042864Y68275051D01*
X76065995Y68231778D01*
X76084772Y68186445D01*
X76099016Y68139490D01*
X76108588Y68091365D01*
X76113398Y68042534D01*
X76113398Y68018000D01*
X76114000Y68018000D01*
X76114000Y67518000D01*
X76113398Y67518000D01*
X76113398Y67493466D01*
X76108588Y67444635D01*
X76099016Y67396510D01*
X76084772Y67349555D01*
X76065995Y67304222D01*
X76042864Y67260949D01*
X76015604Y67220150D01*
X75984476Y67182221D01*
X75949779Y67147524D01*
X75911850Y67116396D01*
X75871051Y67089136D01*
X75827778Y67066005D01*
X75782445Y67047228D01*
X75735490Y67032984D01*
X75687365Y67023412D01*
X75638534Y67018602D01*
X75614000Y67018602D01*
X75614000Y67018000D01*
X75064000Y67018000D01*
X75064000Y68518000D01*
G37*
D13*
X74286000Y24572000D03*
D14*
G36*
X75586000Y25321398D02*
G01*
X75610534Y25321398D01*
X75659365Y25316588D01*
X75707490Y25307016D01*
X75754445Y25292772D01*
X75799778Y25273995D01*
X75843051Y25250864D01*
X75883850Y25223604D01*
X75921779Y25192476D01*
X75956476Y25157779D01*
X75987604Y25119850D01*
X76014864Y25079051D01*
X76037995Y25035778D01*
X76056772Y24990445D01*
X76071016Y24943490D01*
X76080588Y24895365D01*
X76085398Y24846534D01*
X76085398Y24822000D01*
X76086000Y24822000D01*
X76086000Y24322000D01*
X76085398Y24322000D01*
X76085398Y24297466D01*
X76080588Y24248635D01*
X76071016Y24200510D01*
X76056772Y24153555D01*
X76037995Y24108222D01*
X76014864Y24064949D01*
X75987604Y24024150D01*
X75956476Y23986221D01*
X75921779Y23951524D01*
X75883850Y23920396D01*
X75843051Y23893136D01*
X75799778Y23870005D01*
X75754445Y23851228D01*
X75707490Y23836984D01*
X75659365Y23827412D01*
X75610534Y23822602D01*
X75586000Y23822602D01*
X75586000Y23822000D01*
X75036000Y23822000D01*
X75036000Y25322000D01*
X75586000Y25322000D01*
X75586000Y25321398D01*
G37*
G36*
X73536000Y23822000D02*
G01*
X72986000Y23822000D01*
X72986000Y23822602D01*
X72961466Y23822602D01*
X72912635Y23827412D01*
X72864510Y23836984D01*
X72817555Y23851228D01*
X72772222Y23870005D01*
X72728949Y23893136D01*
X72688150Y23920396D01*
X72650221Y23951524D01*
X72615524Y23986221D01*
X72584396Y24024150D01*
X72557136Y24064949D01*
X72534005Y24108222D01*
X72515228Y24153555D01*
X72500984Y24200510D01*
X72491412Y24248635D01*
X72486602Y24297466D01*
X72486602Y24322000D01*
X72486000Y24322000D01*
X72486000Y24822000D01*
X72486602Y24822000D01*
X72486602Y24846534D01*
X72491412Y24895365D01*
X72500984Y24943490D01*
X72515228Y24990445D01*
X72534005Y25035778D01*
X72557136Y25079051D01*
X72584396Y25119850D01*
X72615524Y25157779D01*
X72650221Y25192476D01*
X72688150Y25223604D01*
X72728949Y25250864D01*
X72772222Y25273995D01*
X72817555Y25292772D01*
X72864510Y25307016D01*
X72912635Y25316588D01*
X72961466Y25321398D01*
X72986000Y25321398D01*
X72986000Y25322000D01*
X73536000Y25322000D01*
X73536000Y23822000D01*
G37*
D13*
X46686000Y24572000D03*
D14*
G36*
X47986000Y25321398D02*
G01*
X48010534Y25321398D01*
X48059365Y25316588D01*
X48107490Y25307016D01*
X48154445Y25292772D01*
X48199778Y25273995D01*
X48243051Y25250864D01*
X48283850Y25223604D01*
X48321779Y25192476D01*
X48356476Y25157779D01*
X48387604Y25119850D01*
X48414864Y25079051D01*
X48437995Y25035778D01*
X48456772Y24990445D01*
X48471016Y24943490D01*
X48480588Y24895365D01*
X48485398Y24846534D01*
X48485398Y24822000D01*
X48486000Y24822000D01*
X48486000Y24322000D01*
X48485398Y24322000D01*
X48485398Y24297466D01*
X48480588Y24248635D01*
X48471016Y24200510D01*
X48456772Y24153555D01*
X48437995Y24108222D01*
X48414864Y24064949D01*
X48387604Y24024150D01*
X48356476Y23986221D01*
X48321779Y23951524D01*
X48283850Y23920396D01*
X48243051Y23893136D01*
X48199778Y23870005D01*
X48154445Y23851228D01*
X48107490Y23836984D01*
X48059365Y23827412D01*
X48010534Y23822602D01*
X47986000Y23822602D01*
X47986000Y23822000D01*
X47436000Y23822000D01*
X47436000Y25322000D01*
X47986000Y25322000D01*
X47986000Y25321398D01*
G37*
G36*
X45936000Y23822000D02*
G01*
X45386000Y23822000D01*
X45386000Y23822602D01*
X45361466Y23822602D01*
X45312635Y23827412D01*
X45264510Y23836984D01*
X45217555Y23851228D01*
X45172222Y23870005D01*
X45128949Y23893136D01*
X45088150Y23920396D01*
X45050221Y23951524D01*
X45015524Y23986221D01*
X44984396Y24024150D01*
X44957136Y24064949D01*
X44934005Y24108222D01*
X44915228Y24153555D01*
X44900984Y24200510D01*
X44891412Y24248635D01*
X44886602Y24297466D01*
X44886602Y24322000D01*
X44886000Y24322000D01*
X44886000Y24822000D01*
X44886602Y24822000D01*
X44886602Y24846534D01*
X44891412Y24895365D01*
X44900984Y24943490D01*
X44915228Y24990445D01*
X44934005Y25035778D01*
X44957136Y25079051D01*
X44984396Y25119850D01*
X45015524Y25157779D01*
X45050221Y25192476D01*
X45088150Y25223604D01*
X45128949Y25250864D01*
X45172222Y25273995D01*
X45217555Y25292772D01*
X45264510Y25307016D01*
X45312635Y25316588D01*
X45361466Y25321398D01*
X45386000Y25321398D01*
X45386000Y25322000D01*
X45936000Y25322000D01*
X45936000Y23822000D01*
G37*
G36*
G01*
X23298823Y58514056D02*
X23298823Y58514056D01*
G75*
G02*
X24217803Y58772370I588647J-330333D01*
G01*
X24217803Y58772370D01*
G75*
G02*
X24476117Y57853390I-330333J-588647D01*
G01*
X24476117Y57853390D01*
G75*
G02*
X23557137Y57595076I-588647J330333D01*
G01*
X23557137Y57595076D01*
G75*
G02*
X23298823Y58514056I330333J588647D01*
G01*
G37*
G36*
G01*
X24277588Y60258194D02*
X24277588Y60258194D01*
G75*
G02*
X25196568Y60516508I588647J-330333D01*
G01*
X25196568Y60516508D01*
G75*
G02*
X25454882Y59597528I-330333J-588647D01*
G01*
X25454882Y59597528D01*
G75*
G02*
X24535902Y59339214I-588647J330333D01*
G01*
X24535902Y59339214D01*
G75*
G02*
X24277588Y60258194I330333J588647D01*
G01*
G37*
G36*
X24926020Y61413686D02*
G01*
X25586686Y62590980D01*
X26763980Y61930314D01*
X26103314Y60753020D01*
X24926020Y61413686D01*
G37*
G36*
G01*
X50898823Y58514056D02*
X50898823Y58514056D01*
G75*
G02*
X51817803Y58772370I588647J-330333D01*
G01*
X51817803Y58772370D01*
G75*
G02*
X52076117Y57853390I-330333J-588647D01*
G01*
X52076117Y57853390D01*
G75*
G02*
X51157137Y57595076I-588647J330333D01*
G01*
X51157137Y57595076D01*
G75*
G02*
X50898823Y58514056I330333J588647D01*
G01*
G37*
G36*
G01*
X51877588Y60258194D02*
X51877588Y60258194D01*
G75*
G02*
X52796568Y60516508I588647J-330333D01*
G01*
X52796568Y60516508D01*
G75*
G02*
X53054882Y59597528I-330333J-588647D01*
G01*
X53054882Y59597528D01*
G75*
G02*
X52135902Y59339214I-588647J330333D01*
G01*
X52135902Y59339214D01*
G75*
G02*
X51877588Y60258194I330333J588647D01*
G01*
G37*
G36*
X52526020Y61413686D02*
G01*
X53186686Y62590980D01*
X54363980Y61930314D01*
X53703314Y60753020D01*
X52526020Y61413686D01*
G37*
G36*
G01*
X78498823Y58514056D02*
X78498823Y58514056D01*
G75*
G02*
X79417803Y58772370I588647J-330333D01*
G01*
X79417803Y58772370D01*
G75*
G02*
X79676117Y57853390I-330333J-588647D01*
G01*
X79676117Y57853390D01*
G75*
G02*
X78757137Y57595076I-588647J330333D01*
G01*
X78757137Y57595076D01*
G75*
G02*
X78498823Y58514056I330333J588647D01*
G01*
G37*
G36*
G01*
X79477588Y60258194D02*
X79477588Y60258194D01*
G75*
G02*
X80396568Y60516508I588647J-330333D01*
G01*
X80396568Y60516508D01*
G75*
G02*
X80654882Y59597528I-330333J-588647D01*
G01*
X80654882Y59597528D01*
G75*
G02*
X79735902Y59339214I-588647J330333D01*
G01*
X79735902Y59339214D01*
G75*
G02*
X79477588Y60258194I330333J588647D01*
G01*
G37*
G36*
X80126020Y61413686D02*
G01*
X80786686Y62590980D01*
X81963980Y61930314D01*
X81303314Y60753020D01*
X80126020Y61413686D01*
G37*
G36*
G01*
X70101177Y33825944D02*
X70101177Y33825944D01*
G75*
G02*
X69182197Y33567630I-588647J330333D01*
G01*
X69182197Y33567630D01*
G75*
G02*
X68923883Y34486610I330333J588647D01*
G01*
X68923883Y34486610D01*
G75*
G02*
X69842863Y34744924I588647J-330333D01*
G01*
X69842863Y34744924D01*
G75*
G02*
X70101177Y33825944I-330333J-588647D01*
G01*
G37*
G36*
G01*
X69122412Y32081806D02*
X69122412Y32081806D01*
G75*
G02*
X68203432Y31823492I-588647J330333D01*
G01*
X68203432Y31823492D01*
G75*
G02*
X67945118Y32742472I330333J588647D01*
G01*
X67945118Y32742472D01*
G75*
G02*
X68864098Y33000786I588647J-330333D01*
G01*
X68864098Y33000786D01*
G75*
G02*
X69122412Y32081806I-330333J-588647D01*
G01*
G37*
G36*
X68473980Y30926314D02*
G01*
X67813314Y29749020D01*
X66636020Y30409686D01*
X67296686Y31586980D01*
X68473980Y30926314D01*
G37*
G36*
G01*
X42501177Y33825944D02*
X42501177Y33825944D01*
G75*
G02*
X41582197Y33567630I-588647J330333D01*
G01*
X41582197Y33567630D01*
G75*
G02*
X41323883Y34486610I330333J588647D01*
G01*
X41323883Y34486610D01*
G75*
G02*
X42242863Y34744924I588647J-330333D01*
G01*
X42242863Y34744924D01*
G75*
G02*
X42501177Y33825944I-330333J-588647D01*
G01*
G37*
G36*
G01*
X41522412Y32081806D02*
X41522412Y32081806D01*
G75*
G02*
X40603432Y31823492I-588647J330333D01*
G01*
X40603432Y31823492D01*
G75*
G02*
X40345118Y32742472I330333J588647D01*
G01*
X40345118Y32742472D01*
G75*
G02*
X41264098Y33000786I588647J-330333D01*
G01*
X41264098Y33000786D01*
G75*
G02*
X41522412Y32081806I-330333J-588647D01*
G01*
G37*
G36*
X40873980Y30926314D02*
G01*
X40213314Y29749020D01*
X39036020Y30409686D01*
X39696686Y31586980D01*
X40873980Y30926314D01*
G37*
G36*
X24576639Y66539071D02*
G01*
X25884743Y65804998D01*
X25395361Y64932929D01*
X24087257Y65667002D01*
X24576639Y66539071D01*
G37*
G36*
X25003330Y64235568D02*
G01*
X24991323Y64214172D01*
X24963232Y64173942D01*
X24931333Y64136658D01*
X24895932Y64102681D01*
X24857372Y64072337D01*
X24816023Y64045920D01*
X24772284Y64023681D01*
X24726577Y64005837D01*
X24679338Y63992559D01*
X24631028Y63983975D01*
X24582108Y63980169D01*
X24533051Y63981174D01*
X24484328Y63986985D01*
X24436410Y63997542D01*
X24389757Y64012746D01*
X24344819Y64032448D01*
X24323424Y64044455D01*
X24323129Y64043930D01*
X23887094Y64288621D01*
X23887389Y64289146D01*
X23865994Y64301152D01*
X23825764Y64329244D01*
X23788480Y64361143D01*
X23754502Y64396544D01*
X23724158Y64435104D01*
X23697741Y64476453D01*
X23675502Y64520192D01*
X23657659Y64565899D01*
X23644381Y64613138D01*
X23635797Y64661448D01*
X23631990Y64710368D01*
X23632996Y64759425D01*
X23638806Y64808147D01*
X23649363Y64856066D01*
X23664567Y64902719D01*
X23684270Y64947657D01*
X23696276Y64969052D01*
X23695751Y64969347D01*
X23964911Y65448985D01*
X25273015Y64714911D01*
X25003855Y64235273D01*
X25003330Y64235568D01*
G37*
G36*
X24698985Y66757089D02*
G01*
X24968145Y67236727D01*
X24968670Y67236432D01*
X24980677Y67257828D01*
X25008768Y67298058D01*
X25040667Y67335342D01*
X25076068Y67369319D01*
X25114628Y67399663D01*
X25155977Y67426080D01*
X25199716Y67448319D01*
X25245423Y67466163D01*
X25292662Y67479441D01*
X25340972Y67488025D01*
X25389892Y67491831D01*
X25438949Y67490826D01*
X25487672Y67485015D01*
X25535590Y67474458D01*
X25582243Y67459254D01*
X25627181Y67439552D01*
X25648576Y67427545D01*
X25648871Y67428070D01*
X26084906Y67183379D01*
X26084611Y67182854D01*
X26106006Y67170848D01*
X26146236Y67142756D01*
X26183520Y67110857D01*
X26217498Y67075456D01*
X26247842Y67036896D01*
X26274259Y66995547D01*
X26296498Y66951808D01*
X26314341Y66906101D01*
X26327619Y66858862D01*
X26336203Y66810552D01*
X26340010Y66761632D01*
X26339004Y66712575D01*
X26333194Y66663853D01*
X26322637Y66615934D01*
X26307433Y66569281D01*
X26287730Y66524343D01*
X26275724Y66502948D01*
X26276249Y66502653D01*
X26007089Y66023015D01*
X24698985Y66757089D01*
G37*
G36*
X52176639Y66539071D02*
G01*
X53484743Y65804998D01*
X52995361Y64932929D01*
X51687257Y65667002D01*
X52176639Y66539071D01*
G37*
G36*
X52603330Y64235568D02*
G01*
X52591323Y64214172D01*
X52563232Y64173942D01*
X52531333Y64136658D01*
X52495932Y64102681D01*
X52457372Y64072337D01*
X52416023Y64045920D01*
X52372284Y64023681D01*
X52326577Y64005837D01*
X52279338Y63992559D01*
X52231028Y63983975D01*
X52182108Y63980169D01*
X52133051Y63981174D01*
X52084328Y63986985D01*
X52036410Y63997542D01*
X51989757Y64012746D01*
X51944819Y64032448D01*
X51923424Y64044455D01*
X51923129Y64043930D01*
X51487094Y64288621D01*
X51487389Y64289146D01*
X51465994Y64301152D01*
X51425764Y64329244D01*
X51388480Y64361143D01*
X51354502Y64396544D01*
X51324158Y64435104D01*
X51297741Y64476453D01*
X51275502Y64520192D01*
X51257659Y64565899D01*
X51244381Y64613138D01*
X51235797Y64661448D01*
X51231990Y64710368D01*
X51232996Y64759425D01*
X51238806Y64808147D01*
X51249363Y64856066D01*
X51264567Y64902719D01*
X51284270Y64947657D01*
X51296276Y64969052D01*
X51295751Y64969347D01*
X51564911Y65448985D01*
X52873015Y64714911D01*
X52603855Y64235273D01*
X52603330Y64235568D01*
G37*
G36*
X52298985Y66757089D02*
G01*
X52568145Y67236727D01*
X52568670Y67236432D01*
X52580677Y67257828D01*
X52608768Y67298058D01*
X52640667Y67335342D01*
X52676068Y67369319D01*
X52714628Y67399663D01*
X52755977Y67426080D01*
X52799716Y67448319D01*
X52845423Y67466163D01*
X52892662Y67479441D01*
X52940972Y67488025D01*
X52989892Y67491831D01*
X53038949Y67490826D01*
X53087672Y67485015D01*
X53135590Y67474458D01*
X53182243Y67459254D01*
X53227181Y67439552D01*
X53248576Y67427545D01*
X53248871Y67428070D01*
X53684906Y67183379D01*
X53684611Y67182854D01*
X53706006Y67170848D01*
X53746236Y67142756D01*
X53783520Y67110857D01*
X53817498Y67075456D01*
X53847842Y67036896D01*
X53874259Y66995547D01*
X53896498Y66951808D01*
X53914341Y66906101D01*
X53927619Y66858862D01*
X53936203Y66810552D01*
X53940010Y66761632D01*
X53939004Y66712575D01*
X53933194Y66663853D01*
X53922637Y66615934D01*
X53907433Y66569281D01*
X53887730Y66524343D01*
X53875724Y66502948D01*
X53876249Y66502653D01*
X53607089Y66023015D01*
X52298985Y66757089D01*
G37*
G36*
X79776639Y66539071D02*
G01*
X81084743Y65804998D01*
X80595361Y64932929D01*
X79287257Y65667002D01*
X79776639Y66539071D01*
G37*
G36*
X80203330Y64235568D02*
G01*
X80191323Y64214172D01*
X80163232Y64173942D01*
X80131333Y64136658D01*
X80095932Y64102681D01*
X80057372Y64072337D01*
X80016023Y64045920D01*
X79972284Y64023681D01*
X79926577Y64005837D01*
X79879338Y63992559D01*
X79831028Y63983975D01*
X79782108Y63980169D01*
X79733051Y63981174D01*
X79684328Y63986985D01*
X79636410Y63997542D01*
X79589757Y64012746D01*
X79544819Y64032448D01*
X79523424Y64044455D01*
X79523129Y64043930D01*
X79087094Y64288621D01*
X79087389Y64289146D01*
X79065994Y64301152D01*
X79025764Y64329244D01*
X78988480Y64361143D01*
X78954502Y64396544D01*
X78924158Y64435104D01*
X78897741Y64476453D01*
X78875502Y64520192D01*
X78857659Y64565899D01*
X78844381Y64613138D01*
X78835797Y64661448D01*
X78831990Y64710368D01*
X78832996Y64759425D01*
X78838806Y64808147D01*
X78849363Y64856066D01*
X78864567Y64902719D01*
X78884270Y64947657D01*
X78896276Y64969052D01*
X78895751Y64969347D01*
X79164911Y65448985D01*
X80473015Y64714911D01*
X80203855Y64235273D01*
X80203330Y64235568D01*
G37*
G36*
X79898985Y66757089D02*
G01*
X80168145Y67236727D01*
X80168670Y67236432D01*
X80180677Y67257828D01*
X80208768Y67298058D01*
X80240667Y67335342D01*
X80276068Y67369319D01*
X80314628Y67399663D01*
X80355977Y67426080D01*
X80399716Y67448319D01*
X80445423Y67466163D01*
X80492662Y67479441D01*
X80540972Y67488025D01*
X80589892Y67491831D01*
X80638949Y67490826D01*
X80687672Y67485015D01*
X80735590Y67474458D01*
X80782243Y67459254D01*
X80827181Y67439552D01*
X80848576Y67427545D01*
X80848871Y67428070D01*
X81284906Y67183379D01*
X81284611Y67182854D01*
X81306006Y67170848D01*
X81346236Y67142756D01*
X81383520Y67110857D01*
X81417498Y67075456D01*
X81447842Y67036896D01*
X81474259Y66995547D01*
X81496498Y66951808D01*
X81514341Y66906101D01*
X81527619Y66858862D01*
X81536203Y66810552D01*
X81540010Y66761632D01*
X81539004Y66712575D01*
X81533194Y66663853D01*
X81522637Y66615934D01*
X81507433Y66569281D01*
X81487730Y66524343D01*
X81475724Y66502948D01*
X81476249Y66502653D01*
X81207089Y66023015D01*
X79898985Y66757089D01*
G37*
G36*
X68823361Y25800929D02*
G01*
X67515257Y26535002D01*
X68004639Y27407071D01*
X69312743Y26672998D01*
X68823361Y25800929D01*
G37*
G36*
X68396670Y28104432D02*
G01*
X68408677Y28125828D01*
X68436768Y28166058D01*
X68468667Y28203342D01*
X68504068Y28237319D01*
X68542628Y28267663D01*
X68583977Y28294080D01*
X68627716Y28316319D01*
X68673423Y28334163D01*
X68720662Y28347441D01*
X68768972Y28356025D01*
X68817892Y28359831D01*
X68866949Y28358826D01*
X68915672Y28353015D01*
X68963590Y28342458D01*
X69010243Y28327254D01*
X69055181Y28307552D01*
X69076576Y28295545D01*
X69076871Y28296070D01*
X69512906Y28051379D01*
X69512611Y28050854D01*
X69534006Y28038848D01*
X69574236Y28010756D01*
X69611520Y27978857D01*
X69645498Y27943456D01*
X69675842Y27904896D01*
X69702259Y27863547D01*
X69724498Y27819808D01*
X69742341Y27774101D01*
X69755619Y27726862D01*
X69764203Y27678552D01*
X69768010Y27629632D01*
X69767004Y27580575D01*
X69761194Y27531853D01*
X69750637Y27483934D01*
X69735433Y27437281D01*
X69715730Y27392343D01*
X69703724Y27370948D01*
X69704249Y27370653D01*
X69435089Y26891015D01*
X68126985Y27625089D01*
X68396145Y28104727D01*
X68396670Y28104432D01*
G37*
G36*
X68701015Y25582911D02*
G01*
X68431855Y25103273D01*
X68431330Y25103568D01*
X68419323Y25082172D01*
X68391232Y25041942D01*
X68359333Y25004658D01*
X68323932Y24970681D01*
X68285372Y24940337D01*
X68244023Y24913920D01*
X68200284Y24891681D01*
X68154577Y24873837D01*
X68107338Y24860559D01*
X68059028Y24851975D01*
X68010108Y24848169D01*
X67961051Y24849174D01*
X67912328Y24854985D01*
X67864410Y24865542D01*
X67817757Y24880746D01*
X67772819Y24900448D01*
X67751424Y24912455D01*
X67751129Y24911930D01*
X67315094Y25156621D01*
X67315389Y25157146D01*
X67293994Y25169152D01*
X67253764Y25197244D01*
X67216480Y25229143D01*
X67182502Y25264544D01*
X67152158Y25303104D01*
X67125741Y25344453D01*
X67103502Y25388192D01*
X67085659Y25433899D01*
X67072381Y25481138D01*
X67063797Y25529448D01*
X67059990Y25578368D01*
X67060996Y25627425D01*
X67066806Y25676147D01*
X67077363Y25724066D01*
X67092567Y25770719D01*
X67112270Y25815657D01*
X67124276Y25837052D01*
X67123751Y25837347D01*
X67392911Y26316985D01*
X68701015Y25582911D01*
G37*
G36*
X41223361Y25800929D02*
G01*
X39915257Y26535002D01*
X40404639Y27407071D01*
X41712743Y26672998D01*
X41223361Y25800929D01*
G37*
G36*
X40796670Y28104432D02*
G01*
X40808677Y28125828D01*
X40836768Y28166058D01*
X40868667Y28203342D01*
X40904068Y28237319D01*
X40942628Y28267663D01*
X40983977Y28294080D01*
X41027716Y28316319D01*
X41073423Y28334163D01*
X41120662Y28347441D01*
X41168972Y28356025D01*
X41217892Y28359831D01*
X41266949Y28358826D01*
X41315672Y28353015D01*
X41363590Y28342458D01*
X41410243Y28327254D01*
X41455181Y28307552D01*
X41476576Y28295545D01*
X41476871Y28296070D01*
X41912906Y28051379D01*
X41912611Y28050854D01*
X41934006Y28038848D01*
X41974236Y28010756D01*
X42011520Y27978857D01*
X42045498Y27943456D01*
X42075842Y27904896D01*
X42102259Y27863547D01*
X42124498Y27819808D01*
X42142341Y27774101D01*
X42155619Y27726862D01*
X42164203Y27678552D01*
X42168010Y27629632D01*
X42167004Y27580575D01*
X42161194Y27531853D01*
X42150637Y27483934D01*
X42135433Y27437281D01*
X42115730Y27392343D01*
X42103724Y27370948D01*
X42104249Y27370653D01*
X41835089Y26891015D01*
X40526985Y27625089D01*
X40796145Y28104727D01*
X40796670Y28104432D01*
G37*
G36*
X41101015Y25582911D02*
G01*
X40831855Y25103273D01*
X40831330Y25103568D01*
X40819323Y25082172D01*
X40791232Y25041942D01*
X40759333Y25004658D01*
X40723932Y24970681D01*
X40685372Y24940337D01*
X40644023Y24913920D01*
X40600284Y24891681D01*
X40554577Y24873837D01*
X40507338Y24860559D01*
X40459028Y24851975D01*
X40410108Y24848169D01*
X40361051Y24849174D01*
X40312328Y24854985D01*
X40264410Y24865542D01*
X40217757Y24880746D01*
X40172819Y24900448D01*
X40151424Y24912455D01*
X40151129Y24911930D01*
X39715094Y25156621D01*
X39715389Y25157146D01*
X39693994Y25169152D01*
X39653764Y25197244D01*
X39616480Y25229143D01*
X39582502Y25264544D01*
X39552158Y25303104D01*
X39525741Y25344453D01*
X39503502Y25388192D01*
X39485659Y25433899D01*
X39472381Y25481138D01*
X39463797Y25529448D01*
X39459990Y25578368D01*
X39460996Y25627425D01*
X39466806Y25676147D01*
X39477363Y25724066D01*
X39492567Y25770719D01*
X39512270Y25815657D01*
X39524276Y25837052D01*
X39523751Y25837347D01*
X39792911Y26316985D01*
X41101015Y25582911D01*
G37*
G36*
G01*
X27619066Y64500077D02*
X27183032Y64744768D01*
G75*
G02*
X27096927Y65051095I110111J196216D01*
G01*
X27317149Y65443526D01*
G75*
G02*
X27623476Y65529631I196216J-110111D01*
G01*
X28059510Y65284940D01*
G75*
G02*
X28145615Y64978613I-110111J-196216D01*
G01*
X27925393Y64586182D01*
G75*
G02*
X27619066Y64500077I-196216J110111D01*
G01*
G37*
G36*
G01*
X26860524Y63148369D02*
X26424490Y63393060D01*
G75*
G02*
X26338385Y63699387I110111J196216D01*
G01*
X26558607Y64091818D01*
G75*
G02*
X26864934Y64177923I196216J-110111D01*
G01*
X27300968Y63933232D01*
G75*
G02*
X27387073Y63626905I-110111J-196216D01*
G01*
X27166851Y63234474D01*
G75*
G02*
X26860524Y63148369I-196216J110111D01*
G01*
G37*
G36*
G01*
X55219066Y64500077D02*
X54783032Y64744768D01*
G75*
G02*
X54696927Y65051095I110111J196216D01*
G01*
X54917149Y65443526D01*
G75*
G02*
X55223476Y65529631I196216J-110111D01*
G01*
X55659510Y65284940D01*
G75*
G02*
X55745615Y64978613I-110111J-196216D01*
G01*
X55525393Y64586182D01*
G75*
G02*
X55219066Y64500077I-196216J110111D01*
G01*
G37*
G36*
G01*
X54460524Y63148369D02*
X54024490Y63393060D01*
G75*
G02*
X53938385Y63699387I110111J196216D01*
G01*
X54158607Y64091818D01*
G75*
G02*
X54464934Y64177923I196216J-110111D01*
G01*
X54900968Y63933232D01*
G75*
G02*
X54987073Y63626905I-110111J-196216D01*
G01*
X54766851Y63234474D01*
G75*
G02*
X54460524Y63148369I-196216J110111D01*
G01*
G37*
G36*
G01*
X82819066Y64500077D02*
X82383032Y64744768D01*
G75*
G02*
X82296927Y65051095I110111J196216D01*
G01*
X82517149Y65443526D01*
G75*
G02*
X82823476Y65529631I196216J-110111D01*
G01*
X83259510Y65284940D01*
G75*
G02*
X83345615Y64978613I-110111J-196216D01*
G01*
X83125393Y64586182D01*
G75*
G02*
X82819066Y64500077I-196216J110111D01*
G01*
G37*
G36*
G01*
X82060524Y63148369D02*
X81624490Y63393060D01*
G75*
G02*
X81538385Y63699387I110111J196216D01*
G01*
X81758607Y64091818D01*
G75*
G02*
X82064934Y64177923I196216J-110111D01*
G01*
X82500968Y63933232D01*
G75*
G02*
X82587073Y63626905I-110111J-196216D01*
G01*
X82366851Y63234474D01*
G75*
G02*
X82060524Y63148369I-196216J110111D01*
G01*
G37*
G36*
G01*
X65780934Y27839923D02*
X66216968Y27595232D01*
G75*
G02*
X66303073Y27288905I-110111J-196216D01*
G01*
X66082851Y26896474D01*
G75*
G02*
X65776524Y26810369I-196216J110111D01*
G01*
X65340490Y27055060D01*
G75*
G02*
X65254385Y27361387I110111J196216D01*
G01*
X65474607Y27753818D01*
G75*
G02*
X65780934Y27839923I196216J-110111D01*
G01*
G37*
G36*
G01*
X66539476Y29191631D02*
X66975510Y28946940D01*
G75*
G02*
X67061615Y28640613I-110111J-196216D01*
G01*
X66841393Y28248182D01*
G75*
G02*
X66535066Y28162077I-196216J110111D01*
G01*
X66099032Y28406768D01*
G75*
G02*
X66012927Y28713095I110111J196216D01*
G01*
X66233149Y29105526D01*
G75*
G02*
X66539476Y29191631I196216J-110111D01*
G01*
G37*
G36*
G01*
X38180934Y27839923D02*
X38616968Y27595232D01*
G75*
G02*
X38703073Y27288905I-110111J-196216D01*
G01*
X38482851Y26896474D01*
G75*
G02*
X38176524Y26810369I-196216J110111D01*
G01*
X37740490Y27055060D01*
G75*
G02*
X37654385Y27361387I110111J196216D01*
G01*
X37874607Y27753818D01*
G75*
G02*
X38180934Y27839923I196216J-110111D01*
G01*
G37*
G36*
G01*
X38939476Y29191631D02*
X39375510Y28946940D01*
G75*
G02*
X39461615Y28640613I-110111J-196216D01*
G01*
X39241393Y28248182D01*
G75*
G02*
X38935066Y28162077I-196216J110111D01*
G01*
X38499032Y28406768D01*
G75*
G02*
X38412927Y28713095I110111J196216D01*
G01*
X38633149Y29105526D01*
G75*
G02*
X38939476Y29191631I196216J-110111D01*
G01*
G37*
G36*
X10253980Y66747686D02*
G01*
X9076686Y66087020D01*
X8416020Y67264314D01*
X9593314Y67924980D01*
X10253980Y66747686D01*
G37*
G36*
X37853980Y66747686D02*
G01*
X36676686Y66087020D01*
X36016020Y67264314D01*
X37193314Y67924980D01*
X37853980Y66747686D01*
G37*
G36*
X65453980Y66747686D02*
G01*
X64276686Y66087020D01*
X63616020Y67264314D01*
X64793314Y67924980D01*
X65453980Y66747686D01*
G37*
G36*
X83146020Y25592314D02*
G01*
X84323314Y26252980D01*
X84983980Y25075686D01*
X83806686Y24415020D01*
X83146020Y25592314D01*
G37*
G36*
X55546020Y25592314D02*
G01*
X56723314Y26252980D01*
X57383980Y25075686D01*
X56206686Y24415020D01*
X55546020Y25592314D01*
G37*
G36*
X29024314Y65960020D02*
G01*
X27847020Y66620686D01*
X28507686Y67797980D01*
X29684980Y67137314D01*
X29024314Y65960020D01*
G37*
G36*
X56624314Y65960020D02*
G01*
X55447020Y66620686D01*
X56107686Y67797980D01*
X57284980Y67137314D01*
X56624314Y65960020D01*
G37*
G36*
X84224314Y65960020D02*
G01*
X83047020Y66620686D01*
X83707686Y67797980D01*
X84884980Y67137314D01*
X84224314Y65960020D01*
G37*
G36*
X64375686Y26379980D02*
G01*
X65552980Y25719314D01*
X64892314Y24542020D01*
X63715020Y25202686D01*
X64375686Y26379980D01*
G37*
G36*
X36775686Y26379980D02*
G01*
X37952980Y25719314D01*
X37292314Y24542020D01*
X36115020Y25202686D01*
X36775686Y26379980D01*
G37*
D15*
X21082000Y70308000D03*
X19082000Y70308000D03*
D16*
X17082000Y70308000D03*
D15*
X48682000Y70308000D03*
X46682000Y70308000D03*
D16*
X44682000Y70308000D03*
D15*
X76282000Y70308000D03*
X74282000Y70308000D03*
D16*
X72282000Y70308000D03*
D15*
X72318000Y22032000D03*
X74318000Y22032000D03*
D16*
X76318000Y22032000D03*
D15*
X44718000Y22032000D03*
X46718000Y22032000D03*
D16*
X48718000Y22032000D03*
D14*
G36*
X21150314Y51990020D02*
G01*
X19973020Y52650686D01*
X20633686Y53827980D01*
X21810980Y53167314D01*
X21150314Y51990020D01*
G37*
G36*
X48750314Y51990020D02*
G01*
X47573020Y52650686D01*
X48233686Y53827980D01*
X49410980Y53167314D01*
X48750314Y51990020D01*
G37*
G36*
X76350314Y51990020D02*
G01*
X75173020Y52650686D01*
X75833686Y53827980D01*
X77010980Y53167314D01*
X76350314Y51990020D01*
G37*
G36*
X72249686Y40349980D02*
G01*
X73426980Y39689314D01*
X72766314Y38512020D01*
X71589020Y39172686D01*
X72249686Y40349980D01*
G37*
G36*
X44649686Y40349980D02*
G01*
X45826980Y39689314D01*
X45166314Y38512020D01*
X43989020Y39172686D01*
X44649686Y40349980D01*
G37*
G36*
X18127980Y52650686D02*
G01*
X16950686Y51990020D01*
X16290020Y53167314D01*
X17467314Y53827980D01*
X18127980Y52650686D01*
G37*
G36*
X45727980Y52650686D02*
G01*
X44550686Y51990020D01*
X43890020Y53167314D01*
X45067314Y53827980D01*
X45727980Y52650686D01*
G37*
G36*
X73327980Y52650686D02*
G01*
X72150686Y51990020D01*
X71490020Y53167314D01*
X72667314Y53827980D01*
X73327980Y52650686D01*
G37*
G36*
X75272020Y39689314D02*
G01*
X76449314Y40349980D01*
X77109980Y39172686D01*
X75932686Y38512020D01*
X75272020Y39689314D01*
G37*
G36*
X47672020Y39689314D02*
G01*
X48849314Y40349980D01*
X49509980Y39172686D01*
X48332686Y38512020D01*
X47672020Y39689314D01*
G37*
D16*
X11113000Y70308000D03*
X38713000Y70308000D03*
X66313000Y70308000D03*
X82287000Y22032000D03*
X54687000Y22032000D03*
D17*
X19100000Y56620000D03*
X46700000Y56620000D03*
X74300000Y56620000D03*
X74300000Y35720000D03*
X46700000Y35720000D03*
D16*
X27115000Y70308000D03*
X54715000Y70308000D03*
X82315000Y70308000D03*
X66285000Y22032000D03*
X38685000Y22032000D03*
D18*
X21564000Y61977000D03*
X21564000Y65177000D03*
X16664000Y61977000D03*
X16664000Y65177000D03*
X49164000Y61977000D03*
X49164000Y65177000D03*
X44264000Y61977000D03*
X44264000Y65177000D03*
X76764000Y61977000D03*
X76764000Y65177000D03*
X71864000Y61977000D03*
X71864000Y65177000D03*
X71836000Y30363000D03*
X71836000Y27163000D03*
X76736000Y30363000D03*
X76736000Y27163000D03*
X44236000Y30363000D03*
X44236000Y27163000D03*
X49136000Y30363000D03*
X49136000Y27163000D03*
D14*
G36*
X14547089Y65321985D02*
G01*
X14816249Y64842347D01*
X14815724Y64842052D01*
X14827730Y64820657D01*
X14847433Y64775719D01*
X14862637Y64729066D01*
X14873194Y64681147D01*
X14879004Y64632425D01*
X14880010Y64583368D01*
X14876203Y64534448D01*
X14867619Y64486138D01*
X14854341Y64438899D01*
X14836498Y64393192D01*
X14814259Y64349453D01*
X14787842Y64308104D01*
X14757498Y64269544D01*
X14723520Y64234143D01*
X14686236Y64202244D01*
X14646006Y64174152D01*
X14624611Y64162146D01*
X14624906Y64161621D01*
X14188871Y63916930D01*
X14188576Y63917455D01*
X14167181Y63905448D01*
X14122243Y63885746D01*
X14075590Y63870542D01*
X14027672Y63859985D01*
X13978949Y63854174D01*
X13929892Y63853169D01*
X13880972Y63856975D01*
X13832662Y63865559D01*
X13785423Y63878837D01*
X13739716Y63896681D01*
X13695977Y63918920D01*
X13654628Y63945337D01*
X13616068Y63975681D01*
X13580667Y64009658D01*
X13548768Y64046942D01*
X13520677Y64087172D01*
X13508670Y64108568D01*
X13508145Y64108273D01*
X13238985Y64587911D01*
X14547089Y65321985D01*
G37*
G36*
X12236276Y66375948D02*
G01*
X12224270Y66397343D01*
X12204567Y66442281D01*
X12189363Y66488934D01*
X12178806Y66536853D01*
X12172996Y66585575D01*
X12171990Y66634632D01*
X12175797Y66683552D01*
X12184381Y66731862D01*
X12197659Y66779101D01*
X12215502Y66824808D01*
X12237741Y66868547D01*
X12264158Y66909896D01*
X12294502Y66948456D01*
X12328480Y66983857D01*
X12365764Y67015756D01*
X12405994Y67043848D01*
X12427389Y67055854D01*
X12427094Y67056379D01*
X12863129Y67301070D01*
X12863424Y67300545D01*
X12884819Y67312552D01*
X12929757Y67332254D01*
X12976410Y67347458D01*
X13024328Y67358015D01*
X13073051Y67363826D01*
X13122108Y67364831D01*
X13171028Y67361025D01*
X13219338Y67352441D01*
X13266577Y67339163D01*
X13312284Y67321319D01*
X13356023Y67299080D01*
X13397372Y67272663D01*
X13435932Y67242319D01*
X13471333Y67208342D01*
X13503232Y67171058D01*
X13531323Y67130828D01*
X13543330Y67109432D01*
X13543855Y67109727D01*
X13813015Y66630089D01*
X12504911Y65896015D01*
X12235751Y66375653D01*
X12236276Y66375948D01*
G37*
G36*
X14424743Y65540002D02*
G01*
X13116639Y64805929D01*
X12627257Y65677998D01*
X13935361Y66412071D01*
X14424743Y65540002D01*
G37*
G36*
X42147089Y65321985D02*
G01*
X42416249Y64842347D01*
X42415724Y64842052D01*
X42427730Y64820657D01*
X42447433Y64775719D01*
X42462637Y64729066D01*
X42473194Y64681147D01*
X42479004Y64632425D01*
X42480010Y64583368D01*
X42476203Y64534448D01*
X42467619Y64486138D01*
X42454341Y64438899D01*
X42436498Y64393192D01*
X42414259Y64349453D01*
X42387842Y64308104D01*
X42357498Y64269544D01*
X42323520Y64234143D01*
X42286236Y64202244D01*
X42246006Y64174152D01*
X42224611Y64162146D01*
X42224906Y64161621D01*
X41788871Y63916930D01*
X41788576Y63917455D01*
X41767181Y63905448D01*
X41722243Y63885746D01*
X41675590Y63870542D01*
X41627672Y63859985D01*
X41578949Y63854174D01*
X41529892Y63853169D01*
X41480972Y63856975D01*
X41432662Y63865559D01*
X41385423Y63878837D01*
X41339716Y63896681D01*
X41295977Y63918920D01*
X41254628Y63945337D01*
X41216068Y63975681D01*
X41180667Y64009658D01*
X41148768Y64046942D01*
X41120677Y64087172D01*
X41108670Y64108568D01*
X41108145Y64108273D01*
X40838985Y64587911D01*
X42147089Y65321985D01*
G37*
G36*
X39836276Y66375948D02*
G01*
X39824270Y66397343D01*
X39804567Y66442281D01*
X39789363Y66488934D01*
X39778806Y66536853D01*
X39772996Y66585575D01*
X39771990Y66634632D01*
X39775797Y66683552D01*
X39784381Y66731862D01*
X39797659Y66779101D01*
X39815502Y66824808D01*
X39837741Y66868547D01*
X39864158Y66909896D01*
X39894502Y66948456D01*
X39928480Y66983857D01*
X39965764Y67015756D01*
X40005994Y67043848D01*
X40027389Y67055854D01*
X40027094Y67056379D01*
X40463129Y67301070D01*
X40463424Y67300545D01*
X40484819Y67312552D01*
X40529757Y67332254D01*
X40576410Y67347458D01*
X40624328Y67358015D01*
X40673051Y67363826D01*
X40722108Y67364831D01*
X40771028Y67361025D01*
X40819338Y67352441D01*
X40866577Y67339163D01*
X40912284Y67321319D01*
X40956023Y67299080D01*
X40997372Y67272663D01*
X41035932Y67242319D01*
X41071333Y67208342D01*
X41103232Y67171058D01*
X41131323Y67130828D01*
X41143330Y67109432D01*
X41143855Y67109727D01*
X41413015Y66630089D01*
X40104911Y65896015D01*
X39835751Y66375653D01*
X39836276Y66375948D01*
G37*
G36*
X42024743Y65540002D02*
G01*
X40716639Y64805929D01*
X40227257Y65677998D01*
X41535361Y66412071D01*
X42024743Y65540002D01*
G37*
G36*
X69747089Y65321985D02*
G01*
X70016249Y64842347D01*
X70015724Y64842052D01*
X70027730Y64820657D01*
X70047433Y64775719D01*
X70062637Y64729066D01*
X70073194Y64681147D01*
X70079004Y64632425D01*
X70080010Y64583368D01*
X70076203Y64534448D01*
X70067619Y64486138D01*
X70054341Y64438899D01*
X70036498Y64393192D01*
X70014259Y64349453D01*
X69987842Y64308104D01*
X69957498Y64269544D01*
X69923520Y64234143D01*
X69886236Y64202244D01*
X69846006Y64174152D01*
X69824611Y64162146D01*
X69824906Y64161621D01*
X69388871Y63916930D01*
X69388576Y63917455D01*
X69367181Y63905448D01*
X69322243Y63885746D01*
X69275590Y63870542D01*
X69227672Y63859985D01*
X69178949Y63854174D01*
X69129892Y63853169D01*
X69080972Y63856975D01*
X69032662Y63865559D01*
X68985423Y63878837D01*
X68939716Y63896681D01*
X68895977Y63918920D01*
X68854628Y63945337D01*
X68816068Y63975681D01*
X68780667Y64009658D01*
X68748768Y64046942D01*
X68720677Y64087172D01*
X68708670Y64108568D01*
X68708145Y64108273D01*
X68438985Y64587911D01*
X69747089Y65321985D01*
G37*
G36*
X67436276Y66375948D02*
G01*
X67424270Y66397343D01*
X67404567Y66442281D01*
X67389363Y66488934D01*
X67378806Y66536853D01*
X67372996Y66585575D01*
X67371990Y66634632D01*
X67375797Y66683552D01*
X67384381Y66731862D01*
X67397659Y66779101D01*
X67415502Y66824808D01*
X67437741Y66868547D01*
X67464158Y66909896D01*
X67494502Y66948456D01*
X67528480Y66983857D01*
X67565764Y67015756D01*
X67605994Y67043848D01*
X67627389Y67055854D01*
X67627094Y67056379D01*
X68063129Y67301070D01*
X68063424Y67300545D01*
X68084819Y67312552D01*
X68129757Y67332254D01*
X68176410Y67347458D01*
X68224328Y67358015D01*
X68273051Y67363826D01*
X68322108Y67364831D01*
X68371028Y67361025D01*
X68419338Y67352441D01*
X68466577Y67339163D01*
X68512284Y67321319D01*
X68556023Y67299080D01*
X68597372Y67272663D01*
X68635932Y67242319D01*
X68671333Y67208342D01*
X68703232Y67171058D01*
X68731323Y67130828D01*
X68743330Y67109432D01*
X68743855Y67109727D01*
X69013015Y66630089D01*
X67704911Y65896015D01*
X67435751Y66375653D01*
X67436276Y66375948D01*
G37*
G36*
X69624743Y65540002D02*
G01*
X68316639Y64805929D01*
X67827257Y65677998D01*
X69135361Y66412071D01*
X69624743Y65540002D01*
G37*
G36*
X78852911Y27018015D02*
G01*
X78583751Y27497653D01*
X78584276Y27497948D01*
X78572270Y27519343D01*
X78552567Y27564281D01*
X78537363Y27610934D01*
X78526806Y27658853D01*
X78520996Y27707575D01*
X78519990Y27756632D01*
X78523797Y27805552D01*
X78532381Y27853862D01*
X78545659Y27901101D01*
X78563502Y27946808D01*
X78585741Y27990547D01*
X78612158Y28031896D01*
X78642502Y28070456D01*
X78676480Y28105857D01*
X78713764Y28137756D01*
X78753994Y28165848D01*
X78775389Y28177854D01*
X78775094Y28178379D01*
X79211129Y28423070D01*
X79211424Y28422545D01*
X79232819Y28434552D01*
X79277757Y28454254D01*
X79324410Y28469458D01*
X79372328Y28480015D01*
X79421051Y28485826D01*
X79470108Y28486831D01*
X79519028Y28483025D01*
X79567338Y28474441D01*
X79614577Y28461163D01*
X79660284Y28443319D01*
X79704023Y28421080D01*
X79745372Y28394663D01*
X79783932Y28364319D01*
X79819333Y28330342D01*
X79851232Y28293058D01*
X79879323Y28252828D01*
X79891330Y28231432D01*
X79891855Y28231727D01*
X80161015Y27752089D01*
X78852911Y27018015D01*
G37*
G36*
X81163724Y25964052D02*
G01*
X81175730Y25942657D01*
X81195433Y25897719D01*
X81210637Y25851066D01*
X81221194Y25803147D01*
X81227004Y25754425D01*
X81228010Y25705368D01*
X81224203Y25656448D01*
X81215619Y25608138D01*
X81202341Y25560899D01*
X81184498Y25515192D01*
X81162259Y25471453D01*
X81135842Y25430104D01*
X81105498Y25391544D01*
X81071520Y25356143D01*
X81034236Y25324244D01*
X80994006Y25296152D01*
X80972611Y25284146D01*
X80972906Y25283621D01*
X80536871Y25038930D01*
X80536576Y25039455D01*
X80515181Y25027448D01*
X80470243Y25007746D01*
X80423590Y24992542D01*
X80375672Y24981985D01*
X80326949Y24976174D01*
X80277892Y24975169D01*
X80228972Y24978975D01*
X80180662Y24987559D01*
X80133423Y25000837D01*
X80087716Y25018681D01*
X80043977Y25040920D01*
X80002628Y25067337D01*
X79964068Y25097681D01*
X79928667Y25131658D01*
X79896768Y25168942D01*
X79868677Y25209172D01*
X79856670Y25230568D01*
X79856145Y25230273D01*
X79586985Y25709911D01*
X80895089Y26443985D01*
X81164249Y25964347D01*
X81163724Y25964052D01*
G37*
G36*
X78975257Y26799998D02*
G01*
X80283361Y27534071D01*
X80772743Y26662002D01*
X79464639Y25927929D01*
X78975257Y26799998D01*
G37*
G36*
X51252911Y27018015D02*
G01*
X50983751Y27497653D01*
X50984276Y27497948D01*
X50972270Y27519343D01*
X50952567Y27564281D01*
X50937363Y27610934D01*
X50926806Y27658853D01*
X50920996Y27707575D01*
X50919990Y27756632D01*
X50923797Y27805552D01*
X50932381Y27853862D01*
X50945659Y27901101D01*
X50963502Y27946808D01*
X50985741Y27990547D01*
X51012158Y28031896D01*
X51042502Y28070456D01*
X51076480Y28105857D01*
X51113764Y28137756D01*
X51153994Y28165848D01*
X51175389Y28177854D01*
X51175094Y28178379D01*
X51611129Y28423070D01*
X51611424Y28422545D01*
X51632819Y28434552D01*
X51677757Y28454254D01*
X51724410Y28469458D01*
X51772328Y28480015D01*
X51821051Y28485826D01*
X51870108Y28486831D01*
X51919028Y28483025D01*
X51967338Y28474441D01*
X52014577Y28461163D01*
X52060284Y28443319D01*
X52104023Y28421080D01*
X52145372Y28394663D01*
X52183932Y28364319D01*
X52219333Y28330342D01*
X52251232Y28293058D01*
X52279323Y28252828D01*
X52291330Y28231432D01*
X52291855Y28231727D01*
X52561015Y27752089D01*
X51252911Y27018015D01*
G37*
G36*
X53563724Y25964052D02*
G01*
X53575730Y25942657D01*
X53595433Y25897719D01*
X53610637Y25851066D01*
X53621194Y25803147D01*
X53627004Y25754425D01*
X53628010Y25705368D01*
X53624203Y25656448D01*
X53615619Y25608138D01*
X53602341Y25560899D01*
X53584498Y25515192D01*
X53562259Y25471453D01*
X53535842Y25430104D01*
X53505498Y25391544D01*
X53471520Y25356143D01*
X53434236Y25324244D01*
X53394006Y25296152D01*
X53372611Y25284146D01*
X53372906Y25283621D01*
X52936871Y25038930D01*
X52936576Y25039455D01*
X52915181Y25027448D01*
X52870243Y25007746D01*
X52823590Y24992542D01*
X52775672Y24981985D01*
X52726949Y24976174D01*
X52677892Y24975169D01*
X52628972Y24978975D01*
X52580662Y24987559D01*
X52533423Y25000837D01*
X52487716Y25018681D01*
X52443977Y25040920D01*
X52402628Y25067337D01*
X52364068Y25097681D01*
X52328667Y25131658D01*
X52296768Y25168942D01*
X52268677Y25209172D01*
X52256670Y25230568D01*
X52256145Y25230273D01*
X51986985Y25709911D01*
X53295089Y26443985D01*
X53564249Y25964347D01*
X53563724Y25964052D01*
G37*
G36*
X51375257Y26799998D02*
G01*
X52683361Y27534071D01*
X53172743Y26662002D01*
X51864639Y25927929D01*
X51375257Y26799998D01*
G37*
G36*
X12251686Y60880020D02*
G01*
X11591020Y62057314D01*
X12768314Y62717980D01*
X13428980Y61540686D01*
X12251686Y60880020D01*
G37*
G36*
G01*
X12900118Y59724528D02*
X12900118Y59724528D01*
G75*
G02*
X13158432Y60643508I588647J330333D01*
G01*
X13158432Y60643508D01*
G75*
G02*
X14077412Y60385194I330333J-588647D01*
G01*
X14077412Y60385194D01*
G75*
G02*
X13819098Y59466214I-588647J-330333D01*
G01*
X13819098Y59466214D01*
G75*
G02*
X12900118Y59724528I-330333J588647D01*
G01*
G37*
G36*
G01*
X13878883Y57980390D02*
X13878883Y57980390D01*
G75*
G02*
X14137197Y58899370I588647J330333D01*
G01*
X14137197Y58899370D01*
G75*
G02*
X15056177Y58641056I330333J-588647D01*
G01*
X15056177Y58641056D01*
G75*
G02*
X14797863Y57722076I-588647J-330333D01*
G01*
X14797863Y57722076D01*
G75*
G02*
X13878883Y57980390I-330333J588647D01*
G01*
G37*
G36*
X39851686Y60880020D02*
G01*
X39191020Y62057314D01*
X40368314Y62717980D01*
X41028980Y61540686D01*
X39851686Y60880020D01*
G37*
G36*
G01*
X40500118Y59724528D02*
X40500118Y59724528D01*
G75*
G02*
X40758432Y60643508I588647J330333D01*
G01*
X40758432Y60643508D01*
G75*
G02*
X41677412Y60385194I330333J-588647D01*
G01*
X41677412Y60385194D01*
G75*
G02*
X41419098Y59466214I-588647J-330333D01*
G01*
X41419098Y59466214D01*
G75*
G02*
X40500118Y59724528I-330333J588647D01*
G01*
G37*
G36*
G01*
X41478883Y57980390D02*
X41478883Y57980390D01*
G75*
G02*
X41737197Y58899370I588647J330333D01*
G01*
X41737197Y58899370D01*
G75*
G02*
X42656177Y58641056I330333J-588647D01*
G01*
X42656177Y58641056D01*
G75*
G02*
X42397863Y57722076I-588647J-330333D01*
G01*
X42397863Y57722076D01*
G75*
G02*
X41478883Y57980390I-330333J588647D01*
G01*
G37*
G36*
X67451686Y60880020D02*
G01*
X66791020Y62057314D01*
X67968314Y62717980D01*
X68628980Y61540686D01*
X67451686Y60880020D01*
G37*
G36*
G01*
X68100118Y59724528D02*
X68100118Y59724528D01*
G75*
G02*
X68358432Y60643508I588647J330333D01*
G01*
X68358432Y60643508D01*
G75*
G02*
X69277412Y60385194I330333J-588647D01*
G01*
X69277412Y60385194D01*
G75*
G02*
X69019098Y59466214I-588647J-330333D01*
G01*
X69019098Y59466214D01*
G75*
G02*
X68100118Y59724528I-330333J588647D01*
G01*
G37*
G36*
G01*
X69078883Y57980390D02*
X69078883Y57980390D01*
G75*
G02*
X69337197Y58899370I588647J330333D01*
G01*
X69337197Y58899370D01*
G75*
G02*
X70256177Y58641056I330333J-588647D01*
G01*
X70256177Y58641056D01*
G75*
G02*
X69997863Y57722076I-588647J-330333D01*
G01*
X69997863Y57722076D01*
G75*
G02*
X69078883Y57980390I-330333J588647D01*
G01*
G37*
G36*
X81148314Y31459980D02*
G01*
X81808980Y30282686D01*
X80631686Y29622020D01*
X79971020Y30799314D01*
X81148314Y31459980D01*
G37*
G36*
G01*
X80499882Y32615472D02*
X80499882Y32615472D01*
G75*
G02*
X80241568Y31696492I-588647J-330333D01*
G01*
X80241568Y31696492D01*
G75*
G02*
X79322588Y31954806I-330333J588647D01*
G01*
X79322588Y31954806D01*
G75*
G02*
X79580902Y32873786I588647J330333D01*
G01*
X79580902Y32873786D01*
G75*
G02*
X80499882Y32615472I330333J-588647D01*
G01*
G37*
G36*
G01*
X79521117Y34359610D02*
X79521117Y34359610D01*
G75*
G02*
X79262803Y33440630I-588647J-330333D01*
G01*
X79262803Y33440630D01*
G75*
G02*
X78343823Y33698944I-330333J588647D01*
G01*
X78343823Y33698944D01*
G75*
G02*
X78602137Y34617924I588647J330333D01*
G01*
X78602137Y34617924D01*
G75*
G02*
X79521117Y34359610I330333J-588647D01*
G01*
G37*
G36*
X53548314Y31459980D02*
G01*
X54208980Y30282686D01*
X53031686Y29622020D01*
X52371020Y30799314D01*
X53548314Y31459980D01*
G37*
G36*
G01*
X52899882Y32615472D02*
X52899882Y32615472D01*
G75*
G02*
X52641568Y31696492I-588647J-330333D01*
G01*
X52641568Y31696492D01*
G75*
G02*
X51722588Y31954806I-330333J588647D01*
G01*
X51722588Y31954806D01*
G75*
G02*
X51980902Y32873786I588647J330333D01*
G01*
X51980902Y32873786D01*
G75*
G02*
X52899882Y32615472I330333J-588647D01*
G01*
G37*
G36*
G01*
X51921117Y34359610D02*
X51921117Y34359610D01*
G75*
G02*
X51662803Y33440630I-588647J-330333D01*
G01*
X51662803Y33440630D01*
G75*
G02*
X50743823Y33698944I-330333J588647D01*
G01*
X50743823Y33698944D01*
G75*
G02*
X51002137Y34617924I588647J330333D01*
G01*
X51002137Y34617924D01*
G75*
G02*
X51921117Y34359610I330333J-588647D01*
G01*
G37*
D17*
X19100000Y35720000D03*
G36*
G01*
X11339476Y29191631D02*
X11775510Y28946940D01*
G75*
G02*
X11861615Y28640613I-110111J-196216D01*
G01*
X11641393Y28248182D01*
G75*
G02*
X11335066Y28162077I-196216J110111D01*
G01*
X10899032Y28406768D01*
G75*
G02*
X10812927Y28713095I110111J196216D01*
G01*
X11033149Y29105526D01*
G75*
G02*
X11339476Y29191631I196216J-110111D01*
G01*
G37*
G36*
G01*
X10580934Y27839923D02*
X11016968Y27595232D01*
G75*
G02*
X11103073Y27288905I-110111J-196216D01*
G01*
X10882851Y26896474D01*
G75*
G02*
X10576524Y26810369I-196216J110111D01*
G01*
X10140490Y27055060D01*
G75*
G02*
X10054385Y27361387I110111J196216D01*
G01*
X10274607Y27753818D01*
G75*
G02*
X10580934Y27839923I196216J-110111D01*
G01*
G37*
D18*
X21536000Y27163000D03*
X21536000Y30363000D03*
X16636000Y27163000D03*
X16636000Y30363000D03*
D14*
G36*
X9175686Y26379980D02*
G01*
X10352980Y25719314D01*
X9692314Y24542020D01*
X8515020Y25202686D01*
X9175686Y26379980D01*
G37*
G36*
X13273980Y30926314D02*
G01*
X12613314Y29749020D01*
X11436020Y30409686D01*
X12096686Y31586980D01*
X13273980Y30926314D01*
G37*
G36*
G01*
X13922412Y32081806D02*
X13922412Y32081806D01*
G75*
G02*
X13003432Y31823492I-588647J330333D01*
G01*
X13003432Y31823492D01*
G75*
G02*
X12745118Y32742472I330333J588647D01*
G01*
X12745118Y32742472D01*
G75*
G02*
X13664098Y33000786I588647J-330333D01*
G01*
X13664098Y33000786D01*
G75*
G02*
X13922412Y32081806I-330333J-588647D01*
G01*
G37*
G36*
G01*
X14901177Y33825944D02*
X14901177Y33825944D01*
G75*
G02*
X13982197Y33567630I-588647J330333D01*
G01*
X13982197Y33567630D01*
G75*
G02*
X13723883Y34486610I330333J588647D01*
G01*
X13723883Y34486610D01*
G75*
G02*
X14642863Y34744924I588647J-330333D01*
G01*
X14642863Y34744924D01*
G75*
G02*
X14901177Y33825944I-330333J-588647D01*
G01*
G37*
G36*
X17049686Y40349980D02*
G01*
X18226980Y39689314D01*
X17566314Y38512020D01*
X16389020Y39172686D01*
X17049686Y40349980D01*
G37*
G36*
X20072020Y39689314D02*
G01*
X21249314Y40349980D01*
X21909980Y39172686D01*
X20732686Y38512020D01*
X20072020Y39689314D01*
G37*
G36*
G01*
X24321117Y34359610D02*
X24321117Y34359610D01*
G75*
G02*
X24062803Y33440630I-588647J-330333D01*
G01*
X24062803Y33440630D01*
G75*
G02*
X23143823Y33698944I-330333J588647D01*
G01*
X23143823Y33698944D01*
G75*
G02*
X23402137Y34617924I588647J330333D01*
G01*
X23402137Y34617924D01*
G75*
G02*
X24321117Y34359610I330333J-588647D01*
G01*
G37*
G36*
G01*
X25299882Y32615472D02*
X25299882Y32615472D01*
G75*
G02*
X25041568Y31696492I-588647J-330333D01*
G01*
X25041568Y31696492D01*
G75*
G02*
X24122588Y31954806I-330333J588647D01*
G01*
X24122588Y31954806D01*
G75*
G02*
X24380902Y32873786I588647J330333D01*
G01*
X24380902Y32873786D01*
G75*
G02*
X25299882Y32615472I330333J-588647D01*
G01*
G37*
G36*
X25948314Y31459980D02*
G01*
X26608980Y30282686D01*
X25431686Y29622020D01*
X24771020Y30799314D01*
X25948314Y31459980D01*
G37*
G36*
X27946020Y25592314D02*
G01*
X29123314Y26252980D01*
X29783980Y25075686D01*
X28606686Y24415020D01*
X27946020Y25592314D01*
G37*
D16*
X27087000Y22032000D03*
X21118000Y22032000D03*
D15*
X19118000Y22032000D03*
X17118000Y22032000D03*
D16*
X11085000Y22032000D03*
D14*
G36*
X13501015Y25582911D02*
G01*
X13231855Y25103273D01*
X13231330Y25103568D01*
X13219323Y25082172D01*
X13191232Y25041942D01*
X13159333Y25004658D01*
X13123932Y24970681D01*
X13085372Y24940337D01*
X13044023Y24913920D01*
X13000284Y24891681D01*
X12954577Y24873837D01*
X12907338Y24860559D01*
X12859028Y24851975D01*
X12810108Y24848169D01*
X12761051Y24849174D01*
X12712328Y24854985D01*
X12664410Y24865542D01*
X12617757Y24880746D01*
X12572819Y24900448D01*
X12551424Y24912455D01*
X12551129Y24911930D01*
X12115094Y25156621D01*
X12115389Y25157146D01*
X12093994Y25169152D01*
X12053764Y25197244D01*
X12016480Y25229143D01*
X11982502Y25264544D01*
X11952158Y25303104D01*
X11925741Y25344453D01*
X11903502Y25388192D01*
X11885659Y25433899D01*
X11872381Y25481138D01*
X11863797Y25529448D01*
X11859990Y25578368D01*
X11860996Y25627425D01*
X11866806Y25676147D01*
X11877363Y25724066D01*
X11892567Y25770719D01*
X11912270Y25815657D01*
X11924276Y25837052D01*
X11923751Y25837347D01*
X12192911Y26316985D01*
X13501015Y25582911D01*
G37*
G36*
X13196670Y28104432D02*
G01*
X13208677Y28125828D01*
X13236768Y28166058D01*
X13268667Y28203342D01*
X13304068Y28237319D01*
X13342628Y28267663D01*
X13383977Y28294080D01*
X13427716Y28316319D01*
X13473423Y28334163D01*
X13520662Y28347441D01*
X13568972Y28356025D01*
X13617892Y28359831D01*
X13666949Y28358826D01*
X13715672Y28353015D01*
X13763590Y28342458D01*
X13810243Y28327254D01*
X13855181Y28307552D01*
X13876576Y28295545D01*
X13876871Y28296070D01*
X14312906Y28051379D01*
X14312611Y28050854D01*
X14334006Y28038848D01*
X14374236Y28010756D01*
X14411520Y27978857D01*
X14445498Y27943456D01*
X14475842Y27904896D01*
X14502259Y27863547D01*
X14524498Y27819808D01*
X14542341Y27774101D01*
X14555619Y27726862D01*
X14564203Y27678552D01*
X14568010Y27629632D01*
X14567004Y27580575D01*
X14561194Y27531853D01*
X14550637Y27483934D01*
X14535433Y27437281D01*
X14515730Y27392343D01*
X14503724Y27370948D01*
X14504249Y27370653D01*
X14235089Y26891015D01*
X12926985Y27625089D01*
X13196145Y28104727D01*
X13196670Y28104432D01*
G37*
G36*
X13623361Y25800929D02*
G01*
X12315257Y26535002D01*
X12804639Y27407071D01*
X14112743Y26672998D01*
X13623361Y25800929D01*
G37*
G36*
X23775257Y26799998D02*
G01*
X25083361Y27534071D01*
X25572743Y26662002D01*
X24264639Y25927929D01*
X23775257Y26799998D01*
G37*
G36*
X25963724Y25964052D02*
G01*
X25975730Y25942657D01*
X25995433Y25897719D01*
X26010637Y25851066D01*
X26021194Y25803147D01*
X26027004Y25754425D01*
X26028010Y25705368D01*
X26024203Y25656448D01*
X26015619Y25608138D01*
X26002341Y25560899D01*
X25984498Y25515192D01*
X25962259Y25471453D01*
X25935842Y25430104D01*
X25905498Y25391544D01*
X25871520Y25356143D01*
X25834236Y25324244D01*
X25794006Y25296152D01*
X25772611Y25284146D01*
X25772906Y25283621D01*
X25336871Y25038930D01*
X25336576Y25039455D01*
X25315181Y25027448D01*
X25270243Y25007746D01*
X25223590Y24992542D01*
X25175672Y24981985D01*
X25126949Y24976174D01*
X25077892Y24975169D01*
X25028972Y24978975D01*
X24980662Y24987559D01*
X24933423Y25000837D01*
X24887716Y25018681D01*
X24843977Y25040920D01*
X24802628Y25067337D01*
X24764068Y25097681D01*
X24728667Y25131658D01*
X24696768Y25168942D01*
X24668677Y25209172D01*
X24656670Y25230568D01*
X24656145Y25230273D01*
X24386985Y25709911D01*
X25695089Y26443985D01*
X25964249Y25964347D01*
X25963724Y25964052D01*
G37*
G36*
X23652911Y27018015D02*
G01*
X23383751Y27497653D01*
X23384276Y27497948D01*
X23372270Y27519343D01*
X23352567Y27564281D01*
X23337363Y27610934D01*
X23326806Y27658853D01*
X23320996Y27707575D01*
X23319990Y27756632D01*
X23323797Y27805552D01*
X23332381Y27853862D01*
X23345659Y27901101D01*
X23363502Y27946808D01*
X23385741Y27990547D01*
X23412158Y28031896D01*
X23442502Y28070456D01*
X23476480Y28105857D01*
X23513764Y28137756D01*
X23553994Y28165848D01*
X23575389Y28177854D01*
X23575094Y28178379D01*
X24011129Y28423070D01*
X24011424Y28422545D01*
X24032819Y28434552D01*
X24077757Y28454254D01*
X24124410Y28469458D01*
X24172328Y28480015D01*
X24221051Y28485826D01*
X24270108Y28486831D01*
X24319028Y28483025D01*
X24367338Y28474441D01*
X24414577Y28461163D01*
X24460284Y28443319D01*
X24504023Y28421080D01*
X24545372Y28394663D01*
X24583932Y28364319D01*
X24619333Y28330342D01*
X24651232Y28293058D01*
X24679323Y28252828D01*
X24691330Y28231432D01*
X24691855Y28231727D01*
X24961015Y27752089D01*
X23652911Y27018015D01*
G37*
G36*
X18336000Y23822000D02*
G01*
X17786000Y23822000D01*
X17786000Y23822602D01*
X17761466Y23822602D01*
X17712635Y23827412D01*
X17664510Y23836984D01*
X17617555Y23851228D01*
X17572222Y23870005D01*
X17528949Y23893136D01*
X17488150Y23920396D01*
X17450221Y23951524D01*
X17415524Y23986221D01*
X17384396Y24024150D01*
X17357136Y24064949D01*
X17334005Y24108222D01*
X17315228Y24153555D01*
X17300984Y24200510D01*
X17291412Y24248635D01*
X17286602Y24297466D01*
X17286602Y24322000D01*
X17286000Y24322000D01*
X17286000Y24822000D01*
X17286602Y24822000D01*
X17286602Y24846534D01*
X17291412Y24895365D01*
X17300984Y24943490D01*
X17315228Y24990445D01*
X17334005Y25035778D01*
X17357136Y25079051D01*
X17384396Y25119850D01*
X17415524Y25157779D01*
X17450221Y25192476D01*
X17488150Y25223604D01*
X17528949Y25250864D01*
X17572222Y25273995D01*
X17617555Y25292772D01*
X17664510Y25307016D01*
X17712635Y25316588D01*
X17761466Y25321398D01*
X17786000Y25321398D01*
X17786000Y25322000D01*
X18336000Y25322000D01*
X18336000Y23822000D01*
G37*
G36*
X20386000Y25321398D02*
G01*
X20410534Y25321398D01*
X20459365Y25316588D01*
X20507490Y25307016D01*
X20554445Y25292772D01*
X20599778Y25273995D01*
X20643051Y25250864D01*
X20683850Y25223604D01*
X20721779Y25192476D01*
X20756476Y25157779D01*
X20787604Y25119850D01*
X20814864Y25079051D01*
X20837995Y25035778D01*
X20856772Y24990445D01*
X20871016Y24943490D01*
X20880588Y24895365D01*
X20885398Y24846534D01*
X20885398Y24822000D01*
X20886000Y24822000D01*
X20886000Y24322000D01*
X20885398Y24322000D01*
X20885398Y24297466D01*
X20880588Y24248635D01*
X20871016Y24200510D01*
X20856772Y24153555D01*
X20837995Y24108222D01*
X20814864Y24064949D01*
X20787604Y24024150D01*
X20756476Y23986221D01*
X20721779Y23951524D01*
X20683850Y23920396D01*
X20643051Y23893136D01*
X20599778Y23870005D01*
X20554445Y23851228D01*
X20507490Y23836984D01*
X20459365Y23827412D01*
X20410534Y23822602D01*
X20386000Y23822602D01*
X20386000Y23822000D01*
X19836000Y23822000D01*
X19836000Y25322000D01*
X20386000Y25322000D01*
X20386000Y25321398D01*
G37*
D13*
X19086000Y24572000D03*
M02*
