G04 #@! TF.GenerationSoftware,KiCad,Pcbnew,(5.1.12)-1*
G04 #@! TF.CreationDate,2023-06-20T10:26:49+09:00*
G04 #@! TF.ProjectId,LED_Sphere_3V-TypeC-Panelized,4c45445f-5370-4686-9572-655f33562d54,rev?*
G04 #@! TF.SameCoordinates,PX5a06e00PY8f0d180*
G04 #@! TF.FileFunction,Soldermask,Bot*
G04 #@! TF.FilePolarity,Negative*
%FSLAX46Y46*%
G04 Gerber Fmt 4.6, Leading zero omitted, Abs format (unit mm)*
G04 Created by KiCad (PCBNEW (5.1.12)-1) date 2023-06-20 10:26:49*
%MOMM*%
%LPD*%
G01*
G04 APERTURE LIST*
%ADD10C,0.600000*%
%ADD11C,0.100000*%
%ADD12O,1.350000X1.350000*%
%ADD13R,1.350000X1.350000*%
%ADD14C,2.700000*%
G04 APERTURE END LIST*
D10*
X88100000Y21370000D03*
X60500000Y21370000D03*
X32900000Y21370000D03*
X5300000Y21370000D03*
X88100000Y70970000D03*
X60500000Y70970000D03*
X32900000Y70970000D03*
X5300000Y70970000D03*
G36*
G01*
X23298823Y58514056D02*
X23298823Y58514056D01*
G75*
G02*
X24217803Y58772370I588647J-330333D01*
G01*
X24217803Y58772370D01*
G75*
G02*
X24476117Y57853390I-330333J-588647D01*
G01*
X24476117Y57853390D01*
G75*
G02*
X23557137Y57595076I-588647J330333D01*
G01*
X23557137Y57595076D01*
G75*
G02*
X23298823Y58514056I330333J588647D01*
G01*
G37*
G36*
G01*
X24277588Y60258194D02*
X24277588Y60258194D01*
G75*
G02*
X25196568Y60516508I588647J-330333D01*
G01*
X25196568Y60516508D01*
G75*
G02*
X25454882Y59597528I-330333J-588647D01*
G01*
X25454882Y59597528D01*
G75*
G02*
X24535902Y59339214I-588647J330333D01*
G01*
X24535902Y59339214D01*
G75*
G02*
X24277588Y60258194I330333J588647D01*
G01*
G37*
D11*
G36*
X24926020Y61413686D02*
G01*
X25586686Y62590980D01*
X26763980Y61930314D01*
X26103314Y60753020D01*
X24926020Y61413686D01*
G37*
G36*
G01*
X50898823Y58514056D02*
X50898823Y58514056D01*
G75*
G02*
X51817803Y58772370I588647J-330333D01*
G01*
X51817803Y58772370D01*
G75*
G02*
X52076117Y57853390I-330333J-588647D01*
G01*
X52076117Y57853390D01*
G75*
G02*
X51157137Y57595076I-588647J330333D01*
G01*
X51157137Y57595076D01*
G75*
G02*
X50898823Y58514056I330333J588647D01*
G01*
G37*
G36*
G01*
X51877588Y60258194D02*
X51877588Y60258194D01*
G75*
G02*
X52796568Y60516508I588647J-330333D01*
G01*
X52796568Y60516508D01*
G75*
G02*
X53054882Y59597528I-330333J-588647D01*
G01*
X53054882Y59597528D01*
G75*
G02*
X52135902Y59339214I-588647J330333D01*
G01*
X52135902Y59339214D01*
G75*
G02*
X51877588Y60258194I330333J588647D01*
G01*
G37*
G36*
X52526020Y61413686D02*
G01*
X53186686Y62590980D01*
X54363980Y61930314D01*
X53703314Y60753020D01*
X52526020Y61413686D01*
G37*
G36*
G01*
X78498823Y58514056D02*
X78498823Y58514056D01*
G75*
G02*
X79417803Y58772370I588647J-330333D01*
G01*
X79417803Y58772370D01*
G75*
G02*
X79676117Y57853390I-330333J-588647D01*
G01*
X79676117Y57853390D01*
G75*
G02*
X78757137Y57595076I-588647J330333D01*
G01*
X78757137Y57595076D01*
G75*
G02*
X78498823Y58514056I330333J588647D01*
G01*
G37*
G36*
G01*
X79477588Y60258194D02*
X79477588Y60258194D01*
G75*
G02*
X80396568Y60516508I588647J-330333D01*
G01*
X80396568Y60516508D01*
G75*
G02*
X80654882Y59597528I-330333J-588647D01*
G01*
X80654882Y59597528D01*
G75*
G02*
X79735902Y59339214I-588647J330333D01*
G01*
X79735902Y59339214D01*
G75*
G02*
X79477588Y60258194I330333J588647D01*
G01*
G37*
G36*
X80126020Y61413686D02*
G01*
X80786686Y62590980D01*
X81963980Y61930314D01*
X81303314Y60753020D01*
X80126020Y61413686D01*
G37*
G36*
G01*
X70101177Y33825944D02*
X70101177Y33825944D01*
G75*
G02*
X69182197Y33567630I-588647J330333D01*
G01*
X69182197Y33567630D01*
G75*
G02*
X68923883Y34486610I330333J588647D01*
G01*
X68923883Y34486610D01*
G75*
G02*
X69842863Y34744924I588647J-330333D01*
G01*
X69842863Y34744924D01*
G75*
G02*
X70101177Y33825944I-330333J-588647D01*
G01*
G37*
G36*
G01*
X69122412Y32081806D02*
X69122412Y32081806D01*
G75*
G02*
X68203432Y31823492I-588647J330333D01*
G01*
X68203432Y31823492D01*
G75*
G02*
X67945118Y32742472I330333J588647D01*
G01*
X67945118Y32742472D01*
G75*
G02*
X68864098Y33000786I588647J-330333D01*
G01*
X68864098Y33000786D01*
G75*
G02*
X69122412Y32081806I-330333J-588647D01*
G01*
G37*
G36*
X68473980Y30926314D02*
G01*
X67813314Y29749020D01*
X66636020Y30409686D01*
X67296686Y31586980D01*
X68473980Y30926314D01*
G37*
G36*
G01*
X42501177Y33825944D02*
X42501177Y33825944D01*
G75*
G02*
X41582197Y33567630I-588647J330333D01*
G01*
X41582197Y33567630D01*
G75*
G02*
X41323883Y34486610I330333J588647D01*
G01*
X41323883Y34486610D01*
G75*
G02*
X42242863Y34744924I588647J-330333D01*
G01*
X42242863Y34744924D01*
G75*
G02*
X42501177Y33825944I-330333J-588647D01*
G01*
G37*
G36*
G01*
X41522412Y32081806D02*
X41522412Y32081806D01*
G75*
G02*
X40603432Y31823492I-588647J330333D01*
G01*
X40603432Y31823492D01*
G75*
G02*
X40345118Y32742472I330333J588647D01*
G01*
X40345118Y32742472D01*
G75*
G02*
X41264098Y33000786I588647J-330333D01*
G01*
X41264098Y33000786D01*
G75*
G02*
X41522412Y32081806I-330333J-588647D01*
G01*
G37*
G36*
X40873980Y30926314D02*
G01*
X40213314Y29749020D01*
X39036020Y30409686D01*
X39696686Y31586980D01*
X40873980Y30926314D01*
G37*
G36*
X10253980Y66747686D02*
G01*
X9076686Y66087020D01*
X8416020Y67264314D01*
X9593314Y67924980D01*
X10253980Y66747686D01*
G37*
G36*
X37853980Y66747686D02*
G01*
X36676686Y66087020D01*
X36016020Y67264314D01*
X37193314Y67924980D01*
X37853980Y66747686D01*
G37*
G36*
X65453980Y66747686D02*
G01*
X64276686Y66087020D01*
X63616020Y67264314D01*
X64793314Y67924980D01*
X65453980Y66747686D01*
G37*
G36*
X83146020Y25592314D02*
G01*
X84323314Y26252980D01*
X84983980Y25075686D01*
X83806686Y24415020D01*
X83146020Y25592314D01*
G37*
G36*
X55546020Y25592314D02*
G01*
X56723314Y26252980D01*
X57383980Y25075686D01*
X56206686Y24415020D01*
X55546020Y25592314D01*
G37*
G36*
X29024314Y65960020D02*
G01*
X27847020Y66620686D01*
X28507686Y67797980D01*
X29684980Y67137314D01*
X29024314Y65960020D01*
G37*
G36*
X56624314Y65960020D02*
G01*
X55447020Y66620686D01*
X56107686Y67797980D01*
X57284980Y67137314D01*
X56624314Y65960020D01*
G37*
G36*
X84224314Y65960020D02*
G01*
X83047020Y66620686D01*
X83707686Y67797980D01*
X84884980Y67137314D01*
X84224314Y65960020D01*
G37*
G36*
X64375686Y26379980D02*
G01*
X65552980Y25719314D01*
X64892314Y24542020D01*
X63715020Y25202686D01*
X64375686Y26379980D01*
G37*
G36*
X36775686Y26379980D02*
G01*
X37952980Y25719314D01*
X37292314Y24542020D01*
X36115020Y25202686D01*
X36775686Y26379980D01*
G37*
D12*
X21082000Y70308000D03*
X19082000Y70308000D03*
D13*
X17082000Y70308000D03*
D12*
X48682000Y70308000D03*
X46682000Y70308000D03*
D13*
X44682000Y70308000D03*
D12*
X76282000Y70308000D03*
X74282000Y70308000D03*
D13*
X72282000Y70308000D03*
D12*
X72318000Y22032000D03*
X74318000Y22032000D03*
D13*
X76318000Y22032000D03*
D12*
X44718000Y22032000D03*
X46718000Y22032000D03*
D13*
X48718000Y22032000D03*
D11*
G36*
X21150314Y51990020D02*
G01*
X19973020Y52650686D01*
X20633686Y53827980D01*
X21810980Y53167314D01*
X21150314Y51990020D01*
G37*
G36*
X48750314Y51990020D02*
G01*
X47573020Y52650686D01*
X48233686Y53827980D01*
X49410980Y53167314D01*
X48750314Y51990020D01*
G37*
G36*
X76350314Y51990020D02*
G01*
X75173020Y52650686D01*
X75833686Y53827980D01*
X77010980Y53167314D01*
X76350314Y51990020D01*
G37*
G36*
X72249686Y40349980D02*
G01*
X73426980Y39689314D01*
X72766314Y38512020D01*
X71589020Y39172686D01*
X72249686Y40349980D01*
G37*
G36*
X44649686Y40349980D02*
G01*
X45826980Y39689314D01*
X45166314Y38512020D01*
X43989020Y39172686D01*
X44649686Y40349980D01*
G37*
G36*
X18127980Y52650686D02*
G01*
X16950686Y51990020D01*
X16290020Y53167314D01*
X17467314Y53827980D01*
X18127980Y52650686D01*
G37*
G36*
X45727980Y52650686D02*
G01*
X44550686Y51990020D01*
X43890020Y53167314D01*
X45067314Y53827980D01*
X45727980Y52650686D01*
G37*
G36*
X73327980Y52650686D02*
G01*
X72150686Y51990020D01*
X71490020Y53167314D01*
X72667314Y53827980D01*
X73327980Y52650686D01*
G37*
G36*
X75272020Y39689314D02*
G01*
X76449314Y40349980D01*
X77109980Y39172686D01*
X75932686Y38512020D01*
X75272020Y39689314D01*
G37*
G36*
X47672020Y39689314D02*
G01*
X48849314Y40349980D01*
X49509980Y39172686D01*
X48332686Y38512020D01*
X47672020Y39689314D01*
G37*
D13*
X11113000Y70308000D03*
X38713000Y70308000D03*
X66313000Y70308000D03*
X82287000Y22032000D03*
X54687000Y22032000D03*
D14*
X19100000Y56620000D03*
X46700000Y56620000D03*
X74300000Y56620000D03*
X74300000Y35720000D03*
X46700000Y35720000D03*
D13*
X27115000Y70308000D03*
X54715000Y70308000D03*
X82315000Y70308000D03*
X66285000Y22032000D03*
X38685000Y22032000D03*
D11*
G36*
X12251686Y60880020D02*
G01*
X11591020Y62057314D01*
X12768314Y62717980D01*
X13428980Y61540686D01*
X12251686Y60880020D01*
G37*
G36*
G01*
X12900118Y59724528D02*
X12900118Y59724528D01*
G75*
G02*
X13158432Y60643508I588647J330333D01*
G01*
X13158432Y60643508D01*
G75*
G02*
X14077412Y60385194I330333J-588647D01*
G01*
X14077412Y60385194D01*
G75*
G02*
X13819098Y59466214I-588647J-330333D01*
G01*
X13819098Y59466214D01*
G75*
G02*
X12900118Y59724528I-330333J588647D01*
G01*
G37*
G36*
G01*
X13878883Y57980390D02*
X13878883Y57980390D01*
G75*
G02*
X14137197Y58899370I588647J330333D01*
G01*
X14137197Y58899370D01*
G75*
G02*
X15056177Y58641056I330333J-588647D01*
G01*
X15056177Y58641056D01*
G75*
G02*
X14797863Y57722076I-588647J-330333D01*
G01*
X14797863Y57722076D01*
G75*
G02*
X13878883Y57980390I-330333J588647D01*
G01*
G37*
G36*
X39851686Y60880020D02*
G01*
X39191020Y62057314D01*
X40368314Y62717980D01*
X41028980Y61540686D01*
X39851686Y60880020D01*
G37*
G36*
G01*
X40500118Y59724528D02*
X40500118Y59724528D01*
G75*
G02*
X40758432Y60643508I588647J330333D01*
G01*
X40758432Y60643508D01*
G75*
G02*
X41677412Y60385194I330333J-588647D01*
G01*
X41677412Y60385194D01*
G75*
G02*
X41419098Y59466214I-588647J-330333D01*
G01*
X41419098Y59466214D01*
G75*
G02*
X40500118Y59724528I-330333J588647D01*
G01*
G37*
G36*
G01*
X41478883Y57980390D02*
X41478883Y57980390D01*
G75*
G02*
X41737197Y58899370I588647J330333D01*
G01*
X41737197Y58899370D01*
G75*
G02*
X42656177Y58641056I330333J-588647D01*
G01*
X42656177Y58641056D01*
G75*
G02*
X42397863Y57722076I-588647J-330333D01*
G01*
X42397863Y57722076D01*
G75*
G02*
X41478883Y57980390I-330333J588647D01*
G01*
G37*
G36*
X67451686Y60880020D02*
G01*
X66791020Y62057314D01*
X67968314Y62717980D01*
X68628980Y61540686D01*
X67451686Y60880020D01*
G37*
G36*
G01*
X68100118Y59724528D02*
X68100118Y59724528D01*
G75*
G02*
X68358432Y60643508I588647J330333D01*
G01*
X68358432Y60643508D01*
G75*
G02*
X69277412Y60385194I330333J-588647D01*
G01*
X69277412Y60385194D01*
G75*
G02*
X69019098Y59466214I-588647J-330333D01*
G01*
X69019098Y59466214D01*
G75*
G02*
X68100118Y59724528I-330333J588647D01*
G01*
G37*
G36*
G01*
X69078883Y57980390D02*
X69078883Y57980390D01*
G75*
G02*
X69337197Y58899370I588647J330333D01*
G01*
X69337197Y58899370D01*
G75*
G02*
X70256177Y58641056I330333J-588647D01*
G01*
X70256177Y58641056D01*
G75*
G02*
X69997863Y57722076I-588647J-330333D01*
G01*
X69997863Y57722076D01*
G75*
G02*
X69078883Y57980390I-330333J588647D01*
G01*
G37*
G36*
X81148314Y31459980D02*
G01*
X81808980Y30282686D01*
X80631686Y29622020D01*
X79971020Y30799314D01*
X81148314Y31459980D01*
G37*
G36*
G01*
X80499882Y32615472D02*
X80499882Y32615472D01*
G75*
G02*
X80241568Y31696492I-588647J-330333D01*
G01*
X80241568Y31696492D01*
G75*
G02*
X79322588Y31954806I-330333J588647D01*
G01*
X79322588Y31954806D01*
G75*
G02*
X79580902Y32873786I588647J330333D01*
G01*
X79580902Y32873786D01*
G75*
G02*
X80499882Y32615472I330333J-588647D01*
G01*
G37*
G36*
G01*
X79521117Y34359610D02*
X79521117Y34359610D01*
G75*
G02*
X79262803Y33440630I-588647J-330333D01*
G01*
X79262803Y33440630D01*
G75*
G02*
X78343823Y33698944I-330333J588647D01*
G01*
X78343823Y33698944D01*
G75*
G02*
X78602137Y34617924I588647J330333D01*
G01*
X78602137Y34617924D01*
G75*
G02*
X79521117Y34359610I330333J-588647D01*
G01*
G37*
G36*
X53548314Y31459980D02*
G01*
X54208980Y30282686D01*
X53031686Y29622020D01*
X52371020Y30799314D01*
X53548314Y31459980D01*
G37*
G36*
G01*
X52899882Y32615472D02*
X52899882Y32615472D01*
G75*
G02*
X52641568Y31696492I-588647J-330333D01*
G01*
X52641568Y31696492D01*
G75*
G02*
X51722588Y31954806I-330333J588647D01*
G01*
X51722588Y31954806D01*
G75*
G02*
X51980902Y32873786I588647J330333D01*
G01*
X51980902Y32873786D01*
G75*
G02*
X52899882Y32615472I330333J-588647D01*
G01*
G37*
G36*
G01*
X51921117Y34359610D02*
X51921117Y34359610D01*
G75*
G02*
X51662803Y33440630I-588647J-330333D01*
G01*
X51662803Y33440630D01*
G75*
G02*
X50743823Y33698944I-330333J588647D01*
G01*
X50743823Y33698944D01*
G75*
G02*
X51002137Y34617924I588647J330333D01*
G01*
X51002137Y34617924D01*
G75*
G02*
X51921117Y34359610I330333J-588647D01*
G01*
G37*
D14*
X19100000Y35720000D03*
D11*
G36*
X9175686Y26379980D02*
G01*
X10352980Y25719314D01*
X9692314Y24542020D01*
X8515020Y25202686D01*
X9175686Y26379980D01*
G37*
G36*
X13273980Y30926314D02*
G01*
X12613314Y29749020D01*
X11436020Y30409686D01*
X12096686Y31586980D01*
X13273980Y30926314D01*
G37*
G36*
G01*
X13922412Y32081806D02*
X13922412Y32081806D01*
G75*
G02*
X13003432Y31823492I-588647J330333D01*
G01*
X13003432Y31823492D01*
G75*
G02*
X12745118Y32742472I330333J588647D01*
G01*
X12745118Y32742472D01*
G75*
G02*
X13664098Y33000786I588647J-330333D01*
G01*
X13664098Y33000786D01*
G75*
G02*
X13922412Y32081806I-330333J-588647D01*
G01*
G37*
G36*
G01*
X14901177Y33825944D02*
X14901177Y33825944D01*
G75*
G02*
X13982197Y33567630I-588647J330333D01*
G01*
X13982197Y33567630D01*
G75*
G02*
X13723883Y34486610I330333J588647D01*
G01*
X13723883Y34486610D01*
G75*
G02*
X14642863Y34744924I588647J-330333D01*
G01*
X14642863Y34744924D01*
G75*
G02*
X14901177Y33825944I-330333J-588647D01*
G01*
G37*
G36*
X17049686Y40349980D02*
G01*
X18226980Y39689314D01*
X17566314Y38512020D01*
X16389020Y39172686D01*
X17049686Y40349980D01*
G37*
G36*
X20072020Y39689314D02*
G01*
X21249314Y40349980D01*
X21909980Y39172686D01*
X20732686Y38512020D01*
X20072020Y39689314D01*
G37*
G36*
G01*
X24321117Y34359610D02*
X24321117Y34359610D01*
G75*
G02*
X24062803Y33440630I-588647J-330333D01*
G01*
X24062803Y33440630D01*
G75*
G02*
X23143823Y33698944I-330333J588647D01*
G01*
X23143823Y33698944D01*
G75*
G02*
X23402137Y34617924I588647J330333D01*
G01*
X23402137Y34617924D01*
G75*
G02*
X24321117Y34359610I330333J-588647D01*
G01*
G37*
G36*
G01*
X25299882Y32615472D02*
X25299882Y32615472D01*
G75*
G02*
X25041568Y31696492I-588647J-330333D01*
G01*
X25041568Y31696492D01*
G75*
G02*
X24122588Y31954806I-330333J588647D01*
G01*
X24122588Y31954806D01*
G75*
G02*
X24380902Y32873786I588647J330333D01*
G01*
X24380902Y32873786D01*
G75*
G02*
X25299882Y32615472I330333J-588647D01*
G01*
G37*
G36*
X25948314Y31459980D02*
G01*
X26608980Y30282686D01*
X25431686Y29622020D01*
X24771020Y30799314D01*
X25948314Y31459980D01*
G37*
G36*
X27946020Y25592314D02*
G01*
X29123314Y26252980D01*
X29783980Y25075686D01*
X28606686Y24415020D01*
X27946020Y25592314D01*
G37*
D13*
X27087000Y22032000D03*
X21118000Y22032000D03*
D12*
X19118000Y22032000D03*
X17118000Y22032000D03*
D13*
X11085000Y22032000D03*
M02*
