G04 #@! TF.GenerationSoftware,KiCad,Pcbnew,(5.1.12)-1*
G04 #@! TF.CreationDate,2023-06-20T10:26:49+09:00*
G04 #@! TF.ProjectId,LED_Sphere_3V-TypeC-Panelized,4c45445f-5370-4686-9572-655f33562d54,rev?*
G04 #@! TF.SameCoordinates,PX5a06e00PY8f0d180*
G04 #@! TF.FileFunction,Legend,Bot*
G04 #@! TF.FilePolarity,Positive*
%FSLAX46Y46*%
G04 Gerber Fmt 4.6, Leading zero omitted, Abs format (unit mm)*
G04 Created by KiCad (PCBNEW (5.1.12)-1) date 2023-06-20 10:26:49*
%MOMM*%
%LPD*%
G01*
G04 APERTURE LIST*
%ADD10C,0.150000*%
%ADD11C,0.600000*%
%ADD12C,0.100000*%
%ADD13O,1.350000X1.350000*%
%ADD14R,1.350000X1.350000*%
%ADD15C,2.700000*%
G04 APERTURE END LIST*
D10*
X12520000Y64947381D02*
X12043809Y64947381D01*
X12043809Y63947381D01*
X12853333Y64423572D02*
X13186666Y64423572D01*
X13329523Y64947381D02*
X12853333Y64947381D01*
X12853333Y63947381D01*
X13329523Y63947381D01*
X13758095Y64947381D02*
X13758095Y63947381D01*
X13996190Y63947381D01*
X14139047Y63995000D01*
X14234285Y64090239D01*
X14281904Y64185477D01*
X14329523Y64375953D01*
X14329523Y64518810D01*
X14281904Y64709286D01*
X14234285Y64804524D01*
X14139047Y64899762D01*
X13996190Y64947381D01*
X13758095Y64947381D01*
X15472380Y64899762D02*
X15615238Y64947381D01*
X15853333Y64947381D01*
X15948571Y64899762D01*
X15996190Y64852143D01*
X16043809Y64756905D01*
X16043809Y64661667D01*
X15996190Y64566429D01*
X15948571Y64518810D01*
X15853333Y64471191D01*
X15662857Y64423572D01*
X15567619Y64375953D01*
X15520000Y64328334D01*
X15472380Y64233096D01*
X15472380Y64137858D01*
X15520000Y64042620D01*
X15567619Y63995000D01*
X15662857Y63947381D01*
X15900952Y63947381D01*
X16043809Y63995000D01*
X16472380Y64280715D02*
X16472380Y65280715D01*
X16472380Y64328334D02*
X16567619Y64280715D01*
X16758095Y64280715D01*
X16853333Y64328334D01*
X16900952Y64375953D01*
X16948571Y64471191D01*
X16948571Y64756905D01*
X16900952Y64852143D01*
X16853333Y64899762D01*
X16758095Y64947381D01*
X16567619Y64947381D01*
X16472380Y64899762D01*
X17377142Y64947381D02*
X17377142Y63947381D01*
X17805714Y64947381D02*
X17805714Y64423572D01*
X17758095Y64328334D01*
X17662857Y64280715D01*
X17520000Y64280715D01*
X17424761Y64328334D01*
X17377142Y64375953D01*
X18662857Y64899762D02*
X18567619Y64947381D01*
X18377142Y64947381D01*
X18281904Y64899762D01*
X18234285Y64804524D01*
X18234285Y64423572D01*
X18281904Y64328334D01*
X18377142Y64280715D01*
X18567619Y64280715D01*
X18662857Y64328334D01*
X18710476Y64423572D01*
X18710476Y64518810D01*
X18234285Y64614048D01*
X19520000Y64899762D02*
X19424761Y64947381D01*
X19234285Y64947381D01*
X19139047Y64899762D01*
X19091428Y64804524D01*
X19091428Y64423572D01*
X19139047Y64328334D01*
X19234285Y64280715D01*
X19424761Y64280715D01*
X19520000Y64328334D01*
X19567619Y64423572D01*
X19567619Y64518810D01*
X19091428Y64614048D01*
X19996190Y64947381D02*
X19996190Y64280715D01*
X19996190Y64471191D02*
X20043809Y64375953D01*
X20091428Y64328334D01*
X20186666Y64280715D01*
X20281904Y64280715D01*
X20996190Y64899762D02*
X20900952Y64947381D01*
X20710476Y64947381D01*
X20615238Y64899762D01*
X20567619Y64804524D01*
X20567619Y64423572D01*
X20615238Y64328334D01*
X20710476Y64280715D01*
X20900952Y64280715D01*
X20996190Y64328334D01*
X21043809Y64423572D01*
X21043809Y64518810D01*
X20567619Y64614048D01*
X22234285Y64947381D02*
X22234285Y63947381D01*
X22234285Y64328334D02*
X22329523Y64280715D01*
X22520000Y64280715D01*
X22615238Y64328334D01*
X22662857Y64375953D01*
X22710476Y64471191D01*
X22710476Y64756905D01*
X22662857Y64852143D01*
X22615238Y64899762D01*
X22520000Y64947381D01*
X22329523Y64947381D01*
X22234285Y64899762D01*
X23281904Y64947381D02*
X23186666Y64899762D01*
X23139047Y64852143D01*
X23091428Y64756905D01*
X23091428Y64471191D01*
X23139047Y64375953D01*
X23186666Y64328334D01*
X23281904Y64280715D01*
X23424761Y64280715D01*
X23520000Y64328334D01*
X23567619Y64375953D01*
X23615238Y64471191D01*
X23615238Y64756905D01*
X23567619Y64852143D01*
X23520000Y64899762D01*
X23424761Y64947381D01*
X23281904Y64947381D01*
X24472380Y64947381D02*
X24472380Y64423572D01*
X24424761Y64328334D01*
X24329523Y64280715D01*
X24139047Y64280715D01*
X24043809Y64328334D01*
X24472380Y64899762D02*
X24377142Y64947381D01*
X24139047Y64947381D01*
X24043809Y64899762D01*
X23996190Y64804524D01*
X23996190Y64709286D01*
X24043809Y64614048D01*
X24139047Y64566429D01*
X24377142Y64566429D01*
X24472380Y64518810D01*
X24948571Y64947381D02*
X24948571Y64280715D01*
X24948571Y64471191D02*
X24996190Y64375953D01*
X25043809Y64328334D01*
X25139047Y64280715D01*
X25234285Y64280715D01*
X25996190Y64947381D02*
X25996190Y63947381D01*
X25996190Y64899762D02*
X25900952Y64947381D01*
X25710476Y64947381D01*
X25615238Y64899762D01*
X25567619Y64852143D01*
X25520000Y64756905D01*
X25520000Y64471191D01*
X25567619Y64375953D01*
X25615238Y64328334D01*
X25710476Y64280715D01*
X25900952Y64280715D01*
X25996190Y64328334D01*
X13258095Y66597381D02*
X12924761Y66121191D01*
X12686666Y66597381D02*
X12686666Y65597381D01*
X13067619Y65597381D01*
X13162857Y65645000D01*
X13210476Y65692620D01*
X13258095Y65787858D01*
X13258095Y65930715D01*
X13210476Y66025953D01*
X13162857Y66073572D01*
X13067619Y66121191D01*
X12686666Y66121191D01*
X14067619Y66549762D02*
X13972380Y66597381D01*
X13781904Y66597381D01*
X13686666Y66549762D01*
X13639047Y66454524D01*
X13639047Y66073572D01*
X13686666Y65978334D01*
X13781904Y65930715D01*
X13972380Y65930715D01*
X14067619Y65978334D01*
X14115238Y66073572D01*
X14115238Y66168810D01*
X13639047Y66264048D01*
X14448571Y65930715D02*
X14686666Y66597381D01*
X14924761Y65930715D01*
X15305714Y66502143D02*
X15353333Y66549762D01*
X15305714Y66597381D01*
X15258095Y66549762D01*
X15305714Y66502143D01*
X15305714Y66597381D01*
X16496190Y66311667D02*
X16972380Y66311667D01*
X16400952Y66597381D02*
X16734285Y65597381D01*
X17067619Y66597381D01*
X18162857Y66597381D02*
X18162857Y65597381D01*
X18162857Y65978334D02*
X18258095Y65930715D01*
X18448571Y65930715D01*
X18543809Y65978334D01*
X18591428Y66025953D01*
X18639047Y66121191D01*
X18639047Y66406905D01*
X18591428Y66502143D01*
X18543809Y66549762D01*
X18448571Y66597381D01*
X18258095Y66597381D01*
X18162857Y66549762D01*
X18972380Y65930715D02*
X19210476Y66597381D01*
X19448571Y65930715D02*
X19210476Y66597381D01*
X19115238Y66835477D01*
X19067619Y66883096D01*
X18972380Y66930715D01*
X20448571Y65597381D02*
X21020000Y65597381D01*
X20734285Y66597381D02*
X20734285Y65597381D01*
X21781904Y66597381D02*
X21781904Y66073572D01*
X21734285Y65978334D01*
X21639047Y65930715D01*
X21448571Y65930715D01*
X21353333Y65978334D01*
X21781904Y66549762D02*
X21686666Y66597381D01*
X21448571Y66597381D01*
X21353333Y66549762D01*
X21305714Y66454524D01*
X21305714Y66359286D01*
X21353333Y66264048D01*
X21448571Y66216429D01*
X21686666Y66216429D01*
X21781904Y66168810D01*
X22258095Y66597381D02*
X22258095Y65597381D01*
X22353333Y66216429D02*
X22639047Y66597381D01*
X22639047Y65930715D02*
X22258095Y66311667D01*
X23020000Y66549762D02*
X23162857Y66597381D01*
X23400952Y66597381D01*
X23496190Y66549762D01*
X23543809Y66502143D01*
X23591428Y66406905D01*
X23591428Y66311667D01*
X23543809Y66216429D01*
X23496190Y66168810D01*
X23400952Y66121191D01*
X23210476Y66073572D01*
X23115238Y66025953D01*
X23067619Y65978334D01*
X23020000Y65883096D01*
X23020000Y65787858D01*
X23067619Y65692620D01*
X23115238Y65645000D01*
X23210476Y65597381D01*
X23448571Y65597381D01*
X23591428Y65645000D01*
X24448571Y66597381D02*
X24448571Y66073572D01*
X24400952Y65978334D01*
X24305714Y65930715D01*
X24115238Y65930715D01*
X24020000Y65978334D01*
X24448571Y66549762D02*
X24353333Y66597381D01*
X24115238Y66597381D01*
X24020000Y66549762D01*
X23972380Y66454524D01*
X23972380Y66359286D01*
X24020000Y66264048D01*
X24115238Y66216429D01*
X24353333Y66216429D01*
X24448571Y66168810D01*
X24924761Y65930715D02*
X24924761Y66597381D01*
X24924761Y66025953D02*
X24972380Y65978334D01*
X25067619Y65930715D01*
X25210476Y65930715D01*
X25305714Y65978334D01*
X25353333Y66073572D01*
X25353333Y66597381D01*
X40120000Y64947381D02*
X39643809Y64947381D01*
X39643809Y63947381D01*
X40453333Y64423572D02*
X40786666Y64423572D01*
X40929523Y64947381D02*
X40453333Y64947381D01*
X40453333Y63947381D01*
X40929523Y63947381D01*
X41358095Y64947381D02*
X41358095Y63947381D01*
X41596190Y63947381D01*
X41739047Y63995000D01*
X41834285Y64090239D01*
X41881904Y64185477D01*
X41929523Y64375953D01*
X41929523Y64518810D01*
X41881904Y64709286D01*
X41834285Y64804524D01*
X41739047Y64899762D01*
X41596190Y64947381D01*
X41358095Y64947381D01*
X43072380Y64899762D02*
X43215238Y64947381D01*
X43453333Y64947381D01*
X43548571Y64899762D01*
X43596190Y64852143D01*
X43643809Y64756905D01*
X43643809Y64661667D01*
X43596190Y64566429D01*
X43548571Y64518810D01*
X43453333Y64471191D01*
X43262857Y64423572D01*
X43167619Y64375953D01*
X43120000Y64328334D01*
X43072380Y64233096D01*
X43072380Y64137858D01*
X43120000Y64042620D01*
X43167619Y63995000D01*
X43262857Y63947381D01*
X43500952Y63947381D01*
X43643809Y63995000D01*
X44072380Y64280715D02*
X44072380Y65280715D01*
X44072380Y64328334D02*
X44167619Y64280715D01*
X44358095Y64280715D01*
X44453333Y64328334D01*
X44500952Y64375953D01*
X44548571Y64471191D01*
X44548571Y64756905D01*
X44500952Y64852143D01*
X44453333Y64899762D01*
X44358095Y64947381D01*
X44167619Y64947381D01*
X44072380Y64899762D01*
X44977142Y64947381D02*
X44977142Y63947381D01*
X45405714Y64947381D02*
X45405714Y64423572D01*
X45358095Y64328334D01*
X45262857Y64280715D01*
X45120000Y64280715D01*
X45024761Y64328334D01*
X44977142Y64375953D01*
X46262857Y64899762D02*
X46167619Y64947381D01*
X45977142Y64947381D01*
X45881904Y64899762D01*
X45834285Y64804524D01*
X45834285Y64423572D01*
X45881904Y64328334D01*
X45977142Y64280715D01*
X46167619Y64280715D01*
X46262857Y64328334D01*
X46310476Y64423572D01*
X46310476Y64518810D01*
X45834285Y64614048D01*
X47120000Y64899762D02*
X47024761Y64947381D01*
X46834285Y64947381D01*
X46739047Y64899762D01*
X46691428Y64804524D01*
X46691428Y64423572D01*
X46739047Y64328334D01*
X46834285Y64280715D01*
X47024761Y64280715D01*
X47120000Y64328334D01*
X47167619Y64423572D01*
X47167619Y64518810D01*
X46691428Y64614048D01*
X47596190Y64947381D02*
X47596190Y64280715D01*
X47596190Y64471191D02*
X47643809Y64375953D01*
X47691428Y64328334D01*
X47786666Y64280715D01*
X47881904Y64280715D01*
X48596190Y64899762D02*
X48500952Y64947381D01*
X48310476Y64947381D01*
X48215238Y64899762D01*
X48167619Y64804524D01*
X48167619Y64423572D01*
X48215238Y64328334D01*
X48310476Y64280715D01*
X48500952Y64280715D01*
X48596190Y64328334D01*
X48643809Y64423572D01*
X48643809Y64518810D01*
X48167619Y64614048D01*
X49834285Y64947381D02*
X49834285Y63947381D01*
X49834285Y64328334D02*
X49929523Y64280715D01*
X50120000Y64280715D01*
X50215238Y64328334D01*
X50262857Y64375953D01*
X50310476Y64471191D01*
X50310476Y64756905D01*
X50262857Y64852143D01*
X50215238Y64899762D01*
X50120000Y64947381D01*
X49929523Y64947381D01*
X49834285Y64899762D01*
X50881904Y64947381D02*
X50786666Y64899762D01*
X50739047Y64852143D01*
X50691428Y64756905D01*
X50691428Y64471191D01*
X50739047Y64375953D01*
X50786666Y64328334D01*
X50881904Y64280715D01*
X51024761Y64280715D01*
X51120000Y64328334D01*
X51167619Y64375953D01*
X51215238Y64471191D01*
X51215238Y64756905D01*
X51167619Y64852143D01*
X51120000Y64899762D01*
X51024761Y64947381D01*
X50881904Y64947381D01*
X52072380Y64947381D02*
X52072380Y64423572D01*
X52024761Y64328334D01*
X51929523Y64280715D01*
X51739047Y64280715D01*
X51643809Y64328334D01*
X52072380Y64899762D02*
X51977142Y64947381D01*
X51739047Y64947381D01*
X51643809Y64899762D01*
X51596190Y64804524D01*
X51596190Y64709286D01*
X51643809Y64614048D01*
X51739047Y64566429D01*
X51977142Y64566429D01*
X52072380Y64518810D01*
X52548571Y64947381D02*
X52548571Y64280715D01*
X52548571Y64471191D02*
X52596190Y64375953D01*
X52643809Y64328334D01*
X52739047Y64280715D01*
X52834285Y64280715D01*
X53596190Y64947381D02*
X53596190Y63947381D01*
X53596190Y64899762D02*
X53500952Y64947381D01*
X53310476Y64947381D01*
X53215238Y64899762D01*
X53167619Y64852143D01*
X53120000Y64756905D01*
X53120000Y64471191D01*
X53167619Y64375953D01*
X53215238Y64328334D01*
X53310476Y64280715D01*
X53500952Y64280715D01*
X53596190Y64328334D01*
X40858095Y66597381D02*
X40524761Y66121191D01*
X40286666Y66597381D02*
X40286666Y65597381D01*
X40667619Y65597381D01*
X40762857Y65645000D01*
X40810476Y65692620D01*
X40858095Y65787858D01*
X40858095Y65930715D01*
X40810476Y66025953D01*
X40762857Y66073572D01*
X40667619Y66121191D01*
X40286666Y66121191D01*
X41667619Y66549762D02*
X41572380Y66597381D01*
X41381904Y66597381D01*
X41286666Y66549762D01*
X41239047Y66454524D01*
X41239047Y66073572D01*
X41286666Y65978334D01*
X41381904Y65930715D01*
X41572380Y65930715D01*
X41667619Y65978334D01*
X41715238Y66073572D01*
X41715238Y66168810D01*
X41239047Y66264048D01*
X42048571Y65930715D02*
X42286666Y66597381D01*
X42524761Y65930715D01*
X42905714Y66502143D02*
X42953333Y66549762D01*
X42905714Y66597381D01*
X42858095Y66549762D01*
X42905714Y66502143D01*
X42905714Y66597381D01*
X44096190Y66311667D02*
X44572380Y66311667D01*
X44000952Y66597381D02*
X44334285Y65597381D01*
X44667619Y66597381D01*
X45762857Y66597381D02*
X45762857Y65597381D01*
X45762857Y65978334D02*
X45858095Y65930715D01*
X46048571Y65930715D01*
X46143809Y65978334D01*
X46191428Y66025953D01*
X46239047Y66121191D01*
X46239047Y66406905D01*
X46191428Y66502143D01*
X46143809Y66549762D01*
X46048571Y66597381D01*
X45858095Y66597381D01*
X45762857Y66549762D01*
X46572380Y65930715D02*
X46810476Y66597381D01*
X47048571Y65930715D02*
X46810476Y66597381D01*
X46715238Y66835477D01*
X46667619Y66883096D01*
X46572380Y66930715D01*
X48048571Y65597381D02*
X48620000Y65597381D01*
X48334285Y66597381D02*
X48334285Y65597381D01*
X49381904Y66597381D02*
X49381904Y66073572D01*
X49334285Y65978334D01*
X49239047Y65930715D01*
X49048571Y65930715D01*
X48953333Y65978334D01*
X49381904Y66549762D02*
X49286666Y66597381D01*
X49048571Y66597381D01*
X48953333Y66549762D01*
X48905714Y66454524D01*
X48905714Y66359286D01*
X48953333Y66264048D01*
X49048571Y66216429D01*
X49286666Y66216429D01*
X49381904Y66168810D01*
X49858095Y66597381D02*
X49858095Y65597381D01*
X49953333Y66216429D02*
X50239047Y66597381D01*
X50239047Y65930715D02*
X49858095Y66311667D01*
X50620000Y66549762D02*
X50762857Y66597381D01*
X51000952Y66597381D01*
X51096190Y66549762D01*
X51143809Y66502143D01*
X51191428Y66406905D01*
X51191428Y66311667D01*
X51143809Y66216429D01*
X51096190Y66168810D01*
X51000952Y66121191D01*
X50810476Y66073572D01*
X50715238Y66025953D01*
X50667619Y65978334D01*
X50620000Y65883096D01*
X50620000Y65787858D01*
X50667619Y65692620D01*
X50715238Y65645000D01*
X50810476Y65597381D01*
X51048571Y65597381D01*
X51191428Y65645000D01*
X52048571Y66597381D02*
X52048571Y66073572D01*
X52000952Y65978334D01*
X51905714Y65930715D01*
X51715238Y65930715D01*
X51620000Y65978334D01*
X52048571Y66549762D02*
X51953333Y66597381D01*
X51715238Y66597381D01*
X51620000Y66549762D01*
X51572380Y66454524D01*
X51572380Y66359286D01*
X51620000Y66264048D01*
X51715238Y66216429D01*
X51953333Y66216429D01*
X52048571Y66168810D01*
X52524761Y65930715D02*
X52524761Y66597381D01*
X52524761Y66025953D02*
X52572380Y65978334D01*
X52667619Y65930715D01*
X52810476Y65930715D01*
X52905714Y65978334D01*
X52953333Y66073572D01*
X52953333Y66597381D01*
X67720000Y64947381D02*
X67243809Y64947381D01*
X67243809Y63947381D01*
X68053333Y64423572D02*
X68386666Y64423572D01*
X68529523Y64947381D02*
X68053333Y64947381D01*
X68053333Y63947381D01*
X68529523Y63947381D01*
X68958095Y64947381D02*
X68958095Y63947381D01*
X69196190Y63947381D01*
X69339047Y63995000D01*
X69434285Y64090239D01*
X69481904Y64185477D01*
X69529523Y64375953D01*
X69529523Y64518810D01*
X69481904Y64709286D01*
X69434285Y64804524D01*
X69339047Y64899762D01*
X69196190Y64947381D01*
X68958095Y64947381D01*
X70672380Y64899762D02*
X70815238Y64947381D01*
X71053333Y64947381D01*
X71148571Y64899762D01*
X71196190Y64852143D01*
X71243809Y64756905D01*
X71243809Y64661667D01*
X71196190Y64566429D01*
X71148571Y64518810D01*
X71053333Y64471191D01*
X70862857Y64423572D01*
X70767619Y64375953D01*
X70720000Y64328334D01*
X70672380Y64233096D01*
X70672380Y64137858D01*
X70720000Y64042620D01*
X70767619Y63995000D01*
X70862857Y63947381D01*
X71100952Y63947381D01*
X71243809Y63995000D01*
X71672380Y64280715D02*
X71672380Y65280715D01*
X71672380Y64328334D02*
X71767619Y64280715D01*
X71958095Y64280715D01*
X72053333Y64328334D01*
X72100952Y64375953D01*
X72148571Y64471191D01*
X72148571Y64756905D01*
X72100952Y64852143D01*
X72053333Y64899762D01*
X71958095Y64947381D01*
X71767619Y64947381D01*
X71672380Y64899762D01*
X72577142Y64947381D02*
X72577142Y63947381D01*
X73005714Y64947381D02*
X73005714Y64423572D01*
X72958095Y64328334D01*
X72862857Y64280715D01*
X72720000Y64280715D01*
X72624761Y64328334D01*
X72577142Y64375953D01*
X73862857Y64899762D02*
X73767619Y64947381D01*
X73577142Y64947381D01*
X73481904Y64899762D01*
X73434285Y64804524D01*
X73434285Y64423572D01*
X73481904Y64328334D01*
X73577142Y64280715D01*
X73767619Y64280715D01*
X73862857Y64328334D01*
X73910476Y64423572D01*
X73910476Y64518810D01*
X73434285Y64614048D01*
X74720000Y64899762D02*
X74624761Y64947381D01*
X74434285Y64947381D01*
X74339047Y64899762D01*
X74291428Y64804524D01*
X74291428Y64423572D01*
X74339047Y64328334D01*
X74434285Y64280715D01*
X74624761Y64280715D01*
X74720000Y64328334D01*
X74767619Y64423572D01*
X74767619Y64518810D01*
X74291428Y64614048D01*
X75196190Y64947381D02*
X75196190Y64280715D01*
X75196190Y64471191D02*
X75243809Y64375953D01*
X75291428Y64328334D01*
X75386666Y64280715D01*
X75481904Y64280715D01*
X76196190Y64899762D02*
X76100952Y64947381D01*
X75910476Y64947381D01*
X75815238Y64899762D01*
X75767619Y64804524D01*
X75767619Y64423572D01*
X75815238Y64328334D01*
X75910476Y64280715D01*
X76100952Y64280715D01*
X76196190Y64328334D01*
X76243809Y64423572D01*
X76243809Y64518810D01*
X75767619Y64614048D01*
X77434285Y64947381D02*
X77434285Y63947381D01*
X77434285Y64328334D02*
X77529523Y64280715D01*
X77720000Y64280715D01*
X77815238Y64328334D01*
X77862857Y64375953D01*
X77910476Y64471191D01*
X77910476Y64756905D01*
X77862857Y64852143D01*
X77815238Y64899762D01*
X77720000Y64947381D01*
X77529523Y64947381D01*
X77434285Y64899762D01*
X78481904Y64947381D02*
X78386666Y64899762D01*
X78339047Y64852143D01*
X78291428Y64756905D01*
X78291428Y64471191D01*
X78339047Y64375953D01*
X78386666Y64328334D01*
X78481904Y64280715D01*
X78624761Y64280715D01*
X78720000Y64328334D01*
X78767619Y64375953D01*
X78815238Y64471191D01*
X78815238Y64756905D01*
X78767619Y64852143D01*
X78720000Y64899762D01*
X78624761Y64947381D01*
X78481904Y64947381D01*
X79672380Y64947381D02*
X79672380Y64423572D01*
X79624761Y64328334D01*
X79529523Y64280715D01*
X79339047Y64280715D01*
X79243809Y64328334D01*
X79672380Y64899762D02*
X79577142Y64947381D01*
X79339047Y64947381D01*
X79243809Y64899762D01*
X79196190Y64804524D01*
X79196190Y64709286D01*
X79243809Y64614048D01*
X79339047Y64566429D01*
X79577142Y64566429D01*
X79672380Y64518810D01*
X80148571Y64947381D02*
X80148571Y64280715D01*
X80148571Y64471191D02*
X80196190Y64375953D01*
X80243809Y64328334D01*
X80339047Y64280715D01*
X80434285Y64280715D01*
X81196190Y64947381D02*
X81196190Y63947381D01*
X81196190Y64899762D02*
X81100952Y64947381D01*
X80910476Y64947381D01*
X80815238Y64899762D01*
X80767619Y64852143D01*
X80720000Y64756905D01*
X80720000Y64471191D01*
X80767619Y64375953D01*
X80815238Y64328334D01*
X80910476Y64280715D01*
X81100952Y64280715D01*
X81196190Y64328334D01*
X68458095Y66597381D02*
X68124761Y66121191D01*
X67886666Y66597381D02*
X67886666Y65597381D01*
X68267619Y65597381D01*
X68362857Y65645000D01*
X68410476Y65692620D01*
X68458095Y65787858D01*
X68458095Y65930715D01*
X68410476Y66025953D01*
X68362857Y66073572D01*
X68267619Y66121191D01*
X67886666Y66121191D01*
X69267619Y66549762D02*
X69172380Y66597381D01*
X68981904Y66597381D01*
X68886666Y66549762D01*
X68839047Y66454524D01*
X68839047Y66073572D01*
X68886666Y65978334D01*
X68981904Y65930715D01*
X69172380Y65930715D01*
X69267619Y65978334D01*
X69315238Y66073572D01*
X69315238Y66168810D01*
X68839047Y66264048D01*
X69648571Y65930715D02*
X69886666Y66597381D01*
X70124761Y65930715D01*
X70505714Y66502143D02*
X70553333Y66549762D01*
X70505714Y66597381D01*
X70458095Y66549762D01*
X70505714Y66502143D01*
X70505714Y66597381D01*
X71696190Y66311667D02*
X72172380Y66311667D01*
X71600952Y66597381D02*
X71934285Y65597381D01*
X72267619Y66597381D01*
X73362857Y66597381D02*
X73362857Y65597381D01*
X73362857Y65978334D02*
X73458095Y65930715D01*
X73648571Y65930715D01*
X73743809Y65978334D01*
X73791428Y66025953D01*
X73839047Y66121191D01*
X73839047Y66406905D01*
X73791428Y66502143D01*
X73743809Y66549762D01*
X73648571Y66597381D01*
X73458095Y66597381D01*
X73362857Y66549762D01*
X74172380Y65930715D02*
X74410476Y66597381D01*
X74648571Y65930715D02*
X74410476Y66597381D01*
X74315238Y66835477D01*
X74267619Y66883096D01*
X74172380Y66930715D01*
X75648571Y65597381D02*
X76220000Y65597381D01*
X75934285Y66597381D02*
X75934285Y65597381D01*
X76981904Y66597381D02*
X76981904Y66073572D01*
X76934285Y65978334D01*
X76839047Y65930715D01*
X76648571Y65930715D01*
X76553333Y65978334D01*
X76981904Y66549762D02*
X76886666Y66597381D01*
X76648571Y66597381D01*
X76553333Y66549762D01*
X76505714Y66454524D01*
X76505714Y66359286D01*
X76553333Y66264048D01*
X76648571Y66216429D01*
X76886666Y66216429D01*
X76981904Y66168810D01*
X77458095Y66597381D02*
X77458095Y65597381D01*
X77553333Y66216429D02*
X77839047Y66597381D01*
X77839047Y65930715D02*
X77458095Y66311667D01*
X78220000Y66549762D02*
X78362857Y66597381D01*
X78600952Y66597381D01*
X78696190Y66549762D01*
X78743809Y66502143D01*
X78791428Y66406905D01*
X78791428Y66311667D01*
X78743809Y66216429D01*
X78696190Y66168810D01*
X78600952Y66121191D01*
X78410476Y66073572D01*
X78315238Y66025953D01*
X78267619Y65978334D01*
X78220000Y65883096D01*
X78220000Y65787858D01*
X78267619Y65692620D01*
X78315238Y65645000D01*
X78410476Y65597381D01*
X78648571Y65597381D01*
X78791428Y65645000D01*
X79648571Y66597381D02*
X79648571Y66073572D01*
X79600952Y65978334D01*
X79505714Y65930715D01*
X79315238Y65930715D01*
X79220000Y65978334D01*
X79648571Y66549762D02*
X79553333Y66597381D01*
X79315238Y66597381D01*
X79220000Y66549762D01*
X79172380Y66454524D01*
X79172380Y66359286D01*
X79220000Y66264048D01*
X79315238Y66216429D01*
X79553333Y66216429D01*
X79648571Y66168810D01*
X80124761Y65930715D02*
X80124761Y66597381D01*
X80124761Y66025953D02*
X80172380Y65978334D01*
X80267619Y65930715D01*
X80410476Y65930715D01*
X80505714Y65978334D01*
X80553333Y66073572D01*
X80553333Y66597381D01*
X80880000Y27392620D02*
X81356190Y27392620D01*
X81356190Y28392620D01*
X80546666Y27916429D02*
X80213333Y27916429D01*
X80070476Y27392620D02*
X80546666Y27392620D01*
X80546666Y28392620D01*
X80070476Y28392620D01*
X79641904Y27392620D02*
X79641904Y28392620D01*
X79403809Y28392620D01*
X79260952Y28345000D01*
X79165714Y28249762D01*
X79118095Y28154524D01*
X79070476Y27964048D01*
X79070476Y27821191D01*
X79118095Y27630715D01*
X79165714Y27535477D01*
X79260952Y27440239D01*
X79403809Y27392620D01*
X79641904Y27392620D01*
X77927619Y27440239D02*
X77784761Y27392620D01*
X77546666Y27392620D01*
X77451428Y27440239D01*
X77403809Y27487858D01*
X77356190Y27583096D01*
X77356190Y27678334D01*
X77403809Y27773572D01*
X77451428Y27821191D01*
X77546666Y27868810D01*
X77737142Y27916429D01*
X77832380Y27964048D01*
X77880000Y28011667D01*
X77927619Y28106905D01*
X77927619Y28202143D01*
X77880000Y28297381D01*
X77832380Y28345000D01*
X77737142Y28392620D01*
X77499047Y28392620D01*
X77356190Y28345000D01*
X76927619Y28059286D02*
X76927619Y27059286D01*
X76927619Y28011667D02*
X76832380Y28059286D01*
X76641904Y28059286D01*
X76546666Y28011667D01*
X76499047Y27964048D01*
X76451428Y27868810D01*
X76451428Y27583096D01*
X76499047Y27487858D01*
X76546666Y27440239D01*
X76641904Y27392620D01*
X76832380Y27392620D01*
X76927619Y27440239D01*
X76022857Y27392620D02*
X76022857Y28392620D01*
X75594285Y27392620D02*
X75594285Y27916429D01*
X75641904Y28011667D01*
X75737142Y28059286D01*
X75880000Y28059286D01*
X75975238Y28011667D01*
X76022857Y27964048D01*
X74737142Y27440239D02*
X74832380Y27392620D01*
X75022857Y27392620D01*
X75118095Y27440239D01*
X75165714Y27535477D01*
X75165714Y27916429D01*
X75118095Y28011667D01*
X75022857Y28059286D01*
X74832380Y28059286D01*
X74737142Y28011667D01*
X74689523Y27916429D01*
X74689523Y27821191D01*
X75165714Y27725953D01*
X73880000Y27440239D02*
X73975238Y27392620D01*
X74165714Y27392620D01*
X74260952Y27440239D01*
X74308571Y27535477D01*
X74308571Y27916429D01*
X74260952Y28011667D01*
X74165714Y28059286D01*
X73975238Y28059286D01*
X73880000Y28011667D01*
X73832380Y27916429D01*
X73832380Y27821191D01*
X74308571Y27725953D01*
X73403809Y27392620D02*
X73403809Y28059286D01*
X73403809Y27868810D02*
X73356190Y27964048D01*
X73308571Y28011667D01*
X73213333Y28059286D01*
X73118095Y28059286D01*
X72403809Y27440239D02*
X72499047Y27392620D01*
X72689523Y27392620D01*
X72784761Y27440239D01*
X72832380Y27535477D01*
X72832380Y27916429D01*
X72784761Y28011667D01*
X72689523Y28059286D01*
X72499047Y28059286D01*
X72403809Y28011667D01*
X72356190Y27916429D01*
X72356190Y27821191D01*
X72832380Y27725953D01*
X71165714Y27392620D02*
X71165714Y28392620D01*
X71165714Y28011667D02*
X71070476Y28059286D01*
X70880000Y28059286D01*
X70784761Y28011667D01*
X70737142Y27964048D01*
X70689523Y27868810D01*
X70689523Y27583096D01*
X70737142Y27487858D01*
X70784761Y27440239D01*
X70880000Y27392620D01*
X71070476Y27392620D01*
X71165714Y27440239D01*
X70118095Y27392620D02*
X70213333Y27440239D01*
X70260952Y27487858D01*
X70308571Y27583096D01*
X70308571Y27868810D01*
X70260952Y27964048D01*
X70213333Y28011667D01*
X70118095Y28059286D01*
X69975238Y28059286D01*
X69880000Y28011667D01*
X69832380Y27964048D01*
X69784761Y27868810D01*
X69784761Y27583096D01*
X69832380Y27487858D01*
X69880000Y27440239D01*
X69975238Y27392620D01*
X70118095Y27392620D01*
X68927619Y27392620D02*
X68927619Y27916429D01*
X68975238Y28011667D01*
X69070476Y28059286D01*
X69260952Y28059286D01*
X69356190Y28011667D01*
X68927619Y27440239D02*
X69022857Y27392620D01*
X69260952Y27392620D01*
X69356190Y27440239D01*
X69403809Y27535477D01*
X69403809Y27630715D01*
X69356190Y27725953D01*
X69260952Y27773572D01*
X69022857Y27773572D01*
X68927619Y27821191D01*
X68451428Y27392620D02*
X68451428Y28059286D01*
X68451428Y27868810D02*
X68403809Y27964048D01*
X68356190Y28011667D01*
X68260952Y28059286D01*
X68165714Y28059286D01*
X67403809Y27392620D02*
X67403809Y28392620D01*
X67403809Y27440239D02*
X67499047Y27392620D01*
X67689523Y27392620D01*
X67784761Y27440239D01*
X67832380Y27487858D01*
X67880000Y27583096D01*
X67880000Y27868810D01*
X67832380Y27964048D01*
X67784761Y28011667D01*
X67689523Y28059286D01*
X67499047Y28059286D01*
X67403809Y28011667D01*
X80141904Y25742620D02*
X80475238Y26218810D01*
X80713333Y25742620D02*
X80713333Y26742620D01*
X80332380Y26742620D01*
X80237142Y26695000D01*
X80189523Y26647381D01*
X80141904Y26552143D01*
X80141904Y26409286D01*
X80189523Y26314048D01*
X80237142Y26266429D01*
X80332380Y26218810D01*
X80713333Y26218810D01*
X79332380Y25790239D02*
X79427619Y25742620D01*
X79618095Y25742620D01*
X79713333Y25790239D01*
X79760952Y25885477D01*
X79760952Y26266429D01*
X79713333Y26361667D01*
X79618095Y26409286D01*
X79427619Y26409286D01*
X79332380Y26361667D01*
X79284761Y26266429D01*
X79284761Y26171191D01*
X79760952Y26075953D01*
X78951428Y26409286D02*
X78713333Y25742620D01*
X78475238Y26409286D01*
X78094285Y25837858D02*
X78046666Y25790239D01*
X78094285Y25742620D01*
X78141904Y25790239D01*
X78094285Y25837858D01*
X78094285Y25742620D01*
X76903809Y26028334D02*
X76427619Y26028334D01*
X76999047Y25742620D02*
X76665714Y26742620D01*
X76332380Y25742620D01*
X75237142Y25742620D02*
X75237142Y26742620D01*
X75237142Y26361667D02*
X75141904Y26409286D01*
X74951428Y26409286D01*
X74856190Y26361667D01*
X74808571Y26314048D01*
X74760952Y26218810D01*
X74760952Y25933096D01*
X74808571Y25837858D01*
X74856190Y25790239D01*
X74951428Y25742620D01*
X75141904Y25742620D01*
X75237142Y25790239D01*
X74427619Y26409286D02*
X74189523Y25742620D01*
X73951428Y26409286D02*
X74189523Y25742620D01*
X74284761Y25504524D01*
X74332380Y25456905D01*
X74427619Y25409286D01*
X72951428Y26742620D02*
X72380000Y26742620D01*
X72665714Y25742620D02*
X72665714Y26742620D01*
X71618095Y25742620D02*
X71618095Y26266429D01*
X71665714Y26361667D01*
X71760952Y26409286D01*
X71951428Y26409286D01*
X72046666Y26361667D01*
X71618095Y25790239D02*
X71713333Y25742620D01*
X71951428Y25742620D01*
X72046666Y25790239D01*
X72094285Y25885477D01*
X72094285Y25980715D01*
X72046666Y26075953D01*
X71951428Y26123572D01*
X71713333Y26123572D01*
X71618095Y26171191D01*
X71141904Y25742620D02*
X71141904Y26742620D01*
X71046666Y26123572D02*
X70760952Y25742620D01*
X70760952Y26409286D02*
X71141904Y26028334D01*
X70380000Y25790239D02*
X70237142Y25742620D01*
X69999047Y25742620D01*
X69903809Y25790239D01*
X69856190Y25837858D01*
X69808571Y25933096D01*
X69808571Y26028334D01*
X69856190Y26123572D01*
X69903809Y26171191D01*
X69999047Y26218810D01*
X70189523Y26266429D01*
X70284761Y26314048D01*
X70332380Y26361667D01*
X70380000Y26456905D01*
X70380000Y26552143D01*
X70332380Y26647381D01*
X70284761Y26695000D01*
X70189523Y26742620D01*
X69951428Y26742620D01*
X69808571Y26695000D01*
X68951428Y25742620D02*
X68951428Y26266429D01*
X68999047Y26361667D01*
X69094285Y26409286D01*
X69284761Y26409286D01*
X69380000Y26361667D01*
X68951428Y25790239D02*
X69046666Y25742620D01*
X69284761Y25742620D01*
X69380000Y25790239D01*
X69427619Y25885477D01*
X69427619Y25980715D01*
X69380000Y26075953D01*
X69284761Y26123572D01*
X69046666Y26123572D01*
X68951428Y26171191D01*
X68475238Y26409286D02*
X68475238Y25742620D01*
X68475238Y26314048D02*
X68427619Y26361667D01*
X68332380Y26409286D01*
X68189523Y26409286D01*
X68094285Y26361667D01*
X68046666Y26266429D01*
X68046666Y25742620D01*
X53280000Y27392620D02*
X53756190Y27392620D01*
X53756190Y28392620D01*
X52946666Y27916429D02*
X52613333Y27916429D01*
X52470476Y27392620D02*
X52946666Y27392620D01*
X52946666Y28392620D01*
X52470476Y28392620D01*
X52041904Y27392620D02*
X52041904Y28392620D01*
X51803809Y28392620D01*
X51660952Y28345000D01*
X51565714Y28249762D01*
X51518095Y28154524D01*
X51470476Y27964048D01*
X51470476Y27821191D01*
X51518095Y27630715D01*
X51565714Y27535477D01*
X51660952Y27440239D01*
X51803809Y27392620D01*
X52041904Y27392620D01*
X50327619Y27440239D02*
X50184761Y27392620D01*
X49946666Y27392620D01*
X49851428Y27440239D01*
X49803809Y27487858D01*
X49756190Y27583096D01*
X49756190Y27678334D01*
X49803809Y27773572D01*
X49851428Y27821191D01*
X49946666Y27868810D01*
X50137142Y27916429D01*
X50232380Y27964048D01*
X50280000Y28011667D01*
X50327619Y28106905D01*
X50327619Y28202143D01*
X50280000Y28297381D01*
X50232380Y28345000D01*
X50137142Y28392620D01*
X49899047Y28392620D01*
X49756190Y28345000D01*
X49327619Y28059286D02*
X49327619Y27059286D01*
X49327619Y28011667D02*
X49232380Y28059286D01*
X49041904Y28059286D01*
X48946666Y28011667D01*
X48899047Y27964048D01*
X48851428Y27868810D01*
X48851428Y27583096D01*
X48899047Y27487858D01*
X48946666Y27440239D01*
X49041904Y27392620D01*
X49232380Y27392620D01*
X49327619Y27440239D01*
X48422857Y27392620D02*
X48422857Y28392620D01*
X47994285Y27392620D02*
X47994285Y27916429D01*
X48041904Y28011667D01*
X48137142Y28059286D01*
X48280000Y28059286D01*
X48375238Y28011667D01*
X48422857Y27964048D01*
X47137142Y27440239D02*
X47232380Y27392620D01*
X47422857Y27392620D01*
X47518095Y27440239D01*
X47565714Y27535477D01*
X47565714Y27916429D01*
X47518095Y28011667D01*
X47422857Y28059286D01*
X47232380Y28059286D01*
X47137142Y28011667D01*
X47089523Y27916429D01*
X47089523Y27821191D01*
X47565714Y27725953D01*
X46280000Y27440239D02*
X46375238Y27392620D01*
X46565714Y27392620D01*
X46660952Y27440239D01*
X46708571Y27535477D01*
X46708571Y27916429D01*
X46660952Y28011667D01*
X46565714Y28059286D01*
X46375238Y28059286D01*
X46280000Y28011667D01*
X46232380Y27916429D01*
X46232380Y27821191D01*
X46708571Y27725953D01*
X45803809Y27392620D02*
X45803809Y28059286D01*
X45803809Y27868810D02*
X45756190Y27964048D01*
X45708571Y28011667D01*
X45613333Y28059286D01*
X45518095Y28059286D01*
X44803809Y27440239D02*
X44899047Y27392620D01*
X45089523Y27392620D01*
X45184761Y27440239D01*
X45232380Y27535477D01*
X45232380Y27916429D01*
X45184761Y28011667D01*
X45089523Y28059286D01*
X44899047Y28059286D01*
X44803809Y28011667D01*
X44756190Y27916429D01*
X44756190Y27821191D01*
X45232380Y27725953D01*
X43565714Y27392620D02*
X43565714Y28392620D01*
X43565714Y28011667D02*
X43470476Y28059286D01*
X43280000Y28059286D01*
X43184761Y28011667D01*
X43137142Y27964048D01*
X43089523Y27868810D01*
X43089523Y27583096D01*
X43137142Y27487858D01*
X43184761Y27440239D01*
X43280000Y27392620D01*
X43470476Y27392620D01*
X43565714Y27440239D01*
X42518095Y27392620D02*
X42613333Y27440239D01*
X42660952Y27487858D01*
X42708571Y27583096D01*
X42708571Y27868810D01*
X42660952Y27964048D01*
X42613333Y28011667D01*
X42518095Y28059286D01*
X42375238Y28059286D01*
X42280000Y28011667D01*
X42232380Y27964048D01*
X42184761Y27868810D01*
X42184761Y27583096D01*
X42232380Y27487858D01*
X42280000Y27440239D01*
X42375238Y27392620D01*
X42518095Y27392620D01*
X41327619Y27392620D02*
X41327619Y27916429D01*
X41375238Y28011667D01*
X41470476Y28059286D01*
X41660952Y28059286D01*
X41756190Y28011667D01*
X41327619Y27440239D02*
X41422857Y27392620D01*
X41660952Y27392620D01*
X41756190Y27440239D01*
X41803809Y27535477D01*
X41803809Y27630715D01*
X41756190Y27725953D01*
X41660952Y27773572D01*
X41422857Y27773572D01*
X41327619Y27821191D01*
X40851428Y27392620D02*
X40851428Y28059286D01*
X40851428Y27868810D02*
X40803809Y27964048D01*
X40756190Y28011667D01*
X40660952Y28059286D01*
X40565714Y28059286D01*
X39803809Y27392620D02*
X39803809Y28392620D01*
X39803809Y27440239D02*
X39899047Y27392620D01*
X40089523Y27392620D01*
X40184761Y27440239D01*
X40232380Y27487858D01*
X40280000Y27583096D01*
X40280000Y27868810D01*
X40232380Y27964048D01*
X40184761Y28011667D01*
X40089523Y28059286D01*
X39899047Y28059286D01*
X39803809Y28011667D01*
X52541904Y25742620D02*
X52875238Y26218810D01*
X53113333Y25742620D02*
X53113333Y26742620D01*
X52732380Y26742620D01*
X52637142Y26695000D01*
X52589523Y26647381D01*
X52541904Y26552143D01*
X52541904Y26409286D01*
X52589523Y26314048D01*
X52637142Y26266429D01*
X52732380Y26218810D01*
X53113333Y26218810D01*
X51732380Y25790239D02*
X51827619Y25742620D01*
X52018095Y25742620D01*
X52113333Y25790239D01*
X52160952Y25885477D01*
X52160952Y26266429D01*
X52113333Y26361667D01*
X52018095Y26409286D01*
X51827619Y26409286D01*
X51732380Y26361667D01*
X51684761Y26266429D01*
X51684761Y26171191D01*
X52160952Y26075953D01*
X51351428Y26409286D02*
X51113333Y25742620D01*
X50875238Y26409286D01*
X50494285Y25837858D02*
X50446666Y25790239D01*
X50494285Y25742620D01*
X50541904Y25790239D01*
X50494285Y25837858D01*
X50494285Y25742620D01*
X49303809Y26028334D02*
X48827619Y26028334D01*
X49399047Y25742620D02*
X49065714Y26742620D01*
X48732380Y25742620D01*
X47637142Y25742620D02*
X47637142Y26742620D01*
X47637142Y26361667D02*
X47541904Y26409286D01*
X47351428Y26409286D01*
X47256190Y26361667D01*
X47208571Y26314048D01*
X47160952Y26218810D01*
X47160952Y25933096D01*
X47208571Y25837858D01*
X47256190Y25790239D01*
X47351428Y25742620D01*
X47541904Y25742620D01*
X47637142Y25790239D01*
X46827619Y26409286D02*
X46589523Y25742620D01*
X46351428Y26409286D02*
X46589523Y25742620D01*
X46684761Y25504524D01*
X46732380Y25456905D01*
X46827619Y25409286D01*
X45351428Y26742620D02*
X44780000Y26742620D01*
X45065714Y25742620D02*
X45065714Y26742620D01*
X44018095Y25742620D02*
X44018095Y26266429D01*
X44065714Y26361667D01*
X44160952Y26409286D01*
X44351428Y26409286D01*
X44446666Y26361667D01*
X44018095Y25790239D02*
X44113333Y25742620D01*
X44351428Y25742620D01*
X44446666Y25790239D01*
X44494285Y25885477D01*
X44494285Y25980715D01*
X44446666Y26075953D01*
X44351428Y26123572D01*
X44113333Y26123572D01*
X44018095Y26171191D01*
X43541904Y25742620D02*
X43541904Y26742620D01*
X43446666Y26123572D02*
X43160952Y25742620D01*
X43160952Y26409286D02*
X43541904Y26028334D01*
X42780000Y25790239D02*
X42637142Y25742620D01*
X42399047Y25742620D01*
X42303809Y25790239D01*
X42256190Y25837858D01*
X42208571Y25933096D01*
X42208571Y26028334D01*
X42256190Y26123572D01*
X42303809Y26171191D01*
X42399047Y26218810D01*
X42589523Y26266429D01*
X42684761Y26314048D01*
X42732380Y26361667D01*
X42780000Y26456905D01*
X42780000Y26552143D01*
X42732380Y26647381D01*
X42684761Y26695000D01*
X42589523Y26742620D01*
X42351428Y26742620D01*
X42208571Y26695000D01*
X41351428Y25742620D02*
X41351428Y26266429D01*
X41399047Y26361667D01*
X41494285Y26409286D01*
X41684761Y26409286D01*
X41780000Y26361667D01*
X41351428Y25790239D02*
X41446666Y25742620D01*
X41684761Y25742620D01*
X41780000Y25790239D01*
X41827619Y25885477D01*
X41827619Y25980715D01*
X41780000Y26075953D01*
X41684761Y26123572D01*
X41446666Y26123572D01*
X41351428Y26171191D01*
X40875238Y26409286D02*
X40875238Y25742620D01*
X40875238Y26314048D02*
X40827619Y26361667D01*
X40732380Y26409286D01*
X40589523Y26409286D01*
X40494285Y26361667D01*
X40446666Y26266429D01*
X40446666Y25742620D01*
X25680000Y27392620D02*
X26156190Y27392620D01*
X26156190Y28392620D01*
X25346666Y27916429D02*
X25013333Y27916429D01*
X24870476Y27392620D02*
X25346666Y27392620D01*
X25346666Y28392620D01*
X24870476Y28392620D01*
X24441904Y27392620D02*
X24441904Y28392620D01*
X24203809Y28392620D01*
X24060952Y28345000D01*
X23965714Y28249762D01*
X23918095Y28154524D01*
X23870476Y27964048D01*
X23870476Y27821191D01*
X23918095Y27630715D01*
X23965714Y27535477D01*
X24060952Y27440239D01*
X24203809Y27392620D01*
X24441904Y27392620D01*
X22727619Y27440239D02*
X22584761Y27392620D01*
X22346666Y27392620D01*
X22251428Y27440239D01*
X22203809Y27487858D01*
X22156190Y27583096D01*
X22156190Y27678334D01*
X22203809Y27773572D01*
X22251428Y27821191D01*
X22346666Y27868810D01*
X22537142Y27916429D01*
X22632380Y27964048D01*
X22680000Y28011667D01*
X22727619Y28106905D01*
X22727619Y28202143D01*
X22680000Y28297381D01*
X22632380Y28345000D01*
X22537142Y28392620D01*
X22299047Y28392620D01*
X22156190Y28345000D01*
X21727619Y28059286D02*
X21727619Y27059286D01*
X21727619Y28011667D02*
X21632380Y28059286D01*
X21441904Y28059286D01*
X21346666Y28011667D01*
X21299047Y27964048D01*
X21251428Y27868810D01*
X21251428Y27583096D01*
X21299047Y27487858D01*
X21346666Y27440239D01*
X21441904Y27392620D01*
X21632380Y27392620D01*
X21727619Y27440239D01*
X20822857Y27392620D02*
X20822857Y28392620D01*
X20394285Y27392620D02*
X20394285Y27916429D01*
X20441904Y28011667D01*
X20537142Y28059286D01*
X20680000Y28059286D01*
X20775238Y28011667D01*
X20822857Y27964048D01*
X19537142Y27440239D02*
X19632380Y27392620D01*
X19822857Y27392620D01*
X19918095Y27440239D01*
X19965714Y27535477D01*
X19965714Y27916429D01*
X19918095Y28011667D01*
X19822857Y28059286D01*
X19632380Y28059286D01*
X19537142Y28011667D01*
X19489523Y27916429D01*
X19489523Y27821191D01*
X19965714Y27725953D01*
X18680000Y27440239D02*
X18775238Y27392620D01*
X18965714Y27392620D01*
X19060952Y27440239D01*
X19108571Y27535477D01*
X19108571Y27916429D01*
X19060952Y28011667D01*
X18965714Y28059286D01*
X18775238Y28059286D01*
X18680000Y28011667D01*
X18632380Y27916429D01*
X18632380Y27821191D01*
X19108571Y27725953D01*
X18203809Y27392620D02*
X18203809Y28059286D01*
X18203809Y27868810D02*
X18156190Y27964048D01*
X18108571Y28011667D01*
X18013333Y28059286D01*
X17918095Y28059286D01*
X17203809Y27440239D02*
X17299047Y27392620D01*
X17489523Y27392620D01*
X17584761Y27440239D01*
X17632380Y27535477D01*
X17632380Y27916429D01*
X17584761Y28011667D01*
X17489523Y28059286D01*
X17299047Y28059286D01*
X17203809Y28011667D01*
X17156190Y27916429D01*
X17156190Y27821191D01*
X17632380Y27725953D01*
X15965714Y27392620D02*
X15965714Y28392620D01*
X15965714Y28011667D02*
X15870476Y28059286D01*
X15680000Y28059286D01*
X15584761Y28011667D01*
X15537142Y27964048D01*
X15489523Y27868810D01*
X15489523Y27583096D01*
X15537142Y27487858D01*
X15584761Y27440239D01*
X15680000Y27392620D01*
X15870476Y27392620D01*
X15965714Y27440239D01*
X14918095Y27392620D02*
X15013333Y27440239D01*
X15060952Y27487858D01*
X15108571Y27583096D01*
X15108571Y27868810D01*
X15060952Y27964048D01*
X15013333Y28011667D01*
X14918095Y28059286D01*
X14775238Y28059286D01*
X14680000Y28011667D01*
X14632380Y27964048D01*
X14584761Y27868810D01*
X14584761Y27583096D01*
X14632380Y27487858D01*
X14680000Y27440239D01*
X14775238Y27392620D01*
X14918095Y27392620D01*
X13727619Y27392620D02*
X13727619Y27916429D01*
X13775238Y28011667D01*
X13870476Y28059286D01*
X14060952Y28059286D01*
X14156190Y28011667D01*
X13727619Y27440239D02*
X13822857Y27392620D01*
X14060952Y27392620D01*
X14156190Y27440239D01*
X14203809Y27535477D01*
X14203809Y27630715D01*
X14156190Y27725953D01*
X14060952Y27773572D01*
X13822857Y27773572D01*
X13727619Y27821191D01*
X13251428Y27392620D02*
X13251428Y28059286D01*
X13251428Y27868810D02*
X13203809Y27964048D01*
X13156190Y28011667D01*
X13060952Y28059286D01*
X12965714Y28059286D01*
X12203809Y27392620D02*
X12203809Y28392620D01*
X12203809Y27440239D02*
X12299047Y27392620D01*
X12489523Y27392620D01*
X12584761Y27440239D01*
X12632380Y27487858D01*
X12680000Y27583096D01*
X12680000Y27868810D01*
X12632380Y27964048D01*
X12584761Y28011667D01*
X12489523Y28059286D01*
X12299047Y28059286D01*
X12203809Y28011667D01*
X24941904Y25742620D02*
X25275238Y26218810D01*
X25513333Y25742620D02*
X25513333Y26742620D01*
X25132380Y26742620D01*
X25037142Y26695000D01*
X24989523Y26647381D01*
X24941904Y26552143D01*
X24941904Y26409286D01*
X24989523Y26314048D01*
X25037142Y26266429D01*
X25132380Y26218810D01*
X25513333Y26218810D01*
X24132380Y25790239D02*
X24227619Y25742620D01*
X24418095Y25742620D01*
X24513333Y25790239D01*
X24560952Y25885477D01*
X24560952Y26266429D01*
X24513333Y26361667D01*
X24418095Y26409286D01*
X24227619Y26409286D01*
X24132380Y26361667D01*
X24084761Y26266429D01*
X24084761Y26171191D01*
X24560952Y26075953D01*
X23751428Y26409286D02*
X23513333Y25742620D01*
X23275238Y26409286D01*
X22894285Y25837858D02*
X22846666Y25790239D01*
X22894285Y25742620D01*
X22941904Y25790239D01*
X22894285Y25837858D01*
X22894285Y25742620D01*
X21703809Y26028334D02*
X21227619Y26028334D01*
X21799047Y25742620D02*
X21465714Y26742620D01*
X21132380Y25742620D01*
X20037142Y25742620D02*
X20037142Y26742620D01*
X20037142Y26361667D02*
X19941904Y26409286D01*
X19751428Y26409286D01*
X19656190Y26361667D01*
X19608571Y26314048D01*
X19560952Y26218810D01*
X19560952Y25933096D01*
X19608571Y25837858D01*
X19656190Y25790239D01*
X19751428Y25742620D01*
X19941904Y25742620D01*
X20037142Y25790239D01*
X19227619Y26409286D02*
X18989523Y25742620D01*
X18751428Y26409286D02*
X18989523Y25742620D01*
X19084761Y25504524D01*
X19132380Y25456905D01*
X19227619Y25409286D01*
X17751428Y26742620D02*
X17180000Y26742620D01*
X17465714Y25742620D02*
X17465714Y26742620D01*
X16418095Y25742620D02*
X16418095Y26266429D01*
X16465714Y26361667D01*
X16560952Y26409286D01*
X16751428Y26409286D01*
X16846666Y26361667D01*
X16418095Y25790239D02*
X16513333Y25742620D01*
X16751428Y25742620D01*
X16846666Y25790239D01*
X16894285Y25885477D01*
X16894285Y25980715D01*
X16846666Y26075953D01*
X16751428Y26123572D01*
X16513333Y26123572D01*
X16418095Y26171191D01*
X15941904Y25742620D02*
X15941904Y26742620D01*
X15846666Y26123572D02*
X15560952Y25742620D01*
X15560952Y26409286D02*
X15941904Y26028334D01*
X15180000Y25790239D02*
X15037142Y25742620D01*
X14799047Y25742620D01*
X14703809Y25790239D01*
X14656190Y25837858D01*
X14608571Y25933096D01*
X14608571Y26028334D01*
X14656190Y26123572D01*
X14703809Y26171191D01*
X14799047Y26218810D01*
X14989523Y26266429D01*
X15084761Y26314048D01*
X15132380Y26361667D01*
X15180000Y26456905D01*
X15180000Y26552143D01*
X15132380Y26647381D01*
X15084761Y26695000D01*
X14989523Y26742620D01*
X14751428Y26742620D01*
X14608571Y26695000D01*
X13751428Y25742620D02*
X13751428Y26266429D01*
X13799047Y26361667D01*
X13894285Y26409286D01*
X14084761Y26409286D01*
X14180000Y26361667D01*
X13751428Y25790239D02*
X13846666Y25742620D01*
X14084761Y25742620D01*
X14180000Y25790239D01*
X14227619Y25885477D01*
X14227619Y25980715D01*
X14180000Y26075953D01*
X14084761Y26123572D01*
X13846666Y26123572D01*
X13751428Y26171191D01*
X13275238Y26409286D02*
X13275238Y25742620D01*
X13275238Y26314048D02*
X13227619Y26361667D01*
X13132380Y26409286D01*
X12989523Y26409286D01*
X12894285Y26361667D01*
X12846666Y26266429D01*
X12846666Y25742620D01*
%LPC*%
D11*
X88100000Y21370000D03*
X60500000Y21370000D03*
X32900000Y21370000D03*
X5300000Y21370000D03*
X88100000Y70970000D03*
X60500000Y70970000D03*
X32900000Y70970000D03*
X5300000Y70970000D03*
G36*
G01*
X23298823Y58514056D02*
X23298823Y58514056D01*
G75*
G02*
X24217803Y58772370I588647J-330333D01*
G01*
X24217803Y58772370D01*
G75*
G02*
X24476117Y57853390I-330333J-588647D01*
G01*
X24476117Y57853390D01*
G75*
G02*
X23557137Y57595076I-588647J330333D01*
G01*
X23557137Y57595076D01*
G75*
G02*
X23298823Y58514056I330333J588647D01*
G01*
G37*
G36*
G01*
X24277588Y60258194D02*
X24277588Y60258194D01*
G75*
G02*
X25196568Y60516508I588647J-330333D01*
G01*
X25196568Y60516508D01*
G75*
G02*
X25454882Y59597528I-330333J-588647D01*
G01*
X25454882Y59597528D01*
G75*
G02*
X24535902Y59339214I-588647J330333D01*
G01*
X24535902Y59339214D01*
G75*
G02*
X24277588Y60258194I330333J588647D01*
G01*
G37*
D12*
G36*
X24926020Y61413686D02*
G01*
X25586686Y62590980D01*
X26763980Y61930314D01*
X26103314Y60753020D01*
X24926020Y61413686D01*
G37*
G36*
G01*
X50898823Y58514056D02*
X50898823Y58514056D01*
G75*
G02*
X51817803Y58772370I588647J-330333D01*
G01*
X51817803Y58772370D01*
G75*
G02*
X52076117Y57853390I-330333J-588647D01*
G01*
X52076117Y57853390D01*
G75*
G02*
X51157137Y57595076I-588647J330333D01*
G01*
X51157137Y57595076D01*
G75*
G02*
X50898823Y58514056I330333J588647D01*
G01*
G37*
G36*
G01*
X51877588Y60258194D02*
X51877588Y60258194D01*
G75*
G02*
X52796568Y60516508I588647J-330333D01*
G01*
X52796568Y60516508D01*
G75*
G02*
X53054882Y59597528I-330333J-588647D01*
G01*
X53054882Y59597528D01*
G75*
G02*
X52135902Y59339214I-588647J330333D01*
G01*
X52135902Y59339214D01*
G75*
G02*
X51877588Y60258194I330333J588647D01*
G01*
G37*
G36*
X52526020Y61413686D02*
G01*
X53186686Y62590980D01*
X54363980Y61930314D01*
X53703314Y60753020D01*
X52526020Y61413686D01*
G37*
G36*
G01*
X78498823Y58514056D02*
X78498823Y58514056D01*
G75*
G02*
X79417803Y58772370I588647J-330333D01*
G01*
X79417803Y58772370D01*
G75*
G02*
X79676117Y57853390I-330333J-588647D01*
G01*
X79676117Y57853390D01*
G75*
G02*
X78757137Y57595076I-588647J330333D01*
G01*
X78757137Y57595076D01*
G75*
G02*
X78498823Y58514056I330333J588647D01*
G01*
G37*
G36*
G01*
X79477588Y60258194D02*
X79477588Y60258194D01*
G75*
G02*
X80396568Y60516508I588647J-330333D01*
G01*
X80396568Y60516508D01*
G75*
G02*
X80654882Y59597528I-330333J-588647D01*
G01*
X80654882Y59597528D01*
G75*
G02*
X79735902Y59339214I-588647J330333D01*
G01*
X79735902Y59339214D01*
G75*
G02*
X79477588Y60258194I330333J588647D01*
G01*
G37*
G36*
X80126020Y61413686D02*
G01*
X80786686Y62590980D01*
X81963980Y61930314D01*
X81303314Y60753020D01*
X80126020Y61413686D01*
G37*
G36*
G01*
X70101177Y33825944D02*
X70101177Y33825944D01*
G75*
G02*
X69182197Y33567630I-588647J330333D01*
G01*
X69182197Y33567630D01*
G75*
G02*
X68923883Y34486610I330333J588647D01*
G01*
X68923883Y34486610D01*
G75*
G02*
X69842863Y34744924I588647J-330333D01*
G01*
X69842863Y34744924D01*
G75*
G02*
X70101177Y33825944I-330333J-588647D01*
G01*
G37*
G36*
G01*
X69122412Y32081806D02*
X69122412Y32081806D01*
G75*
G02*
X68203432Y31823492I-588647J330333D01*
G01*
X68203432Y31823492D01*
G75*
G02*
X67945118Y32742472I330333J588647D01*
G01*
X67945118Y32742472D01*
G75*
G02*
X68864098Y33000786I588647J-330333D01*
G01*
X68864098Y33000786D01*
G75*
G02*
X69122412Y32081806I-330333J-588647D01*
G01*
G37*
G36*
X68473980Y30926314D02*
G01*
X67813314Y29749020D01*
X66636020Y30409686D01*
X67296686Y31586980D01*
X68473980Y30926314D01*
G37*
G36*
G01*
X42501177Y33825944D02*
X42501177Y33825944D01*
G75*
G02*
X41582197Y33567630I-588647J330333D01*
G01*
X41582197Y33567630D01*
G75*
G02*
X41323883Y34486610I330333J588647D01*
G01*
X41323883Y34486610D01*
G75*
G02*
X42242863Y34744924I588647J-330333D01*
G01*
X42242863Y34744924D01*
G75*
G02*
X42501177Y33825944I-330333J-588647D01*
G01*
G37*
G36*
G01*
X41522412Y32081806D02*
X41522412Y32081806D01*
G75*
G02*
X40603432Y31823492I-588647J330333D01*
G01*
X40603432Y31823492D01*
G75*
G02*
X40345118Y32742472I330333J588647D01*
G01*
X40345118Y32742472D01*
G75*
G02*
X41264098Y33000786I588647J-330333D01*
G01*
X41264098Y33000786D01*
G75*
G02*
X41522412Y32081806I-330333J-588647D01*
G01*
G37*
G36*
X40873980Y30926314D02*
G01*
X40213314Y29749020D01*
X39036020Y30409686D01*
X39696686Y31586980D01*
X40873980Y30926314D01*
G37*
G36*
X10253980Y66747686D02*
G01*
X9076686Y66087020D01*
X8416020Y67264314D01*
X9593314Y67924980D01*
X10253980Y66747686D01*
G37*
G36*
X37853980Y66747686D02*
G01*
X36676686Y66087020D01*
X36016020Y67264314D01*
X37193314Y67924980D01*
X37853980Y66747686D01*
G37*
G36*
X65453980Y66747686D02*
G01*
X64276686Y66087020D01*
X63616020Y67264314D01*
X64793314Y67924980D01*
X65453980Y66747686D01*
G37*
G36*
X83146020Y25592314D02*
G01*
X84323314Y26252980D01*
X84983980Y25075686D01*
X83806686Y24415020D01*
X83146020Y25592314D01*
G37*
G36*
X55546020Y25592314D02*
G01*
X56723314Y26252980D01*
X57383980Y25075686D01*
X56206686Y24415020D01*
X55546020Y25592314D01*
G37*
G36*
X29024314Y65960020D02*
G01*
X27847020Y66620686D01*
X28507686Y67797980D01*
X29684980Y67137314D01*
X29024314Y65960020D01*
G37*
G36*
X56624314Y65960020D02*
G01*
X55447020Y66620686D01*
X56107686Y67797980D01*
X57284980Y67137314D01*
X56624314Y65960020D01*
G37*
G36*
X84224314Y65960020D02*
G01*
X83047020Y66620686D01*
X83707686Y67797980D01*
X84884980Y67137314D01*
X84224314Y65960020D01*
G37*
G36*
X64375686Y26379980D02*
G01*
X65552980Y25719314D01*
X64892314Y24542020D01*
X63715020Y25202686D01*
X64375686Y26379980D01*
G37*
G36*
X36775686Y26379980D02*
G01*
X37952980Y25719314D01*
X37292314Y24542020D01*
X36115020Y25202686D01*
X36775686Y26379980D01*
G37*
D13*
X21082000Y70308000D03*
X19082000Y70308000D03*
D14*
X17082000Y70308000D03*
D13*
X48682000Y70308000D03*
X46682000Y70308000D03*
D14*
X44682000Y70308000D03*
D13*
X76282000Y70308000D03*
X74282000Y70308000D03*
D14*
X72282000Y70308000D03*
D13*
X72318000Y22032000D03*
X74318000Y22032000D03*
D14*
X76318000Y22032000D03*
D13*
X44718000Y22032000D03*
X46718000Y22032000D03*
D14*
X48718000Y22032000D03*
D12*
G36*
X21150314Y51990020D02*
G01*
X19973020Y52650686D01*
X20633686Y53827980D01*
X21810980Y53167314D01*
X21150314Y51990020D01*
G37*
G36*
X48750314Y51990020D02*
G01*
X47573020Y52650686D01*
X48233686Y53827980D01*
X49410980Y53167314D01*
X48750314Y51990020D01*
G37*
G36*
X76350314Y51990020D02*
G01*
X75173020Y52650686D01*
X75833686Y53827980D01*
X77010980Y53167314D01*
X76350314Y51990020D01*
G37*
G36*
X72249686Y40349980D02*
G01*
X73426980Y39689314D01*
X72766314Y38512020D01*
X71589020Y39172686D01*
X72249686Y40349980D01*
G37*
G36*
X44649686Y40349980D02*
G01*
X45826980Y39689314D01*
X45166314Y38512020D01*
X43989020Y39172686D01*
X44649686Y40349980D01*
G37*
G36*
X18127980Y52650686D02*
G01*
X16950686Y51990020D01*
X16290020Y53167314D01*
X17467314Y53827980D01*
X18127980Y52650686D01*
G37*
G36*
X45727980Y52650686D02*
G01*
X44550686Y51990020D01*
X43890020Y53167314D01*
X45067314Y53827980D01*
X45727980Y52650686D01*
G37*
G36*
X73327980Y52650686D02*
G01*
X72150686Y51990020D01*
X71490020Y53167314D01*
X72667314Y53827980D01*
X73327980Y52650686D01*
G37*
G36*
X75272020Y39689314D02*
G01*
X76449314Y40349980D01*
X77109980Y39172686D01*
X75932686Y38512020D01*
X75272020Y39689314D01*
G37*
G36*
X47672020Y39689314D02*
G01*
X48849314Y40349980D01*
X49509980Y39172686D01*
X48332686Y38512020D01*
X47672020Y39689314D01*
G37*
D14*
X11113000Y70308000D03*
X38713000Y70308000D03*
X66313000Y70308000D03*
X82287000Y22032000D03*
X54687000Y22032000D03*
D15*
X19100000Y56620000D03*
X46700000Y56620000D03*
X74300000Y56620000D03*
X74300000Y35720000D03*
X46700000Y35720000D03*
D14*
X27115000Y70308000D03*
X54715000Y70308000D03*
X82315000Y70308000D03*
X66285000Y22032000D03*
X38685000Y22032000D03*
D12*
G36*
X12251686Y60880020D02*
G01*
X11591020Y62057314D01*
X12768314Y62717980D01*
X13428980Y61540686D01*
X12251686Y60880020D01*
G37*
G36*
G01*
X12900118Y59724528D02*
X12900118Y59724528D01*
G75*
G02*
X13158432Y60643508I588647J330333D01*
G01*
X13158432Y60643508D01*
G75*
G02*
X14077412Y60385194I330333J-588647D01*
G01*
X14077412Y60385194D01*
G75*
G02*
X13819098Y59466214I-588647J-330333D01*
G01*
X13819098Y59466214D01*
G75*
G02*
X12900118Y59724528I-330333J588647D01*
G01*
G37*
G36*
G01*
X13878883Y57980390D02*
X13878883Y57980390D01*
G75*
G02*
X14137197Y58899370I588647J330333D01*
G01*
X14137197Y58899370D01*
G75*
G02*
X15056177Y58641056I330333J-588647D01*
G01*
X15056177Y58641056D01*
G75*
G02*
X14797863Y57722076I-588647J-330333D01*
G01*
X14797863Y57722076D01*
G75*
G02*
X13878883Y57980390I-330333J588647D01*
G01*
G37*
G36*
X39851686Y60880020D02*
G01*
X39191020Y62057314D01*
X40368314Y62717980D01*
X41028980Y61540686D01*
X39851686Y60880020D01*
G37*
G36*
G01*
X40500118Y59724528D02*
X40500118Y59724528D01*
G75*
G02*
X40758432Y60643508I588647J330333D01*
G01*
X40758432Y60643508D01*
G75*
G02*
X41677412Y60385194I330333J-588647D01*
G01*
X41677412Y60385194D01*
G75*
G02*
X41419098Y59466214I-588647J-330333D01*
G01*
X41419098Y59466214D01*
G75*
G02*
X40500118Y59724528I-330333J588647D01*
G01*
G37*
G36*
G01*
X41478883Y57980390D02*
X41478883Y57980390D01*
G75*
G02*
X41737197Y58899370I588647J330333D01*
G01*
X41737197Y58899370D01*
G75*
G02*
X42656177Y58641056I330333J-588647D01*
G01*
X42656177Y58641056D01*
G75*
G02*
X42397863Y57722076I-588647J-330333D01*
G01*
X42397863Y57722076D01*
G75*
G02*
X41478883Y57980390I-330333J588647D01*
G01*
G37*
G36*
X67451686Y60880020D02*
G01*
X66791020Y62057314D01*
X67968314Y62717980D01*
X68628980Y61540686D01*
X67451686Y60880020D01*
G37*
G36*
G01*
X68100118Y59724528D02*
X68100118Y59724528D01*
G75*
G02*
X68358432Y60643508I588647J330333D01*
G01*
X68358432Y60643508D01*
G75*
G02*
X69277412Y60385194I330333J-588647D01*
G01*
X69277412Y60385194D01*
G75*
G02*
X69019098Y59466214I-588647J-330333D01*
G01*
X69019098Y59466214D01*
G75*
G02*
X68100118Y59724528I-330333J588647D01*
G01*
G37*
G36*
G01*
X69078883Y57980390D02*
X69078883Y57980390D01*
G75*
G02*
X69337197Y58899370I588647J330333D01*
G01*
X69337197Y58899370D01*
G75*
G02*
X70256177Y58641056I330333J-588647D01*
G01*
X70256177Y58641056D01*
G75*
G02*
X69997863Y57722076I-588647J-330333D01*
G01*
X69997863Y57722076D01*
G75*
G02*
X69078883Y57980390I-330333J588647D01*
G01*
G37*
G36*
X81148314Y31459980D02*
G01*
X81808980Y30282686D01*
X80631686Y29622020D01*
X79971020Y30799314D01*
X81148314Y31459980D01*
G37*
G36*
G01*
X80499882Y32615472D02*
X80499882Y32615472D01*
G75*
G02*
X80241568Y31696492I-588647J-330333D01*
G01*
X80241568Y31696492D01*
G75*
G02*
X79322588Y31954806I-330333J588647D01*
G01*
X79322588Y31954806D01*
G75*
G02*
X79580902Y32873786I588647J330333D01*
G01*
X79580902Y32873786D01*
G75*
G02*
X80499882Y32615472I330333J-588647D01*
G01*
G37*
G36*
G01*
X79521117Y34359610D02*
X79521117Y34359610D01*
G75*
G02*
X79262803Y33440630I-588647J-330333D01*
G01*
X79262803Y33440630D01*
G75*
G02*
X78343823Y33698944I-330333J588647D01*
G01*
X78343823Y33698944D01*
G75*
G02*
X78602137Y34617924I588647J330333D01*
G01*
X78602137Y34617924D01*
G75*
G02*
X79521117Y34359610I330333J-588647D01*
G01*
G37*
G36*
X53548314Y31459980D02*
G01*
X54208980Y30282686D01*
X53031686Y29622020D01*
X52371020Y30799314D01*
X53548314Y31459980D01*
G37*
G36*
G01*
X52899882Y32615472D02*
X52899882Y32615472D01*
G75*
G02*
X52641568Y31696492I-588647J-330333D01*
G01*
X52641568Y31696492D01*
G75*
G02*
X51722588Y31954806I-330333J588647D01*
G01*
X51722588Y31954806D01*
G75*
G02*
X51980902Y32873786I588647J330333D01*
G01*
X51980902Y32873786D01*
G75*
G02*
X52899882Y32615472I330333J-588647D01*
G01*
G37*
G36*
G01*
X51921117Y34359610D02*
X51921117Y34359610D01*
G75*
G02*
X51662803Y33440630I-588647J-330333D01*
G01*
X51662803Y33440630D01*
G75*
G02*
X50743823Y33698944I-330333J588647D01*
G01*
X50743823Y33698944D01*
G75*
G02*
X51002137Y34617924I588647J330333D01*
G01*
X51002137Y34617924D01*
G75*
G02*
X51921117Y34359610I330333J-588647D01*
G01*
G37*
D15*
X19100000Y35720000D03*
D12*
G36*
X9175686Y26379980D02*
G01*
X10352980Y25719314D01*
X9692314Y24542020D01*
X8515020Y25202686D01*
X9175686Y26379980D01*
G37*
G36*
X13273980Y30926314D02*
G01*
X12613314Y29749020D01*
X11436020Y30409686D01*
X12096686Y31586980D01*
X13273980Y30926314D01*
G37*
G36*
G01*
X13922412Y32081806D02*
X13922412Y32081806D01*
G75*
G02*
X13003432Y31823492I-588647J330333D01*
G01*
X13003432Y31823492D01*
G75*
G02*
X12745118Y32742472I330333J588647D01*
G01*
X12745118Y32742472D01*
G75*
G02*
X13664098Y33000786I588647J-330333D01*
G01*
X13664098Y33000786D01*
G75*
G02*
X13922412Y32081806I-330333J-588647D01*
G01*
G37*
G36*
G01*
X14901177Y33825944D02*
X14901177Y33825944D01*
G75*
G02*
X13982197Y33567630I-588647J330333D01*
G01*
X13982197Y33567630D01*
G75*
G02*
X13723883Y34486610I330333J588647D01*
G01*
X13723883Y34486610D01*
G75*
G02*
X14642863Y34744924I588647J-330333D01*
G01*
X14642863Y34744924D01*
G75*
G02*
X14901177Y33825944I-330333J-588647D01*
G01*
G37*
G36*
X17049686Y40349980D02*
G01*
X18226980Y39689314D01*
X17566314Y38512020D01*
X16389020Y39172686D01*
X17049686Y40349980D01*
G37*
G36*
X20072020Y39689314D02*
G01*
X21249314Y40349980D01*
X21909980Y39172686D01*
X20732686Y38512020D01*
X20072020Y39689314D01*
G37*
G36*
G01*
X24321117Y34359610D02*
X24321117Y34359610D01*
G75*
G02*
X24062803Y33440630I-588647J-330333D01*
G01*
X24062803Y33440630D01*
G75*
G02*
X23143823Y33698944I-330333J588647D01*
G01*
X23143823Y33698944D01*
G75*
G02*
X23402137Y34617924I588647J330333D01*
G01*
X23402137Y34617924D01*
G75*
G02*
X24321117Y34359610I330333J-588647D01*
G01*
G37*
G36*
G01*
X25299882Y32615472D02*
X25299882Y32615472D01*
G75*
G02*
X25041568Y31696492I-588647J-330333D01*
G01*
X25041568Y31696492D01*
G75*
G02*
X24122588Y31954806I-330333J588647D01*
G01*
X24122588Y31954806D01*
G75*
G02*
X24380902Y32873786I588647J330333D01*
G01*
X24380902Y32873786D01*
G75*
G02*
X25299882Y32615472I330333J-588647D01*
G01*
G37*
G36*
X25948314Y31459980D02*
G01*
X26608980Y30282686D01*
X25431686Y29622020D01*
X24771020Y30799314D01*
X25948314Y31459980D01*
G37*
G36*
X27946020Y25592314D02*
G01*
X29123314Y26252980D01*
X29783980Y25075686D01*
X28606686Y24415020D01*
X27946020Y25592314D01*
G37*
D14*
X27087000Y22032000D03*
X21118000Y22032000D03*
D13*
X19118000Y22032000D03*
X17118000Y22032000D03*
D14*
X11085000Y22032000D03*
M02*
