M48
; DRILL file {KiCad (5.1.12)-1} date 06/20/23 10:27:10
; FORMAT={-:-/ absolute / metric / decimal}
; #@! TF.CreationDate,2023-06-20T10:27:10+09:00
; #@! TF.GenerationSoftware,Kicad,Pcbnew,(5.1.12)-1
FMAT,2
METRIC
T1C0.400
T2C0.800
T3C1.000
T4C0.600
T5C2.700
%
G90
G05
T1
X15.52Y24.56
X17.28Y28.83
X20.92Y63.51
X22.68Y67.78
X43.12Y24.56
X44.88Y28.83
X48.52Y63.51
X50.28Y67.78
X70.72Y24.56
X72.48Y28.83
X76.12Y63.51
X77.88Y67.78
T2
X9.335Y67.006
X9.434Y25.461
X11.085Y22.032
X11.113Y70.308
X12.355Y30.668
X12.51Y61.799
X13.334Y32.412
X13.489Y60.055
X14.313Y34.156
X14.468Y58.311
X17.082Y70.308
X17.118Y22.032
X17.209Y52.909
X17.308Y39.431
X19.082Y70.308
X19.118Y22.032
X20.892Y52.909
X20.991Y39.431
X21.082Y70.308
X21.118Y22.032
X23.732Y34.029
X23.887Y58.184
X24.711Y32.285
X24.866Y59.928
X25.69Y30.541
X25.845Y61.672
X27.087Y22.032
X27.115Y70.308
X28.766Y66.879
X28.865Y25.334
X36.935Y67.006
X37.034Y25.461
X38.685Y22.032
X38.713Y70.308
X39.955Y30.668
X40.11Y61.799
X40.934Y32.412
X41.089Y60.055
X41.913Y34.156
X42.068Y58.311
X44.682Y70.308
X44.718Y22.032
X44.809Y52.909
X44.908Y39.431
X46.682Y70.308
X46.718Y22.032
X48.492Y52.909
X48.591Y39.431
X48.682Y70.308
X48.718Y22.032
X51.332Y34.029
X51.487Y58.184
X52.311Y32.285
X52.466Y59.928
X53.29Y30.541
X53.445Y61.672
X54.687Y22.032
X54.715Y70.308
X56.366Y66.879
X56.465Y25.334
X64.535Y67.006
X64.634Y25.461
X66.285Y22.032
X66.313Y70.308
X67.555Y30.668
X67.71Y61.799
X68.534Y32.412
X68.689Y60.055
X69.513Y34.156
X69.668Y58.311
X72.282Y70.308
X72.318Y22.032
X72.409Y52.909
X72.508Y39.431
X74.282Y70.308
X74.318Y22.032
X76.092Y52.909
X76.191Y39.431
X76.282Y70.308
X76.318Y22.032
X78.932Y34.029
X79.087Y58.184
X79.911Y32.285
X80.066Y59.928
X80.89Y30.541
X81.045Y61.672
X82.287Y22.032
X82.315Y70.308
X83.966Y66.879
X84.065Y25.334
T3
X15.15Y68.42
X19.01Y28.77
X19.19Y63.57
X23.05Y23.92
X42.75Y68.42
X46.61Y28.77
X46.79Y63.57
X50.65Y23.92
X70.35Y68.42
X74.21Y28.77
X74.39Y63.57
X78.25Y23.92
T4
X5.3Y70.97
X5.3Y21.37
X32.9Y70.97
X32.9Y21.37
X60.5Y70.97
X60.5Y21.37
X88.1Y70.97
X88.1Y21.37
T5
X19.1Y56.62
X19.1Y35.72
X46.7Y56.62
X46.7Y35.72
X74.3Y56.62
X74.3Y35.72
T0
M30
