G04 #@! TF.GenerationSoftware,KiCad,Pcbnew,(5.1.12)-1*
G04 #@! TF.CreationDate,2023-06-20T10:26:49+09:00*
G04 #@! TF.ProjectId,LED_Sphere_3V-TypeC-Panelized,4c45445f-5370-4686-9572-655f33562d54,rev?*
G04 #@! TF.SameCoordinates,PX5a06e00PY8f0d180*
G04 #@! TF.FileFunction,Profile,NP*
%FSLAX46Y46*%
G04 Gerber Fmt 4.6, Leading zero omitted, Abs format (unit mm)*
G04 Created by KiCad (PCBNEW (5.1.12)-1) date 2023-06-20 10:26:49*
%MOMM*%
%LPD*%
G01*
G04 APERTURE LIST*
G04 #@! TA.AperFunction,Profile*
%ADD10C,0.050000*%
G04 #@! TD*
G04 APERTURE END LIST*
D10*
X0Y92340000D02*
X0Y0D01*
X93400000Y92340000D02*
X0Y92340000D01*
X93400000Y0D02*
X93400000Y92340000D01*
X0Y0D02*
X93400000Y0D01*
X88400000Y69670000D02*
X88400000Y22670000D01*
X88400000Y69670000D02*
X87800000Y69670000D01*
X88400000Y22670000D02*
X87800000Y22670000D01*
X5000000Y22670000D02*
X5000000Y69670000D01*
X5000000Y22670000D02*
X5600000Y22670000D01*
X5000000Y69670000D02*
X5600000Y69670000D01*
X32600000Y22670000D02*
X33200000Y22670000D01*
X60200000Y22670000D02*
X60800000Y22670000D01*
X32600000Y69670000D02*
X33200000Y69670000D01*
X60200000Y69670000D02*
X60800000Y69670000D01*
X74790000Y45870000D02*
X74790000Y46470000D01*
X73810000Y45870000D02*
X73810000Y46470000D01*
X47190000Y46470000D02*
X47190000Y45870000D01*
X46210000Y45870000D02*
X46210000Y46470000D01*
X19590000Y46470000D02*
X19590000Y45870000D01*
X18610000Y46470000D02*
X18610000Y45870000D01*
X5600000Y69670000D02*
X18610000Y46470000D01*
X33200000Y69670000D02*
X46210000Y46470000D01*
X60800000Y69670000D02*
X73810000Y46470000D01*
X87800000Y22670000D02*
X74790000Y45870000D01*
X60200000Y22670000D02*
X47190000Y45870000D01*
X19590000Y46470000D02*
X32600000Y69670000D01*
X47190000Y46470000D02*
X60200000Y69670000D01*
X74790000Y46470000D02*
X87800000Y69670000D01*
X73810000Y45870000D02*
X60800000Y22670000D01*
X46210000Y45870000D02*
X33200000Y22670000D01*
X18610000Y45870000D02*
X5600000Y22670000D01*
X32600000Y22670000D02*
X19590000Y45870000D01*
M02*
